<?xml version="1.0" encoding="utf-8" standalone="no"?>
<!DOCTYPE svg PUBLIC "-//W3C//DTD SVG 1.1//EN"
  "http://www.w3.org/Graphics/SVG/1.1/DTD/svg11.dtd">
<!-- Created with matplotlib (http://matplotlib.org/) -->
<svg height="288pt" version="1.1" viewBox="0 0 288 288" width="288pt" xmlns="http://www.w3.org/2000/svg" xmlns:xlink="http://www.w3.org/1999/xlink">
 <defs>
  <style type="text/css">
*{stroke-linecap:butt;stroke-linejoin:round;}
  </style>
 </defs>
 <g id="figure_1">
  <g id="patch_1">
   <path d="M 0 288 
L 288 288 
L 288 0 
L 0 0 
z
" style="fill:#ffffff;"/>
  </g>
  <g id="axes_1">
   <g id="patch_2">
    <path d="M 37.330469 183.67 
L 250.669531 183.67 
L 250.669531 23.175 
L 37.330469 23.175 
z
" style="fill:#ffffff;"/>
   </g>
   <g id="PolyCollection_1">
    <defs>
     <path d="M 47.027699 -111.625227 
L 47.027699 -136.305427 
L 50.985752 -138.13952 
L 54.943805 -138.081668 
L 58.901858 -137.696229 
L 62.859911 -138.654137 
L 66.817964 -142.007958 
L 70.776018 -148.129077 
L 74.734071 -157.003521 
L 78.692124 -168.412071 
L 82.650177 -181.861712 
L 86.60823 -196.459731 
L 90.566283 -210.94236 
L 94.524336 -223.884499 
L 98.482389 -233.957401 
L 102.440442 -240.103375 
L 106.398495 -241.615509 
L 110.356549 -238.196371 
L 114.314602 -230.042455 
L 118.272655 -217.915069 
L 122.230708 -203.103203 
L 126.188761 -187.209084 
L 130.146814 -171.794841 
L 134.104867 -158.046839 
L 138.06292 -146.620834 
L 142.020973 -137.697895 
L 145.979027 -131.138674 
L 149.93708 -126.61113 
L 153.895133 -123.664884 
L 157.853186 -121.800784 
L 161.811239 -120.564275 
L 165.769292 -119.631182 
L 169.727345 -118.838736 
L 173.685398 -118.152157 
L 177.643451 -117.598088 
L 181.601505 -117.205317 
L 185.559558 -116.975556 
L 189.517611 -116.885259 
L 193.475664 -116.907092 
L 197.433717 -117.033504 
L 201.39177 -117.282431 
L 205.349823 -117.675052 
L 209.307876 -118.198416 
L 213.265929 -118.78257 
L 217.223982 -119.313358 
L 221.182036 -119.672466 
L 225.140089 -119.774354 
L 229.098142 -119.58031 
L 233.056195 -119.098519 
L 237.014248 -118.385668 
L 240.972301 -117.5431 
L 240.972301 -111.625227 
L 240.972301 -111.625227 
L 237.014248 -111.625227 
L 233.056195 -111.625227 
L 229.098142 -111.625227 
L 225.140089 -111.625227 
L 221.182036 -111.625227 
L 217.223982 -111.625227 
L 213.265929 -111.625227 
L 209.307876 -111.625227 
L 205.349823 -111.625227 
L 201.39177 -111.625227 
L 197.433717 -111.625227 
L 193.475664 -111.625227 
L 189.517611 -111.625227 
L 185.559558 -111.625227 
L 181.601505 -111.625227 
L 177.643451 -111.625227 
L 173.685398 -111.625227 
L 169.727345 -111.625227 
L 165.769292 -111.625227 
L 161.811239 -111.625227 
L 157.853186 -111.625227 
L 153.895133 -111.625227 
L 149.93708 -111.625227 
L 145.979027 -111.625227 
L 142.020973 -111.625227 
L 138.06292 -111.625227 
L 134.104867 -111.625227 
L 130.146814 -111.625227 
L 126.188761 -111.625227 
L 122.230708 -111.625227 
L 118.272655 -111.625227 
L 114.314602 -111.625227 
L 110.356549 -111.625227 
L 106.398495 -111.625227 
L 102.440442 -111.625227 
L 98.482389 -111.625227 
L 94.524336 -111.625227 
L 90.566283 -111.625227 
L 86.60823 -111.625227 
L 82.650177 -111.625227 
L 78.692124 -111.625227 
L 74.734071 -111.625227 
L 70.776018 -111.625227 
L 66.817964 -111.625227 
L 62.859911 -111.625227 
L 58.901858 -111.625227 
L 54.943805 -111.625227 
L 50.985752 -111.625227 
L 47.027699 -111.625227 
z
" id="m1a70b9a970" style="stroke:#cc79a7;stroke-opacity:0.3;"/>
    </defs>
    <g clip-path="url(#p0506558011)">
     <use style="fill:#cc79a7;fill-opacity:0.3;stroke:#cc79a7;stroke-opacity:0.3;" x="0" xlink:href="#m1a70b9a970" y="288"/>
    </g>
   </g>
   <g id="PolyCollection_2">
    <defs>
     <path d="M 47.027699 -111.625227 
L 47.027699 -140.571955 
L 50.985752 -147.189204 
L 54.943805 -153.159291 
L 58.901858 -158.291572 
L 62.859911 -162.722921 
L 66.817964 -166.810832 
L 70.776018 -170.947713 
L 74.734071 -175.390705 
L 78.692124 -180.176078 
L 82.650177 -185.12919 
L 86.60823 -189.931722 
L 90.566283 -194.196254 
L 94.524336 -197.521868 
L 98.482389 -199.535802 
L 102.440442 -199.937598 
L 106.398495 -198.548765 
L 110.356549 -195.35196 
L 114.314602 -190.500626 
L 118.272655 -184.29535 
L 122.230708 -177.139581 
L 126.188761 -169.48948 
L 130.146814 -161.803112 
L 134.104867 -154.488706 
L 138.06292 -147.857939 
L 142.020973 -142.098777 
L 145.979027 -137.279166 
L 149.93708 -133.376907 
L 153.895133 -130.316755 
L 157.853186 -127.996588 
L 161.811239 -126.298332 
L 165.769292 -125.092802 
L 169.727345 -124.249564 
L 173.685398 -123.654423 
L 177.643451 -123.227474 
L 181.601505 -122.931977 
L 185.559558 -122.769265 
L 189.517611 -122.762267 
L 193.475664 -122.93459 
L 197.433717 -123.292071 
L 201.39177 -123.811279 
L 205.349823 -124.43663 
L 209.307876 -125.08543 
L 213.265929 -125.658492 
L 217.223982 -126.053737 
L 221.182036 -126.181214 
L 225.140089 -125.978397 
L 229.098142 -125.423129 
L 233.056195 -124.539519 
L 237.014248 -123.392678 
L 240.972301 -122.0728 
L 240.972301 -111.625227 
L 240.972301 -111.625227 
L 237.014248 -111.625227 
L 233.056195 -111.625227 
L 229.098142 -111.625227 
L 225.140089 -111.625227 
L 221.182036 -111.625227 
L 217.223982 -111.625227 
L 213.265929 -111.625227 
L 209.307876 -111.625227 
L 205.349823 -111.625227 
L 201.39177 -111.625227 
L 197.433717 -111.625227 
L 193.475664 -111.625227 
L 189.517611 -111.625227 
L 185.559558 -111.625227 
L 181.601505 -111.625227 
L 177.643451 -111.625227 
L 173.685398 -111.625227 
L 169.727345 -111.625227 
L 165.769292 -111.625227 
L 161.811239 -111.625227 
L 157.853186 -111.625227 
L 153.895133 -111.625227 
L 149.93708 -111.625227 
L 145.979027 -111.625227 
L 142.020973 -111.625227 
L 138.06292 -111.625227 
L 134.104867 -111.625227 
L 130.146814 -111.625227 
L 126.188761 -111.625227 
L 122.230708 -111.625227 
L 118.272655 -111.625227 
L 114.314602 -111.625227 
L 110.356549 -111.625227 
L 106.398495 -111.625227 
L 102.440442 -111.625227 
L 98.482389 -111.625227 
L 94.524336 -111.625227 
L 90.566283 -111.625227 
L 86.60823 -111.625227 
L 82.650177 -111.625227 
L 78.692124 -111.625227 
L 74.734071 -111.625227 
L 70.776018 -111.625227 
L 66.817964 -111.625227 
L 62.859911 -111.625227 
L 58.901858 -111.625227 
L 54.943805 -111.625227 
L 50.985752 -111.625227 
L 47.027699 -111.625227 
z
" id="m7b1a5d99e7" style="stroke:#424243;stroke-opacity:0.3;"/>
    </defs>
    <g clip-path="url(#p0506558011)">
     <use style="fill:#424243;fill-opacity:0.3;stroke:#424243;stroke-opacity:0.3;" x="0" xlink:href="#m7b1a5d99e7" y="288"/>
    </g>
   </g>
   <g id="matplotlib.axis_1">
    <g id="xtick_1">
     <g id="line2d_1">
      <defs>
       <path d="M 0 0 
L 0 3.5 
" id="m3516c77819" style="stroke:#000000;stroke-width:0.8;"/>
      </defs>
      <g>
       <use style="stroke:#000000;stroke-width:0.8;" x="47.027699" xlink:href="#m3516c77819" y="183.67"/>
      </g>
     </g>
     <g id="text_1">
      <!-- 0 -->
      <defs>
       <path d="M 31.78125 66.40625 
Q 24.171875 66.40625 20.328125 58.90625 
Q 16.5 51.421875 16.5 36.375 
Q 16.5 21.390625 20.328125 13.890625 
Q 24.171875 6.390625 31.78125 6.390625 
Q 39.453125 6.390625 43.28125 13.890625 
Q 47.125 21.390625 47.125 36.375 
Q 47.125 51.421875 43.28125 58.90625 
Q 39.453125 66.40625 31.78125 66.40625 
z
M 31.78125 74.21875 
Q 44.046875 74.21875 50.515625 64.515625 
Q 56.984375 54.828125 56.984375 36.375 
Q 56.984375 17.96875 50.515625 8.265625 
Q 44.046875 -1.421875 31.78125 -1.421875 
Q 19.53125 -1.421875 13.0625 8.265625 
Q 6.59375 17.96875 6.59375 36.375 
Q 6.59375 54.828125 13.0625 64.515625 
Q 19.53125 74.21875 31.78125 74.21875 
z
" id="DejaVuSans-30"/>
      </defs>
      <g transform="translate(40.665199 205.866875)scale(0.2 -0.2)">
       <use xlink:href="#DejaVuSans-30"/>
      </g>
     </g>
    </g>
    <g id="xtick_2">
     <g id="line2d_2">
      <g>
       <use style="stroke:#000000;stroke-width:0.8;" x="131.344325" xlink:href="#m3516c77819" y="183.67"/>
      </g>
     </g>
     <g id="text_2">
      <!-- 20 -->
      <defs>
       <path d="M 19.1875 8.296875 
L 53.609375 8.296875 
L 53.609375 0 
L 7.328125 0 
L 7.328125 8.296875 
Q 12.9375 14.109375 22.625 23.890625 
Q 32.328125 33.6875 34.8125 36.53125 
Q 39.546875 41.84375 41.421875 45.53125 
Q 43.3125 49.21875 43.3125 52.78125 
Q 43.3125 58.59375 39.234375 62.25 
Q 35.15625 65.921875 28.609375 65.921875 
Q 23.96875 65.921875 18.8125 64.3125 
Q 13.671875 62.703125 7.8125 59.421875 
L 7.8125 69.390625 
Q 13.765625 71.78125 18.9375 73 
Q 24.125 74.21875 28.421875 74.21875 
Q 39.75 74.21875 46.484375 68.546875 
Q 53.21875 62.890625 53.21875 53.421875 
Q 53.21875 48.921875 51.53125 44.890625 
Q 49.859375 40.875 45.40625 35.40625 
Q 44.1875 33.984375 37.640625 27.21875 
Q 31.109375 20.453125 19.1875 8.296875 
z
" id="DejaVuSans-32"/>
      </defs>
      <g transform="translate(118.619325 205.866875)scale(0.2 -0.2)">
       <use xlink:href="#DejaVuSans-32"/>
       <use x="63.623047" xlink:href="#DejaVuSans-30"/>
      </g>
     </g>
    </g>
    <g id="xtick_3">
     <g id="line2d_3">
      <g>
       <use style="stroke:#000000;stroke-width:0.8;" x="215.660952" xlink:href="#m3516c77819" y="183.67"/>
      </g>
     </g>
     <g id="text_3">
      <!-- 40 -->
      <defs>
       <path d="M 37.796875 64.3125 
L 12.890625 25.390625 
L 37.796875 25.390625 
z
M 35.203125 72.90625 
L 47.609375 72.90625 
L 47.609375 25.390625 
L 58.015625 25.390625 
L 58.015625 17.1875 
L 47.609375 17.1875 
L 47.609375 0 
L 37.796875 0 
L 37.796875 17.1875 
L 4.890625 17.1875 
L 4.890625 26.703125 
z
" id="DejaVuSans-34"/>
      </defs>
      <g transform="translate(202.935952 205.866875)scale(0.2 -0.2)">
       <use xlink:href="#DejaVuSans-34"/>
       <use x="63.623047" xlink:href="#DejaVuSans-30"/>
      </g>
     </g>
    </g>
    <g id="text_4">
     <!-- leaf area index -->
     <defs>
      <path d="M 9.421875 75.984375 
L 18.40625 75.984375 
L 18.40625 0 
L 9.421875 0 
z
" id="DejaVuSans-6c"/>
      <path d="M 56.203125 29.59375 
L 56.203125 25.203125 
L 14.890625 25.203125 
Q 15.484375 15.921875 20.484375 11.0625 
Q 25.484375 6.203125 34.421875 6.203125 
Q 39.59375 6.203125 44.453125 7.46875 
Q 49.3125 8.734375 54.109375 11.28125 
L 54.109375 2.78125 
Q 49.265625 0.734375 44.1875 -0.34375 
Q 39.109375 -1.421875 33.890625 -1.421875 
Q 20.796875 -1.421875 13.15625 6.1875 
Q 5.515625 13.8125 5.515625 26.8125 
Q 5.515625 40.234375 12.765625 48.109375 
Q 20.015625 56 32.328125 56 
Q 43.359375 56 49.78125 48.890625 
Q 56.203125 41.796875 56.203125 29.59375 
z
M 47.21875 32.234375 
Q 47.125 39.59375 43.09375 43.984375 
Q 39.0625 48.390625 32.421875 48.390625 
Q 24.90625 48.390625 20.390625 44.140625 
Q 15.875 39.890625 15.1875 32.171875 
z
" id="DejaVuSans-65"/>
      <path d="M 34.28125 27.484375 
Q 23.390625 27.484375 19.1875 25 
Q 14.984375 22.515625 14.984375 16.5 
Q 14.984375 11.71875 18.140625 8.90625 
Q 21.296875 6.109375 26.703125 6.109375 
Q 34.1875 6.109375 38.703125 11.40625 
Q 43.21875 16.703125 43.21875 25.484375 
L 43.21875 27.484375 
z
M 52.203125 31.203125 
L 52.203125 0 
L 43.21875 0 
L 43.21875 8.296875 
Q 40.140625 3.328125 35.546875 0.953125 
Q 30.953125 -1.421875 24.3125 -1.421875 
Q 15.921875 -1.421875 10.953125 3.296875 
Q 6 8.015625 6 15.921875 
Q 6 25.140625 12.171875 29.828125 
Q 18.359375 34.515625 30.609375 34.515625 
L 43.21875 34.515625 
L 43.21875 35.40625 
Q 43.21875 41.609375 39.140625 45 
Q 35.0625 48.390625 27.6875 48.390625 
Q 23 48.390625 18.546875 47.265625 
Q 14.109375 46.140625 10.015625 43.890625 
L 10.015625 52.203125 
Q 14.9375 54.109375 19.578125 55.046875 
Q 24.21875 56 28.609375 56 
Q 40.484375 56 46.34375 49.84375 
Q 52.203125 43.703125 52.203125 31.203125 
z
" id="DejaVuSans-61"/>
      <path d="M 37.109375 75.984375 
L 37.109375 68.5 
L 28.515625 68.5 
Q 23.6875 68.5 21.796875 66.546875 
Q 19.921875 64.59375 19.921875 59.515625 
L 19.921875 54.6875 
L 34.71875 54.6875 
L 34.71875 47.703125 
L 19.921875 47.703125 
L 19.921875 0 
L 10.890625 0 
L 10.890625 47.703125 
L 2.296875 47.703125 
L 2.296875 54.6875 
L 10.890625 54.6875 
L 10.890625 58.5 
Q 10.890625 67.625 15.140625 71.796875 
Q 19.390625 75.984375 28.609375 75.984375 
z
" id="DejaVuSans-66"/>
      <path id="DejaVuSans-20"/>
      <path d="M 41.109375 46.296875 
Q 39.59375 47.171875 37.8125 47.578125 
Q 36.03125 48 33.890625 48 
Q 26.265625 48 22.1875 43.046875 
Q 18.109375 38.09375 18.109375 28.8125 
L 18.109375 0 
L 9.078125 0 
L 9.078125 54.6875 
L 18.109375 54.6875 
L 18.109375 46.1875 
Q 20.953125 51.171875 25.484375 53.578125 
Q 30.03125 56 36.53125 56 
Q 37.453125 56 38.578125 55.875 
Q 39.703125 55.765625 41.0625 55.515625 
z
" id="DejaVuSans-72"/>
      <path d="M 9.421875 54.6875 
L 18.40625 54.6875 
L 18.40625 0 
L 9.421875 0 
z
M 9.421875 75.984375 
L 18.40625 75.984375 
L 18.40625 64.59375 
L 9.421875 64.59375 
z
" id="DejaVuSans-69"/>
      <path d="M 54.890625 33.015625 
L 54.890625 0 
L 45.90625 0 
L 45.90625 32.71875 
Q 45.90625 40.484375 42.875 44.328125 
Q 39.84375 48.1875 33.796875 48.1875 
Q 26.515625 48.1875 22.3125 43.546875 
Q 18.109375 38.921875 18.109375 30.90625 
L 18.109375 0 
L 9.078125 0 
L 9.078125 54.6875 
L 18.109375 54.6875 
L 18.109375 46.1875 
Q 21.34375 51.125 25.703125 53.5625 
Q 30.078125 56 35.796875 56 
Q 45.21875 56 50.046875 50.171875 
Q 54.890625 44.34375 54.890625 33.015625 
z
" id="DejaVuSans-6e"/>
      <path d="M 45.40625 46.390625 
L 45.40625 75.984375 
L 54.390625 75.984375 
L 54.390625 0 
L 45.40625 0 
L 45.40625 8.203125 
Q 42.578125 3.328125 38.25 0.953125 
Q 33.9375 -1.421875 27.875 -1.421875 
Q 17.96875 -1.421875 11.734375 6.484375 
Q 5.515625 14.40625 5.515625 27.296875 
Q 5.515625 40.1875 11.734375 48.09375 
Q 17.96875 56 27.875 56 
Q 33.9375 56 38.25 53.625 
Q 42.578125 51.265625 45.40625 46.390625 
z
M 14.796875 27.296875 
Q 14.796875 17.390625 18.875 11.75 
Q 22.953125 6.109375 30.078125 6.109375 
Q 37.203125 6.109375 41.296875 11.75 
Q 45.40625 17.390625 45.40625 27.296875 
Q 45.40625 37.203125 41.296875 42.84375 
Q 37.203125 48.484375 30.078125 48.484375 
Q 22.953125 48.484375 18.875 42.84375 
Q 14.796875 37.203125 14.796875 27.296875 
z
" id="DejaVuSans-64"/>
      <path d="M 54.890625 54.6875 
L 35.109375 28.078125 
L 55.90625 0 
L 45.3125 0 
L 29.390625 21.484375 
L 13.484375 0 
L 2.875 0 
L 24.125 28.609375 
L 4.6875 54.6875 
L 15.28125 54.6875 
L 29.78125 35.203125 
L 44.28125 54.6875 
z
" id="DejaVuSans-78"/>
     </defs>
     <g transform="translate(50.265625 233.022344)scale(0.25 -0.25)">
      <use xlink:href="#DejaVuSans-6c"/>
      <use x="27.783203" xlink:href="#DejaVuSans-65"/>
      <use x="89.306641" xlink:href="#DejaVuSans-61"/>
      <use x="150.585938" xlink:href="#DejaVuSans-66"/>
      <use x="185.791016" xlink:href="#DejaVuSans-20"/>
      <use x="217.578125" xlink:href="#DejaVuSans-61"/>
      <use x="278.857422" xlink:href="#DejaVuSans-72"/>
      <use x="319.939453" xlink:href="#DejaVuSans-65"/>
      <use x="381.462891" xlink:href="#DejaVuSans-61"/>
      <use x="442.742188" xlink:href="#DejaVuSans-20"/>
      <use x="474.529297" xlink:href="#DejaVuSans-69"/>
      <use x="502.3125" xlink:href="#DejaVuSans-6e"/>
      <use x="565.691406" xlink:href="#DejaVuSans-64"/>
      <use x="629.167969" xlink:href="#DejaVuSans-65"/>
      <use x="690.675781" xlink:href="#DejaVuSans-78"/>
     </g>
     <!-- mean -->
     <defs>
      <path d="M 52 44.1875 
Q 55.375 50.25 60.0625 53.125 
Q 64.75 56 71.09375 56 
Q 79.640625 56 84.28125 50.015625 
Q 88.921875 44.046875 88.921875 33.015625 
L 88.921875 0 
L 79.890625 0 
L 79.890625 32.71875 
Q 79.890625 40.578125 77.09375 44.375 
Q 74.3125 48.1875 68.609375 48.1875 
Q 61.625 48.1875 57.5625 43.546875 
Q 53.515625 38.921875 53.515625 30.90625 
L 53.515625 0 
L 44.484375 0 
L 44.484375 32.71875 
Q 44.484375 40.625 41.703125 44.40625 
Q 38.921875 48.1875 33.109375 48.1875 
Q 26.21875 48.1875 22.15625 43.53125 
Q 18.109375 38.875 18.109375 30.90625 
L 18.109375 0 
L 9.078125 0 
L 9.078125 54.6875 
L 18.109375 54.6875 
L 18.109375 46.1875 
Q 21.1875 51.21875 25.484375 53.609375 
Q 29.78125 56 35.6875 56 
Q 41.65625 56 45.828125 52.96875 
Q 50 49.953125 52 44.1875 
z
" id="DejaVuSans-6d"/>
     </defs>
     <g transform="translate(108.550781 261.016875)scale(0.25 -0.25)">
      <use xlink:href="#DejaVuSans-6d"/>
      <use x="97.412109" xlink:href="#DejaVuSans-65"/>
      <use x="158.935547" xlink:href="#DejaVuSans-61"/>
      <use x="220.214844" xlink:href="#DejaVuSans-6e"/>
     </g>
    </g>
   </g>
   <g id="line2d_4">
    <path clip-path="url(#p0506558011)" d="M 47.027699 151.694573 
L 50.985752 149.86048 
L 54.943805 149.918332 
L 58.901858 150.303771 
L 62.859911 149.345863 
L 66.817964 145.992042 
L 70.776018 139.870923 
L 74.734071 130.996479 
L 78.692124 119.587929 
L 82.650177 106.138288 
L 86.60823 91.540269 
L 90.566283 77.05764 
L 94.524336 64.115501 
L 98.482389 54.042599 
L 102.440442 47.896625 
L 106.398495 46.384491 
L 110.356549 49.803629 
L 114.314602 57.957545 
L 118.272655 70.084931 
L 122.230708 84.896797 
L 126.188761 100.790916 
L 130.146814 116.205159 
L 134.104867 129.953161 
L 138.06292 141.379166 
L 142.020973 150.302105 
L 145.979027 156.861326 
L 149.93708 161.38887 
L 153.895133 164.335116 
L 157.853186 166.199216 
L 161.811239 167.435725 
L 165.769292 168.368818 
L 169.727345 169.161264 
L 173.685398 169.847843 
L 177.643451 170.401912 
L 181.601505 170.794683 
L 185.559558 171.024444 
L 189.517611 171.114741 
L 193.475664 171.092908 
L 197.433717 170.966496 
L 201.39177 170.717569 
L 205.349823 170.324948 
L 209.307876 169.801584 
L 213.265929 169.21743 
L 217.223982 168.686642 
L 221.182036 168.327534 
L 225.140089 168.225646 
L 229.098142 168.41969 
L 233.056195 168.901481 
L 237.014248 169.614332 
L 240.972301 170.4569 
" style="fill:none;stroke:#cc79a7;stroke-linecap:square;stroke-width:2;"/>
   </g>
   <g id="line2d_5">
    <path clip-path="url(#p0506558011)" d="M 47.027699 147.428045 
L 50.985752 140.810796 
L 54.943805 134.840709 
L 58.901858 129.708428 
L 62.859911 125.277079 
L 66.817964 121.189168 
L 70.776018 117.052287 
L 74.734071 112.609295 
L 78.692124 107.823922 
L 82.650177 102.87081 
L 86.60823 98.068278 
L 90.566283 93.803746 
L 94.524336 90.478132 
L 98.482389 88.464198 
L 102.440442 88.062402 
L 106.398495 89.451235 
L 110.356549 92.64804 
L 114.314602 97.499374 
L 118.272655 103.70465 
L 122.230708 110.860419 
L 126.188761 118.51052 
L 130.146814 126.196888 
L 134.104867 133.511294 
L 138.06292 140.142061 
L 142.020973 145.901223 
L 145.979027 150.720834 
L 149.93708 154.623093 
L 153.895133 157.683245 
L 157.853186 160.003412 
L 161.811239 161.701668 
L 165.769292 162.907198 
L 169.727345 163.750436 
L 173.685398 164.345577 
L 177.643451 164.772526 
L 181.601505 165.068023 
L 185.559558 165.230735 
L 189.517611 165.237733 
L 193.475664 165.06541 
L 197.433717 164.707929 
L 201.39177 164.188721 
L 205.349823 163.56337 
L 209.307876 162.91457 
L 213.265929 162.341508 
L 217.223982 161.946263 
L 221.182036 161.818786 
L 225.140089 162.021603 
L 229.098142 162.576871 
L 233.056195 163.460481 
L 237.014248 164.607322 
L 240.972301 165.9272 
" style="fill:none;stroke:#424243;stroke-linecap:square;stroke-width:2;"/>
   </g>
   <g id="patch_3">
    <path d="M 37.330469 183.67 
L 250.669531 183.67 
" style="fill:none;stroke:#000000;stroke-linecap:square;stroke-linejoin:miter;stroke-width:0.8;"/>
   </g>
  </g>
 </g>
 <defs>
  <clipPath id="p0506558011">
   <rect height="160.495" width="213.339062" x="37.330469" y="23.175"/>
  </clipPath>
 </defs>
</svg>
