<?xml version="1.0" encoding="utf-8" standalone="no"?>
<!DOCTYPE svg PUBLIC "-//W3C//DTD SVG 1.1//EN"
  "http://www.w3.org/Graphics/SVG/1.1/DTD/svg11.dtd">
<!-- Created with matplotlib (http://matplotlib.org/) -->
<svg height="288pt" version="1.1" viewBox="0 0 288 288" width="288pt" xmlns="http://www.w3.org/2000/svg" xmlns:xlink="http://www.w3.org/1999/xlink">
 <defs>
  <style type="text/css">
*{stroke-linecap:butt;stroke-linejoin:round;}
  </style>
 </defs>
 <g id="figure_1">
  <g id="patch_1">
   <path d="M 0 288 
L 288 288 
L 288 0 
L 0 0 
z
" style="fill:#ffffff;"/>
  </g>
  <g id="axes_1">
   <g id="patch_2">
    <path d="M 26.783594 183.67 
L 261.216406 183.67 
L 261.216406 23.175 
L 26.783594 23.175 
z
" style="fill:#ffffff;"/>
   </g>
   <g id="PolyCollection_1">
    <defs>
     <path d="M 37.439631 -111.625227 
L 37.439631 -244.259212 
L 41.789034 -257.529773 
L 46.138436 -228.140924 
L 50.487839 -186.877322 
L 54.837242 -157.312957 
L 59.186645 -141.314744 
L 63.536048 -133.07984 
L 67.88545 -128.28441 
L 72.234853 -125.123524 
L 76.584256 -123.116654 
L 80.933659 -121.804554 
L 85.283062 -120.566956 
L 89.632465 -119.196172 
L 93.981867 -117.988099 
L 98.33127 -117.127982 
L 102.680673 -116.395005 
L 107.030076 -115.638463 
L 111.379479 -114.995627 
L 115.728882 -114.563835 
L 120.078284 -114.281711 
L 124.427687 -114.058184 
L 128.77709 -113.842672 
L 133.126493 -113.619225 
L 137.475896 -113.391758 
L 141.825299 -113.184233 
L 146.174701 -112.967586 
L 150.524104 -112.707996 
L 154.873507 -112.498234 
L 159.22291 -112.42308 
L 163.572313 -112.412388 
L 167.921716 -112.356731 
L 172.271118 -112.232475 
L 176.620521 -112.083916 
L 180.969924 -111.966573 
L 185.319327 -111.901605 
L 189.66873 -111.873259 
L 194.018133 -111.872516 
L 198.367535 -111.912061 
L 202.716938 -111.998782 
L 207.066341 -112.092277 
L 211.415744 -112.106128 
L 215.765147 -112.010847 
L 220.11455 -111.891228 
L 224.463952 -111.847721 
L 228.813355 -111.894483 
L 233.162758 -111.959009 
L 237.512161 -111.958682 
L 241.861564 -111.888917 
L 246.210966 -111.822873 
L 250.560369 -111.80446 
L 250.560369 -111.625227 
L 250.560369 -111.625227 
L 246.210966 -111.625227 
L 241.861564 -111.625227 
L 237.512161 -111.625227 
L 233.162758 -111.625227 
L 228.813355 -111.625227 
L 224.463952 -111.625227 
L 220.11455 -111.625227 
L 215.765147 -111.625227 
L 211.415744 -111.625227 
L 207.066341 -111.625227 
L 202.716938 -111.625227 
L 198.367535 -111.625227 
L 194.018133 -111.625227 
L 189.66873 -111.625227 
L 185.319327 -111.625227 
L 180.969924 -111.625227 
L 176.620521 -111.625227 
L 172.271118 -111.625227 
L 167.921716 -111.625227 
L 163.572313 -111.625227 
L 159.22291 -111.625227 
L 154.873507 -111.625227 
L 150.524104 -111.625227 
L 146.174701 -111.625227 
L 141.825299 -111.625227 
L 137.475896 -111.625227 
L 133.126493 -111.625227 
L 128.77709 -111.625227 
L 124.427687 -111.625227 
L 120.078284 -111.625227 
L 115.728882 -111.625227 
L 111.379479 -111.625227 
L 107.030076 -111.625227 
L 102.680673 -111.625227 
L 98.33127 -111.625227 
L 93.981867 -111.625227 
L 89.632465 -111.625227 
L 85.283062 -111.625227 
L 80.933659 -111.625227 
L 76.584256 -111.625227 
L 72.234853 -111.625227 
L 67.88545 -111.625227 
L 63.536048 -111.625227 
L 59.186645 -111.625227 
L 54.837242 -111.625227 
L 50.487839 -111.625227 
L 46.138436 -111.625227 
L 41.789034 -111.625227 
L 37.439631 -111.625227 
z
" id="m11531123d0" style="stroke:#cc79a7;stroke-opacity:0.3;"/>
    </defs>
    <g clip-path="url(#p72b1066160)">
     <use style="fill:#cc79a7;fill-opacity:0.3;stroke:#cc79a7;stroke-opacity:0.3;" x="0" xlink:href="#m11531123d0" y="288"/>
    </g>
   </g>
   <g id="PolyCollection_2">
    <defs>
     <path d="M 37.439631 -111.625227 
L 37.439631 -188.457903 
L 41.789034 -192.841913 
L 46.138436 -189.506335 
L 50.487839 -179.96668 
L 54.837242 -167.172464 
L 59.186645 -154.132772 
L 63.536048 -142.891524 
L 67.88545 -134.254995 
L 72.234853 -128.109953 
L 76.584256 -123.92313 
L 80.933659 -121.116371 
L 85.283062 -119.234156 
L 89.632465 -117.964572 
L 93.981867 -117.102687 
L 98.33127 -116.511696 
L 102.680673 -116.09863 
L 107.030076 -115.801133 
L 111.379479 -115.578636 
L 115.728882 -115.405324 
L 120.078284 -115.265481 
L 124.427687 -115.151326 
L 128.77709 -115.061503 
L 133.126493 -114.997898 
L 137.475896 -114.960315 
L 141.825299 -114.941224 
L 146.174701 -114.924136 
L 150.524104 -114.887744 
L 154.873507 -114.814467 
L 159.22291 -114.698589 
L 163.572313 -114.548837 
L 167.921716 -114.383673 
L 172.271118 -114.222311 
L 176.620521 -114.076819 
L 180.969924 -113.949161 
L 185.319327 -113.833534 
L 189.66873 -113.72161 
L 194.018133 -113.607552 
L 198.367535 -113.490575 
L 202.716938 -113.37448 
L 207.066341 -113.265111 
L 211.415744 -113.167478 
L 215.765147 -113.083958 
L 220.11455 -113.014102 
L 224.463952 -112.955549 
L 228.813355 -112.905098 
L 233.162758 -112.859296 
L 237.512161 -112.814682 
L 241.861564 -112.768378 
L 246.210966 -112.719517 
L 250.560369 -112.671236 
L 250.560369 -111.625227 
L 250.560369 -111.625227 
L 246.210966 -111.625227 
L 241.861564 -111.625227 
L 237.512161 -111.625227 
L 233.162758 -111.625227 
L 228.813355 -111.625227 
L 224.463952 -111.625227 
L 220.11455 -111.625227 
L 215.765147 -111.625227 
L 211.415744 -111.625227 
L 207.066341 -111.625227 
L 202.716938 -111.625227 
L 198.367535 -111.625227 
L 194.018133 -111.625227 
L 189.66873 -111.625227 
L 185.319327 -111.625227 
L 180.969924 -111.625227 
L 176.620521 -111.625227 
L 172.271118 -111.625227 
L 167.921716 -111.625227 
L 163.572313 -111.625227 
L 159.22291 -111.625227 
L 154.873507 -111.625227 
L 150.524104 -111.625227 
L 146.174701 -111.625227 
L 141.825299 -111.625227 
L 137.475896 -111.625227 
L 133.126493 -111.625227 
L 128.77709 -111.625227 
L 124.427687 -111.625227 
L 120.078284 -111.625227 
L 115.728882 -111.625227 
L 111.379479 -111.625227 
L 107.030076 -111.625227 
L 102.680673 -111.625227 
L 98.33127 -111.625227 
L 93.981867 -111.625227 
L 89.632465 -111.625227 
L 85.283062 -111.625227 
L 80.933659 -111.625227 
L 76.584256 -111.625227 
L 72.234853 -111.625227 
L 67.88545 -111.625227 
L 63.536048 -111.625227 
L 59.186645 -111.625227 
L 54.837242 -111.625227 
L 50.487839 -111.625227 
L 46.138436 -111.625227 
L 41.789034 -111.625227 
L 37.439631 -111.625227 
z
" id="mfb3a13d0b8" style="stroke:#424243;stroke-opacity:0.3;"/>
    </defs>
    <g clip-path="url(#p72b1066160)">
     <use style="fill:#424243;fill-opacity:0.3;stroke:#424243;stroke-opacity:0.3;" x="0" xlink:href="#mfb3a13d0b8" y="288"/>
    </g>
   </g>
   <g id="matplotlib.axis_1">
    <g id="xtick_1">
     <g id="line2d_1">
      <defs>
       <path d="M 0 0 
L 0 3.5 
" id="m4c4fd327a1" style="stroke:#000000;stroke-width:0.8;"/>
      </defs>
      <g>
       <use style="stroke:#000000;stroke-width:0.8;" x="37.439631" xlink:href="#m4c4fd327a1" y="183.67"/>
      </g>
     </g>
     <g id="text_1">
      <!-- 0 -->
      <defs>
       <path d="M 31.78125 66.40625 
Q 24.171875 66.40625 20.328125 58.90625 
Q 16.5 51.421875 16.5 36.375 
Q 16.5 21.390625 20.328125 13.890625 
Q 24.171875 6.390625 31.78125 6.390625 
Q 39.453125 6.390625 43.28125 13.890625 
Q 47.125 21.390625 47.125 36.375 
Q 47.125 51.421875 43.28125 58.90625 
Q 39.453125 66.40625 31.78125 66.40625 
z
M 31.78125 74.21875 
Q 44.046875 74.21875 50.515625 64.515625 
Q 56.984375 54.828125 56.984375 36.375 
Q 56.984375 17.96875 50.515625 8.265625 
Q 44.046875 -1.421875 31.78125 -1.421875 
Q 19.53125 -1.421875 13.0625 8.265625 
Q 6.59375 17.96875 6.59375 36.375 
Q 6.59375 54.828125 13.0625 64.515625 
Q 19.53125 74.21875 31.78125 74.21875 
z
" id="DejaVuSans-30"/>
      </defs>
      <g transform="translate(31.077131 205.866875)scale(0.2 -0.2)">
       <use xlink:href="#DejaVuSans-30"/>
      </g>
     </g>
    </g>
    <g id="xtick_2">
     <g id="line2d_2">
      <g>
       <use style="stroke:#000000;stroke-width:0.8;" x="164.448667" xlink:href="#m4c4fd327a1" y="183.67"/>
      </g>
     </g>
     <g id="text_2">
      <!-- 50 -->
      <defs>
       <path d="M 10.796875 72.90625 
L 49.515625 72.90625 
L 49.515625 64.59375 
L 19.828125 64.59375 
L 19.828125 46.734375 
Q 21.96875 47.46875 24.109375 47.828125 
Q 26.265625 48.1875 28.421875 48.1875 
Q 40.625 48.1875 47.75 41.5 
Q 54.890625 34.8125 54.890625 23.390625 
Q 54.890625 11.625 47.5625 5.09375 
Q 40.234375 -1.421875 26.90625 -1.421875 
Q 22.3125 -1.421875 17.546875 -0.640625 
Q 12.796875 0.140625 7.71875 1.703125 
L 7.71875 11.625 
Q 12.109375 9.234375 16.796875 8.0625 
Q 21.484375 6.890625 26.703125 6.890625 
Q 35.15625 6.890625 40.078125 11.328125 
Q 45.015625 15.765625 45.015625 23.390625 
Q 45.015625 31 40.078125 35.4375 
Q 35.15625 39.890625 26.703125 39.890625 
Q 22.75 39.890625 18.8125 39.015625 
Q 14.890625 38.140625 10.796875 36.28125 
z
" id="DejaVuSans-35"/>
      </defs>
      <g transform="translate(151.723667 205.866875)scale(0.2 -0.2)">
       <use xlink:href="#DejaVuSans-35"/>
       <use x="63.623047" xlink:href="#DejaVuSans-30"/>
      </g>
     </g>
    </g>
    <g id="text_3">
     <!-- bare ground -->
     <defs>
      <path d="M 48.6875 27.296875 
Q 48.6875 37.203125 44.609375 42.84375 
Q 40.53125 48.484375 33.40625 48.484375 
Q 26.265625 48.484375 22.1875 42.84375 
Q 18.109375 37.203125 18.109375 27.296875 
Q 18.109375 17.390625 22.1875 11.75 
Q 26.265625 6.109375 33.40625 6.109375 
Q 40.53125 6.109375 44.609375 11.75 
Q 48.6875 17.390625 48.6875 27.296875 
z
M 18.109375 46.390625 
Q 20.953125 51.265625 25.265625 53.625 
Q 29.59375 56 35.59375 56 
Q 45.5625 56 51.78125 48.09375 
Q 58.015625 40.1875 58.015625 27.296875 
Q 58.015625 14.40625 51.78125 6.484375 
Q 45.5625 -1.421875 35.59375 -1.421875 
Q 29.59375 -1.421875 25.265625 0.953125 
Q 20.953125 3.328125 18.109375 8.203125 
L 18.109375 0 
L 9.078125 0 
L 9.078125 75.984375 
L 18.109375 75.984375 
z
" id="DejaVuSans-62"/>
      <path d="M 34.28125 27.484375 
Q 23.390625 27.484375 19.1875 25 
Q 14.984375 22.515625 14.984375 16.5 
Q 14.984375 11.71875 18.140625 8.90625 
Q 21.296875 6.109375 26.703125 6.109375 
Q 34.1875 6.109375 38.703125 11.40625 
Q 43.21875 16.703125 43.21875 25.484375 
L 43.21875 27.484375 
z
M 52.203125 31.203125 
L 52.203125 0 
L 43.21875 0 
L 43.21875 8.296875 
Q 40.140625 3.328125 35.546875 0.953125 
Q 30.953125 -1.421875 24.3125 -1.421875 
Q 15.921875 -1.421875 10.953125 3.296875 
Q 6 8.015625 6 15.921875 
Q 6 25.140625 12.171875 29.828125 
Q 18.359375 34.515625 30.609375 34.515625 
L 43.21875 34.515625 
L 43.21875 35.40625 
Q 43.21875 41.609375 39.140625 45 
Q 35.0625 48.390625 27.6875 48.390625 
Q 23 48.390625 18.546875 47.265625 
Q 14.109375 46.140625 10.015625 43.890625 
L 10.015625 52.203125 
Q 14.9375 54.109375 19.578125 55.046875 
Q 24.21875 56 28.609375 56 
Q 40.484375 56 46.34375 49.84375 
Q 52.203125 43.703125 52.203125 31.203125 
z
" id="DejaVuSans-61"/>
      <path d="M 41.109375 46.296875 
Q 39.59375 47.171875 37.8125 47.578125 
Q 36.03125 48 33.890625 48 
Q 26.265625 48 22.1875 43.046875 
Q 18.109375 38.09375 18.109375 28.8125 
L 18.109375 0 
L 9.078125 0 
L 9.078125 54.6875 
L 18.109375 54.6875 
L 18.109375 46.1875 
Q 20.953125 51.171875 25.484375 53.578125 
Q 30.03125 56 36.53125 56 
Q 37.453125 56 38.578125 55.875 
Q 39.703125 55.765625 41.0625 55.515625 
z
" id="DejaVuSans-72"/>
      <path d="M 56.203125 29.59375 
L 56.203125 25.203125 
L 14.890625 25.203125 
Q 15.484375 15.921875 20.484375 11.0625 
Q 25.484375 6.203125 34.421875 6.203125 
Q 39.59375 6.203125 44.453125 7.46875 
Q 49.3125 8.734375 54.109375 11.28125 
L 54.109375 2.78125 
Q 49.265625 0.734375 44.1875 -0.34375 
Q 39.109375 -1.421875 33.890625 -1.421875 
Q 20.796875 -1.421875 13.15625 6.1875 
Q 5.515625 13.8125 5.515625 26.8125 
Q 5.515625 40.234375 12.765625 48.109375 
Q 20.015625 56 32.328125 56 
Q 43.359375 56 49.78125 48.890625 
Q 56.203125 41.796875 56.203125 29.59375 
z
M 47.21875 32.234375 
Q 47.125 39.59375 43.09375 43.984375 
Q 39.0625 48.390625 32.421875 48.390625 
Q 24.90625 48.390625 20.390625 44.140625 
Q 15.875 39.890625 15.1875 32.171875 
z
" id="DejaVuSans-65"/>
      <path id="DejaVuSans-20"/>
      <path d="M 45.40625 27.984375 
Q 45.40625 37.75 41.375 43.109375 
Q 37.359375 48.484375 30.078125 48.484375 
Q 22.859375 48.484375 18.828125 43.109375 
Q 14.796875 37.75 14.796875 27.984375 
Q 14.796875 18.265625 18.828125 12.890625 
Q 22.859375 7.515625 30.078125 7.515625 
Q 37.359375 7.515625 41.375 12.890625 
Q 45.40625 18.265625 45.40625 27.984375 
z
M 54.390625 6.78125 
Q 54.390625 -7.171875 48.1875 -13.984375 
Q 42 -20.796875 29.203125 -20.796875 
Q 24.46875 -20.796875 20.265625 -20.09375 
Q 16.0625 -19.390625 12.109375 -17.921875 
L 12.109375 -9.1875 
Q 16.0625 -11.328125 19.921875 -12.34375 
Q 23.78125 -13.375 27.78125 -13.375 
Q 36.625 -13.375 41.015625 -8.765625 
Q 45.40625 -4.15625 45.40625 5.171875 
L 45.40625 9.625 
Q 42.625 4.78125 38.28125 2.390625 
Q 33.9375 0 27.875 0 
Q 17.828125 0 11.671875 7.65625 
Q 5.515625 15.328125 5.515625 27.984375 
Q 5.515625 40.671875 11.671875 48.328125 
Q 17.828125 56 27.875 56 
Q 33.9375 56 38.28125 53.609375 
Q 42.625 51.21875 45.40625 46.390625 
L 45.40625 54.6875 
L 54.390625 54.6875 
z
" id="DejaVuSans-67"/>
      <path d="M 30.609375 48.390625 
Q 23.390625 48.390625 19.1875 42.75 
Q 14.984375 37.109375 14.984375 27.296875 
Q 14.984375 17.484375 19.15625 11.84375 
Q 23.34375 6.203125 30.609375 6.203125 
Q 37.796875 6.203125 41.984375 11.859375 
Q 46.1875 17.53125 46.1875 27.296875 
Q 46.1875 37.015625 41.984375 42.703125 
Q 37.796875 48.390625 30.609375 48.390625 
z
M 30.609375 56 
Q 42.328125 56 49.015625 48.375 
Q 55.71875 40.765625 55.71875 27.296875 
Q 55.71875 13.875 49.015625 6.21875 
Q 42.328125 -1.421875 30.609375 -1.421875 
Q 18.84375 -1.421875 12.171875 6.21875 
Q 5.515625 13.875 5.515625 27.296875 
Q 5.515625 40.765625 12.171875 48.375 
Q 18.84375 56 30.609375 56 
z
" id="DejaVuSans-6f"/>
      <path d="M 8.5 21.578125 
L 8.5 54.6875 
L 17.484375 54.6875 
L 17.484375 21.921875 
Q 17.484375 14.15625 20.5 10.265625 
Q 23.53125 6.390625 29.59375 6.390625 
Q 36.859375 6.390625 41.078125 11.03125 
Q 45.3125 15.671875 45.3125 23.6875 
L 45.3125 54.6875 
L 54.296875 54.6875 
L 54.296875 0 
L 45.3125 0 
L 45.3125 8.40625 
Q 42.046875 3.421875 37.71875 1 
Q 33.40625 -1.421875 27.6875 -1.421875 
Q 18.265625 -1.421875 13.375 4.4375 
Q 8.5 10.296875 8.5 21.578125 
z
M 31.109375 56 
z
" id="DejaVuSans-75"/>
      <path d="M 54.890625 33.015625 
L 54.890625 0 
L 45.90625 0 
L 45.90625 32.71875 
Q 45.90625 40.484375 42.875 44.328125 
Q 39.84375 48.1875 33.796875 48.1875 
Q 26.515625 48.1875 22.3125 43.546875 
Q 18.109375 38.921875 18.109375 30.90625 
L 18.109375 0 
L 9.078125 0 
L 9.078125 54.6875 
L 18.109375 54.6875 
L 18.109375 46.1875 
Q 21.34375 51.125 25.703125 53.5625 
Q 30.078125 56 35.796875 56 
Q 45.21875 56 50.046875 50.171875 
Q 54.890625 44.34375 54.890625 33.015625 
z
" id="DejaVuSans-6e"/>
      <path d="M 45.40625 46.390625 
L 45.40625 75.984375 
L 54.390625 75.984375 
L 54.390625 0 
L 45.40625 0 
L 45.40625 8.203125 
Q 42.578125 3.328125 38.25 0.953125 
Q 33.9375 -1.421875 27.875 -1.421875 
Q 17.96875 -1.421875 11.734375 6.484375 
Q 5.515625 14.40625 5.515625 27.296875 
Q 5.515625 40.1875 11.734375 48.09375 
Q 17.96875 56 27.875 56 
Q 33.9375 56 38.25 53.625 
Q 42.578125 51.265625 45.40625 46.390625 
z
M 14.796875 27.296875 
Q 14.796875 17.390625 18.875 11.75 
Q 22.953125 6.109375 30.078125 6.109375 
Q 37.203125 6.109375 41.296875 11.75 
Q 45.40625 17.390625 45.40625 27.296875 
Q 45.40625 37.203125 41.296875 42.84375 
Q 37.203125 48.484375 30.078125 48.484375 
Q 22.953125 48.484375 18.875 42.84375 
Q 14.796875 37.203125 14.796875 27.296875 
z
" id="DejaVuSans-64"/>
     </defs>
     <g transform="translate(67.107422 233.022344)scale(0.25 -0.25)">
      <use xlink:href="#DejaVuSans-62"/>
      <use x="63.476562" xlink:href="#DejaVuSans-61"/>
      <use x="124.755859" xlink:href="#DejaVuSans-72"/>
      <use x="165.837891" xlink:href="#DejaVuSans-65"/>
      <use x="227.361328" xlink:href="#DejaVuSans-20"/>
      <use x="259.148438" xlink:href="#DejaVuSans-67"/>
      <use x="322.625" xlink:href="#DejaVuSans-72"/>
      <use x="363.707031" xlink:href="#DejaVuSans-6f"/>
      <use x="424.888672" xlink:href="#DejaVuSans-75"/>
      <use x="488.267578" xlink:href="#DejaVuSans-6e"/>
      <use x="551.646484" xlink:href="#DejaVuSans-64"/>
     </g>
     <!--   -->
     <g transform="translate(140.027344 261.016875)scale(0.25 -0.25)">
      <use xlink:href="#DejaVuSans-20"/>
     </g>
    </g>
   </g>
   <g id="line2d_3">
    <path clip-path="url(#p72b1066160)" d="M 37.439631 43.740788 
L 41.789034 30.470227 
L 46.138436 59.859076 
L 50.487839 101.122678 
L 54.837242 130.687043 
L 59.186645 146.685256 
L 63.536048 154.92016 
L 67.88545 159.71559 
L 72.234853 162.876476 
L 76.584256 164.883346 
L 80.933659 166.195446 
L 85.283062 167.433044 
L 89.632465 168.803828 
L 93.981867 170.011901 
L 98.33127 170.872018 
L 102.680673 171.604995 
L 107.030076 172.361537 
L 111.379479 173.004373 
L 115.728882 173.436165 
L 120.078284 173.718289 
L 124.427687 173.941816 
L 128.77709 174.157328 
L 133.126493 174.380775 
L 137.475896 174.608242 
L 141.825299 174.815767 
L 146.174701 175.032414 
L 150.524104 175.292004 
L 154.873507 175.501766 
L 159.22291 175.57692 
L 163.572313 175.587612 
L 167.921716 175.643269 
L 172.271118 175.767525 
L 176.620521 175.916084 
L 180.969924 176.033427 
L 185.319327 176.098395 
L 189.66873 176.126741 
L 194.018133 176.127484 
L 198.367535 176.087939 
L 202.716938 176.001218 
L 207.066341 175.907723 
L 211.415744 175.893872 
L 215.765147 175.989153 
L 220.11455 176.108772 
L 224.463952 176.152279 
L 228.813355 176.105517 
L 233.162758 176.040991 
L 237.512161 176.041318 
L 241.861564 176.111083 
L 246.210966 176.177127 
L 250.560369 176.19554 
" style="fill:none;stroke:#cc79a7;stroke-linecap:square;stroke-width:2;"/>
   </g>
   <g id="line2d_4">
    <path clip-path="url(#p72b1066160)" d="M 37.439631 99.542097 
L 41.789034 95.158087 
L 46.138436 98.493665 
L 50.487839 108.03332 
L 54.837242 120.827536 
L 59.186645 133.867228 
L 63.536048 145.108476 
L 67.88545 153.745005 
L 72.234853 159.890047 
L 76.584256 164.07687 
L 80.933659 166.883629 
L 85.283062 168.765844 
L 89.632465 170.035428 
L 93.981867 170.897313 
L 98.33127 171.488304 
L 102.680673 171.90137 
L 107.030076 172.198867 
L 111.379479 172.421364 
L 115.728882 172.594676 
L 120.078284 172.734519 
L 124.427687 172.848674 
L 128.77709 172.938497 
L 133.126493 173.002102 
L 137.475896 173.039685 
L 141.825299 173.058776 
L 146.174701 173.075864 
L 150.524104 173.112256 
L 154.873507 173.185533 
L 159.22291 173.301411 
L 163.572313 173.451163 
L 167.921716 173.616327 
L 172.271118 173.777689 
L 176.620521 173.923181 
L 180.969924 174.050839 
L 185.319327 174.166466 
L 189.66873 174.27839 
L 194.018133 174.392448 
L 198.367535 174.509425 
L 202.716938 174.62552 
L 207.066341 174.734889 
L 211.415744 174.832522 
L 215.765147 174.916042 
L 220.11455 174.985898 
L 224.463952 175.044451 
L 228.813355 175.094902 
L 233.162758 175.140704 
L 237.512161 175.185318 
L 241.861564 175.231622 
L 246.210966 175.280483 
L 250.560369 175.328764 
" style="fill:none;stroke:#424243;stroke-linecap:square;stroke-width:2;"/>
   </g>
   <g id="patch_3">
    <path d="M 26.783594 183.67 
L 261.216406 183.67 
" style="fill:none;stroke:#000000;stroke-linecap:square;stroke-linejoin:miter;stroke-width:0.8;"/>
   </g>
  </g>
 </g>
 <defs>
  <clipPath id="p72b1066160">
   <rect height="160.495" width="234.432812" x="26.783594" y="23.175"/>
  </clipPath>
 </defs>
</svg>
