<?xml version="1.0" encoding="utf-8" standalone="no"?>
<!DOCTYPE svg PUBLIC "-//W3C//DTD SVG 1.1//EN"
  "http://www.w3.org/Graphics/SVG/1.1/DTD/svg11.dtd">
<!-- Created with matplotlib (http://matplotlib.org/) -->
<svg height="288pt" version="1.1" viewBox="0 0 288 288" width="288pt" xmlns="http://www.w3.org/2000/svg" xmlns:xlink="http://www.w3.org/1999/xlink">
 <defs>
  <style type="text/css">
*{stroke-linecap:butt;stroke-linejoin:round;}
  </style>
 </defs>
 <g id="figure_1">
  <g id="patch_1">
   <path d="M 0 288 
L 288 288 
L 288 0 
L 0 0 
z
" style="fill:#ffffff;"/>
  </g>
  <g id="axes_1">
   <g id="patch_2">
    <path d="M 43.686719 183.67 
L 244.313281 183.67 
L 244.313281 23.175 
L 43.686719 23.175 
z
" style="fill:#ffffff;"/>
   </g>
   <g id="PolyCollection_1">
    <defs>
     <path d="M 52.806108 -111.625227 
L 52.806108 -189.983978 
L 56.528308 -215.545117 
L 60.250507 -236.183131 
L 63.972707 -249.378502 
L 67.694907 -254.393917 
L 71.417106 -251.618885 
L 75.139306 -242.157608 
L 78.861506 -227.697614 
L 82.583705 -210.345558 
L 86.305905 -192.298733 
L 90.028105 -175.420644 
L 93.750304 -160.891939 
L 97.472504 -149.127097 
L 101.194704 -139.989554 
L 104.916903 -133.112156 
L 108.639103 -128.104505 
L 112.361303 -124.596861 
L 116.083502 -122.205402 
L 119.805702 -120.525649 
L 123.527902 -119.20721 
L 127.250101 -118.057855 
L 130.972301 -117.062587 
L 134.694501 -116.284234 
L 138.4167 -115.744276 
L 142.1389 -115.389672 
L 145.8611 -115.142121 
L 149.5833 -114.956154 
L 153.305499 -114.839077 
L 157.027699 -114.830967 
L 160.749899 -114.958368 
L 164.472098 -115.189301 
L 168.194298 -115.430201 
L 171.916498 -115.5782 
L 175.638697 -115.588949 
L 179.360897 -115.502369 
L 183.083097 -115.407158 
L 186.805296 -115.378922 
L 190.527496 -115.442306 
L 194.249696 -115.572586 
L 197.971895 -115.715834 
L 201.694095 -115.81034 
L 205.416295 -115.808653 
L 209.138494 -115.695088 
L 212.860694 -115.486114 
L 216.582894 -115.212426 
L 220.305093 -114.89708 
L 224.027293 -114.545834 
L 227.749493 -114.154566 
L 231.471692 -113.724594 
L 235.193892 -113.272575 
L 235.193892 -111.625227 
L 235.193892 -111.625227 
L 231.471692 -111.625227 
L 227.749493 -111.625227 
L 224.027293 -111.625227 
L 220.305093 -111.625227 
L 216.582894 -111.625227 
L 212.860694 -111.625227 
L 209.138494 -111.625227 
L 205.416295 -111.625227 
L 201.694095 -111.625227 
L 197.971895 -111.625227 
L 194.249696 -111.625227 
L 190.527496 -111.625227 
L 186.805296 -111.625227 
L 183.083097 -111.625227 
L 179.360897 -111.625227 
L 175.638697 -111.625227 
L 171.916498 -111.625227 
L 168.194298 -111.625227 
L 164.472098 -111.625227 
L 160.749899 -111.625227 
L 157.027699 -111.625227 
L 153.305499 -111.625227 
L 149.5833 -111.625227 
L 145.8611 -111.625227 
L 142.1389 -111.625227 
L 138.4167 -111.625227 
L 134.694501 -111.625227 
L 130.972301 -111.625227 
L 127.250101 -111.625227 
L 123.527902 -111.625227 
L 119.805702 -111.625227 
L 116.083502 -111.625227 
L 112.361303 -111.625227 
L 108.639103 -111.625227 
L 104.916903 -111.625227 
L 101.194704 -111.625227 
L 97.472504 -111.625227 
L 93.750304 -111.625227 
L 90.028105 -111.625227 
L 86.305905 -111.625227 
L 82.583705 -111.625227 
L 78.861506 -111.625227 
L 75.139306 -111.625227 
L 71.417106 -111.625227 
L 67.694907 -111.625227 
L 63.972707 -111.625227 
L 60.250507 -111.625227 
L 56.528308 -111.625227 
L 52.806108 -111.625227 
z
" id="m634f1991e1" style="stroke:#cc79a7;stroke-opacity:0.3;"/>
    </defs>
    <g clip-path="url(#pe4e4222896)">
     <use style="fill:#cc79a7;fill-opacity:0.3;stroke:#cc79a7;stroke-opacity:0.3;" x="0" xlink:href="#m634f1991e1" y="288"/>
    </g>
   </g>
   <g id="PolyCollection_2">
    <defs>
     <path d="M 52.806108 -111.625227 
L 52.806108 -191.857938 
L 56.528308 -205.077394 
L 60.250507 -214.081559 
L 63.972707 -218.016677 
L 67.694907 -216.965528 
L 71.417106 -211.758839 
L 75.139306 -203.624176 
L 78.861506 -193.840734 
L 82.583705 -183.506873 
L 86.305905 -173.440136 
L 90.028105 -164.172728 
L 93.750304 -155.993415 
L 97.472504 -149.00224 
L 101.194704 -143.164264 
L 104.916903 -138.359609 
L 108.639103 -134.428957 
L 112.361303 -131.211209 
L 116.083502 -128.568658 
L 119.805702 -126.396825 
L 123.527902 -124.620467 
L 127.250101 -123.181801 
L 130.972301 -122.028921 
L 134.694501 -121.110195 
L 138.4167 -120.375501 
L 142.1389 -119.780749 
L 145.8611 -119.291212 
L 149.5833 -118.88178 
L 153.305499 -118.535444 
L 157.027699 -118.242277 
L 160.749899 -117.999536 
L 164.472098 -117.811617 
L 168.194298 -117.688483 
L 171.916498 -117.642687 
L 175.638697 -117.686231 
L 179.360897 -117.827829 
L 183.083097 -118.06986 
L 186.805296 -118.40427 
L 190.527496 -118.808494 
L 194.249696 -119.244372 
L 197.971895 -119.662667 
L 201.694095 -120.012798 
L 205.416295 -120.253952 
L 209.138494 -120.362511 
L 212.860694 -120.332711 
L 216.582894 -120.171261 
L 220.305093 -119.889649 
L 224.027293 -119.498544 
L 227.749493 -119.006968 
L 231.471692 -118.426044 
L 235.193892 -117.774432 
L 235.193892 -111.625227 
L 235.193892 -111.625227 
L 231.471692 -111.625227 
L 227.749493 -111.625227 
L 224.027293 -111.625227 
L 220.305093 -111.625227 
L 216.582894 -111.625227 
L 212.860694 -111.625227 
L 209.138494 -111.625227 
L 205.416295 -111.625227 
L 201.694095 -111.625227 
L 197.971895 -111.625227 
L 194.249696 -111.625227 
L 190.527496 -111.625227 
L 186.805296 -111.625227 
L 183.083097 -111.625227 
L 179.360897 -111.625227 
L 175.638697 -111.625227 
L 171.916498 -111.625227 
L 168.194298 -111.625227 
L 164.472098 -111.625227 
L 160.749899 -111.625227 
L 157.027699 -111.625227 
L 153.305499 -111.625227 
L 149.5833 -111.625227 
L 145.8611 -111.625227 
L 142.1389 -111.625227 
L 138.4167 -111.625227 
L 134.694501 -111.625227 
L 130.972301 -111.625227 
L 127.250101 -111.625227 
L 123.527902 -111.625227 
L 119.805702 -111.625227 
L 116.083502 -111.625227 
L 112.361303 -111.625227 
L 108.639103 -111.625227 
L 104.916903 -111.625227 
L 101.194704 -111.625227 
L 97.472504 -111.625227 
L 93.750304 -111.625227 
L 90.028105 -111.625227 
L 86.305905 -111.625227 
L 82.583705 -111.625227 
L 78.861506 -111.625227 
L 75.139306 -111.625227 
L 71.417106 -111.625227 
L 67.694907 -111.625227 
L 63.972707 -111.625227 
L 60.250507 -111.625227 
L 56.528308 -111.625227 
L 52.806108 -111.625227 
z
" id="m8b90ef6a81" style="stroke:#424243;stroke-opacity:0.3;"/>
    </defs>
    <g clip-path="url(#pe4e4222896)">
     <use style="fill:#424243;fill-opacity:0.3;stroke:#424243;stroke-opacity:0.3;" x="0" xlink:href="#m8b90ef6a81" y="288"/>
    </g>
   </g>
   <g id="matplotlib.axis_1">
    <g id="xtick_1">
     <g id="line2d_1">
      <defs>
       <path d="M 0 0 
L 0 3.5 
" id="m9f890640b0" style="stroke:#000000;stroke-width:0.8;"/>
      </defs>
      <g>
       <use style="stroke:#000000;stroke-width:0.8;" x="52.806108" xlink:href="#m9f890640b0" y="183.67"/>
      </g>
     </g>
     <g id="text_1">
      <!-- 0 -->
      <defs>
       <path d="M 31.78125 66.40625 
Q 24.171875 66.40625 20.328125 58.90625 
Q 16.5 51.421875 16.5 36.375 
Q 16.5 21.390625 20.328125 13.890625 
Q 24.171875 6.390625 31.78125 6.390625 
Q 39.453125 6.390625 43.28125 13.890625 
Q 47.125 21.390625 47.125 36.375 
Q 47.125 51.421875 43.28125 58.90625 
Q 39.453125 66.40625 31.78125 66.40625 
z
M 31.78125 74.21875 
Q 44.046875 74.21875 50.515625 64.515625 
Q 56.984375 54.828125 56.984375 36.375 
Q 56.984375 17.96875 50.515625 8.265625 
Q 44.046875 -1.421875 31.78125 -1.421875 
Q 19.53125 -1.421875 13.0625 8.265625 
Q 6.59375 17.96875 6.59375 36.375 
Q 6.59375 54.828125 13.0625 64.515625 
Q 19.53125 74.21875 31.78125 74.21875 
z
" id="DejaVuSans-30"/>
      </defs>
      <g transform="translate(46.443608 205.866875)scale(0.2 -0.2)">
       <use xlink:href="#DejaVuSans-30"/>
      </g>
     </g>
    </g>
    <g id="xtick_2">
     <g id="line2d_2">
      <g>
       <use style="stroke:#000000;stroke-width:0.8;" x="123.602942" xlink:href="#m9f890640b0" y="183.67"/>
      </g>
     </g>
     <g id="text_2">
      <!-- 200 -->
      <defs>
       <path d="M 19.1875 8.296875 
L 53.609375 8.296875 
L 53.609375 0 
L 7.328125 0 
L 7.328125 8.296875 
Q 12.9375 14.109375 22.625 23.890625 
Q 32.328125 33.6875 34.8125 36.53125 
Q 39.546875 41.84375 41.421875 45.53125 
Q 43.3125 49.21875 43.3125 52.78125 
Q 43.3125 58.59375 39.234375 62.25 
Q 35.15625 65.921875 28.609375 65.921875 
Q 23.96875 65.921875 18.8125 64.3125 
Q 13.671875 62.703125 7.8125 59.421875 
L 7.8125 69.390625 
Q 13.765625 71.78125 18.9375 73 
Q 24.125 74.21875 28.421875 74.21875 
Q 39.75 74.21875 46.484375 68.546875 
Q 53.21875 62.890625 53.21875 53.421875 
Q 53.21875 48.921875 51.53125 44.890625 
Q 49.859375 40.875 45.40625 35.40625 
Q 44.1875 33.984375 37.640625 27.21875 
Q 31.109375 20.453125 19.1875 8.296875 
z
" id="DejaVuSans-32"/>
      </defs>
      <g transform="translate(104.515442 205.866875)scale(0.2 -0.2)">
       <use xlink:href="#DejaVuSans-32"/>
       <use x="63.623047" xlink:href="#DejaVuSans-30"/>
       <use x="127.246094" xlink:href="#DejaVuSans-30"/>
      </g>
     </g>
    </g>
    <g id="xtick_3">
     <g id="line2d_3">
      <g>
       <use style="stroke:#000000;stroke-width:0.8;" x="194.399777" xlink:href="#m9f890640b0" y="183.67"/>
      </g>
     </g>
     <g id="text_3">
      <!-- 400 -->
      <defs>
       <path d="M 37.796875 64.3125 
L 12.890625 25.390625 
L 37.796875 25.390625 
z
M 35.203125 72.90625 
L 47.609375 72.90625 
L 47.609375 25.390625 
L 58.015625 25.390625 
L 58.015625 17.1875 
L 47.609375 17.1875 
L 47.609375 0 
L 37.796875 0 
L 37.796875 17.1875 
L 4.890625 17.1875 
L 4.890625 26.703125 
z
" id="DejaVuSans-34"/>
      </defs>
      <g transform="translate(175.312277 205.866875)scale(0.2 -0.2)">
       <use xlink:href="#DejaVuSans-34"/>
       <use x="63.623047" xlink:href="#DejaVuSans-30"/>
       <use x="127.246094" xlink:href="#DejaVuSans-30"/>
      </g>
     </g>
    </g>
    <g id="text_4">
     <!-- leaf area index -->
     <defs>
      <path d="M 9.421875 75.984375 
L 18.40625 75.984375 
L 18.40625 0 
L 9.421875 0 
z
" id="DejaVuSans-6c"/>
      <path d="M 56.203125 29.59375 
L 56.203125 25.203125 
L 14.890625 25.203125 
Q 15.484375 15.921875 20.484375 11.0625 
Q 25.484375 6.203125 34.421875 6.203125 
Q 39.59375 6.203125 44.453125 7.46875 
Q 49.3125 8.734375 54.109375 11.28125 
L 54.109375 2.78125 
Q 49.265625 0.734375 44.1875 -0.34375 
Q 39.109375 -1.421875 33.890625 -1.421875 
Q 20.796875 -1.421875 13.15625 6.1875 
Q 5.515625 13.8125 5.515625 26.8125 
Q 5.515625 40.234375 12.765625 48.109375 
Q 20.015625 56 32.328125 56 
Q 43.359375 56 49.78125 48.890625 
Q 56.203125 41.796875 56.203125 29.59375 
z
M 47.21875 32.234375 
Q 47.125 39.59375 43.09375 43.984375 
Q 39.0625 48.390625 32.421875 48.390625 
Q 24.90625 48.390625 20.390625 44.140625 
Q 15.875 39.890625 15.1875 32.171875 
z
" id="DejaVuSans-65"/>
      <path d="M 34.28125 27.484375 
Q 23.390625 27.484375 19.1875 25 
Q 14.984375 22.515625 14.984375 16.5 
Q 14.984375 11.71875 18.140625 8.90625 
Q 21.296875 6.109375 26.703125 6.109375 
Q 34.1875 6.109375 38.703125 11.40625 
Q 43.21875 16.703125 43.21875 25.484375 
L 43.21875 27.484375 
z
M 52.203125 31.203125 
L 52.203125 0 
L 43.21875 0 
L 43.21875 8.296875 
Q 40.140625 3.328125 35.546875 0.953125 
Q 30.953125 -1.421875 24.3125 -1.421875 
Q 15.921875 -1.421875 10.953125 3.296875 
Q 6 8.015625 6 15.921875 
Q 6 25.140625 12.171875 29.828125 
Q 18.359375 34.515625 30.609375 34.515625 
L 43.21875 34.515625 
L 43.21875 35.40625 
Q 43.21875 41.609375 39.140625 45 
Q 35.0625 48.390625 27.6875 48.390625 
Q 23 48.390625 18.546875 47.265625 
Q 14.109375 46.140625 10.015625 43.890625 
L 10.015625 52.203125 
Q 14.9375 54.109375 19.578125 55.046875 
Q 24.21875 56 28.609375 56 
Q 40.484375 56 46.34375 49.84375 
Q 52.203125 43.703125 52.203125 31.203125 
z
" id="DejaVuSans-61"/>
      <path d="M 37.109375 75.984375 
L 37.109375 68.5 
L 28.515625 68.5 
Q 23.6875 68.5 21.796875 66.546875 
Q 19.921875 64.59375 19.921875 59.515625 
L 19.921875 54.6875 
L 34.71875 54.6875 
L 34.71875 47.703125 
L 19.921875 47.703125 
L 19.921875 0 
L 10.890625 0 
L 10.890625 47.703125 
L 2.296875 47.703125 
L 2.296875 54.6875 
L 10.890625 54.6875 
L 10.890625 58.5 
Q 10.890625 67.625 15.140625 71.796875 
Q 19.390625 75.984375 28.609375 75.984375 
z
" id="DejaVuSans-66"/>
      <path id="DejaVuSans-20"/>
      <path d="M 41.109375 46.296875 
Q 39.59375 47.171875 37.8125 47.578125 
Q 36.03125 48 33.890625 48 
Q 26.265625 48 22.1875 43.046875 
Q 18.109375 38.09375 18.109375 28.8125 
L 18.109375 0 
L 9.078125 0 
L 9.078125 54.6875 
L 18.109375 54.6875 
L 18.109375 46.1875 
Q 20.953125 51.171875 25.484375 53.578125 
Q 30.03125 56 36.53125 56 
Q 37.453125 56 38.578125 55.875 
Q 39.703125 55.765625 41.0625 55.515625 
z
" id="DejaVuSans-72"/>
      <path d="M 9.421875 54.6875 
L 18.40625 54.6875 
L 18.40625 0 
L 9.421875 0 
z
M 9.421875 75.984375 
L 18.40625 75.984375 
L 18.40625 64.59375 
L 9.421875 64.59375 
z
" id="DejaVuSans-69"/>
      <path d="M 54.890625 33.015625 
L 54.890625 0 
L 45.90625 0 
L 45.90625 32.71875 
Q 45.90625 40.484375 42.875 44.328125 
Q 39.84375 48.1875 33.796875 48.1875 
Q 26.515625 48.1875 22.3125 43.546875 
Q 18.109375 38.921875 18.109375 30.90625 
L 18.109375 0 
L 9.078125 0 
L 9.078125 54.6875 
L 18.109375 54.6875 
L 18.109375 46.1875 
Q 21.34375 51.125 25.703125 53.5625 
Q 30.078125 56 35.796875 56 
Q 45.21875 56 50.046875 50.171875 
Q 54.890625 44.34375 54.890625 33.015625 
z
" id="DejaVuSans-6e"/>
      <path d="M 45.40625 46.390625 
L 45.40625 75.984375 
L 54.390625 75.984375 
L 54.390625 0 
L 45.40625 0 
L 45.40625 8.203125 
Q 42.578125 3.328125 38.25 0.953125 
Q 33.9375 -1.421875 27.875 -1.421875 
Q 17.96875 -1.421875 11.734375 6.484375 
Q 5.515625 14.40625 5.515625 27.296875 
Q 5.515625 40.1875 11.734375 48.09375 
Q 17.96875 56 27.875 56 
Q 33.9375 56 38.25 53.625 
Q 42.578125 51.265625 45.40625 46.390625 
z
M 14.796875 27.296875 
Q 14.796875 17.390625 18.875 11.75 
Q 22.953125 6.109375 30.078125 6.109375 
Q 37.203125 6.109375 41.296875 11.75 
Q 45.40625 17.390625 45.40625 27.296875 
Q 45.40625 37.203125 41.296875 42.84375 
Q 37.203125 48.484375 30.078125 48.484375 
Q 22.953125 48.484375 18.875 42.84375 
Q 14.796875 37.203125 14.796875 27.296875 
z
" id="DejaVuSans-64"/>
      <path d="M 54.890625 54.6875 
L 35.109375 28.078125 
L 55.90625 0 
L 45.3125 0 
L 29.390625 21.484375 
L 13.484375 0 
L 2.875 0 
L 24.125 28.609375 
L 4.6875 54.6875 
L 15.28125 54.6875 
L 29.78125 35.203125 
L 44.28125 54.6875 
z
" id="DejaVuSans-78"/>
     </defs>
     <g transform="translate(50.265625 233.022344)scale(0.25 -0.25)">
      <use xlink:href="#DejaVuSans-6c"/>
      <use x="27.783203" xlink:href="#DejaVuSans-65"/>
      <use x="89.306641" xlink:href="#DejaVuSans-61"/>
      <use x="150.585938" xlink:href="#DejaVuSans-66"/>
      <use x="185.791016" xlink:href="#DejaVuSans-20"/>
      <use x="217.578125" xlink:href="#DejaVuSans-61"/>
      <use x="278.857422" xlink:href="#DejaVuSans-72"/>
      <use x="319.939453" xlink:href="#DejaVuSans-65"/>
      <use x="381.462891" xlink:href="#DejaVuSans-61"/>
      <use x="442.742188" xlink:href="#DejaVuSans-20"/>
      <use x="474.529297" xlink:href="#DejaVuSans-69"/>
      <use x="502.3125" xlink:href="#DejaVuSans-6e"/>
      <use x="565.691406" xlink:href="#DejaVuSans-64"/>
      <use x="629.167969" xlink:href="#DejaVuSans-65"/>
      <use x="690.675781" xlink:href="#DejaVuSans-78"/>
     </g>
     <!-- variance -->
     <defs>
      <path d="M 2.984375 54.6875 
L 12.5 54.6875 
L 29.59375 8.796875 
L 46.6875 54.6875 
L 56.203125 54.6875 
L 35.6875 0 
L 23.484375 0 
z
" id="DejaVuSans-76"/>
      <path d="M 48.78125 52.59375 
L 48.78125 44.1875 
Q 44.96875 46.296875 41.140625 47.34375 
Q 37.3125 48.390625 33.40625 48.390625 
Q 24.65625 48.390625 19.8125 42.84375 
Q 14.984375 37.3125 14.984375 27.296875 
Q 14.984375 17.28125 19.8125 11.734375 
Q 24.65625 6.203125 33.40625 6.203125 
Q 37.3125 6.203125 41.140625 7.25 
Q 44.96875 8.296875 48.78125 10.40625 
L 48.78125 2.09375 
Q 45.015625 0.34375 40.984375 -0.53125 
Q 36.96875 -1.421875 32.421875 -1.421875 
Q 20.0625 -1.421875 12.78125 6.34375 
Q 5.515625 14.109375 5.515625 27.296875 
Q 5.515625 40.671875 12.859375 48.328125 
Q 20.21875 56 33.015625 56 
Q 37.15625 56 41.109375 55.140625 
Q 45.0625 54.296875 48.78125 52.59375 
z
" id="DejaVuSans-63"/>
     </defs>
     <g transform="translate(90.183594 261.016875)scale(0.25 -0.25)">
      <use xlink:href="#DejaVuSans-76"/>
      <use x="59.179688" xlink:href="#DejaVuSans-61"/>
      <use x="120.458984" xlink:href="#DejaVuSans-72"/>
      <use x="161.572266" xlink:href="#DejaVuSans-69"/>
      <use x="189.355469" xlink:href="#DejaVuSans-61"/>
      <use x="250.634766" xlink:href="#DejaVuSans-6e"/>
      <use x="314.013672" xlink:href="#DejaVuSans-63"/>
      <use x="368.994141" xlink:href="#DejaVuSans-65"/>
     </g>
    </g>
   </g>
   <g id="line2d_4">
    <path clip-path="url(#pe4e4222896)" d="M 52.806108 98.016022 
L 56.528308 72.454883 
L 60.250507 51.816869 
L 63.972707 38.621498 
L 67.694907 33.606083 
L 71.417106 36.381115 
L 75.139306 45.842392 
L 78.861506 60.302386 
L 82.583705 77.654442 
L 86.305905 95.701267 
L 90.028105 112.579356 
L 93.750304 127.108061 
L 97.472504 138.872903 
L 101.194704 148.010446 
L 104.916903 154.887844 
L 108.639103 159.895495 
L 112.361303 163.403139 
L 116.083502 165.794598 
L 119.805702 167.474351 
L 123.527902 168.79279 
L 127.250101 169.942145 
L 130.972301 170.937413 
L 134.694501 171.715766 
L 138.4167 172.255724 
L 142.1389 172.610328 
L 145.8611 172.857879 
L 149.5833 173.043846 
L 153.305499 173.160923 
L 157.027699 173.169033 
L 160.749899 173.041632 
L 164.472098 172.810699 
L 168.194298 172.569799 
L 171.916498 172.4218 
L 175.638697 172.411051 
L 179.360897 172.497631 
L 183.083097 172.592842 
L 186.805296 172.621078 
L 190.527496 172.557694 
L 194.249696 172.427414 
L 197.971895 172.284166 
L 201.694095 172.18966 
L 205.416295 172.191347 
L 209.138494 172.304912 
L 212.860694 172.513886 
L 216.582894 172.787574 
L 220.305093 173.10292 
L 224.027293 173.454166 
L 227.749493 173.845434 
L 231.471692 174.275406 
L 235.193892 174.727425 
" style="fill:none;stroke:#cc79a7;stroke-linecap:square;stroke-width:2;"/>
   </g>
   <g id="line2d_5">
    <path clip-path="url(#pe4e4222896)" d="M 52.806108 96.142062 
L 56.528308 82.922606 
L 60.250507 73.918441 
L 63.972707 69.983323 
L 67.694907 71.034472 
L 71.417106 76.241161 
L 75.139306 84.375824 
L 78.861506 94.159266 
L 82.583705 104.493127 
L 86.305905 114.559864 
L 90.028105 123.827272 
L 93.750304 132.006585 
L 97.472504 138.99776 
L 101.194704 144.835736 
L 104.916903 149.640391 
L 108.639103 153.571043 
L 112.361303 156.788791 
L 116.083502 159.431342 
L 119.805702 161.603175 
L 123.527902 163.379533 
L 127.250101 164.818199 
L 130.972301 165.971079 
L 134.694501 166.889805 
L 138.4167 167.624499 
L 142.1389 168.219251 
L 145.8611 168.708788 
L 149.5833 169.11822 
L 153.305499 169.464556 
L 157.027699 169.757723 
L 160.749899 170.000464 
L 164.472098 170.188383 
L 168.194298 170.311517 
L 171.916498 170.357313 
L 175.638697 170.313769 
L 179.360897 170.172171 
L 183.083097 169.93014 
L 186.805296 169.59573 
L 190.527496 169.191506 
L 194.249696 168.755628 
L 197.971895 168.337333 
L 201.694095 167.987202 
L 205.416295 167.746048 
L 209.138494 167.637489 
L 212.860694 167.667289 
L 216.582894 167.828739 
L 220.305093 168.110351 
L 224.027293 168.501456 
L 227.749493 168.993032 
L 231.471692 169.573956 
L 235.193892 170.225568 
" style="fill:none;stroke:#424243;stroke-linecap:square;stroke-width:2;"/>
   </g>
   <g id="patch_3">
    <path d="M 43.686719 183.67 
L 244.313281 183.67 
" style="fill:none;stroke:#000000;stroke-linecap:square;stroke-linejoin:miter;stroke-width:0.8;"/>
   </g>
  </g>
 </g>
 <defs>
  <clipPath id="pe4e4222896">
   <rect height="160.495" width="200.626562" x="43.686719" y="23.175"/>
  </clipPath>
 </defs>
</svg>
