<?xml version="1.0" encoding="utf-8" standalone="no"?>
<!DOCTYPE svg PUBLIC "-//W3C//DTD SVG 1.1//EN"
  "http://www.w3.org/Graphics/SVG/1.1/DTD/svg11.dtd">
<!-- Created with matplotlib (http://matplotlib.org/) -->
<svg height="288pt" version="1.1" viewBox="0 0 288 288" width="288pt" xmlns="http://www.w3.org/2000/svg" xmlns:xlink="http://www.w3.org/1999/xlink">
 <defs>
  <style type="text/css">
*{stroke-linecap:butt;stroke-linejoin:round;}
  </style>
 </defs>
 <g id="figure_1">
  <g id="patch_1">
   <path d="M 0 288 
L 288 288 
L 288 0 
L 0 0 
z
" style="fill:#ffffff;"/>
  </g>
  <g id="axes_1">
   <g id="patch_2">
    <path d="M 59.89375 183.67 
L 228.10625 183.67 
L 228.10625 23.175 
L 59.89375 23.175 
z
" style="fill:#ffffff;"/>
   </g>
   <g id="PolyCollection_1">
    <defs>
     <path d="M 67.539773 -111.625227 
L 67.539773 -112.142802 
L 70.660598 -112.510026 
L 73.781424 -113.027979 
L 76.90225 -113.721222 
L 80.023075 -114.6256 
L 83.143901 -115.8028 
L 86.264726 -117.346022 
L 89.385552 -119.360007 
L 92.506378 -121.913944 
L 95.627203 -125.002509 
L 98.748029 -128.568604 
L 101.868854 -132.595623 
L 104.98968 -137.200074 
L 108.110506 -142.648632 
L 111.231331 -149.309466 
L 114.352157 -157.600892 
L 117.472982 -167.925866 
L 120.593808 -180.496563 
L 123.714634 -195.052635 
L 126.835459 -210.690117 
L 129.956285 -226.013283 
L 133.07711 -239.510229 
L 136.197936 -249.850252 
L 139.318762 -256.023867 
L 142.439587 -257.529773 
L 145.560413 -254.659981 
L 148.681238 -248.568707 
L 151.802064 -240.858525 
L 154.92289 -232.900627 
L 158.043715 -225.392263 
L 161.164541 -218.393726 
L 164.285366 -211.649991 
L 167.406192 -204.878187 
L 170.527018 -197.90026 
L 173.647843 -190.694088 
L 176.768669 -183.425329 
L 179.889494 -176.412012 
L 183.01032 -169.984869 
L 186.131146 -164.346323 
L 189.251971 -159.565803 
L 192.372797 -155.681691 
L 195.493622 -152.742807 
L 198.614448 -150.716973 
L 201.735274 -149.38081 
L 204.856099 -148.332904 
L 207.976925 -147.129986 
L 211.09775 -145.426406 
L 214.218576 -143.026964 
L 217.339402 -139.870502 
L 220.460227 -136.009825 
L 220.460227 -111.625227 
L 220.460227 -111.625227 
L 217.339402 -111.625227 
L 214.218576 -111.625227 
L 211.09775 -111.625227 
L 207.976925 -111.625227 
L 204.856099 -111.625227 
L 201.735274 -111.625227 
L 198.614448 -111.625227 
L 195.493622 -111.625227 
L 192.372797 -111.625227 
L 189.251971 -111.625227 
L 186.131146 -111.625227 
L 183.01032 -111.625227 
L 179.889494 -111.625227 
L 176.768669 -111.625227 
L 173.647843 -111.625227 
L 170.527018 -111.625227 
L 167.406192 -111.625227 
L 164.285366 -111.625227 
L 161.164541 -111.625227 
L 158.043715 -111.625227 
L 154.92289 -111.625227 
L 151.802064 -111.625227 
L 148.681238 -111.625227 
L 145.560413 -111.625227 
L 142.439587 -111.625227 
L 139.318762 -111.625227 
L 136.197936 -111.625227 
L 133.07711 -111.625227 
L 129.956285 -111.625227 
L 126.835459 -111.625227 
L 123.714634 -111.625227 
L 120.593808 -111.625227 
L 117.472982 -111.625227 
L 114.352157 -111.625227 
L 111.231331 -111.625227 
L 108.110506 -111.625227 
L 104.98968 -111.625227 
L 101.868854 -111.625227 
L 98.748029 -111.625227 
L 95.627203 -111.625227 
L 92.506378 -111.625227 
L 89.385552 -111.625227 
L 86.264726 -111.625227 
L 83.143901 -111.625227 
L 80.023075 -111.625227 
L 76.90225 -111.625227 
L 73.781424 -111.625227 
L 70.660598 -111.625227 
L 67.539773 -111.625227 
z
" id="m56edbba801" style="stroke:#cc79a7;stroke-opacity:0.3;"/>
    </defs>
    <g clip-path="url(#pd6ec7dbff3)">
     <use style="fill:#cc79a7;fill-opacity:0.3;stroke:#cc79a7;stroke-opacity:0.3;" x="0" xlink:href="#m56edbba801" y="288"/>
    </g>
   </g>
   <g id="PolyCollection_2">
    <defs>
     <path d="M 67.539773 -111.625227 
L 67.539773 -123.964161 
L 70.660598 -126.056458 
L 73.781424 -128.501796 
L 76.90225 -131.351914 
L 80.023075 -134.632823 
L 83.143901 -138.307591 
L 86.264726 -142.255223 
L 89.385552 -146.29717 
L 92.506378 -150.269208 
L 95.627203 -154.095766 
L 98.748029 -157.818856 
L 101.868854 -161.573676 
L 104.98968 -165.545376 
L 108.110506 -169.940218 
L 111.231331 -174.967366 
L 114.352157 -180.804465 
L 117.472982 -187.535346 
L 120.593808 -195.077266 
L 123.714634 -203.130034 
L 126.835459 -211.179103 
L 129.956285 -218.571288 
L 133.07711 -224.650577 
L 136.197936 -228.908325 
L 139.318762 -231.096798 
L 142.439587 -231.275227 
L 145.560413 -229.774455 
L 148.681238 -227.079596 
L 151.802064 -223.662937 
L 154.92289 -219.836419 
L 158.043715 -215.686541 
L 161.164541 -211.103522 
L 164.285366 -205.876096 
L 167.406192 -199.81979 
L 170.527018 -192.905622 
L 173.647843 -185.335745 
L 176.768669 -177.510576 
L 179.889494 -169.8865 
L 183.01032 -162.803094 
L 186.131146 -156.387931 
L 189.251971 -150.589735 
L 192.372797 -145.293939 
L 195.493622 -140.424949 
L 198.614448 -135.975035 
L 201.735274 -131.973443 
L 204.856099 -128.445368 
L 207.976925 -125.390768 
L 211.09775 -122.781495 
L 214.218576 -120.567555 
L 217.339402 -118.689676 
L 220.460227 -117.094755 
L 220.460227 -111.625227 
L 220.460227 -111.625227 
L 217.339402 -111.625227 
L 214.218576 -111.625227 
L 211.09775 -111.625227 
L 207.976925 -111.625227 
L 204.856099 -111.625227 
L 201.735274 -111.625227 
L 198.614448 -111.625227 
L 195.493622 -111.625227 
L 192.372797 -111.625227 
L 189.251971 -111.625227 
L 186.131146 -111.625227 
L 183.01032 -111.625227 
L 179.889494 -111.625227 
L 176.768669 -111.625227 
L 173.647843 -111.625227 
L 170.527018 -111.625227 
L 167.406192 -111.625227 
L 164.285366 -111.625227 
L 161.164541 -111.625227 
L 158.043715 -111.625227 
L 154.92289 -111.625227 
L 151.802064 -111.625227 
L 148.681238 -111.625227 
L 145.560413 -111.625227 
L 142.439587 -111.625227 
L 139.318762 -111.625227 
L 136.197936 -111.625227 
L 133.07711 -111.625227 
L 129.956285 -111.625227 
L 126.835459 -111.625227 
L 123.714634 -111.625227 
L 120.593808 -111.625227 
L 117.472982 -111.625227 
L 114.352157 -111.625227 
L 111.231331 -111.625227 
L 108.110506 -111.625227 
L 104.98968 -111.625227 
L 101.868854 -111.625227 
L 98.748029 -111.625227 
L 95.627203 -111.625227 
L 92.506378 -111.625227 
L 89.385552 -111.625227 
L 86.264726 -111.625227 
L 83.143901 -111.625227 
L 80.023075 -111.625227 
L 76.90225 -111.625227 
L 73.781424 -111.625227 
L 70.660598 -111.625227 
L 67.539773 -111.625227 
z
" id="made64401fb" style="stroke:#424243;stroke-opacity:0.3;"/>
    </defs>
    <g clip-path="url(#pd6ec7dbff3)">
     <use style="fill:#424243;fill-opacity:0.3;stroke:#424243;stroke-opacity:0.3;" x="0" xlink:href="#made64401fb" y="288"/>
    </g>
   </g>
   <g id="matplotlib.axis_1">
    <g id="xtick_1">
     <g id="line2d_1">
      <defs>
       <path d="M 0 0 
L 0 3.5 
" id="ma060fb1b07" style="stroke:#000000;stroke-width:0.8;"/>
      </defs>
      <g>
       <use style="stroke:#000000;stroke-width:0.8;" x="100.40272" xlink:href="#ma060fb1b07" y="183.67"/>
      </g>
     </g>
     <g id="text_1">
      <!-- −5 -->
      <defs>
       <path d="M 10.59375 35.5 
L 73.1875 35.5 
L 73.1875 27.203125 
L 10.59375 27.203125 
z
" id="DejaVuSans-2212"/>
       <path d="M 10.796875 72.90625 
L 49.515625 72.90625 
L 49.515625 64.59375 
L 19.828125 64.59375 
L 19.828125 46.734375 
Q 21.96875 47.46875 24.109375 47.828125 
Q 26.265625 48.1875 28.421875 48.1875 
Q 40.625 48.1875 47.75 41.5 
Q 54.890625 34.8125 54.890625 23.390625 
Q 54.890625 11.625 47.5625 5.09375 
Q 40.234375 -1.421875 26.90625 -1.421875 
Q 22.3125 -1.421875 17.546875 -0.640625 
Q 12.796875 0.140625 7.71875 1.703125 
L 7.71875 11.625 
Q 12.109375 9.234375 16.796875 8.0625 
Q 21.484375 6.890625 26.703125 6.890625 
Q 35.15625 6.890625 40.078125 11.328125 
Q 45.015625 15.765625 45.015625 23.390625 
Q 45.015625 31 40.078125 35.4375 
Q 35.15625 39.890625 26.703125 39.890625 
Q 22.75 39.890625 18.8125 39.015625 
Q 14.890625 38.140625 10.796875 36.28125 
z
" id="DejaVuSans-35"/>
      </defs>
      <g transform="translate(85.660532 205.866875)scale(0.2 -0.2)">
       <use xlink:href="#DejaVuSans-2212"/>
       <use x="83.789062" xlink:href="#DejaVuSans-35"/>
      </g>
     </g>
    </g>
    <g id="xtick_2">
     <g id="line2d_2">
      <g>
       <use style="stroke:#000000;stroke-width:0.8;" x="166.787948" xlink:href="#ma060fb1b07" y="183.67"/>
      </g>
     </g>
     <g id="text_2">
      <!-- 0 -->
      <defs>
       <path d="M 31.78125 66.40625 
Q 24.171875 66.40625 20.328125 58.90625 
Q 16.5 51.421875 16.5 36.375 
Q 16.5 21.390625 20.328125 13.890625 
Q 24.171875 6.390625 31.78125 6.390625 
Q 39.453125 6.390625 43.28125 13.890625 
Q 47.125 21.390625 47.125 36.375 
Q 47.125 51.421875 43.28125 58.90625 
Q 39.453125 66.40625 31.78125 66.40625 
z
M 31.78125 74.21875 
Q 44.046875 74.21875 50.515625 64.515625 
Q 56.984375 54.828125 56.984375 36.375 
Q 56.984375 17.96875 50.515625 8.265625 
Q 44.046875 -1.421875 31.78125 -1.421875 
Q 19.53125 -1.421875 13.0625 8.265625 
Q 6.59375 17.96875 6.59375 36.375 
Q 6.59375 54.828125 13.0625 64.515625 
Q 19.53125 74.21875 31.78125 74.21875 
z
" id="DejaVuSans-30"/>
      </defs>
      <g transform="translate(160.425448 205.866875)scale(0.2 -0.2)">
       <use xlink:href="#DejaVuSans-30"/>
      </g>
     </g>
    </g>
    <g id="text_3">
     <!-- population density -->
     <defs>
      <path d="M 18.109375 8.203125 
L 18.109375 -20.796875 
L 9.078125 -20.796875 
L 9.078125 54.6875 
L 18.109375 54.6875 
L 18.109375 46.390625 
Q 20.953125 51.265625 25.265625 53.625 
Q 29.59375 56 35.59375 56 
Q 45.5625 56 51.78125 48.09375 
Q 58.015625 40.1875 58.015625 27.296875 
Q 58.015625 14.40625 51.78125 6.484375 
Q 45.5625 -1.421875 35.59375 -1.421875 
Q 29.59375 -1.421875 25.265625 0.953125 
Q 20.953125 3.328125 18.109375 8.203125 
z
M 48.6875 27.296875 
Q 48.6875 37.203125 44.609375 42.84375 
Q 40.53125 48.484375 33.40625 48.484375 
Q 26.265625 48.484375 22.1875 42.84375 
Q 18.109375 37.203125 18.109375 27.296875 
Q 18.109375 17.390625 22.1875 11.75 
Q 26.265625 6.109375 33.40625 6.109375 
Q 40.53125 6.109375 44.609375 11.75 
Q 48.6875 17.390625 48.6875 27.296875 
z
" id="DejaVuSans-70"/>
      <path d="M 30.609375 48.390625 
Q 23.390625 48.390625 19.1875 42.75 
Q 14.984375 37.109375 14.984375 27.296875 
Q 14.984375 17.484375 19.15625 11.84375 
Q 23.34375 6.203125 30.609375 6.203125 
Q 37.796875 6.203125 41.984375 11.859375 
Q 46.1875 17.53125 46.1875 27.296875 
Q 46.1875 37.015625 41.984375 42.703125 
Q 37.796875 48.390625 30.609375 48.390625 
z
M 30.609375 56 
Q 42.328125 56 49.015625 48.375 
Q 55.71875 40.765625 55.71875 27.296875 
Q 55.71875 13.875 49.015625 6.21875 
Q 42.328125 -1.421875 30.609375 -1.421875 
Q 18.84375 -1.421875 12.171875 6.21875 
Q 5.515625 13.875 5.515625 27.296875 
Q 5.515625 40.765625 12.171875 48.375 
Q 18.84375 56 30.609375 56 
z
" id="DejaVuSans-6f"/>
      <path d="M 8.5 21.578125 
L 8.5 54.6875 
L 17.484375 54.6875 
L 17.484375 21.921875 
Q 17.484375 14.15625 20.5 10.265625 
Q 23.53125 6.390625 29.59375 6.390625 
Q 36.859375 6.390625 41.078125 11.03125 
Q 45.3125 15.671875 45.3125 23.6875 
L 45.3125 54.6875 
L 54.296875 54.6875 
L 54.296875 0 
L 45.3125 0 
L 45.3125 8.40625 
Q 42.046875 3.421875 37.71875 1 
Q 33.40625 -1.421875 27.6875 -1.421875 
Q 18.265625 -1.421875 13.375 4.4375 
Q 8.5 10.296875 8.5 21.578125 
z
M 31.109375 56 
z
" id="DejaVuSans-75"/>
      <path d="M 9.421875 75.984375 
L 18.40625 75.984375 
L 18.40625 0 
L 9.421875 0 
z
" id="DejaVuSans-6c"/>
      <path d="M 34.28125 27.484375 
Q 23.390625 27.484375 19.1875 25 
Q 14.984375 22.515625 14.984375 16.5 
Q 14.984375 11.71875 18.140625 8.90625 
Q 21.296875 6.109375 26.703125 6.109375 
Q 34.1875 6.109375 38.703125 11.40625 
Q 43.21875 16.703125 43.21875 25.484375 
L 43.21875 27.484375 
z
M 52.203125 31.203125 
L 52.203125 0 
L 43.21875 0 
L 43.21875 8.296875 
Q 40.140625 3.328125 35.546875 0.953125 
Q 30.953125 -1.421875 24.3125 -1.421875 
Q 15.921875 -1.421875 10.953125 3.296875 
Q 6 8.015625 6 15.921875 
Q 6 25.140625 12.171875 29.828125 
Q 18.359375 34.515625 30.609375 34.515625 
L 43.21875 34.515625 
L 43.21875 35.40625 
Q 43.21875 41.609375 39.140625 45 
Q 35.0625 48.390625 27.6875 48.390625 
Q 23 48.390625 18.546875 47.265625 
Q 14.109375 46.140625 10.015625 43.890625 
L 10.015625 52.203125 
Q 14.9375 54.109375 19.578125 55.046875 
Q 24.21875 56 28.609375 56 
Q 40.484375 56 46.34375 49.84375 
Q 52.203125 43.703125 52.203125 31.203125 
z
" id="DejaVuSans-61"/>
      <path d="M 18.3125 70.21875 
L 18.3125 54.6875 
L 36.8125 54.6875 
L 36.8125 47.703125 
L 18.3125 47.703125 
L 18.3125 18.015625 
Q 18.3125 11.328125 20.140625 9.421875 
Q 21.96875 7.515625 27.59375 7.515625 
L 36.8125 7.515625 
L 36.8125 0 
L 27.59375 0 
Q 17.1875 0 13.234375 3.875 
Q 9.28125 7.765625 9.28125 18.015625 
L 9.28125 47.703125 
L 2.6875 47.703125 
L 2.6875 54.6875 
L 9.28125 54.6875 
L 9.28125 70.21875 
z
" id="DejaVuSans-74"/>
      <path d="M 9.421875 54.6875 
L 18.40625 54.6875 
L 18.40625 0 
L 9.421875 0 
z
M 9.421875 75.984375 
L 18.40625 75.984375 
L 18.40625 64.59375 
L 9.421875 64.59375 
z
" id="DejaVuSans-69"/>
      <path d="M 54.890625 33.015625 
L 54.890625 0 
L 45.90625 0 
L 45.90625 32.71875 
Q 45.90625 40.484375 42.875 44.328125 
Q 39.84375 48.1875 33.796875 48.1875 
Q 26.515625 48.1875 22.3125 43.546875 
Q 18.109375 38.921875 18.109375 30.90625 
L 18.109375 0 
L 9.078125 0 
L 9.078125 54.6875 
L 18.109375 54.6875 
L 18.109375 46.1875 
Q 21.34375 51.125 25.703125 53.5625 
Q 30.078125 56 35.796875 56 
Q 45.21875 56 50.046875 50.171875 
Q 54.890625 44.34375 54.890625 33.015625 
z
" id="DejaVuSans-6e"/>
      <path id="DejaVuSans-20"/>
      <path d="M 45.40625 46.390625 
L 45.40625 75.984375 
L 54.390625 75.984375 
L 54.390625 0 
L 45.40625 0 
L 45.40625 8.203125 
Q 42.578125 3.328125 38.25 0.953125 
Q 33.9375 -1.421875 27.875 -1.421875 
Q 17.96875 -1.421875 11.734375 6.484375 
Q 5.515625 14.40625 5.515625 27.296875 
Q 5.515625 40.1875 11.734375 48.09375 
Q 17.96875 56 27.875 56 
Q 33.9375 56 38.25 53.625 
Q 42.578125 51.265625 45.40625 46.390625 
z
M 14.796875 27.296875 
Q 14.796875 17.390625 18.875 11.75 
Q 22.953125 6.109375 30.078125 6.109375 
Q 37.203125 6.109375 41.296875 11.75 
Q 45.40625 17.390625 45.40625 27.296875 
Q 45.40625 37.203125 41.296875 42.84375 
Q 37.203125 48.484375 30.078125 48.484375 
Q 22.953125 48.484375 18.875 42.84375 
Q 14.796875 37.203125 14.796875 27.296875 
z
" id="DejaVuSans-64"/>
      <path d="M 56.203125 29.59375 
L 56.203125 25.203125 
L 14.890625 25.203125 
Q 15.484375 15.921875 20.484375 11.0625 
Q 25.484375 6.203125 34.421875 6.203125 
Q 39.59375 6.203125 44.453125 7.46875 
Q 49.3125 8.734375 54.109375 11.28125 
L 54.109375 2.78125 
Q 49.265625 0.734375 44.1875 -0.34375 
Q 39.109375 -1.421875 33.890625 -1.421875 
Q 20.796875 -1.421875 13.15625 6.1875 
Q 5.515625 13.8125 5.515625 26.8125 
Q 5.515625 40.234375 12.765625 48.109375 
Q 20.015625 56 32.328125 56 
Q 43.359375 56 49.78125 48.890625 
Q 56.203125 41.796875 56.203125 29.59375 
z
M 47.21875 32.234375 
Q 47.125 39.59375 43.09375 43.984375 
Q 39.0625 48.390625 32.421875 48.390625 
Q 24.90625 48.390625 20.390625 44.140625 
Q 15.875 39.890625 15.1875 32.171875 
z
" id="DejaVuSans-65"/>
      <path d="M 44.28125 53.078125 
L 44.28125 44.578125 
Q 40.484375 46.53125 36.375 47.5 
Q 32.28125 48.484375 27.875 48.484375 
Q 21.1875 48.484375 17.84375 46.4375 
Q 14.5 44.390625 14.5 40.28125 
Q 14.5 37.15625 16.890625 35.375 
Q 19.28125 33.59375 26.515625 31.984375 
L 29.59375 31.296875 
Q 39.15625 29.25 43.1875 25.515625 
Q 47.21875 21.78125 47.21875 15.09375 
Q 47.21875 7.46875 41.1875 3.015625 
Q 35.15625 -1.421875 24.609375 -1.421875 
Q 20.21875 -1.421875 15.453125 -0.5625 
Q 10.6875 0.296875 5.421875 2 
L 5.421875 11.28125 
Q 10.40625 8.6875 15.234375 7.390625 
Q 20.0625 6.109375 24.8125 6.109375 
Q 31.15625 6.109375 34.5625 8.28125 
Q 37.984375 10.453125 37.984375 14.40625 
Q 37.984375 18.0625 35.515625 20.015625 
Q 33.0625 21.96875 24.703125 23.78125 
L 21.578125 24.515625 
Q 13.234375 26.265625 9.515625 29.90625 
Q 5.8125 33.546875 5.8125 39.890625 
Q 5.8125 47.609375 11.28125 51.796875 
Q 16.75 56 26.8125 56 
Q 31.78125 56 36.171875 55.265625 
Q 40.578125 54.546875 44.28125 53.078125 
z
" id="DejaVuSans-73"/>
      <path d="M 32.171875 -5.078125 
Q 28.375 -14.84375 24.75 -17.8125 
Q 21.140625 -20.796875 15.09375 -20.796875 
L 7.90625 -20.796875 
L 7.90625 -13.28125 
L 13.1875 -13.28125 
Q 16.890625 -13.28125 18.9375 -11.515625 
Q 21 -9.765625 23.484375 -3.21875 
L 25.09375 0.875 
L 2.984375 54.6875 
L 12.5 54.6875 
L 29.59375 11.921875 
L 46.6875 54.6875 
L 56.203125 54.6875 
z
" id="DejaVuSans-79"/>
     </defs>
     <g transform="translate(27.677734 233.022344)scale(0.25 -0.25)">
      <use xlink:href="#DejaVuSans-70"/>
      <use x="63.476562" xlink:href="#DejaVuSans-6f"/>
      <use x="124.658203" xlink:href="#DejaVuSans-70"/>
      <use x="188.134766" xlink:href="#DejaVuSans-75"/>
      <use x="251.513672" xlink:href="#DejaVuSans-6c"/>
      <use x="279.296875" xlink:href="#DejaVuSans-61"/>
      <use x="340.576172" xlink:href="#DejaVuSans-74"/>
      <use x="379.785156" xlink:href="#DejaVuSans-69"/>
      <use x="407.568359" xlink:href="#DejaVuSans-6f"/>
      <use x="468.75" xlink:href="#DejaVuSans-6e"/>
      <use x="532.128906" xlink:href="#DejaVuSans-20"/>
      <use x="563.916016" xlink:href="#DejaVuSans-64"/>
      <use x="627.392578" xlink:href="#DejaVuSans-65"/>
      <use x="688.916016" xlink:href="#DejaVuSans-6e"/>
      <use x="752.294922" xlink:href="#DejaVuSans-73"/>
      <use x="804.394531" xlink:href="#DejaVuSans-69"/>
      <use x="832.177734" xlink:href="#DejaVuSans-74"/>
      <use x="871.386719" xlink:href="#DejaVuSans-79"/>
     </g>
     <!-- (ln) -->
     <defs>
      <path d="M 31 75.875 
Q 24.46875 64.65625 21.28125 53.65625 
Q 18.109375 42.671875 18.109375 31.390625 
Q 18.109375 20.125 21.3125 9.0625 
Q 24.515625 -2 31 -13.1875 
L 23.1875 -13.1875 
Q 15.875 -1.703125 12.234375 9.375 
Q 8.59375 20.453125 8.59375 31.390625 
Q 8.59375 42.28125 12.203125 53.3125 
Q 15.828125 64.359375 23.1875 75.875 
z
" id="DejaVuSans-28"/>
      <path d="M 8.015625 75.875 
L 15.828125 75.875 
Q 23.140625 64.359375 26.78125 53.3125 
Q 30.421875 42.28125 30.421875 31.390625 
Q 30.421875 20.453125 26.78125 9.375 
Q 23.140625 -1.703125 15.828125 -13.1875 
L 8.015625 -13.1875 
Q 14.5 -2 17.703125 9.0625 
Q 20.90625 20.125 20.90625 31.390625 
Q 20.90625 42.671875 17.703125 53.65625 
Q 14.5 64.65625 8.015625 75.875 
z
" id="DejaVuSans-29"/>
     </defs>
     <g transform="translate(122.851562 261.016875)scale(0.25 -0.25)">
      <use xlink:href="#DejaVuSans-28"/>
      <use x="39.013672" xlink:href="#DejaVuSans-6c"/>
      <use x="66.796875" xlink:href="#DejaVuSans-6e"/>
      <use x="130.175781" xlink:href="#DejaVuSans-29"/>
     </g>
    </g>
   </g>
   <g id="line2d_3">
    <path clip-path="url(#pd6ec7dbff3)" d="M 67.539773 175.857198 
L 70.660598 175.489974 
L 73.781424 174.972021 
L 76.90225 174.278778 
L 80.023075 173.3744 
L 83.143901 172.1972 
L 86.264726 170.653978 
L 89.385552 168.639993 
L 92.506378 166.086056 
L 95.627203 162.997491 
L 98.748029 159.431396 
L 101.868854 155.404377 
L 104.98968 150.799926 
L 108.110506 145.351368 
L 111.231331 138.690534 
L 114.352157 130.399108 
L 117.472982 120.074134 
L 120.593808 107.503437 
L 123.714634 92.947365 
L 126.835459 77.309883 
L 129.956285 61.986717 
L 133.07711 48.489771 
L 136.197936 38.149748 
L 139.318762 31.976133 
L 142.439587 30.470227 
L 145.560413 33.340019 
L 148.681238 39.431293 
L 151.802064 47.141475 
L 154.92289 55.099373 
L 158.043715 62.607737 
L 161.164541 69.606274 
L 164.285366 76.350009 
L 167.406192 83.121813 
L 170.527018 90.09974 
L 173.647843 97.305912 
L 176.768669 104.574671 
L 179.889494 111.587988 
L 183.01032 118.015131 
L 186.131146 123.653677 
L 189.251971 128.434197 
L 192.372797 132.318309 
L 195.493622 135.257193 
L 198.614448 137.283027 
L 201.735274 138.61919 
L 204.856099 139.667096 
L 207.976925 140.870014 
L 211.09775 142.573594 
L 214.218576 144.973036 
L 217.339402 148.129498 
L 220.460227 151.990175 
" style="fill:none;stroke:#cc79a7;stroke-linecap:square;stroke-width:2;"/>
   </g>
   <g id="line2d_4">
    <path clip-path="url(#pd6ec7dbff3)" d="M 67.539773 164.035839 
L 70.660598 161.943542 
L 73.781424 159.498204 
L 76.90225 156.648086 
L 80.023075 153.367177 
L 83.143901 149.692409 
L 86.264726 145.744777 
L 89.385552 141.70283 
L 92.506378 137.730792 
L 95.627203 133.904234 
L 98.748029 130.181144 
L 101.868854 126.426324 
L 104.98968 122.454624 
L 108.110506 118.059782 
L 111.231331 113.032634 
L 114.352157 107.195535 
L 117.472982 100.464654 
L 120.593808 92.922734 
L 123.714634 84.869966 
L 126.835459 76.820897 
L 129.956285 69.428712 
L 133.07711 63.349423 
L 136.197936 59.091675 
L 139.318762 56.903202 
L 142.439587 56.724773 
L 145.560413 58.225545 
L 148.681238 60.920404 
L 151.802064 64.337063 
L 154.92289 68.163581 
L 158.043715 72.313459 
L 161.164541 76.896478 
L 164.285366 82.123904 
L 167.406192 88.18021 
L 170.527018 95.094378 
L 173.647843 102.664255 
L 176.768669 110.489424 
L 179.889494 118.1135 
L 183.01032 125.196906 
L 186.131146 131.612069 
L 189.251971 137.410265 
L 192.372797 142.706061 
L 195.493622 147.575051 
L 198.614448 152.024965 
L 201.735274 156.026557 
L 204.856099 159.554632 
L 207.976925 162.609232 
L 211.09775 165.218505 
L 214.218576 167.432445 
L 217.339402 169.310324 
L 220.460227 170.905245 
" style="fill:none;stroke:#424243;stroke-linecap:square;stroke-width:2;"/>
   </g>
   <g id="patch_3">
    <path d="M 59.89375 183.67 
L 228.10625 183.67 
" style="fill:none;stroke:#000000;stroke-linecap:square;stroke-linejoin:miter;stroke-width:0.8;"/>
   </g>
  </g>
 </g>
 <defs>
  <clipPath id="pd6ec7dbff3">
   <rect height="160.495" width="168.2125" x="59.89375" y="23.175"/>
  </clipPath>
 </defs>
</svg>
