<?xml version="1.0" encoding="utf-8" standalone="no"?>
<!DOCTYPE svg PUBLIC "-//W3C//DTD SVG 1.1//EN"
  "http://www.w3.org/Graphics/SVG/1.1/DTD/svg11.dtd">
<!-- Created with matplotlib (http://matplotlib.org/) -->
<svg height="288pt" version="1.1" viewBox="0 0 288 288" width="288pt" xmlns="http://www.w3.org/2000/svg" xmlns:xlink="http://www.w3.org/1999/xlink">
 <defs>
  <style type="text/css">
*{stroke-linecap:butt;stroke-linejoin:round;}
  </style>
 </defs>
 <g id="figure_1">
  <g id="patch_1">
   <path d="M 0 288 
L 288 288 
L 288 0 
L 0 0 
z
" style="fill:#ffffff;"/>
  </g>
  <g id="axes_1">
   <g id="patch_2">
    <path d="M 37.95625 183.496 
L 250.04375 183.496 
L 250.04375 23.28 
L 37.95625 23.28 
z
" style="fill:#ffffff;"/>
   </g>
   <g id="PolyCollection_1">
    <defs>
     <path d="M 47.596591 -111.786545 
L 47.596591 -126.030711 
L 51.531424 -126.641676 
L 55.466257 -125.893667 
L 59.40109 -124.753752 
L 63.335923 -124.31802 
L 67.270756 -125.413552 
L 71.205589 -128.604375 
L 75.140422 -134.385395 
L 79.075255 -143.24232 
L 83.010088 -155.476197 
L 86.944921 -170.933608 
L 90.879754 -188.846822 
L 94.814587 -207.868244 
L 98.74942 -226.226014 
L 102.684253 -241.90485 
L 106.619086 -252.872325 
L 110.553919 -257.437455 
L 114.488752 -254.714556 
L 118.423585 -244.985337 
L 122.358418 -229.72269 
L 126.293251 -211.213612 
L 130.228084 -191.943617 
L 134.162917 -174.01187 
L 138.09775 -158.788978 
L 142.032583 -146.865191 
L 145.967417 -138.185733 
L 149.90225 -132.249035 
L 153.837083 -128.326357 
L 157.771916 -125.695903 
L 161.706749 -123.827432 
L 165.641582 -122.432688 
L 169.576415 -121.384646 
L 173.511248 -120.604177 
L 177.446081 -120.008692 
L 181.380914 -119.53614 
L 185.315747 -119.187459 
L 189.25058 -119.023658 
L 193.185413 -119.106647 
L 197.120246 -119.436562 
L 201.055079 -119.94628 
L 204.989912 -120.551432 
L 208.924745 -121.192806 
L 212.859578 -121.824681 
L 216.794411 -122.374199 
L 220.729244 -122.729146 
L 224.664077 -122.770163 
L 228.59891 -122.414786 
L 232.533743 -121.6448 
L 236.468576 -120.517295 
L 240.403409 -119.162257 
L 240.403409 -111.786545 
L 240.403409 -111.786545 
L 236.468576 -111.786545 
L 232.533743 -111.786545 
L 228.59891 -111.786545 
L 224.664077 -111.786545 
L 220.729244 -111.786545 
L 216.794411 -111.786545 
L 212.859578 -111.786545 
L 208.924745 -111.786545 
L 204.989912 -111.786545 
L 201.055079 -111.786545 
L 197.120246 -111.786545 
L 193.185413 -111.786545 
L 189.25058 -111.786545 
L 185.315747 -111.786545 
L 181.380914 -111.786545 
L 177.446081 -111.786545 
L 173.511248 -111.786545 
L 169.576415 -111.786545 
L 165.641582 -111.786545 
L 161.706749 -111.786545 
L 157.771916 -111.786545 
L 153.837083 -111.786545 
L 149.90225 -111.786545 
L 145.967417 -111.786545 
L 142.032583 -111.786545 
L 138.09775 -111.786545 
L 134.162917 -111.786545 
L 130.228084 -111.786545 
L 126.293251 -111.786545 
L 122.358418 -111.786545 
L 118.423585 -111.786545 
L 114.488752 -111.786545 
L 110.553919 -111.786545 
L 106.619086 -111.786545 
L 102.684253 -111.786545 
L 98.74942 -111.786545 
L 94.814587 -111.786545 
L 90.879754 -111.786545 
L 86.944921 -111.786545 
L 83.010088 -111.786545 
L 79.075255 -111.786545 
L 75.140422 -111.786545 
L 71.205589 -111.786545 
L 67.270756 -111.786545 
L 63.335923 -111.786545 
L 59.40109 -111.786545 
L 55.466257 -111.786545 
L 51.531424 -111.786545 
L 47.596591 -111.786545 
z
" id="m3696dc63a4" style="stroke:#e69f00;stroke-opacity:0.3;"/>
    </defs>
    <g clip-path="url(#p8af6b194ef)">
     <use style="fill:#e69f00;fill-opacity:0.3;stroke:#e69f00;stroke-opacity:0.3;" x="0" xlink:href="#m3696dc63a4" y="288"/>
    </g>
   </g>
   <g id="PolyCollection_2">
    <defs>
     <path d="M 47.596591 -111.786545 
L 47.596591 -140.682953 
L 51.531424 -147.288698 
L 55.466257 -153.248408 
L 59.40109 -158.371766 
L 63.335923 -162.795413 
L 67.270756 -166.876218 
L 71.205589 -171.005907 
L 75.140422 -175.441175 
L 79.075255 -180.21823 
L 83.010088 -185.162731 
L 86.944921 -189.956914 
L 90.879754 -194.214033 
L 94.814587 -197.533866 
L 98.74942 -199.544299 
L 102.684253 -199.945396 
L 106.619086 -198.558978 
L 110.553919 -195.36773 
L 114.488752 -190.52483 
L 118.423585 -184.33034 
L 122.358418 -177.187011 
L 126.293251 -169.550209 
L 130.228084 -161.877202 
L 134.162917 -154.575512 
L 138.09775 -147.956272 
L 142.032583 -142.20712 
L 145.967417 -137.395888 
L 149.90225 -133.500413 
L 153.837083 -130.445581 
L 157.771916 -128.129447 
L 161.706749 -126.434143 
L 165.641582 -125.230708 
L 169.576415 -124.388936 
L 173.511248 -123.79483 
L 177.446081 -123.368623 
L 181.380914 -123.07364 
L 185.315747 -122.911211 
L 189.25058 -122.904225 
L 193.185413 -123.076248 
L 197.120246 -123.433108 
L 201.055079 -123.951413 
L 204.989912 -124.575677 
L 208.924745 -125.22335 
L 212.859578 -125.795415 
L 216.794411 -126.189973 
L 220.729244 -126.317229 
L 224.664077 -126.114764 
L 228.59891 -125.560462 
L 232.533743 -124.678387 
L 236.468576 -123.53354 
L 240.403409 -122.215956 
L 240.403409 -111.786545 
L 240.403409 -111.786545 
L 236.468576 -111.786545 
L 232.533743 -111.786545 
L 228.59891 -111.786545 
L 224.664077 -111.786545 
L 220.729244 -111.786545 
L 216.794411 -111.786545 
L 212.859578 -111.786545 
L 208.924745 -111.786545 
L 204.989912 -111.786545 
L 201.055079 -111.786545 
L 197.120246 -111.786545 
L 193.185413 -111.786545 
L 189.25058 -111.786545 
L 185.315747 -111.786545 
L 181.380914 -111.786545 
L 177.446081 -111.786545 
L 173.511248 -111.786545 
L 169.576415 -111.786545 
L 165.641582 -111.786545 
L 161.706749 -111.786545 
L 157.771916 -111.786545 
L 153.837083 -111.786545 
L 149.90225 -111.786545 
L 145.967417 -111.786545 
L 142.032583 -111.786545 
L 138.09775 -111.786545 
L 134.162917 -111.786545 
L 130.228084 -111.786545 
L 126.293251 -111.786545 
L 122.358418 -111.786545 
L 118.423585 -111.786545 
L 114.488752 -111.786545 
L 110.553919 -111.786545 
L 106.619086 -111.786545 
L 102.684253 -111.786545 
L 98.74942 -111.786545 
L 94.814587 -111.786545 
L 90.879754 -111.786545 
L 86.944921 -111.786545 
L 83.010088 -111.786545 
L 79.075255 -111.786545 
L 75.140422 -111.786545 
L 71.205589 -111.786545 
L 67.270756 -111.786545 
L 63.335923 -111.786545 
L 59.40109 -111.786545 
L 55.466257 -111.786545 
L 51.531424 -111.786545 
L 47.596591 -111.786545 
z
" id="mc024180070" style="stroke:#424243;stroke-opacity:0.3;"/>
    </defs>
    <g clip-path="url(#p8af6b194ef)">
     <use style="fill:#424243;fill-opacity:0.3;stroke:#424243;stroke-opacity:0.3;" x="0" xlink:href="#mc024180070" y="288"/>
    </g>
   </g>
   <g id="matplotlib.axis_1">
    <g id="xtick_1">
     <g id="line2d_1">
      <defs>
       <path d="M 0 0 
L 0 3.5 
" id="mc754c8430a" style="stroke:#000000;stroke-width:0.8;"/>
      </defs>
      <g>
       <use style="stroke:#000000;stroke-width:0.8;" x="47.596591" xlink:href="#mc754c8430a" y="183.496"/>
      </g>
     </g>
     <g id="text_1">
      <!-- 0 -->
      <defs>
       <path d="M 31.78125 66.40625 
Q 24.171875 66.40625 20.328125 58.90625 
Q 16.5 51.421875 16.5 36.375 
Q 16.5 21.390625 20.328125 13.890625 
Q 24.171875 6.390625 31.78125 6.390625 
Q 39.453125 6.390625 43.28125 13.890625 
Q 47.125 21.390625 47.125 36.375 
Q 47.125 51.421875 43.28125 58.90625 
Q 39.453125 66.40625 31.78125 66.40625 
z
M 31.78125 74.21875 
Q 44.046875 74.21875 50.515625 64.515625 
Q 56.984375 54.828125 56.984375 36.375 
Q 56.984375 17.96875 50.515625 8.265625 
Q 44.046875 -1.421875 31.78125 -1.421875 
Q 19.53125 -1.421875 13.0625 8.265625 
Q 6.59375 17.96875 6.59375 36.375 
Q 6.59375 54.828125 13.0625 64.515625 
Q 19.53125 74.21875 31.78125 74.21875 
z
" id="DejaVuSans-30"/>
      </defs>
      <g transform="translate(41.234091 205.692875)scale(0.2 -0.2)">
       <use xlink:href="#DejaVuSans-30"/>
      </g>
     </g>
    </g>
    <g id="xtick_2">
     <g id="line2d_2">
      <g>
       <use style="stroke:#000000;stroke-width:0.8;" x="131.41857" xlink:href="#mc754c8430a" y="183.496"/>
      </g>
     </g>
     <g id="text_2">
      <!-- 20 -->
      <defs>
       <path d="M 19.1875 8.296875 
L 53.609375 8.296875 
L 53.609375 0 
L 7.328125 0 
L 7.328125 8.296875 
Q 12.9375 14.109375 22.625 23.890625 
Q 32.328125 33.6875 34.8125 36.53125 
Q 39.546875 41.84375 41.421875 45.53125 
Q 43.3125 49.21875 43.3125 52.78125 
Q 43.3125 58.59375 39.234375 62.25 
Q 35.15625 65.921875 28.609375 65.921875 
Q 23.96875 65.921875 18.8125 64.3125 
Q 13.671875 62.703125 7.8125 59.421875 
L 7.8125 69.390625 
Q 13.765625 71.78125 18.9375 73 
Q 24.125 74.21875 28.421875 74.21875 
Q 39.75 74.21875 46.484375 68.546875 
Q 53.21875 62.890625 53.21875 53.421875 
Q 53.21875 48.921875 51.53125 44.890625 
Q 49.859375 40.875 45.40625 35.40625 
Q 44.1875 33.984375 37.640625 27.21875 
Q 31.109375 20.453125 19.1875 8.296875 
z
" id="DejaVuSans-32"/>
      </defs>
      <g transform="translate(118.69357 205.692875)scale(0.2 -0.2)">
       <use xlink:href="#DejaVuSans-32"/>
       <use x="63.623047" xlink:href="#DejaVuSans-30"/>
      </g>
     </g>
    </g>
    <g id="xtick_3">
     <g id="line2d_3">
      <g>
       <use style="stroke:#000000;stroke-width:0.8;" x="215.24055" xlink:href="#mc754c8430a" y="183.496"/>
      </g>
     </g>
     <g id="text_3">
      <!-- 40 -->
      <defs>
       <path d="M 37.796875 64.3125 
L 12.890625 25.390625 
L 37.796875 25.390625 
z
M 35.203125 72.90625 
L 47.609375 72.90625 
L 47.609375 25.390625 
L 58.015625 25.390625 
L 58.015625 17.1875 
L 47.609375 17.1875 
L 47.609375 0 
L 37.796875 0 
L 37.796875 17.1875 
L 4.890625 17.1875 
L 4.890625 26.703125 
z
" id="DejaVuSans-34"/>
      </defs>
      <g transform="translate(202.51555 205.692875)scale(0.2 -0.2)">
       <use xlink:href="#DejaVuSans-34"/>
       <use x="63.623047" xlink:href="#DejaVuSans-30"/>
      </g>
     </g>
    </g>
    <g id="text_4">
     <!-- leaf area index -->
     <defs>
      <path d="M 9.421875 75.984375 
L 18.40625 75.984375 
L 18.40625 0 
L 9.421875 0 
z
" id="DejaVuSans-6c"/>
      <path d="M 56.203125 29.59375 
L 56.203125 25.203125 
L 14.890625 25.203125 
Q 15.484375 15.921875 20.484375 11.0625 
Q 25.484375 6.203125 34.421875 6.203125 
Q 39.59375 6.203125 44.453125 7.46875 
Q 49.3125 8.734375 54.109375 11.28125 
L 54.109375 2.78125 
Q 49.265625 0.734375 44.1875 -0.34375 
Q 39.109375 -1.421875 33.890625 -1.421875 
Q 20.796875 -1.421875 13.15625 6.1875 
Q 5.515625 13.8125 5.515625 26.8125 
Q 5.515625 40.234375 12.765625 48.109375 
Q 20.015625 56 32.328125 56 
Q 43.359375 56 49.78125 48.890625 
Q 56.203125 41.796875 56.203125 29.59375 
z
M 47.21875 32.234375 
Q 47.125 39.59375 43.09375 43.984375 
Q 39.0625 48.390625 32.421875 48.390625 
Q 24.90625 48.390625 20.390625 44.140625 
Q 15.875 39.890625 15.1875 32.171875 
z
" id="DejaVuSans-65"/>
      <path d="M 34.28125 27.484375 
Q 23.390625 27.484375 19.1875 25 
Q 14.984375 22.515625 14.984375 16.5 
Q 14.984375 11.71875 18.140625 8.90625 
Q 21.296875 6.109375 26.703125 6.109375 
Q 34.1875 6.109375 38.703125 11.40625 
Q 43.21875 16.703125 43.21875 25.484375 
L 43.21875 27.484375 
z
M 52.203125 31.203125 
L 52.203125 0 
L 43.21875 0 
L 43.21875 8.296875 
Q 40.140625 3.328125 35.546875 0.953125 
Q 30.953125 -1.421875 24.3125 -1.421875 
Q 15.921875 -1.421875 10.953125 3.296875 
Q 6 8.015625 6 15.921875 
Q 6 25.140625 12.171875 29.828125 
Q 18.359375 34.515625 30.609375 34.515625 
L 43.21875 34.515625 
L 43.21875 35.40625 
Q 43.21875 41.609375 39.140625 45 
Q 35.0625 48.390625 27.6875 48.390625 
Q 23 48.390625 18.546875 47.265625 
Q 14.109375 46.140625 10.015625 43.890625 
L 10.015625 52.203125 
Q 14.9375 54.109375 19.578125 55.046875 
Q 24.21875 56 28.609375 56 
Q 40.484375 56 46.34375 49.84375 
Q 52.203125 43.703125 52.203125 31.203125 
z
" id="DejaVuSans-61"/>
      <path d="M 37.109375 75.984375 
L 37.109375 68.5 
L 28.515625 68.5 
Q 23.6875 68.5 21.796875 66.546875 
Q 19.921875 64.59375 19.921875 59.515625 
L 19.921875 54.6875 
L 34.71875 54.6875 
L 34.71875 47.703125 
L 19.921875 47.703125 
L 19.921875 0 
L 10.890625 0 
L 10.890625 47.703125 
L 2.296875 47.703125 
L 2.296875 54.6875 
L 10.890625 54.6875 
L 10.890625 58.5 
Q 10.890625 67.625 15.140625 71.796875 
Q 19.390625 75.984375 28.609375 75.984375 
z
" id="DejaVuSans-66"/>
      <path id="DejaVuSans-20"/>
      <path d="M 41.109375 46.296875 
Q 39.59375 47.171875 37.8125 47.578125 
Q 36.03125 48 33.890625 48 
Q 26.265625 48 22.1875 43.046875 
Q 18.109375 38.09375 18.109375 28.8125 
L 18.109375 0 
L 9.078125 0 
L 9.078125 54.6875 
L 18.109375 54.6875 
L 18.109375 46.1875 
Q 20.953125 51.171875 25.484375 53.578125 
Q 30.03125 56 36.53125 56 
Q 37.453125 56 38.578125 55.875 
Q 39.703125 55.765625 41.0625 55.515625 
z
" id="DejaVuSans-72"/>
      <path d="M 9.421875 54.6875 
L 18.40625 54.6875 
L 18.40625 0 
L 9.421875 0 
z
M 9.421875 75.984375 
L 18.40625 75.984375 
L 18.40625 64.59375 
L 9.421875 64.59375 
z
" id="DejaVuSans-69"/>
      <path d="M 54.890625 33.015625 
L 54.890625 0 
L 45.90625 0 
L 45.90625 32.71875 
Q 45.90625 40.484375 42.875 44.328125 
Q 39.84375 48.1875 33.796875 48.1875 
Q 26.515625 48.1875 22.3125 43.546875 
Q 18.109375 38.921875 18.109375 30.90625 
L 18.109375 0 
L 9.078125 0 
L 9.078125 54.6875 
L 18.109375 54.6875 
L 18.109375 46.1875 
Q 21.34375 51.125 25.703125 53.5625 
Q 30.078125 56 35.796875 56 
Q 45.21875 56 50.046875 50.171875 
Q 54.890625 44.34375 54.890625 33.015625 
z
" id="DejaVuSans-6e"/>
      <path d="M 45.40625 46.390625 
L 45.40625 75.984375 
L 54.390625 75.984375 
L 54.390625 0 
L 45.40625 0 
L 45.40625 8.203125 
Q 42.578125 3.328125 38.25 0.953125 
Q 33.9375 -1.421875 27.875 -1.421875 
Q 17.96875 -1.421875 11.734375 6.484375 
Q 5.515625 14.40625 5.515625 27.296875 
Q 5.515625 40.1875 11.734375 48.09375 
Q 17.96875 56 27.875 56 
Q 33.9375 56 38.25 53.625 
Q 42.578125 51.265625 45.40625 46.390625 
z
M 14.796875 27.296875 
Q 14.796875 17.390625 18.875 11.75 
Q 22.953125 6.109375 30.078125 6.109375 
Q 37.203125 6.109375 41.296875 11.75 
Q 45.40625 17.390625 45.40625 27.296875 
Q 45.40625 37.203125 41.296875 42.84375 
Q 37.203125 48.484375 30.078125 48.484375 
Q 22.953125 48.484375 18.875 42.84375 
Q 14.796875 37.203125 14.796875 27.296875 
z
" id="DejaVuSans-64"/>
      <path d="M 54.890625 54.6875 
L 35.109375 28.078125 
L 55.90625 0 
L 45.3125 0 
L 29.390625 21.484375 
L 13.484375 0 
L 2.875 0 
L 24.125 28.609375 
L 4.6875 54.6875 
L 15.28125 54.6875 
L 29.78125 35.203125 
L 44.28125 54.6875 
z
" id="DejaVuSans-78"/>
     </defs>
     <g transform="translate(50.265625 232.848344)scale(0.25 -0.25)">
      <use xlink:href="#DejaVuSans-6c"/>
      <use x="27.783203" xlink:href="#DejaVuSans-65"/>
      <use x="89.306641" xlink:href="#DejaVuSans-61"/>
      <use x="150.585938" xlink:href="#DejaVuSans-66"/>
      <use x="185.791016" xlink:href="#DejaVuSans-20"/>
      <use x="217.578125" xlink:href="#DejaVuSans-61"/>
      <use x="278.857422" xlink:href="#DejaVuSans-72"/>
      <use x="319.939453" xlink:href="#DejaVuSans-65"/>
      <use x="381.462891" xlink:href="#DejaVuSans-61"/>
      <use x="442.742188" xlink:href="#DejaVuSans-20"/>
      <use x="474.529297" xlink:href="#DejaVuSans-69"/>
      <use x="502.3125" xlink:href="#DejaVuSans-6e"/>
      <use x="565.691406" xlink:href="#DejaVuSans-64"/>
      <use x="629.167969" xlink:href="#DejaVuSans-65"/>
      <use x="690.675781" xlink:href="#DejaVuSans-78"/>
     </g>
     <!-- mean -->
     <defs>
      <path d="M 52 44.1875 
Q 55.375 50.25 60.0625 53.125 
Q 64.75 56 71.09375 56 
Q 79.640625 56 84.28125 50.015625 
Q 88.921875 44.046875 88.921875 33.015625 
L 88.921875 0 
L 79.890625 0 
L 79.890625 32.71875 
Q 79.890625 40.578125 77.09375 44.375 
Q 74.3125 48.1875 68.609375 48.1875 
Q 61.625 48.1875 57.5625 43.546875 
Q 53.515625 38.921875 53.515625 30.90625 
L 53.515625 0 
L 44.484375 0 
L 44.484375 32.71875 
Q 44.484375 40.625 41.703125 44.40625 
Q 38.921875 48.1875 33.109375 48.1875 
Q 26.21875 48.1875 22.15625 43.53125 
Q 18.109375 38.875 18.109375 30.90625 
L 18.109375 0 
L 9.078125 0 
L 9.078125 54.6875 
L 18.109375 54.6875 
L 18.109375 46.1875 
Q 21.1875 51.21875 25.484375 53.609375 
Q 29.78125 56 35.6875 56 
Q 41.65625 56 45.828125 52.96875 
Q 50 49.953125 52 44.1875 
z
" id="DejaVuSans-6d"/>
     </defs>
     <g transform="translate(108.550781 260.842875)scale(0.25 -0.25)">
      <use xlink:href="#DejaVuSans-6d"/>
      <use x="97.412109" xlink:href="#DejaVuSans-65"/>
      <use x="158.935547" xlink:href="#DejaVuSans-61"/>
      <use x="220.214844" xlink:href="#DejaVuSans-6e"/>
     </g>
    </g>
   </g>
   <g id="line2d_4">
    <path clip-path="url(#p8af6b194ef)" d="M 47.596591 161.969289 
L 51.531424 161.358324 
L 55.466257 162.106333 
L 59.40109 163.246248 
L 63.335923 163.68198 
L 67.270756 162.586448 
L 71.205589 159.395625 
L 75.140422 153.614605 
L 79.075255 144.75768 
L 83.010088 132.523803 
L 86.944921 117.066392 
L 90.879754 99.153178 
L 94.814587 80.131756 
L 98.74942 61.773986 
L 102.684253 46.09515 
L 106.619086 35.127675 
L 110.553919 30.562545 
L 114.488752 33.285444 
L 118.423585 43.014663 
L 122.358418 58.27731 
L 126.293251 76.786388 
L 130.228084 96.056383 
L 134.162917 113.98813 
L 138.09775 129.211022 
L 142.032583 141.134809 
L 145.967417 149.814267 
L 149.90225 155.750965 
L 153.837083 159.673643 
L 157.771916 162.304097 
L 161.706749 164.172568 
L 165.641582 165.567312 
L 169.576415 166.615354 
L 173.511248 167.395823 
L 177.446081 167.991308 
L 181.380914 168.46386 
L 185.315747 168.812541 
L 189.25058 168.976342 
L 193.185413 168.893353 
L 197.120246 168.563438 
L 201.055079 168.05372 
L 204.989912 167.448568 
L 208.924745 166.807194 
L 212.859578 166.175319 
L 216.794411 165.625801 
L 220.729244 165.270854 
L 224.664077 165.229837 
L 228.59891 165.585214 
L 232.533743 166.3552 
L 236.468576 167.482705 
L 240.403409 168.837743 
" style="fill:none;stroke:#e69f00;stroke-linecap:square;stroke-width:2;"/>
   </g>
   <g id="line2d_5">
    <path clip-path="url(#p8af6b194ef)" d="M 47.596591 147.317047 
L 51.531424 140.711302 
L 55.466257 134.751592 
L 59.40109 129.628234 
L 63.335923 125.204587 
L 67.270756 121.123782 
L 71.205589 116.994093 
L 75.140422 112.558825 
L 79.075255 107.78177 
L 83.010088 102.837269 
L 86.944921 98.043086 
L 90.879754 93.785967 
L 94.814587 90.466134 
L 98.74942 88.455701 
L 102.684253 88.054604 
L 106.619086 89.441022 
L 110.553919 92.63227 
L 114.488752 97.47517 
L 118.423585 103.66966 
L 122.358418 110.812989 
L 126.293251 118.449791 
L 130.228084 126.122798 
L 134.162917 133.424488 
L 138.09775 140.043728 
L 142.032583 145.79288 
L 145.967417 150.604112 
L 149.90225 154.499587 
L 153.837083 157.554419 
L 157.771916 159.870553 
L 161.706749 161.565857 
L 165.641582 162.769292 
L 169.576415 163.611064 
L 173.511248 164.20517 
L 177.446081 164.631377 
L 181.380914 164.92636 
L 185.315747 165.088789 
L 189.25058 165.095775 
L 193.185413 164.923752 
L 197.120246 164.566892 
L 201.055079 164.048587 
L 204.989912 163.424323 
L 208.924745 162.77665 
L 212.859578 162.204585 
L 216.794411 161.810027 
L 220.729244 161.682771 
L 224.664077 161.885236 
L 228.59891 162.439538 
L 232.533743 163.321613 
L 236.468576 164.46646 
L 240.403409 165.784044 
" style="fill:none;stroke:#424243;stroke-linecap:square;stroke-width:2;"/>
   </g>
   <g id="patch_3">
    <path d="M 37.95625 183.496 
L 250.04375 183.496 
" style="fill:none;stroke:#000000;stroke-linecap:square;stroke-linejoin:miter;stroke-width:0.8;"/>
   </g>
  </g>
 </g>
 <defs>
  <clipPath id="p8af6b194ef">
   <rect height="160.216" width="212.0875" x="37.95625" y="23.28"/>
  </clipPath>
 </defs>
</svg>
