<?xml version="1.0" encoding="utf-8" standalone="no"?>
<!DOCTYPE svg PUBLIC "-//W3C//DTD SVG 1.1//EN"
  "http://www.w3.org/Graphics/SVG/1.1/DTD/svg11.dtd">
<!-- Created with matplotlib (http://matplotlib.org/) -->
<svg height="288pt" version="1.1" viewBox="0 0 288 288" width="288pt" xmlns="http://www.w3.org/2000/svg" xmlns:xlink="http://www.w3.org/1999/xlink">
 <defs>
  <style type="text/css">
*{stroke-linecap:butt;stroke-linejoin:round;}
  </style>
 </defs>
 <g id="figure_1">
  <g id="patch_1">
   <path d="M 0 288 
L 288 288 
L 288 0 
L 0 0 
z
" style="fill:#ffffff;"/>
  </g>
  <g id="axes_1">
   <g id="patch_2">
    <path d="M 33.45515 183.496 
L 264.72 183.496 
L 264.72 23.28 
L 33.45515 23.28 
z
" style="fill:#ffffff;"/>
   </g>
   <g id="PolyCollection_1">
    <defs>
     <path d="M 43.967189 -111.786545 
L 43.967189 -112.520914 
L 48.257817 -112.789966 
L 52.548445 -113.09145 
L 56.839073 -113.47145 
L 61.129701 -114.017033 
L 65.420329 -114.866708 
L 69.710957 -116.271869 
L 74.001585 -118.736191 
L 78.292213 -123.20556 
L 82.582841 -131.163768 
L 86.873469 -144.336922 
L 91.164097 -163.750225 
L 95.454725 -188.413492 
L 99.745353 -214.68395 
L 104.035981 -237.340782 
L 108.326609 -252.050866 
L 112.617237 -257.437455 
L 116.907865 -255.183124 
L 121.198493 -248.3683 
L 125.489121 -239.604951 
L 129.779749 -230.250019 
L 134.070377 -220.754477 
L 138.361005 -211.354521 
L 142.651633 -202.418303 
L 146.942261 -194.399614 
L 151.232889 -187.730753 
L 155.523517 -182.816443 
L 159.814145 -179.991263 
L 164.104773 -179.338376 
L 168.395401 -180.518416 
L 172.686029 -182.803368 
L 176.976657 -185.28887 
L 181.267285 -187.099846 
L 185.557913 -187.498938 
L 189.848541 -185.973647 
L 194.139169 -182.385085 
L 198.429797 -177.114651 
L 202.720425 -171.025298 
L 207.011053 -165.128861 
L 211.301681 -160.104231 
L 215.592309 -155.99181 
L 219.882937 -152.27457 
L 224.173565 -148.260199 
L 228.464193 -143.499721 
L 232.754821 -138.015611 
L 237.045449 -132.256825 
L 241.336077 -126.848741 
L 245.626705 -122.304191 
L 249.917333 -118.852135 
L 254.207961 -116.436074 
L 254.207961 -111.786545 
L 254.207961 -111.786545 
L 249.917333 -111.786545 
L 245.626705 -111.786545 
L 241.336077 -111.786545 
L 237.045449 -111.786545 
L 232.754821 -111.786545 
L 228.464193 -111.786545 
L 224.173565 -111.786545 
L 219.882937 -111.786545 
L 215.592309 -111.786545 
L 211.301681 -111.786545 
L 207.011053 -111.786545 
L 202.720425 -111.786545 
L 198.429797 -111.786545 
L 194.139169 -111.786545 
L 189.848541 -111.786545 
L 185.557913 -111.786545 
L 181.267285 -111.786545 
L 176.976657 -111.786545 
L 172.686029 -111.786545 
L 168.395401 -111.786545 
L 164.104773 -111.786545 
L 159.814145 -111.786545 
L 155.523517 -111.786545 
L 151.232889 -111.786545 
L 146.942261 -111.786545 
L 142.651633 -111.786545 
L 138.361005 -111.786545 
L 134.070377 -111.786545 
L 129.779749 -111.786545 
L 125.489121 -111.786545 
L 121.198493 -111.786545 
L 116.907865 -111.786545 
L 112.617237 -111.786545 
L 108.326609 -111.786545 
L 104.035981 -111.786545 
L 99.745353 -111.786545 
L 95.454725 -111.786545 
L 91.164097 -111.786545 
L 86.873469 -111.786545 
L 82.582841 -111.786545 
L 78.292213 -111.786545 
L 74.001585 -111.786545 
L 69.710957 -111.786545 
L 65.420329 -111.786545 
L 61.129701 -111.786545 
L 56.839073 -111.786545 
L 52.548445 -111.786545 
L 48.257817 -111.786545 
L 43.967189 -111.786545 
z
" id="mca4d4dc469" style="stroke:#e69f00;stroke-opacity:0.3;"/>
    </defs>
    <g clip-path="url(#p8d1d7f6e53)">
     <use style="fill:#e69f00;fill-opacity:0.3;stroke:#e69f00;stroke-opacity:0.3;" x="0" xlink:href="#mca4d4dc469" y="288"/>
    </g>
   </g>
   <g id="PolyCollection_2">
    <defs>
     <path d="M 43.967189 -111.786545 
L 43.967189 -125.589643 
L 48.257817 -127.936368 
L 52.548445 -130.592164 
L 56.839073 -133.589296 
L 61.129701 -136.942019 
L 65.420329 -140.650152 
L 69.710957 -144.725942 
L 74.001585 -149.239089 
L 78.292213 -154.351594 
L 82.582841 -160.299443 
L 86.873469 -167.291367 
L 91.164097 -175.340357 
L 95.454725 -184.100051 
L 99.745353 -192.806414 
L 104.035981 -200.394684 
L 108.326609 -205.777766 
L 112.617237 -208.181466 
L 116.907865 -207.392317 
L 121.198493 -203.813035 
L 125.489121 -198.313954 
L 129.779749 -191.958785 
L 134.070377 -185.72184 
L 138.361005 -180.292853 
L 142.651633 -176.010629 
L 146.942261 -172.911666 
L 151.232889 -170.845602 
L 155.523517 -169.600162 
L 159.814145 -168.990159 
L 164.104773 -168.890025 
L 168.395401 -169.217196 
L 172.686029 -169.892798 
L 176.976657 -170.809365 
L 181.267285 -171.823837 
L 185.557913 -172.776111 
L 189.848541 -173.518961 
L 194.139169 -173.940742 
L 198.429797 -173.968969 
L 202.720425 -173.556129 
L 207.011053 -172.660742 
L 211.301681 -171.23913 
L 215.592309 -169.254468 
L 219.882937 -166.696149 
L 224.173565 -163.594829 
L 228.464193 -160.022558 
L 232.754821 -156.079016 
L 237.045449 -151.873807 
L 241.336077 -147.514313 
L 245.626705 -143.101376 
L 249.917333 -138.728921 
L 254.207961 -134.48381 
L 254.207961 -111.786545 
L 254.207961 -111.786545 
L 249.917333 -111.786545 
L 245.626705 -111.786545 
L 241.336077 -111.786545 
L 237.045449 -111.786545 
L 232.754821 -111.786545 
L 228.464193 -111.786545 
L 224.173565 -111.786545 
L 219.882937 -111.786545 
L 215.592309 -111.786545 
L 211.301681 -111.786545 
L 207.011053 -111.786545 
L 202.720425 -111.786545 
L 198.429797 -111.786545 
L 194.139169 -111.786545 
L 189.848541 -111.786545 
L 185.557913 -111.786545 
L 181.267285 -111.786545 
L 176.976657 -111.786545 
L 172.686029 -111.786545 
L 168.395401 -111.786545 
L 164.104773 -111.786545 
L 159.814145 -111.786545 
L 155.523517 -111.786545 
L 151.232889 -111.786545 
L 146.942261 -111.786545 
L 142.651633 -111.786545 
L 138.361005 -111.786545 
L 134.070377 -111.786545 
L 129.779749 -111.786545 
L 125.489121 -111.786545 
L 121.198493 -111.786545 
L 116.907865 -111.786545 
L 112.617237 -111.786545 
L 108.326609 -111.786545 
L 104.035981 -111.786545 
L 99.745353 -111.786545 
L 95.454725 -111.786545 
L 91.164097 -111.786545 
L 86.873469 -111.786545 
L 82.582841 -111.786545 
L 78.292213 -111.786545 
L 74.001585 -111.786545 
L 69.710957 -111.786545 
L 65.420329 -111.786545 
L 61.129701 -111.786545 
L 56.839073 -111.786545 
L 52.548445 -111.786545 
L 48.257817 -111.786545 
L 43.967189 -111.786545 
z
" id="m13cca726a1" style="stroke:#424243;stroke-opacity:0.3;"/>
    </defs>
    <g clip-path="url(#p8d1d7f6e53)">
     <use style="fill:#424243;fill-opacity:0.3;stroke:#424243;stroke-opacity:0.3;" x="0" xlink:href="#m13cca726a1" y="288"/>
    </g>
   </g>
   <g id="matplotlib.axis_1">
    <g id="xtick_1">
     <g id="line2d_1">
      <defs>
       <path d="M 0 0 
L 0 3.5 
" id="mfd1d0cd788" style="stroke:#000000;stroke-width:0.8;"/>
      </defs>
      <g>
       <use style="stroke:#000000;stroke-width:0.8;" x="46.318854" xlink:href="#mfd1d0cd788" y="183.496"/>
      </g>
     </g>
     <g id="text_1">
      <!-- 0.25 -->
      <defs>
       <path d="M 31.78125 66.40625 
Q 24.171875 66.40625 20.328125 58.90625 
Q 16.5 51.421875 16.5 36.375 
Q 16.5 21.390625 20.328125 13.890625 
Q 24.171875 6.390625 31.78125 6.390625 
Q 39.453125 6.390625 43.28125 13.890625 
Q 47.125 21.390625 47.125 36.375 
Q 47.125 51.421875 43.28125 58.90625 
Q 39.453125 66.40625 31.78125 66.40625 
z
M 31.78125 74.21875 
Q 44.046875 74.21875 50.515625 64.515625 
Q 56.984375 54.828125 56.984375 36.375 
Q 56.984375 17.96875 50.515625 8.265625 
Q 44.046875 -1.421875 31.78125 -1.421875 
Q 19.53125 -1.421875 13.0625 8.265625 
Q 6.59375 17.96875 6.59375 36.375 
Q 6.59375 54.828125 13.0625 64.515625 
Q 19.53125 74.21875 31.78125 74.21875 
z
" id="DejaVuSans-30"/>
       <path d="M 10.6875 12.40625 
L 21 12.40625 
L 21 0 
L 10.6875 0 
z
" id="DejaVuSans-2e"/>
       <path d="M 19.1875 8.296875 
L 53.609375 8.296875 
L 53.609375 0 
L 7.328125 0 
L 7.328125 8.296875 
Q 12.9375 14.109375 22.625 23.890625 
Q 32.328125 33.6875 34.8125 36.53125 
Q 39.546875 41.84375 41.421875 45.53125 
Q 43.3125 49.21875 43.3125 52.78125 
Q 43.3125 58.59375 39.234375 62.25 
Q 35.15625 65.921875 28.609375 65.921875 
Q 23.96875 65.921875 18.8125 64.3125 
Q 13.671875 62.703125 7.8125 59.421875 
L 7.8125 69.390625 
Q 13.765625 71.78125 18.9375 73 
Q 24.125 74.21875 28.421875 74.21875 
Q 39.75 74.21875 46.484375 68.546875 
Q 53.21875 62.890625 53.21875 53.421875 
Q 53.21875 48.921875 51.53125 44.890625 
Q 49.859375 40.875 45.40625 35.40625 
Q 44.1875 33.984375 37.640625 27.21875 
Q 31.109375 20.453125 19.1875 8.296875 
z
" id="DejaVuSans-32"/>
       <path d="M 10.796875 72.90625 
L 49.515625 72.90625 
L 49.515625 64.59375 
L 19.828125 64.59375 
L 19.828125 46.734375 
Q 21.96875 47.46875 24.109375 47.828125 
Q 26.265625 48.1875 28.421875 48.1875 
Q 40.625 48.1875 47.75 41.5 
Q 54.890625 34.8125 54.890625 23.390625 
Q 54.890625 11.625 47.5625 5.09375 
Q 40.234375 -1.421875 26.90625 -1.421875 
Q 22.3125 -1.421875 17.546875 -0.640625 
Q 12.796875 0.140625 7.71875 1.703125 
L 7.71875 11.625 
Q 12.109375 9.234375 16.796875 8.0625 
Q 21.484375 6.890625 26.703125 6.890625 
Q 35.15625 6.890625 40.078125 11.328125 
Q 45.015625 15.765625 45.015625 23.390625 
Q 45.015625 31 40.078125 35.4375 
Q 35.15625 39.890625 26.703125 39.890625 
Q 22.75 39.890625 18.8125 39.015625 
Q 14.890625 38.140625 10.796875 36.28125 
z
" id="DejaVuSans-35"/>
      </defs>
      <g transform="translate(24.053229 205.692875)scale(0.2 -0.2)">
       <use xlink:href="#DejaVuSans-30"/>
       <use x="63.623047" xlink:href="#DejaVuSans-2e"/>
       <use x="95.410156" xlink:href="#DejaVuSans-32"/>
       <use x="159.033203" xlink:href="#DejaVuSans-35"/>
      </g>
     </g>
    </g>
    <g id="xtick_2">
     <g id="line2d_2">
      <g>
       <use style="stroke:#000000;stroke-width:0.8;" x="123.193237" xlink:href="#mfd1d0cd788" y="183.496"/>
      </g>
     </g>
     <g id="text_2">
      <!-- 0.50 -->
      <g transform="translate(100.927612 205.692875)scale(0.2 -0.2)">
       <use xlink:href="#DejaVuSans-30"/>
       <use x="63.623047" xlink:href="#DejaVuSans-2e"/>
       <use x="95.410156" xlink:href="#DejaVuSans-35"/>
       <use x="159.033203" xlink:href="#DejaVuSans-30"/>
      </g>
     </g>
    </g>
    <g id="xtick_3">
     <g id="line2d_3">
      <g>
       <use style="stroke:#000000;stroke-width:0.8;" x="200.067619" xlink:href="#mfd1d0cd788" y="183.496"/>
      </g>
     </g>
     <g id="text_3">
      <!-- 0.75 -->
      <defs>
       <path d="M 8.203125 72.90625 
L 55.078125 72.90625 
L 55.078125 68.703125 
L 28.609375 0 
L 18.3125 0 
L 43.21875 64.59375 
L 8.203125 64.59375 
z
" id="DejaVuSans-37"/>
      </defs>
      <g transform="translate(177.801994 205.692875)scale(0.2 -0.2)">
       <use xlink:href="#DejaVuSans-30"/>
       <use x="63.623047" xlink:href="#DejaVuSans-2e"/>
       <use x="95.410156" xlink:href="#DejaVuSans-37"/>
       <use x="159.033203" xlink:href="#DejaVuSans-35"/>
      </g>
     </g>
    </g>
    <g id="text_4">
     <!-- cloud cover -->
     <defs>
      <path d="M 48.78125 52.59375 
L 48.78125 44.1875 
Q 44.96875 46.296875 41.140625 47.34375 
Q 37.3125 48.390625 33.40625 48.390625 
Q 24.65625 48.390625 19.8125 42.84375 
Q 14.984375 37.3125 14.984375 27.296875 
Q 14.984375 17.28125 19.8125 11.734375 
Q 24.65625 6.203125 33.40625 6.203125 
Q 37.3125 6.203125 41.140625 7.25 
Q 44.96875 8.296875 48.78125 10.40625 
L 48.78125 2.09375 
Q 45.015625 0.34375 40.984375 -0.53125 
Q 36.96875 -1.421875 32.421875 -1.421875 
Q 20.0625 -1.421875 12.78125 6.34375 
Q 5.515625 14.109375 5.515625 27.296875 
Q 5.515625 40.671875 12.859375 48.328125 
Q 20.21875 56 33.015625 56 
Q 37.15625 56 41.109375 55.140625 
Q 45.0625 54.296875 48.78125 52.59375 
z
" id="DejaVuSans-63"/>
      <path d="M 9.421875 75.984375 
L 18.40625 75.984375 
L 18.40625 0 
L 9.421875 0 
z
" id="DejaVuSans-6c"/>
      <path d="M 30.609375 48.390625 
Q 23.390625 48.390625 19.1875 42.75 
Q 14.984375 37.109375 14.984375 27.296875 
Q 14.984375 17.484375 19.15625 11.84375 
Q 23.34375 6.203125 30.609375 6.203125 
Q 37.796875 6.203125 41.984375 11.859375 
Q 46.1875 17.53125 46.1875 27.296875 
Q 46.1875 37.015625 41.984375 42.703125 
Q 37.796875 48.390625 30.609375 48.390625 
z
M 30.609375 56 
Q 42.328125 56 49.015625 48.375 
Q 55.71875 40.765625 55.71875 27.296875 
Q 55.71875 13.875 49.015625 6.21875 
Q 42.328125 -1.421875 30.609375 -1.421875 
Q 18.84375 -1.421875 12.171875 6.21875 
Q 5.515625 13.875 5.515625 27.296875 
Q 5.515625 40.765625 12.171875 48.375 
Q 18.84375 56 30.609375 56 
z
" id="DejaVuSans-6f"/>
      <path d="M 8.5 21.578125 
L 8.5 54.6875 
L 17.484375 54.6875 
L 17.484375 21.921875 
Q 17.484375 14.15625 20.5 10.265625 
Q 23.53125 6.390625 29.59375 6.390625 
Q 36.859375 6.390625 41.078125 11.03125 
Q 45.3125 15.671875 45.3125 23.6875 
L 45.3125 54.6875 
L 54.296875 54.6875 
L 54.296875 0 
L 45.3125 0 
L 45.3125 8.40625 
Q 42.046875 3.421875 37.71875 1 
Q 33.40625 -1.421875 27.6875 -1.421875 
Q 18.265625 -1.421875 13.375 4.4375 
Q 8.5 10.296875 8.5 21.578125 
z
M 31.109375 56 
z
" id="DejaVuSans-75"/>
      <path d="M 45.40625 46.390625 
L 45.40625 75.984375 
L 54.390625 75.984375 
L 54.390625 0 
L 45.40625 0 
L 45.40625 8.203125 
Q 42.578125 3.328125 38.25 0.953125 
Q 33.9375 -1.421875 27.875 -1.421875 
Q 17.96875 -1.421875 11.734375 6.484375 
Q 5.515625 14.40625 5.515625 27.296875 
Q 5.515625 40.1875 11.734375 48.09375 
Q 17.96875 56 27.875 56 
Q 33.9375 56 38.25 53.625 
Q 42.578125 51.265625 45.40625 46.390625 
z
M 14.796875 27.296875 
Q 14.796875 17.390625 18.875 11.75 
Q 22.953125 6.109375 30.078125 6.109375 
Q 37.203125 6.109375 41.296875 11.75 
Q 45.40625 17.390625 45.40625 27.296875 
Q 45.40625 37.203125 41.296875 42.84375 
Q 37.203125 48.484375 30.078125 48.484375 
Q 22.953125 48.484375 18.875 42.84375 
Q 14.796875 37.203125 14.796875 27.296875 
z
" id="DejaVuSans-64"/>
      <path id="DejaVuSans-20"/>
      <path d="M 2.984375 54.6875 
L 12.5 54.6875 
L 29.59375 8.796875 
L 46.6875 54.6875 
L 56.203125 54.6875 
L 35.6875 0 
L 23.484375 0 
z
" id="DejaVuSans-76"/>
      <path d="M 56.203125 29.59375 
L 56.203125 25.203125 
L 14.890625 25.203125 
Q 15.484375 15.921875 20.484375 11.0625 
Q 25.484375 6.203125 34.421875 6.203125 
Q 39.59375 6.203125 44.453125 7.46875 
Q 49.3125 8.734375 54.109375 11.28125 
L 54.109375 2.78125 
Q 49.265625 0.734375 44.1875 -0.34375 
Q 39.109375 -1.421875 33.890625 -1.421875 
Q 20.796875 -1.421875 13.15625 6.1875 
Q 5.515625 13.8125 5.515625 26.8125 
Q 5.515625 40.234375 12.765625 48.109375 
Q 20.015625 56 32.328125 56 
Q 43.359375 56 49.78125 48.890625 
Q 56.203125 41.796875 56.203125 29.59375 
z
M 47.21875 32.234375 
Q 47.125 39.59375 43.09375 43.984375 
Q 39.0625 48.390625 32.421875 48.390625 
Q 24.90625 48.390625 20.390625 44.140625 
Q 15.875 39.890625 15.1875 32.171875 
z
" id="DejaVuSans-65"/>
      <path d="M 41.109375 46.296875 
Q 39.59375 47.171875 37.8125 47.578125 
Q 36.03125 48 33.890625 48 
Q 26.265625 48 22.1875 43.046875 
Q 18.109375 38.09375 18.109375 28.8125 
L 18.109375 0 
L 9.078125 0 
L 9.078125 54.6875 
L 18.109375 54.6875 
L 18.109375 46.1875 
Q 20.953125 51.171875 25.484375 53.578125 
Q 30.03125 56 36.53125 56 
Q 37.453125 56 38.578125 55.875 
Q 39.703125 55.765625 41.0625 55.515625 
z
" id="DejaVuSans-72"/>
     </defs>
     <g transform="translate(76.513356 232.848344)scale(0.25 -0.25)">
      <use xlink:href="#DejaVuSans-63"/>
      <use x="54.980469" xlink:href="#DejaVuSans-6c"/>
      <use x="82.763672" xlink:href="#DejaVuSans-6f"/>
      <use x="143.945312" xlink:href="#DejaVuSans-75"/>
      <use x="207.324219" xlink:href="#DejaVuSans-64"/>
      <use x="270.800781" xlink:href="#DejaVuSans-20"/>
      <use x="302.587891" xlink:href="#DejaVuSans-63"/>
      <use x="357.568359" xlink:href="#DejaVuSans-6f"/>
      <use x="418.75" xlink:href="#DejaVuSans-76"/>
      <use x="477.929688" xlink:href="#DejaVuSans-65"/>
      <use x="539.453125" xlink:href="#DejaVuSans-72"/>
     </g>
     <!-- mean -->
     <defs>
      <path d="M 52 44.1875 
Q 55.375 50.25 60.0625 53.125 
Q 64.75 56 71.09375 56 
Q 79.640625 56 84.28125 50.015625 
Q 88.921875 44.046875 88.921875 33.015625 
L 88.921875 0 
L 79.890625 0 
L 79.890625 32.71875 
Q 79.890625 40.578125 77.09375 44.375 
Q 74.3125 48.1875 68.609375 48.1875 
Q 61.625 48.1875 57.5625 43.546875 
Q 53.515625 38.921875 53.515625 30.90625 
L 53.515625 0 
L 44.484375 0 
L 44.484375 32.71875 
Q 44.484375 40.625 41.703125 44.40625 
Q 38.921875 48.1875 33.109375 48.1875 
Q 26.21875 48.1875 22.15625 43.53125 
Q 18.109375 38.875 18.109375 30.90625 
L 18.109375 0 
L 9.078125 0 
L 9.078125 54.6875 
L 18.109375 54.6875 
L 18.109375 46.1875 
Q 21.1875 51.21875 25.484375 53.609375 
Q 29.78125 56 35.6875 56 
Q 41.65625 56 45.828125 52.96875 
Q 50 49.953125 52 44.1875 
z
" id="DejaVuSans-6d"/>
      <path d="M 34.28125 27.484375 
Q 23.390625 27.484375 19.1875 25 
Q 14.984375 22.515625 14.984375 16.5 
Q 14.984375 11.71875 18.140625 8.90625 
Q 21.296875 6.109375 26.703125 6.109375 
Q 34.1875 6.109375 38.703125 11.40625 
Q 43.21875 16.703125 43.21875 25.484375 
L 43.21875 27.484375 
z
M 52.203125 31.203125 
L 52.203125 0 
L 43.21875 0 
L 43.21875 8.296875 
Q 40.140625 3.328125 35.546875 0.953125 
Q 30.953125 -1.421875 24.3125 -1.421875 
Q 15.921875 -1.421875 10.953125 3.296875 
Q 6 8.015625 6 15.921875 
Q 6 25.140625 12.171875 29.828125 
Q 18.359375 34.515625 30.609375 34.515625 
L 43.21875 34.515625 
L 43.21875 35.40625 
Q 43.21875 41.609375 39.140625 45 
Q 35.0625 48.390625 27.6875 48.390625 
Q 23 48.390625 18.546875 47.265625 
Q 14.109375 46.140625 10.015625 43.890625 
L 10.015625 52.203125 
Q 14.9375 54.109375 19.578125 55.046875 
Q 24.21875 56 28.609375 56 
Q 40.484375 56 46.34375 49.84375 
Q 52.203125 43.703125 52.203125 31.203125 
z
" id="DejaVuSans-61"/>
      <path d="M 54.890625 33.015625 
L 54.890625 0 
L 45.90625 0 
L 45.90625 32.71875 
Q 45.90625 40.484375 42.875 44.328125 
Q 39.84375 48.1875 33.796875 48.1875 
Q 26.515625 48.1875 22.3125 43.546875 
Q 18.109375 38.921875 18.109375 30.90625 
L 18.109375 0 
L 9.078125 0 
L 9.078125 54.6875 
L 18.109375 54.6875 
L 18.109375 46.1875 
Q 21.34375 51.125 25.703125 53.5625 
Q 30.078125 56 35.796875 56 
Q 45.21875 56 50.046875 50.171875 
Q 54.890625 44.34375 54.890625 33.015625 
z
" id="DejaVuSans-6e"/>
     </defs>
     <g transform="translate(113.638356 260.842875)scale(0.25 -0.25)">
      <use xlink:href="#DejaVuSans-6d"/>
      <use x="97.412109" xlink:href="#DejaVuSans-65"/>
      <use x="158.935547" xlink:href="#DejaVuSans-61"/>
      <use x="220.214844" xlink:href="#DejaVuSans-6e"/>
     </g>
    </g>
   </g>
   <g id="line2d_4">
    <path clip-path="url(#p8d1d7f6e53)" d="M 43.967189 175.479086 
L 48.257817 175.210034 
L 52.548445 174.90855 
L 56.839073 174.52855 
L 61.129701 173.982967 
L 65.420329 173.133292 
L 69.710957 171.728131 
L 74.001585 169.263809 
L 78.292213 164.79444 
L 82.582841 156.836232 
L 86.873469 143.663078 
L 91.164097 124.249775 
L 95.454725 99.586508 
L 99.745353 73.31605 
L 104.035981 50.659218 
L 108.326609 35.949134 
L 112.617237 30.562545 
L 116.907865 32.816876 
L 121.198493 39.6317 
L 125.489121 48.395049 
L 129.779749 57.749981 
L 134.070377 67.245523 
L 138.361005 76.645479 
L 142.651633 85.581697 
L 146.942261 93.600386 
L 151.232889 100.269247 
L 155.523517 105.183557 
L 159.814145 108.008737 
L 164.104773 108.661624 
L 168.395401 107.481584 
L 172.686029 105.196632 
L 176.976657 102.71113 
L 181.267285 100.900154 
L 185.557913 100.501062 
L 189.848541 102.026353 
L 194.139169 105.614915 
L 198.429797 110.885349 
L 202.720425 116.974702 
L 207.011053 122.871139 
L 211.301681 127.895769 
L 215.592309 132.00819 
L 219.882937 135.72543 
L 224.173565 139.739801 
L 228.464193 144.500279 
L 232.754821 149.984389 
L 237.045449 155.743175 
L 241.336077 161.151259 
L 245.626705 165.695809 
L 249.917333 169.147865 
L 254.207961 171.563926 
" style="fill:none;stroke:#e69f00;stroke-linecap:square;stroke-width:2;"/>
   </g>
   <g id="line2d_5">
    <path clip-path="url(#p8d1d7f6e53)" d="M 43.967189 162.410357 
L 48.257817 160.063632 
L 52.548445 157.407836 
L 56.839073 154.410704 
L 61.129701 151.057981 
L 65.420329 147.349848 
L 69.710957 143.274058 
L 74.001585 138.760911 
L 78.292213 133.648406 
L 82.582841 127.700557 
L 86.873469 120.708633 
L 91.164097 112.659643 
L 95.454725 103.899949 
L 99.745353 95.193586 
L 104.035981 87.605316 
L 108.326609 82.222234 
L 112.617237 79.818534 
L 116.907865 80.607683 
L 121.198493 84.186965 
L 125.489121 89.686046 
L 129.779749 96.041215 
L 134.070377 102.27816 
L 138.361005 107.707147 
L 142.651633 111.989371 
L 146.942261 115.088334 
L 151.232889 117.154398 
L 155.523517 118.399838 
L 159.814145 119.009841 
L 164.104773 119.109975 
L 168.395401 118.782804 
L 172.686029 118.107202 
L 176.976657 117.190635 
L 181.267285 116.176163 
L 185.557913 115.223889 
L 189.848541 114.481039 
L 194.139169 114.059258 
L 198.429797 114.031031 
L 202.720425 114.443871 
L 207.011053 115.339258 
L 211.301681 116.76087 
L 215.592309 118.745532 
L 219.882937 121.303851 
L 224.173565 124.405171 
L 228.464193 127.977442 
L 232.754821 131.920984 
L 237.045449 136.126193 
L 241.336077 140.485687 
L 245.626705 144.898624 
L 249.917333 149.271079 
L 254.207961 153.51619 
" style="fill:none;stroke:#424243;stroke-linecap:square;stroke-width:2;"/>
   </g>
   <g id="patch_3">
    <path d="M 33.45515 183.496 
L 264.72 183.496 
" style="fill:none;stroke:#000000;stroke-linecap:square;stroke-linejoin:miter;stroke-width:0.8;"/>
   </g>
  </g>
 </g>
 <defs>
  <clipPath id="p8d1d7f6e53">
   <rect height="160.216" width="231.26485" x="33.45515" y="23.28"/>
  </clipPath>
 </defs>
</svg>
