<?xml version="1.0" encoding="utf-8" standalone="no"?>
<!DOCTYPE svg PUBLIC "-//W3C//DTD SVG 1.1//EN"
  "http://www.w3.org/Graphics/SVG/1.1/DTD/svg11.dtd">
<!-- Created with matplotlib (http://matplotlib.org/) -->
<svg height="288pt" version="1.1" viewBox="0 0 288 288" width="288pt" xmlns="http://www.w3.org/2000/svg" xmlns:xlink="http://www.w3.org/1999/xlink">
 <defs>
  <style type="text/css">
*{stroke-linecap:butt;stroke-linejoin:round;}
  </style>
 </defs>
 <g id="figure_1">
  <g id="patch_1">
   <path d="M 0 288 
L 288 288 
L 288 0 
L 0 0 
z
" style="fill:#ffffff;"/>
  </g>
  <g id="axes_1">
   <g id="patch_2">
    <path d="M 30.974219 183.67 
L 257.025781 183.67 
L 257.025781 23.175 
L 30.974219 23.175 
z
" style="fill:#ffffff;"/>
   </g>
   <g id="PolyCollection_1">
    <defs>
     <path d="M 41.24929 -111.625227 
L 41.24929 -121.312403 
L 45.443196 -123.885448 
L 49.637103 -126.864711 
L 53.831009 -129.777242 
L 58.024916 -132.190299 
L 62.218822 -134.177344 
L 66.412729 -136.84386 
L 70.606636 -142.546429 
L 74.800542 -153.55953 
L 78.994449 -169.009479 
L 83.188355 -183.933905 
L 87.382262 -193.955543 
L 91.576168 -200.415955 
L 95.770075 -208.403565 
L 99.963981 -220.669712 
L 104.157888 -235.329447 
L 108.351794 -248.214287 
L 112.545701 -255.975304 
L 116.739607 -257.529773 
L 120.933514 -253.859391 
L 125.127421 -246.97718 
L 129.321327 -238.567353 
L 133.515234 -229.093673 
L 137.70914 -218.129768 
L 141.903047 -205.316445 
L 146.096953 -190.968938 
L 150.29086 -176.125273 
L 154.484766 -162.135449 
L 158.678673 -150.07202 
L 162.872579 -140.362178 
L 167.066486 -132.807163 
L 171.260393 -126.934092 
L 175.454299 -122.379853 
L 179.648206 -118.970013 
L 183.842112 -116.566628 
L 188.036019 -114.98765 
L 192.229925 -114.047391 
L 196.423832 -113.574064 
L 200.617738 -113.376861 
L 204.811645 -113.250578 
L 209.005551 -113.061071 
L 213.199458 -112.818104 
L 217.393364 -112.617494 
L 221.587271 -112.517701 
L 225.781178 -112.496525 
L 229.975084 -112.494346 
L 234.168991 -112.465381 
L 238.362897 -112.395158 
L 242.556804 -112.292988 
L 246.75071 -112.181541 
L 246.75071 -111.625227 
L 246.75071 -111.625227 
L 242.556804 -111.625227 
L 238.362897 -111.625227 
L 234.168991 -111.625227 
L 229.975084 -111.625227 
L 225.781178 -111.625227 
L 221.587271 -111.625227 
L 217.393364 -111.625227 
L 213.199458 -111.625227 
L 209.005551 -111.625227 
L 204.811645 -111.625227 
L 200.617738 -111.625227 
L 196.423832 -111.625227 
L 192.229925 -111.625227 
L 188.036019 -111.625227 
L 183.842112 -111.625227 
L 179.648206 -111.625227 
L 175.454299 -111.625227 
L 171.260393 -111.625227 
L 167.066486 -111.625227 
L 162.872579 -111.625227 
L 158.678673 -111.625227 
L 154.484766 -111.625227 
L 150.29086 -111.625227 
L 146.096953 -111.625227 
L 141.903047 -111.625227 
L 137.70914 -111.625227 
L 133.515234 -111.625227 
L 129.321327 -111.625227 
L 125.127421 -111.625227 
L 120.933514 -111.625227 
L 116.739607 -111.625227 
L 112.545701 -111.625227 
L 108.351794 -111.625227 
L 104.157888 -111.625227 
L 99.963981 -111.625227 
L 95.770075 -111.625227 
L 91.576168 -111.625227 
L 87.382262 -111.625227 
L 83.188355 -111.625227 
L 78.994449 -111.625227 
L 74.800542 -111.625227 
L 70.606636 -111.625227 
L 66.412729 -111.625227 
L 62.218822 -111.625227 
L 58.024916 -111.625227 
L 53.831009 -111.625227 
L 49.637103 -111.625227 
L 45.443196 -111.625227 
L 41.24929 -111.625227 
z
" id="m5c86496319" style="stroke:#cc79a7;stroke-opacity:0.3;"/>
    </defs>
    <g clip-path="url(#pbfe2579580)">
     <use style="fill:#cc79a7;fill-opacity:0.3;stroke:#cc79a7;stroke-opacity:0.3;" x="0" xlink:href="#m5c86496319" y="288"/>
    </g>
   </g>
   <g id="PolyCollection_2">
    <defs>
     <path d="M 41.24929 -111.625227 
L 41.24929 -130.151489 
L 45.443196 -133.762833 
L 49.637103 -137.654296 
L 53.831009 -141.831767 
L 58.024916 -146.338951 
L 62.218822 -151.252015 
L 66.412729 -156.657263 
L 70.606636 -162.61692 
L 74.800542 -169.134406 
L 78.994449 -176.1312 
L 83.188355 -183.441523 
L 87.382262 -190.822533 
L 91.576168 -197.972736 
L 95.770075 -204.553077 
L 99.963981 -210.211146 
L 104.157888 -214.612703 
L 108.351794 -217.481651 
L 112.545701 -218.641293 
L 116.739607 -218.04306 
L 120.933514 -215.770034 
L 125.127421 -212.01229 
L 129.321327 -207.023368 
L 133.515234 -201.074558 
L 137.70914 -194.421977 
L 141.903047 -187.292773 
L 146.096953 -179.887018 
L 150.29086 -172.386471 
L 154.484766 -164.961823 
L 158.678673 -157.774261 
L 162.872579 -150.97152 
L 167.066486 -144.680895 
L 171.260393 -139.001868 
L 175.454299 -134.000227 
L 179.648206 -129.704844 
L 183.842112 -126.107907 
L 188.036019 -123.168965 
L 192.229925 -120.822407 
L 196.423832 -118.987129 
L 200.617738 -117.57655 
L 204.811645 -116.507109 
L 209.005551 -115.704023 
L 213.199458 -115.104002 
L 217.393364 -114.655489 
L 221.587271 -114.317418 
L 225.781178 -114.057479 
L 229.975084 -113.85052 
L 234.168991 -113.677334 
L 238.362897 -113.52381 
L 242.556804 -113.380354 
L 246.75071 -113.241465 
L 246.75071 -111.625227 
L 246.75071 -111.625227 
L 242.556804 -111.625227 
L 238.362897 -111.625227 
L 234.168991 -111.625227 
L 229.975084 -111.625227 
L 225.781178 -111.625227 
L 221.587271 -111.625227 
L 217.393364 -111.625227 
L 213.199458 -111.625227 
L 209.005551 -111.625227 
L 204.811645 -111.625227 
L 200.617738 -111.625227 
L 196.423832 -111.625227 
L 192.229925 -111.625227 
L 188.036019 -111.625227 
L 183.842112 -111.625227 
L 179.648206 -111.625227 
L 175.454299 -111.625227 
L 171.260393 -111.625227 
L 167.066486 -111.625227 
L 162.872579 -111.625227 
L 158.678673 -111.625227 
L 154.484766 -111.625227 
L 150.29086 -111.625227 
L 146.096953 -111.625227 
L 141.903047 -111.625227 
L 137.70914 -111.625227 
L 133.515234 -111.625227 
L 129.321327 -111.625227 
L 125.127421 -111.625227 
L 120.933514 -111.625227 
L 116.739607 -111.625227 
L 112.545701 -111.625227 
L 108.351794 -111.625227 
L 104.157888 -111.625227 
L 99.963981 -111.625227 
L 95.770075 -111.625227 
L 91.576168 -111.625227 
L 87.382262 -111.625227 
L 83.188355 -111.625227 
L 78.994449 -111.625227 
L 74.800542 -111.625227 
L 70.606636 -111.625227 
L 66.412729 -111.625227 
L 62.218822 -111.625227 
L 58.024916 -111.625227 
L 53.831009 -111.625227 
L 49.637103 -111.625227 
L 45.443196 -111.625227 
L 41.24929 -111.625227 
z
" id="m6c11db1237" style="stroke:#424243;stroke-opacity:0.3;"/>
    </defs>
    <g clip-path="url(#pbfe2579580)">
     <use style="fill:#424243;fill-opacity:0.3;stroke:#424243;stroke-opacity:0.3;" x="0" xlink:href="#m6c11db1237" y="288"/>
    </g>
   </g>
   <g id="matplotlib.axis_1">
    <g id="xtick_1">
     <g id="line2d_1">
      <defs>
       <path d="M 0 0 
L 0 3.5 
" id="m8b95e0ae16" style="stroke:#000000;stroke-width:0.8;"/>
      </defs>
      <g>
       <use style="stroke:#000000;stroke-width:0.8;" x="83.827687" xlink:href="#m8b95e0ae16" y="183.67"/>
      </g>
     </g>
     <g id="text_1">
      <!-- 0 -->
      <defs>
       <path d="M 31.78125 66.40625 
Q 24.171875 66.40625 20.328125 58.90625 
Q 16.5 51.421875 16.5 36.375 
Q 16.5 21.390625 20.328125 13.890625 
Q 24.171875 6.390625 31.78125 6.390625 
Q 39.453125 6.390625 43.28125 13.890625 
Q 47.125 21.390625 47.125 36.375 
Q 47.125 51.421875 43.28125 58.90625 
Q 39.453125 66.40625 31.78125 66.40625 
z
M 31.78125 74.21875 
Q 44.046875 74.21875 50.515625 64.515625 
Q 56.984375 54.828125 56.984375 36.375 
Q 56.984375 17.96875 50.515625 8.265625 
Q 44.046875 -1.421875 31.78125 -1.421875 
Q 19.53125 -1.421875 13.0625 8.265625 
Q 6.59375 17.96875 6.59375 36.375 
Q 6.59375 54.828125 13.0625 64.515625 
Q 19.53125 74.21875 31.78125 74.21875 
z
" id="DejaVuSans-30"/>
      </defs>
      <g transform="translate(77.465187 205.866875)scale(0.2 -0.2)">
       <use xlink:href="#DejaVuSans-30"/>
      </g>
     </g>
    </g>
    <g id="xtick_2">
     <g id="line2d_2">
      <g>
       <use style="stroke:#000000;stroke-width:0.8;" x="160.871424" xlink:href="#m8b95e0ae16" y="183.67"/>
      </g>
     </g>
     <g id="text_2">
      <!-- 2 -->
      <defs>
       <path d="M 19.1875 8.296875 
L 53.609375 8.296875 
L 53.609375 0 
L 7.328125 0 
L 7.328125 8.296875 
Q 12.9375 14.109375 22.625 23.890625 
Q 32.328125 33.6875 34.8125 36.53125 
Q 39.546875 41.84375 41.421875 45.53125 
Q 43.3125 49.21875 43.3125 52.78125 
Q 43.3125 58.59375 39.234375 62.25 
Q 35.15625 65.921875 28.609375 65.921875 
Q 23.96875 65.921875 18.8125 64.3125 
Q 13.671875 62.703125 7.8125 59.421875 
L 7.8125 69.390625 
Q 13.765625 71.78125 18.9375 73 
Q 24.125 74.21875 28.421875 74.21875 
Q 39.75 74.21875 46.484375 68.546875 
Q 53.21875 62.890625 53.21875 53.421875 
Q 53.21875 48.921875 51.53125 44.890625 
Q 49.859375 40.875 45.40625 35.40625 
Q 44.1875 33.984375 37.640625 27.21875 
Q 31.109375 20.453125 19.1875 8.296875 
z
" id="DejaVuSans-32"/>
      </defs>
      <g transform="translate(154.508924 205.866875)scale(0.2 -0.2)">
       <use xlink:href="#DejaVuSans-32"/>
      </g>
     </g>
    </g>
    <g id="xtick_3">
     <g id="line2d_3">
      <g>
       <use style="stroke:#000000;stroke-width:0.8;" x="237.915161" xlink:href="#m8b95e0ae16" y="183.67"/>
      </g>
     </g>
     <g id="text_3">
      <!-- 4 -->
      <defs>
       <path d="M 37.796875 64.3125 
L 12.890625 25.390625 
L 37.796875 25.390625 
z
M 35.203125 72.90625 
L 47.609375 72.90625 
L 47.609375 25.390625 
L 58.015625 25.390625 
L 58.015625 17.1875 
L 47.609375 17.1875 
L 47.609375 0 
L 37.796875 0 
L 37.796875 17.1875 
L 4.890625 17.1875 
L 4.890625 26.703125 
z
" id="DejaVuSans-34"/>
      </defs>
      <g transform="translate(231.552661 205.866875)scale(0.2 -0.2)">
       <use xlink:href="#DejaVuSans-34"/>
      </g>
     </g>
    </g>
    <g id="text_4">
     <!-- leaf area index -->
     <defs>
      <path d="M 9.421875 75.984375 
L 18.40625 75.984375 
L 18.40625 0 
L 9.421875 0 
z
" id="DejaVuSans-6c"/>
      <path d="M 56.203125 29.59375 
L 56.203125 25.203125 
L 14.890625 25.203125 
Q 15.484375 15.921875 20.484375 11.0625 
Q 25.484375 6.203125 34.421875 6.203125 
Q 39.59375 6.203125 44.453125 7.46875 
Q 49.3125 8.734375 54.109375 11.28125 
L 54.109375 2.78125 
Q 49.265625 0.734375 44.1875 -0.34375 
Q 39.109375 -1.421875 33.890625 -1.421875 
Q 20.796875 -1.421875 13.15625 6.1875 
Q 5.515625 13.8125 5.515625 26.8125 
Q 5.515625 40.234375 12.765625 48.109375 
Q 20.015625 56 32.328125 56 
Q 43.359375 56 49.78125 48.890625 
Q 56.203125 41.796875 56.203125 29.59375 
z
M 47.21875 32.234375 
Q 47.125 39.59375 43.09375 43.984375 
Q 39.0625 48.390625 32.421875 48.390625 
Q 24.90625 48.390625 20.390625 44.140625 
Q 15.875 39.890625 15.1875 32.171875 
z
" id="DejaVuSans-65"/>
      <path d="M 34.28125 27.484375 
Q 23.390625 27.484375 19.1875 25 
Q 14.984375 22.515625 14.984375 16.5 
Q 14.984375 11.71875 18.140625 8.90625 
Q 21.296875 6.109375 26.703125 6.109375 
Q 34.1875 6.109375 38.703125 11.40625 
Q 43.21875 16.703125 43.21875 25.484375 
L 43.21875 27.484375 
z
M 52.203125 31.203125 
L 52.203125 0 
L 43.21875 0 
L 43.21875 8.296875 
Q 40.140625 3.328125 35.546875 0.953125 
Q 30.953125 -1.421875 24.3125 -1.421875 
Q 15.921875 -1.421875 10.953125 3.296875 
Q 6 8.015625 6 15.921875 
Q 6 25.140625 12.171875 29.828125 
Q 18.359375 34.515625 30.609375 34.515625 
L 43.21875 34.515625 
L 43.21875 35.40625 
Q 43.21875 41.609375 39.140625 45 
Q 35.0625 48.390625 27.6875 48.390625 
Q 23 48.390625 18.546875 47.265625 
Q 14.109375 46.140625 10.015625 43.890625 
L 10.015625 52.203125 
Q 14.9375 54.109375 19.578125 55.046875 
Q 24.21875 56 28.609375 56 
Q 40.484375 56 46.34375 49.84375 
Q 52.203125 43.703125 52.203125 31.203125 
z
" id="DejaVuSans-61"/>
      <path d="M 37.109375 75.984375 
L 37.109375 68.5 
L 28.515625 68.5 
Q 23.6875 68.5 21.796875 66.546875 
Q 19.921875 64.59375 19.921875 59.515625 
L 19.921875 54.6875 
L 34.71875 54.6875 
L 34.71875 47.703125 
L 19.921875 47.703125 
L 19.921875 0 
L 10.890625 0 
L 10.890625 47.703125 
L 2.296875 47.703125 
L 2.296875 54.6875 
L 10.890625 54.6875 
L 10.890625 58.5 
Q 10.890625 67.625 15.140625 71.796875 
Q 19.390625 75.984375 28.609375 75.984375 
z
" id="DejaVuSans-66"/>
      <path id="DejaVuSans-20"/>
      <path d="M 41.109375 46.296875 
Q 39.59375 47.171875 37.8125 47.578125 
Q 36.03125 48 33.890625 48 
Q 26.265625 48 22.1875 43.046875 
Q 18.109375 38.09375 18.109375 28.8125 
L 18.109375 0 
L 9.078125 0 
L 9.078125 54.6875 
L 18.109375 54.6875 
L 18.109375 46.1875 
Q 20.953125 51.171875 25.484375 53.578125 
Q 30.03125 56 36.53125 56 
Q 37.453125 56 38.578125 55.875 
Q 39.703125 55.765625 41.0625 55.515625 
z
" id="DejaVuSans-72"/>
      <path d="M 9.421875 54.6875 
L 18.40625 54.6875 
L 18.40625 0 
L 9.421875 0 
z
M 9.421875 75.984375 
L 18.40625 75.984375 
L 18.40625 64.59375 
L 9.421875 64.59375 
z
" id="DejaVuSans-69"/>
      <path d="M 54.890625 33.015625 
L 54.890625 0 
L 45.90625 0 
L 45.90625 32.71875 
Q 45.90625 40.484375 42.875 44.328125 
Q 39.84375 48.1875 33.796875 48.1875 
Q 26.515625 48.1875 22.3125 43.546875 
Q 18.109375 38.921875 18.109375 30.90625 
L 18.109375 0 
L 9.078125 0 
L 9.078125 54.6875 
L 18.109375 54.6875 
L 18.109375 46.1875 
Q 21.34375 51.125 25.703125 53.5625 
Q 30.078125 56 35.796875 56 
Q 45.21875 56 50.046875 50.171875 
Q 54.890625 44.34375 54.890625 33.015625 
z
" id="DejaVuSans-6e"/>
      <path d="M 45.40625 46.390625 
L 45.40625 75.984375 
L 54.390625 75.984375 
L 54.390625 0 
L 45.40625 0 
L 45.40625 8.203125 
Q 42.578125 3.328125 38.25 0.953125 
Q 33.9375 -1.421875 27.875 -1.421875 
Q 17.96875 -1.421875 11.734375 6.484375 
Q 5.515625 14.40625 5.515625 27.296875 
Q 5.515625 40.1875 11.734375 48.09375 
Q 17.96875 56 27.875 56 
Q 33.9375 56 38.25 53.625 
Q 42.578125 51.265625 45.40625 46.390625 
z
M 14.796875 27.296875 
Q 14.796875 17.390625 18.875 11.75 
Q 22.953125 6.109375 30.078125 6.109375 
Q 37.203125 6.109375 41.296875 11.75 
Q 45.40625 17.390625 45.40625 27.296875 
Q 45.40625 37.203125 41.296875 42.84375 
Q 37.203125 48.484375 30.078125 48.484375 
Q 22.953125 48.484375 18.875 42.84375 
Q 14.796875 37.203125 14.796875 27.296875 
z
" id="DejaVuSans-64"/>
      <path d="M 54.890625 54.6875 
L 35.109375 28.078125 
L 55.90625 0 
L 45.3125 0 
L 29.390625 21.484375 
L 13.484375 0 
L 2.875 0 
L 24.125 28.609375 
L 4.6875 54.6875 
L 15.28125 54.6875 
L 29.78125 35.203125 
L 44.28125 54.6875 
z
" id="DejaVuSans-78"/>
     </defs>
     <g transform="translate(50.265625 233.022344)scale(0.25 -0.25)">
      <use xlink:href="#DejaVuSans-6c"/>
      <use x="27.783203" xlink:href="#DejaVuSans-65"/>
      <use x="89.306641" xlink:href="#DejaVuSans-61"/>
      <use x="150.585938" xlink:href="#DejaVuSans-66"/>
      <use x="185.791016" xlink:href="#DejaVuSans-20"/>
      <use x="217.578125" xlink:href="#DejaVuSans-61"/>
      <use x="278.857422" xlink:href="#DejaVuSans-72"/>
      <use x="319.939453" xlink:href="#DejaVuSans-65"/>
      <use x="381.462891" xlink:href="#DejaVuSans-61"/>
      <use x="442.742188" xlink:href="#DejaVuSans-20"/>
      <use x="474.529297" xlink:href="#DejaVuSans-69"/>
      <use x="502.3125" xlink:href="#DejaVuSans-6e"/>
      <use x="565.691406" xlink:href="#DejaVuSans-64"/>
      <use x="629.167969" xlink:href="#DejaVuSans-65"/>
      <use x="690.675781" xlink:href="#DejaVuSans-78"/>
     </g>
     <!-- skew -->
     <defs>
      <path d="M 44.28125 53.078125 
L 44.28125 44.578125 
Q 40.484375 46.53125 36.375 47.5 
Q 32.28125 48.484375 27.875 48.484375 
Q 21.1875 48.484375 17.84375 46.4375 
Q 14.5 44.390625 14.5 40.28125 
Q 14.5 37.15625 16.890625 35.375 
Q 19.28125 33.59375 26.515625 31.984375 
L 29.59375 31.296875 
Q 39.15625 29.25 43.1875 25.515625 
Q 47.21875 21.78125 47.21875 15.09375 
Q 47.21875 7.46875 41.1875 3.015625 
Q 35.15625 -1.421875 24.609375 -1.421875 
Q 20.21875 -1.421875 15.453125 -0.5625 
Q 10.6875 0.296875 5.421875 2 
L 5.421875 11.28125 
Q 10.40625 8.6875 15.234375 7.390625 
Q 20.0625 6.109375 24.8125 6.109375 
Q 31.15625 6.109375 34.5625 8.28125 
Q 37.984375 10.453125 37.984375 14.40625 
Q 37.984375 18.0625 35.515625 20.015625 
Q 33.0625 21.96875 24.703125 23.78125 
L 21.578125 24.515625 
Q 13.234375 26.265625 9.515625 29.90625 
Q 5.8125 33.546875 5.8125 39.890625 
Q 5.8125 47.609375 11.28125 51.796875 
Q 16.75 56 26.8125 56 
Q 31.78125 56 36.171875 55.265625 
Q 40.578125 54.546875 44.28125 53.078125 
z
" id="DejaVuSans-73"/>
      <path d="M 9.078125 75.984375 
L 18.109375 75.984375 
L 18.109375 31.109375 
L 44.921875 54.6875 
L 56.390625 54.6875 
L 27.390625 29.109375 
L 57.625 0 
L 45.90625 0 
L 18.109375 26.703125 
L 18.109375 0 
L 9.078125 0 
z
" id="DejaVuSans-6b"/>
      <path d="M 4.203125 54.6875 
L 13.1875 54.6875 
L 24.421875 12.015625 
L 35.59375 54.6875 
L 46.1875 54.6875 
L 57.421875 12.015625 
L 68.609375 54.6875 
L 77.59375 54.6875 
L 63.28125 0 
L 52.6875 0 
L 40.921875 44.828125 
L 29.109375 0 
L 18.5 0 
z
" id="DejaVuSans-77"/>
     </defs>
     <g transform="translate(112.341797 261.016875)scale(0.25 -0.25)">
      <use xlink:href="#DejaVuSans-73"/>
      <use x="52.099609" xlink:href="#DejaVuSans-6b"/>
      <use x="109.962891" xlink:href="#DejaVuSans-65"/>
      <use x="171.486328" xlink:href="#DejaVuSans-77"/>
     </g>
    </g>
   </g>
   <g id="line2d_4">
    <path clip-path="url(#pbfe2579580)" d="M 41.24929 166.687597 
L 45.443196 164.114552 
L 49.637103 161.135289 
L 53.831009 158.222758 
L 58.024916 155.809701 
L 62.218822 153.822656 
L 66.412729 151.15614 
L 70.606636 145.453571 
L 74.800542 134.44047 
L 78.994449 118.990521 
L 83.188355 104.066095 
L 87.382262 94.044457 
L 91.576168 87.584045 
L 95.770075 79.596435 
L 99.963981 67.330288 
L 104.157888 52.670553 
L 108.351794 39.785713 
L 112.545701 32.024696 
L 116.739607 30.470227 
L 120.933514 34.140609 
L 125.127421 41.02282 
L 129.321327 49.432647 
L 133.515234 58.906327 
L 137.70914 69.870232 
L 141.903047 82.683555 
L 146.096953 97.031062 
L 150.29086 111.874727 
L 154.484766 125.864551 
L 158.678673 137.92798 
L 162.872579 147.637822 
L 167.066486 155.192837 
L 171.260393 161.065908 
L 175.454299 165.620147 
L 179.648206 169.029987 
L 183.842112 171.433372 
L 188.036019 173.01235 
L 192.229925 173.952609 
L 196.423832 174.425936 
L 200.617738 174.623139 
L 204.811645 174.749422 
L 209.005551 174.938929 
L 213.199458 175.181896 
L 217.393364 175.382506 
L 221.587271 175.482299 
L 225.781178 175.503475 
L 229.975084 175.505654 
L 234.168991 175.534619 
L 238.362897 175.604842 
L 242.556804 175.707012 
L 246.75071 175.818459 
" style="fill:none;stroke:#cc79a7;stroke-linecap:square;stroke-width:2;"/>
   </g>
   <g id="line2d_5">
    <path clip-path="url(#pbfe2579580)" d="M 41.24929 157.848511 
L 45.443196 154.237167 
L 49.637103 150.345704 
L 53.831009 146.168233 
L 58.024916 141.661049 
L 62.218822 136.747985 
L 66.412729 131.342737 
L 70.606636 125.38308 
L 74.800542 118.865594 
L 78.994449 111.8688 
L 83.188355 104.558477 
L 87.382262 97.177467 
L 91.576168 90.027264 
L 95.770075 83.446923 
L 99.963981 77.788854 
L 104.157888 73.387297 
L 108.351794 70.518349 
L 112.545701 69.358707 
L 116.739607 69.95694 
L 120.933514 72.229966 
L 125.127421 75.98771 
L 129.321327 80.976632 
L 133.515234 86.925442 
L 137.70914 93.578023 
L 141.903047 100.707227 
L 146.096953 108.112982 
L 150.29086 115.613529 
L 154.484766 123.038177 
L 158.678673 130.225739 
L 162.872579 137.02848 
L 167.066486 143.319105 
L 171.260393 148.998132 
L 175.454299 153.999773 
L 179.648206 158.295156 
L 183.842112 161.892093 
L 188.036019 164.831035 
L 192.229925 167.177593 
L 196.423832 169.012871 
L 200.617738 170.42345 
L 204.811645 171.492891 
L 209.005551 172.295977 
L 213.199458 172.895998 
L 217.393364 173.344511 
L 221.587271 173.682582 
L 225.781178 173.942521 
L 229.975084 174.14948 
L 234.168991 174.322666 
L 238.362897 174.47619 
L 242.556804 174.619646 
L 246.75071 174.758535 
" style="fill:none;stroke:#424243;stroke-linecap:square;stroke-width:2;"/>
   </g>
   <g id="patch_3">
    <path d="M 30.974219 183.67 
L 257.025781 183.67 
" style="fill:none;stroke:#000000;stroke-linecap:square;stroke-linejoin:miter;stroke-width:0.8;"/>
   </g>
  </g>
 </g>
 <defs>
  <clipPath id="pbfe2579580">
   <rect height="160.495" width="226.051563" x="30.974219" y="23.175"/>
  </clipPath>
 </defs>
</svg>
