<?xml version="1.0" encoding="utf-8" standalone="no"?>
<!DOCTYPE svg PUBLIC "-//W3C//DTD SVG 1.1//EN"
  "http://www.w3.org/Graphics/SVG/1.1/DTD/svg11.dtd">
<!-- Created with matplotlib (http://matplotlib.org/) -->
<svg height="288pt" version="1.1" viewBox="0 0 288 288" width="288pt" xmlns="http://www.w3.org/2000/svg" xmlns:xlink="http://www.w3.org/1999/xlink">
 <defs>
  <style type="text/css">
*{stroke-linecap:butt;stroke-linejoin:round;}
  </style>
 </defs>
 <g id="figure_1">
  <g id="patch_1">
   <path d="M 0 288 
L 288 288 
L 288 0 
L 0 0 
z
" style="fill:#ffffff;"/>
  </g>
  <g id="axes_1">
   <g id="patch_2">
    <path d="M 54.1 183.496 
L 233.9 183.496 
L 233.9 23.28 
L 54.1 23.28 
z
" style="fill:#ffffff;"/>
   </g>
   <g id="PolyCollection_1">
    <defs>
     <path d="M 62.272727 -111.786545 
L 62.272727 -111.934363 
L 65.499455 -111.998402 
L 68.726182 -112.106826 
L 71.952909 -112.309 
L 75.179637 -112.629934 
L 78.406364 -113.044542 
L 81.633091 -113.514743 
L 84.859818 -114.061481 
L 88.086546 -114.790316 
L 91.313273 -115.84037 
L 94.54 -117.324493 
L 97.766728 -119.346188 
L 100.993455 -122.079489 
L 104.220182 -125.792011 
L 107.44691 -130.748038 
L 110.673637 -137.142845 
L 113.900364 -145.285445 
L 117.127092 -155.887682 
L 120.353819 -169.868271 
L 123.580546 -187.408646 
L 126.807274 -207.103698 
L 130.034001 -226.300457 
L 133.260728 -242.300258 
L 136.487455 -253.102286 
L 139.714183 -257.437455 
L 142.94091 -254.998365 
L 146.167637 -247.005405 
L 149.394365 -236.113364 
L 152.621092 -225.196257 
L 155.847819 -215.919702 
L 159.074547 -208.285051 
L 162.301274 -201.290868 
L 165.528001 -193.920523 
L 168.754729 -185.770144 
L 171.981456 -177.169017 
L 175.208183 -168.8545 
L 178.434911 -161.403522 
L 181.661638 -154.887384 
L 184.888365 -149.06861 
L 188.115092 -143.840948 
L 191.34182 -139.366466 
L 194.568547 -135.839194 
L 197.795274 -133.260954 
L 201.022002 -131.444579 
L 204.248729 -130.09466 
L 207.475456 -128.867215 
L 210.702184 -127.507652 
L 213.928911 -126.011747 
L 217.155638 -124.580887 
L 220.382366 -123.387384 
L 220.382366 -111.786545 
L 220.382366 -111.786545 
L 217.155638 -111.786545 
L 213.928911 -111.786545 
L 210.702184 -111.786545 
L 207.475456 -111.786545 
L 204.248729 -111.786545 
L 201.022002 -111.786545 
L 197.795274 -111.786545 
L 194.568547 -111.786545 
L 191.34182 -111.786545 
L 188.115092 -111.786545 
L 184.888365 -111.786545 
L 181.661638 -111.786545 
L 178.434911 -111.786545 
L 175.208183 -111.786545 
L 171.981456 -111.786545 
L 168.754729 -111.786545 
L 165.528001 -111.786545 
L 162.301274 -111.786545 
L 159.074547 -111.786545 
L 155.847819 -111.786545 
L 152.621092 -111.786545 
L 149.394365 -111.786545 
L 146.167637 -111.786545 
L 142.94091 -111.786545 
L 139.714183 -111.786545 
L 136.487455 -111.786545 
L 133.260728 -111.786545 
L 130.034001 -111.786545 
L 126.807274 -111.786545 
L 123.580546 -111.786545 
L 120.353819 -111.786545 
L 117.127092 -111.786545 
L 113.900364 -111.786545 
L 110.673637 -111.786545 
L 107.44691 -111.786545 
L 104.220182 -111.786545 
L 100.993455 -111.786545 
L 97.766728 -111.786545 
L 94.54 -111.786545 
L 91.313273 -111.786545 
L 88.086546 -111.786545 
L 84.859818 -111.786545 
L 81.633091 -111.786545 
L 78.406364 -111.786545 
L 75.179637 -111.786545 
L 71.952909 -111.786545 
L 68.726182 -111.786545 
L 65.499455 -111.786545 
L 62.272727 -111.786545 
z
" id="md757c63025" style="stroke:#e69f00;stroke-opacity:0.3;"/>
    </defs>
    <g clip-path="url(#p604275cef5)">
     <use style="fill:#e69f00;fill-opacity:0.3;stroke:#e69f00;stroke-opacity:0.3;" x="0" xlink:href="#md757c63025" y="288"/>
    </g>
   </g>
   <g id="PolyCollection_2">
    <defs>
     <path d="M 62.272727 -111.786545 
L 62.272727 -121.294004 
L 65.499455 -122.849385 
L 68.726182 -124.657995 
L 71.952909 -126.756381 
L 75.179637 -129.165315 
L 78.406364 -131.865426 
L 81.633091 -134.780635 
L 84.859818 -137.790203 
L 88.086546 -140.772128 
L 91.313273 -143.654831 
L 94.54 -146.445295 
L 97.766728 -149.221115 
L 100.993455 -152.102664 
L 104.220182 -155.229863 
L 107.44691 -158.749726 
L 110.673637 -162.800409 
L 113.900364 -167.478164 
L 117.127092 -172.790514 
L 120.353819 -178.612712 
L 123.580546 -184.668186 
L 126.807274 -190.550183 
L 130.034001 -195.7893 
L 133.260728 -199.950146 
L 136.487455 -202.725074 
L 139.714183 -203.996823 
L 142.94091 -203.855248 
L 146.167637 -202.561374 
L 149.394365 -200.461406 
L 152.621092 -197.875625 
L 155.847819 -195.006939 
L 159.074547 -191.904836 
L 162.301274 -188.488371 
L 165.528001 -184.609401 
L 168.754729 -180.136579 
L 171.981456 -175.040232 
L 175.208183 -169.445677 
L 178.434911 -163.619493 
L 181.661638 -157.88326 
L 184.888365 -152.498018 
L 188.115092 -147.587266 
L 191.34182 -143.140368 
L 194.568547 -139.080601 
L 197.795274 -135.34117 
L 201.022002 -131.900897 
L 204.248729 -128.774145 
L 207.475456 -125.98262 
L 210.702184 -123.535188 
L 213.928911 -121.421514 
L 217.155638 -119.613785 
L 220.382366 -118.07285 
L 220.382366 -111.786545 
L 220.382366 -111.786545 
L 217.155638 -111.786545 
L 213.928911 -111.786545 
L 210.702184 -111.786545 
L 207.475456 -111.786545 
L 204.248729 -111.786545 
L 201.022002 -111.786545 
L 197.795274 -111.786545 
L 194.568547 -111.786545 
L 191.34182 -111.786545 
L 188.115092 -111.786545 
L 184.888365 -111.786545 
L 181.661638 -111.786545 
L 178.434911 -111.786545 
L 175.208183 -111.786545 
L 171.981456 -111.786545 
L 168.754729 -111.786545 
L 165.528001 -111.786545 
L 162.301274 -111.786545 
L 159.074547 -111.786545 
L 155.847819 -111.786545 
L 152.621092 -111.786545 
L 149.394365 -111.786545 
L 146.167637 -111.786545 
L 142.94091 -111.786545 
L 139.714183 -111.786545 
L 136.487455 -111.786545 
L 133.260728 -111.786545 
L 130.034001 -111.786545 
L 126.807274 -111.786545 
L 123.580546 -111.786545 
L 120.353819 -111.786545 
L 117.127092 -111.786545 
L 113.900364 -111.786545 
L 110.673637 -111.786545 
L 107.44691 -111.786545 
L 104.220182 -111.786545 
L 100.993455 -111.786545 
L 97.766728 -111.786545 
L 94.54 -111.786545 
L 91.313273 -111.786545 
L 88.086546 -111.786545 
L 84.859818 -111.786545 
L 81.633091 -111.786545 
L 78.406364 -111.786545 
L 75.179637 -111.786545 
L 71.952909 -111.786545 
L 68.726182 -111.786545 
L 65.499455 -111.786545 
L 62.272727 -111.786545 
z
" id="m94847773dc" style="stroke:#424243;stroke-opacity:0.3;"/>
    </defs>
    <g clip-path="url(#p604275cef5)">
     <use style="fill:#424243;fill-opacity:0.3;stroke:#424243;stroke-opacity:0.3;" x="0" xlink:href="#m94847773dc" y="288"/>
    </g>
   </g>
   <g id="matplotlib.axis_1">
    <g id="xtick_1">
     <g id="line2d_1">
      <defs>
       <path d="M 0 0 
L 0 3.5 
" id="mb821ed345c" style="stroke:#000000;stroke-width:0.8;"/>
      </defs>
      <g>
       <use style="stroke:#000000;stroke-width:0.8;" x="70.32528" xlink:href="#mb821ed345c" y="183.496"/>
      </g>
     </g>
     <g id="text_1">
      <!-- 0.001 -->
      <defs>
       <path d="M 31.78125 66.40625 
Q 24.171875 66.40625 20.328125 58.90625 
Q 16.5 51.421875 16.5 36.375 
Q 16.5 21.390625 20.328125 13.890625 
Q 24.171875 6.390625 31.78125 6.390625 
Q 39.453125 6.390625 43.28125 13.890625 
Q 47.125 21.390625 47.125 36.375 
Q 47.125 51.421875 43.28125 58.90625 
Q 39.453125 66.40625 31.78125 66.40625 
z
M 31.78125 74.21875 
Q 44.046875 74.21875 50.515625 64.515625 
Q 56.984375 54.828125 56.984375 36.375 
Q 56.984375 17.96875 50.515625 8.265625 
Q 44.046875 -1.421875 31.78125 -1.421875 
Q 19.53125 -1.421875 13.0625 8.265625 
Q 6.59375 17.96875 6.59375 36.375 
Q 6.59375 54.828125 13.0625 64.515625 
Q 19.53125 74.21875 31.78125 74.21875 
z
" id="DejaVuSans-30"/>
       <path d="M 10.6875 12.40625 
L 21 12.40625 
L 21 0 
L 10.6875 0 
z
" id="DejaVuSans-2e"/>
       <path d="M 12.40625 8.296875 
L 28.515625 8.296875 
L 28.515625 63.921875 
L 10.984375 60.40625 
L 10.984375 69.390625 
L 28.421875 72.90625 
L 38.28125 72.90625 
L 38.28125 8.296875 
L 54.390625 8.296875 
L 54.390625 0 
L 12.40625 0 
z
" id="DejaVuSans-31"/>
      </defs>
      <g transform="translate(41.697155 205.692875)scale(0.2 -0.2)">
       <use xlink:href="#DejaVuSans-30"/>
       <use x="63.623047" xlink:href="#DejaVuSans-2e"/>
       <use x="95.410156" xlink:href="#DejaVuSans-30"/>
       <use x="159.033203" xlink:href="#DejaVuSans-30"/>
       <use x="222.65625" xlink:href="#DejaVuSans-31"/>
      </g>
     </g>
    </g>
    <g id="xtick_2">
     <g id="line2d_2">
      <g>
       <use style="stroke:#000000;stroke-width:0.8;" x="135.68024" xlink:href="#mb821ed345c" y="183.496"/>
      </g>
     </g>
     <g id="text_2">
      <!-- 0.1 -->
      <g transform="translate(119.777115 205.692875)scale(0.2 -0.2)">
       <use xlink:href="#DejaVuSans-30"/>
       <use x="63.623047" xlink:href="#DejaVuSans-2e"/>
       <use x="95.410156" xlink:href="#DejaVuSans-31"/>
      </g>
     </g>
    </g>
    <g id="xtick_3">
     <g id="line2d_3">
      <g>
       <use style="stroke:#000000;stroke-width:0.8;" x="168.357721" xlink:href="#mb821ed345c" y="183.496"/>
      </g>
     </g>
     <g id="text_3">
      <!-- 1 -->
      <g transform="translate(161.995221 205.692875)scale(0.2 -0.2)">
       <use xlink:href="#DejaVuSans-31"/>
      </g>
     </g>
    </g>
    <g id="xtick_4">
     <g id="line2d_4">
      <g>
       <use style="stroke:#000000;stroke-width:0.8;" x="201.035201" xlink:href="#mb821ed345c" y="183.496"/>
      </g>
     </g>
     <g id="text_4">
      <!-- 10 -->
      <g transform="translate(188.310201 205.692875)scale(0.2 -0.2)">
       <use xlink:href="#DejaVuSans-31"/>
       <use x="63.623047" xlink:href="#DejaVuSans-30"/>
      </g>
     </g>
    </g>
    <g id="text_5">
     <!-- population density -->
     <defs>
      <path d="M 18.109375 8.203125 
L 18.109375 -20.796875 
L 9.078125 -20.796875 
L 9.078125 54.6875 
L 18.109375 54.6875 
L 18.109375 46.390625 
Q 20.953125 51.265625 25.265625 53.625 
Q 29.59375 56 35.59375 56 
Q 45.5625 56 51.78125 48.09375 
Q 58.015625 40.1875 58.015625 27.296875 
Q 58.015625 14.40625 51.78125 6.484375 
Q 45.5625 -1.421875 35.59375 -1.421875 
Q 29.59375 -1.421875 25.265625 0.953125 
Q 20.953125 3.328125 18.109375 8.203125 
z
M 48.6875 27.296875 
Q 48.6875 37.203125 44.609375 42.84375 
Q 40.53125 48.484375 33.40625 48.484375 
Q 26.265625 48.484375 22.1875 42.84375 
Q 18.109375 37.203125 18.109375 27.296875 
Q 18.109375 17.390625 22.1875 11.75 
Q 26.265625 6.109375 33.40625 6.109375 
Q 40.53125 6.109375 44.609375 11.75 
Q 48.6875 17.390625 48.6875 27.296875 
z
" id="DejaVuSans-70"/>
      <path d="M 30.609375 48.390625 
Q 23.390625 48.390625 19.1875 42.75 
Q 14.984375 37.109375 14.984375 27.296875 
Q 14.984375 17.484375 19.15625 11.84375 
Q 23.34375 6.203125 30.609375 6.203125 
Q 37.796875 6.203125 41.984375 11.859375 
Q 46.1875 17.53125 46.1875 27.296875 
Q 46.1875 37.015625 41.984375 42.703125 
Q 37.796875 48.390625 30.609375 48.390625 
z
M 30.609375 56 
Q 42.328125 56 49.015625 48.375 
Q 55.71875 40.765625 55.71875 27.296875 
Q 55.71875 13.875 49.015625 6.21875 
Q 42.328125 -1.421875 30.609375 -1.421875 
Q 18.84375 -1.421875 12.171875 6.21875 
Q 5.515625 13.875 5.515625 27.296875 
Q 5.515625 40.765625 12.171875 48.375 
Q 18.84375 56 30.609375 56 
z
" id="DejaVuSans-6f"/>
      <path d="M 8.5 21.578125 
L 8.5 54.6875 
L 17.484375 54.6875 
L 17.484375 21.921875 
Q 17.484375 14.15625 20.5 10.265625 
Q 23.53125 6.390625 29.59375 6.390625 
Q 36.859375 6.390625 41.078125 11.03125 
Q 45.3125 15.671875 45.3125 23.6875 
L 45.3125 54.6875 
L 54.296875 54.6875 
L 54.296875 0 
L 45.3125 0 
L 45.3125 8.40625 
Q 42.046875 3.421875 37.71875 1 
Q 33.40625 -1.421875 27.6875 -1.421875 
Q 18.265625 -1.421875 13.375 4.4375 
Q 8.5 10.296875 8.5 21.578125 
z
M 31.109375 56 
z
" id="DejaVuSans-75"/>
      <path d="M 9.421875 75.984375 
L 18.40625 75.984375 
L 18.40625 0 
L 9.421875 0 
z
" id="DejaVuSans-6c"/>
      <path d="M 34.28125 27.484375 
Q 23.390625 27.484375 19.1875 25 
Q 14.984375 22.515625 14.984375 16.5 
Q 14.984375 11.71875 18.140625 8.90625 
Q 21.296875 6.109375 26.703125 6.109375 
Q 34.1875 6.109375 38.703125 11.40625 
Q 43.21875 16.703125 43.21875 25.484375 
L 43.21875 27.484375 
z
M 52.203125 31.203125 
L 52.203125 0 
L 43.21875 0 
L 43.21875 8.296875 
Q 40.140625 3.328125 35.546875 0.953125 
Q 30.953125 -1.421875 24.3125 -1.421875 
Q 15.921875 -1.421875 10.953125 3.296875 
Q 6 8.015625 6 15.921875 
Q 6 25.140625 12.171875 29.828125 
Q 18.359375 34.515625 30.609375 34.515625 
L 43.21875 34.515625 
L 43.21875 35.40625 
Q 43.21875 41.609375 39.140625 45 
Q 35.0625 48.390625 27.6875 48.390625 
Q 23 48.390625 18.546875 47.265625 
Q 14.109375 46.140625 10.015625 43.890625 
L 10.015625 52.203125 
Q 14.9375 54.109375 19.578125 55.046875 
Q 24.21875 56 28.609375 56 
Q 40.484375 56 46.34375 49.84375 
Q 52.203125 43.703125 52.203125 31.203125 
z
" id="DejaVuSans-61"/>
      <path d="M 18.3125 70.21875 
L 18.3125 54.6875 
L 36.8125 54.6875 
L 36.8125 47.703125 
L 18.3125 47.703125 
L 18.3125 18.015625 
Q 18.3125 11.328125 20.140625 9.421875 
Q 21.96875 7.515625 27.59375 7.515625 
L 36.8125 7.515625 
L 36.8125 0 
L 27.59375 0 
Q 17.1875 0 13.234375 3.875 
Q 9.28125 7.765625 9.28125 18.015625 
L 9.28125 47.703125 
L 2.6875 47.703125 
L 2.6875 54.6875 
L 9.28125 54.6875 
L 9.28125 70.21875 
z
" id="DejaVuSans-74"/>
      <path d="M 9.421875 54.6875 
L 18.40625 54.6875 
L 18.40625 0 
L 9.421875 0 
z
M 9.421875 75.984375 
L 18.40625 75.984375 
L 18.40625 64.59375 
L 9.421875 64.59375 
z
" id="DejaVuSans-69"/>
      <path d="M 54.890625 33.015625 
L 54.890625 0 
L 45.90625 0 
L 45.90625 32.71875 
Q 45.90625 40.484375 42.875 44.328125 
Q 39.84375 48.1875 33.796875 48.1875 
Q 26.515625 48.1875 22.3125 43.546875 
Q 18.109375 38.921875 18.109375 30.90625 
L 18.109375 0 
L 9.078125 0 
L 9.078125 54.6875 
L 18.109375 54.6875 
L 18.109375 46.1875 
Q 21.34375 51.125 25.703125 53.5625 
Q 30.078125 56 35.796875 56 
Q 45.21875 56 50.046875 50.171875 
Q 54.890625 44.34375 54.890625 33.015625 
z
" id="DejaVuSans-6e"/>
      <path id="DejaVuSans-20"/>
      <path d="M 45.40625 46.390625 
L 45.40625 75.984375 
L 54.390625 75.984375 
L 54.390625 0 
L 45.40625 0 
L 45.40625 8.203125 
Q 42.578125 3.328125 38.25 0.953125 
Q 33.9375 -1.421875 27.875 -1.421875 
Q 17.96875 -1.421875 11.734375 6.484375 
Q 5.515625 14.40625 5.515625 27.296875 
Q 5.515625 40.1875 11.734375 48.09375 
Q 17.96875 56 27.875 56 
Q 33.9375 56 38.25 53.625 
Q 42.578125 51.265625 45.40625 46.390625 
z
M 14.796875 27.296875 
Q 14.796875 17.390625 18.875 11.75 
Q 22.953125 6.109375 30.078125 6.109375 
Q 37.203125 6.109375 41.296875 11.75 
Q 45.40625 17.390625 45.40625 27.296875 
Q 45.40625 37.203125 41.296875 42.84375 
Q 37.203125 48.484375 30.078125 48.484375 
Q 22.953125 48.484375 18.875 42.84375 
Q 14.796875 37.203125 14.796875 27.296875 
z
" id="DejaVuSans-64"/>
      <path d="M 56.203125 29.59375 
L 56.203125 25.203125 
L 14.890625 25.203125 
Q 15.484375 15.921875 20.484375 11.0625 
Q 25.484375 6.203125 34.421875 6.203125 
Q 39.59375 6.203125 44.453125 7.46875 
Q 49.3125 8.734375 54.109375 11.28125 
L 54.109375 2.78125 
Q 49.265625 0.734375 44.1875 -0.34375 
Q 39.109375 -1.421875 33.890625 -1.421875 
Q 20.796875 -1.421875 13.15625 6.1875 
Q 5.515625 13.8125 5.515625 26.8125 
Q 5.515625 40.234375 12.765625 48.109375 
Q 20.015625 56 32.328125 56 
Q 43.359375 56 49.78125 48.890625 
Q 56.203125 41.796875 56.203125 29.59375 
z
M 47.21875 32.234375 
Q 47.125 39.59375 43.09375 43.984375 
Q 39.0625 48.390625 32.421875 48.390625 
Q 24.90625 48.390625 20.390625 44.140625 
Q 15.875 39.890625 15.1875 32.171875 
z
" id="DejaVuSans-65"/>
      <path d="M 44.28125 53.078125 
L 44.28125 44.578125 
Q 40.484375 46.53125 36.375 47.5 
Q 32.28125 48.484375 27.875 48.484375 
Q 21.1875 48.484375 17.84375 46.4375 
Q 14.5 44.390625 14.5 40.28125 
Q 14.5 37.15625 16.890625 35.375 
Q 19.28125 33.59375 26.515625 31.984375 
L 29.59375 31.296875 
Q 39.15625 29.25 43.1875 25.515625 
Q 47.21875 21.78125 47.21875 15.09375 
Q 47.21875 7.46875 41.1875 3.015625 
Q 35.15625 -1.421875 24.609375 -1.421875 
Q 20.21875 -1.421875 15.453125 -0.5625 
Q 10.6875 0.296875 5.421875 2 
L 5.421875 11.28125 
Q 10.40625 8.6875 15.234375 7.390625 
Q 20.0625 6.109375 24.8125 6.109375 
Q 31.15625 6.109375 34.5625 8.28125 
Q 37.984375 10.453125 37.984375 14.40625 
Q 37.984375 18.0625 35.515625 20.015625 
Q 33.0625 21.96875 24.703125 23.78125 
L 21.578125 24.515625 
Q 13.234375 26.265625 9.515625 29.90625 
Q 5.8125 33.546875 5.8125 39.890625 
Q 5.8125 47.609375 11.28125 51.796875 
Q 16.75 56 26.8125 56 
Q 31.78125 56 36.171875 55.265625 
Q 40.578125 54.546875 44.28125 53.078125 
z
" id="DejaVuSans-73"/>
      <path d="M 32.171875 -5.078125 
Q 28.375 -14.84375 24.75 -17.8125 
Q 21.140625 -20.796875 15.09375 -20.796875 
L 7.90625 -20.796875 
L 7.90625 -13.28125 
L 13.1875 -13.28125 
Q 16.890625 -13.28125 18.9375 -11.515625 
Q 21 -9.765625 23.484375 -3.21875 
L 25.09375 0.875 
L 2.984375 54.6875 
L 12.5 54.6875 
L 29.59375 11.921875 
L 46.6875 54.6875 
L 56.203125 54.6875 
z
" id="DejaVuSans-79"/>
     </defs>
     <g transform="translate(27.677734 232.848344)scale(0.25 -0.25)">
      <use xlink:href="#DejaVuSans-70"/>
      <use x="63.476562" xlink:href="#DejaVuSans-6f"/>
      <use x="124.658203" xlink:href="#DejaVuSans-70"/>
      <use x="188.134766" xlink:href="#DejaVuSans-75"/>
      <use x="251.513672" xlink:href="#DejaVuSans-6c"/>
      <use x="279.296875" xlink:href="#DejaVuSans-61"/>
      <use x="340.576172" xlink:href="#DejaVuSans-74"/>
      <use x="379.785156" xlink:href="#DejaVuSans-69"/>
      <use x="407.568359" xlink:href="#DejaVuSans-6f"/>
      <use x="468.75" xlink:href="#DejaVuSans-6e"/>
      <use x="532.128906" xlink:href="#DejaVuSans-20"/>
      <use x="563.916016" xlink:href="#DejaVuSans-64"/>
      <use x="627.392578" xlink:href="#DejaVuSans-65"/>
      <use x="688.916016" xlink:href="#DejaVuSans-6e"/>
      <use x="752.294922" xlink:href="#DejaVuSans-73"/>
      <use x="804.394531" xlink:href="#DejaVuSans-69"/>
      <use x="832.177734" xlink:href="#DejaVuSans-74"/>
      <use x="871.386719" xlink:href="#DejaVuSans-79"/>
     </g>
     <!-- people/ha -->
     <defs>
      <path d="M 25.390625 72.90625 
L 33.6875 72.90625 
L 8.296875 -9.28125 
L 0 -9.28125 
z
" id="DejaVuSans-2f"/>
      <path d="M 54.890625 33.015625 
L 54.890625 0 
L 45.90625 0 
L 45.90625 32.71875 
Q 45.90625 40.484375 42.875 44.328125 
Q 39.84375 48.1875 33.796875 48.1875 
Q 26.515625 48.1875 22.3125 43.546875 
Q 18.109375 38.921875 18.109375 30.90625 
L 18.109375 0 
L 9.078125 0 
L 9.078125 75.984375 
L 18.109375 75.984375 
L 18.109375 46.1875 
Q 21.34375 51.125 25.703125 53.5625 
Q 30.078125 56 35.796875 56 
Q 45.21875 56 50.046875 50.171875 
Q 54.890625 44.34375 54.890625 33.015625 
z
" id="DejaVuSans-68"/>
     </defs>
     <g transform="translate(81.832031 260.842875)scale(0.25 -0.25)">
      <use xlink:href="#DejaVuSans-70"/>
      <use x="63.476562" xlink:href="#DejaVuSans-65"/>
      <use x="125" xlink:href="#DejaVuSans-6f"/>
      <use x="186.181641" xlink:href="#DejaVuSans-70"/>
      <use x="249.658203" xlink:href="#DejaVuSans-6c"/>
      <use x="277.441406" xlink:href="#DejaVuSans-65"/>
      <use x="338.964844" xlink:href="#DejaVuSans-2f"/>
      <use x="372.65625" xlink:href="#DejaVuSans-68"/>
      <use x="436.035156" xlink:href="#DejaVuSans-61"/>
     </g>
    </g>
   </g>
   <g id="line2d_5">
    <path clip-path="url(#p604275cef5)" d="M 62.272727 176.065637 
L 65.499455 176.001598 
L 68.726182 175.893174 
L 71.952909 175.691 
L 75.179637 175.370066 
L 78.406364 174.955458 
L 81.633091 174.485257 
L 84.859818 173.938519 
L 88.086546 173.209684 
L 91.313273 172.15963 
L 94.54 170.675507 
L 97.766728 168.653812 
L 100.993455 165.920511 
L 104.220182 162.207989 
L 107.44691 157.251962 
L 110.673637 150.857155 
L 113.900364 142.714555 
L 117.127092 132.112318 
L 120.353819 118.131729 
L 123.580546 100.591354 
L 126.807274 80.896302 
L 130.034001 61.699543 
L 133.260728 45.699742 
L 136.487455 34.897714 
L 139.714183 30.562545 
L 142.94091 33.001635 
L 146.167637 40.994595 
L 149.394365 51.886636 
L 152.621092 62.803743 
L 155.847819 72.080298 
L 159.074547 79.714949 
L 162.301274 86.709132 
L 165.528001 94.079477 
L 168.754729 102.229856 
L 171.981456 110.830983 
L 175.208183 119.1455 
L 178.434911 126.596478 
L 181.661638 133.112616 
L 184.888365 138.93139 
L 188.115092 144.159052 
L 191.34182 148.633534 
L 194.568547 152.160806 
L 197.795274 154.739046 
L 201.022002 156.555421 
L 204.248729 157.90534 
L 207.475456 159.132785 
L 210.702184 160.492348 
L 213.928911 161.988253 
L 217.155638 163.419113 
L 220.382366 164.612616 
" style="fill:none;stroke:#e69f00;stroke-linecap:square;stroke-width:2;"/>
   </g>
   <g id="line2d_6">
    <path clip-path="url(#p604275cef5)" d="M 62.272727 166.705996 
L 65.499455 165.150615 
L 68.726182 163.342005 
L 71.952909 161.243619 
L 75.179637 158.834685 
L 78.406364 156.134574 
L 81.633091 153.219365 
L 84.859818 150.209797 
L 88.086546 147.227872 
L 91.313273 144.345169 
L 94.54 141.554705 
L 97.766728 138.778885 
L 100.993455 135.897336 
L 104.220182 132.770137 
L 107.44691 129.250274 
L 110.673637 125.199591 
L 113.900364 120.521836 
L 117.127092 115.209486 
L 120.353819 109.387288 
L 123.580546 103.331814 
L 126.807274 97.449817 
L 130.034001 92.2107 
L 133.260728 88.049854 
L 136.487455 85.274926 
L 139.714183 84.003177 
L 142.94091 84.144752 
L 146.167637 85.438626 
L 149.394365 87.538594 
L 152.621092 90.124375 
L 155.847819 92.993061 
L 159.074547 96.095164 
L 162.301274 99.511629 
L 165.528001 103.390599 
L 168.754729 107.863421 
L 171.981456 112.959768 
L 175.208183 118.554323 
L 178.434911 124.380507 
L 181.661638 130.11674 
L 184.888365 135.501982 
L 188.115092 140.412734 
L 191.34182 144.859632 
L 194.568547 148.919399 
L 197.795274 152.65883 
L 201.022002 156.099103 
L 204.248729 159.225855 
L 207.475456 162.01738 
L 210.702184 164.464812 
L 213.928911 166.578486 
L 217.155638 168.386215 
L 220.382366 169.92715 
" style="fill:none;stroke:#424243;stroke-linecap:square;stroke-width:2;"/>
   </g>
   <g id="patch_3">
    <path d="M 54.1 183.496 
L 233.9 183.496 
" style="fill:none;stroke:#000000;stroke-linecap:square;stroke-linejoin:miter;stroke-width:0.8;"/>
   </g>
  </g>
 </g>
 <defs>
  <clipPath id="p604275cef5">
   <rect height="160.216" width="179.8" x="54.1" y="23.28"/>
  </clipPath>
 </defs>
</svg>
