<?xml version="1.0" encoding="utf-8" standalone="no"?>
<!DOCTYPE svg PUBLIC "-//W3C//DTD SVG 1.1//EN"
  "http://www.w3.org/Graphics/SVG/1.1/DTD/svg11.dtd">
<!-- Created with matplotlib (http://matplotlib.org/) -->
<svg height="288pt" version="1.1" viewBox="0 0 288 288" width="288pt" xmlns="http://www.w3.org/2000/svg" xmlns:xlink="http://www.w3.org/1999/xlink">
 <defs>
  <style type="text/css">
*{stroke-linecap:butt;stroke-linejoin:round;}
  </style>
 </defs>
 <g id="figure_1">
  <g id="patch_1">
   <path d="M 0 288 
L 288 288 
L 288 0 
L 0 0 
z
" style="fill:#ffffff;"/>
  </g>
  <g id="axes_1">
   <g id="patch_2">
    <path d="M 43.251196 183.67 
L 264.825 183.67 
L 264.825 23.175 
L 43.251196 23.175 
z
" style="fill:#ffffff;"/>
   </g>
   <g id="PolyCollection_1">
    <defs>
     <path d="M 53.322733 -111.625227 
L 53.322733 -153.2764 
L 57.433564 -163.193507 
L 61.544395 -172.123811 
L 65.655226 -179.480025 
L 69.766058 -185.133159 
L 73.876889 -189.36082 
L 77.98772 -192.641327 
L 82.098551 -195.407785 
L 86.209383 -197.87395 
L 90.320214 -199.985975 
L 94.431045 -201.490009 
L 98.541876 -202.068512 
L 102.652708 -201.488145 
L 106.763539 -199.706061 
L 110.87437 -196.896545 
L 114.985201 -193.390849 
L 119.096033 -189.563202 
L 123.206864 -185.721578 
L 127.317695 -182.052396 
L 131.428526 -178.629093 
L 135.539358 -175.455659 
L 139.650189 -172.505639 
L 143.76102 -169.736933 
L 147.871851 -167.090756 
L 151.982682 -164.494876 
L 156.093514 -161.881476 
L 160.204345 -159.212045 
L 164.315176 -156.493073 
L 168.426007 -153.77235 
L 172.536839 -151.118854 
L 176.64767 -148.598156 
L 180.758501 -146.255236 
L 184.869332 -144.110358 
L 188.980164 -142.166849 
L 193.090995 -140.425294 
L 197.201826 -138.896874 
L 201.312657 -137.608585 
L 205.423489 -136.59531 
L 209.53432 -135.879046 
L 213.645151 -135.443 
L 217.755982 -135.213801 
L 221.866814 -135.063886 
L 225.977645 -134.837253 
L 230.088476 -134.389481 
L 234.199307 -133.62509 
L 238.310139 -132.516836 
L 242.42097 -131.101342 
L 246.531801 -129.456854 
L 250.642632 -127.675276 
L 254.753463 -125.839575 
L 254.753463 -111.625227 
L 254.753463 -111.625227 
L 250.642632 -111.625227 
L 246.531801 -111.625227 
L 242.42097 -111.625227 
L 238.310139 -111.625227 
L 234.199307 -111.625227 
L 230.088476 -111.625227 
L 225.977645 -111.625227 
L 221.866814 -111.625227 
L 217.755982 -111.625227 
L 213.645151 -111.625227 
L 209.53432 -111.625227 
L 205.423489 -111.625227 
L 201.312657 -111.625227 
L 197.201826 -111.625227 
L 193.090995 -111.625227 
L 188.980164 -111.625227 
L 184.869332 -111.625227 
L 180.758501 -111.625227 
L 176.64767 -111.625227 
L 172.536839 -111.625227 
L 168.426007 -111.625227 
L 164.315176 -111.625227 
L 160.204345 -111.625227 
L 156.093514 -111.625227 
L 151.982682 -111.625227 
L 147.871851 -111.625227 
L 143.76102 -111.625227 
L 139.650189 -111.625227 
L 135.539358 -111.625227 
L 131.428526 -111.625227 
L 127.317695 -111.625227 
L 123.206864 -111.625227 
L 119.096033 -111.625227 
L 114.985201 -111.625227 
L 110.87437 -111.625227 
L 106.763539 -111.625227 
L 102.652708 -111.625227 
L 98.541876 -111.625227 
L 94.431045 -111.625227 
L 90.320214 -111.625227 
L 86.209383 -111.625227 
L 82.098551 -111.625227 
L 77.98772 -111.625227 
L 73.876889 -111.625227 
L 69.766058 -111.625227 
L 65.655226 -111.625227 
L 61.544395 -111.625227 
L 57.433564 -111.625227 
L 53.322733 -111.625227 
z
" id="m778aee082e" style="stroke:#cc79a7;stroke-opacity:0.3;"/>
    </defs>
    <g clip-path="url(#pad3147bddc)">
     <use style="fill:#cc79a7;fill-opacity:0.3;stroke:#cc79a7;stroke-opacity:0.3;" x="0" xlink:href="#m778aee082e" y="288"/>
    </g>
   </g>
   <g id="PolyCollection_2">
    <defs>
     <path d="M 53.322733 -111.625227 
L 53.322733 -163.212191 
L 57.433564 -179.458701 
L 61.544395 -196.934425 
L 65.655226 -214.673355 
L 69.766058 -231.315906 
L 73.876889 -245.113475 
L 77.98772 -254.263215 
L 82.098551 -257.529773 
L 86.209383 -254.802337 
L 90.320214 -247.181807 
L 94.431045 -236.503391 
L 98.541876 -224.60883 
L 102.652708 -212.817648 
L 106.763539 -201.820966 
L 110.87437 -191.886509 
L 114.985201 -183.110636 
L 119.096033 -175.541722 
L 123.206864 -169.175875 
L 127.317695 -163.923254 
L 131.428526 -159.617942 
L 135.539358 -156.066645 
L 139.650189 -153.090172 
L 143.76102 -150.533779 
L 147.871851 -148.264488 
L 151.982682 -146.180791 
L 156.093514 -144.229682 
L 160.204345 -142.403742 
L 164.315176 -140.709336 
L 168.426007 -139.132395 
L 172.536839 -137.633977 
L 176.64767 -136.175769 
L 180.758501 -134.74531 
L 184.869332 -133.356179 
L 188.980164 -132.028246 
L 193.090995 -130.771277 
L 197.201826 -129.586061 
L 201.312657 -128.476536 
L 205.423489 -127.456253 
L 209.53432 -126.539439 
L 213.645151 -125.722545 
L 217.755982 -124.972575 
L 221.866814 -124.234878 
L 225.977645 -123.457779 
L 230.088476 -122.61751 
L 234.199307 -121.726758 
L 238.310139 -120.823449 
L 242.42097 -119.950132 
L 246.531801 -119.136767 
L 250.642632 -118.392272 
L 254.753463 -117.703599 
L 254.753463 -111.625227 
L 254.753463 -111.625227 
L 250.642632 -111.625227 
L 246.531801 -111.625227 
L 242.42097 -111.625227 
L 238.310139 -111.625227 
L 234.199307 -111.625227 
L 230.088476 -111.625227 
L 225.977645 -111.625227 
L 221.866814 -111.625227 
L 217.755982 -111.625227 
L 213.645151 -111.625227 
L 209.53432 -111.625227 
L 205.423489 -111.625227 
L 201.312657 -111.625227 
L 197.201826 -111.625227 
L 193.090995 -111.625227 
L 188.980164 -111.625227 
L 184.869332 -111.625227 
L 180.758501 -111.625227 
L 176.64767 -111.625227 
L 172.536839 -111.625227 
L 168.426007 -111.625227 
L 164.315176 -111.625227 
L 160.204345 -111.625227 
L 156.093514 -111.625227 
L 151.982682 -111.625227 
L 147.871851 -111.625227 
L 143.76102 -111.625227 
L 139.650189 -111.625227 
L 135.539358 -111.625227 
L 131.428526 -111.625227 
L 127.317695 -111.625227 
L 123.206864 -111.625227 
L 119.096033 -111.625227 
L 114.985201 -111.625227 
L 110.87437 -111.625227 
L 106.763539 -111.625227 
L 102.652708 -111.625227 
L 98.541876 -111.625227 
L 94.431045 -111.625227 
L 90.320214 -111.625227 
L 86.209383 -111.625227 
L 82.098551 -111.625227 
L 77.98772 -111.625227 
L 73.876889 -111.625227 
L 69.766058 -111.625227 
L 65.655226 -111.625227 
L 61.544395 -111.625227 
L 57.433564 -111.625227 
L 53.322733 -111.625227 
z
" id="m3562dc2db4" style="stroke:#424243;stroke-opacity:0.3;"/>
    </defs>
    <g clip-path="url(#pad3147bddc)">
     <use style="fill:#424243;fill-opacity:0.3;stroke:#424243;stroke-opacity:0.3;" x="0" xlink:href="#m3562dc2db4" y="288"/>
    </g>
   </g>
   <g id="matplotlib.axis_1">
    <g id="xtick_1">
     <g id="line2d_1">
      <defs>
       <path d="M 0 0 
L 0 3.5 
" id="m884d89b6f0" style="stroke:#000000;stroke-width:0.8;"/>
      </defs>
      <g>
       <use style="stroke:#000000;stroke-width:0.8;" x="44.006054" xlink:href="#m884d89b6f0" y="183.67"/>
      </g>
     </g>
     <g id="text_1">
      <!-- 0.00 -->
      <defs>
       <path d="M 31.78125 66.40625 
Q 24.171875 66.40625 20.328125 58.90625 
Q 16.5 51.421875 16.5 36.375 
Q 16.5 21.390625 20.328125 13.890625 
Q 24.171875 6.390625 31.78125 6.390625 
Q 39.453125 6.390625 43.28125 13.890625 
Q 47.125 21.390625 47.125 36.375 
Q 47.125 51.421875 43.28125 58.90625 
Q 39.453125 66.40625 31.78125 66.40625 
z
M 31.78125 74.21875 
Q 44.046875 74.21875 50.515625 64.515625 
Q 56.984375 54.828125 56.984375 36.375 
Q 56.984375 17.96875 50.515625 8.265625 
Q 44.046875 -1.421875 31.78125 -1.421875 
Q 19.53125 -1.421875 13.0625 8.265625 
Q 6.59375 17.96875 6.59375 36.375 
Q 6.59375 54.828125 13.0625 64.515625 
Q 19.53125 74.21875 31.78125 74.21875 
z
" id="DejaVuSans-30"/>
       <path d="M 10.6875 12.40625 
L 21 12.40625 
L 21 0 
L 10.6875 0 
z
" id="DejaVuSans-2e"/>
      </defs>
      <g transform="translate(21.740429 205.866875)scale(0.2 -0.2)">
       <use xlink:href="#DejaVuSans-30"/>
       <use x="63.623047" xlink:href="#DejaVuSans-2e"/>
       <use x="95.410156" xlink:href="#DejaVuSans-30"/>
       <use x="159.033203" xlink:href="#DejaVuSans-30"/>
      </g>
     </g>
    </g>
    <g id="xtick_2">
     <g id="line2d_2">
      <g>
       <use style="stroke:#000000;stroke-width:0.8;" x="159.405532" xlink:href="#m884d89b6f0" y="183.67"/>
      </g>
     </g>
     <g id="text_2">
      <!-- 0.05 -->
      <defs>
       <path d="M 10.796875 72.90625 
L 49.515625 72.90625 
L 49.515625 64.59375 
L 19.828125 64.59375 
L 19.828125 46.734375 
Q 21.96875 47.46875 24.109375 47.828125 
Q 26.265625 48.1875 28.421875 48.1875 
Q 40.625 48.1875 47.75 41.5 
Q 54.890625 34.8125 54.890625 23.390625 
Q 54.890625 11.625 47.5625 5.09375 
Q 40.234375 -1.421875 26.90625 -1.421875 
Q 22.3125 -1.421875 17.546875 -0.640625 
Q 12.796875 0.140625 7.71875 1.703125 
L 7.71875 11.625 
Q 12.109375 9.234375 16.796875 8.0625 
Q 21.484375 6.890625 26.703125 6.890625 
Q 35.15625 6.890625 40.078125 11.328125 
Q 45.015625 15.765625 45.015625 23.390625 
Q 45.015625 31 40.078125 35.4375 
Q 35.15625 39.890625 26.703125 39.890625 
Q 22.75 39.890625 18.8125 39.015625 
Q 14.890625 38.140625 10.796875 36.28125 
z
" id="DejaVuSans-35"/>
      </defs>
      <g transform="translate(137.139907 205.866875)scale(0.2 -0.2)">
       <use xlink:href="#DejaVuSans-30"/>
       <use x="63.623047" xlink:href="#DejaVuSans-2e"/>
       <use x="95.410156" xlink:href="#DejaVuSans-30"/>
       <use x="159.033203" xlink:href="#DejaVuSans-35"/>
      </g>
     </g>
    </g>
    <g id="text_3">
     <!-- cloud cover -->
     <defs>
      <path d="M 48.78125 52.59375 
L 48.78125 44.1875 
Q 44.96875 46.296875 41.140625 47.34375 
Q 37.3125 48.390625 33.40625 48.390625 
Q 24.65625 48.390625 19.8125 42.84375 
Q 14.984375 37.3125 14.984375 27.296875 
Q 14.984375 17.28125 19.8125 11.734375 
Q 24.65625 6.203125 33.40625 6.203125 
Q 37.3125 6.203125 41.140625 7.25 
Q 44.96875 8.296875 48.78125 10.40625 
L 48.78125 2.09375 
Q 45.015625 0.34375 40.984375 -0.53125 
Q 36.96875 -1.421875 32.421875 -1.421875 
Q 20.0625 -1.421875 12.78125 6.34375 
Q 5.515625 14.109375 5.515625 27.296875 
Q 5.515625 40.671875 12.859375 48.328125 
Q 20.21875 56 33.015625 56 
Q 37.15625 56 41.109375 55.140625 
Q 45.0625 54.296875 48.78125 52.59375 
z
" id="DejaVuSans-63"/>
      <path d="M 9.421875 75.984375 
L 18.40625 75.984375 
L 18.40625 0 
L 9.421875 0 
z
" id="DejaVuSans-6c"/>
      <path d="M 30.609375 48.390625 
Q 23.390625 48.390625 19.1875 42.75 
Q 14.984375 37.109375 14.984375 27.296875 
Q 14.984375 17.484375 19.15625 11.84375 
Q 23.34375 6.203125 30.609375 6.203125 
Q 37.796875 6.203125 41.984375 11.859375 
Q 46.1875 17.53125 46.1875 27.296875 
Q 46.1875 37.015625 41.984375 42.703125 
Q 37.796875 48.390625 30.609375 48.390625 
z
M 30.609375 56 
Q 42.328125 56 49.015625 48.375 
Q 55.71875 40.765625 55.71875 27.296875 
Q 55.71875 13.875 49.015625 6.21875 
Q 42.328125 -1.421875 30.609375 -1.421875 
Q 18.84375 -1.421875 12.171875 6.21875 
Q 5.515625 13.875 5.515625 27.296875 
Q 5.515625 40.765625 12.171875 48.375 
Q 18.84375 56 30.609375 56 
z
" id="DejaVuSans-6f"/>
      <path d="M 8.5 21.578125 
L 8.5 54.6875 
L 17.484375 54.6875 
L 17.484375 21.921875 
Q 17.484375 14.15625 20.5 10.265625 
Q 23.53125 6.390625 29.59375 6.390625 
Q 36.859375 6.390625 41.078125 11.03125 
Q 45.3125 15.671875 45.3125 23.6875 
L 45.3125 54.6875 
L 54.296875 54.6875 
L 54.296875 0 
L 45.3125 0 
L 45.3125 8.40625 
Q 42.046875 3.421875 37.71875 1 
Q 33.40625 -1.421875 27.6875 -1.421875 
Q 18.265625 -1.421875 13.375 4.4375 
Q 8.5 10.296875 8.5 21.578125 
z
M 31.109375 56 
z
" id="DejaVuSans-75"/>
      <path d="M 45.40625 46.390625 
L 45.40625 75.984375 
L 54.390625 75.984375 
L 54.390625 0 
L 45.40625 0 
L 45.40625 8.203125 
Q 42.578125 3.328125 38.25 0.953125 
Q 33.9375 -1.421875 27.875 -1.421875 
Q 17.96875 -1.421875 11.734375 6.484375 
Q 5.515625 14.40625 5.515625 27.296875 
Q 5.515625 40.1875 11.734375 48.09375 
Q 17.96875 56 27.875 56 
Q 33.9375 56 38.25 53.625 
Q 42.578125 51.265625 45.40625 46.390625 
z
M 14.796875 27.296875 
Q 14.796875 17.390625 18.875 11.75 
Q 22.953125 6.109375 30.078125 6.109375 
Q 37.203125 6.109375 41.296875 11.75 
Q 45.40625 17.390625 45.40625 27.296875 
Q 45.40625 37.203125 41.296875 42.84375 
Q 37.203125 48.484375 30.078125 48.484375 
Q 22.953125 48.484375 18.875 42.84375 
Q 14.796875 37.203125 14.796875 27.296875 
z
" id="DejaVuSans-64"/>
      <path id="DejaVuSans-20"/>
      <path d="M 2.984375 54.6875 
L 12.5 54.6875 
L 29.59375 8.796875 
L 46.6875 54.6875 
L 56.203125 54.6875 
L 35.6875 0 
L 23.484375 0 
z
" id="DejaVuSans-76"/>
      <path d="M 56.203125 29.59375 
L 56.203125 25.203125 
L 14.890625 25.203125 
Q 15.484375 15.921875 20.484375 11.0625 
Q 25.484375 6.203125 34.421875 6.203125 
Q 39.59375 6.203125 44.453125 7.46875 
Q 49.3125 8.734375 54.109375 11.28125 
L 54.109375 2.78125 
Q 49.265625 0.734375 44.1875 -0.34375 
Q 39.109375 -1.421875 33.890625 -1.421875 
Q 20.796875 -1.421875 13.15625 6.1875 
Q 5.515625 13.8125 5.515625 26.8125 
Q 5.515625 40.234375 12.765625 48.109375 
Q 20.015625 56 32.328125 56 
Q 43.359375 56 49.78125 48.890625 
Q 56.203125 41.796875 56.203125 29.59375 
z
M 47.21875 32.234375 
Q 47.125 39.59375 43.09375 43.984375 
Q 39.0625 48.390625 32.421875 48.390625 
Q 24.90625 48.390625 20.390625 44.140625 
Q 15.875 39.890625 15.1875 32.171875 
z
" id="DejaVuSans-65"/>
      <path d="M 41.109375 46.296875 
Q 39.59375 47.171875 37.8125 47.578125 
Q 36.03125 48 33.890625 48 
Q 26.265625 48 22.1875 43.046875 
Q 18.109375 38.09375 18.109375 28.8125 
L 18.109375 0 
L 9.078125 0 
L 9.078125 54.6875 
L 18.109375 54.6875 
L 18.109375 46.1875 
Q 20.953125 51.171875 25.484375 53.578125 
Q 30.03125 56 36.53125 56 
Q 37.453125 56 38.578125 55.875 
Q 39.703125 55.765625 41.0625 55.515625 
z
" id="DejaVuSans-72"/>
     </defs>
     <g transform="translate(81.463879 233.022344)scale(0.25 -0.25)">
      <use xlink:href="#DejaVuSans-63"/>
      <use x="54.980469" xlink:href="#DejaVuSans-6c"/>
      <use x="82.763672" xlink:href="#DejaVuSans-6f"/>
      <use x="143.945312" xlink:href="#DejaVuSans-75"/>
      <use x="207.324219" xlink:href="#DejaVuSans-64"/>
      <use x="270.800781" xlink:href="#DejaVuSans-20"/>
      <use x="302.587891" xlink:href="#DejaVuSans-63"/>
      <use x="357.568359" xlink:href="#DejaVuSans-6f"/>
      <use x="418.75" xlink:href="#DejaVuSans-76"/>
      <use x="477.929688" xlink:href="#DejaVuSans-65"/>
      <use x="539.453125" xlink:href="#DejaVuSans-72"/>
     </g>
     <!-- variance -->
     <defs>
      <path d="M 34.28125 27.484375 
Q 23.390625 27.484375 19.1875 25 
Q 14.984375 22.515625 14.984375 16.5 
Q 14.984375 11.71875 18.140625 8.90625 
Q 21.296875 6.109375 26.703125 6.109375 
Q 34.1875 6.109375 38.703125 11.40625 
Q 43.21875 16.703125 43.21875 25.484375 
L 43.21875 27.484375 
z
M 52.203125 31.203125 
L 52.203125 0 
L 43.21875 0 
L 43.21875 8.296875 
Q 40.140625 3.328125 35.546875 0.953125 
Q 30.953125 -1.421875 24.3125 -1.421875 
Q 15.921875 -1.421875 10.953125 3.296875 
Q 6 8.015625 6 15.921875 
Q 6 25.140625 12.171875 29.828125 
Q 18.359375 34.515625 30.609375 34.515625 
L 43.21875 34.515625 
L 43.21875 35.40625 
Q 43.21875 41.609375 39.140625 45 
Q 35.0625 48.390625 27.6875 48.390625 
Q 23 48.390625 18.546875 47.265625 
Q 14.109375 46.140625 10.015625 43.890625 
L 10.015625 52.203125 
Q 14.9375 54.109375 19.578125 55.046875 
Q 24.21875 56 28.609375 56 
Q 40.484375 56 46.34375 49.84375 
Q 52.203125 43.703125 52.203125 31.203125 
z
" id="DejaVuSans-61"/>
      <path d="M 9.421875 54.6875 
L 18.40625 54.6875 
L 18.40625 0 
L 9.421875 0 
z
M 9.421875 75.984375 
L 18.40625 75.984375 
L 18.40625 64.59375 
L 9.421875 64.59375 
z
" id="DejaVuSans-69"/>
      <path d="M 54.890625 33.015625 
L 54.890625 0 
L 45.90625 0 
L 45.90625 32.71875 
Q 45.90625 40.484375 42.875 44.328125 
Q 39.84375 48.1875 33.796875 48.1875 
Q 26.515625 48.1875 22.3125 43.546875 
Q 18.109375 38.921875 18.109375 30.90625 
L 18.109375 0 
L 9.078125 0 
L 9.078125 54.6875 
L 18.109375 54.6875 
L 18.109375 46.1875 
Q 21.34375 51.125 25.703125 53.5625 
Q 30.078125 56 35.796875 56 
Q 45.21875 56 50.046875 50.171875 
Q 54.890625 44.34375 54.890625 33.015625 
z
" id="DejaVuSans-6e"/>
     </defs>
     <g transform="translate(100.221692 261.016875)scale(0.25 -0.25)">
      <use xlink:href="#DejaVuSans-76"/>
      <use x="59.179688" xlink:href="#DejaVuSans-61"/>
      <use x="120.458984" xlink:href="#DejaVuSans-72"/>
      <use x="161.572266" xlink:href="#DejaVuSans-69"/>
      <use x="189.355469" xlink:href="#DejaVuSans-61"/>
      <use x="250.634766" xlink:href="#DejaVuSans-6e"/>
      <use x="314.013672" xlink:href="#DejaVuSans-63"/>
      <use x="368.994141" xlink:href="#DejaVuSans-65"/>
     </g>
    </g>
   </g>
   <g id="line2d_3">
    <path clip-path="url(#pad3147bddc)" d="M 53.322733 134.7236 
L 57.433564 124.806493 
L 61.544395 115.876189 
L 65.655226 108.519975 
L 69.766058 102.866841 
L 73.876889 98.63918 
L 77.98772 95.358673 
L 82.098551 92.592215 
L 86.209383 90.12605 
L 90.320214 88.014025 
L 94.431045 86.509991 
L 98.541876 85.931488 
L 102.652708 86.511855 
L 106.763539 88.293939 
L 110.87437 91.103455 
L 114.985201 94.609151 
L 119.096033 98.436798 
L 123.206864 102.278422 
L 127.317695 105.947604 
L 131.428526 109.370907 
L 135.539358 112.544341 
L 139.650189 115.494361 
L 143.76102 118.263067 
L 147.871851 120.909244 
L 151.982682 123.505124 
L 156.093514 126.118524 
L 160.204345 128.787955 
L 164.315176 131.506927 
L 168.426007 134.22765 
L 172.536839 136.881146 
L 176.64767 139.401844 
L 180.758501 141.744764 
L 184.869332 143.889642 
L 188.980164 145.833151 
L 193.090995 147.574706 
L 197.201826 149.103126 
L 201.312657 150.391415 
L 205.423489 151.40469 
L 209.53432 152.120954 
L 213.645151 152.557 
L 217.755982 152.786199 
L 221.866814 152.936114 
L 225.977645 153.162747 
L 230.088476 153.610519 
L 234.199307 154.37491 
L 238.310139 155.483164 
L 242.42097 156.898658 
L 246.531801 158.543146 
L 250.642632 160.324724 
L 254.753463 162.160425 
" style="fill:none;stroke:#cc79a7;stroke-linecap:square;stroke-width:2;"/>
   </g>
   <g id="line2d_4">
    <path clip-path="url(#pad3147bddc)" d="M 53.322733 124.787809 
L 57.433564 108.541299 
L 61.544395 91.065575 
L 65.655226 73.326645 
L 69.766058 56.684094 
L 73.876889 42.886525 
L 77.98772 33.736785 
L 82.098551 30.470227 
L 86.209383 33.197663 
L 90.320214 40.818193 
L 94.431045 51.496609 
L 98.541876 63.39117 
L 102.652708 75.182352 
L 106.763539 86.179034 
L 110.87437 96.113491 
L 114.985201 104.889364 
L 119.096033 112.458278 
L 123.206864 118.824125 
L 127.317695 124.076746 
L 131.428526 128.382058 
L 135.539358 131.933355 
L 139.650189 134.909828 
L 143.76102 137.466221 
L 147.871851 139.735512 
L 151.982682 141.819209 
L 156.093514 143.770318 
L 160.204345 145.596258 
L 164.315176 147.290664 
L 168.426007 148.867605 
L 172.536839 150.366023 
L 176.64767 151.824231 
L 180.758501 153.25469 
L 184.869332 154.643821 
L 188.980164 155.971754 
L 193.090995 157.228723 
L 197.201826 158.413939 
L 201.312657 159.523464 
L 205.423489 160.543747 
L 209.53432 161.460561 
L 213.645151 162.277455 
L 217.755982 163.027425 
L 221.866814 163.765122 
L 225.977645 164.542221 
L 230.088476 165.38249 
L 234.199307 166.273242 
L 238.310139 167.176551 
L 242.42097 168.049868 
L 246.531801 168.863233 
L 250.642632 169.607728 
L 254.753463 170.296401 
" style="fill:none;stroke:#424243;stroke-linecap:square;stroke-width:2;"/>
   </g>
   <g id="patch_3">
    <path d="M 43.251196 183.67 
L 264.825 183.67 
" style="fill:none;stroke:#000000;stroke-linecap:square;stroke-linejoin:miter;stroke-width:0.8;"/>
   </g>
  </g>
 </g>
 <defs>
  <clipPath id="pad3147bddc">
   <rect height="160.495" width="221.573804" x="43.251196" y="23.175"/>
  </clipPath>
 </defs>
</svg>
