<?xml version="1.0" encoding="utf-8" standalone="no"?>
<!DOCTYPE svg PUBLIC "-//W3C//DTD SVG 1.1//EN"
  "http://www.w3.org/Graphics/SVG/1.1/DTD/svg11.dtd">
<!-- Created with matplotlib (http://matplotlib.org/) -->
<svg height="288pt" version="1.1" viewBox="0 0 288 288" width="288pt" xmlns="http://www.w3.org/2000/svg" xmlns:xlink="http://www.w3.org/1999/xlink">
 <defs>
  <style type="text/css">
*{stroke-linecap:butt;stroke-linejoin:round;}
  </style>
 </defs>
 <g id="figure_1">
  <g id="patch_1">
   <path d="M 0 288 
L 288 288 
L 288 0 
L 0 0 
z
" style="fill:#ffffff;"/>
  </g>
  <g id="axes_1">
   <g id="patch_2">
    <path d="M 37.302344 183.67 
L 250.697656 183.67 
L 250.697656 23.175 
L 37.302344 23.175 
z
" style="fill:#ffffff;"/>
   </g>
   <g id="PolyCollection_1">
    <defs>
     <path d="M 47.002131 -111.625227 
L 47.002131 -167.874938 
L 50.961227 -207.684776 
L 54.920324 -234.612775 
L 58.879421 -233.675977 
L 62.838518 -210.16282 
L 66.797614 -180.372804 
L 70.756711 -155.649432 
L 74.715808 -138.775706 
L 78.674904 -128.354125 
L 82.634001 -122.299833 
L 86.593098 -118.910086 
L 90.552194 -116.933706 
L 94.511291 -115.603453 
L 98.470388 -114.597707 
L 102.429485 -113.818734 
L 106.388581 -113.251566 
L 110.347678 -112.908693 
L 114.306775 -112.746936 
L 118.265871 -112.655601 
L 122.224968 -112.549653 
L 126.184065 -112.42682 
L 130.143162 -112.325009 
L 134.102258 -112.261223 
L 138.061355 -112.21172 
L 142.020452 -112.138325 
L 145.979548 -112.038505 
L 149.938645 -111.947011 
L 153.897742 -111.887621 
L 157.856838 -111.85965 
L 161.815935 -111.855215 
L 165.775032 -111.858283 
L 169.734129 -111.847794 
L 173.693225 -111.820629 
L 177.652322 -111.793622 
L 181.611419 -111.778319 
L 185.570515 -111.771094 
L 189.529612 -111.766542 
L 193.488709 -111.763748 
L 197.447806 -111.761983 
L 201.406902 -111.763839 
L 205.365999 -111.775679 
L 209.325096 -111.791275 
L 213.284192 -111.786733 
L 217.243289 -111.752588 
L 221.202386 -111.713806 
L 225.161482 -111.698431 
L 229.120579 -111.708784 
L 233.079676 -111.728039 
L 237.038773 -111.739675 
L 240.997869 -111.747256 
L 240.997869 -111.625227 
L 240.997869 -111.625227 
L 237.038773 -111.625227 
L 233.079676 -111.625227 
L 229.120579 -111.625227 
L 225.161482 -111.625227 
L 221.202386 -111.625227 
L 217.243289 -111.625227 
L 213.284192 -111.625227 
L 209.325096 -111.625227 
L 205.365999 -111.625227 
L 201.406902 -111.625227 
L 197.447806 -111.625227 
L 193.488709 -111.625227 
L 189.529612 -111.625227 
L 185.570515 -111.625227 
L 181.611419 -111.625227 
L 177.652322 -111.625227 
L 173.693225 -111.625227 
L 169.734129 -111.625227 
L 165.775032 -111.625227 
L 161.815935 -111.625227 
L 157.856838 -111.625227 
L 153.897742 -111.625227 
L 149.938645 -111.625227 
L 145.979548 -111.625227 
L 142.020452 -111.625227 
L 138.061355 -111.625227 
L 134.102258 -111.625227 
L 130.143162 -111.625227 
L 126.184065 -111.625227 
L 122.224968 -111.625227 
L 118.265871 -111.625227 
L 114.306775 -111.625227 
L 110.347678 -111.625227 
L 106.388581 -111.625227 
L 102.429485 -111.625227 
L 98.470388 -111.625227 
L 94.511291 -111.625227 
L 90.552194 -111.625227 
L 86.593098 -111.625227 
L 82.634001 -111.625227 
L 78.674904 -111.625227 
L 74.715808 -111.625227 
L 70.756711 -111.625227 
L 66.797614 -111.625227 
L 62.838518 -111.625227 
L 58.879421 -111.625227 
L 54.920324 -111.625227 
L 50.961227 -111.625227 
L 47.002131 -111.625227 
z
" id="m534af64a66" style="stroke:#cc79a7;stroke-opacity:0.3;"/>
    </defs>
    <g clip-path="url(#p2a04654f5d)">
     <use style="fill:#cc79a7;fill-opacity:0.3;stroke:#cc79a7;stroke-opacity:0.3;" x="0" xlink:href="#m534af64a66" y="288"/>
    </g>
   </g>
   <g id="PolyCollection_2">
    <defs>
     <path d="M 47.002131 -111.625227 
L 47.002131 -141.361575 
L 50.961227 -142.308125 
L 54.920324 -142.885873 
L 58.879421 -143.075277 
L 62.838518 -142.871573 
L 66.797614 -142.284979 
L 70.756711 -141.339951 
L 74.715808 -140.073547 
L 78.674904 -138.533068 
L 82.634001 -136.773167 
L 86.593098 -134.852681 
L 90.552194 -132.831443 
L 94.511291 -130.76729 
L 98.470388 -128.713491 
L 102.429485 -126.716722 
L 106.388581 -124.815672 
L 110.347678 -123.040312 
L 114.306775 -121.41177 
L 118.265871 -119.942748 
L 122.224968 -118.638348 
L 126.184065 -117.497196 
L 130.143162 -116.512726 
L 134.102258 -115.674501 
L 138.061355 -114.969483 
L 142.020452 -114.383172 
L 145.979548 -113.90057 
L 149.938645 -113.506946 
L 153.897742 -113.188396 
L 157.856838 -112.932222 
L 161.815935 -112.727145 
L 165.775032 -112.56339 
L 169.734129 -112.432661 
L 173.693225 -112.328059 
L 177.652322 -112.243945 
L 181.611419 -112.175785 
L 185.570515 -112.119992 
L 189.529612 -112.073763 
L 193.488709 -112.034941 
L 197.447806 -112.001887 
L 201.406902 -111.973369 
L 205.365999 -111.94847 
L 209.325096 -111.926516 
L 213.284192 -111.907014 
L 217.243289 -111.889603 
L 221.202386 -111.874016 
L 225.161482 -111.860053 
L 229.120579 -111.847554 
L 233.079676 -111.836388 
L 237.038773 -111.826437 
L 240.997869 -111.81759 
L 240.997869 -111.625227 
L 240.997869 -111.625227 
L 237.038773 -111.625227 
L 233.079676 -111.625227 
L 229.120579 -111.625227 
L 225.161482 -111.625227 
L 221.202386 -111.625227 
L 217.243289 -111.625227 
L 213.284192 -111.625227 
L 209.325096 -111.625227 
L 205.365999 -111.625227 
L 201.406902 -111.625227 
L 197.447806 -111.625227 
L 193.488709 -111.625227 
L 189.529612 -111.625227 
L 185.570515 -111.625227 
L 181.611419 -111.625227 
L 177.652322 -111.625227 
L 173.693225 -111.625227 
L 169.734129 -111.625227 
L 165.775032 -111.625227 
L 161.815935 -111.625227 
L 157.856838 -111.625227 
L 153.897742 -111.625227 
L 149.938645 -111.625227 
L 145.979548 -111.625227 
L 142.020452 -111.625227 
L 138.061355 -111.625227 
L 134.102258 -111.625227 
L 130.143162 -111.625227 
L 126.184065 -111.625227 
L 122.224968 -111.625227 
L 118.265871 -111.625227 
L 114.306775 -111.625227 
L 110.347678 -111.625227 
L 106.388581 -111.625227 
L 102.429485 -111.625227 
L 98.470388 -111.625227 
L 94.511291 -111.625227 
L 90.552194 -111.625227 
L 86.593098 -111.625227 
L 82.634001 -111.625227 
L 78.674904 -111.625227 
L 74.715808 -111.625227 
L 70.756711 -111.625227 
L 66.797614 -111.625227 
L 62.838518 -111.625227 
L 58.879421 -111.625227 
L 54.920324 -111.625227 
L 50.961227 -111.625227 
L 47.002131 -111.625227 
z
" id="m77114c64b6" style="stroke:#424243;stroke-opacity:0.3;"/>
    </defs>
    <g clip-path="url(#p2a04654f5d)">
     <use style="fill:#424243;fill-opacity:0.3;stroke:#424243;stroke-opacity:0.3;" x="0" xlink:href="#m77114c64b6" y="288"/>
    </g>
   </g>
   <g id="matplotlib.axis_1">
    <g id="xtick_1">
     <g id="line2d_1">
      <defs>
       <path d="M 0 0 
L 0 3.5 
" id="mfa7f94ab23" style="stroke:#000000;stroke-width:0.8;"/>
      </defs>
      <g>
       <use style="stroke:#000000;stroke-width:0.8;" x="52.224025" xlink:href="#mfa7f94ab23" y="183.67"/>
      </g>
     </g>
     <g id="text_1">
      <!-- 0 -->
      <defs>
       <path d="M 31.78125 66.40625 
Q 24.171875 66.40625 20.328125 58.90625 
Q 16.5 51.421875 16.5 36.375 
Q 16.5 21.390625 20.328125 13.890625 
Q 24.171875 6.390625 31.78125 6.390625 
Q 39.453125 6.390625 43.28125 13.890625 
Q 47.125 21.390625 47.125 36.375 
Q 47.125 51.421875 43.28125 58.90625 
Q 39.453125 66.40625 31.78125 66.40625 
z
M 31.78125 74.21875 
Q 44.046875 74.21875 50.515625 64.515625 
Q 56.984375 54.828125 56.984375 36.375 
Q 56.984375 17.96875 50.515625 8.265625 
Q 44.046875 -1.421875 31.78125 -1.421875 
Q 19.53125 -1.421875 13.0625 8.265625 
Q 6.59375 17.96875 6.59375 36.375 
Q 6.59375 54.828125 13.0625 64.515625 
Q 19.53125 74.21875 31.78125 74.21875 
z
" id="DejaVuSans-30"/>
      </defs>
      <g transform="translate(45.861525 205.866875)scale(0.2 -0.2)">
       <use xlink:href="#DejaVuSans-30"/>
      </g>
     </g>
    </g>
    <g id="xtick_2">
     <g id="line2d_2">
      <g>
       <use style="stroke:#000000;stroke-width:0.8;" x="126.669129" xlink:href="#mfa7f94ab23" y="183.67"/>
      </g>
     </g>
     <g id="text_2">
      <!-- 20 -->
      <defs>
       <path d="M 19.1875 8.296875 
L 53.609375 8.296875 
L 53.609375 0 
L 7.328125 0 
L 7.328125 8.296875 
Q 12.9375 14.109375 22.625 23.890625 
Q 32.328125 33.6875 34.8125 36.53125 
Q 39.546875 41.84375 41.421875 45.53125 
Q 43.3125 49.21875 43.3125 52.78125 
Q 43.3125 58.59375 39.234375 62.25 
Q 35.15625 65.921875 28.609375 65.921875 
Q 23.96875 65.921875 18.8125 64.3125 
Q 13.671875 62.703125 7.8125 59.421875 
L 7.8125 69.390625 
Q 13.765625 71.78125 18.9375 73 
Q 24.125 74.21875 28.421875 74.21875 
Q 39.75 74.21875 46.484375 68.546875 
Q 53.21875 62.890625 53.21875 53.421875 
Q 53.21875 48.921875 51.53125 44.890625 
Q 49.859375 40.875 45.40625 35.40625 
Q 44.1875 33.984375 37.640625 27.21875 
Q 31.109375 20.453125 19.1875 8.296875 
z
" id="DejaVuSans-32"/>
      </defs>
      <g transform="translate(113.944129 205.866875)scale(0.2 -0.2)">
       <use xlink:href="#DejaVuSans-32"/>
       <use x="63.623047" xlink:href="#DejaVuSans-30"/>
      </g>
     </g>
    </g>
    <g id="xtick_3">
     <g id="line2d_3">
      <g>
       <use style="stroke:#000000;stroke-width:0.8;" x="201.114233" xlink:href="#mfa7f94ab23" y="183.67"/>
      </g>
     </g>
     <g id="text_3">
      <!-- 40 -->
      <defs>
       <path d="M 37.796875 64.3125 
L 12.890625 25.390625 
L 37.796875 25.390625 
z
M 35.203125 72.90625 
L 47.609375 72.90625 
L 47.609375 25.390625 
L 58.015625 25.390625 
L 58.015625 17.1875 
L 47.609375 17.1875 
L 47.609375 0 
L 37.796875 0 
L 37.796875 17.1875 
L 4.890625 17.1875 
L 4.890625 26.703125 
z
" id="DejaVuSans-34"/>
      </defs>
      <g transform="translate(188.389233 205.866875)scale(0.2 -0.2)">
       <use xlink:href="#DejaVuSans-34"/>
       <use x="63.623047" xlink:href="#DejaVuSans-30"/>
      </g>
     </g>
    </g>
    <g id="text_4">
     <!-- leaf area index -->
     <defs>
      <path d="M 9.421875 75.984375 
L 18.40625 75.984375 
L 18.40625 0 
L 9.421875 0 
z
" id="DejaVuSans-6c"/>
      <path d="M 56.203125 29.59375 
L 56.203125 25.203125 
L 14.890625 25.203125 
Q 15.484375 15.921875 20.484375 11.0625 
Q 25.484375 6.203125 34.421875 6.203125 
Q 39.59375 6.203125 44.453125 7.46875 
Q 49.3125 8.734375 54.109375 11.28125 
L 54.109375 2.78125 
Q 49.265625 0.734375 44.1875 -0.34375 
Q 39.109375 -1.421875 33.890625 -1.421875 
Q 20.796875 -1.421875 13.15625 6.1875 
Q 5.515625 13.8125 5.515625 26.8125 
Q 5.515625 40.234375 12.765625 48.109375 
Q 20.015625 56 32.328125 56 
Q 43.359375 56 49.78125 48.890625 
Q 56.203125 41.796875 56.203125 29.59375 
z
M 47.21875 32.234375 
Q 47.125 39.59375 43.09375 43.984375 
Q 39.0625 48.390625 32.421875 48.390625 
Q 24.90625 48.390625 20.390625 44.140625 
Q 15.875 39.890625 15.1875 32.171875 
z
" id="DejaVuSans-65"/>
      <path d="M 34.28125 27.484375 
Q 23.390625 27.484375 19.1875 25 
Q 14.984375 22.515625 14.984375 16.5 
Q 14.984375 11.71875 18.140625 8.90625 
Q 21.296875 6.109375 26.703125 6.109375 
Q 34.1875 6.109375 38.703125 11.40625 
Q 43.21875 16.703125 43.21875 25.484375 
L 43.21875 27.484375 
z
M 52.203125 31.203125 
L 52.203125 0 
L 43.21875 0 
L 43.21875 8.296875 
Q 40.140625 3.328125 35.546875 0.953125 
Q 30.953125 -1.421875 24.3125 -1.421875 
Q 15.921875 -1.421875 10.953125 3.296875 
Q 6 8.015625 6 15.921875 
Q 6 25.140625 12.171875 29.828125 
Q 18.359375 34.515625 30.609375 34.515625 
L 43.21875 34.515625 
L 43.21875 35.40625 
Q 43.21875 41.609375 39.140625 45 
Q 35.0625 48.390625 27.6875 48.390625 
Q 23 48.390625 18.546875 47.265625 
Q 14.109375 46.140625 10.015625 43.890625 
L 10.015625 52.203125 
Q 14.9375 54.109375 19.578125 55.046875 
Q 24.21875 56 28.609375 56 
Q 40.484375 56 46.34375 49.84375 
Q 52.203125 43.703125 52.203125 31.203125 
z
" id="DejaVuSans-61"/>
      <path d="M 37.109375 75.984375 
L 37.109375 68.5 
L 28.515625 68.5 
Q 23.6875 68.5 21.796875 66.546875 
Q 19.921875 64.59375 19.921875 59.515625 
L 19.921875 54.6875 
L 34.71875 54.6875 
L 34.71875 47.703125 
L 19.921875 47.703125 
L 19.921875 0 
L 10.890625 0 
L 10.890625 47.703125 
L 2.296875 47.703125 
L 2.296875 54.6875 
L 10.890625 54.6875 
L 10.890625 58.5 
Q 10.890625 67.625 15.140625 71.796875 
Q 19.390625 75.984375 28.609375 75.984375 
z
" id="DejaVuSans-66"/>
      <path id="DejaVuSans-20"/>
      <path d="M 41.109375 46.296875 
Q 39.59375 47.171875 37.8125 47.578125 
Q 36.03125 48 33.890625 48 
Q 26.265625 48 22.1875 43.046875 
Q 18.109375 38.09375 18.109375 28.8125 
L 18.109375 0 
L 9.078125 0 
L 9.078125 54.6875 
L 18.109375 54.6875 
L 18.109375 46.1875 
Q 20.953125 51.171875 25.484375 53.578125 
Q 30.03125 56 36.53125 56 
Q 37.453125 56 38.578125 55.875 
Q 39.703125 55.765625 41.0625 55.515625 
z
" id="DejaVuSans-72"/>
      <path d="M 9.421875 54.6875 
L 18.40625 54.6875 
L 18.40625 0 
L 9.421875 0 
z
M 9.421875 75.984375 
L 18.40625 75.984375 
L 18.40625 64.59375 
L 9.421875 64.59375 
z
" id="DejaVuSans-69"/>
      <path d="M 54.890625 33.015625 
L 54.890625 0 
L 45.90625 0 
L 45.90625 32.71875 
Q 45.90625 40.484375 42.875 44.328125 
Q 39.84375 48.1875 33.796875 48.1875 
Q 26.515625 48.1875 22.3125 43.546875 
Q 18.109375 38.921875 18.109375 30.90625 
L 18.109375 0 
L 9.078125 0 
L 9.078125 54.6875 
L 18.109375 54.6875 
L 18.109375 46.1875 
Q 21.34375 51.125 25.703125 53.5625 
Q 30.078125 56 35.796875 56 
Q 45.21875 56 50.046875 50.171875 
Q 54.890625 44.34375 54.890625 33.015625 
z
" id="DejaVuSans-6e"/>
      <path d="M 45.40625 46.390625 
L 45.40625 75.984375 
L 54.390625 75.984375 
L 54.390625 0 
L 45.40625 0 
L 45.40625 8.203125 
Q 42.578125 3.328125 38.25 0.953125 
Q 33.9375 -1.421875 27.875 -1.421875 
Q 17.96875 -1.421875 11.734375 6.484375 
Q 5.515625 14.40625 5.515625 27.296875 
Q 5.515625 40.1875 11.734375 48.09375 
Q 17.96875 56 27.875 56 
Q 33.9375 56 38.25 53.625 
Q 42.578125 51.265625 45.40625 46.390625 
z
M 14.796875 27.296875 
Q 14.796875 17.390625 18.875 11.75 
Q 22.953125 6.109375 30.078125 6.109375 
Q 37.203125 6.109375 41.296875 11.75 
Q 45.40625 17.390625 45.40625 27.296875 
Q 45.40625 37.203125 41.296875 42.84375 
Q 37.203125 48.484375 30.078125 48.484375 
Q 22.953125 48.484375 18.875 42.84375 
Q 14.796875 37.203125 14.796875 27.296875 
z
" id="DejaVuSans-64"/>
      <path d="M 54.890625 54.6875 
L 35.109375 28.078125 
L 55.90625 0 
L 45.3125 0 
L 29.390625 21.484375 
L 13.484375 0 
L 2.875 0 
L 24.125 28.609375 
L 4.6875 54.6875 
L 15.28125 54.6875 
L 29.78125 35.203125 
L 44.28125 54.6875 
z
" id="DejaVuSans-78"/>
     </defs>
     <g transform="translate(50.265625 233.022344)scale(0.25 -0.25)">
      <use xlink:href="#DejaVuSans-6c"/>
      <use x="27.783203" xlink:href="#DejaVuSans-65"/>
      <use x="89.306641" xlink:href="#DejaVuSans-61"/>
      <use x="150.585938" xlink:href="#DejaVuSans-66"/>
      <use x="185.791016" xlink:href="#DejaVuSans-20"/>
      <use x="217.578125" xlink:href="#DejaVuSans-61"/>
      <use x="278.857422" xlink:href="#DejaVuSans-72"/>
      <use x="319.939453" xlink:href="#DejaVuSans-65"/>
      <use x="381.462891" xlink:href="#DejaVuSans-61"/>
      <use x="442.742188" xlink:href="#DejaVuSans-20"/>
      <use x="474.529297" xlink:href="#DejaVuSans-69"/>
      <use x="502.3125" xlink:href="#DejaVuSans-6e"/>
      <use x="565.691406" xlink:href="#DejaVuSans-64"/>
      <use x="629.167969" xlink:href="#DejaVuSans-65"/>
      <use x="690.675781" xlink:href="#DejaVuSans-78"/>
     </g>
     <!-- kurtosis -->
     <defs>
      <path d="M 9.078125 75.984375 
L 18.109375 75.984375 
L 18.109375 31.109375 
L 44.921875 54.6875 
L 56.390625 54.6875 
L 27.390625 29.109375 
L 57.625 0 
L 45.90625 0 
L 18.109375 26.703125 
L 18.109375 0 
L 9.078125 0 
z
" id="DejaVuSans-6b"/>
      <path d="M 8.5 21.578125 
L 8.5 54.6875 
L 17.484375 54.6875 
L 17.484375 21.921875 
Q 17.484375 14.15625 20.5 10.265625 
Q 23.53125 6.390625 29.59375 6.390625 
Q 36.859375 6.390625 41.078125 11.03125 
Q 45.3125 15.671875 45.3125 23.6875 
L 45.3125 54.6875 
L 54.296875 54.6875 
L 54.296875 0 
L 45.3125 0 
L 45.3125 8.40625 
Q 42.046875 3.421875 37.71875 1 
Q 33.40625 -1.421875 27.6875 -1.421875 
Q 18.265625 -1.421875 13.375 4.4375 
Q 8.5 10.296875 8.5 21.578125 
z
M 31.109375 56 
z
" id="DejaVuSans-75"/>
      <path d="M 18.3125 70.21875 
L 18.3125 54.6875 
L 36.8125 54.6875 
L 36.8125 47.703125 
L 18.3125 47.703125 
L 18.3125 18.015625 
Q 18.3125 11.328125 20.140625 9.421875 
Q 21.96875 7.515625 27.59375 7.515625 
L 36.8125 7.515625 
L 36.8125 0 
L 27.59375 0 
Q 17.1875 0 13.234375 3.875 
Q 9.28125 7.765625 9.28125 18.015625 
L 9.28125 47.703125 
L 2.6875 47.703125 
L 2.6875 54.6875 
L 9.28125 54.6875 
L 9.28125 70.21875 
z
" id="DejaVuSans-74"/>
      <path d="M 30.609375 48.390625 
Q 23.390625 48.390625 19.1875 42.75 
Q 14.984375 37.109375 14.984375 27.296875 
Q 14.984375 17.484375 19.15625 11.84375 
Q 23.34375 6.203125 30.609375 6.203125 
Q 37.796875 6.203125 41.984375 11.859375 
Q 46.1875 17.53125 46.1875 27.296875 
Q 46.1875 37.015625 41.984375 42.703125 
Q 37.796875 48.390625 30.609375 48.390625 
z
M 30.609375 56 
Q 42.328125 56 49.015625 48.375 
Q 55.71875 40.765625 55.71875 27.296875 
Q 55.71875 13.875 49.015625 6.21875 
Q 42.328125 -1.421875 30.609375 -1.421875 
Q 18.84375 -1.421875 12.171875 6.21875 
Q 5.515625 13.875 5.515625 27.296875 
Q 5.515625 40.765625 12.171875 48.375 
Q 18.84375 56 30.609375 56 
z
" id="DejaVuSans-6f"/>
      <path d="M 44.28125 53.078125 
L 44.28125 44.578125 
Q 40.484375 46.53125 36.375 47.5 
Q 32.28125 48.484375 27.875 48.484375 
Q 21.1875 48.484375 17.84375 46.4375 
Q 14.5 44.390625 14.5 40.28125 
Q 14.5 37.15625 16.890625 35.375 
Q 19.28125 33.59375 26.515625 31.984375 
L 29.59375 31.296875 
Q 39.15625 29.25 43.1875 25.515625 
Q 47.21875 21.78125 47.21875 15.09375 
Q 47.21875 7.46875 41.1875 3.015625 
Q 35.15625 -1.421875 24.609375 -1.421875 
Q 20.21875 -1.421875 15.453125 -0.5625 
Q 10.6875 0.296875 5.421875 2 
L 5.421875 11.28125 
Q 10.40625 8.6875 15.234375 7.390625 
Q 20.0625 6.109375 24.8125 6.109375 
Q 31.15625 6.109375 34.5625 8.28125 
Q 37.984375 10.453125 37.984375 14.40625 
Q 37.984375 18.0625 35.515625 20.015625 
Q 33.0625 21.96875 24.703125 23.78125 
L 21.578125 24.515625 
Q 13.234375 26.265625 9.515625 29.90625 
Q 5.8125 33.546875 5.8125 39.890625 
Q 5.8125 47.609375 11.28125 51.796875 
Q 16.75 56 26.8125 56 
Q 31.78125 56 36.171875 55.265625 
Q 40.578125 54.546875 44.28125 53.078125 
z
" id="DejaVuSans-73"/>
     </defs>
     <g transform="translate(94.662109 261.016875)scale(0.25 -0.25)">
      <use xlink:href="#DejaVuSans-6b"/>
      <use x="57.863281" xlink:href="#DejaVuSans-75"/>
      <use x="121.242188" xlink:href="#DejaVuSans-72"/>
      <use x="162.355469" xlink:href="#DejaVuSans-74"/>
      <use x="201.564453" xlink:href="#DejaVuSans-6f"/>
      <use x="262.746094" xlink:href="#DejaVuSans-73"/>
      <use x="314.845703" xlink:href="#DejaVuSans-69"/>
      <use x="342.628906" xlink:href="#DejaVuSans-73"/>
     </g>
    </g>
   </g>
   <g id="line2d_4">
    <path clip-path="url(#p2a04654f5d)" d="M 47.002131 120.125062 
L 50.961227 80.315224 
L 54.920324 53.387225 
L 58.879421 54.324023 
L 62.838518 77.83718 
L 66.797614 107.627196 
L 70.756711 132.350568 
L 74.715808 149.224294 
L 78.674904 159.645875 
L 82.634001 165.700167 
L 86.593098 169.089914 
L 90.552194 171.066294 
L 94.511291 172.396547 
L 98.470388 173.402293 
L 102.429485 174.181266 
L 106.388581 174.748434 
L 110.347678 175.091307 
L 114.306775 175.253064 
L 118.265871 175.344399 
L 122.224968 175.450347 
L 126.184065 175.57318 
L 130.143162 175.674991 
L 134.102258 175.738777 
L 138.061355 175.78828 
L 142.020452 175.861675 
L 145.979548 175.961495 
L 149.938645 176.052989 
L 153.897742 176.112379 
L 157.856838 176.14035 
L 161.815935 176.144785 
L 165.775032 176.141717 
L 169.734129 176.152206 
L 173.693225 176.179371 
L 177.652322 176.206378 
L 181.611419 176.221681 
L 185.570515 176.228906 
L 189.529612 176.233458 
L 193.488709 176.236252 
L 197.447806 176.238017 
L 201.406902 176.236161 
L 205.365999 176.224321 
L 209.325096 176.208725 
L 213.284192 176.213267 
L 217.243289 176.247412 
L 221.202386 176.286194 
L 225.161482 176.301569 
L 229.120579 176.291216 
L 233.079676 176.271961 
L 237.038773 176.260325 
L 240.997869 176.252744 
" style="fill:none;stroke:#cc79a7;stroke-linecap:square;stroke-width:2;"/>
   </g>
   <g id="line2d_5">
    <path clip-path="url(#p2a04654f5d)" d="M 47.002131 146.638425 
L 50.961227 145.691875 
L 54.920324 145.114127 
L 58.879421 144.924723 
L 62.838518 145.128427 
L 66.797614 145.715021 
L 70.756711 146.660049 
L 74.715808 147.926453 
L 78.674904 149.466932 
L 82.634001 151.226833 
L 86.593098 153.147319 
L 90.552194 155.168557 
L 94.511291 157.23271 
L 98.470388 159.286509 
L 102.429485 161.283278 
L 106.388581 163.184328 
L 110.347678 164.959688 
L 114.306775 166.58823 
L 118.265871 168.057252 
L 122.224968 169.361652 
L 126.184065 170.502804 
L 130.143162 171.487274 
L 134.102258 172.325499 
L 138.061355 173.030517 
L 142.020452 173.616828 
L 145.979548 174.09943 
L 149.938645 174.493054 
L 153.897742 174.811604 
L 157.856838 175.067778 
L 161.815935 175.272855 
L 165.775032 175.43661 
L 169.734129 175.567339 
L 173.693225 175.671941 
L 177.652322 175.756055 
L 181.611419 175.824215 
L 185.570515 175.880008 
L 189.529612 175.926237 
L 193.488709 175.965059 
L 197.447806 175.998113 
L 201.406902 176.026631 
L 205.365999 176.05153 
L 209.325096 176.073484 
L 213.284192 176.092986 
L 217.243289 176.110397 
L 221.202386 176.125984 
L 225.161482 176.139947 
L 229.120579 176.152446 
L 233.079676 176.163612 
L 237.038773 176.173563 
L 240.997869 176.18241 
" style="fill:none;stroke:#424243;stroke-linecap:square;stroke-width:2;"/>
   </g>
   <g id="patch_3">
    <path d="M 37.302344 183.67 
L 250.697656 183.67 
" style="fill:none;stroke:#000000;stroke-linecap:square;stroke-linejoin:miter;stroke-width:0.8;"/>
   </g>
  </g>
 </g>
 <defs>
  <clipPath id="p2a04654f5d">
   <rect height="160.495" width="213.395313" x="37.302344" y="23.175"/>
  </clipPath>
 </defs>
</svg>
