<?xml version="1.0" encoding="utf-8" standalone="no"?>
<!DOCTYPE svg PUBLIC "-//W3C//DTD SVG 1.1//EN"
  "http://www.w3.org/Graphics/SVG/1.1/DTD/svg11.dtd">
<!-- Created with matplotlib (http://matplotlib.org/) -->
<svg height="288pt" version="1.1" viewBox="0 0 288 288" width="288pt" xmlns="http://www.w3.org/2000/svg" xmlns:xlink="http://www.w3.org/1999/xlink">
 <defs>
  <style type="text/css">
*{stroke-linecap:butt;stroke-linejoin:round;}
  </style>
 </defs>
 <g id="figure_1">
  <g id="patch_1">
   <path d="M 0 288 
L 288 288 
L 288 0 
L 0 0 
z
" style="fill:#ffffff;"/>
  </g>
  <g id="axes_1">
   <g id="patch_2">
    <path d="M 43.267898 183.496 
L 264.72 183.496 
L 264.72 23.28 
L 43.267898 23.28 
z
" style="fill:#ffffff;"/>
   </g>
   <g id="PolyCollection_1">
    <defs>
     <path d="M 53.333903 -111.786545 
L 53.333903 -145.330152 
L 57.226611 -154.028104 
L 61.119319 -162.794076 
L 65.012027 -171.489171 
L 68.904735 -180.155052 
L 72.797443 -188.853901 
L 76.690152 -197.496509 
L 80.58286 -205.770269 
L 84.475568 -213.20019 
L 88.368276 -219.281279 
L 92.260984 -223.586593 
L 96.153692 -225.803296 
L 100.0464 -225.727533 
L 103.939108 -223.282192 
L 107.831816 -218.580943 
L 111.724524 -211.992185 
L 115.617233 -204.130026 
L 119.509941 -195.743941 
L 123.402649 -187.552621 
L 127.295357 -180.104295 
L 131.188065 -173.718555 
L 135.080773 -168.505184 
L 138.973481 -164.416285 
L 142.866189 -161.293235 
L 146.758897 -158.901081 
L 150.651605 -156.965269 
L 154.544313 -155.221792 
L 158.437022 -153.472117 
L 162.32973 -151.620573 
L 166.222438 -149.67631 
L 170.115146 -147.71968 
L 174.007854 -145.850281 
L 177.900562 -144.140575 
L 181.79327 -142.613301 
L 185.685978 -141.2479 
L 189.578686 -140.007998 
L 193.471394 -138.873963 
L 197.364103 -137.864032 
L 201.256811 -137.033329 
L 205.149519 -136.449426 
L 209.042227 -136.153104 
L 212.934935 -136.120458 
L 216.827643 -136.244073 
L 220.720351 -136.344723 
L 224.613059 -136.212431 
L 228.505767 -135.662597 
L 232.398475 -134.58587 
L 236.291184 -132.973269 
L 240.183892 -130.909456 
L 244.0766 -128.541235 
L 244.0766 -111.786545 
L 244.0766 -111.786545 
L 240.183892 -111.786545 
L 236.291184 -111.786545 
L 232.398475 -111.786545 
L 228.505767 -111.786545 
L 224.613059 -111.786545 
L 220.720351 -111.786545 
L 216.827643 -111.786545 
L 212.934935 -111.786545 
L 209.042227 -111.786545 
L 205.149519 -111.786545 
L 201.256811 -111.786545 
L 197.364103 -111.786545 
L 193.471394 -111.786545 
L 189.578686 -111.786545 
L 185.685978 -111.786545 
L 181.79327 -111.786545 
L 177.900562 -111.786545 
L 174.007854 -111.786545 
L 170.115146 -111.786545 
L 166.222438 -111.786545 
L 162.32973 -111.786545 
L 158.437022 -111.786545 
L 154.544313 -111.786545 
L 150.651605 -111.786545 
L 146.758897 -111.786545 
L 142.866189 -111.786545 
L 138.973481 -111.786545 
L 135.080773 -111.786545 
L 131.188065 -111.786545 
L 127.295357 -111.786545 
L 123.402649 -111.786545 
L 119.509941 -111.786545 
L 115.617233 -111.786545 
L 111.724524 -111.786545 
L 107.831816 -111.786545 
L 103.939108 -111.786545 
L 100.0464 -111.786545 
L 96.153692 -111.786545 
L 92.260984 -111.786545 
L 88.368276 -111.786545 
L 84.475568 -111.786545 
L 80.58286 -111.786545 
L 76.690152 -111.786545 
L 72.797443 -111.786545 
L 68.904735 -111.786545 
L 65.012027 -111.786545 
L 61.119319 -111.786545 
L 57.226611 -111.786545 
L 53.333903 -111.786545 
z
" id="md82baa6a46" style="stroke:#e69f00;stroke-opacity:0.3;"/>
    </defs>
    <g clip-path="url(#p843c33860c)">
     <use style="fill:#e69f00;fill-opacity:0.3;stroke:#e69f00;stroke-opacity:0.3;" x="0" xlink:href="#md82baa6a46" y="288"/>
    </g>
   </g>
   <g id="PolyCollection_2">
    <defs>
     <path d="M 53.333903 -111.786545 
L 53.333903 -163.283832 
L 57.226611 -178.612431 
L 61.119319 -195.082406 
L 65.012027 -211.897013 
L 68.904735 -227.950697 
L 72.797443 -241.804886 
L 76.690152 -251.891271 
L 80.58286 -256.955993 
L 84.475568 -256.541833 
L 88.368276 -251.205798 
L 92.260984 -242.308403 
L 96.153692 -231.492964 
L 100.0464 -220.163215 
L 103.939108 -209.219048 
L 107.831816 -199.094497 
L 111.724524 -189.95328 
L 115.617233 -181.86218 
L 119.509941 -174.856641 
L 123.402649 -168.925258 
L 127.295357 -163.985431 
L 131.188065 -159.894413 
L 135.080773 -156.487648 
L 138.973481 -153.611336 
L 142.866189 -151.131644 
L 146.758897 -148.932058 
L 150.651605 -146.918483 
L 154.544313 -145.033101 
L 158.437022 -143.258752 
L 162.32973 -141.600799 
L 166.222438 -140.057636 
L 170.115146 -138.605002 
L 174.007854 -137.206332 
L 177.900562 -135.836019 
L 181.79327 -134.492409 
L 185.685978 -133.190856 
L 189.578686 -131.947097 
L 193.471394 -130.767413 
L 197.364103 -129.652035 
L 201.256811 -128.60486 
L 205.149519 -127.637693 
L 209.042227 -126.76299 
L 212.934935 -125.979537 
L 216.827643 -125.262481 
L 220.720351 -124.567202 
L 224.613059 -123.846766 
L 228.505767 -123.072537 
L 232.398475 -122.245216 
L 236.291184 -121.39077 
L 240.183892 -120.545987 
L 244.0766 -119.743116 
L 244.0766 -111.786545 
L 244.0766 -111.786545 
L 240.183892 -111.786545 
L 236.291184 -111.786545 
L 232.398475 -111.786545 
L 228.505767 -111.786545 
L 224.613059 -111.786545 
L 220.720351 -111.786545 
L 216.827643 -111.786545 
L 212.934935 -111.786545 
L 209.042227 -111.786545 
L 205.149519 -111.786545 
L 201.256811 -111.786545 
L 197.364103 -111.786545 
L 193.471394 -111.786545 
L 189.578686 -111.786545 
L 185.685978 -111.786545 
L 181.79327 -111.786545 
L 177.900562 -111.786545 
L 174.007854 -111.786545 
L 170.115146 -111.786545 
L 166.222438 -111.786545 
L 162.32973 -111.786545 
L 158.437022 -111.786545 
L 154.544313 -111.786545 
L 150.651605 -111.786545 
L 146.758897 -111.786545 
L 142.866189 -111.786545 
L 138.973481 -111.786545 
L 135.080773 -111.786545 
L 131.188065 -111.786545 
L 127.295357 -111.786545 
L 123.402649 -111.786545 
L 119.509941 -111.786545 
L 115.617233 -111.786545 
L 111.724524 -111.786545 
L 107.831816 -111.786545 
L 103.939108 -111.786545 
L 100.0464 -111.786545 
L 96.153692 -111.786545 
L 92.260984 -111.786545 
L 88.368276 -111.786545 
L 84.475568 -111.786545 
L 80.58286 -111.786545 
L 76.690152 -111.786545 
L 72.797443 -111.786545 
L 68.904735 -111.786545 
L 65.012027 -111.786545 
L 61.119319 -111.786545 
L 57.226611 -111.786545 
L 53.333903 -111.786545 
z
" id="m1b195fd861" style="stroke:#424243;stroke-opacity:0.3;"/>
    </defs>
    <g clip-path="url(#p843c33860c)">
     <use style="fill:#424243;fill-opacity:0.3;stroke:#424243;stroke-opacity:0.3;" x="0" xlink:href="#m1b195fd861" y="288"/>
    </g>
   </g>
   <g id="matplotlib.axis_1">
    <g id="xtick_1">
     <g id="line2d_1">
      <defs>
       <path d="M 0 0 
L 0 3.5 
" id="m60e0604399" style="stroke:#000000;stroke-width:0.8;"/>
      </defs>
      <g>
       <use style="stroke:#000000;stroke-width:0.8;" x="44.022341" xlink:href="#m60e0604399" y="183.496"/>
      </g>
     </g>
     <g id="text_1">
      <!-- 0.00 -->
      <defs>
       <path d="M 31.78125 66.40625 
Q 24.171875 66.40625 20.328125 58.90625 
Q 16.5 51.421875 16.5 36.375 
Q 16.5 21.390625 20.328125 13.890625 
Q 24.171875 6.390625 31.78125 6.390625 
Q 39.453125 6.390625 43.28125 13.890625 
Q 47.125 21.390625 47.125 36.375 
Q 47.125 51.421875 43.28125 58.90625 
Q 39.453125 66.40625 31.78125 66.40625 
z
M 31.78125 74.21875 
Q 44.046875 74.21875 50.515625 64.515625 
Q 56.984375 54.828125 56.984375 36.375 
Q 56.984375 17.96875 50.515625 8.265625 
Q 44.046875 -1.421875 31.78125 -1.421875 
Q 19.53125 -1.421875 13.0625 8.265625 
Q 6.59375 17.96875 6.59375 36.375 
Q 6.59375 54.828125 13.0625 64.515625 
Q 19.53125 74.21875 31.78125 74.21875 
z
" id="DejaVuSans-30"/>
       <path d="M 10.6875 12.40625 
L 21 12.40625 
L 21 0 
L 10.6875 0 
z
" id="DejaVuSans-2e"/>
      </defs>
      <g transform="translate(21.756716 205.692875)scale(0.2 -0.2)">
       <use xlink:href="#DejaVuSans-30"/>
       <use x="63.623047" xlink:href="#DejaVuSans-2e"/>
       <use x="95.410156" xlink:href="#DejaVuSans-30"/>
       <use x="159.033203" xlink:href="#DejaVuSans-30"/>
      </g>
     </g>
    </g>
    <g id="xtick_2">
     <g id="line2d_2">
      <g>
       <use style="stroke:#000000;stroke-width:0.8;" x="159.358435" xlink:href="#m60e0604399" y="183.496"/>
      </g>
     </g>
     <g id="text_2">
      <!-- 0.05 -->
      <defs>
       <path d="M 10.796875 72.90625 
L 49.515625 72.90625 
L 49.515625 64.59375 
L 19.828125 64.59375 
L 19.828125 46.734375 
Q 21.96875 47.46875 24.109375 47.828125 
Q 26.265625 48.1875 28.421875 48.1875 
Q 40.625 48.1875 47.75 41.5 
Q 54.890625 34.8125 54.890625 23.390625 
Q 54.890625 11.625 47.5625 5.09375 
Q 40.234375 -1.421875 26.90625 -1.421875 
Q 22.3125 -1.421875 17.546875 -0.640625 
Q 12.796875 0.140625 7.71875 1.703125 
L 7.71875 11.625 
Q 12.109375 9.234375 16.796875 8.0625 
Q 21.484375 6.890625 26.703125 6.890625 
Q 35.15625 6.890625 40.078125 11.328125 
Q 45.015625 15.765625 45.015625 23.390625 
Q 45.015625 31 40.078125 35.4375 
Q 35.15625 39.890625 26.703125 39.890625 
Q 22.75 39.890625 18.8125 39.015625 
Q 14.890625 38.140625 10.796875 36.28125 
z
" id="DejaVuSans-35"/>
      </defs>
      <g transform="translate(137.09281 205.692875)scale(0.2 -0.2)">
       <use xlink:href="#DejaVuSans-30"/>
       <use x="63.623047" xlink:href="#DejaVuSans-2e"/>
       <use x="95.410156" xlink:href="#DejaVuSans-30"/>
       <use x="159.033203" xlink:href="#DejaVuSans-35"/>
      </g>
     </g>
    </g>
    <g id="text_3">
     <!-- cloud cover -->
     <defs>
      <path d="M 48.78125 52.59375 
L 48.78125 44.1875 
Q 44.96875 46.296875 41.140625 47.34375 
Q 37.3125 48.390625 33.40625 48.390625 
Q 24.65625 48.390625 19.8125 42.84375 
Q 14.984375 37.3125 14.984375 27.296875 
Q 14.984375 17.28125 19.8125 11.734375 
Q 24.65625 6.203125 33.40625 6.203125 
Q 37.3125 6.203125 41.140625 7.25 
Q 44.96875 8.296875 48.78125 10.40625 
L 48.78125 2.09375 
Q 45.015625 0.34375 40.984375 -0.53125 
Q 36.96875 -1.421875 32.421875 -1.421875 
Q 20.0625 -1.421875 12.78125 6.34375 
Q 5.515625 14.109375 5.515625 27.296875 
Q 5.515625 40.671875 12.859375 48.328125 
Q 20.21875 56 33.015625 56 
Q 37.15625 56 41.109375 55.140625 
Q 45.0625 54.296875 48.78125 52.59375 
z
" id="DejaVuSans-63"/>
      <path d="M 9.421875 75.984375 
L 18.40625 75.984375 
L 18.40625 0 
L 9.421875 0 
z
" id="DejaVuSans-6c"/>
      <path d="M 30.609375 48.390625 
Q 23.390625 48.390625 19.1875 42.75 
Q 14.984375 37.109375 14.984375 27.296875 
Q 14.984375 17.484375 19.15625 11.84375 
Q 23.34375 6.203125 30.609375 6.203125 
Q 37.796875 6.203125 41.984375 11.859375 
Q 46.1875 17.53125 46.1875 27.296875 
Q 46.1875 37.015625 41.984375 42.703125 
Q 37.796875 48.390625 30.609375 48.390625 
z
M 30.609375 56 
Q 42.328125 56 49.015625 48.375 
Q 55.71875 40.765625 55.71875 27.296875 
Q 55.71875 13.875 49.015625 6.21875 
Q 42.328125 -1.421875 30.609375 -1.421875 
Q 18.84375 -1.421875 12.171875 6.21875 
Q 5.515625 13.875 5.515625 27.296875 
Q 5.515625 40.765625 12.171875 48.375 
Q 18.84375 56 30.609375 56 
z
" id="DejaVuSans-6f"/>
      <path d="M 8.5 21.578125 
L 8.5 54.6875 
L 17.484375 54.6875 
L 17.484375 21.921875 
Q 17.484375 14.15625 20.5 10.265625 
Q 23.53125 6.390625 29.59375 6.390625 
Q 36.859375 6.390625 41.078125 11.03125 
Q 45.3125 15.671875 45.3125 23.6875 
L 45.3125 54.6875 
L 54.296875 54.6875 
L 54.296875 0 
L 45.3125 0 
L 45.3125 8.40625 
Q 42.046875 3.421875 37.71875 1 
Q 33.40625 -1.421875 27.6875 -1.421875 
Q 18.265625 -1.421875 13.375 4.4375 
Q 8.5 10.296875 8.5 21.578125 
z
M 31.109375 56 
z
" id="DejaVuSans-75"/>
      <path d="M 45.40625 46.390625 
L 45.40625 75.984375 
L 54.390625 75.984375 
L 54.390625 0 
L 45.40625 0 
L 45.40625 8.203125 
Q 42.578125 3.328125 38.25 0.953125 
Q 33.9375 -1.421875 27.875 -1.421875 
Q 17.96875 -1.421875 11.734375 6.484375 
Q 5.515625 14.40625 5.515625 27.296875 
Q 5.515625 40.1875 11.734375 48.09375 
Q 17.96875 56 27.875 56 
Q 33.9375 56 38.25 53.625 
Q 42.578125 51.265625 45.40625 46.390625 
z
M 14.796875 27.296875 
Q 14.796875 17.390625 18.875 11.75 
Q 22.953125 6.109375 30.078125 6.109375 
Q 37.203125 6.109375 41.296875 11.75 
Q 45.40625 17.390625 45.40625 27.296875 
Q 45.40625 37.203125 41.296875 42.84375 
Q 37.203125 48.484375 30.078125 48.484375 
Q 22.953125 48.484375 18.875 42.84375 
Q 14.796875 37.203125 14.796875 27.296875 
z
" id="DejaVuSans-64"/>
      <path id="DejaVuSans-20"/>
      <path d="M 2.984375 54.6875 
L 12.5 54.6875 
L 29.59375 8.796875 
L 46.6875 54.6875 
L 56.203125 54.6875 
L 35.6875 0 
L 23.484375 0 
z
" id="DejaVuSans-76"/>
      <path d="M 56.203125 29.59375 
L 56.203125 25.203125 
L 14.890625 25.203125 
Q 15.484375 15.921875 20.484375 11.0625 
Q 25.484375 6.203125 34.421875 6.203125 
Q 39.59375 6.203125 44.453125 7.46875 
Q 49.3125 8.734375 54.109375 11.28125 
L 54.109375 2.78125 
Q 49.265625 0.734375 44.1875 -0.34375 
Q 39.109375 -1.421875 33.890625 -1.421875 
Q 20.796875 -1.421875 13.15625 6.1875 
Q 5.515625 13.8125 5.515625 26.8125 
Q 5.515625 40.234375 12.765625 48.109375 
Q 20.015625 56 32.328125 56 
Q 43.359375 56 49.78125 48.890625 
Q 56.203125 41.796875 56.203125 29.59375 
z
M 47.21875 32.234375 
Q 47.125 39.59375 43.09375 43.984375 
Q 39.0625 48.390625 32.421875 48.390625 
Q 24.90625 48.390625 20.390625 44.140625 
Q 15.875 39.890625 15.1875 32.171875 
z
" id="DejaVuSans-65"/>
      <path d="M 41.109375 46.296875 
Q 39.59375 47.171875 37.8125 47.578125 
Q 36.03125 48 33.890625 48 
Q 26.265625 48 22.1875 43.046875 
Q 18.109375 38.09375 18.109375 28.8125 
L 18.109375 0 
L 9.078125 0 
L 9.078125 54.6875 
L 18.109375 54.6875 
L 18.109375 46.1875 
Q 20.953125 51.171875 25.484375 53.578125 
Q 30.03125 56 36.53125 56 
Q 37.453125 56 38.578125 55.875 
Q 39.703125 55.765625 41.0625 55.515625 
z
" id="DejaVuSans-72"/>
     </defs>
     <g transform="translate(81.41973 232.848344)scale(0.25 -0.25)">
      <use xlink:href="#DejaVuSans-63"/>
      <use x="54.980469" xlink:href="#DejaVuSans-6c"/>
      <use x="82.763672" xlink:href="#DejaVuSans-6f"/>
      <use x="143.945312" xlink:href="#DejaVuSans-75"/>
      <use x="207.324219" xlink:href="#DejaVuSans-64"/>
      <use x="270.800781" xlink:href="#DejaVuSans-20"/>
      <use x="302.587891" xlink:href="#DejaVuSans-63"/>
      <use x="357.568359" xlink:href="#DejaVuSans-6f"/>
      <use x="418.75" xlink:href="#DejaVuSans-76"/>
      <use x="477.929688" xlink:href="#DejaVuSans-65"/>
      <use x="539.453125" xlink:href="#DejaVuSans-72"/>
     </g>
     <!-- variance -->
     <defs>
      <path d="M 34.28125 27.484375 
Q 23.390625 27.484375 19.1875 25 
Q 14.984375 22.515625 14.984375 16.5 
Q 14.984375 11.71875 18.140625 8.90625 
Q 21.296875 6.109375 26.703125 6.109375 
Q 34.1875 6.109375 38.703125 11.40625 
Q 43.21875 16.703125 43.21875 25.484375 
L 43.21875 27.484375 
z
M 52.203125 31.203125 
L 52.203125 0 
L 43.21875 0 
L 43.21875 8.296875 
Q 40.140625 3.328125 35.546875 0.953125 
Q 30.953125 -1.421875 24.3125 -1.421875 
Q 15.921875 -1.421875 10.953125 3.296875 
Q 6 8.015625 6 15.921875 
Q 6 25.140625 12.171875 29.828125 
Q 18.359375 34.515625 30.609375 34.515625 
L 43.21875 34.515625 
L 43.21875 35.40625 
Q 43.21875 41.609375 39.140625 45 
Q 35.0625 48.390625 27.6875 48.390625 
Q 23 48.390625 18.546875 47.265625 
Q 14.109375 46.140625 10.015625 43.890625 
L 10.015625 52.203125 
Q 14.9375 54.109375 19.578125 55.046875 
Q 24.21875 56 28.609375 56 
Q 40.484375 56 46.34375 49.84375 
Q 52.203125 43.703125 52.203125 31.203125 
z
" id="DejaVuSans-61"/>
      <path d="M 9.421875 54.6875 
L 18.40625 54.6875 
L 18.40625 0 
L 9.421875 0 
z
M 9.421875 75.984375 
L 18.40625 75.984375 
L 18.40625 64.59375 
L 9.421875 64.59375 
z
" id="DejaVuSans-69"/>
      <path d="M 54.890625 33.015625 
L 54.890625 0 
L 45.90625 0 
L 45.90625 32.71875 
Q 45.90625 40.484375 42.875 44.328125 
Q 39.84375 48.1875 33.796875 48.1875 
Q 26.515625 48.1875 22.3125 43.546875 
Q 18.109375 38.921875 18.109375 30.90625 
L 18.109375 0 
L 9.078125 0 
L 9.078125 54.6875 
L 18.109375 54.6875 
L 18.109375 46.1875 
Q 21.34375 51.125 25.703125 53.5625 
Q 30.078125 56 35.796875 56 
Q 45.21875 56 50.046875 50.171875 
Q 54.890625 44.34375 54.890625 33.015625 
z
" id="DejaVuSans-6e"/>
     </defs>
     <g transform="translate(100.177543 260.842875)scale(0.25 -0.25)">
      <use xlink:href="#DejaVuSans-76"/>
      <use x="59.179688" xlink:href="#DejaVuSans-61"/>
      <use x="120.458984" xlink:href="#DejaVuSans-72"/>
      <use x="161.572266" xlink:href="#DejaVuSans-69"/>
      <use x="189.355469" xlink:href="#DejaVuSans-61"/>
      <use x="250.634766" xlink:href="#DejaVuSans-6e"/>
      <use x="314.013672" xlink:href="#DejaVuSans-63"/>
      <use x="368.994141" xlink:href="#DejaVuSans-65"/>
     </g>
    </g>
   </g>
   <g id="line2d_3">
    <path clip-path="url(#p843c33860c)" d="M 53.333903 142.669848 
L 57.226611 133.971896 
L 61.119319 125.205924 
L 65.012027 116.510829 
L 68.904735 107.844948 
L 72.797443 99.146099 
L 76.690152 90.503491 
L 80.58286 82.229731 
L 84.475568 74.79981 
L 88.368276 68.718721 
L 92.260984 64.413407 
L 96.153692 62.196704 
L 100.0464 62.272467 
L 103.939108 64.717808 
L 107.831816 69.419057 
L 111.724524 76.007815 
L 115.617233 83.869974 
L 119.509941 92.256059 
L 123.402649 100.447379 
L 127.295357 107.895705 
L 131.188065 114.281445 
L 135.080773 119.494816 
L 138.973481 123.583715 
L 142.866189 126.706765 
L 146.758897 129.098919 
L 150.651605 131.034731 
L 154.544313 132.778208 
L 158.437022 134.527883 
L 162.32973 136.379427 
L 166.222438 138.32369 
L 170.115146 140.28032 
L 174.007854 142.149719 
L 177.900562 143.859425 
L 181.79327 145.386699 
L 185.685978 146.7521 
L 189.578686 147.992002 
L 193.471394 149.126037 
L 197.364103 150.135968 
L 201.256811 150.966671 
L 205.149519 151.550574 
L 209.042227 151.846896 
L 212.934935 151.879542 
L 216.827643 151.755927 
L 220.720351 151.655277 
L 224.613059 151.787569 
L 228.505767 152.337403 
L 232.398475 153.41413 
L 236.291184 155.026731 
L 240.183892 157.090544 
L 244.0766 159.458765 
" style="fill:none;stroke:#e69f00;stroke-linecap:square;stroke-width:2;"/>
   </g>
   <g id="line2d_4">
    <path clip-path="url(#p843c33860c)" d="M 53.333903 124.716168 
L 57.226611 109.387569 
L 61.119319 92.917594 
L 65.012027 76.102987 
L 68.904735 60.049303 
L 72.797443 46.195114 
L 76.690152 36.108729 
L 80.58286 31.044007 
L 84.475568 31.458167 
L 88.368276 36.794202 
L 92.260984 45.691597 
L 96.153692 56.507036 
L 100.0464 67.836785 
L 103.939108 78.780952 
L 107.831816 88.905503 
L 111.724524 98.04672 
L 115.617233 106.13782 
L 119.509941 113.143359 
L 123.402649 119.074742 
L 127.295357 124.014569 
L 131.188065 128.105587 
L 135.080773 131.512352 
L 138.973481 134.388664 
L 142.866189 136.868356 
L 146.758897 139.067942 
L 150.651605 141.081517 
L 154.544313 142.966899 
L 158.437022 144.741248 
L 162.32973 146.399201 
L 166.222438 147.942364 
L 170.115146 149.394998 
L 174.007854 150.793668 
L 177.900562 152.163981 
L 181.79327 153.507591 
L 185.685978 154.809144 
L 189.578686 156.052903 
L 193.471394 157.232587 
L 197.364103 158.347965 
L 201.256811 159.39514 
L 205.149519 160.362307 
L 209.042227 161.23701 
L 212.934935 162.020463 
L 216.827643 162.737519 
L 220.720351 163.432798 
L 224.613059 164.153234 
L 228.505767 164.927463 
L 232.398475 165.754784 
L 236.291184 166.60923 
L 240.183892 167.454013 
L 244.0766 168.256884 
" style="fill:none;stroke:#424243;stroke-linecap:square;stroke-width:2;"/>
   </g>
   <g id="patch_3">
    <path d="M 43.267898 183.496 
L 264.72 183.496 
" style="fill:none;stroke:#000000;stroke-linecap:square;stroke-linejoin:miter;stroke-width:0.8;"/>
   </g>
  </g>
 </g>
 <defs>
  <clipPath id="p843c33860c">
   <rect height="160.216" width="221.452102" x="43.267898" y="23.28"/>
  </clipPath>
 </defs>
</svg>
