<?xml version="1.0" encoding="utf-8" standalone="no"?>
<!DOCTYPE svg PUBLIC "-//W3C//DTD SVG 1.1//EN"
  "http://www.w3.org/Graphics/SVG/1.1/DTD/svg11.dtd">
<!-- Created with matplotlib (http://matplotlib.org/) -->
<svg height="288pt" version="1.1" viewBox="0 0 288 288" width="288pt" xmlns="http://www.w3.org/2000/svg" xmlns:xlink="http://www.w3.org/1999/xlink">
 <defs>
  <style type="text/css">
*{stroke-linecap:butt;stroke-linejoin:round;}
  </style>
 </defs>
 <g id="figure_1">
  <g id="patch_1">
   <path d="M 0 288 
L 288 288 
L 288 0 
L 0 0 
z
" style="fill:#ffffff;"/>
  </g>
  <g id="axes_1">
   <g id="patch_2">
    <path d="M 29.37625 183.496 
L 258.62375 183.496 
L 258.62375 23.28 
L 29.37625 23.28 
z
" style="fill:#ffffff;"/>
   </g>
   <g id="PolyCollection_1">
    <defs>
     <path d="M 39.796591 -111.786545 
L 39.796591 -111.786545 
L 44.049791 -111.786545 
L 48.302992 -111.786545 
L 52.556192 -111.786545 
L 56.809392 -111.786546 
L 61.062593 -111.786562 
L 65.315793 -111.786771 
L 69.568994 -111.788561 
L 73.822194 -111.798099 
L 78.075394 -111.82906 
L 82.328595 -111.886979 
L 86.581795 -111.939041 
L 90.834995 -111.937075 
L 95.088196 -111.893386 
L 99.341396 -111.884106 
L 103.594596 -111.998583 
L 107.847797 -112.394367 
L 112.100997 -113.440599 
L 116.354198 -115.66473 
L 120.607398 -119.385389 
L 124.860598 -124.46062 
L 129.113799 -130.333416 
L 133.366999 -136.184636 
L 137.620199 -141.649347 
L 141.8734 -147.87842 
L 146.1266 -157.418252 
L 150.379801 -172.306443 
L 154.633001 -191.571272 
L 158.886201 -210.992123 
L 163.139402 -226.025349 
L 167.392602 -234.851492 
L 171.645802 -238.863341 
L 175.899003 -240.876062 
L 180.152203 -243.061316 
L 184.405404 -245.491197 
L 188.658604 -246.315509 
L 192.911804 -243.602679 
L 197.165005 -236.713887 
L 201.418205 -226.766358 
L 205.671405 -215.002473 
L 209.924606 -200.941993 
L 214.177806 -184.666038 
L 218.431006 -168.589505 
L 222.684207 -154.991743 
L 226.937407 -144.348613 
L 231.190608 -136.141256 
L 235.443808 -129.752424 
L 239.697008 -124.791918 
L 243.950209 -121.028654 
L 248.203409 -118.219193 
L 248.203409 -111.786545 
L 248.203409 -111.786545 
L 243.950209 -111.786545 
L 239.697008 -111.786545 
L 235.443808 -111.786545 
L 231.190608 -111.786545 
L 226.937407 -111.786545 
L 222.684207 -111.786545 
L 218.431006 -111.786545 
L 214.177806 -111.786545 
L 209.924606 -111.786545 
L 205.671405 -111.786545 
L 201.418205 -111.786545 
L 197.165005 -111.786545 
L 192.911804 -111.786545 
L 188.658604 -111.786545 
L 184.405404 -111.786545 
L 180.152203 -111.786545 
L 175.899003 -111.786545 
L 171.645802 -111.786545 
L 167.392602 -111.786545 
L 163.139402 -111.786545 
L 158.886201 -111.786545 
L 154.633001 -111.786545 
L 150.379801 -111.786545 
L 146.1266 -111.786545 
L 141.8734 -111.786545 
L 137.620199 -111.786545 
L 133.366999 -111.786545 
L 129.113799 -111.786545 
L 124.860598 -111.786545 
L 120.607398 -111.786545 
L 116.354198 -111.786545 
L 112.100997 -111.786545 
L 107.847797 -111.786545 
L 103.594596 -111.786545 
L 99.341396 -111.786545 
L 95.088196 -111.786545 
L 90.834995 -111.786545 
L 86.581795 -111.786545 
L 82.328595 -111.786545 
L 78.075394 -111.786545 
L 73.822194 -111.786545 
L 69.568994 -111.786545 
L 65.315793 -111.786545 
L 61.062593 -111.786545 
L 56.809392 -111.786545 
L 52.556192 -111.786545 
L 48.302992 -111.786545 
L 44.049791 -111.786545 
L 39.796591 -111.786545 
z
" id="m5a3959f528" style="stroke:#e69f00;stroke-opacity:0.3;"/>
    </defs>
    <g clip-path="url(#pe55e3aa2fc)">
     <use style="fill:#e69f00;fill-opacity:0.3;stroke:#e69f00;stroke-opacity:0.3;" x="0" xlink:href="#m5a3959f528" y="288"/>
    </g>
   </g>
   <g id="PolyCollection_2">
    <defs>
     <path d="M 39.796591 -111.786545 
L 39.796591 -115.025591 
L 44.049791 -115.121489 
L 48.302992 -115.15477 
L 52.556192 -115.140679 
L 56.809392 -115.107368 
L 61.062593 -115.083455 
L 65.315793 -115.085572 
L 69.568994 -115.114481 
L 73.822194 -115.162307 
L 78.075394 -115.224889 
L 82.328595 -115.310672 
L 86.581795 -115.443004 
L 90.834995 -115.659025 
L 95.088196 -116.008773 
L 99.341396 -116.555232 
L 103.594596 -117.376262 
L 107.847797 -118.572191 
L 112.100997 -120.278543 
L 116.354198 -122.668487 
L 120.607398 -125.920721 
L 124.860598 -130.149312 
L 129.113799 -135.336437 
L 133.366999 -141.331774 
L 137.620199 -147.944383 
L 141.8734 -155.073335 
L 146.1266 -162.770996 
L 150.379801 -171.163962 
L 154.633001 -180.26009 
L 158.886201 -189.766525 
L 163.139402 -199.051192 
L 167.392602 -207.291292 
L 171.645802 -213.737488 
L 175.899003 -217.95547 
L 180.152203 -219.917602 
L 184.405404 -219.904034 
L 188.658604 -218.293452 
L 192.911804 -215.386285 
L 197.165005 -211.347107 
L 201.418205 -206.243977 
L 205.671405 -200.118419 
L 209.924606 -193.052957 
L 214.177806 -185.22797 
L 218.431006 -176.941609 
L 222.684207 -168.562072 
L 226.937407 -160.428748 
L 231.190608 -152.770825 
L 235.443808 -145.701536 
L 239.697008 -139.277828 
L 243.950209 -133.561866 
L 248.203409 -128.633879 
L 248.203409 -111.786545 
L 248.203409 -111.786545 
L 243.950209 -111.786545 
L 239.697008 -111.786545 
L 235.443808 -111.786545 
L 231.190608 -111.786545 
L 226.937407 -111.786545 
L 222.684207 -111.786545 
L 218.431006 -111.786545 
L 214.177806 -111.786545 
L 209.924606 -111.786545 
L 205.671405 -111.786545 
L 201.418205 -111.786545 
L 197.165005 -111.786545 
L 192.911804 -111.786545 
L 188.658604 -111.786545 
L 184.405404 -111.786545 
L 180.152203 -111.786545 
L 175.899003 -111.786545 
L 171.645802 -111.786545 
L 167.392602 -111.786545 
L 163.139402 -111.786545 
L 158.886201 -111.786545 
L 154.633001 -111.786545 
L 150.379801 -111.786545 
L 146.1266 -111.786545 
L 141.8734 -111.786545 
L 137.620199 -111.786545 
L 133.366999 -111.786545 
L 129.113799 -111.786545 
L 124.860598 -111.786545 
L 120.607398 -111.786545 
L 116.354198 -111.786545 
L 112.100997 -111.786545 
L 107.847797 -111.786545 
L 103.594596 -111.786545 
L 99.341396 -111.786545 
L 95.088196 -111.786545 
L 90.834995 -111.786545 
L 86.581795 -111.786545 
L 82.328595 -111.786545 
L 78.075394 -111.786545 
L 73.822194 -111.786545 
L 69.568994 -111.786545 
L 65.315793 -111.786545 
L 61.062593 -111.786545 
L 56.809392 -111.786545 
L 52.556192 -111.786545 
L 48.302992 -111.786545 
L 44.049791 -111.786545 
L 39.796591 -111.786545 
z
" id="m16c1793df8" style="stroke:#424243;stroke-opacity:0.3;"/>
    </defs>
    <g clip-path="url(#pe55e3aa2fc)">
     <use style="fill:#424243;fill-opacity:0.3;stroke:#424243;stroke-opacity:0.3;" x="0" xlink:href="#m16c1793df8" y="288"/>
    </g>
   </g>
   <g id="matplotlib.axis_1">
    <g id="xtick_1">
     <g id="line2d_1">
      <defs>
       <path d="M 0 0 
L 0 3.5 
" id="m5932d0c4d4" style="stroke:#000000;stroke-width:0.8;"/>
      </defs>
      <g>
       <use style="stroke:#000000;stroke-width:0.8;" x="47.581427" xlink:href="#m5932d0c4d4" y="183.496"/>
      </g>
     </g>
     <g id="text_1">
      <!-- 10 -->
      <defs>
       <path d="M 12.40625 8.296875 
L 28.515625 8.296875 
L 28.515625 63.921875 
L 10.984375 60.40625 
L 10.984375 69.390625 
L 28.421875 72.90625 
L 38.28125 72.90625 
L 38.28125 8.296875 
L 54.390625 8.296875 
L 54.390625 0 
L 12.40625 0 
z
" id="DejaVuSans-31"/>
       <path d="M 31.78125 66.40625 
Q 24.171875 66.40625 20.328125 58.90625 
Q 16.5 51.421875 16.5 36.375 
Q 16.5 21.390625 20.328125 13.890625 
Q 24.171875 6.390625 31.78125 6.390625 
Q 39.453125 6.390625 43.28125 13.890625 
Q 47.125 21.390625 47.125 36.375 
Q 47.125 51.421875 43.28125 58.90625 
Q 39.453125 66.40625 31.78125 66.40625 
z
M 31.78125 74.21875 
Q 44.046875 74.21875 50.515625 64.515625 
Q 56.984375 54.828125 56.984375 36.375 
Q 56.984375 17.96875 50.515625 8.265625 
Q 44.046875 -1.421875 31.78125 -1.421875 
Q 19.53125 -1.421875 13.0625 8.265625 
Q 6.59375 17.96875 6.59375 36.375 
Q 6.59375 54.828125 13.0625 64.515625 
Q 19.53125 74.21875 31.78125 74.21875 
z
" id="DejaVuSans-30"/>
      </defs>
      <g transform="translate(34.856427 205.692875)scale(0.2 -0.2)">
       <use xlink:href="#DejaVuSans-31"/>
       <use x="63.623047" xlink:href="#DejaVuSans-30"/>
      </g>
     </g>
    </g>
    <g id="xtick_2">
     <g id="line2d_2">
      <g>
       <use style="stroke:#000000;stroke-width:0.8;" x="118.775353" xlink:href="#m5932d0c4d4" y="183.496"/>
      </g>
     </g>
     <g id="text_2">
      <!-- 20 -->
      <defs>
       <path d="M 19.1875 8.296875 
L 53.609375 8.296875 
L 53.609375 0 
L 7.328125 0 
L 7.328125 8.296875 
Q 12.9375 14.109375 22.625 23.890625 
Q 32.328125 33.6875 34.8125 36.53125 
Q 39.546875 41.84375 41.421875 45.53125 
Q 43.3125 49.21875 43.3125 52.78125 
Q 43.3125 58.59375 39.234375 62.25 
Q 35.15625 65.921875 28.609375 65.921875 
Q 23.96875 65.921875 18.8125 64.3125 
Q 13.671875 62.703125 7.8125 59.421875 
L 7.8125 69.390625 
Q 13.765625 71.78125 18.9375 73 
Q 24.125 74.21875 28.421875 74.21875 
Q 39.75 74.21875 46.484375 68.546875 
Q 53.21875 62.890625 53.21875 53.421875 
Q 53.21875 48.921875 51.53125 44.890625 
Q 49.859375 40.875 45.40625 35.40625 
Q 44.1875 33.984375 37.640625 27.21875 
Q 31.109375 20.453125 19.1875 8.296875 
z
" id="DejaVuSans-32"/>
      </defs>
      <g transform="translate(106.050353 205.692875)scale(0.2 -0.2)">
       <use xlink:href="#DejaVuSans-32"/>
       <use x="63.623047" xlink:href="#DejaVuSans-30"/>
      </g>
     </g>
    </g>
    <g id="xtick_3">
     <g id="line2d_3">
      <g>
       <use style="stroke:#000000;stroke-width:0.8;" x="189.96928" xlink:href="#m5932d0c4d4" y="183.496"/>
      </g>
     </g>
     <g id="text_3">
      <!-- 30 -->
      <defs>
       <path d="M 40.578125 39.3125 
Q 47.65625 37.796875 51.625 33 
Q 55.609375 28.21875 55.609375 21.1875 
Q 55.609375 10.40625 48.1875 4.484375 
Q 40.765625 -1.421875 27.09375 -1.421875 
Q 22.515625 -1.421875 17.65625 -0.515625 
Q 12.796875 0.390625 7.625 2.203125 
L 7.625 11.71875 
Q 11.71875 9.328125 16.59375 8.109375 
Q 21.484375 6.890625 26.8125 6.890625 
Q 36.078125 6.890625 40.9375 10.546875 
Q 45.796875 14.203125 45.796875 21.1875 
Q 45.796875 27.640625 41.28125 31.265625 
Q 36.765625 34.90625 28.71875 34.90625 
L 20.21875 34.90625 
L 20.21875 43.015625 
L 29.109375 43.015625 
Q 36.375 43.015625 40.234375 45.921875 
Q 44.09375 48.828125 44.09375 54.296875 
Q 44.09375 59.90625 40.109375 62.90625 
Q 36.140625 65.921875 28.71875 65.921875 
Q 24.65625 65.921875 20.015625 65.03125 
Q 15.375 64.15625 9.8125 62.3125 
L 9.8125 71.09375 
Q 15.4375 72.65625 20.34375 73.4375 
Q 25.25 74.21875 29.59375 74.21875 
Q 40.828125 74.21875 47.359375 69.109375 
Q 53.90625 64.015625 53.90625 55.328125 
Q 53.90625 49.265625 50.4375 45.09375 
Q 46.96875 40.921875 40.578125 39.3125 
z
" id="DejaVuSans-33"/>
      </defs>
      <g transform="translate(177.24428 205.692875)scale(0.2 -0.2)">
       <use xlink:href="#DejaVuSans-33"/>
       <use x="63.623047" xlink:href="#DejaVuSans-30"/>
      </g>
     </g>
    </g>
    <g id="text_4">
     <!-- temperature -->
     <defs>
      <path d="M 18.3125 70.21875 
L 18.3125 54.6875 
L 36.8125 54.6875 
L 36.8125 47.703125 
L 18.3125 47.703125 
L 18.3125 18.015625 
Q 18.3125 11.328125 20.140625 9.421875 
Q 21.96875 7.515625 27.59375 7.515625 
L 36.8125 7.515625 
L 36.8125 0 
L 27.59375 0 
Q 17.1875 0 13.234375 3.875 
Q 9.28125 7.765625 9.28125 18.015625 
L 9.28125 47.703125 
L 2.6875 47.703125 
L 2.6875 54.6875 
L 9.28125 54.6875 
L 9.28125 70.21875 
z
" id="DejaVuSans-74"/>
      <path d="M 56.203125 29.59375 
L 56.203125 25.203125 
L 14.890625 25.203125 
Q 15.484375 15.921875 20.484375 11.0625 
Q 25.484375 6.203125 34.421875 6.203125 
Q 39.59375 6.203125 44.453125 7.46875 
Q 49.3125 8.734375 54.109375 11.28125 
L 54.109375 2.78125 
Q 49.265625 0.734375 44.1875 -0.34375 
Q 39.109375 -1.421875 33.890625 -1.421875 
Q 20.796875 -1.421875 13.15625 6.1875 
Q 5.515625 13.8125 5.515625 26.8125 
Q 5.515625 40.234375 12.765625 48.109375 
Q 20.015625 56 32.328125 56 
Q 43.359375 56 49.78125 48.890625 
Q 56.203125 41.796875 56.203125 29.59375 
z
M 47.21875 32.234375 
Q 47.125 39.59375 43.09375 43.984375 
Q 39.0625 48.390625 32.421875 48.390625 
Q 24.90625 48.390625 20.390625 44.140625 
Q 15.875 39.890625 15.1875 32.171875 
z
" id="DejaVuSans-65"/>
      <path d="M 52 44.1875 
Q 55.375 50.25 60.0625 53.125 
Q 64.75 56 71.09375 56 
Q 79.640625 56 84.28125 50.015625 
Q 88.921875 44.046875 88.921875 33.015625 
L 88.921875 0 
L 79.890625 0 
L 79.890625 32.71875 
Q 79.890625 40.578125 77.09375 44.375 
Q 74.3125 48.1875 68.609375 48.1875 
Q 61.625 48.1875 57.5625 43.546875 
Q 53.515625 38.921875 53.515625 30.90625 
L 53.515625 0 
L 44.484375 0 
L 44.484375 32.71875 
Q 44.484375 40.625 41.703125 44.40625 
Q 38.921875 48.1875 33.109375 48.1875 
Q 26.21875 48.1875 22.15625 43.53125 
Q 18.109375 38.875 18.109375 30.90625 
L 18.109375 0 
L 9.078125 0 
L 9.078125 54.6875 
L 18.109375 54.6875 
L 18.109375 46.1875 
Q 21.1875 51.21875 25.484375 53.609375 
Q 29.78125 56 35.6875 56 
Q 41.65625 56 45.828125 52.96875 
Q 50 49.953125 52 44.1875 
z
" id="DejaVuSans-6d"/>
      <path d="M 18.109375 8.203125 
L 18.109375 -20.796875 
L 9.078125 -20.796875 
L 9.078125 54.6875 
L 18.109375 54.6875 
L 18.109375 46.390625 
Q 20.953125 51.265625 25.265625 53.625 
Q 29.59375 56 35.59375 56 
Q 45.5625 56 51.78125 48.09375 
Q 58.015625 40.1875 58.015625 27.296875 
Q 58.015625 14.40625 51.78125 6.484375 
Q 45.5625 -1.421875 35.59375 -1.421875 
Q 29.59375 -1.421875 25.265625 0.953125 
Q 20.953125 3.328125 18.109375 8.203125 
z
M 48.6875 27.296875 
Q 48.6875 37.203125 44.609375 42.84375 
Q 40.53125 48.484375 33.40625 48.484375 
Q 26.265625 48.484375 22.1875 42.84375 
Q 18.109375 37.203125 18.109375 27.296875 
Q 18.109375 17.390625 22.1875 11.75 
Q 26.265625 6.109375 33.40625 6.109375 
Q 40.53125 6.109375 44.609375 11.75 
Q 48.6875 17.390625 48.6875 27.296875 
z
" id="DejaVuSans-70"/>
      <path d="M 41.109375 46.296875 
Q 39.59375 47.171875 37.8125 47.578125 
Q 36.03125 48 33.890625 48 
Q 26.265625 48 22.1875 43.046875 
Q 18.109375 38.09375 18.109375 28.8125 
L 18.109375 0 
L 9.078125 0 
L 9.078125 54.6875 
L 18.109375 54.6875 
L 18.109375 46.1875 
Q 20.953125 51.171875 25.484375 53.578125 
Q 30.03125 56 36.53125 56 
Q 37.453125 56 38.578125 55.875 
Q 39.703125 55.765625 41.0625 55.515625 
z
" id="DejaVuSans-72"/>
      <path d="M 34.28125 27.484375 
Q 23.390625 27.484375 19.1875 25 
Q 14.984375 22.515625 14.984375 16.5 
Q 14.984375 11.71875 18.140625 8.90625 
Q 21.296875 6.109375 26.703125 6.109375 
Q 34.1875 6.109375 38.703125 11.40625 
Q 43.21875 16.703125 43.21875 25.484375 
L 43.21875 27.484375 
z
M 52.203125 31.203125 
L 52.203125 0 
L 43.21875 0 
L 43.21875 8.296875 
Q 40.140625 3.328125 35.546875 0.953125 
Q 30.953125 -1.421875 24.3125 -1.421875 
Q 15.921875 -1.421875 10.953125 3.296875 
Q 6 8.015625 6 15.921875 
Q 6 25.140625 12.171875 29.828125 
Q 18.359375 34.515625 30.609375 34.515625 
L 43.21875 34.515625 
L 43.21875 35.40625 
Q 43.21875 41.609375 39.140625 45 
Q 35.0625 48.390625 27.6875 48.390625 
Q 23 48.390625 18.546875 47.265625 
Q 14.109375 46.140625 10.015625 43.890625 
L 10.015625 52.203125 
Q 14.9375 54.109375 19.578125 55.046875 
Q 24.21875 56 28.609375 56 
Q 40.484375 56 46.34375 49.84375 
Q 52.203125 43.703125 52.203125 31.203125 
z
" id="DejaVuSans-61"/>
      <path d="M 8.5 21.578125 
L 8.5 54.6875 
L 17.484375 54.6875 
L 17.484375 21.921875 
Q 17.484375 14.15625 20.5 10.265625 
Q 23.53125 6.390625 29.59375 6.390625 
Q 36.859375 6.390625 41.078125 11.03125 
Q 45.3125 15.671875 45.3125 23.6875 
L 45.3125 54.6875 
L 54.296875 54.6875 
L 54.296875 0 
L 45.3125 0 
L 45.3125 8.40625 
Q 42.046875 3.421875 37.71875 1 
Q 33.40625 -1.421875 27.6875 -1.421875 
Q 18.265625 -1.421875 13.375 4.4375 
Q 8.5 10.296875 8.5 21.578125 
z
M 31.109375 56 
z
" id="DejaVuSans-75"/>
     </defs>
     <g transform="translate(65.158203 232.848344)scale(0.25 -0.25)">
      <use xlink:href="#DejaVuSans-74"/>
      <use x="39.208984" xlink:href="#DejaVuSans-65"/>
      <use x="100.732422" xlink:href="#DejaVuSans-6d"/>
      <use x="198.144531" xlink:href="#DejaVuSans-70"/>
      <use x="261.621094" xlink:href="#DejaVuSans-65"/>
      <use x="323.144531" xlink:href="#DejaVuSans-72"/>
      <use x="364.257812" xlink:href="#DejaVuSans-61"/>
      <use x="425.537109" xlink:href="#DejaVuSans-74"/>
      <use x="464.746094" xlink:href="#DejaVuSans-75"/>
      <use x="528.125" xlink:href="#DejaVuSans-72"/>
      <use x="569.207031" xlink:href="#DejaVuSans-65"/>
     </g>
     <!-- mean -->
     <defs>
      <path d="M 54.890625 33.015625 
L 54.890625 0 
L 45.90625 0 
L 45.90625 32.71875 
Q 45.90625 40.484375 42.875 44.328125 
Q 39.84375 48.1875 33.796875 48.1875 
Q 26.515625 48.1875 22.3125 43.546875 
Q 18.109375 38.921875 18.109375 30.90625 
L 18.109375 0 
L 9.078125 0 
L 9.078125 54.6875 
L 18.109375 54.6875 
L 18.109375 46.1875 
Q 21.34375 51.125 25.703125 53.5625 
Q 30.078125 56 35.796875 56 
Q 45.21875 56 50.046875 50.171875 
Q 54.890625 44.34375 54.890625 33.015625 
z
" id="DejaVuSans-6e"/>
     </defs>
     <g transform="translate(108.550781 260.842875)scale(0.25 -0.25)">
      <use xlink:href="#DejaVuSans-6d"/>
      <use x="97.412109" xlink:href="#DejaVuSans-65"/>
      <use x="158.935547" xlink:href="#DejaVuSans-61"/>
      <use x="220.214844" xlink:href="#DejaVuSans-6e"/>
     </g>
    </g>
   </g>
   <g id="line2d_4">
    <path clip-path="url(#pe55e3aa2fc)" d="M 39.796591 176.213455 
L 44.049791 176.213455 
L 48.302992 176.213455 
L 52.556192 176.213455 
L 56.809392 176.213454 
L 61.062593 176.213438 
L 65.315793 176.213229 
L 69.568994 176.211439 
L 73.822194 176.201901 
L 78.075394 176.17094 
L 82.328595 176.113021 
L 86.581795 176.060959 
L 90.834995 176.062925 
L 95.088196 176.106614 
L 99.341396 176.115894 
L 103.594596 176.001417 
L 107.847797 175.605633 
L 112.100997 174.559401 
L 116.354198 172.33527 
L 120.607398 168.614611 
L 124.860598 163.53938 
L 129.113799 157.666584 
L 133.366999 151.815364 
L 137.620199 146.350653 
L 141.8734 140.12158 
L 146.1266 130.581748 
L 150.379801 115.693557 
L 154.633001 96.428728 
L 158.886201 77.007877 
L 163.139402 61.974651 
L 167.392602 53.148508 
L 171.645802 49.136659 
L 175.899003 47.123938 
L 180.152203 44.938684 
L 184.405404 42.508803 
L 188.658604 41.684491 
L 192.911804 44.397321 
L 197.165005 51.286113 
L 201.418205 61.233642 
L 205.671405 72.997527 
L 209.924606 87.058007 
L 214.177806 103.333962 
L 218.431006 119.410495 
L 222.684207 133.008257 
L 226.937407 143.651387 
L 231.190608 151.858744 
L 235.443808 158.247576 
L 239.697008 163.208082 
L 243.950209 166.971346 
L 248.203409 169.780807 
" style="fill:none;stroke:#e69f00;stroke-linecap:square;stroke-width:2;"/>
   </g>
   <g id="line2d_5">
    <path clip-path="url(#pe55e3aa2fc)" d="M 39.796591 172.974409 
L 44.049791 172.878511 
L 48.302992 172.84523 
L 52.556192 172.859321 
L 56.809392 172.892632 
L 61.062593 172.916545 
L 65.315793 172.914428 
L 69.568994 172.885519 
L 73.822194 172.837693 
L 78.075394 172.775111 
L 82.328595 172.689328 
L 86.581795 172.556996 
L 90.834995 172.340975 
L 95.088196 171.991227 
L 99.341396 171.444768 
L 103.594596 170.623738 
L 107.847797 169.427809 
L 112.100997 167.721457 
L 116.354198 165.331513 
L 120.607398 162.079279 
L 124.860598 157.850688 
L 129.113799 152.663563 
L 133.366999 146.668226 
L 137.620199 140.055617 
L 141.8734 132.926665 
L 146.1266 125.229004 
L 150.379801 116.836038 
L 154.633001 107.73991 
L 158.886201 98.233475 
L 163.139402 88.948808 
L 167.392602 80.708708 
L 171.645802 74.262512 
L 175.899003 70.04453 
L 180.152203 68.082398 
L 184.405404 68.095966 
L 188.658604 69.706548 
L 192.911804 72.613715 
L 197.165005 76.652893 
L 201.418205 81.756023 
L 205.671405 87.881581 
L 209.924606 94.947043 
L 214.177806 102.77203 
L 218.431006 111.058391 
L 222.684207 119.437928 
L 226.937407 127.571252 
L 231.190608 135.229175 
L 235.443808 142.298464 
L 239.697008 148.722172 
L 243.950209 154.438134 
L 248.203409 159.366121 
" style="fill:none;stroke:#424243;stroke-linecap:square;stroke-width:2;"/>
   </g>
   <g id="patch_3">
    <path d="M 29.37625 183.496 
L 258.62375 183.496 
" style="fill:none;stroke:#000000;stroke-linecap:square;stroke-linejoin:miter;stroke-width:0.8;"/>
   </g>
  </g>
 </g>
 <defs>
  <clipPath id="pe55e3aa2fc">
   <rect height="160.216" width="229.2475" x="29.37625" y="23.28"/>
  </clipPath>
 </defs>
</svg>
