<?xml version="1.0" encoding="utf-8" standalone="no"?>
<!DOCTYPE svg PUBLIC "-//W3C//DTD SVG 1.1//EN"
  "http://www.w3.org/Graphics/SVG/1.1/DTD/svg11.dtd">
<!-- Created with matplotlib (http://matplotlib.org/) -->
<svg height="288pt" version="1.1" viewBox="0 0 288 288" width="288pt" xmlns="http://www.w3.org/2000/svg" xmlns:xlink="http://www.w3.org/1999/xlink">
 <defs>
  <style type="text/css">
*{stroke-linecap:butt;stroke-linejoin:round;}
  </style>
 </defs>
 <g id="figure_1">
  <g id="patch_1">
   <path d="M 0 288 
L 288 288 
L 288 0 
L 0 0 
z
" style="fill:#ffffff;"/>
  </g>
  <g id="axes_1">
   <g id="patch_2">
    <path d="M 29.52625 183.496 
L 258.47375 183.496 
L 258.47375 23.28 
L 29.52625 23.28 
z
" style="fill:#ffffff;"/>
   </g>
   <g id="PolyCollection_1">
    <defs>
     <path d="M 39.932955 -111.786545 
L 39.932955 -128.316313 
L 44.180589 -134.383598 
L 48.428224 -140.376317 
L 52.675858 -145.801085 
L 56.923493 -150.459639 
L 61.171127 -154.42754 
L 65.418762 -157.932435 
L 69.666396 -161.22679 
L 73.914031 -164.492155 
L 78.161665 -167.784961 
L 82.4093 -171.07884 
L 86.656934 -174.461531 
L 90.904569 -178.40851 
L 95.152203 -183.89914 
L 99.399838 -192.167325 
L 103.647472 -204.078292 
L 107.895107 -219.330387 
L 112.142741 -235.858284 
L 116.390376 -249.952898 
L 120.63801 -257.437455 
L 124.885645 -255.528664 
L 129.133279 -244.261259 
L 133.380914 -226.464721 
L 137.628548 -206.346845 
L 141.876183 -187.72259 
L 146.123817 -172.908314 
L 150.371452 -162.542557 
L 154.619086 -155.993254 
L 158.866721 -151.95836 
L 163.114355 -149.061407 
L 167.36199 -146.33552 
L 171.609624 -143.476202 
L 175.857259 -140.784537 
L 180.104893 -138.852327 
L 184.352528 -138.157586 
L 188.600162 -138.763271 
L 192.847797 -140.250418 
L 197.095431 -141.900857 
L 201.343066 -143.007546 
L 205.5907 -143.111092 
L 209.838335 -142.032927 
L 214.085969 -139.766313 
L 218.333604 -136.403594 
L 222.581238 -132.183597 
L 226.828873 -127.554281 
L 231.076507 -123.102652 
L 235.324142 -119.353849 
L 239.571776 -116.586885 
L 243.819411 -114.790777 
L 248.067045 -113.753372 
L 248.067045 -111.786545 
L 248.067045 -111.786545 
L 243.819411 -111.786545 
L 239.571776 -111.786545 
L 235.324142 -111.786545 
L 231.076507 -111.786545 
L 226.828873 -111.786545 
L 222.581238 -111.786545 
L 218.333604 -111.786545 
L 214.085969 -111.786545 
L 209.838335 -111.786545 
L 205.5907 -111.786545 
L 201.343066 -111.786545 
L 197.095431 -111.786545 
L 192.847797 -111.786545 
L 188.600162 -111.786545 
L 184.352528 -111.786545 
L 180.104893 -111.786545 
L 175.857259 -111.786545 
L 171.609624 -111.786545 
L 167.36199 -111.786545 
L 163.114355 -111.786545 
L 158.866721 -111.786545 
L 154.619086 -111.786545 
L 150.371452 -111.786545 
L 146.123817 -111.786545 
L 141.876183 -111.786545 
L 137.628548 -111.786545 
L 133.380914 -111.786545 
L 129.133279 -111.786545 
L 124.885645 -111.786545 
L 120.63801 -111.786545 
L 116.390376 -111.786545 
L 112.142741 -111.786545 
L 107.895107 -111.786545 
L 103.647472 -111.786545 
L 99.399838 -111.786545 
L 95.152203 -111.786545 
L 90.904569 -111.786545 
L 86.656934 -111.786545 
L 82.4093 -111.786545 
L 78.161665 -111.786545 
L 73.914031 -111.786545 
L 69.666396 -111.786545 
L 65.418762 -111.786545 
L 61.171127 -111.786545 
L 56.923493 -111.786545 
L 52.675858 -111.786545 
L 48.428224 -111.786545 
L 44.180589 -111.786545 
L 39.932955 -111.786545 
z
" id="mc1b496b69d" style="stroke:#e69f00;stroke-opacity:0.3;"/>
    </defs>
    <g clip-path="url(#pa9dbf8d082)">
     <use style="fill:#e69f00;fill-opacity:0.3;stroke:#e69f00;stroke-opacity:0.3;" x="0" xlink:href="#mc1b496b69d" y="288"/>
    </g>
   </g>
   <g id="PolyCollection_2">
    <defs>
     <path d="M 39.932955 -111.786545 
L 39.932955 -147.532881 
L 44.180589 -154.574223 
L 48.428224 -161.361254 
L 52.675858 -167.576808 
L 56.923493 -172.981974 
L 61.171127 -177.439132 
L 65.418762 -180.920609 
L 69.666396 -183.503324 
L 73.914031 -185.348983 
L 78.161665 -186.671241 
L 82.4093 -187.695801 
L 86.656934 -188.623092 
L 90.904569 -189.601649 
L 95.152203 -190.71357 
L 99.399838 -191.966335 
L 103.647472 -193.284164 
L 107.895107 -194.499086 
L 112.142741 -195.352469 
L 116.390376 -195.522889 
L 120.63801 -194.689016 
L 124.885645 -192.617794 
L 129.133279 -189.248853 
L 133.380914 -184.739041 
L 137.628548 -179.442962 
L 141.876183 -173.831559 
L 146.123817 -168.377117 
L 150.371452 -163.445899 
L 154.619086 -159.233586 
L 158.866721 -155.758857 
L 163.114355 -152.90749 
L 167.36199 -150.503175 
L 171.609624 -148.376697 
L 175.857259 -146.411403 
L 180.104893 -144.555699 
L 184.352528 -142.806835 
L 188.600162 -141.179564 
L 192.847797 -139.675638 
L 197.095431 -138.266037 
L 201.343066 -136.890351 
L 205.5907 -135.470611 
L 209.838335 -133.932651 
L 214.085969 -132.227242 
L 218.333604 -130.344677 
L 222.581238 -128.318971 
L 226.828873 -126.22078 
L 231.076507 -124.141277 
L 235.324142 -122.172016 
L 239.571776 -120.387001 
L 243.819411 -118.832014 
L 248.067045 -117.523024 
L 248.067045 -111.786545 
L 248.067045 -111.786545 
L 243.819411 -111.786545 
L 239.571776 -111.786545 
L 235.324142 -111.786545 
L 231.076507 -111.786545 
L 226.828873 -111.786545 
L 222.581238 -111.786545 
L 218.333604 -111.786545 
L 214.085969 -111.786545 
L 209.838335 -111.786545 
L 205.5907 -111.786545 
L 201.343066 -111.786545 
L 197.095431 -111.786545 
L 192.847797 -111.786545 
L 188.600162 -111.786545 
L 184.352528 -111.786545 
L 180.104893 -111.786545 
L 175.857259 -111.786545 
L 171.609624 -111.786545 
L 167.36199 -111.786545 
L 163.114355 -111.786545 
L 158.866721 -111.786545 
L 154.619086 -111.786545 
L 150.371452 -111.786545 
L 146.123817 -111.786545 
L 141.876183 -111.786545 
L 137.628548 -111.786545 
L 133.380914 -111.786545 
L 129.133279 -111.786545 
L 124.885645 -111.786545 
L 120.63801 -111.786545 
L 116.390376 -111.786545 
L 112.142741 -111.786545 
L 107.895107 -111.786545 
L 103.647472 -111.786545 
L 99.399838 -111.786545 
L 95.152203 -111.786545 
L 90.904569 -111.786545 
L 86.656934 -111.786545 
L 82.4093 -111.786545 
L 78.161665 -111.786545 
L 73.914031 -111.786545 
L 69.666396 -111.786545 
L 65.418762 -111.786545 
L 61.171127 -111.786545 
L 56.923493 -111.786545 
L 52.675858 -111.786545 
L 48.428224 -111.786545 
L 44.180589 -111.786545 
L 39.932955 -111.786545 
z
" id="m94aa8f07f5" style="stroke:#424243;stroke-opacity:0.3;"/>
    </defs>
    <g clip-path="url(#pa9dbf8d082)">
     <use style="fill:#424243;fill-opacity:0.3;stroke:#424243;stroke-opacity:0.3;" x="0" xlink:href="#m94aa8f07f5" y="288"/>
    </g>
   </g>
   <g id="matplotlib.axis_1">
    <g id="xtick_1">
     <g id="line2d_1">
      <defs>
       <path d="M 0 0 
L 0 3.5 
" id="m59f4fcb47a" style="stroke:#000000;stroke-width:0.8;"/>
      </defs>
      <g>
       <use style="stroke:#000000;stroke-width:0.8;" x="131.516135" xlink:href="#m59f4fcb47a" y="183.496"/>
      </g>
     </g>
     <g id="text_1">
      <!-- 100 -->
      <defs>
       <path d="M 12.40625 8.296875 
L 28.515625 8.296875 
L 28.515625 63.921875 
L 10.984375 60.40625 
L 10.984375 69.390625 
L 28.421875 72.90625 
L 38.28125 72.90625 
L 38.28125 8.296875 
L 54.390625 8.296875 
L 54.390625 0 
L 12.40625 0 
z
" id="DejaVuSans-31"/>
       <path d="M 31.78125 66.40625 
Q 24.171875 66.40625 20.328125 58.90625 
Q 16.5 51.421875 16.5 36.375 
Q 16.5 21.390625 20.328125 13.890625 
Q 24.171875 6.390625 31.78125 6.390625 
Q 39.453125 6.390625 43.28125 13.890625 
Q 47.125 21.390625 47.125 36.375 
Q 47.125 51.421875 43.28125 58.90625 
Q 39.453125 66.40625 31.78125 66.40625 
z
M 31.78125 74.21875 
Q 44.046875 74.21875 50.515625 64.515625 
Q 56.984375 54.828125 56.984375 36.375 
Q 56.984375 17.96875 50.515625 8.265625 
Q 44.046875 -1.421875 31.78125 -1.421875 
Q 19.53125 -1.421875 13.0625 8.265625 
Q 6.59375 17.96875 6.59375 36.375 
Q 6.59375 54.828125 13.0625 64.515625 
Q 19.53125 74.21875 31.78125 74.21875 
z
" id="DejaVuSans-30"/>
      </defs>
      <g transform="translate(112.428635 205.692875)scale(0.2 -0.2)">
       <use xlink:href="#DejaVuSans-31"/>
       <use x="63.623047" xlink:href="#DejaVuSans-30"/>
       <use x="127.246094" xlink:href="#DejaVuSans-30"/>
      </g>
     </g>
    </g>
    <g id="xtick_2">
     <g id="line2d_2">
      <g>
       <use style="stroke:#000000;stroke-width:0.8;" x="236.933732" xlink:href="#m59f4fcb47a" y="183.496"/>
      </g>
     </g>
     <g id="text_2">
      <!-- 200 -->
      <defs>
       <path d="M 19.1875 8.296875 
L 53.609375 8.296875 
L 53.609375 0 
L 7.328125 0 
L 7.328125 8.296875 
Q 12.9375 14.109375 22.625 23.890625 
Q 32.328125 33.6875 34.8125 36.53125 
Q 39.546875 41.84375 41.421875 45.53125 
Q 43.3125 49.21875 43.3125 52.78125 
Q 43.3125 58.59375 39.234375 62.25 
Q 35.15625 65.921875 28.609375 65.921875 
Q 23.96875 65.921875 18.8125 64.3125 
Q 13.671875 62.703125 7.8125 59.421875 
L 7.8125 69.390625 
Q 13.765625 71.78125 18.9375 73 
Q 24.125 74.21875 28.421875 74.21875 
Q 39.75 74.21875 46.484375 68.546875 
Q 53.21875 62.890625 53.21875 53.421875 
Q 53.21875 48.921875 51.53125 44.890625 
Q 49.859375 40.875 45.40625 35.40625 
Q 44.1875 33.984375 37.640625 27.21875 
Q 31.109375 20.453125 19.1875 8.296875 
z
" id="DejaVuSans-32"/>
      </defs>
      <g transform="translate(217.846232 205.692875)scale(0.2 -0.2)">
       <use xlink:href="#DejaVuSans-32"/>
       <use x="63.623047" xlink:href="#DejaVuSans-30"/>
       <use x="127.246094" xlink:href="#DejaVuSans-30"/>
      </g>
     </g>
    </g>
    <g id="text_3">
     <!-- precipitation -->
     <defs>
      <path d="M 18.109375 8.203125 
L 18.109375 -20.796875 
L 9.078125 -20.796875 
L 9.078125 54.6875 
L 18.109375 54.6875 
L 18.109375 46.390625 
Q 20.953125 51.265625 25.265625 53.625 
Q 29.59375 56 35.59375 56 
Q 45.5625 56 51.78125 48.09375 
Q 58.015625 40.1875 58.015625 27.296875 
Q 58.015625 14.40625 51.78125 6.484375 
Q 45.5625 -1.421875 35.59375 -1.421875 
Q 29.59375 -1.421875 25.265625 0.953125 
Q 20.953125 3.328125 18.109375 8.203125 
z
M 48.6875 27.296875 
Q 48.6875 37.203125 44.609375 42.84375 
Q 40.53125 48.484375 33.40625 48.484375 
Q 26.265625 48.484375 22.1875 42.84375 
Q 18.109375 37.203125 18.109375 27.296875 
Q 18.109375 17.390625 22.1875 11.75 
Q 26.265625 6.109375 33.40625 6.109375 
Q 40.53125 6.109375 44.609375 11.75 
Q 48.6875 17.390625 48.6875 27.296875 
z
" id="DejaVuSans-70"/>
      <path d="M 41.109375 46.296875 
Q 39.59375 47.171875 37.8125 47.578125 
Q 36.03125 48 33.890625 48 
Q 26.265625 48 22.1875 43.046875 
Q 18.109375 38.09375 18.109375 28.8125 
L 18.109375 0 
L 9.078125 0 
L 9.078125 54.6875 
L 18.109375 54.6875 
L 18.109375 46.1875 
Q 20.953125 51.171875 25.484375 53.578125 
Q 30.03125 56 36.53125 56 
Q 37.453125 56 38.578125 55.875 
Q 39.703125 55.765625 41.0625 55.515625 
z
" id="DejaVuSans-72"/>
      <path d="M 56.203125 29.59375 
L 56.203125 25.203125 
L 14.890625 25.203125 
Q 15.484375 15.921875 20.484375 11.0625 
Q 25.484375 6.203125 34.421875 6.203125 
Q 39.59375 6.203125 44.453125 7.46875 
Q 49.3125 8.734375 54.109375 11.28125 
L 54.109375 2.78125 
Q 49.265625 0.734375 44.1875 -0.34375 
Q 39.109375 -1.421875 33.890625 -1.421875 
Q 20.796875 -1.421875 13.15625 6.1875 
Q 5.515625 13.8125 5.515625 26.8125 
Q 5.515625 40.234375 12.765625 48.109375 
Q 20.015625 56 32.328125 56 
Q 43.359375 56 49.78125 48.890625 
Q 56.203125 41.796875 56.203125 29.59375 
z
M 47.21875 32.234375 
Q 47.125 39.59375 43.09375 43.984375 
Q 39.0625 48.390625 32.421875 48.390625 
Q 24.90625 48.390625 20.390625 44.140625 
Q 15.875 39.890625 15.1875 32.171875 
z
" id="DejaVuSans-65"/>
      <path d="M 48.78125 52.59375 
L 48.78125 44.1875 
Q 44.96875 46.296875 41.140625 47.34375 
Q 37.3125 48.390625 33.40625 48.390625 
Q 24.65625 48.390625 19.8125 42.84375 
Q 14.984375 37.3125 14.984375 27.296875 
Q 14.984375 17.28125 19.8125 11.734375 
Q 24.65625 6.203125 33.40625 6.203125 
Q 37.3125 6.203125 41.140625 7.25 
Q 44.96875 8.296875 48.78125 10.40625 
L 48.78125 2.09375 
Q 45.015625 0.34375 40.984375 -0.53125 
Q 36.96875 -1.421875 32.421875 -1.421875 
Q 20.0625 -1.421875 12.78125 6.34375 
Q 5.515625 14.109375 5.515625 27.296875 
Q 5.515625 40.671875 12.859375 48.328125 
Q 20.21875 56 33.015625 56 
Q 37.15625 56 41.109375 55.140625 
Q 45.0625 54.296875 48.78125 52.59375 
z
" id="DejaVuSans-63"/>
      <path d="M 9.421875 54.6875 
L 18.40625 54.6875 
L 18.40625 0 
L 9.421875 0 
z
M 9.421875 75.984375 
L 18.40625 75.984375 
L 18.40625 64.59375 
L 9.421875 64.59375 
z
" id="DejaVuSans-69"/>
      <path d="M 18.3125 70.21875 
L 18.3125 54.6875 
L 36.8125 54.6875 
L 36.8125 47.703125 
L 18.3125 47.703125 
L 18.3125 18.015625 
Q 18.3125 11.328125 20.140625 9.421875 
Q 21.96875 7.515625 27.59375 7.515625 
L 36.8125 7.515625 
L 36.8125 0 
L 27.59375 0 
Q 17.1875 0 13.234375 3.875 
Q 9.28125 7.765625 9.28125 18.015625 
L 9.28125 47.703125 
L 2.6875 47.703125 
L 2.6875 54.6875 
L 9.28125 54.6875 
L 9.28125 70.21875 
z
" id="DejaVuSans-74"/>
      <path d="M 34.28125 27.484375 
Q 23.390625 27.484375 19.1875 25 
Q 14.984375 22.515625 14.984375 16.5 
Q 14.984375 11.71875 18.140625 8.90625 
Q 21.296875 6.109375 26.703125 6.109375 
Q 34.1875 6.109375 38.703125 11.40625 
Q 43.21875 16.703125 43.21875 25.484375 
L 43.21875 27.484375 
z
M 52.203125 31.203125 
L 52.203125 0 
L 43.21875 0 
L 43.21875 8.296875 
Q 40.140625 3.328125 35.546875 0.953125 
Q 30.953125 -1.421875 24.3125 -1.421875 
Q 15.921875 -1.421875 10.953125 3.296875 
Q 6 8.015625 6 15.921875 
Q 6 25.140625 12.171875 29.828125 
Q 18.359375 34.515625 30.609375 34.515625 
L 43.21875 34.515625 
L 43.21875 35.40625 
Q 43.21875 41.609375 39.140625 45 
Q 35.0625 48.390625 27.6875 48.390625 
Q 23 48.390625 18.546875 47.265625 
Q 14.109375 46.140625 10.015625 43.890625 
L 10.015625 52.203125 
Q 14.9375 54.109375 19.578125 55.046875 
Q 24.21875 56 28.609375 56 
Q 40.484375 56 46.34375 49.84375 
Q 52.203125 43.703125 52.203125 31.203125 
z
" id="DejaVuSans-61"/>
      <path d="M 30.609375 48.390625 
Q 23.390625 48.390625 19.1875 42.75 
Q 14.984375 37.109375 14.984375 27.296875 
Q 14.984375 17.484375 19.15625 11.84375 
Q 23.34375 6.203125 30.609375 6.203125 
Q 37.796875 6.203125 41.984375 11.859375 
Q 46.1875 17.53125 46.1875 27.296875 
Q 46.1875 37.015625 41.984375 42.703125 
Q 37.796875 48.390625 30.609375 48.390625 
z
M 30.609375 56 
Q 42.328125 56 49.015625 48.375 
Q 55.71875 40.765625 55.71875 27.296875 
Q 55.71875 13.875 49.015625 6.21875 
Q 42.328125 -1.421875 30.609375 -1.421875 
Q 18.84375 -1.421875 12.171875 6.21875 
Q 5.515625 13.875 5.515625 27.296875 
Q 5.515625 40.765625 12.171875 48.375 
Q 18.84375 56 30.609375 56 
z
" id="DejaVuSans-6f"/>
      <path d="M 54.890625 33.015625 
L 54.890625 0 
L 45.90625 0 
L 45.90625 32.71875 
Q 45.90625 40.484375 42.875 44.328125 
Q 39.84375 48.1875 33.796875 48.1875 
Q 26.515625 48.1875 22.3125 43.546875 
Q 18.109375 38.921875 18.109375 30.90625 
L 18.109375 0 
L 9.078125 0 
L 9.078125 54.6875 
L 18.109375 54.6875 
L 18.109375 46.1875 
Q 21.34375 51.125 25.703125 53.5625 
Q 30.078125 56 35.796875 56 
Q 45.21875 56 50.046875 50.171875 
Q 54.890625 44.34375 54.890625 33.015625 
z
" id="DejaVuSans-6e"/>
     </defs>
     <g transform="translate(64.980469 232.848344)scale(0.25 -0.25)">
      <use xlink:href="#DejaVuSans-70"/>
      <use x="63.476562" xlink:href="#DejaVuSans-72"/>
      <use x="104.558594" xlink:href="#DejaVuSans-65"/>
      <use x="166.082031" xlink:href="#DejaVuSans-63"/>
      <use x="221.0625" xlink:href="#DejaVuSans-69"/>
      <use x="248.845703" xlink:href="#DejaVuSans-70"/>
      <use x="312.322266" xlink:href="#DejaVuSans-69"/>
      <use x="340.105469" xlink:href="#DejaVuSans-74"/>
      <use x="379.314453" xlink:href="#DejaVuSans-61"/>
      <use x="440.59375" xlink:href="#DejaVuSans-74"/>
      <use x="479.802734" xlink:href="#DejaVuSans-69"/>
      <use x="507.585938" xlink:href="#DejaVuSans-6f"/>
      <use x="568.767578" xlink:href="#DejaVuSans-6e"/>
     </g>
     <!-- mean -->
     <defs>
      <path d="M 52 44.1875 
Q 55.375 50.25 60.0625 53.125 
Q 64.75 56 71.09375 56 
Q 79.640625 56 84.28125 50.015625 
Q 88.921875 44.046875 88.921875 33.015625 
L 88.921875 0 
L 79.890625 0 
L 79.890625 32.71875 
Q 79.890625 40.578125 77.09375 44.375 
Q 74.3125 48.1875 68.609375 48.1875 
Q 61.625 48.1875 57.5625 43.546875 
Q 53.515625 38.921875 53.515625 30.90625 
L 53.515625 0 
L 44.484375 0 
L 44.484375 32.71875 
Q 44.484375 40.625 41.703125 44.40625 
Q 38.921875 48.1875 33.109375 48.1875 
Q 26.21875 48.1875 22.15625 43.53125 
Q 18.109375 38.875 18.109375 30.90625 
L 18.109375 0 
L 9.078125 0 
L 9.078125 54.6875 
L 18.109375 54.6875 
L 18.109375 46.1875 
Q 21.1875 51.21875 25.484375 53.609375 
Q 29.78125 56 35.6875 56 
Q 41.65625 56 45.828125 52.96875 
Q 50 49.953125 52 44.1875 
z
" id="DejaVuSans-6d"/>
     </defs>
     <g transform="translate(108.550781 260.842875)scale(0.25 -0.25)">
      <use xlink:href="#DejaVuSans-6d"/>
      <use x="97.412109" xlink:href="#DejaVuSans-65"/>
      <use x="158.935547" xlink:href="#DejaVuSans-61"/>
      <use x="220.214844" xlink:href="#DejaVuSans-6e"/>
     </g>
    </g>
   </g>
   <g id="line2d_3">
    <path clip-path="url(#pa9dbf8d082)" d="M 39.932955 159.683687 
L 44.180589 153.616402 
L 48.428224 147.623683 
L 52.675858 142.198915 
L 56.923493 137.540361 
L 61.171127 133.57246 
L 65.418762 130.067565 
L 69.666396 126.77321 
L 73.914031 123.507845 
L 78.161665 120.215039 
L 82.4093 116.92116 
L 86.656934 113.538469 
L 90.904569 109.59149 
L 95.152203 104.10086 
L 99.399838 95.832675 
L 103.647472 83.921708 
L 107.895107 68.669613 
L 112.142741 52.141716 
L 116.390376 38.047102 
L 120.63801 30.562545 
L 124.885645 32.471336 
L 129.133279 43.738741 
L 133.380914 61.535279 
L 137.628548 81.653155 
L 141.876183 100.27741 
L 146.123817 115.091686 
L 150.371452 125.457443 
L 154.619086 132.006746 
L 158.866721 136.04164 
L 163.114355 138.938593 
L 167.36199 141.66448 
L 171.609624 144.523798 
L 175.857259 147.215463 
L 180.104893 149.147673 
L 184.352528 149.842414 
L 188.600162 149.236729 
L 192.847797 147.749582 
L 197.095431 146.099143 
L 201.343066 144.992454 
L 205.5907 144.888908 
L 209.838335 145.967073 
L 214.085969 148.233687 
L 218.333604 151.596406 
L 222.581238 155.816403 
L 226.828873 160.445719 
L 231.076507 164.897348 
L 235.324142 168.646151 
L 239.571776 171.413115 
L 243.819411 173.209223 
L 248.067045 174.246628 
" style="fill:none;stroke:#e69f00;stroke-linecap:square;stroke-width:2;"/>
   </g>
   <g id="line2d_4">
    <path clip-path="url(#pa9dbf8d082)" d="M 39.932955 140.467119 
L 44.180589 133.425777 
L 48.428224 126.638746 
L 52.675858 120.423192 
L 56.923493 115.018026 
L 61.171127 110.560868 
L 65.418762 107.079391 
L 69.666396 104.496676 
L 73.914031 102.651017 
L 78.161665 101.328759 
L 82.4093 100.304199 
L 86.656934 99.376908 
L 90.904569 98.398351 
L 95.152203 97.28643 
L 99.399838 96.033665 
L 103.647472 94.715836 
L 107.895107 93.500914 
L 112.142741 92.647531 
L 116.390376 92.477111 
L 120.63801 93.310984 
L 124.885645 95.382206 
L 129.133279 98.751147 
L 133.380914 103.260959 
L 137.628548 108.557038 
L 141.876183 114.168441 
L 146.123817 119.622883 
L 150.371452 124.554101 
L 154.619086 128.766414 
L 158.866721 132.241143 
L 163.114355 135.09251 
L 167.36199 137.496825 
L 171.609624 139.623303 
L 175.857259 141.588597 
L 180.104893 143.444301 
L 184.352528 145.193165 
L 188.600162 146.820436 
L 192.847797 148.324362 
L 197.095431 149.733963 
L 201.343066 151.109649 
L 205.5907 152.529389 
L 209.838335 154.067349 
L 214.085969 155.772758 
L 218.333604 157.655323 
L 222.581238 159.681029 
L 226.828873 161.77922 
L 231.076507 163.858723 
L 235.324142 165.827984 
L 239.571776 167.612999 
L 243.819411 169.167986 
L 248.067045 170.476976 
" style="fill:none;stroke:#424243;stroke-linecap:square;stroke-width:2;"/>
   </g>
   <g id="patch_3">
    <path d="M 29.52625 183.496 
L 258.47375 183.496 
" style="fill:none;stroke:#000000;stroke-linecap:square;stroke-linejoin:miter;stroke-width:0.8;"/>
   </g>
  </g>
 </g>
 <defs>
  <clipPath id="pa9dbf8d082">
   <rect height="160.216" width="228.9475" x="29.52625" y="23.28"/>
  </clipPath>
 </defs>
</svg>
