<?xml version="1.0" encoding="utf-8" standalone="no"?>
<!DOCTYPE svg PUBLIC "-//W3C//DTD SVG 1.1//EN"
  "http://www.w3.org/Graphics/SVG/1.1/DTD/svg11.dtd">
<!-- Created with matplotlib (http://matplotlib.org/) -->
<svg height="288pt" version="1.1" viewBox="0 0 288 288" width="288pt" xmlns="http://www.w3.org/2000/svg" xmlns:xlink="http://www.w3.org/1999/xlink">
 <defs>
  <style type="text/css">
*{stroke-linecap:butt;stroke-linejoin:round;}
  </style>
 </defs>
 <g id="figure_1">
  <g id="patch_1">
   <path d="M 0 288 
L 288 288 
L 288 0 
L 0 0 
z
" style="fill:#ffffff;"/>
  </g>
  <g id="axes_1">
   <g id="patch_2">
    <path d="M 30.974219 183.67 
L 257.025781 183.67 
L 257.025781 23.175 
L 30.974219 23.175 
z
" style="fill:#ffffff;"/>
   </g>
   <g id="PolyCollection_1">
    <defs>
     <path d="M 41.24929 -111.625227 
L 41.24929 -120.119556 
L 45.443196 -122.375764 
L 49.637103 -124.98817 
L 53.831009 -127.542061 
L 58.024916 -129.657983 
L 62.218822 -131.400349 
L 66.412729 -133.738519 
L 70.606636 -138.738892 
L 74.800542 -148.395875 
L 78.994449 -161.943368 
L 83.188355 -175.030048 
L 87.382262 -183.817654 
L 91.576168 -189.482551 
L 95.770075 -196.486593 
L 99.963981 -207.242327 
L 104.157888 -220.096909 
L 108.351794 -231.395152 
L 112.545701 -238.200502 
L 116.739607 -239.563558 
L 120.933514 -236.345136 
L 125.127421 -230.310378 
L 129.321327 -222.93611 
L 133.515234 -214.628988 
L 137.70914 -205.015143 
L 141.903047 -193.779611 
L 146.096953 -181.19881 
L 150.29086 -168.182946 
L 154.484766 -155.915784 
L 158.678673 -145.337806 
L 162.872579 -136.823603 
L 167.066486 -130.198888 
L 171.260393 -125.049007 
L 175.454299 -121.055563 
L 179.648206 -118.0656 
L 183.842112 -115.95816 
L 188.036019 -114.573613 
L 192.229925 -113.749134 
L 196.423832 -113.33409 
L 200.617738 -113.16117 
L 204.811645 -113.050437 
L 209.005551 -112.884266 
L 213.199458 -112.671217 
L 217.393364 -112.49531 
L 221.587271 -112.407805 
L 225.781178 -112.389236 
L 229.975084 -112.387326 
L 234.168991 -112.361927 
L 238.362897 -112.300351 
L 242.556804 -112.210762 
L 246.75071 -112.113038 
L 246.75071 -111.625227 
L 246.75071 -111.625227 
L 242.556804 -111.625227 
L 238.362897 -111.625227 
L 234.168991 -111.625227 
L 229.975084 -111.625227 
L 225.781178 -111.625227 
L 221.587271 -111.625227 
L 217.393364 -111.625227 
L 213.199458 -111.625227 
L 209.005551 -111.625227 
L 204.811645 -111.625227 
L 200.617738 -111.625227 
L 196.423832 -111.625227 
L 192.229925 -111.625227 
L 188.036019 -111.625227 
L 183.842112 -111.625227 
L 179.648206 -111.625227 
L 175.454299 -111.625227 
L 171.260393 -111.625227 
L 167.066486 -111.625227 
L 162.872579 -111.625227 
L 158.678673 -111.625227 
L 154.484766 -111.625227 
L 150.29086 -111.625227 
L 146.096953 -111.625227 
L 141.903047 -111.625227 
L 137.70914 -111.625227 
L 133.515234 -111.625227 
L 129.321327 -111.625227 
L 125.127421 -111.625227 
L 120.933514 -111.625227 
L 116.739607 -111.625227 
L 112.545701 -111.625227 
L 108.351794 -111.625227 
L 104.157888 -111.625227 
L 99.963981 -111.625227 
L 95.770075 -111.625227 
L 91.576168 -111.625227 
L 87.382262 -111.625227 
L 83.188355 -111.625227 
L 78.994449 -111.625227 
L 74.800542 -111.625227 
L 70.606636 -111.625227 
L 66.412729 -111.625227 
L 62.218822 -111.625227 
L 58.024916 -111.625227 
L 53.831009 -111.625227 
L 49.637103 -111.625227 
L 45.443196 -111.625227 
L 41.24929 -111.625227 
z
" id="maea310e864" style="stroke:#cc79a7;stroke-opacity:0.3;"/>
    </defs>
    <g clip-path="url(#pe5beba5954)">
     <use style="fill:#cc79a7;fill-opacity:0.3;stroke:#cc79a7;stroke-opacity:0.3;" x="0" xlink:href="#maea310e864" y="288"/>
    </g>
   </g>
   <g id="PolyCollection_2">
    <defs>
     <path d="M 41.24929 -111.625227 
L 41.24929 -127.870225 
L 45.443196 -131.03688 
L 49.637103 -134.449161 
L 53.831009 -138.112231 
L 58.024916 -142.064415 
L 62.218822 -146.3725 
L 66.412729 -151.112163 
L 70.606636 -156.337968 
L 74.800542 -162.052911 
L 78.994449 -168.188143 
L 83.188355 -174.598297 
L 87.382262 -181.070433 
L 91.576168 -187.340183 
L 95.770075 -193.110242 
L 99.963981 -198.071594 
L 104.157888 -201.931158 
L 108.351794 -204.446833 
L 112.545701 -205.463681 
L 116.739607 -204.939112 
L 120.933514 -202.945979 
L 125.127421 -199.650951 
L 129.321327 -195.276349 
L 133.515234 -190.060057 
L 137.70914 -184.226653 
L 141.903047 -177.975315 
L 146.096953 -171.481482 
L 150.29086 -164.904528 
L 154.484766 -158.394127 
L 158.678673 -152.091618 
L 162.872579 -146.126545 
L 167.066486 -140.610527 
L 171.260393 -135.630797 
L 175.454299 -131.245042 
L 179.648206 -127.478579 
L 183.842112 -124.324557 
L 188.036019 -121.747507 
L 192.229925 -119.689896 
L 196.423832 -118.080609 
L 200.617738 -116.843724 
L 204.811645 -115.90597 
L 209.005551 -115.201773 
L 213.199458 -114.675637 
L 217.393364 -114.282352 
L 221.587271 -113.98591 
L 225.781178 -113.75798 
L 229.975084 -113.576505 
L 234.168991 -113.424644 
L 238.362897 -113.290025 
L 242.556804 -113.164233 
L 246.75071 -113.042447 
L 246.75071 -111.625227 
L 246.75071 -111.625227 
L 242.556804 -111.625227 
L 238.362897 -111.625227 
L 234.168991 -111.625227 
L 229.975084 -111.625227 
L 225.781178 -111.625227 
L 221.587271 -111.625227 
L 217.393364 -111.625227 
L 213.199458 -111.625227 
L 209.005551 -111.625227 
L 204.811645 -111.625227 
L 200.617738 -111.625227 
L 196.423832 -111.625227 
L 192.229925 -111.625227 
L 188.036019 -111.625227 
L 183.842112 -111.625227 
L 179.648206 -111.625227 
L 175.454299 -111.625227 
L 171.260393 -111.625227 
L 167.066486 -111.625227 
L 162.872579 -111.625227 
L 158.678673 -111.625227 
L 154.484766 -111.625227 
L 150.29086 -111.625227 
L 146.096953 -111.625227 
L 141.903047 -111.625227 
L 137.70914 -111.625227 
L 133.515234 -111.625227 
L 129.321327 -111.625227 
L 125.127421 -111.625227 
L 120.933514 -111.625227 
L 116.739607 -111.625227 
L 112.545701 -111.625227 
L 108.351794 -111.625227 
L 104.157888 -111.625227 
L 99.963981 -111.625227 
L 95.770075 -111.625227 
L 91.576168 -111.625227 
L 87.382262 -111.625227 
L 83.188355 -111.625227 
L 78.994449 -111.625227 
L 74.800542 -111.625227 
L 70.606636 -111.625227 
L 66.412729 -111.625227 
L 62.218822 -111.625227 
L 58.024916 -111.625227 
L 53.831009 -111.625227 
L 49.637103 -111.625227 
L 45.443196 -111.625227 
L 41.24929 -111.625227 
z
" id="m944ce21ca6" style="stroke:#424243;stroke-opacity:0.3;"/>
    </defs>
    <g clip-path="url(#pe5beba5954)">
     <use style="fill:#424243;fill-opacity:0.3;stroke:#424243;stroke-opacity:0.3;" x="0" xlink:href="#m944ce21ca6" y="288"/>
    </g>
   </g>
   <g id="matplotlib.axis_1">
    <g id="xtick_1">
     <g id="line2d_1">
      <defs>
       <path d="M 0 0 
L 0 3.5 
" id="mffda99a2e6" style="stroke:#000000;stroke-width:0.8;"/>
      </defs>
      <g>
       <use style="stroke:#000000;stroke-width:0.8;" x="83.827687" xlink:href="#mffda99a2e6" y="183.67"/>
      </g>
     </g>
     <g id="text_1">
      <!-- 0 -->
      <defs>
       <path d="M 31.78125 66.40625 
Q 24.171875 66.40625 20.328125 58.90625 
Q 16.5 51.421875 16.5 36.375 
Q 16.5 21.390625 20.328125 13.890625 
Q 24.171875 6.390625 31.78125 6.390625 
Q 39.453125 6.390625 43.28125 13.890625 
Q 47.125 21.390625 47.125 36.375 
Q 47.125 51.421875 43.28125 58.90625 
Q 39.453125 66.40625 31.78125 66.40625 
z
M 31.78125 74.21875 
Q 44.046875 74.21875 50.515625 64.515625 
Q 56.984375 54.828125 56.984375 36.375 
Q 56.984375 17.96875 50.515625 8.265625 
Q 44.046875 -1.421875 31.78125 -1.421875 
Q 19.53125 -1.421875 13.0625 8.265625 
Q 6.59375 17.96875 6.59375 36.375 
Q 6.59375 54.828125 13.0625 64.515625 
Q 19.53125 74.21875 31.78125 74.21875 
z
" id="DejaVuSans-30"/>
      </defs>
      <g transform="translate(77.465187 205.866875)scale(0.2 -0.2)">
       <use xlink:href="#DejaVuSans-30"/>
      </g>
     </g>
    </g>
    <g id="xtick_2">
     <g id="line2d_2">
      <g>
       <use style="stroke:#000000;stroke-width:0.8;" x="160.871424" xlink:href="#mffda99a2e6" y="183.67"/>
      </g>
     </g>
     <g id="text_2">
      <!-- 2 -->
      <defs>
       <path d="M 19.1875 8.296875 
L 53.609375 8.296875 
L 53.609375 0 
L 7.328125 0 
L 7.328125 8.296875 
Q 12.9375 14.109375 22.625 23.890625 
Q 32.328125 33.6875 34.8125 36.53125 
Q 39.546875 41.84375 41.421875 45.53125 
Q 43.3125 49.21875 43.3125 52.78125 
Q 43.3125 58.59375 39.234375 62.25 
Q 35.15625 65.921875 28.609375 65.921875 
Q 23.96875 65.921875 18.8125 64.3125 
Q 13.671875 62.703125 7.8125 59.421875 
L 7.8125 69.390625 
Q 13.765625 71.78125 18.9375 73 
Q 24.125 74.21875 28.421875 74.21875 
Q 39.75 74.21875 46.484375 68.546875 
Q 53.21875 62.890625 53.21875 53.421875 
Q 53.21875 48.921875 51.53125 44.890625 
Q 49.859375 40.875 45.40625 35.40625 
Q 44.1875 33.984375 37.640625 27.21875 
Q 31.109375 20.453125 19.1875 8.296875 
z
" id="DejaVuSans-32"/>
      </defs>
      <g transform="translate(154.508924 205.866875)scale(0.2 -0.2)">
       <use xlink:href="#DejaVuSans-32"/>
      </g>
     </g>
    </g>
    <g id="xtick_3">
     <g id="line2d_3">
      <g>
       <use style="stroke:#000000;stroke-width:0.8;" x="237.915161" xlink:href="#mffda99a2e6" y="183.67"/>
      </g>
     </g>
     <g id="text_3">
      <!-- 4 -->
      <defs>
       <path d="M 37.796875 64.3125 
L 12.890625 25.390625 
L 37.796875 25.390625 
z
M 35.203125 72.90625 
L 47.609375 72.90625 
L 47.609375 25.390625 
L 58.015625 25.390625 
L 58.015625 17.1875 
L 47.609375 17.1875 
L 47.609375 0 
L 37.796875 0 
L 37.796875 17.1875 
L 4.890625 17.1875 
L 4.890625 26.703125 
z
" id="DejaVuSans-34"/>
      </defs>
      <g transform="translate(231.552661 205.866875)scale(0.2 -0.2)">
       <use xlink:href="#DejaVuSans-34"/>
      </g>
     </g>
    </g>
    <g id="text_4">
     <!-- leaf area index -->
     <defs>
      <path d="M 9.421875 75.984375 
L 18.40625 75.984375 
L 18.40625 0 
L 9.421875 0 
z
" id="DejaVuSans-6c"/>
      <path d="M 56.203125 29.59375 
L 56.203125 25.203125 
L 14.890625 25.203125 
Q 15.484375 15.921875 20.484375 11.0625 
Q 25.484375 6.203125 34.421875 6.203125 
Q 39.59375 6.203125 44.453125 7.46875 
Q 49.3125 8.734375 54.109375 11.28125 
L 54.109375 2.78125 
Q 49.265625 0.734375 44.1875 -0.34375 
Q 39.109375 -1.421875 33.890625 -1.421875 
Q 20.796875 -1.421875 13.15625 6.1875 
Q 5.515625 13.8125 5.515625 26.8125 
Q 5.515625 40.234375 12.765625 48.109375 
Q 20.015625 56 32.328125 56 
Q 43.359375 56 49.78125 48.890625 
Q 56.203125 41.796875 56.203125 29.59375 
z
M 47.21875 32.234375 
Q 47.125 39.59375 43.09375 43.984375 
Q 39.0625 48.390625 32.421875 48.390625 
Q 24.90625 48.390625 20.390625 44.140625 
Q 15.875 39.890625 15.1875 32.171875 
z
" id="DejaVuSans-65"/>
      <path d="M 34.28125 27.484375 
Q 23.390625 27.484375 19.1875 25 
Q 14.984375 22.515625 14.984375 16.5 
Q 14.984375 11.71875 18.140625 8.90625 
Q 21.296875 6.109375 26.703125 6.109375 
Q 34.1875 6.109375 38.703125 11.40625 
Q 43.21875 16.703125 43.21875 25.484375 
L 43.21875 27.484375 
z
M 52.203125 31.203125 
L 52.203125 0 
L 43.21875 0 
L 43.21875 8.296875 
Q 40.140625 3.328125 35.546875 0.953125 
Q 30.953125 -1.421875 24.3125 -1.421875 
Q 15.921875 -1.421875 10.953125 3.296875 
Q 6 8.015625 6 15.921875 
Q 6 25.140625 12.171875 29.828125 
Q 18.359375 34.515625 30.609375 34.515625 
L 43.21875 34.515625 
L 43.21875 35.40625 
Q 43.21875 41.609375 39.140625 45 
Q 35.0625 48.390625 27.6875 48.390625 
Q 23 48.390625 18.546875 47.265625 
Q 14.109375 46.140625 10.015625 43.890625 
L 10.015625 52.203125 
Q 14.9375 54.109375 19.578125 55.046875 
Q 24.21875 56 28.609375 56 
Q 40.484375 56 46.34375 49.84375 
Q 52.203125 43.703125 52.203125 31.203125 
z
" id="DejaVuSans-61"/>
      <path d="M 37.109375 75.984375 
L 37.109375 68.5 
L 28.515625 68.5 
Q 23.6875 68.5 21.796875 66.546875 
Q 19.921875 64.59375 19.921875 59.515625 
L 19.921875 54.6875 
L 34.71875 54.6875 
L 34.71875 47.703125 
L 19.921875 47.703125 
L 19.921875 0 
L 10.890625 0 
L 10.890625 47.703125 
L 2.296875 47.703125 
L 2.296875 54.6875 
L 10.890625 54.6875 
L 10.890625 58.5 
Q 10.890625 67.625 15.140625 71.796875 
Q 19.390625 75.984375 28.609375 75.984375 
z
" id="DejaVuSans-66"/>
      <path id="DejaVuSans-20"/>
      <path d="M 41.109375 46.296875 
Q 39.59375 47.171875 37.8125 47.578125 
Q 36.03125 48 33.890625 48 
Q 26.265625 48 22.1875 43.046875 
Q 18.109375 38.09375 18.109375 28.8125 
L 18.109375 0 
L 9.078125 0 
L 9.078125 54.6875 
L 18.109375 54.6875 
L 18.109375 46.1875 
Q 20.953125 51.171875 25.484375 53.578125 
Q 30.03125 56 36.53125 56 
Q 37.453125 56 38.578125 55.875 
Q 39.703125 55.765625 41.0625 55.515625 
z
" id="DejaVuSans-72"/>
      <path d="M 9.421875 54.6875 
L 18.40625 54.6875 
L 18.40625 0 
L 9.421875 0 
z
M 9.421875 75.984375 
L 18.40625 75.984375 
L 18.40625 64.59375 
L 9.421875 64.59375 
z
" id="DejaVuSans-69"/>
      <path d="M 54.890625 33.015625 
L 54.890625 0 
L 45.90625 0 
L 45.90625 32.71875 
Q 45.90625 40.484375 42.875 44.328125 
Q 39.84375 48.1875 33.796875 48.1875 
Q 26.515625 48.1875 22.3125 43.546875 
Q 18.109375 38.921875 18.109375 30.90625 
L 18.109375 0 
L 9.078125 0 
L 9.078125 54.6875 
L 18.109375 54.6875 
L 18.109375 46.1875 
Q 21.34375 51.125 25.703125 53.5625 
Q 30.078125 56 35.796875 56 
Q 45.21875 56 50.046875 50.171875 
Q 54.890625 44.34375 54.890625 33.015625 
z
" id="DejaVuSans-6e"/>
      <path d="M 45.40625 46.390625 
L 45.40625 75.984375 
L 54.390625 75.984375 
L 54.390625 0 
L 45.40625 0 
L 45.40625 8.203125 
Q 42.578125 3.328125 38.25 0.953125 
Q 33.9375 -1.421875 27.875 -1.421875 
Q 17.96875 -1.421875 11.734375 6.484375 
Q 5.515625 14.40625 5.515625 27.296875 
Q 5.515625 40.1875 11.734375 48.09375 
Q 17.96875 56 27.875 56 
Q 33.9375 56 38.25 53.625 
Q 42.578125 51.265625 45.40625 46.390625 
z
M 14.796875 27.296875 
Q 14.796875 17.390625 18.875 11.75 
Q 22.953125 6.109375 30.078125 6.109375 
Q 37.203125 6.109375 41.296875 11.75 
Q 45.40625 17.390625 45.40625 27.296875 
Q 45.40625 37.203125 41.296875 42.84375 
Q 37.203125 48.484375 30.078125 48.484375 
Q 22.953125 48.484375 18.875 42.84375 
Q 14.796875 37.203125 14.796875 27.296875 
z
" id="DejaVuSans-64"/>
      <path d="M 54.890625 54.6875 
L 35.109375 28.078125 
L 55.90625 0 
L 45.3125 0 
L 29.390625 21.484375 
L 13.484375 0 
L 2.875 0 
L 24.125 28.609375 
L 4.6875 54.6875 
L 15.28125 54.6875 
L 29.78125 35.203125 
L 44.28125 54.6875 
z
" id="DejaVuSans-78"/>
     </defs>
     <g transform="translate(50.265625 233.022344)scale(0.25 -0.25)">
      <use xlink:href="#DejaVuSans-6c"/>
      <use x="27.783203" xlink:href="#DejaVuSans-65"/>
      <use x="89.306641" xlink:href="#DejaVuSans-61"/>
      <use x="150.585938" xlink:href="#DejaVuSans-66"/>
      <use x="185.791016" xlink:href="#DejaVuSans-20"/>
      <use x="217.578125" xlink:href="#DejaVuSans-61"/>
      <use x="278.857422" xlink:href="#DejaVuSans-72"/>
      <use x="319.939453" xlink:href="#DejaVuSans-65"/>
      <use x="381.462891" xlink:href="#DejaVuSans-61"/>
      <use x="442.742188" xlink:href="#DejaVuSans-20"/>
      <use x="474.529297" xlink:href="#DejaVuSans-69"/>
      <use x="502.3125" xlink:href="#DejaVuSans-6e"/>
      <use x="565.691406" xlink:href="#DejaVuSans-64"/>
      <use x="629.167969" xlink:href="#DejaVuSans-65"/>
      <use x="690.675781" xlink:href="#DejaVuSans-78"/>
     </g>
     <!-- skew -->
     <defs>
      <path d="M 44.28125 53.078125 
L 44.28125 44.578125 
Q 40.484375 46.53125 36.375 47.5 
Q 32.28125 48.484375 27.875 48.484375 
Q 21.1875 48.484375 17.84375 46.4375 
Q 14.5 44.390625 14.5 40.28125 
Q 14.5 37.15625 16.890625 35.375 
Q 19.28125 33.59375 26.515625 31.984375 
L 29.59375 31.296875 
Q 39.15625 29.25 43.1875 25.515625 
Q 47.21875 21.78125 47.21875 15.09375 
Q 47.21875 7.46875 41.1875 3.015625 
Q 35.15625 -1.421875 24.609375 -1.421875 
Q 20.21875 -1.421875 15.453125 -0.5625 
Q 10.6875 0.296875 5.421875 2 
L 5.421875 11.28125 
Q 10.40625 8.6875 15.234375 7.390625 
Q 20.0625 6.109375 24.8125 6.109375 
Q 31.15625 6.109375 34.5625 8.28125 
Q 37.984375 10.453125 37.984375 14.40625 
Q 37.984375 18.0625 35.515625 20.015625 
Q 33.0625 21.96875 24.703125 23.78125 
L 21.578125 24.515625 
Q 13.234375 26.265625 9.515625 29.90625 
Q 5.8125 33.546875 5.8125 39.890625 
Q 5.8125 47.609375 11.28125 51.796875 
Q 16.75 56 26.8125 56 
Q 31.78125 56 36.171875 55.265625 
Q 40.578125 54.546875 44.28125 53.078125 
z
" id="DejaVuSans-73"/>
      <path d="M 9.078125 75.984375 
L 18.109375 75.984375 
L 18.109375 31.109375 
L 44.921875 54.6875 
L 56.390625 54.6875 
L 27.390625 29.109375 
L 57.625 0 
L 45.90625 0 
L 18.109375 26.703125 
L 18.109375 0 
L 9.078125 0 
z
" id="DejaVuSans-6b"/>
      <path d="M 4.203125 54.6875 
L 13.1875 54.6875 
L 24.421875 12.015625 
L 35.59375 54.6875 
L 46.1875 54.6875 
L 57.421875 12.015625 
L 68.609375 54.6875 
L 77.59375 54.6875 
L 63.28125 0 
L 52.6875 0 
L 40.921875 44.828125 
L 29.109375 0 
L 18.5 0 
z
" id="DejaVuSans-77"/>
     </defs>
     <g transform="translate(112.341797 261.016875)scale(0.25 -0.25)">
      <use xlink:href="#DejaVuSans-73"/>
      <use x="52.099609" xlink:href="#DejaVuSans-6b"/>
      <use x="109.962891" xlink:href="#DejaVuSans-65"/>
      <use x="171.486328" xlink:href="#DejaVuSans-77"/>
     </g>
    </g>
   </g>
   <g id="line2d_4">
    <path clip-path="url(#pe5beba5954)" d="M 41.24929 167.880444 
L 45.443196 165.624236 
L 49.637103 163.01183 
L 53.831009 160.457939 
L 58.024916 158.342017 
L 62.218822 156.599651 
L 66.412729 154.261481 
L 70.606636 149.261108 
L 74.800542 139.604125 
L 78.994449 126.056632 
L 83.188355 112.969952 
L 87.382262 104.182346 
L 91.576168 98.517449 
L 95.770075 91.513407 
L 99.963981 80.757673 
L 104.157888 67.903091 
L 108.351794 56.604848 
L 112.545701 49.799498 
L 116.739607 48.436442 
L 120.933514 51.654864 
L 125.127421 57.689622 
L 129.321327 65.06389 
L 133.515234 73.371012 
L 137.70914 82.984857 
L 141.903047 94.220389 
L 146.096953 106.80119 
L 150.29086 119.817054 
L 154.484766 132.084216 
L 158.678673 142.662194 
L 162.872579 151.176397 
L 167.066486 157.801112 
L 171.260393 162.950993 
L 175.454299 166.944437 
L 179.648206 169.9344 
L 183.842112 172.04184 
L 188.036019 173.426387 
L 192.229925 174.250866 
L 196.423832 174.66591 
L 200.617738 174.83883 
L 204.811645 174.949563 
L 209.005551 175.115734 
L 213.199458 175.328783 
L 217.393364 175.50469 
L 221.587271 175.592195 
L 225.781178 175.610764 
L 229.975084 175.612674 
L 234.168991 175.638073 
L 238.362897 175.699649 
L 242.556804 175.789238 
L 246.75071 175.886962 
" style="fill:none;stroke:#cc79a7;stroke-linecap:square;stroke-width:2;"/>
   </g>
   <g id="line2d_5">
    <path clip-path="url(#pe5beba5954)" d="M 41.24929 160.129775 
L 45.443196 156.96312 
L 49.637103 153.550839 
L 53.831009 149.887769 
L 58.024916 145.935585 
L 62.218822 141.6275 
L 66.412729 136.887837 
L 70.606636 131.662032 
L 74.800542 125.947089 
L 78.994449 119.811857 
L 83.188355 113.401703 
L 87.382262 106.929567 
L 91.576168 100.659817 
L 95.770075 94.889758 
L 99.963981 89.928406 
L 104.157888 86.068842 
L 108.351794 83.553167 
L 112.545701 82.536319 
L 116.739607 83.060888 
L 120.933514 85.054021 
L 125.127421 88.349049 
L 129.321327 92.723651 
L 133.515234 97.939943 
L 137.70914 103.773347 
L 141.903047 110.024685 
L 146.096953 116.518518 
L 150.29086 123.095472 
L 154.484766 129.605873 
L 158.678673 135.908382 
L 162.872579 141.873455 
L 167.066486 147.389473 
L 171.260393 152.369203 
L 175.454299 156.754958 
L 179.648206 160.521421 
L 183.842112 163.675443 
L 188.036019 166.252493 
L 192.229925 168.310104 
L 196.423832 169.919391 
L 200.617738 171.156276 
L 204.811645 172.09403 
L 209.005551 172.798227 
L 213.199458 173.324363 
L 217.393364 173.717648 
L 221.587271 174.01409 
L 225.781178 174.24202 
L 229.975084 174.423495 
L 234.168991 174.575356 
L 238.362897 174.709975 
L 242.556804 174.835767 
L 246.75071 174.957553 
" style="fill:none;stroke:#424243;stroke-linecap:square;stroke-width:2;"/>
   </g>
   <g id="patch_3">
    <path d="M 30.974219 183.67 
L 257.025781 183.67 
" style="fill:none;stroke:#000000;stroke-linecap:square;stroke-linejoin:miter;stroke-width:0.8;"/>
   </g>
  </g>
 </g>
 <defs>
  <clipPath id="pe5beba5954">
   <rect height="160.495" width="226.051563" x="30.974219" y="23.175"/>
  </clipPath>
 </defs>
</svg>
