<?xml version="1.0" encoding="utf-8" standalone="no"?>
<!DOCTYPE svg PUBLIC "-//W3C//DTD SVG 1.1//EN"
  "http://www.w3.org/Graphics/SVG/1.1/DTD/svg11.dtd">
<!-- Created with matplotlib (http://matplotlib.org/) -->
<svg height="288pt" version="1.1" viewBox="0 0 288 288" width="288pt" xmlns="http://www.w3.org/2000/svg" xmlns:xlink="http://www.w3.org/1999/xlink">
 <defs>
  <style type="text/css">
*{stroke-linecap:butt;stroke-linejoin:round;}
  </style>
 </defs>
 <g id="figure_1">
  <g id="patch_1">
   <path d="M 0 288 
L 288 288 
L 288 0 
L 0 0 
z
" style="fill:#ffffff;"/>
  </g>
  <g id="axes_1">
   <g id="patch_2">
    <path d="M 23.28 183.496 
L 252.931974 183.496 
L 252.931974 23.28 
L 23.28 23.28 
z
" style="fill:#ffffff;"/>
   </g>
   <g id="PolyCollection_1">
    <defs>
     <path d="M 33.718726 -111.786545 
L 33.718726 -203.43506 
L 37.979431 -220.931706 
L 42.240135 -232.239998 
L 46.50084 -236.313549 
L 50.761544 -233.924022 
L 55.022249 -227.045109 
L 59.282953 -217.947471 
L 63.543658 -208.488105 
L 67.804362 -199.801533 
L 72.065067 -192.32943 
L 76.325771 -186.025091 
L 80.586476 -180.597945 
L 84.84718 -175.7198 
L 89.107885 -171.155378 
L 93.36859 -166.80977 
L 97.629294 -162.709007 
L 101.889999 -158.94282 
L 106.150703 -155.600689 
L 110.411408 -152.726333 
L 114.672112 -150.302299 
L 118.932817 -148.25893 
L 123.193521 -146.492029 
L 127.454226 -144.878996 
L 131.71493 -143.296023 
L 135.975635 -141.642335 
L 140.236339 -139.866444 
L 144.497044 -137.978534 
L 148.757748 -136.037763 
L 153.018453 -134.12074 
L 157.279158 -132.290742 
L 161.539862 -130.585134 
L 165.800567 -129.023953 
L 170.061271 -127.62721 
L 174.321976 -126.422291 
L 178.58268 -125.430942 
L 182.843385 -124.643501 
L 187.104089 -124.002671 
L 191.364794 -123.416039 
L 195.625498 -122.795483 
L 199.886203 -122.099637 
L 204.146907 -121.3522 
L 208.407612 -120.626581 
L 212.668316 -120.009134 
L 216.929021 -119.560796 
L 221.189726 -119.289662 
L 225.45043 -119.1387 
L 229.711135 -118.992403 
L 233.971839 -118.7076 
L 238.232544 -118.165723 
L 242.493248 -117.326909 
L 242.493248 -111.786545 
L 242.493248 -111.786545 
L 238.232544 -111.786545 
L 233.971839 -111.786545 
L 229.711135 -111.786545 
L 225.45043 -111.786545 
L 221.189726 -111.786545 
L 216.929021 -111.786545 
L 212.668316 -111.786545 
L 208.407612 -111.786545 
L 204.146907 -111.786545 
L 199.886203 -111.786545 
L 195.625498 -111.786545 
L 191.364794 -111.786545 
L 187.104089 -111.786545 
L 182.843385 -111.786545 
L 178.58268 -111.786545 
L 174.321976 -111.786545 
L 170.061271 -111.786545 
L 165.800567 -111.786545 
L 161.539862 -111.786545 
L 157.279158 -111.786545 
L 153.018453 -111.786545 
L 148.757748 -111.786545 
L 144.497044 -111.786545 
L 140.236339 -111.786545 
L 135.975635 -111.786545 
L 131.71493 -111.786545 
L 127.454226 -111.786545 
L 123.193521 -111.786545 
L 118.932817 -111.786545 
L 114.672112 -111.786545 
L 110.411408 -111.786545 
L 106.150703 -111.786545 
L 101.889999 -111.786545 
L 97.629294 -111.786545 
L 93.36859 -111.786545 
L 89.107885 -111.786545 
L 84.84718 -111.786545 
L 80.586476 -111.786545 
L 76.325771 -111.786545 
L 72.065067 -111.786545 
L 67.804362 -111.786545 
L 63.543658 -111.786545 
L 59.282953 -111.786545 
L 55.022249 -111.786545 
L 50.761544 -111.786545 
L 46.50084 -111.786545 
L 42.240135 -111.786545 
L 37.979431 -111.786545 
L 33.718726 -111.786545 
z
" id="m6d69b06f80" style="stroke:#e69f00;stroke-opacity:0.3;"/>
    </defs>
    <g clip-path="url(#pfbd63148bc)">
     <use style="fill:#e69f00;fill-opacity:0.3;stroke:#e69f00;stroke-opacity:0.3;" x="0" xlink:href="#m6d69b06f80" y="288"/>
    </g>
   </g>
   <g id="PolyCollection_2">
    <defs>
     <path d="M 33.718726 -111.786545 
L 33.718726 -253.650992 
L 37.979431 -257.437455 
L 42.240135 -252.201096 
L 46.50084 -239.855273 
L 50.761544 -223.456579 
L 55.022249 -206.157128 
L 59.282953 -190.355016 
L 63.543658 -177.324563 
L 67.804362 -167.321085 
L 72.065067 -159.95439 
L 76.325771 -154.590288 
L 80.586476 -150.627544 
L 84.84718 -147.615544 
L 89.107885 -145.256371 
L 93.36859 -143.356687 
L 97.629294 -141.778682 
L 101.889999 -140.411763 
L 106.150703 -139.165161 
L 110.411408 -137.97166 
L 114.672112 -136.792216 
L 118.932817 -135.615537 
L 123.193521 -134.451782 
L 127.454226 -133.322818 
L 131.71493 -132.252454 
L 135.975635 -131.259358 
L 140.236339 -130.3538 
L 144.497044 -129.53789 
L 148.757748 -128.807838 
L 153.018453 -128.156406 
L 157.279158 -127.574266 
L 161.539862 -127.050001 
L 165.800567 -126.569524 
L 170.061271 -126.116013 
L 174.321976 -125.671089 
L 178.58268 -125.217384 
L 182.843385 -124.742104 
L 187.104089 -124.241047 
L 191.364794 -123.722453 
L 195.625498 -123.2101 
L 199.886203 -122.744907 
L 204.146907 -122.383773 
L 208.407612 -122.193494 
L 212.668316 -122.237034 
L 216.929021 -122.55074 
L 221.189726 -123.115774 
L 225.45043 -123.834094 
L 229.711135 -124.524671 
L 233.971839 -124.953034 
L 238.232544 -124.893778 
L 242.493248 -124.206271 
L 242.493248 -111.786545 
L 242.493248 -111.786545 
L 238.232544 -111.786545 
L 233.971839 -111.786545 
L 229.711135 -111.786545 
L 225.45043 -111.786545 
L 221.189726 -111.786545 
L 216.929021 -111.786545 
L 212.668316 -111.786545 
L 208.407612 -111.786545 
L 204.146907 -111.786545 
L 199.886203 -111.786545 
L 195.625498 -111.786545 
L 191.364794 -111.786545 
L 187.104089 -111.786545 
L 182.843385 -111.786545 
L 178.58268 -111.786545 
L 174.321976 -111.786545 
L 170.061271 -111.786545 
L 165.800567 -111.786545 
L 161.539862 -111.786545 
L 157.279158 -111.786545 
L 153.018453 -111.786545 
L 148.757748 -111.786545 
L 144.497044 -111.786545 
L 140.236339 -111.786545 
L 135.975635 -111.786545 
L 131.71493 -111.786545 
L 127.454226 -111.786545 
L 123.193521 -111.786545 
L 118.932817 -111.786545 
L 114.672112 -111.786545 
L 110.411408 -111.786545 
L 106.150703 -111.786545 
L 101.889999 -111.786545 
L 97.629294 -111.786545 
L 93.36859 -111.786545 
L 89.107885 -111.786545 
L 84.84718 -111.786545 
L 80.586476 -111.786545 
L 76.325771 -111.786545 
L 72.065067 -111.786545 
L 67.804362 -111.786545 
L 63.543658 -111.786545 
L 59.282953 -111.786545 
L 55.022249 -111.786545 
L 50.761544 -111.786545 
L 46.50084 -111.786545 
L 42.240135 -111.786545 
L 37.979431 -111.786545 
L 33.718726 -111.786545 
z
" id="m1d06f9af1c" style="stroke:#424243;stroke-opacity:0.3;"/>
    </defs>
    <g clip-path="url(#pfbd63148bc)">
     <use style="fill:#424243;fill-opacity:0.3;stroke:#424243;stroke-opacity:0.3;" x="0" xlink:href="#m1d06f9af1c" y="288"/>
    </g>
   </g>
   <g id="matplotlib.axis_1">
    <g id="xtick_1">
     <g id="line2d_1">
      <defs>
       <path d="M 0 0 
L 0 3.5 
" id="m3f2c4c52f0" style="stroke:#000000;stroke-width:0.8;"/>
      </defs>
      <g>
       <use style="stroke:#000000;stroke-width:0.8;" x="33.718726" xlink:href="#m3f2c4c52f0" y="183.496"/>
      </g>
     </g>
     <g id="text_1">
      <!-- 0 -->
      <defs>
       <path d="M 31.78125 66.40625 
Q 24.171875 66.40625 20.328125 58.90625 
Q 16.5 51.421875 16.5 36.375 
Q 16.5 21.390625 20.328125 13.890625 
Q 24.171875 6.390625 31.78125 6.390625 
Q 39.453125 6.390625 43.28125 13.890625 
Q 47.125 21.390625 47.125 36.375 
Q 47.125 51.421875 43.28125 58.90625 
Q 39.453125 66.40625 31.78125 66.40625 
z
M 31.78125 74.21875 
Q 44.046875 74.21875 50.515625 64.515625 
Q 56.984375 54.828125 56.984375 36.375 
Q 56.984375 17.96875 50.515625 8.265625 
Q 44.046875 -1.421875 31.78125 -1.421875 
Q 19.53125 -1.421875 13.0625 8.265625 
Q 6.59375 17.96875 6.59375 36.375 
Q 6.59375 54.828125 13.0625 64.515625 
Q 19.53125 74.21875 31.78125 74.21875 
z
" id="DejaVuSans-30"/>
      </defs>
      <g transform="translate(27.356226 205.692875)scale(0.2 -0.2)">
       <use xlink:href="#DejaVuSans-30"/>
      </g>
     </g>
    </g>
    <g id="xtick_2">
     <g id="line2d_2">
      <g>
       <use style="stroke:#000000;stroke-width:0.8;" x="139.160404" xlink:href="#m3f2c4c52f0" y="183.496"/>
      </g>
     </g>
     <g id="text_2">
      <!-- 50 -->
      <defs>
       <path d="M 10.796875 72.90625 
L 49.515625 72.90625 
L 49.515625 64.59375 
L 19.828125 64.59375 
L 19.828125 46.734375 
Q 21.96875 47.46875 24.109375 47.828125 
Q 26.265625 48.1875 28.421875 48.1875 
Q 40.625 48.1875 47.75 41.5 
Q 54.890625 34.8125 54.890625 23.390625 
Q 54.890625 11.625 47.5625 5.09375 
Q 40.234375 -1.421875 26.90625 -1.421875 
Q 22.3125 -1.421875 17.546875 -0.640625 
Q 12.796875 0.140625 7.71875 1.703125 
L 7.71875 11.625 
Q 12.109375 9.234375 16.796875 8.0625 
Q 21.484375 6.890625 26.703125 6.890625 
Q 35.15625 6.890625 40.078125 11.328125 
Q 45.015625 15.765625 45.015625 23.390625 
Q 45.015625 31 40.078125 35.4375 
Q 35.15625 39.890625 26.703125 39.890625 
Q 22.75 39.890625 18.8125 39.015625 
Q 14.890625 38.140625 10.796875 36.28125 
z
" id="DejaVuSans-35"/>
      </defs>
      <g transform="translate(126.435404 205.692875)scale(0.2 -0.2)">
       <use xlink:href="#DejaVuSans-35"/>
       <use x="63.623047" xlink:href="#DejaVuSans-30"/>
      </g>
     </g>
    </g>
    <g id="xtick_3">
     <g id="line2d_3">
      <g>
       <use style="stroke:#000000;stroke-width:0.8;" x="244.602082" xlink:href="#m3f2c4c52f0" y="183.496"/>
      </g>
     </g>
     <g id="text_3">
      <!-- 100 -->
      <defs>
       <path d="M 12.40625 8.296875 
L 28.515625 8.296875 
L 28.515625 63.921875 
L 10.984375 60.40625 
L 10.984375 69.390625 
L 28.421875 72.90625 
L 38.28125 72.90625 
L 38.28125 8.296875 
L 54.390625 8.296875 
L 54.390625 0 
L 12.40625 0 
z
" id="DejaVuSans-31"/>
      </defs>
      <g transform="translate(225.514582 205.692875)scale(0.2 -0.2)">
       <use xlink:href="#DejaVuSans-31"/>
       <use x="63.623047" xlink:href="#DejaVuSans-30"/>
       <use x="127.246094" xlink:href="#DejaVuSans-30"/>
      </g>
     </g>
    </g>
    <g id="text_4">
     <!-- tree cover -->
     <defs>
      <path d="M 18.3125 70.21875 
L 18.3125 54.6875 
L 36.8125 54.6875 
L 36.8125 47.703125 
L 18.3125 47.703125 
L 18.3125 18.015625 
Q 18.3125 11.328125 20.140625 9.421875 
Q 21.96875 7.515625 27.59375 7.515625 
L 36.8125 7.515625 
L 36.8125 0 
L 27.59375 0 
Q 17.1875 0 13.234375 3.875 
Q 9.28125 7.765625 9.28125 18.015625 
L 9.28125 47.703125 
L 2.6875 47.703125 
L 2.6875 54.6875 
L 9.28125 54.6875 
L 9.28125 70.21875 
z
" id="DejaVuSans-74"/>
      <path d="M 41.109375 46.296875 
Q 39.59375 47.171875 37.8125 47.578125 
Q 36.03125 48 33.890625 48 
Q 26.265625 48 22.1875 43.046875 
Q 18.109375 38.09375 18.109375 28.8125 
L 18.109375 0 
L 9.078125 0 
L 9.078125 54.6875 
L 18.109375 54.6875 
L 18.109375 46.1875 
Q 20.953125 51.171875 25.484375 53.578125 
Q 30.03125 56 36.53125 56 
Q 37.453125 56 38.578125 55.875 
Q 39.703125 55.765625 41.0625 55.515625 
z
" id="DejaVuSans-72"/>
      <path d="M 56.203125 29.59375 
L 56.203125 25.203125 
L 14.890625 25.203125 
Q 15.484375 15.921875 20.484375 11.0625 
Q 25.484375 6.203125 34.421875 6.203125 
Q 39.59375 6.203125 44.453125 7.46875 
Q 49.3125 8.734375 54.109375 11.28125 
L 54.109375 2.78125 
Q 49.265625 0.734375 44.1875 -0.34375 
Q 39.109375 -1.421875 33.890625 -1.421875 
Q 20.796875 -1.421875 13.15625 6.1875 
Q 5.515625 13.8125 5.515625 26.8125 
Q 5.515625 40.234375 12.765625 48.109375 
Q 20.015625 56 32.328125 56 
Q 43.359375 56 49.78125 48.890625 
Q 56.203125 41.796875 56.203125 29.59375 
z
M 47.21875 32.234375 
Q 47.125 39.59375 43.09375 43.984375 
Q 39.0625 48.390625 32.421875 48.390625 
Q 24.90625 48.390625 20.390625 44.140625 
Q 15.875 39.890625 15.1875 32.171875 
z
" id="DejaVuSans-65"/>
      <path id="DejaVuSans-20"/>
      <path d="M 48.78125 52.59375 
L 48.78125 44.1875 
Q 44.96875 46.296875 41.140625 47.34375 
Q 37.3125 48.390625 33.40625 48.390625 
Q 24.65625 48.390625 19.8125 42.84375 
Q 14.984375 37.3125 14.984375 27.296875 
Q 14.984375 17.28125 19.8125 11.734375 
Q 24.65625 6.203125 33.40625 6.203125 
Q 37.3125 6.203125 41.140625 7.25 
Q 44.96875 8.296875 48.78125 10.40625 
L 48.78125 2.09375 
Q 45.015625 0.34375 40.984375 -0.53125 
Q 36.96875 -1.421875 32.421875 -1.421875 
Q 20.0625 -1.421875 12.78125 6.34375 
Q 5.515625 14.109375 5.515625 27.296875 
Q 5.515625 40.671875 12.859375 48.328125 
Q 20.21875 56 33.015625 56 
Q 37.15625 56 41.109375 55.140625 
Q 45.0625 54.296875 48.78125 52.59375 
z
" id="DejaVuSans-63"/>
      <path d="M 30.609375 48.390625 
Q 23.390625 48.390625 19.1875 42.75 
Q 14.984375 37.109375 14.984375 27.296875 
Q 14.984375 17.484375 19.15625 11.84375 
Q 23.34375 6.203125 30.609375 6.203125 
Q 37.796875 6.203125 41.984375 11.859375 
Q 46.1875 17.53125 46.1875 27.296875 
Q 46.1875 37.015625 41.984375 42.703125 
Q 37.796875 48.390625 30.609375 48.390625 
z
M 30.609375 56 
Q 42.328125 56 49.015625 48.375 
Q 55.71875 40.765625 55.71875 27.296875 
Q 55.71875 13.875 49.015625 6.21875 
Q 42.328125 -1.421875 30.609375 -1.421875 
Q 18.84375 -1.421875 12.171875 6.21875 
Q 5.515625 13.875 5.515625 27.296875 
Q 5.515625 40.765625 12.171875 48.375 
Q 18.84375 56 30.609375 56 
z
" id="DejaVuSans-6f"/>
      <path d="M 2.984375 54.6875 
L 12.5 54.6875 
L 29.59375 8.796875 
L 46.6875 54.6875 
L 56.203125 54.6875 
L 35.6875 0 
L 23.484375 0 
z
" id="DejaVuSans-76"/>
     </defs>
     <g transform="translate(73.965362 232.848344)scale(0.25 -0.25)">
      <use xlink:href="#DejaVuSans-74"/>
      <use x="39.208984" xlink:href="#DejaVuSans-72"/>
      <use x="80.291016" xlink:href="#DejaVuSans-65"/>
      <use x="141.814453" xlink:href="#DejaVuSans-65"/>
      <use x="203.337891" xlink:href="#DejaVuSans-20"/>
      <use x="235.125" xlink:href="#DejaVuSans-63"/>
      <use x="290.105469" xlink:href="#DejaVuSans-6f"/>
      <use x="351.287109" xlink:href="#DejaVuSans-76"/>
      <use x="410.466797" xlink:href="#DejaVuSans-65"/>
      <use x="471.990234" xlink:href="#DejaVuSans-72"/>
     </g>
     <!--   -->
     <g transform="translate(134.133331 260.842875)scale(0.25 -0.25)">
      <use xlink:href="#DejaVuSans-20"/>
     </g>
    </g>
   </g>
   <g id="line2d_4">
    <path clip-path="url(#pfbd63148bc)" d="M 33.718726 84.56494 
L 37.979431 67.068294 
L 42.240135 55.760002 
L 46.50084 51.686451 
L 50.761544 54.075978 
L 55.022249 60.954891 
L 59.282953 70.052529 
L 63.543658 79.511895 
L 67.804362 88.198467 
L 72.065067 95.67057 
L 76.325771 101.974909 
L 80.586476 107.402055 
L 84.84718 112.2802 
L 89.107885 116.844622 
L 93.36859 121.19023 
L 97.629294 125.290993 
L 101.889999 129.05718 
L 106.150703 132.399311 
L 110.411408 135.273667 
L 114.672112 137.697701 
L 118.932817 139.74107 
L 123.193521 141.507971 
L 127.454226 143.121004 
L 131.71493 144.703977 
L 135.975635 146.357665 
L 140.236339 148.133556 
L 144.497044 150.021466 
L 148.757748 151.962237 
L 153.018453 153.87926 
L 157.279158 155.709258 
L 161.539862 157.414866 
L 165.800567 158.976047 
L 170.061271 160.37279 
L 174.321976 161.577709 
L 178.58268 162.569058 
L 182.843385 163.356499 
L 187.104089 163.997329 
L 191.364794 164.583961 
L 195.625498 165.204517 
L 199.886203 165.900363 
L 204.146907 166.6478 
L 208.407612 167.373419 
L 212.668316 167.990866 
L 216.929021 168.439204 
L 221.189726 168.710338 
L 225.45043 168.8613 
L 229.711135 169.007597 
L 233.971839 169.2924 
L 238.232544 169.834277 
L 242.493248 170.673091 
" style="fill:none;stroke:#e69f00;stroke-linecap:square;stroke-width:2;"/>
   </g>
   <g id="line2d_5">
    <path clip-path="url(#pfbd63148bc)" d="M 33.718726 34.349008 
L 37.979431 30.562545 
L 42.240135 35.798904 
L 46.50084 48.144727 
L 50.761544 64.543421 
L 55.022249 81.842872 
L 59.282953 97.644984 
L 63.543658 110.675437 
L 67.804362 120.678915 
L 72.065067 128.04561 
L 76.325771 133.409712 
L 80.586476 137.372456 
L 84.84718 140.384456 
L 89.107885 142.743629 
L 93.36859 144.643313 
L 97.629294 146.221318 
L 101.889999 147.588237 
L 106.150703 148.834839 
L 110.411408 150.02834 
L 114.672112 151.207784 
L 118.932817 152.384463 
L 123.193521 153.548218 
L 127.454226 154.677182 
L 131.71493 155.747546 
L 135.975635 156.740642 
L 140.236339 157.6462 
L 144.497044 158.46211 
L 148.757748 159.192162 
L 153.018453 159.843594 
L 157.279158 160.425734 
L 161.539862 160.949999 
L 165.800567 161.430476 
L 170.061271 161.883987 
L 174.321976 162.328911 
L 178.58268 162.782616 
L 182.843385 163.257896 
L 187.104089 163.758953 
L 191.364794 164.277547 
L 195.625498 164.7899 
L 199.886203 165.255093 
L 204.146907 165.616227 
L 208.407612 165.806506 
L 212.668316 165.762966 
L 216.929021 165.44926 
L 221.189726 164.884226 
L 225.45043 164.165906 
L 229.711135 163.475329 
L 233.971839 163.046966 
L 238.232544 163.106222 
L 242.493248 163.793729 
" style="fill:none;stroke:#424243;stroke-linecap:square;stroke-width:2;"/>
   </g>
   <g id="patch_3">
    <path d="M 23.28 183.496 
L 252.931974 183.496 
" style="fill:none;stroke:#000000;stroke-linecap:square;stroke-linejoin:miter;stroke-width:0.8;"/>
   </g>
  </g>
 </g>
 <defs>
  <clipPath id="pfbd63148bc">
   <rect height="160.216" width="229.651974" x="23.28" y="23.28"/>
  </clipPath>
 </defs>
</svg>
