<?xml version="1.0" encoding="utf-8" standalone="no"?>
<!DOCTYPE svg PUBLIC "-//W3C//DTD SVG 1.1//EN"
  "http://www.w3.org/Graphics/SVG/1.1/DTD/svg11.dtd">
<!-- Created with matplotlib (http://matplotlib.org/) -->
<svg height="288pt" version="1.1" viewBox="0 0 288 288" width="288pt" xmlns="http://www.w3.org/2000/svg" xmlns:xlink="http://www.w3.org/1999/xlink">
 <defs>
  <style type="text/css">
*{stroke-linecap:butt;stroke-linejoin:round;}
  </style>
 </defs>
 <g id="figure_1">
  <g id="patch_1">
   <path d="M 0 288 
L 288 288 
L 288 0 
L 0 0 
z
" style="fill:#ffffff;"/>
  </g>
  <g id="axes_1">
   <g id="patch_2">
    <path d="M 25.644493 183.67 
L 264.825 183.67 
L 264.825 23.175 
L 25.644493 23.175 
z
" style="fill:#ffffff;"/>
   </g>
   <g id="PolyCollection_1">
    <defs>
     <path d="M 36.516334 -111.625227 
L 36.516334 -130.590988 
L 40.95382 -142.751155 
L 45.391306 -155.849839 
L 49.828792 -172.157227 
L 54.266279 -191.77043 
L 58.703765 -207.58813 
L 63.141251 -211.336021 
L 67.578737 -202.868828 
L 72.016224 -187.966028 
L 76.45371 -172.862329 
L 80.891196 -161.143271 
L 85.328682 -153.261838 
L 89.766168 -147.770182 
L 94.203655 -142.732758 
L 98.641141 -137.364495 
L 103.078627 -132.148567 
L 107.516113 -128.141387 
L 111.9536 -125.860514 
L 116.391086 -124.208414 
L 120.828572 -121.864481 
L 125.266058 -119.062562 
L 129.703544 -116.819213 
L 134.141031 -115.423846 
L 138.578517 -114.556666 
L 143.016003 -113.87032 
L 147.453489 -113.259942 
L 151.890976 -112.775983 
L 156.328462 -112.399692 
L 160.765948 -112.079906 
L 165.203434 -111.84901 
L 169.64092 -111.757153 
L 174.078407 -111.780564 
L 178.515893 -111.847399 
L 182.953379 -111.856814 
L 187.390865 -111.770529 
L 191.828352 -111.680975 
L 196.265838 -111.656824 
L 200.703324 -111.674885 
L 205.14081 -111.692156 
L 209.578297 -111.701031 
L 214.015783 -111.715339 
L 218.453269 -111.734322 
L 222.890755 -111.729245 
L 227.328241 -111.686111 
L 231.765728 -111.644786 
L 236.203214 -111.628558 
L 240.6407 -111.625525 
L 245.078186 -111.625241 
L 249.515673 -111.625228 
L 253.953159 -111.625227 
L 253.953159 -111.625227 
L 253.953159 -111.625227 
L 249.515673 -111.625227 
L 245.078186 -111.625227 
L 240.6407 -111.625227 
L 236.203214 -111.625227 
L 231.765728 -111.625227 
L 227.328241 -111.625227 
L 222.890755 -111.625227 
L 218.453269 -111.625227 
L 214.015783 -111.625227 
L 209.578297 -111.625227 
L 205.14081 -111.625227 
L 200.703324 -111.625227 
L 196.265838 -111.625227 
L 191.828352 -111.625227 
L 187.390865 -111.625227 
L 182.953379 -111.625227 
L 178.515893 -111.625227 
L 174.078407 -111.625227 
L 169.64092 -111.625227 
L 165.203434 -111.625227 
L 160.765948 -111.625227 
L 156.328462 -111.625227 
L 151.890976 -111.625227 
L 147.453489 -111.625227 
L 143.016003 -111.625227 
L 138.578517 -111.625227 
L 134.141031 -111.625227 
L 129.703544 -111.625227 
L 125.266058 -111.625227 
L 120.828572 -111.625227 
L 116.391086 -111.625227 
L 111.9536 -111.625227 
L 107.516113 -111.625227 
L 103.078627 -111.625227 
L 98.641141 -111.625227 
L 94.203655 -111.625227 
L 89.766168 -111.625227 
L 85.328682 -111.625227 
L 80.891196 -111.625227 
L 76.45371 -111.625227 
L 72.016224 -111.625227 
L 67.578737 -111.625227 
L 63.141251 -111.625227 
L 58.703765 -111.625227 
L 54.266279 -111.625227 
L 49.828792 -111.625227 
L 45.391306 -111.625227 
L 40.95382 -111.625227 
L 36.516334 -111.625227 
z
" id="m3a6ff1e79d" style="stroke:#cc79a7;stroke-opacity:0.3;"/>
    </defs>
    <g clip-path="url(#p2eda45d7f9)">
     <use style="fill:#cc79a7;fill-opacity:0.3;stroke:#cc79a7;stroke-opacity:0.3;" x="0" xlink:href="#m3a6ff1e79d" y="288"/>
    </g>
   </g>
   <g id="PolyCollection_2">
    <defs>
     <path d="M 36.516334 -111.625227 
L 36.516334 -143.088162 
L 40.95382 -150.515827 
L 45.391306 -156.903396 
L 49.828792 -161.654224 
L 54.266279 -164.431541 
L 58.703765 -165.159006 
L 63.141251 -163.995234 
L 67.578737 -161.292814 
L 72.016224 -157.528372 
L 76.45371 -153.206442 
L 80.891196 -148.769266 
L 85.328682 -144.546563 
L 89.766168 -140.751393 
L 94.203655 -137.501427 
L 98.641141 -134.841872 
L 103.078627 -132.760522 
L 107.516113 -131.197798 
L 111.9536 -130.056863 
L 116.391086 -129.215913 
L 120.828572 -128.542884 
L 125.266058 -127.912227 
L 129.703544 -127.221713 
L 134.141031 -126.405118 
L 138.578517 -125.436817 
L 143.016003 -124.327472 
L 147.453489 -123.113812 
L 151.890976 -121.846982 
L 156.328462 -120.582612 
L 160.765948 -119.373399 
L 165.203434 -118.263823 
L 169.64092 -117.286772 
L 174.078407 -116.462095 
L 178.515893 -115.796487 
L 182.953379 -115.283822 
L 187.390865 -114.905951 
L 191.828352 -114.635249 
L 196.265838 -114.439837 
L 200.703324 -114.290274 
L 205.14081 -114.164745 
L 209.578297 -114.050342 
L 214.015783 -113.940614 
L 218.453269 -113.831867 
L 222.890755 -113.721083 
L 227.328241 -113.606523 
L 231.765728 -113.489659 
L 236.203214 -113.375894 
L 240.6407 -113.272609 
L 245.078186 -113.18537 
L 249.515673 -113.114765 
L 253.953159 -113.056058 
L 253.953159 -111.625227 
L 253.953159 -111.625227 
L 249.515673 -111.625227 
L 245.078186 -111.625227 
L 240.6407 -111.625227 
L 236.203214 -111.625227 
L 231.765728 -111.625227 
L 227.328241 -111.625227 
L 222.890755 -111.625227 
L 218.453269 -111.625227 
L 214.015783 -111.625227 
L 209.578297 -111.625227 
L 205.14081 -111.625227 
L 200.703324 -111.625227 
L 196.265838 -111.625227 
L 191.828352 -111.625227 
L 187.390865 -111.625227 
L 182.953379 -111.625227 
L 178.515893 -111.625227 
L 174.078407 -111.625227 
L 169.64092 -111.625227 
L 165.203434 -111.625227 
L 160.765948 -111.625227 
L 156.328462 -111.625227 
L 151.890976 -111.625227 
L 147.453489 -111.625227 
L 143.016003 -111.625227 
L 138.578517 -111.625227 
L 134.141031 -111.625227 
L 129.703544 -111.625227 
L 125.266058 -111.625227 
L 120.828572 -111.625227 
L 116.391086 -111.625227 
L 111.9536 -111.625227 
L 107.516113 -111.625227 
L 103.078627 -111.625227 
L 98.641141 -111.625227 
L 94.203655 -111.625227 
L 89.766168 -111.625227 
L 85.328682 -111.625227 
L 80.891196 -111.625227 
L 76.45371 -111.625227 
L 72.016224 -111.625227 
L 67.578737 -111.625227 
L 63.141251 -111.625227 
L 58.703765 -111.625227 
L 54.266279 -111.625227 
L 49.828792 -111.625227 
L 45.391306 -111.625227 
L 40.95382 -111.625227 
L 36.516334 -111.625227 
z
" id="ma352c5c59c" style="stroke:#424243;stroke-opacity:0.3;"/>
    </defs>
    <g clip-path="url(#p2eda45d7f9)">
     <use style="fill:#424243;fill-opacity:0.3;stroke:#424243;stroke-opacity:0.3;" x="0" xlink:href="#ma352c5c59c" y="288"/>
    </g>
   </g>
   <g id="matplotlib.axis_1">
    <g id="xtick_1">
     <g id="line2d_1">
      <defs>
       <path d="M 0 0 
L 0 3.5 
" id="m365fad53bd" style="stroke:#000000;stroke-width:0.8;"/>
      </defs>
      <g>
       <use style="stroke:#000000;stroke-width:0.8;" x="29.193876" xlink:href="#m365fad53bd" y="183.67"/>
      </g>
     </g>
     <g id="text_1">
      <!-- 0 -->
      <defs>
       <path d="M 31.78125 66.40625 
Q 24.171875 66.40625 20.328125 58.90625 
Q 16.5 51.421875 16.5 36.375 
Q 16.5 21.390625 20.328125 13.890625 
Q 24.171875 6.390625 31.78125 6.390625 
Q 39.453125 6.390625 43.28125 13.890625 
Q 47.125 21.390625 47.125 36.375 
Q 47.125 51.421875 43.28125 58.90625 
Q 39.453125 66.40625 31.78125 66.40625 
z
M 31.78125 74.21875 
Q 44.046875 74.21875 50.515625 64.515625 
Q 56.984375 54.828125 56.984375 36.375 
Q 56.984375 17.96875 50.515625 8.265625 
Q 44.046875 -1.421875 31.78125 -1.421875 
Q 19.53125 -1.421875 13.0625 8.265625 
Q 6.59375 17.96875 6.59375 36.375 
Q 6.59375 54.828125 13.0625 64.515625 
Q 19.53125 74.21875 31.78125 74.21875 
z
" id="DejaVuSans-30"/>
      </defs>
      <g transform="translate(22.831376 205.866875)scale(0.2 -0.2)">
       <use xlink:href="#DejaVuSans-30"/>
      </g>
     </g>
    </g>
    <g id="xtick_2">
     <g id="line2d_2">
      <g>
       <use style="stroke:#000000;stroke-width:0.8;" x="112.039591" xlink:href="#m365fad53bd" y="183.67"/>
      </g>
     </g>
     <g id="text_2">
      <!-- 50 -->
      <defs>
       <path d="M 10.796875 72.90625 
L 49.515625 72.90625 
L 49.515625 64.59375 
L 19.828125 64.59375 
L 19.828125 46.734375 
Q 21.96875 47.46875 24.109375 47.828125 
Q 26.265625 48.1875 28.421875 48.1875 
Q 40.625 48.1875 47.75 41.5 
Q 54.890625 34.8125 54.890625 23.390625 
Q 54.890625 11.625 47.5625 5.09375 
Q 40.234375 -1.421875 26.90625 -1.421875 
Q 22.3125 -1.421875 17.546875 -0.640625 
Q 12.796875 0.140625 7.71875 1.703125 
L 7.71875 11.625 
Q 12.109375 9.234375 16.796875 8.0625 
Q 21.484375 6.890625 26.703125 6.890625 
Q 35.15625 6.890625 40.078125 11.328125 
Q 45.015625 15.765625 45.015625 23.390625 
Q 45.015625 31 40.078125 35.4375 
Q 35.15625 39.890625 26.703125 39.890625 
Q 22.75 39.890625 18.8125 39.015625 
Q 14.890625 38.140625 10.796875 36.28125 
z
" id="DejaVuSans-35"/>
      </defs>
      <g transform="translate(99.314591 205.866875)scale(0.2 -0.2)">
       <use xlink:href="#DejaVuSans-35"/>
       <use x="63.623047" xlink:href="#DejaVuSans-30"/>
      </g>
     </g>
    </g>
    <g id="xtick_3">
     <g id="line2d_3">
      <g>
       <use style="stroke:#000000;stroke-width:0.8;" x="194.885307" xlink:href="#m365fad53bd" y="183.67"/>
      </g>
     </g>
     <g id="text_3">
      <!-- 100 -->
      <defs>
       <path d="M 12.40625 8.296875 
L 28.515625 8.296875 
L 28.515625 63.921875 
L 10.984375 60.40625 
L 10.984375 69.390625 
L 28.421875 72.90625 
L 38.28125 72.90625 
L 38.28125 8.296875 
L 54.390625 8.296875 
L 54.390625 0 
L 12.40625 0 
z
" id="DejaVuSans-31"/>
      </defs>
      <g transform="translate(175.797807 205.866875)scale(0.2 -0.2)">
       <use xlink:href="#DejaVuSans-31"/>
       <use x="63.623047" xlink:href="#DejaVuSans-30"/>
       <use x="127.246094" xlink:href="#DejaVuSans-30"/>
      </g>
     </g>
    </g>
    <g id="text_4">
     <!-- temperature -->
     <defs>
      <path d="M 18.3125 70.21875 
L 18.3125 54.6875 
L 36.8125 54.6875 
L 36.8125 47.703125 
L 18.3125 47.703125 
L 18.3125 18.015625 
Q 18.3125 11.328125 20.140625 9.421875 
Q 21.96875 7.515625 27.59375 7.515625 
L 36.8125 7.515625 
L 36.8125 0 
L 27.59375 0 
Q 17.1875 0 13.234375 3.875 
Q 9.28125 7.765625 9.28125 18.015625 
L 9.28125 47.703125 
L 2.6875 47.703125 
L 2.6875 54.6875 
L 9.28125 54.6875 
L 9.28125 70.21875 
z
" id="DejaVuSans-74"/>
      <path d="M 56.203125 29.59375 
L 56.203125 25.203125 
L 14.890625 25.203125 
Q 15.484375 15.921875 20.484375 11.0625 
Q 25.484375 6.203125 34.421875 6.203125 
Q 39.59375 6.203125 44.453125 7.46875 
Q 49.3125 8.734375 54.109375 11.28125 
L 54.109375 2.78125 
Q 49.265625 0.734375 44.1875 -0.34375 
Q 39.109375 -1.421875 33.890625 -1.421875 
Q 20.796875 -1.421875 13.15625 6.1875 
Q 5.515625 13.8125 5.515625 26.8125 
Q 5.515625 40.234375 12.765625 48.109375 
Q 20.015625 56 32.328125 56 
Q 43.359375 56 49.78125 48.890625 
Q 56.203125 41.796875 56.203125 29.59375 
z
M 47.21875 32.234375 
Q 47.125 39.59375 43.09375 43.984375 
Q 39.0625 48.390625 32.421875 48.390625 
Q 24.90625 48.390625 20.390625 44.140625 
Q 15.875 39.890625 15.1875 32.171875 
z
" id="DejaVuSans-65"/>
      <path d="M 52 44.1875 
Q 55.375 50.25 60.0625 53.125 
Q 64.75 56 71.09375 56 
Q 79.640625 56 84.28125 50.015625 
Q 88.921875 44.046875 88.921875 33.015625 
L 88.921875 0 
L 79.890625 0 
L 79.890625 32.71875 
Q 79.890625 40.578125 77.09375 44.375 
Q 74.3125 48.1875 68.609375 48.1875 
Q 61.625 48.1875 57.5625 43.546875 
Q 53.515625 38.921875 53.515625 30.90625 
L 53.515625 0 
L 44.484375 0 
L 44.484375 32.71875 
Q 44.484375 40.625 41.703125 44.40625 
Q 38.921875 48.1875 33.109375 48.1875 
Q 26.21875 48.1875 22.15625 43.53125 
Q 18.109375 38.875 18.109375 30.90625 
L 18.109375 0 
L 9.078125 0 
L 9.078125 54.6875 
L 18.109375 54.6875 
L 18.109375 46.1875 
Q 21.1875 51.21875 25.484375 53.609375 
Q 29.78125 56 35.6875 56 
Q 41.65625 56 45.828125 52.96875 
Q 50 49.953125 52 44.1875 
z
" id="DejaVuSans-6d"/>
      <path d="M 18.109375 8.203125 
L 18.109375 -20.796875 
L 9.078125 -20.796875 
L 9.078125 54.6875 
L 18.109375 54.6875 
L 18.109375 46.390625 
Q 20.953125 51.265625 25.265625 53.625 
Q 29.59375 56 35.59375 56 
Q 45.5625 56 51.78125 48.09375 
Q 58.015625 40.1875 58.015625 27.296875 
Q 58.015625 14.40625 51.78125 6.484375 
Q 45.5625 -1.421875 35.59375 -1.421875 
Q 29.59375 -1.421875 25.265625 0.953125 
Q 20.953125 3.328125 18.109375 8.203125 
z
M 48.6875 27.296875 
Q 48.6875 37.203125 44.609375 42.84375 
Q 40.53125 48.484375 33.40625 48.484375 
Q 26.265625 48.484375 22.1875 42.84375 
Q 18.109375 37.203125 18.109375 27.296875 
Q 18.109375 17.390625 22.1875 11.75 
Q 26.265625 6.109375 33.40625 6.109375 
Q 40.53125 6.109375 44.609375 11.75 
Q 48.6875 17.390625 48.6875 27.296875 
z
" id="DejaVuSans-70"/>
      <path d="M 41.109375 46.296875 
Q 39.59375 47.171875 37.8125 47.578125 
Q 36.03125 48 33.890625 48 
Q 26.265625 48 22.1875 43.046875 
Q 18.109375 38.09375 18.109375 28.8125 
L 18.109375 0 
L 9.078125 0 
L 9.078125 54.6875 
L 18.109375 54.6875 
L 18.109375 46.1875 
Q 20.953125 51.171875 25.484375 53.578125 
Q 30.03125 56 36.53125 56 
Q 37.453125 56 38.578125 55.875 
Q 39.703125 55.765625 41.0625 55.515625 
z
" id="DejaVuSans-72"/>
      <path d="M 34.28125 27.484375 
Q 23.390625 27.484375 19.1875 25 
Q 14.984375 22.515625 14.984375 16.5 
Q 14.984375 11.71875 18.140625 8.90625 
Q 21.296875 6.109375 26.703125 6.109375 
Q 34.1875 6.109375 38.703125 11.40625 
Q 43.21875 16.703125 43.21875 25.484375 
L 43.21875 27.484375 
z
M 52.203125 31.203125 
L 52.203125 0 
L 43.21875 0 
L 43.21875 8.296875 
Q 40.140625 3.328125 35.546875 0.953125 
Q 30.953125 -1.421875 24.3125 -1.421875 
Q 15.921875 -1.421875 10.953125 3.296875 
Q 6 8.015625 6 15.921875 
Q 6 25.140625 12.171875 29.828125 
Q 18.359375 34.515625 30.609375 34.515625 
L 43.21875 34.515625 
L 43.21875 35.40625 
Q 43.21875 41.609375 39.140625 45 
Q 35.0625 48.390625 27.6875 48.390625 
Q 23 48.390625 18.546875 47.265625 
Q 14.109375 46.140625 10.015625 43.890625 
L 10.015625 52.203125 
Q 14.9375 54.109375 19.578125 55.046875 
Q 24.21875 56 28.609375 56 
Q 40.484375 56 46.34375 49.84375 
Q 52.203125 43.703125 52.203125 31.203125 
z
" id="DejaVuSans-61"/>
      <path d="M 8.5 21.578125 
L 8.5 54.6875 
L 17.484375 54.6875 
L 17.484375 21.921875 
Q 17.484375 14.15625 20.5 10.265625 
Q 23.53125 6.390625 29.59375 6.390625 
Q 36.859375 6.390625 41.078125 11.03125 
Q 45.3125 15.671875 45.3125 23.6875 
L 45.3125 54.6875 
L 54.296875 54.6875 
L 54.296875 0 
L 45.3125 0 
L 45.3125 8.40625 
Q 42.046875 3.421875 37.71875 1 
Q 33.40625 -1.421875 27.6875 -1.421875 
Q 18.265625 -1.421875 13.375 4.4375 
Q 8.5 10.296875 8.5 21.578125 
z
M 31.109375 56 
z
" id="DejaVuSans-75"/>
     </defs>
     <g transform="translate(66.392949 233.022344)scale(0.25 -0.25)">
      <use xlink:href="#DejaVuSans-74"/>
      <use x="39.208984" xlink:href="#DejaVuSans-65"/>
      <use x="100.732422" xlink:href="#DejaVuSans-6d"/>
      <use x="198.144531" xlink:href="#DejaVuSans-70"/>
      <use x="261.621094" xlink:href="#DejaVuSans-65"/>
      <use x="323.144531" xlink:href="#DejaVuSans-72"/>
      <use x="364.257812" xlink:href="#DejaVuSans-61"/>
      <use x="425.537109" xlink:href="#DejaVuSans-74"/>
      <use x="464.746094" xlink:href="#DejaVuSans-75"/>
      <use x="528.125" xlink:href="#DejaVuSans-72"/>
      <use x="569.207031" xlink:href="#DejaVuSans-65"/>
     </g>
     <!-- variance -->
     <defs>
      <path d="M 2.984375 54.6875 
L 12.5 54.6875 
L 29.59375 8.796875 
L 46.6875 54.6875 
L 56.203125 54.6875 
L 35.6875 0 
L 23.484375 0 
z
" id="DejaVuSans-76"/>
      <path d="M 9.421875 54.6875 
L 18.40625 54.6875 
L 18.40625 0 
L 9.421875 0 
z
M 9.421875 75.984375 
L 18.40625 75.984375 
L 18.40625 64.59375 
L 9.421875 64.59375 
z
" id="DejaVuSans-69"/>
      <path d="M 54.890625 33.015625 
L 54.890625 0 
L 45.90625 0 
L 45.90625 32.71875 
Q 45.90625 40.484375 42.875 44.328125 
Q 39.84375 48.1875 33.796875 48.1875 
Q 26.515625 48.1875 22.3125 43.546875 
Q 18.109375 38.921875 18.109375 30.90625 
L 18.109375 0 
L 9.078125 0 
L 9.078125 54.6875 
L 18.109375 54.6875 
L 18.109375 46.1875 
Q 21.34375 51.125 25.703125 53.5625 
Q 30.078125 56 35.796875 56 
Q 45.21875 56 50.046875 50.171875 
Q 54.890625 44.34375 54.890625 33.015625 
z
" id="DejaVuSans-6e"/>
      <path d="M 48.78125 52.59375 
L 48.78125 44.1875 
Q 44.96875 46.296875 41.140625 47.34375 
Q 37.3125 48.390625 33.40625 48.390625 
Q 24.65625 48.390625 19.8125 42.84375 
Q 14.984375 37.3125 14.984375 27.296875 
Q 14.984375 17.28125 19.8125 11.734375 
Q 24.65625 6.203125 33.40625 6.203125 
Q 37.3125 6.203125 41.140625 7.25 
Q 44.96875 8.296875 48.78125 10.40625 
L 48.78125 2.09375 
Q 45.015625 0.34375 40.984375 -0.53125 
Q 36.96875 -1.421875 32.421875 -1.421875 
Q 20.0625 -1.421875 12.78125 6.34375 
Q 5.515625 14.109375 5.515625 27.296875 
Q 5.515625 40.671875 12.859375 48.328125 
Q 20.21875 56 33.015625 56 
Q 37.15625 56 41.109375 55.140625 
Q 45.0625 54.296875 48.78125 52.59375 
z
" id="DejaVuSans-63"/>
     </defs>
     <g transform="translate(91.41834 261.016875)scale(0.25 -0.25)">
      <use xlink:href="#DejaVuSans-76"/>
      <use x="59.179688" xlink:href="#DejaVuSans-61"/>
      <use x="120.458984" xlink:href="#DejaVuSans-72"/>
      <use x="161.572266" xlink:href="#DejaVuSans-69"/>
      <use x="189.355469" xlink:href="#DejaVuSans-61"/>
      <use x="250.634766" xlink:href="#DejaVuSans-6e"/>
      <use x="314.013672" xlink:href="#DejaVuSans-63"/>
      <use x="368.994141" xlink:href="#DejaVuSans-65"/>
     </g>
    </g>
   </g>
   <g id="line2d_4">
    <path clip-path="url(#p2eda45d7f9)" d="M 36.516334 157.409012 
L 40.95382 145.248845 
L 45.391306 132.150161 
L 49.828792 115.842773 
L 54.266279 96.22957 
L 58.703765 80.41187 
L 63.141251 76.663979 
L 67.578737 85.131172 
L 72.016224 100.033972 
L 76.45371 115.137671 
L 80.891196 126.856729 
L 85.328682 134.738162 
L 89.766168 140.229818 
L 94.203655 145.267242 
L 98.641141 150.635505 
L 103.078627 155.851433 
L 107.516113 159.858613 
L 111.9536 162.139486 
L 116.391086 163.791586 
L 120.828572 166.135519 
L 125.266058 168.937438 
L 129.703544 171.180787 
L 134.141031 172.576154 
L 138.578517 173.443334 
L 143.016003 174.12968 
L 147.453489 174.740058 
L 151.890976 175.224017 
L 156.328462 175.600308 
L 160.765948 175.920094 
L 165.203434 176.15099 
L 169.64092 176.242847 
L 174.078407 176.219436 
L 178.515893 176.152601 
L 182.953379 176.143186 
L 187.390865 176.229471 
L 191.828352 176.319025 
L 196.265838 176.343176 
L 200.703324 176.325115 
L 205.14081 176.307844 
L 209.578297 176.298969 
L 214.015783 176.284661 
L 218.453269 176.265678 
L 222.890755 176.270755 
L 227.328241 176.313889 
L 231.765728 176.355214 
L 236.203214 176.371442 
L 240.6407 176.374475 
L 245.078186 176.374759 
L 249.515673 176.374772 
L 253.953159 176.374773 
" style="fill:none;stroke:#cc79a7;stroke-linecap:square;stroke-width:2;"/>
   </g>
   <g id="line2d_5">
    <path clip-path="url(#p2eda45d7f9)" d="M 36.516334 144.911838 
L 40.95382 137.484173 
L 45.391306 131.096604 
L 49.828792 126.345776 
L 54.266279 123.568459 
L 58.703765 122.840994 
L 63.141251 124.004766 
L 67.578737 126.707186 
L 72.016224 130.471628 
L 76.45371 134.793558 
L 80.891196 139.230734 
L 85.328682 143.453437 
L 89.766168 147.248607 
L 94.203655 150.498573 
L 98.641141 153.158128 
L 103.078627 155.239478 
L 107.516113 156.802202 
L 111.9536 157.943137 
L 116.391086 158.784087 
L 120.828572 159.457116 
L 125.266058 160.087773 
L 129.703544 160.778287 
L 134.141031 161.594882 
L 138.578517 162.563183 
L 143.016003 163.672528 
L 147.453489 164.886188 
L 151.890976 166.153018 
L 156.328462 167.417388 
L 160.765948 168.626601 
L 165.203434 169.736177 
L 169.64092 170.713228 
L 174.078407 171.537905 
L 178.515893 172.203513 
L 182.953379 172.716178 
L 187.390865 173.094049 
L 191.828352 173.364751 
L 196.265838 173.560163 
L 200.703324 173.709726 
L 205.14081 173.835255 
L 209.578297 173.949658 
L 214.015783 174.059386 
L 218.453269 174.168133 
L 222.890755 174.278917 
L 227.328241 174.393477 
L 231.765728 174.510341 
L 236.203214 174.624106 
L 240.6407 174.727391 
L 245.078186 174.81463 
L 249.515673 174.885235 
L 253.953159 174.943942 
" style="fill:none;stroke:#424243;stroke-linecap:square;stroke-width:2;"/>
   </g>
   <g id="patch_3">
    <path d="M 25.644493 183.67 
L 264.825 183.67 
" style="fill:none;stroke:#000000;stroke-linecap:square;stroke-linejoin:miter;stroke-width:0.8;"/>
   </g>
  </g>
 </g>
 <defs>
  <clipPath id="p2eda45d7f9">
   <rect height="160.495" width="239.180507" x="25.644493" y="23.175"/>
  </clipPath>
 </defs>
</svg>
