<?xml version="1.0" encoding="utf-8" standalone="no"?>
<!DOCTYPE svg PUBLIC "-//W3C//DTD SVG 1.1//EN"
  "http://www.w3.org/Graphics/SVG/1.1/DTD/svg11.dtd">
<!-- Created with matplotlib (http://matplotlib.org/) -->
<svg height="288pt" version="1.1" viewBox="0 0 288 288" width="288pt" xmlns="http://www.w3.org/2000/svg" xmlns:xlink="http://www.w3.org/1999/xlink">
 <defs>
  <style type="text/css">
*{stroke-linecap:butt;stroke-linejoin:round;}
  </style>
 </defs>
 <g id="figure_1">
  <g id="patch_1">
   <path d="M 0 288 
L 288 288 
L 288 0 
L 0 0 
z
" style="fill:#ffffff;"/>
  </g>
  <g id="axes_1">
   <g id="patch_2">
    <path d="M 31.56625 183.496 
L 256.43375 183.496 
L 256.43375 23.28 
L 31.56625 23.28 
z
" style="fill:#ffffff;"/>
   </g>
   <g id="PolyCollection_1">
    <defs>
     <path d="M 41.7875 -111.786545 
L 41.7875 -124.95098 
L 45.959439 -128.521994 
L 50.131378 -131.590939 
L 54.303316 -133.586637 
L 58.475255 -134.909272 
L 62.647194 -136.486897 
L 66.819133 -139.145044 
L 70.991071 -143.928841 
L 75.16301 -152.22407 
L 79.334949 -164.100036 
L 83.506888 -177.169337 
L 87.678827 -189.189553 
L 91.850765 -201.199382 
L 96.022704 -215.733254 
L 100.194643 -232.552201 
L 104.366582 -247.831589 
L 108.53852 -256.966686 
L 112.710459 -257.437455 
L 116.882398 -249.604367 
L 121.054337 -235.81716 
L 125.226276 -219.217982 
L 129.398214 -202.724362 
L 133.570153 -188.234173 
L 137.742092 -176.349999 
L 141.914031 -166.612658 
L 146.085969 -158.081332 
L 150.257908 -150.041863 
L 154.429847 -142.421043 
L 158.601786 -135.665292 
L 162.773724 -130.174624 
L 166.945663 -125.814823 
L 171.117602 -122.134317 
L 175.289541 -118.958512 
L 179.46148 -116.466434 
L 183.633418 -114.769141 
L 187.805357 -113.708206 
L 191.977296 -113.052927 
L 196.149235 -112.680617 
L 200.321173 -112.519695 
L 204.493112 -112.458267 
L 208.665051 -112.394166 
L 212.83699 -112.311508 
L 217.008929 -112.245212 
L 221.180867 -112.203582 
L 225.352806 -112.162863 
L 229.524745 -112.110014 
L 233.696684 -112.055289 
L 237.868622 -112.010417 
L 242.040561 -111.982571 
L 246.2125 -111.986567 
L 246.2125 -111.786545 
L 246.2125 -111.786545 
L 242.040561 -111.786545 
L 237.868622 -111.786545 
L 233.696684 -111.786545 
L 229.524745 -111.786545 
L 225.352806 -111.786545 
L 221.180867 -111.786545 
L 217.008929 -111.786545 
L 212.83699 -111.786545 
L 208.665051 -111.786545 
L 204.493112 -111.786545 
L 200.321173 -111.786545 
L 196.149235 -111.786545 
L 191.977296 -111.786545 
L 187.805357 -111.786545 
L 183.633418 -111.786545 
L 179.46148 -111.786545 
L 175.289541 -111.786545 
L 171.117602 -111.786545 
L 166.945663 -111.786545 
L 162.773724 -111.786545 
L 158.601786 -111.786545 
L 154.429847 -111.786545 
L 150.257908 -111.786545 
L 146.085969 -111.786545 
L 141.914031 -111.786545 
L 137.742092 -111.786545 
L 133.570153 -111.786545 
L 129.398214 -111.786545 
L 125.226276 -111.786545 
L 121.054337 -111.786545 
L 116.882398 -111.786545 
L 112.710459 -111.786545 
L 108.53852 -111.786545 
L 104.366582 -111.786545 
L 100.194643 -111.786545 
L 96.022704 -111.786545 
L 91.850765 -111.786545 
L 87.678827 -111.786545 
L 83.506888 -111.786545 
L 79.334949 -111.786545 
L 75.16301 -111.786545 
L 70.991071 -111.786545 
L 66.819133 -111.786545 
L 62.647194 -111.786545 
L 58.475255 -111.786545 
L 54.303316 -111.786545 
L 50.131378 -111.786545 
L 45.959439 -111.786545 
L 41.7875 -111.786545 
z
" id="me3887691c4" style="stroke:#e69f00;stroke-opacity:0.3;"/>
    </defs>
    <g clip-path="url(#p21f0f425d0)">
     <use style="fill:#e69f00;fill-opacity:0.3;stroke:#e69f00;stroke-opacity:0.3;" x="0" xlink:href="#me3887691c4" y="288"/>
    </g>
   </g>
   <g id="PolyCollection_2">
    <defs>
     <path d="M 41.7875 -111.786545 
L 41.7875 -128.003303 
L 45.959439 -131.164453 
L 50.131378 -134.570802 
L 54.303316 -138.227505 
L 58.475255 -142.172819 
L 62.647194 -146.473415 
L 66.819133 -151.204839 
L 70.991071 -156.421558 
L 75.16301 -162.126567 
L 79.334949 -168.251134 
L 83.506888 -174.650144 
L 87.678827 -181.111029 
L 91.850765 -187.369881 
L 96.022704 -193.129909 
L 100.194643 -198.082636 
L 104.366582 -201.935491 
L 108.53852 -204.446793 
L 112.710459 -205.461873 
L 116.882398 -204.938216 
L 121.054337 -202.948547 
L 125.226276 -199.659248 
L 129.398214 -195.292251 
L 133.570153 -190.085026 
L 137.742092 -184.261763 
L 141.914031 -178.021293 
L 146.085969 -171.538748 
L 150.257908 -164.973227 
L 154.429847 -158.474143 
L 158.601786 -152.182591 
L 162.773724 -146.227887 
L 166.945663 -140.721458 
L 171.117602 -135.750384 
L 175.289541 -131.372254 
L 179.46148 -127.612338 
L 183.633418 -124.463799 
L 187.805357 -121.891229 
L 191.977296 -119.837195 
L 196.149235 -118.230705 
L 200.321173 -116.99597 
L 204.493112 -116.059847 
L 208.665051 -115.356874 
L 212.83699 -114.831652 
L 217.008929 -114.439051 
L 221.180867 -114.143125 
L 225.352806 -113.91559 
L 229.524745 -113.734431 
L 233.696684 -113.582834 
L 237.868622 -113.448449 
L 242.040561 -113.322876 
L 246.2125 -113.201301 
L 246.2125 -111.786545 
L 246.2125 -111.786545 
L 242.040561 -111.786545 
L 237.868622 -111.786545 
L 233.696684 -111.786545 
L 229.524745 -111.786545 
L 225.352806 -111.786545 
L 221.180867 -111.786545 
L 217.008929 -111.786545 
L 212.83699 -111.786545 
L 208.665051 -111.786545 
L 204.493112 -111.786545 
L 200.321173 -111.786545 
L 196.149235 -111.786545 
L 191.977296 -111.786545 
L 187.805357 -111.786545 
L 183.633418 -111.786545 
L 179.46148 -111.786545 
L 175.289541 -111.786545 
L 171.117602 -111.786545 
L 166.945663 -111.786545 
L 162.773724 -111.786545 
L 158.601786 -111.786545 
L 154.429847 -111.786545 
L 150.257908 -111.786545 
L 146.085969 -111.786545 
L 141.914031 -111.786545 
L 137.742092 -111.786545 
L 133.570153 -111.786545 
L 129.398214 -111.786545 
L 125.226276 -111.786545 
L 121.054337 -111.786545 
L 116.882398 -111.786545 
L 112.710459 -111.786545 
L 108.53852 -111.786545 
L 104.366582 -111.786545 
L 100.194643 -111.786545 
L 96.022704 -111.786545 
L 91.850765 -111.786545 
L 87.678827 -111.786545 
L 83.506888 -111.786545 
L 79.334949 -111.786545 
L 75.16301 -111.786545 
L 70.991071 -111.786545 
L 66.819133 -111.786545 
L 62.647194 -111.786545 
L 58.475255 -111.786545 
L 54.303316 -111.786545 
L 50.131378 -111.786545 
L 45.959439 -111.786545 
L 41.7875 -111.786545 
z
" id="md911639cc3" style="stroke:#424243;stroke-opacity:0.3;"/>
    </defs>
    <g clip-path="url(#p21f0f425d0)">
     <use style="fill:#424243;fill-opacity:0.3;stroke:#424243;stroke-opacity:0.3;" x="0" xlink:href="#md911639cc3" y="288"/>
    </g>
   </g>
   <g id="matplotlib.axis_1">
    <g id="xtick_1">
     <g id="line2d_1">
      <defs>
       <path d="M 0 0 
L 0 3.5 
" id="m41bd325b22" style="stroke:#000000;stroke-width:0.8;"/>
      </defs>
      <g>
       <use style="stroke:#000000;stroke-width:0.8;" x="84.142871" xlink:href="#m41bd325b22" y="183.496"/>
      </g>
     </g>
     <g id="text_1">
      <!-- 0 -->
      <defs>
       <path d="M 31.78125 66.40625 
Q 24.171875 66.40625 20.328125 58.90625 
Q 16.5 51.421875 16.5 36.375 
Q 16.5 21.390625 20.328125 13.890625 
Q 24.171875 6.390625 31.78125 6.390625 
Q 39.453125 6.390625 43.28125 13.890625 
Q 47.125 21.390625 47.125 36.375 
Q 47.125 51.421875 43.28125 58.90625 
Q 39.453125 66.40625 31.78125 66.40625 
z
M 31.78125 74.21875 
Q 44.046875 74.21875 50.515625 64.515625 
Q 56.984375 54.828125 56.984375 36.375 
Q 56.984375 17.96875 50.515625 8.265625 
Q 44.046875 -1.421875 31.78125 -1.421875 
Q 19.53125 -1.421875 13.0625 8.265625 
Q 6.59375 17.96875 6.59375 36.375 
Q 6.59375 54.828125 13.0625 64.515625 
Q 19.53125 74.21875 31.78125 74.21875 
z
" id="DejaVuSans-30"/>
      </defs>
      <g transform="translate(77.780371 205.692875)scale(0.2 -0.2)">
       <use xlink:href="#DejaVuSans-30"/>
      </g>
     </g>
    </g>
    <g id="xtick_2">
     <g id="line2d_2">
      <g>
       <use style="stroke:#000000;stroke-width:0.8;" x="160.783051" xlink:href="#m41bd325b22" y="183.496"/>
      </g>
     </g>
     <g id="text_2">
      <!-- 2 -->
      <defs>
       <path d="M 19.1875 8.296875 
L 53.609375 8.296875 
L 53.609375 0 
L 7.328125 0 
L 7.328125 8.296875 
Q 12.9375 14.109375 22.625 23.890625 
Q 32.328125 33.6875 34.8125 36.53125 
Q 39.546875 41.84375 41.421875 45.53125 
Q 43.3125 49.21875 43.3125 52.78125 
Q 43.3125 58.59375 39.234375 62.25 
Q 35.15625 65.921875 28.609375 65.921875 
Q 23.96875 65.921875 18.8125 64.3125 
Q 13.671875 62.703125 7.8125 59.421875 
L 7.8125 69.390625 
Q 13.765625 71.78125 18.9375 73 
Q 24.125 74.21875 28.421875 74.21875 
Q 39.75 74.21875 46.484375 68.546875 
Q 53.21875 62.890625 53.21875 53.421875 
Q 53.21875 48.921875 51.53125 44.890625 
Q 49.859375 40.875 45.40625 35.40625 
Q 44.1875 33.984375 37.640625 27.21875 
Q 31.109375 20.453125 19.1875 8.296875 
z
" id="DejaVuSans-32"/>
      </defs>
      <g transform="translate(154.420551 205.692875)scale(0.2 -0.2)">
       <use xlink:href="#DejaVuSans-32"/>
      </g>
     </g>
    </g>
    <g id="xtick_3">
     <g id="line2d_3">
      <g>
       <use style="stroke:#000000;stroke-width:0.8;" x="237.423231" xlink:href="#m41bd325b22" y="183.496"/>
      </g>
     </g>
     <g id="text_3">
      <!-- 4 -->
      <defs>
       <path d="M 37.796875 64.3125 
L 12.890625 25.390625 
L 37.796875 25.390625 
z
M 35.203125 72.90625 
L 47.609375 72.90625 
L 47.609375 25.390625 
L 58.015625 25.390625 
L 58.015625 17.1875 
L 47.609375 17.1875 
L 47.609375 0 
L 37.796875 0 
L 37.796875 17.1875 
L 4.890625 17.1875 
L 4.890625 26.703125 
z
" id="DejaVuSans-34"/>
      </defs>
      <g transform="translate(231.060731 205.692875)scale(0.2 -0.2)">
       <use xlink:href="#DejaVuSans-34"/>
      </g>
     </g>
    </g>
    <g id="text_4">
     <!-- leaf area index -->
     <defs>
      <path d="M 9.421875 75.984375 
L 18.40625 75.984375 
L 18.40625 0 
L 9.421875 0 
z
" id="DejaVuSans-6c"/>
      <path d="M 56.203125 29.59375 
L 56.203125 25.203125 
L 14.890625 25.203125 
Q 15.484375 15.921875 20.484375 11.0625 
Q 25.484375 6.203125 34.421875 6.203125 
Q 39.59375 6.203125 44.453125 7.46875 
Q 49.3125 8.734375 54.109375 11.28125 
L 54.109375 2.78125 
Q 49.265625 0.734375 44.1875 -0.34375 
Q 39.109375 -1.421875 33.890625 -1.421875 
Q 20.796875 -1.421875 13.15625 6.1875 
Q 5.515625 13.8125 5.515625 26.8125 
Q 5.515625 40.234375 12.765625 48.109375 
Q 20.015625 56 32.328125 56 
Q 43.359375 56 49.78125 48.890625 
Q 56.203125 41.796875 56.203125 29.59375 
z
M 47.21875 32.234375 
Q 47.125 39.59375 43.09375 43.984375 
Q 39.0625 48.390625 32.421875 48.390625 
Q 24.90625 48.390625 20.390625 44.140625 
Q 15.875 39.890625 15.1875 32.171875 
z
" id="DejaVuSans-65"/>
      <path d="M 34.28125 27.484375 
Q 23.390625 27.484375 19.1875 25 
Q 14.984375 22.515625 14.984375 16.5 
Q 14.984375 11.71875 18.140625 8.90625 
Q 21.296875 6.109375 26.703125 6.109375 
Q 34.1875 6.109375 38.703125 11.40625 
Q 43.21875 16.703125 43.21875 25.484375 
L 43.21875 27.484375 
z
M 52.203125 31.203125 
L 52.203125 0 
L 43.21875 0 
L 43.21875 8.296875 
Q 40.140625 3.328125 35.546875 0.953125 
Q 30.953125 -1.421875 24.3125 -1.421875 
Q 15.921875 -1.421875 10.953125 3.296875 
Q 6 8.015625 6 15.921875 
Q 6 25.140625 12.171875 29.828125 
Q 18.359375 34.515625 30.609375 34.515625 
L 43.21875 34.515625 
L 43.21875 35.40625 
Q 43.21875 41.609375 39.140625 45 
Q 35.0625 48.390625 27.6875 48.390625 
Q 23 48.390625 18.546875 47.265625 
Q 14.109375 46.140625 10.015625 43.890625 
L 10.015625 52.203125 
Q 14.9375 54.109375 19.578125 55.046875 
Q 24.21875 56 28.609375 56 
Q 40.484375 56 46.34375 49.84375 
Q 52.203125 43.703125 52.203125 31.203125 
z
" id="DejaVuSans-61"/>
      <path d="M 37.109375 75.984375 
L 37.109375 68.5 
L 28.515625 68.5 
Q 23.6875 68.5 21.796875 66.546875 
Q 19.921875 64.59375 19.921875 59.515625 
L 19.921875 54.6875 
L 34.71875 54.6875 
L 34.71875 47.703125 
L 19.921875 47.703125 
L 19.921875 0 
L 10.890625 0 
L 10.890625 47.703125 
L 2.296875 47.703125 
L 2.296875 54.6875 
L 10.890625 54.6875 
L 10.890625 58.5 
Q 10.890625 67.625 15.140625 71.796875 
Q 19.390625 75.984375 28.609375 75.984375 
z
" id="DejaVuSans-66"/>
      <path id="DejaVuSans-20"/>
      <path d="M 41.109375 46.296875 
Q 39.59375 47.171875 37.8125 47.578125 
Q 36.03125 48 33.890625 48 
Q 26.265625 48 22.1875 43.046875 
Q 18.109375 38.09375 18.109375 28.8125 
L 18.109375 0 
L 9.078125 0 
L 9.078125 54.6875 
L 18.109375 54.6875 
L 18.109375 46.1875 
Q 20.953125 51.171875 25.484375 53.578125 
Q 30.03125 56 36.53125 56 
Q 37.453125 56 38.578125 55.875 
Q 39.703125 55.765625 41.0625 55.515625 
z
" id="DejaVuSans-72"/>
      <path d="M 9.421875 54.6875 
L 18.40625 54.6875 
L 18.40625 0 
L 9.421875 0 
z
M 9.421875 75.984375 
L 18.40625 75.984375 
L 18.40625 64.59375 
L 9.421875 64.59375 
z
" id="DejaVuSans-69"/>
      <path d="M 54.890625 33.015625 
L 54.890625 0 
L 45.90625 0 
L 45.90625 32.71875 
Q 45.90625 40.484375 42.875 44.328125 
Q 39.84375 48.1875 33.796875 48.1875 
Q 26.515625 48.1875 22.3125 43.546875 
Q 18.109375 38.921875 18.109375 30.90625 
L 18.109375 0 
L 9.078125 0 
L 9.078125 54.6875 
L 18.109375 54.6875 
L 18.109375 46.1875 
Q 21.34375 51.125 25.703125 53.5625 
Q 30.078125 56 35.796875 56 
Q 45.21875 56 50.046875 50.171875 
Q 54.890625 44.34375 54.890625 33.015625 
z
" id="DejaVuSans-6e"/>
      <path d="M 45.40625 46.390625 
L 45.40625 75.984375 
L 54.390625 75.984375 
L 54.390625 0 
L 45.40625 0 
L 45.40625 8.203125 
Q 42.578125 3.328125 38.25 0.953125 
Q 33.9375 -1.421875 27.875 -1.421875 
Q 17.96875 -1.421875 11.734375 6.484375 
Q 5.515625 14.40625 5.515625 27.296875 
Q 5.515625 40.1875 11.734375 48.09375 
Q 17.96875 56 27.875 56 
Q 33.9375 56 38.25 53.625 
Q 42.578125 51.265625 45.40625 46.390625 
z
M 14.796875 27.296875 
Q 14.796875 17.390625 18.875 11.75 
Q 22.953125 6.109375 30.078125 6.109375 
Q 37.203125 6.109375 41.296875 11.75 
Q 45.40625 17.390625 45.40625 27.296875 
Q 45.40625 37.203125 41.296875 42.84375 
Q 37.203125 48.484375 30.078125 48.484375 
Q 22.953125 48.484375 18.875 42.84375 
Q 14.796875 37.203125 14.796875 27.296875 
z
" id="DejaVuSans-64"/>
      <path d="M 54.890625 54.6875 
L 35.109375 28.078125 
L 55.90625 0 
L 45.3125 0 
L 29.390625 21.484375 
L 13.484375 0 
L 2.875 0 
L 24.125 28.609375 
L 4.6875 54.6875 
L 15.28125 54.6875 
L 29.78125 35.203125 
L 44.28125 54.6875 
z
" id="DejaVuSans-78"/>
     </defs>
     <g transform="translate(50.265625 232.848344)scale(0.25 -0.25)">
      <use xlink:href="#DejaVuSans-6c"/>
      <use x="27.783203" xlink:href="#DejaVuSans-65"/>
      <use x="89.306641" xlink:href="#DejaVuSans-61"/>
      <use x="150.585938" xlink:href="#DejaVuSans-66"/>
      <use x="185.791016" xlink:href="#DejaVuSans-20"/>
      <use x="217.578125" xlink:href="#DejaVuSans-61"/>
      <use x="278.857422" xlink:href="#DejaVuSans-72"/>
      <use x="319.939453" xlink:href="#DejaVuSans-65"/>
      <use x="381.462891" xlink:href="#DejaVuSans-61"/>
      <use x="442.742188" xlink:href="#DejaVuSans-20"/>
      <use x="474.529297" xlink:href="#DejaVuSans-69"/>
      <use x="502.3125" xlink:href="#DejaVuSans-6e"/>
      <use x="565.691406" xlink:href="#DejaVuSans-64"/>
      <use x="629.167969" xlink:href="#DejaVuSans-65"/>
      <use x="690.675781" xlink:href="#DejaVuSans-78"/>
     </g>
     <!-- skew -->
     <defs>
      <path d="M 44.28125 53.078125 
L 44.28125 44.578125 
Q 40.484375 46.53125 36.375 47.5 
Q 32.28125 48.484375 27.875 48.484375 
Q 21.1875 48.484375 17.84375 46.4375 
Q 14.5 44.390625 14.5 40.28125 
Q 14.5 37.15625 16.890625 35.375 
Q 19.28125 33.59375 26.515625 31.984375 
L 29.59375 31.296875 
Q 39.15625 29.25 43.1875 25.515625 
Q 47.21875 21.78125 47.21875 15.09375 
Q 47.21875 7.46875 41.1875 3.015625 
Q 35.15625 -1.421875 24.609375 -1.421875 
Q 20.21875 -1.421875 15.453125 -0.5625 
Q 10.6875 0.296875 5.421875 2 
L 5.421875 11.28125 
Q 10.40625 8.6875 15.234375 7.390625 
Q 20.0625 6.109375 24.8125 6.109375 
Q 31.15625 6.109375 34.5625 8.28125 
Q 37.984375 10.453125 37.984375 14.40625 
Q 37.984375 18.0625 35.515625 20.015625 
Q 33.0625 21.96875 24.703125 23.78125 
L 21.578125 24.515625 
Q 13.234375 26.265625 9.515625 29.90625 
Q 5.8125 33.546875 5.8125 39.890625 
Q 5.8125 47.609375 11.28125 51.796875 
Q 16.75 56 26.8125 56 
Q 31.78125 56 36.171875 55.265625 
Q 40.578125 54.546875 44.28125 53.078125 
z
" id="DejaVuSans-73"/>
      <path d="M 9.078125 75.984375 
L 18.109375 75.984375 
L 18.109375 31.109375 
L 44.921875 54.6875 
L 56.390625 54.6875 
L 27.390625 29.109375 
L 57.625 0 
L 45.90625 0 
L 18.109375 26.703125 
L 18.109375 0 
L 9.078125 0 
z
" id="DejaVuSans-6b"/>
      <path d="M 4.203125 54.6875 
L 13.1875 54.6875 
L 24.421875 12.015625 
L 35.59375 54.6875 
L 46.1875 54.6875 
L 57.421875 12.015625 
L 68.609375 54.6875 
L 77.59375 54.6875 
L 63.28125 0 
L 52.6875 0 
L 40.921875 44.828125 
L 29.109375 0 
L 18.5 0 
z
" id="DejaVuSans-77"/>
     </defs>
     <g transform="translate(112.341797 260.842875)scale(0.25 -0.25)">
      <use xlink:href="#DejaVuSans-73"/>
      <use x="52.099609" xlink:href="#DejaVuSans-6b"/>
      <use x="109.962891" xlink:href="#DejaVuSans-65"/>
      <use x="171.486328" xlink:href="#DejaVuSans-77"/>
     </g>
    </g>
   </g>
   <g id="line2d_4">
    <path clip-path="url(#p21f0f425d0)" d="M 41.7875 163.04902 
L 45.959439 159.478006 
L 50.131378 156.409061 
L 54.303316 154.413363 
L 58.475255 153.090728 
L 62.647194 151.513103 
L 66.819133 148.854956 
L 70.991071 144.071159 
L 75.16301 135.77593 
L 79.334949 123.899964 
L 83.506888 110.830663 
L 87.678827 98.810447 
L 91.850765 86.800618 
L 96.022704 72.266746 
L 100.194643 55.447799 
L 104.366582 40.168411 
L 108.53852 31.033314 
L 112.710459 30.562545 
L 116.882398 38.395633 
L 121.054337 52.18284 
L 125.226276 68.782018 
L 129.398214 85.275638 
L 133.570153 99.765827 
L 137.742092 111.650001 
L 141.914031 121.387342 
L 146.085969 129.918668 
L 150.257908 137.958137 
L 154.429847 145.578957 
L 158.601786 152.334708 
L 162.773724 157.825376 
L 166.945663 162.185177 
L 171.117602 165.865683 
L 175.289541 169.041488 
L 179.46148 171.533566 
L 183.633418 173.230859 
L 187.805357 174.291794 
L 191.977296 174.947073 
L 196.149235 175.319383 
L 200.321173 175.480305 
L 204.493112 175.541733 
L 208.665051 175.605834 
L 212.83699 175.688492 
L 217.008929 175.754788 
L 221.180867 175.796418 
L 225.352806 175.837137 
L 229.524745 175.889986 
L 233.696684 175.944711 
L 237.868622 175.989583 
L 242.040561 176.017429 
L 246.2125 176.013433 
" style="fill:none;stroke:#e69f00;stroke-linecap:square;stroke-width:2;"/>
   </g>
   <g id="line2d_5">
    <path clip-path="url(#p21f0f425d0)" d="M 41.7875 159.996697 
L 45.959439 156.835547 
L 50.131378 153.429198 
L 54.303316 149.772495 
L 58.475255 145.827181 
L 62.647194 141.526585 
L 66.819133 136.795161 
L 70.991071 131.578442 
L 75.16301 125.873433 
L 79.334949 119.748866 
L 83.506888 113.349856 
L 87.678827 106.888971 
L 91.850765 100.630119 
L 96.022704 94.870091 
L 100.194643 89.917364 
L 104.366582 86.064509 
L 108.53852 83.553207 
L 112.710459 82.538127 
L 116.882398 83.061784 
L 121.054337 85.051453 
L 125.226276 88.340752 
L 129.398214 92.707749 
L 133.570153 97.914974 
L 137.742092 103.738237 
L 141.914031 109.978707 
L 146.085969 116.461252 
L 150.257908 123.026773 
L 154.429847 129.525857 
L 158.601786 135.817409 
L 162.773724 141.772113 
L 166.945663 147.278542 
L 171.117602 152.249616 
L 175.289541 156.627746 
L 179.46148 160.387662 
L 183.633418 163.536201 
L 187.805357 166.108771 
L 191.977296 168.162805 
L 196.149235 169.769295 
L 200.321173 171.00403 
L 204.493112 171.940153 
L 208.665051 172.643126 
L 212.83699 173.168348 
L 217.008929 173.560949 
L 221.180867 173.856875 
L 225.352806 174.08441 
L 229.524745 174.265569 
L 233.696684 174.417166 
L 237.868622 174.551551 
L 242.040561 174.677124 
L 246.2125 174.798699 
" style="fill:none;stroke:#424243;stroke-linecap:square;stroke-width:2;"/>
   </g>
   <g id="patch_3">
    <path d="M 31.56625 183.496 
L 256.43375 183.496 
" style="fill:none;stroke:#000000;stroke-linecap:square;stroke-linejoin:miter;stroke-width:0.8;"/>
   </g>
  </g>
 </g>
 <defs>
  <clipPath id="p21f0f425d0">
   <rect height="160.216" width="224.8675" x="31.56625" y="23.28"/>
  </clipPath>
 </defs>
</svg>
