<?xml version="1.0" encoding="utf-8" standalone="no"?>
<!DOCTYPE svg PUBLIC "-//W3C//DTD SVG 1.1//EN"
  "http://www.w3.org/Graphics/SVG/1.1/DTD/svg11.dtd">
<!-- Created with matplotlib (http://matplotlib.org/) -->
<svg height="288pt" version="1.1" viewBox="0 0 288 288" width="288pt" xmlns="http://www.w3.org/2000/svg" xmlns:xlink="http://www.w3.org/1999/xlink">
 <defs>
  <style type="text/css">
*{stroke-linecap:butt;stroke-linejoin:round;}
  </style>
 </defs>
 <g id="figure_1">
  <g id="patch_1">
   <path d="M 0 288 
L 288 288 
L 288 0 
L 0 0 
z
" style="fill:#ffffff;"/>
  </g>
  <g id="axes_1">
   <g id="patch_2">
    <path d="M 23.28 183.496 
L 254.167963 183.496 
L 254.167963 23.28 
L 23.28 23.28 
z
" style="fill:#ffffff;"/>
   </g>
   <g id="PolyCollection_1">
    <defs>
     <path d="M 33.95573 -111.786545 
L 33.95573 -165.620486 
L 38.235676 -178.80013 
L 42.515621 -184.693956 
L 46.795566 -185.993851 
L 51.075512 -186.442634 
L 55.355457 -188.280258 
L 59.635403 -192.769739 
L 63.915348 -201.252434 
L 68.195294 -214.650289 
L 72.475239 -231.580764 
L 76.755184 -247.521699 
L 81.03513 -257.05203 
L 85.315075 -257.437455 
L 89.595021 -249.748425 
L 93.874966 -236.759139 
L 98.154912 -220.755915 
L 102.434857 -203.286078 
L 106.714802 -185.668894 
L 110.994748 -169.213414 
L 115.274693 -155.228302 
L 119.554639 -144.647618 
L 123.834584 -137.405473 
L 128.114529 -132.401431 
L 132.394475 -128.388435 
L 136.67442 -124.891574 
L 140.954366 -122.108857 
L 145.234311 -120.128818 
L 149.514257 -118.644785 
L 153.794202 -117.345385 
L 158.074147 -116.188752 
L 162.354093 -115.255636 
L 166.634038 -114.574496 
L 170.913984 -114.125304 
L 175.193929 -113.864238 
L 179.473875 -113.708591 
L 183.75382 -113.56465 
L 188.033765 -113.387806 
L 192.313711 -113.191851 
L 196.593656 -113.002598 
L 200.873602 -112.82971 
L 205.153547 -112.673994 
L 209.433492 -112.5243 
L 213.713438 -112.359821 
L 217.993383 -112.190848 
L 222.273329 -112.074685 
L 226.553274 -112.053213 
L 230.83322 -112.093338 
L 235.113165 -112.12172 
L 239.39311 -112.103359 
L 243.673056 -112.058029 
L 243.673056 -111.786545 
L 243.673056 -111.786545 
L 239.39311 -111.786545 
L 235.113165 -111.786545 
L 230.83322 -111.786545 
L 226.553274 -111.786545 
L 222.273329 -111.786545 
L 217.993383 -111.786545 
L 213.713438 -111.786545 
L 209.433492 -111.786545 
L 205.153547 -111.786545 
L 200.873602 -111.786545 
L 196.593656 -111.786545 
L 192.313711 -111.786545 
L 188.033765 -111.786545 
L 183.75382 -111.786545 
L 179.473875 -111.786545 
L 175.193929 -111.786545 
L 170.913984 -111.786545 
L 166.634038 -111.786545 
L 162.354093 -111.786545 
L 158.074147 -111.786545 
L 153.794202 -111.786545 
L 149.514257 -111.786545 
L 145.234311 -111.786545 
L 140.954366 -111.786545 
L 136.67442 -111.786545 
L 132.394475 -111.786545 
L 128.114529 -111.786545 
L 123.834584 -111.786545 
L 119.554639 -111.786545 
L 115.274693 -111.786545 
L 110.994748 -111.786545 
L 106.714802 -111.786545 
L 102.434857 -111.786545 
L 98.154912 -111.786545 
L 93.874966 -111.786545 
L 89.595021 -111.786545 
L 85.315075 -111.786545 
L 81.03513 -111.786545 
L 76.755184 -111.786545 
L 72.475239 -111.786545 
L 68.195294 -111.786545 
L 63.915348 -111.786545 
L 59.635403 -111.786545 
L 55.355457 -111.786545 
L 51.075512 -111.786545 
L 46.795566 -111.786545 
L 42.515621 -111.786545 
L 38.235676 -111.786545 
L 33.95573 -111.786545 
z
" id="m2ec0c195ea" style="stroke:#e69f00;stroke-opacity:0.3;"/>
    </defs>
    <g clip-path="url(#p85b326de25)">
     <use style="fill:#e69f00;fill-opacity:0.3;stroke:#e69f00;stroke-opacity:0.3;" x="0" xlink:href="#m2ec0c195ea" y="288"/>
    </g>
   </g>
   <g id="PolyCollection_2">
    <defs>
     <path d="M 33.95573 -111.786545 
L 33.95573 -141.354684 
L 38.235676 -147.842677 
L 42.515621 -154.25737 
L 46.795566 -160.473594 
L 51.075512 -166.521761 
L 55.355457 -172.551888 
L 59.635403 -178.749644 
L 63.915348 -185.232819 
L 68.195294 -191.961434 
L 72.475239 -198.688916 
L 76.755184 -204.969614 
L 81.03513 -210.223665 
L 85.315075 -213.84605 
L 89.595021 -215.334447 
L 93.874966 -214.402991 
L 98.154912 -211.050089 
L 102.434857 -205.560243 
L 106.714802 -198.44023 
L 110.994748 -190.311325 
L 115.274693 -181.792299 
L 119.554639 -173.406625 
L 123.834584 -165.533233 
L 128.114529 -158.401058 
L 132.394475 -152.113069 
L 136.67442 -146.681073 
L 140.954366 -142.05736 
L 145.234311 -138.158028 
L 149.514257 -134.879607 
L 153.794202 -132.112666 
L 158.074147 -129.754216 
L 162.354093 -127.717866 
L 166.634038 -125.939282 
L 170.913984 -124.375582 
L 175.193929 -122.999703 
L 179.473875 -121.792886 
L 183.75382 -120.73867 
L 188.033765 -119.820184 
L 192.313711 -119.020227 
L 196.593656 -118.322252 
L 200.873602 -117.710694 
L 205.153547 -117.170473 
L 209.433492 -116.686695 
L 213.713438 -116.245513 
L 217.993383 -115.836171 
L 222.273329 -115.453241 
L 226.553274 -115.097738 
L 230.83322 -114.776277 
L 235.113165 -114.49823 
L 239.39311 -114.271684 
L 243.673056 -114.09955 
L 243.673056 -111.786545 
L 243.673056 -111.786545 
L 239.39311 -111.786545 
L 235.113165 -111.786545 
L 230.83322 -111.786545 
L 226.553274 -111.786545 
L 222.273329 -111.786545 
L 217.993383 -111.786545 
L 213.713438 -111.786545 
L 209.433492 -111.786545 
L 205.153547 -111.786545 
L 200.873602 -111.786545 
L 196.593656 -111.786545 
L 192.313711 -111.786545 
L 188.033765 -111.786545 
L 183.75382 -111.786545 
L 179.473875 -111.786545 
L 175.193929 -111.786545 
L 170.913984 -111.786545 
L 166.634038 -111.786545 
L 162.354093 -111.786545 
L 158.074147 -111.786545 
L 153.794202 -111.786545 
L 149.514257 -111.786545 
L 145.234311 -111.786545 
L 140.954366 -111.786545 
L 136.67442 -111.786545 
L 132.394475 -111.786545 
L 128.114529 -111.786545 
L 123.834584 -111.786545 
L 119.554639 -111.786545 
L 115.274693 -111.786545 
L 110.994748 -111.786545 
L 106.714802 -111.786545 
L 102.434857 -111.786545 
L 98.154912 -111.786545 
L 93.874966 -111.786545 
L 89.595021 -111.786545 
L 85.315075 -111.786545 
L 81.03513 -111.786545 
L 76.755184 -111.786545 
L 72.475239 -111.786545 
L 68.195294 -111.786545 
L 63.915348 -111.786545 
L 59.635403 -111.786545 
L 55.355457 -111.786545 
L 51.075512 -111.786545 
L 46.795566 -111.786545 
L 42.515621 -111.786545 
L 38.235676 -111.786545 
L 33.95573 -111.786545 
z
" id="me6f7e3bcc0" style="stroke:#424243;stroke-opacity:0.3;"/>
    </defs>
    <g clip-path="url(#p85b326de25)">
     <use style="fill:#424243;fill-opacity:0.3;stroke:#424243;stroke-opacity:0.3;" x="0" xlink:href="#me6f7e3bcc0" y="288"/>
    </g>
   </g>
   <g id="matplotlib.axis_1">
    <g id="xtick_1">
     <g id="line2d_1">
      <defs>
       <path d="M 0 0 
L 0 3.5 
" id="m7d8c0fb5f7" style="stroke:#000000;stroke-width:0.8;"/>
      </defs>
      <g>
       <use style="stroke:#000000;stroke-width:0.8;" x="110.361178" xlink:href="#m7d8c0fb5f7" y="183.496"/>
      </g>
     </g>
     <g id="text_1">
      <!-- 0 -->
      <defs>
       <path d="M 31.78125 66.40625 
Q 24.171875 66.40625 20.328125 58.90625 
Q 16.5 51.421875 16.5 36.375 
Q 16.5 21.390625 20.328125 13.890625 
Q 24.171875 6.390625 31.78125 6.390625 
Q 39.453125 6.390625 43.28125 13.890625 
Q 47.125 21.390625 47.125 36.375 
Q 47.125 51.421875 43.28125 58.90625 
Q 39.453125 66.40625 31.78125 66.40625 
z
M 31.78125 74.21875 
Q 44.046875 74.21875 50.515625 64.515625 
Q 56.984375 54.828125 56.984375 36.375 
Q 56.984375 17.96875 50.515625 8.265625 
Q 44.046875 -1.421875 31.78125 -1.421875 
Q 19.53125 -1.421875 13.0625 8.265625 
Q 6.59375 17.96875 6.59375 36.375 
Q 6.59375 54.828125 13.0625 64.515625 
Q 19.53125 74.21875 31.78125 74.21875 
z
" id="DejaVuSans-30"/>
      </defs>
      <g transform="translate(103.998678 205.692875)scale(0.2 -0.2)">
       <use xlink:href="#DejaVuSans-30"/>
      </g>
     </g>
    </g>
    <g id="xtick_2">
     <g id="line2d_2">
      <g>
       <use style="stroke:#000000;stroke-width:0.8;" x="221.39341" xlink:href="#m7d8c0fb5f7" y="183.496"/>
      </g>
     </g>
     <g id="text_2">
      <!-- 2 -->
      <defs>
       <path d="M 19.1875 8.296875 
L 53.609375 8.296875 
L 53.609375 0 
L 7.328125 0 
L 7.328125 8.296875 
Q 12.9375 14.109375 22.625 23.890625 
Q 32.328125 33.6875 34.8125 36.53125 
Q 39.546875 41.84375 41.421875 45.53125 
Q 43.3125 49.21875 43.3125 52.78125 
Q 43.3125 58.59375 39.234375 62.25 
Q 35.15625 65.921875 28.609375 65.921875 
Q 23.96875 65.921875 18.8125 64.3125 
Q 13.671875 62.703125 7.8125 59.421875 
L 7.8125 69.390625 
Q 13.765625 71.78125 18.9375 73 
Q 24.125 74.21875 28.421875 74.21875 
Q 39.75 74.21875 46.484375 68.546875 
Q 53.21875 62.890625 53.21875 53.421875 
Q 53.21875 48.921875 51.53125 44.890625 
Q 49.859375 40.875 45.40625 35.40625 
Q 44.1875 33.984375 37.640625 27.21875 
Q 31.109375 20.453125 19.1875 8.296875 
z
" id="DejaVuSans-32"/>
      </defs>
      <g transform="translate(215.03091 205.692875)scale(0.2 -0.2)">
       <use xlink:href="#DejaVuSans-32"/>
      </g>
     </g>
    </g>
    <g id="text_3">
     <!-- cloud cover -->
     <defs>
      <path d="M 48.78125 52.59375 
L 48.78125 44.1875 
Q 44.96875 46.296875 41.140625 47.34375 
Q 37.3125 48.390625 33.40625 48.390625 
Q 24.65625 48.390625 19.8125 42.84375 
Q 14.984375 37.3125 14.984375 27.296875 
Q 14.984375 17.28125 19.8125 11.734375 
Q 24.65625 6.203125 33.40625 6.203125 
Q 37.3125 6.203125 41.140625 7.25 
Q 44.96875 8.296875 48.78125 10.40625 
L 48.78125 2.09375 
Q 45.015625 0.34375 40.984375 -0.53125 
Q 36.96875 -1.421875 32.421875 -1.421875 
Q 20.0625 -1.421875 12.78125 6.34375 
Q 5.515625 14.109375 5.515625 27.296875 
Q 5.515625 40.671875 12.859375 48.328125 
Q 20.21875 56 33.015625 56 
Q 37.15625 56 41.109375 55.140625 
Q 45.0625 54.296875 48.78125 52.59375 
z
" id="DejaVuSans-63"/>
      <path d="M 9.421875 75.984375 
L 18.40625 75.984375 
L 18.40625 0 
L 9.421875 0 
z
" id="DejaVuSans-6c"/>
      <path d="M 30.609375 48.390625 
Q 23.390625 48.390625 19.1875 42.75 
Q 14.984375 37.109375 14.984375 27.296875 
Q 14.984375 17.484375 19.15625 11.84375 
Q 23.34375 6.203125 30.609375 6.203125 
Q 37.796875 6.203125 41.984375 11.859375 
Q 46.1875 17.53125 46.1875 27.296875 
Q 46.1875 37.015625 41.984375 42.703125 
Q 37.796875 48.390625 30.609375 48.390625 
z
M 30.609375 56 
Q 42.328125 56 49.015625 48.375 
Q 55.71875 40.765625 55.71875 27.296875 
Q 55.71875 13.875 49.015625 6.21875 
Q 42.328125 -1.421875 30.609375 -1.421875 
Q 18.84375 -1.421875 12.171875 6.21875 
Q 5.515625 13.875 5.515625 27.296875 
Q 5.515625 40.765625 12.171875 48.375 
Q 18.84375 56 30.609375 56 
z
" id="DejaVuSans-6f"/>
      <path d="M 8.5 21.578125 
L 8.5 54.6875 
L 17.484375 54.6875 
L 17.484375 21.921875 
Q 17.484375 14.15625 20.5 10.265625 
Q 23.53125 6.390625 29.59375 6.390625 
Q 36.859375 6.390625 41.078125 11.03125 
Q 45.3125 15.671875 45.3125 23.6875 
L 45.3125 54.6875 
L 54.296875 54.6875 
L 54.296875 0 
L 45.3125 0 
L 45.3125 8.40625 
Q 42.046875 3.421875 37.71875 1 
Q 33.40625 -1.421875 27.6875 -1.421875 
Q 18.265625 -1.421875 13.375 4.4375 
Q 8.5 10.296875 8.5 21.578125 
z
M 31.109375 56 
z
" id="DejaVuSans-75"/>
      <path d="M 45.40625 46.390625 
L 45.40625 75.984375 
L 54.390625 75.984375 
L 54.390625 0 
L 45.40625 0 
L 45.40625 8.203125 
Q 42.578125 3.328125 38.25 0.953125 
Q 33.9375 -1.421875 27.875 -1.421875 
Q 17.96875 -1.421875 11.734375 6.484375 
Q 5.515625 14.40625 5.515625 27.296875 
Q 5.515625 40.1875 11.734375 48.09375 
Q 17.96875 56 27.875 56 
Q 33.9375 56 38.25 53.625 
Q 42.578125 51.265625 45.40625 46.390625 
z
M 14.796875 27.296875 
Q 14.796875 17.390625 18.875 11.75 
Q 22.953125 6.109375 30.078125 6.109375 
Q 37.203125 6.109375 41.296875 11.75 
Q 45.40625 17.390625 45.40625 27.296875 
Q 45.40625 37.203125 41.296875 42.84375 
Q 37.203125 48.484375 30.078125 48.484375 
Q 22.953125 48.484375 18.875 42.84375 
Q 14.796875 37.203125 14.796875 27.296875 
z
" id="DejaVuSans-64"/>
      <path id="DejaVuSans-20"/>
      <path d="M 2.984375 54.6875 
L 12.5 54.6875 
L 29.59375 8.796875 
L 46.6875 54.6875 
L 56.203125 54.6875 
L 35.6875 0 
L 23.484375 0 
z
" id="DejaVuSans-76"/>
      <path d="M 56.203125 29.59375 
L 56.203125 25.203125 
L 14.890625 25.203125 
Q 15.484375 15.921875 20.484375 11.0625 
Q 25.484375 6.203125 34.421875 6.203125 
Q 39.59375 6.203125 44.453125 7.46875 
Q 49.3125 8.734375 54.109375 11.28125 
L 54.109375 2.78125 
Q 49.265625 0.734375 44.1875 -0.34375 
Q 39.109375 -1.421875 33.890625 -1.421875 
Q 20.796875 -1.421875 13.15625 6.1875 
Q 5.515625 13.8125 5.515625 26.8125 
Q 5.515625 40.234375 12.765625 48.109375 
Q 20.015625 56 32.328125 56 
Q 43.359375 56 49.78125 48.890625 
Q 56.203125 41.796875 56.203125 29.59375 
z
M 47.21875 32.234375 
Q 47.125 39.59375 43.09375 43.984375 
Q 39.0625 48.390625 32.421875 48.390625 
Q 24.90625 48.390625 20.390625 44.140625 
Q 15.875 39.890625 15.1875 32.171875 
z
" id="DejaVuSans-65"/>
      <path d="M 41.109375 46.296875 
Q 39.59375 47.171875 37.8125 47.578125 
Q 36.03125 48 33.890625 48 
Q 26.265625 48 22.1875 43.046875 
Q 18.109375 38.09375 18.109375 28.8125 
L 18.109375 0 
L 9.078125 0 
L 9.078125 54.6875 
L 18.109375 54.6875 
L 18.109375 46.1875 
Q 20.953125 51.171875 25.484375 53.578125 
Q 30.03125 56 36.53125 56 
Q 37.453125 56 38.578125 55.875 
Q 39.703125 55.765625 41.0625 55.515625 
z
" id="DejaVuSans-72"/>
     </defs>
     <g transform="translate(66.149763 232.848344)scale(0.25 -0.25)">
      <use xlink:href="#DejaVuSans-63"/>
      <use x="54.980469" xlink:href="#DejaVuSans-6c"/>
      <use x="82.763672" xlink:href="#DejaVuSans-6f"/>
      <use x="143.945312" xlink:href="#DejaVuSans-75"/>
      <use x="207.324219" xlink:href="#DejaVuSans-64"/>
      <use x="270.800781" xlink:href="#DejaVuSans-20"/>
      <use x="302.587891" xlink:href="#DejaVuSans-63"/>
      <use x="357.568359" xlink:href="#DejaVuSans-6f"/>
      <use x="418.75" xlink:href="#DejaVuSans-76"/>
      <use x="477.929688" xlink:href="#DejaVuSans-65"/>
      <use x="539.453125" xlink:href="#DejaVuSans-72"/>
     </g>
     <!-- kurtosis -->
     <defs>
      <path d="M 9.078125 75.984375 
L 18.109375 75.984375 
L 18.109375 31.109375 
L 44.921875 54.6875 
L 56.390625 54.6875 
L 27.390625 29.109375 
L 57.625 0 
L 45.90625 0 
L 18.109375 26.703125 
L 18.109375 0 
L 9.078125 0 
z
" id="DejaVuSans-6b"/>
      <path d="M 18.3125 70.21875 
L 18.3125 54.6875 
L 36.8125 54.6875 
L 36.8125 47.703125 
L 18.3125 47.703125 
L 18.3125 18.015625 
Q 18.3125 11.328125 20.140625 9.421875 
Q 21.96875 7.515625 27.59375 7.515625 
L 36.8125 7.515625 
L 36.8125 0 
L 27.59375 0 
Q 17.1875 0 13.234375 3.875 
Q 9.28125 7.765625 9.28125 18.015625 
L 9.28125 47.703125 
L 2.6875 47.703125 
L 2.6875 54.6875 
L 9.28125 54.6875 
L 9.28125 70.21875 
z
" id="DejaVuSans-74"/>
      <path d="M 44.28125 53.078125 
L 44.28125 44.578125 
Q 40.484375 46.53125 36.375 47.5 
Q 32.28125 48.484375 27.875 48.484375 
Q 21.1875 48.484375 17.84375 46.4375 
Q 14.5 44.390625 14.5 40.28125 
Q 14.5 37.15625 16.890625 35.375 
Q 19.28125 33.59375 26.515625 31.984375 
L 29.59375 31.296875 
Q 39.15625 29.25 43.1875 25.515625 
Q 47.21875 21.78125 47.21875 15.09375 
Q 47.21875 7.46875 41.1875 3.015625 
Q 35.15625 -1.421875 24.609375 -1.421875 
Q 20.21875 -1.421875 15.453125 -0.5625 
Q 10.6875 0.296875 5.421875 2 
L 5.421875 11.28125 
Q 10.40625 8.6875 15.234375 7.390625 
Q 20.0625 6.109375 24.8125 6.109375 
Q 31.15625 6.109375 34.5625 8.28125 
Q 37.984375 10.453125 37.984375 14.40625 
Q 37.984375 18.0625 35.515625 20.015625 
Q 33.0625 21.96875 24.703125 23.78125 
L 21.578125 24.515625 
Q 13.234375 26.265625 9.515625 29.90625 
Q 5.8125 33.546875 5.8125 39.890625 
Q 5.8125 47.609375 11.28125 51.796875 
Q 16.75 56 26.8125 56 
Q 31.78125 56 36.171875 55.265625 
Q 40.578125 54.546875 44.28125 53.078125 
z
" id="DejaVuSans-73"/>
      <path d="M 9.421875 54.6875 
L 18.40625 54.6875 
L 18.40625 0 
L 9.421875 0 
z
M 9.421875 75.984375 
L 18.40625 75.984375 
L 18.40625 64.59375 
L 9.421875 64.59375 
z
" id="DejaVuSans-69"/>
     </defs>
     <g transform="translate(89.386091 260.842875)scale(0.25 -0.25)">
      <use xlink:href="#DejaVuSans-6b"/>
      <use x="57.863281" xlink:href="#DejaVuSans-75"/>
      <use x="121.242188" xlink:href="#DejaVuSans-72"/>
      <use x="162.355469" xlink:href="#DejaVuSans-74"/>
      <use x="201.564453" xlink:href="#DejaVuSans-6f"/>
      <use x="262.746094" xlink:href="#DejaVuSans-73"/>
      <use x="314.845703" xlink:href="#DejaVuSans-69"/>
      <use x="342.628906" xlink:href="#DejaVuSans-73"/>
     </g>
    </g>
   </g>
   <g id="line2d_3">
    <path clip-path="url(#p85b326de25)" d="M 33.95573 122.379514 
L 38.235676 109.19987 
L 42.515621 103.306044 
L 46.795566 102.006149 
L 51.075512 101.557366 
L 55.355457 99.719742 
L 59.635403 95.230261 
L 63.915348 86.747566 
L 68.195294 73.349711 
L 72.475239 56.419236 
L 76.755184 40.478301 
L 81.03513 30.94797 
L 85.315075 30.562545 
L 89.595021 38.251575 
L 93.874966 51.240861 
L 98.154912 67.244085 
L 102.434857 84.713922 
L 106.714802 102.331106 
L 110.994748 118.786586 
L 115.274693 132.771698 
L 119.554639 143.352382 
L 123.834584 150.594527 
L 128.114529 155.598569 
L 132.394475 159.611565 
L 136.67442 163.108426 
L 140.954366 165.891143 
L 145.234311 167.871182 
L 149.514257 169.355215 
L 153.794202 170.654615 
L 158.074147 171.811248 
L 162.354093 172.744364 
L 166.634038 173.425504 
L 170.913984 173.874696 
L 175.193929 174.135762 
L 179.473875 174.291409 
L 183.75382 174.43535 
L 188.033765 174.612194 
L 192.313711 174.808149 
L 196.593656 174.997402 
L 200.873602 175.17029 
L 205.153547 175.326006 
L 209.433492 175.4757 
L 213.713438 175.640179 
L 217.993383 175.809152 
L 222.273329 175.925315 
L 226.553274 175.946787 
L 230.83322 175.906662 
L 235.113165 175.87828 
L 239.39311 175.896641 
L 243.673056 175.941971 
" style="fill:none;stroke:#e69f00;stroke-linecap:square;stroke-width:2;"/>
   </g>
   <g id="line2d_4">
    <path clip-path="url(#p85b326de25)" d="M 33.95573 146.645316 
L 38.235676 140.157323 
L 42.515621 133.74263 
L 46.795566 127.526406 
L 51.075512 121.478239 
L 55.355457 115.448112 
L 59.635403 109.250356 
L 63.915348 102.767181 
L 68.195294 96.038566 
L 72.475239 89.311084 
L 76.755184 83.030386 
L 81.03513 77.776335 
L 85.315075 74.15395 
L 89.595021 72.665553 
L 93.874966 73.597009 
L 98.154912 76.949911 
L 102.434857 82.439757 
L 106.714802 89.55977 
L 110.994748 97.688675 
L 115.274693 106.207701 
L 119.554639 114.593375 
L 123.834584 122.466767 
L 128.114529 129.598942 
L 132.394475 135.886931 
L 136.67442 141.318927 
L 140.954366 145.94264 
L 145.234311 149.841972 
L 149.514257 153.120393 
L 153.794202 155.887334 
L 158.074147 158.245784 
L 162.354093 160.282134 
L 166.634038 162.060718 
L 170.913984 163.624418 
L 175.193929 165.000297 
L 179.473875 166.207114 
L 183.75382 167.26133 
L 188.033765 168.179816 
L 192.313711 168.979773 
L 196.593656 169.677748 
L 200.873602 170.289306 
L 205.153547 170.829527 
L 209.433492 171.313305 
L 213.713438 171.754487 
L 217.993383 172.163829 
L 222.273329 172.546759 
L 226.553274 172.902262 
L 230.83322 173.223723 
L 235.113165 173.50177 
L 239.39311 173.728316 
L 243.673056 173.90045 
" style="fill:none;stroke:#424243;stroke-linecap:square;stroke-width:2;"/>
   </g>
   <g id="patch_3">
    <path d="M 23.28 183.496 
L 254.167963 183.496 
" style="fill:none;stroke:#000000;stroke-linecap:square;stroke-linejoin:miter;stroke-width:0.8;"/>
   </g>
  </g>
 </g>
 <defs>
  <clipPath id="p85b326de25">
   <rect height="160.216" width="230.887963" x="23.28" y="23.28"/>
  </clipPath>
 </defs>
</svg>
