<?xml version="1.0" encoding="utf-8" standalone="no"?>
<!DOCTYPE svg PUBLIC "-//W3C//DTD SVG 1.1//EN"
  "http://www.w3.org/Graphics/SVG/1.1/DTD/svg11.dtd">
<!-- Created with matplotlib (http://matplotlib.org/) -->
<svg height="288pt" version="1.1" viewBox="0 0 288 288" width="288pt" xmlns="http://www.w3.org/2000/svg" xmlns:xlink="http://www.w3.org/1999/xlink">
 <defs>
  <style type="text/css">
*{stroke-linecap:butt;stroke-linejoin:round;}
  </style>
 </defs>
 <g id="figure_1">
  <g id="patch_1">
   <path d="M 0 288 
L 288 288 
L 288 0 
L 0 0 
z
" style="fill:#ffffff;"/>
  </g>
  <g id="axes_1">
   <g id="patch_2">
    <path d="M 23.175 183.67 
L 264.825 183.67 
L 264.825 23.175 
L 23.175 23.175 
z
" style="fill:#ffffff;"/>
   </g>
   <g id="PolyCollection_1">
    <defs>
     <path d="M 34.159091 -111.625227 
L 34.159091 -147.805989 
L 38.642393 -158.95288 
L 43.125696 -170.887475 
L 47.608998 -182.884658 
L 52.092301 -194.027861 
L 56.575603 -203.35974 
L 61.058905 -210.146041 
L 65.542208 -214.099433 
L 70.02551 -215.412433 
L 74.508813 -214.587761 
L 78.992115 -212.180878 
L 83.475417 -208.586217 
L 87.95872 -203.95188 
L 92.442022 -198.255764 
L 96.925325 -191.503897 
L 101.408627 -183.924453 
L 105.891929 -176.01601 
L 110.375232 -168.415883 
L 114.858534 -161.692185 
L 119.341837 -156.195429 
L 123.825139 -152.01879 
L 128.308442 -149.024433 
L 132.791744 -146.888969 
L 137.275046 -145.175247 
L 141.758349 -143.456864 
L 146.241651 -141.470437 
L 150.724954 -139.210366 
L 155.208256 -136.89254 
L 159.691558 -134.801311 
L 164.174861 -133.118889 
L 168.658163 -131.841661 
L 173.141466 -130.815784 
L 177.624768 -129.842066 
L 182.108071 -128.77053 
L 186.591373 -127.536992 
L 191.074675 -126.148069 
L 195.557978 -124.650695 
L 200.04128 -123.112408 
L 204.524583 -121.612023 
L 209.007885 -120.227473 
L 213.491187 -119.01642 
L 217.97449 -117.999972 
L 222.457792 -117.162295 
L 226.941095 -116.466721 
L 231.424397 -115.875934 
L 235.907699 -115.363491 
L 240.391002 -114.914665 
L 244.874304 -114.522906 
L 249.357607 -114.186496 
L 253.840909 -113.904625 
L 253.840909 -111.625227 
L 253.840909 -111.625227 
L 249.357607 -111.625227 
L 244.874304 -111.625227 
L 240.391002 -111.625227 
L 235.907699 -111.625227 
L 231.424397 -111.625227 
L 226.941095 -111.625227 
L 222.457792 -111.625227 
L 217.97449 -111.625227 
L 213.491187 -111.625227 
L 209.007885 -111.625227 
L 204.524583 -111.625227 
L 200.04128 -111.625227 
L 195.557978 -111.625227 
L 191.074675 -111.625227 
L 186.591373 -111.625227 
L 182.108071 -111.625227 
L 177.624768 -111.625227 
L 173.141466 -111.625227 
L 168.658163 -111.625227 
L 164.174861 -111.625227 
L 159.691558 -111.625227 
L 155.208256 -111.625227 
L 150.724954 -111.625227 
L 146.241651 -111.625227 
L 141.758349 -111.625227 
L 137.275046 -111.625227 
L 132.791744 -111.625227 
L 128.308442 -111.625227 
L 123.825139 -111.625227 
L 119.341837 -111.625227 
L 114.858534 -111.625227 
L 110.375232 -111.625227 
L 105.891929 -111.625227 
L 101.408627 -111.625227 
L 96.925325 -111.625227 
L 92.442022 -111.625227 
L 87.95872 -111.625227 
L 83.475417 -111.625227 
L 78.992115 -111.625227 
L 74.508813 -111.625227 
L 70.02551 -111.625227 
L 65.542208 -111.625227 
L 61.058905 -111.625227 
L 56.575603 -111.625227 
L 52.092301 -111.625227 
L 47.608998 -111.625227 
L 43.125696 -111.625227 
L 38.642393 -111.625227 
L 34.159091 -111.625227 
z
" id="m186fa46593" style="stroke:#cc79a7;stroke-opacity:0.3;"/>
    </defs>
    <g clip-path="url(#p793e613936)">
     <use style="fill:#cc79a7;fill-opacity:0.3;stroke:#cc79a7;stroke-opacity:0.3;" x="0" xlink:href="#m186fa46593" y="288"/>
    </g>
   </g>
   <g id="PolyCollection_2">
    <defs>
     <path d="M 34.159091 -111.625227 
L 34.159091 -136.855105 
L 38.642393 -145.439767 
L 43.125696 -155.747062 
L 47.608998 -167.58226 
L 52.092301 -180.455489 
L 56.575603 -193.572043 
L 61.058905 -205.909004 
L 65.542208 -216.377016 
L 70.02551 -224.029763 
L 74.508813 -228.255491 
L 78.992115 -228.883386 
L 83.475417 -226.170585 
L 87.95872 -220.688354 
L 92.442022 -213.166816 
L 96.925325 -204.36111 
L 101.408627 -194.969663 
L 105.891929 -185.595171 
L 110.375232 -176.720657 
L 114.858534 -168.684079 
L 119.341837 -161.658258 
L 123.825139 -155.654656 
L 128.308442 -150.560897 
L 132.791744 -146.202428 
L 137.275046 -142.405533 
L 141.758349 -139.040559 
L 146.241651 -136.037006 
L 150.724954 -133.375258 
L 155.208256 -131.065732 
L 159.691558 -129.124642 
L 164.174861 -127.551404 
L 168.658163 -126.311266 
L 173.141466 -125.328585 
L 177.624768 -124.496869 
L 182.108071 -123.705974 
L 186.591373 -122.876009 
L 191.074675 -121.980421 
L 195.557978 -121.045329 
L 200.04128 -120.12667 
L 204.524583 -119.279906 
L 209.007885 -118.538873 
L 213.491187 -117.91106 
L 217.97449 -117.385087 
L 222.457792 -116.941147 
L 226.941095 -116.558106 
L 231.424397 -116.216842 
L 235.907699 -115.902457 
L 240.391002 -115.606706 
L 244.874304 -115.329163 
L 249.357607 -115.074905 
L 253.840909 -114.84878 
L 253.840909 -111.625227 
L 253.840909 -111.625227 
L 249.357607 -111.625227 
L 244.874304 -111.625227 
L 240.391002 -111.625227 
L 235.907699 -111.625227 
L 231.424397 -111.625227 
L 226.941095 -111.625227 
L 222.457792 -111.625227 
L 217.97449 -111.625227 
L 213.491187 -111.625227 
L 209.007885 -111.625227 
L 204.524583 -111.625227 
L 200.04128 -111.625227 
L 195.557978 -111.625227 
L 191.074675 -111.625227 
L 186.591373 -111.625227 
L 182.108071 -111.625227 
L 177.624768 -111.625227 
L 173.141466 -111.625227 
L 168.658163 -111.625227 
L 164.174861 -111.625227 
L 159.691558 -111.625227 
L 155.208256 -111.625227 
L 150.724954 -111.625227 
L 146.241651 -111.625227 
L 141.758349 -111.625227 
L 137.275046 -111.625227 
L 132.791744 -111.625227 
L 128.308442 -111.625227 
L 123.825139 -111.625227 
L 119.341837 -111.625227 
L 114.858534 -111.625227 
L 110.375232 -111.625227 
L 105.891929 -111.625227 
L 101.408627 -111.625227 
L 96.925325 -111.625227 
L 92.442022 -111.625227 
L 87.95872 -111.625227 
L 83.475417 -111.625227 
L 78.992115 -111.625227 
L 74.508813 -111.625227 
L 70.02551 -111.625227 
L 65.542208 -111.625227 
L 61.058905 -111.625227 
L 56.575603 -111.625227 
L 52.092301 -111.625227 
L 47.608998 -111.625227 
L 43.125696 -111.625227 
L 38.642393 -111.625227 
L 34.159091 -111.625227 
z
" id="m32aebeeb5c" style="stroke:#424243;stroke-opacity:0.3;"/>
    </defs>
    <g clip-path="url(#p793e613936)">
     <use style="fill:#424243;fill-opacity:0.3;stroke:#424243;stroke-opacity:0.3;" x="0" xlink:href="#m32aebeeb5c" y="288"/>
    </g>
   </g>
   <g id="matplotlib.axis_1">
    <g id="xtick_1">
     <g id="line2d_1">
      <defs>
       <path d="M 0 0 
L 0 3.5 
" id="mccc8755927" style="stroke:#000000;stroke-width:0.8;"/>
      </defs>
      <g>
       <use style="stroke:#000000;stroke-width:0.8;" x="127.386291" xlink:href="#mccc8755927" y="183.67"/>
      </g>
     </g>
     <g id="text_1">
      <!-- 2 -->
      <defs>
       <path d="M 19.1875 8.296875 
L 53.609375 8.296875 
L 53.609375 0 
L 7.328125 0 
L 7.328125 8.296875 
Q 12.9375 14.109375 22.625 23.890625 
Q 32.328125 33.6875 34.8125 36.53125 
Q 39.546875 41.84375 41.421875 45.53125 
Q 43.3125 49.21875 43.3125 52.78125 
Q 43.3125 58.59375 39.234375 62.25 
Q 35.15625 65.921875 28.609375 65.921875 
Q 23.96875 65.921875 18.8125 64.3125 
Q 13.671875 62.703125 7.8125 59.421875 
L 7.8125 69.390625 
Q 13.765625 71.78125 18.9375 73 
Q 24.125 74.21875 28.421875 74.21875 
Q 39.75 74.21875 46.484375 68.546875 
Q 53.21875 62.890625 53.21875 53.421875 
Q 53.21875 48.921875 51.53125 44.890625 
Q 49.859375 40.875 45.40625 35.40625 
Q 44.1875 33.984375 37.640625 27.21875 
Q 31.109375 20.453125 19.1875 8.296875 
z
" id="DejaVuSans-32"/>
      </defs>
      <g transform="translate(121.023791 205.866875)scale(0.2 -0.2)">
       <use xlink:href="#DejaVuSans-32"/>
      </g>
     </g>
    </g>
    <g id="xtick_2">
     <g id="line2d_2">
      <g>
       <use style="stroke:#000000;stroke-width:0.8;" x="241.282791" xlink:href="#mccc8755927" y="183.67"/>
      </g>
     </g>
     <g id="text_2">
      <!-- 4 -->
      <defs>
       <path d="M 37.796875 64.3125 
L 12.890625 25.390625 
L 37.796875 25.390625 
z
M 35.203125 72.90625 
L 47.609375 72.90625 
L 47.609375 25.390625 
L 58.015625 25.390625 
L 58.015625 17.1875 
L 47.609375 17.1875 
L 47.609375 0 
L 37.796875 0 
L 37.796875 17.1875 
L 4.890625 17.1875 
L 4.890625 26.703125 
z
" id="DejaVuSans-34"/>
      </defs>
      <g transform="translate(234.920291 205.866875)scale(0.2 -0.2)">
       <use xlink:href="#DejaVuSans-34"/>
      </g>
     </g>
    </g>
    <g id="text_3">
     <!-- precipitation -->
     <defs>
      <path d="M 18.109375 8.203125 
L 18.109375 -20.796875 
L 9.078125 -20.796875 
L 9.078125 54.6875 
L 18.109375 54.6875 
L 18.109375 46.390625 
Q 20.953125 51.265625 25.265625 53.625 
Q 29.59375 56 35.59375 56 
Q 45.5625 56 51.78125 48.09375 
Q 58.015625 40.1875 58.015625 27.296875 
Q 58.015625 14.40625 51.78125 6.484375 
Q 45.5625 -1.421875 35.59375 -1.421875 
Q 29.59375 -1.421875 25.265625 0.953125 
Q 20.953125 3.328125 18.109375 8.203125 
z
M 48.6875 27.296875 
Q 48.6875 37.203125 44.609375 42.84375 
Q 40.53125 48.484375 33.40625 48.484375 
Q 26.265625 48.484375 22.1875 42.84375 
Q 18.109375 37.203125 18.109375 27.296875 
Q 18.109375 17.390625 22.1875 11.75 
Q 26.265625 6.109375 33.40625 6.109375 
Q 40.53125 6.109375 44.609375 11.75 
Q 48.6875 17.390625 48.6875 27.296875 
z
" id="DejaVuSans-70"/>
      <path d="M 41.109375 46.296875 
Q 39.59375 47.171875 37.8125 47.578125 
Q 36.03125 48 33.890625 48 
Q 26.265625 48 22.1875 43.046875 
Q 18.109375 38.09375 18.109375 28.8125 
L 18.109375 0 
L 9.078125 0 
L 9.078125 54.6875 
L 18.109375 54.6875 
L 18.109375 46.1875 
Q 20.953125 51.171875 25.484375 53.578125 
Q 30.03125 56 36.53125 56 
Q 37.453125 56 38.578125 55.875 
Q 39.703125 55.765625 41.0625 55.515625 
z
" id="DejaVuSans-72"/>
      <path d="M 56.203125 29.59375 
L 56.203125 25.203125 
L 14.890625 25.203125 
Q 15.484375 15.921875 20.484375 11.0625 
Q 25.484375 6.203125 34.421875 6.203125 
Q 39.59375 6.203125 44.453125 7.46875 
Q 49.3125 8.734375 54.109375 11.28125 
L 54.109375 2.78125 
Q 49.265625 0.734375 44.1875 -0.34375 
Q 39.109375 -1.421875 33.890625 -1.421875 
Q 20.796875 -1.421875 13.15625 6.1875 
Q 5.515625 13.8125 5.515625 26.8125 
Q 5.515625 40.234375 12.765625 48.109375 
Q 20.015625 56 32.328125 56 
Q 43.359375 56 49.78125 48.890625 
Q 56.203125 41.796875 56.203125 29.59375 
z
M 47.21875 32.234375 
Q 47.125 39.59375 43.09375 43.984375 
Q 39.0625 48.390625 32.421875 48.390625 
Q 24.90625 48.390625 20.390625 44.140625 
Q 15.875 39.890625 15.1875 32.171875 
z
" id="DejaVuSans-65"/>
      <path d="M 48.78125 52.59375 
L 48.78125 44.1875 
Q 44.96875 46.296875 41.140625 47.34375 
Q 37.3125 48.390625 33.40625 48.390625 
Q 24.65625 48.390625 19.8125 42.84375 
Q 14.984375 37.3125 14.984375 27.296875 
Q 14.984375 17.28125 19.8125 11.734375 
Q 24.65625 6.203125 33.40625 6.203125 
Q 37.3125 6.203125 41.140625 7.25 
Q 44.96875 8.296875 48.78125 10.40625 
L 48.78125 2.09375 
Q 45.015625 0.34375 40.984375 -0.53125 
Q 36.96875 -1.421875 32.421875 -1.421875 
Q 20.0625 -1.421875 12.78125 6.34375 
Q 5.515625 14.109375 5.515625 27.296875 
Q 5.515625 40.671875 12.859375 48.328125 
Q 20.21875 56 33.015625 56 
Q 37.15625 56 41.109375 55.140625 
Q 45.0625 54.296875 48.78125 52.59375 
z
" id="DejaVuSans-63"/>
      <path d="M 9.421875 54.6875 
L 18.40625 54.6875 
L 18.40625 0 
L 9.421875 0 
z
M 9.421875 75.984375 
L 18.40625 75.984375 
L 18.40625 64.59375 
L 9.421875 64.59375 
z
" id="DejaVuSans-69"/>
      <path d="M 18.3125 70.21875 
L 18.3125 54.6875 
L 36.8125 54.6875 
L 36.8125 47.703125 
L 18.3125 47.703125 
L 18.3125 18.015625 
Q 18.3125 11.328125 20.140625 9.421875 
Q 21.96875 7.515625 27.59375 7.515625 
L 36.8125 7.515625 
L 36.8125 0 
L 27.59375 0 
Q 17.1875 0 13.234375 3.875 
Q 9.28125 7.765625 9.28125 18.015625 
L 9.28125 47.703125 
L 2.6875 47.703125 
L 2.6875 54.6875 
L 9.28125 54.6875 
L 9.28125 70.21875 
z
" id="DejaVuSans-74"/>
      <path d="M 34.28125 27.484375 
Q 23.390625 27.484375 19.1875 25 
Q 14.984375 22.515625 14.984375 16.5 
Q 14.984375 11.71875 18.140625 8.90625 
Q 21.296875 6.109375 26.703125 6.109375 
Q 34.1875 6.109375 38.703125 11.40625 
Q 43.21875 16.703125 43.21875 25.484375 
L 43.21875 27.484375 
z
M 52.203125 31.203125 
L 52.203125 0 
L 43.21875 0 
L 43.21875 8.296875 
Q 40.140625 3.328125 35.546875 0.953125 
Q 30.953125 -1.421875 24.3125 -1.421875 
Q 15.921875 -1.421875 10.953125 3.296875 
Q 6 8.015625 6 15.921875 
Q 6 25.140625 12.171875 29.828125 
Q 18.359375 34.515625 30.609375 34.515625 
L 43.21875 34.515625 
L 43.21875 35.40625 
Q 43.21875 41.609375 39.140625 45 
Q 35.0625 48.390625 27.6875 48.390625 
Q 23 48.390625 18.546875 47.265625 
Q 14.109375 46.140625 10.015625 43.890625 
L 10.015625 52.203125 
Q 14.9375 54.109375 19.578125 55.046875 
Q 24.21875 56 28.609375 56 
Q 40.484375 56 46.34375 49.84375 
Q 52.203125 43.703125 52.203125 31.203125 
z
" id="DejaVuSans-61"/>
      <path d="M 30.609375 48.390625 
Q 23.390625 48.390625 19.1875 42.75 
Q 14.984375 37.109375 14.984375 27.296875 
Q 14.984375 17.484375 19.15625 11.84375 
Q 23.34375 6.203125 30.609375 6.203125 
Q 37.796875 6.203125 41.984375 11.859375 
Q 46.1875 17.53125 46.1875 27.296875 
Q 46.1875 37.015625 41.984375 42.703125 
Q 37.796875 48.390625 30.609375 48.390625 
z
M 30.609375 56 
Q 42.328125 56 49.015625 48.375 
Q 55.71875 40.765625 55.71875 27.296875 
Q 55.71875 13.875 49.015625 6.21875 
Q 42.328125 -1.421875 30.609375 -1.421875 
Q 18.84375 -1.421875 12.171875 6.21875 
Q 5.515625 13.875 5.515625 27.296875 
Q 5.515625 40.765625 12.171875 48.375 
Q 18.84375 56 30.609375 56 
z
" id="DejaVuSans-6f"/>
      <path d="M 54.890625 33.015625 
L 54.890625 0 
L 45.90625 0 
L 45.90625 32.71875 
Q 45.90625 40.484375 42.875 44.328125 
Q 39.84375 48.1875 33.796875 48.1875 
Q 26.515625 48.1875 22.3125 43.546875 
Q 18.109375 38.921875 18.109375 30.90625 
L 18.109375 0 
L 9.078125 0 
L 9.078125 54.6875 
L 18.109375 54.6875 
L 18.109375 46.1875 
Q 21.34375 51.125 25.703125 53.5625 
Q 30.078125 56 35.796875 56 
Q 45.21875 56 50.046875 50.171875 
Q 54.890625 44.34375 54.890625 33.015625 
z
" id="DejaVuSans-6e"/>
     </defs>
     <g transform="translate(64.980469 233.022344)scale(0.25 -0.25)">
      <use xlink:href="#DejaVuSans-70"/>
      <use x="63.476562" xlink:href="#DejaVuSans-72"/>
      <use x="104.558594" xlink:href="#DejaVuSans-65"/>
      <use x="166.082031" xlink:href="#DejaVuSans-63"/>
      <use x="221.0625" xlink:href="#DejaVuSans-69"/>
      <use x="248.845703" xlink:href="#DejaVuSans-70"/>
      <use x="312.322266" xlink:href="#DejaVuSans-69"/>
      <use x="340.105469" xlink:href="#DejaVuSans-74"/>
      <use x="379.314453" xlink:href="#DejaVuSans-61"/>
      <use x="440.59375" xlink:href="#DejaVuSans-74"/>
      <use x="479.802734" xlink:href="#DejaVuSans-69"/>
      <use x="507.585938" xlink:href="#DejaVuSans-6f"/>
      <use x="568.767578" xlink:href="#DejaVuSans-6e"/>
     </g>
     <!-- skew -->
     <defs>
      <path d="M 44.28125 53.078125 
L 44.28125 44.578125 
Q 40.484375 46.53125 36.375 47.5 
Q 32.28125 48.484375 27.875 48.484375 
Q 21.1875 48.484375 17.84375 46.4375 
Q 14.5 44.390625 14.5 40.28125 
Q 14.5 37.15625 16.890625 35.375 
Q 19.28125 33.59375 26.515625 31.984375 
L 29.59375 31.296875 
Q 39.15625 29.25 43.1875 25.515625 
Q 47.21875 21.78125 47.21875 15.09375 
Q 47.21875 7.46875 41.1875 3.015625 
Q 35.15625 -1.421875 24.609375 -1.421875 
Q 20.21875 -1.421875 15.453125 -0.5625 
Q 10.6875 0.296875 5.421875 2 
L 5.421875 11.28125 
Q 10.40625 8.6875 15.234375 7.390625 
Q 20.0625 6.109375 24.8125 6.109375 
Q 31.15625 6.109375 34.5625 8.28125 
Q 37.984375 10.453125 37.984375 14.40625 
Q 37.984375 18.0625 35.515625 20.015625 
Q 33.0625 21.96875 24.703125 23.78125 
L 21.578125 24.515625 
Q 13.234375 26.265625 9.515625 29.90625 
Q 5.8125 33.546875 5.8125 39.890625 
Q 5.8125 47.609375 11.28125 51.796875 
Q 16.75 56 26.8125 56 
Q 31.78125 56 36.171875 55.265625 
Q 40.578125 54.546875 44.28125 53.078125 
z
" id="DejaVuSans-73"/>
      <path d="M 9.078125 75.984375 
L 18.109375 75.984375 
L 18.109375 31.109375 
L 44.921875 54.6875 
L 56.390625 54.6875 
L 27.390625 29.109375 
L 57.625 0 
L 45.90625 0 
L 18.109375 26.703125 
L 18.109375 0 
L 9.078125 0 
z
" id="DejaVuSans-6b"/>
      <path d="M 4.203125 54.6875 
L 13.1875 54.6875 
L 24.421875 12.015625 
L 35.59375 54.6875 
L 46.1875 54.6875 
L 57.421875 12.015625 
L 68.609375 54.6875 
L 77.59375 54.6875 
L 63.28125 0 
L 52.6875 0 
L 40.921875 44.828125 
L 29.109375 0 
L 18.5 0 
z
" id="DejaVuSans-77"/>
     </defs>
     <g transform="translate(112.341797 261.016875)scale(0.25 -0.25)">
      <use xlink:href="#DejaVuSans-73"/>
      <use x="52.099609" xlink:href="#DejaVuSans-6b"/>
      <use x="109.962891" xlink:href="#DejaVuSans-65"/>
      <use x="171.486328" xlink:href="#DejaVuSans-77"/>
     </g>
    </g>
   </g>
   <g id="line2d_3">
    <path clip-path="url(#p793e613936)" d="M 34.159091 140.194011 
L 38.642393 129.04712 
L 43.125696 117.112525 
L 47.608998 105.115342 
L 52.092301 93.972139 
L 56.575603 84.64026 
L 61.058905 77.853959 
L 65.542208 73.900567 
L 70.02551 72.587567 
L 74.508813 73.412239 
L 78.992115 75.819122 
L 83.475417 79.413783 
L 87.95872 84.04812 
L 92.442022 89.744236 
L 96.925325 96.496103 
L 101.408627 104.075547 
L 105.891929 111.98399 
L 110.375232 119.584117 
L 114.858534 126.307815 
L 119.341837 131.804571 
L 123.825139 135.98121 
L 128.308442 138.975567 
L 132.791744 141.111031 
L 137.275046 142.824753 
L 141.758349 144.543136 
L 146.241651 146.529563 
L 150.724954 148.789634 
L 155.208256 151.10746 
L 159.691558 153.198689 
L 164.174861 154.881111 
L 168.658163 156.158339 
L 173.141466 157.184216 
L 177.624768 158.157934 
L 182.108071 159.22947 
L 186.591373 160.463008 
L 191.074675 161.851931 
L 195.557978 163.349305 
L 200.04128 164.887592 
L 204.524583 166.387977 
L 209.007885 167.772527 
L 213.491187 168.98358 
L 217.97449 170.000028 
L 222.457792 170.837705 
L 226.941095 171.533279 
L 231.424397 172.124066 
L 235.907699 172.636509 
L 240.391002 173.085335 
L 244.874304 173.477094 
L 249.357607 173.813504 
L 253.840909 174.095375 
" style="fill:none;stroke:#cc79a7;stroke-linecap:square;stroke-width:2;"/>
   </g>
   <g id="line2d_4">
    <path clip-path="url(#p793e613936)" d="M 34.159091 151.144895 
L 38.642393 142.560233 
L 43.125696 132.252938 
L 47.608998 120.41774 
L 52.092301 107.544511 
L 56.575603 94.427957 
L 61.058905 82.090996 
L 65.542208 71.622984 
L 70.02551 63.970237 
L 74.508813 59.744509 
L 78.992115 59.116614 
L 83.475417 61.829415 
L 87.95872 67.311646 
L 92.442022 74.833184 
L 96.925325 83.63889 
L 101.408627 93.030337 
L 105.891929 102.404829 
L 110.375232 111.279343 
L 114.858534 119.315921 
L 119.341837 126.341742 
L 123.825139 132.345344 
L 128.308442 137.439103 
L 132.791744 141.797572 
L 137.275046 145.594467 
L 141.758349 148.959441 
L 146.241651 151.962994 
L 150.724954 154.624742 
L 155.208256 156.934268 
L 159.691558 158.875358 
L 164.174861 160.448596 
L 168.658163 161.688734 
L 173.141466 162.671415 
L 177.624768 163.503131 
L 182.108071 164.294026 
L 186.591373 165.123991 
L 191.074675 166.019579 
L 195.557978 166.954671 
L 200.04128 167.87333 
L 204.524583 168.720094 
L 209.007885 169.461127 
L 213.491187 170.08894 
L 217.97449 170.614913 
L 222.457792 171.058853 
L 226.941095 171.441894 
L 231.424397 171.783158 
L 235.907699 172.097543 
L 240.391002 172.393294 
L 244.874304 172.670837 
L 249.357607 172.925095 
L 253.840909 173.15122 
" style="fill:none;stroke:#424243;stroke-linecap:square;stroke-width:2;"/>
   </g>
   <g id="patch_3">
    <path d="M 23.175 183.67 
L 264.825 183.67 
" style="fill:none;stroke:#000000;stroke-linecap:square;stroke-linejoin:miter;stroke-width:0.8;"/>
   </g>
  </g>
 </g>
 <defs>
  <clipPath id="p793e613936">
   <rect height="160.495" width="241.65" x="23.175" y="23.175"/>
  </clipPath>
 </defs>
</svg>
