<?xml version="1.0" encoding="utf-8" standalone="no"?>
<!DOCTYPE svg PUBLIC "-//W3C//DTD SVG 1.1//EN"
  "http://www.w3.org/Graphics/SVG/1.1/DTD/svg11.dtd">
<!-- Created with matplotlib (http://matplotlib.org/) -->
<svg height="288pt" version="1.1" viewBox="0 0 288 288" width="288pt" xmlns="http://www.w3.org/2000/svg" xmlns:xlink="http://www.w3.org/1999/xlink">
 <defs>
  <style type="text/css">
*{stroke-linecap:butt;stroke-linejoin:round;}
  </style>
 </defs>
 <g id="figure_1">
  <g id="patch_1">
   <path d="M 0 288 
L 288 288 
L 288 0 
L 0 0 
z
" style="fill:#ffffff;"/>
  </g>
  <g id="axes_1">
   <g id="patch_2">
    <path d="M 23.175 183.67 
L 254.142108 183.67 
L 254.142108 23.175 
L 23.175 23.175 
z
" style="fill:#ffffff;"/>
   </g>
   <g id="PolyCollection_1">
    <defs>
     <path d="M 33.673505 -111.625227 
L 33.673505 -182.228865 
L 37.958609 -200.703793 
L 42.243713 -213.647346 
L 46.528817 -221.478001 
L 50.813921 -226.390949 
L 55.099025 -230.46276 
L 59.384129 -234.874492 
L 63.669233 -240.123845 
L 67.954337 -246.187122 
L 72.239441 -252.26784 
L 76.524545 -256.694655 
L 80.809649 -257.529773 
L 85.094753 -253.625046 
L 89.379857 -245.257606 
L 93.664962 -233.817244 
L 97.950066 -220.905308 
L 102.23517 -207.654051 
L 106.520274 -194.681365 
L 110.805378 -182.417715 
L 115.090482 -171.317572 
L 119.375586 -161.774296 
L 123.66069 -153.926474 
L 127.945794 -147.608061 
L 132.230898 -142.482271 
L 136.516002 -138.19843 
L 140.801106 -134.461054 
L 145.08621 -131.072937 
L 149.371314 -127.997119 
L 153.656418 -125.338577 
L 157.941522 -123.19719 
L 162.226626 -121.535123 
L 166.51173 -120.200724 
L 170.796834 -119.05828 
L 175.081938 -118.074993 
L 179.367042 -117.296758 
L 183.652146 -116.760075 
L 187.937251 -116.429662 
L 192.222355 -116.204238 
L 196.507459 -115.961063 
L 200.792563 -115.603104 
L 205.077667 -115.103456 
L 209.362771 -114.523704 
L 213.647875 -113.969964 
L 217.932979 -113.518429 
L 222.218083 -113.187346 
L 226.503187 -112.963555 
L 230.788291 -112.825807 
L 235.073395 -112.742642 
L 239.358499 -112.672995 
L 243.643603 -112.582727 
L 243.643603 -111.625227 
L 243.643603 -111.625227 
L 239.358499 -111.625227 
L 235.073395 -111.625227 
L 230.788291 -111.625227 
L 226.503187 -111.625227 
L 222.218083 -111.625227 
L 217.932979 -111.625227 
L 213.647875 -111.625227 
L 209.362771 -111.625227 
L 205.077667 -111.625227 
L 200.792563 -111.625227 
L 196.507459 -111.625227 
L 192.222355 -111.625227 
L 187.937251 -111.625227 
L 183.652146 -111.625227 
L 179.367042 -111.625227 
L 175.081938 -111.625227 
L 170.796834 -111.625227 
L 166.51173 -111.625227 
L 162.226626 -111.625227 
L 157.941522 -111.625227 
L 153.656418 -111.625227 
L 149.371314 -111.625227 
L 145.08621 -111.625227 
L 140.801106 -111.625227 
L 136.516002 -111.625227 
L 132.230898 -111.625227 
L 127.945794 -111.625227 
L 123.66069 -111.625227 
L 119.375586 -111.625227 
L 115.090482 -111.625227 
L 110.805378 -111.625227 
L 106.520274 -111.625227 
L 102.23517 -111.625227 
L 97.950066 -111.625227 
L 93.664962 -111.625227 
L 89.379857 -111.625227 
L 85.094753 -111.625227 
L 80.809649 -111.625227 
L 76.524545 -111.625227 
L 72.239441 -111.625227 
L 67.954337 -111.625227 
L 63.669233 -111.625227 
L 59.384129 -111.625227 
L 55.099025 -111.625227 
L 50.813921 -111.625227 
L 46.528817 -111.625227 
L 42.243713 -111.625227 
L 37.958609 -111.625227 
L 33.673505 -111.625227 
z
" id="mf5a11c12c1" style="stroke:#cc79a7;stroke-opacity:0.3;"/>
    </defs>
    <g clip-path="url(#p996461b7a2)">
     <use style="fill:#cc79a7;fill-opacity:0.3;stroke:#cc79a7;stroke-opacity:0.3;" x="0" xlink:href="#mf5a11c12c1" y="288"/>
    </g>
   </g>
   <g id="PolyCollection_2">
    <defs>
     <path d="M 33.673505 -111.625227 
L 33.673505 -149.083074 
L 37.958609 -157.383435 
L 42.243713 -165.600678 
L 46.528817 -173.566326 
L 50.813921 -181.311745 
L 55.099025 -189.024931 
L 59.384129 -196.944535 
L 63.669233 -205.227103 
L 67.954337 -213.83029 
L 72.239441 -222.447778 
L 76.524545 -230.516208 
L 80.809649 -237.296086 
L 85.094753 -242.010328 
L 89.379857 -244.008282 
L 93.664962 -242.913062 
L 97.950066 -238.710975 
L 102.23517 -231.756608 
L 106.520274 -222.693108 
L 110.805378 -212.314848 
L 115.090482 -201.416885 
L 119.375586 -190.67454 
L 123.66069 -180.578577 
L 127.945794 -171.426938 
L 132.230898 -163.354955 
L 136.516002 -156.379954 
L 140.801106 -150.442095 
L 145.08621 -145.434567 
L 149.371314 -141.225065 
L 153.656418 -137.6733 
L 157.941522 -134.646969 
L 162.226626 -132.034868 
L 166.51173 -129.754037 
L 170.796834 -127.749107 
L 175.081938 -125.985148 
L 179.367042 -124.438025 
L 183.652146 -123.086628 
L 187.937251 -121.909341 
L 192.222355 -120.884111 
L 196.507459 -119.989713 
L 200.792563 -119.206183 
L 205.077667 -118.514188 
L 209.362771 -117.894632 
L 213.647875 -117.329746 
L 217.932979 -116.805708 
L 222.218083 -116.315513 
L 226.503187 -115.860426 
L 230.788291 -115.448903 
L 235.073395 -115.092953 
L 239.358499 -114.802951 
L 243.643603 -114.582641 
L 243.643603 -111.625227 
L 243.643603 -111.625227 
L 239.358499 -111.625227 
L 235.073395 -111.625227 
L 230.788291 -111.625227 
L 226.503187 -111.625227 
L 222.218083 -111.625227 
L 217.932979 -111.625227 
L 213.647875 -111.625227 
L 209.362771 -111.625227 
L 205.077667 -111.625227 
L 200.792563 -111.625227 
L 196.507459 -111.625227 
L 192.222355 -111.625227 
L 187.937251 -111.625227 
L 183.652146 -111.625227 
L 179.367042 -111.625227 
L 175.081938 -111.625227 
L 170.796834 -111.625227 
L 166.51173 -111.625227 
L 162.226626 -111.625227 
L 157.941522 -111.625227 
L 153.656418 -111.625227 
L 149.371314 -111.625227 
L 145.08621 -111.625227 
L 140.801106 -111.625227 
L 136.516002 -111.625227 
L 132.230898 -111.625227 
L 127.945794 -111.625227 
L 123.66069 -111.625227 
L 119.375586 -111.625227 
L 115.090482 -111.625227 
L 110.805378 -111.625227 
L 106.520274 -111.625227 
L 102.23517 -111.625227 
L 97.950066 -111.625227 
L 93.664962 -111.625227 
L 89.379857 -111.625227 
L 85.094753 -111.625227 
L 80.809649 -111.625227 
L 76.524545 -111.625227 
L 72.239441 -111.625227 
L 67.954337 -111.625227 
L 63.669233 -111.625227 
L 59.384129 -111.625227 
L 55.099025 -111.625227 
L 50.813921 -111.625227 
L 46.528817 -111.625227 
L 42.243713 -111.625227 
L 37.958609 -111.625227 
L 33.673505 -111.625227 
z
" id="mfd1207fffa" style="stroke:#424243;stroke-opacity:0.3;"/>
    </defs>
    <g clip-path="url(#p996461b7a2)">
     <use style="fill:#424243;fill-opacity:0.3;stroke:#424243;stroke-opacity:0.3;" x="0" xlink:href="#mfd1207fffa" y="288"/>
    </g>
   </g>
   <g id="matplotlib.axis_1">
    <g id="xtick_1">
     <g id="line2d_1">
      <defs>
       <path d="M 0 0 
L 0 3.5 
" id="md8083f6fa4" style="stroke:#000000;stroke-width:0.8;"/>
      </defs>
      <g>
       <use style="stroke:#000000;stroke-width:0.8;" x="110.286028" xlink:href="#md8083f6fa4" y="183.67"/>
      </g>
     </g>
     <g id="text_1">
      <!-- 0 -->
      <defs>
       <path d="M 31.78125 66.40625 
Q 24.171875 66.40625 20.328125 58.90625 
Q 16.5 51.421875 16.5 36.375 
Q 16.5 21.390625 20.328125 13.890625 
Q 24.171875 6.390625 31.78125 6.390625 
Q 39.453125 6.390625 43.28125 13.890625 
Q 47.125 21.390625 47.125 36.375 
Q 47.125 51.421875 43.28125 58.90625 
Q 39.453125 66.40625 31.78125 66.40625 
z
M 31.78125 74.21875 
Q 44.046875 74.21875 50.515625 64.515625 
Q 56.984375 54.828125 56.984375 36.375 
Q 56.984375 17.96875 50.515625 8.265625 
Q 44.046875 -1.421875 31.78125 -1.421875 
Q 19.53125 -1.421875 13.0625 8.265625 
Q 6.59375 17.96875 6.59375 36.375 
Q 6.59375 54.828125 13.0625 64.515625 
Q 19.53125 74.21875 31.78125 74.21875 
z
" id="DejaVuSans-30"/>
      </defs>
      <g transform="translate(103.923528 205.866875)scale(0.2 -0.2)">
       <use xlink:href="#DejaVuSans-30"/>
      </g>
     </g>
    </g>
    <g id="xtick_2">
     <g id="line2d_2">
      <g>
       <use style="stroke:#000000;stroke-width:0.8;" x="221.35632" xlink:href="#md8083f6fa4" y="183.67"/>
      </g>
     </g>
     <g id="text_2">
      <!-- 2 -->
      <defs>
       <path d="M 19.1875 8.296875 
L 53.609375 8.296875 
L 53.609375 0 
L 7.328125 0 
L 7.328125 8.296875 
Q 12.9375 14.109375 22.625 23.890625 
Q 32.328125 33.6875 34.8125 36.53125 
Q 39.546875 41.84375 41.421875 45.53125 
Q 43.3125 49.21875 43.3125 52.78125 
Q 43.3125 58.59375 39.234375 62.25 
Q 35.15625 65.921875 28.609375 65.921875 
Q 23.96875 65.921875 18.8125 64.3125 
Q 13.671875 62.703125 7.8125 59.421875 
L 7.8125 69.390625 
Q 13.765625 71.78125 18.9375 73 
Q 24.125 74.21875 28.421875 74.21875 
Q 39.75 74.21875 46.484375 68.546875 
Q 53.21875 62.890625 53.21875 53.421875 
Q 53.21875 48.921875 51.53125 44.890625 
Q 49.859375 40.875 45.40625 35.40625 
Q 44.1875 33.984375 37.640625 27.21875 
Q 31.109375 20.453125 19.1875 8.296875 
z
" id="DejaVuSans-32"/>
      </defs>
      <g transform="translate(214.99382 205.866875)scale(0.2 -0.2)">
       <use xlink:href="#DejaVuSans-32"/>
      </g>
     </g>
    </g>
    <g id="text_3">
     <!-- cloud cover -->
     <defs>
      <path d="M 48.78125 52.59375 
L 48.78125 44.1875 
Q 44.96875 46.296875 41.140625 47.34375 
Q 37.3125 48.390625 33.40625 48.390625 
Q 24.65625 48.390625 19.8125 42.84375 
Q 14.984375 37.3125 14.984375 27.296875 
Q 14.984375 17.28125 19.8125 11.734375 
Q 24.65625 6.203125 33.40625 6.203125 
Q 37.3125 6.203125 41.140625 7.25 
Q 44.96875 8.296875 48.78125 10.40625 
L 48.78125 2.09375 
Q 45.015625 0.34375 40.984375 -0.53125 
Q 36.96875 -1.421875 32.421875 -1.421875 
Q 20.0625 -1.421875 12.78125 6.34375 
Q 5.515625 14.109375 5.515625 27.296875 
Q 5.515625 40.671875 12.859375 48.328125 
Q 20.21875 56 33.015625 56 
Q 37.15625 56 41.109375 55.140625 
Q 45.0625 54.296875 48.78125 52.59375 
z
" id="DejaVuSans-63"/>
      <path d="M 9.421875 75.984375 
L 18.40625 75.984375 
L 18.40625 0 
L 9.421875 0 
z
" id="DejaVuSans-6c"/>
      <path d="M 30.609375 48.390625 
Q 23.390625 48.390625 19.1875 42.75 
Q 14.984375 37.109375 14.984375 27.296875 
Q 14.984375 17.484375 19.15625 11.84375 
Q 23.34375 6.203125 30.609375 6.203125 
Q 37.796875 6.203125 41.984375 11.859375 
Q 46.1875 17.53125 46.1875 27.296875 
Q 46.1875 37.015625 41.984375 42.703125 
Q 37.796875 48.390625 30.609375 48.390625 
z
M 30.609375 56 
Q 42.328125 56 49.015625 48.375 
Q 55.71875 40.765625 55.71875 27.296875 
Q 55.71875 13.875 49.015625 6.21875 
Q 42.328125 -1.421875 30.609375 -1.421875 
Q 18.84375 -1.421875 12.171875 6.21875 
Q 5.515625 13.875 5.515625 27.296875 
Q 5.515625 40.765625 12.171875 48.375 
Q 18.84375 56 30.609375 56 
z
" id="DejaVuSans-6f"/>
      <path d="M 8.5 21.578125 
L 8.5 54.6875 
L 17.484375 54.6875 
L 17.484375 21.921875 
Q 17.484375 14.15625 20.5 10.265625 
Q 23.53125 6.390625 29.59375 6.390625 
Q 36.859375 6.390625 41.078125 11.03125 
Q 45.3125 15.671875 45.3125 23.6875 
L 45.3125 54.6875 
L 54.296875 54.6875 
L 54.296875 0 
L 45.3125 0 
L 45.3125 8.40625 
Q 42.046875 3.421875 37.71875 1 
Q 33.40625 -1.421875 27.6875 -1.421875 
Q 18.265625 -1.421875 13.375 4.4375 
Q 8.5 10.296875 8.5 21.578125 
z
M 31.109375 56 
z
" id="DejaVuSans-75"/>
      <path d="M 45.40625 46.390625 
L 45.40625 75.984375 
L 54.390625 75.984375 
L 54.390625 0 
L 45.40625 0 
L 45.40625 8.203125 
Q 42.578125 3.328125 38.25 0.953125 
Q 33.9375 -1.421875 27.875 -1.421875 
Q 17.96875 -1.421875 11.734375 6.484375 
Q 5.515625 14.40625 5.515625 27.296875 
Q 5.515625 40.1875 11.734375 48.09375 
Q 17.96875 56 27.875 56 
Q 33.9375 56 38.25 53.625 
Q 42.578125 51.265625 45.40625 46.390625 
z
M 14.796875 27.296875 
Q 14.796875 17.390625 18.875 11.75 
Q 22.953125 6.109375 30.078125 6.109375 
Q 37.203125 6.109375 41.296875 11.75 
Q 45.40625 17.390625 45.40625 27.296875 
Q 45.40625 37.203125 41.296875 42.84375 
Q 37.203125 48.484375 30.078125 48.484375 
Q 22.953125 48.484375 18.875 42.84375 
Q 14.796875 37.203125 14.796875 27.296875 
z
" id="DejaVuSans-64"/>
      <path id="DejaVuSans-20"/>
      <path d="M 2.984375 54.6875 
L 12.5 54.6875 
L 29.59375 8.796875 
L 46.6875 54.6875 
L 56.203125 54.6875 
L 35.6875 0 
L 23.484375 0 
z
" id="DejaVuSans-76"/>
      <path d="M 56.203125 29.59375 
L 56.203125 25.203125 
L 14.890625 25.203125 
Q 15.484375 15.921875 20.484375 11.0625 
Q 25.484375 6.203125 34.421875 6.203125 
Q 39.59375 6.203125 44.453125 7.46875 
Q 49.3125 8.734375 54.109375 11.28125 
L 54.109375 2.78125 
Q 49.265625 0.734375 44.1875 -0.34375 
Q 39.109375 -1.421875 33.890625 -1.421875 
Q 20.796875 -1.421875 13.15625 6.1875 
Q 5.515625 13.8125 5.515625 26.8125 
Q 5.515625 40.234375 12.765625 48.109375 
Q 20.015625 56 32.328125 56 
Q 43.359375 56 49.78125 48.890625 
Q 56.203125 41.796875 56.203125 29.59375 
z
M 47.21875 32.234375 
Q 47.125 39.59375 43.09375 43.984375 
Q 39.0625 48.390625 32.421875 48.390625 
Q 24.90625 48.390625 20.390625 44.140625 
Q 15.875 39.890625 15.1875 32.171875 
z
" id="DejaVuSans-65"/>
      <path d="M 41.109375 46.296875 
Q 39.59375 47.171875 37.8125 47.578125 
Q 36.03125 48 33.890625 48 
Q 26.265625 48 22.1875 43.046875 
Q 18.109375 38.09375 18.109375 28.8125 
L 18.109375 0 
L 9.078125 0 
L 9.078125 54.6875 
L 18.109375 54.6875 
L 18.109375 46.1875 
Q 20.953125 51.171875 25.484375 53.578125 
Q 30.03125 56 36.53125 56 
Q 37.453125 56 38.578125 55.875 
Q 39.703125 55.765625 41.0625 55.515625 
z
" id="DejaVuSans-72"/>
     </defs>
     <g transform="translate(66.084335 233.022344)scale(0.25 -0.25)">
      <use xlink:href="#DejaVuSans-63"/>
      <use x="54.980469" xlink:href="#DejaVuSans-6c"/>
      <use x="82.763672" xlink:href="#DejaVuSans-6f"/>
      <use x="143.945312" xlink:href="#DejaVuSans-75"/>
      <use x="207.324219" xlink:href="#DejaVuSans-64"/>
      <use x="270.800781" xlink:href="#DejaVuSans-20"/>
      <use x="302.587891" xlink:href="#DejaVuSans-63"/>
      <use x="357.568359" xlink:href="#DejaVuSans-6f"/>
      <use x="418.75" xlink:href="#DejaVuSans-76"/>
      <use x="477.929688" xlink:href="#DejaVuSans-65"/>
      <use x="539.453125" xlink:href="#DejaVuSans-72"/>
     </g>
     <!-- kurtosis -->
     <defs>
      <path d="M 9.078125 75.984375 
L 18.109375 75.984375 
L 18.109375 31.109375 
L 44.921875 54.6875 
L 56.390625 54.6875 
L 27.390625 29.109375 
L 57.625 0 
L 45.90625 0 
L 18.109375 26.703125 
L 18.109375 0 
L 9.078125 0 
z
" id="DejaVuSans-6b"/>
      <path d="M 18.3125 70.21875 
L 18.3125 54.6875 
L 36.8125 54.6875 
L 36.8125 47.703125 
L 18.3125 47.703125 
L 18.3125 18.015625 
Q 18.3125 11.328125 20.140625 9.421875 
Q 21.96875 7.515625 27.59375 7.515625 
L 36.8125 7.515625 
L 36.8125 0 
L 27.59375 0 
Q 17.1875 0 13.234375 3.875 
Q 9.28125 7.765625 9.28125 18.015625 
L 9.28125 47.703125 
L 2.6875 47.703125 
L 2.6875 54.6875 
L 9.28125 54.6875 
L 9.28125 70.21875 
z
" id="DejaVuSans-74"/>
      <path d="M 44.28125 53.078125 
L 44.28125 44.578125 
Q 40.484375 46.53125 36.375 47.5 
Q 32.28125 48.484375 27.875 48.484375 
Q 21.1875 48.484375 17.84375 46.4375 
Q 14.5 44.390625 14.5 40.28125 
Q 14.5 37.15625 16.890625 35.375 
Q 19.28125 33.59375 26.515625 31.984375 
L 29.59375 31.296875 
Q 39.15625 29.25 43.1875 25.515625 
Q 47.21875 21.78125 47.21875 15.09375 
Q 47.21875 7.46875 41.1875 3.015625 
Q 35.15625 -1.421875 24.609375 -1.421875 
Q 20.21875 -1.421875 15.453125 -0.5625 
Q 10.6875 0.296875 5.421875 2 
L 5.421875 11.28125 
Q 10.40625 8.6875 15.234375 7.390625 
Q 20.0625 6.109375 24.8125 6.109375 
Q 31.15625 6.109375 34.5625 8.28125 
Q 37.984375 10.453125 37.984375 14.40625 
Q 37.984375 18.0625 35.515625 20.015625 
Q 33.0625 21.96875 24.703125 23.78125 
L 21.578125 24.515625 
Q 13.234375 26.265625 9.515625 29.90625 
Q 5.8125 33.546875 5.8125 39.890625 
Q 5.8125 47.609375 11.28125 51.796875 
Q 16.75 56 26.8125 56 
Q 31.78125 56 36.171875 55.265625 
Q 40.578125 54.546875 44.28125 53.078125 
z
" id="DejaVuSans-73"/>
      <path d="M 9.421875 54.6875 
L 18.40625 54.6875 
L 18.40625 0 
L 9.421875 0 
z
M 9.421875 75.984375 
L 18.40625 75.984375 
L 18.40625 64.59375 
L 9.421875 64.59375 
z
" id="DejaVuSans-69"/>
     </defs>
     <g transform="translate(89.320663 261.016875)scale(0.25 -0.25)">
      <use xlink:href="#DejaVuSans-6b"/>
      <use x="57.863281" xlink:href="#DejaVuSans-75"/>
      <use x="121.242188" xlink:href="#DejaVuSans-72"/>
      <use x="162.355469" xlink:href="#DejaVuSans-74"/>
      <use x="201.564453" xlink:href="#DejaVuSans-6f"/>
      <use x="262.746094" xlink:href="#DejaVuSans-73"/>
      <use x="314.845703" xlink:href="#DejaVuSans-69"/>
      <use x="342.628906" xlink:href="#DejaVuSans-73"/>
     </g>
    </g>
   </g>
   <g id="line2d_3">
    <path clip-path="url(#p996461b7a2)" d="M 33.673505 105.771135 
L 37.958609 87.296207 
L 42.243713 74.352654 
L 46.528817 66.521999 
L 50.813921 61.609051 
L 55.099025 57.53724 
L 59.384129 53.125508 
L 63.669233 47.876155 
L 67.954337 41.812878 
L 72.239441 35.73216 
L 76.524545 31.305345 
L 80.809649 30.470227 
L 85.094753 34.374954 
L 89.379857 42.742394 
L 93.664962 54.182756 
L 97.950066 67.094692 
L 102.23517 80.345949 
L 106.520274 93.318635 
L 110.805378 105.582285 
L 115.090482 116.682428 
L 119.375586 126.225704 
L 123.66069 134.073526 
L 127.945794 140.391939 
L 132.230898 145.517729 
L 136.516002 149.80157 
L 140.801106 153.538946 
L 145.08621 156.927063 
L 149.371314 160.002881 
L 153.656418 162.661423 
L 157.941522 164.80281 
L 162.226626 166.464877 
L 166.51173 167.799276 
L 170.796834 168.94172 
L 175.081938 169.925007 
L 179.367042 170.703242 
L 183.652146 171.239925 
L 187.937251 171.570338 
L 192.222355 171.795762 
L 196.507459 172.038937 
L 200.792563 172.396896 
L 205.077667 172.896544 
L 209.362771 173.476296 
L 213.647875 174.030036 
L 217.932979 174.481571 
L 222.218083 174.812654 
L 226.503187 175.036445 
L 230.788291 175.174193 
L 235.073395 175.257358 
L 239.358499 175.327005 
L 243.643603 175.417273 
" style="fill:none;stroke:#cc79a7;stroke-linecap:square;stroke-width:2;"/>
   </g>
   <g id="line2d_4">
    <path clip-path="url(#p996461b7a2)" d="M 33.673505 138.916926 
L 37.958609 130.616565 
L 42.243713 122.399322 
L 46.528817 114.433674 
L 50.813921 106.688255 
L 55.099025 98.975069 
L 59.384129 91.055465 
L 63.669233 82.772897 
L 67.954337 74.16971 
L 72.239441 65.552222 
L 76.524545 57.483792 
L 80.809649 50.703914 
L 85.094753 45.989672 
L 89.379857 43.991718 
L 93.664962 45.086938 
L 97.950066 49.289025 
L 102.23517 56.243392 
L 106.520274 65.306892 
L 110.805378 75.685152 
L 115.090482 86.583115 
L 119.375586 97.32546 
L 123.66069 107.421423 
L 127.945794 116.573062 
L 132.230898 124.645045 
L 136.516002 131.620046 
L 140.801106 137.557905 
L 145.08621 142.565433 
L 149.371314 146.774935 
L 153.656418 150.3267 
L 157.941522 153.353031 
L 162.226626 155.965132 
L 166.51173 158.245963 
L 170.796834 160.250893 
L 175.081938 162.014852 
L 179.367042 163.561975 
L 183.652146 164.913372 
L 187.937251 166.090659 
L 192.222355 167.115889 
L 196.507459 168.010287 
L 200.792563 168.793817 
L 205.077667 169.485812 
L 209.362771 170.105368 
L 213.647875 170.670254 
L 217.932979 171.194292 
L 222.218083 171.684487 
L 226.503187 172.139574 
L 230.788291 172.551097 
L 235.073395 172.907047 
L 239.358499 173.197049 
L 243.643603 173.417359 
" style="fill:none;stroke:#424243;stroke-linecap:square;stroke-width:2;"/>
   </g>
   <g id="patch_3">
    <path d="M 23.175 183.67 
L 254.142108 183.67 
" style="fill:none;stroke:#000000;stroke-linecap:square;stroke-linejoin:miter;stroke-width:0.8;"/>
   </g>
  </g>
 </g>
 <defs>
  <clipPath id="p996461b7a2">
   <rect height="160.495" width="230.967108" x="23.175" y="23.175"/>
  </clipPath>
 </defs>
</svg>
