<?xml version="1.0" encoding="utf-8" standalone="no"?>
<!DOCTYPE svg PUBLIC "-//W3C//DTD SVG 1.1//EN"
  "http://www.w3.org/Graphics/SVG/1.1/DTD/svg11.dtd">
<!-- Created with matplotlib (http://matplotlib.org/) -->
<svg height="288pt" version="1.1" viewBox="0 0 288 288" width="288pt" xmlns="http://www.w3.org/2000/svg" xmlns:xlink="http://www.w3.org/1999/xlink">
 <defs>
  <style type="text/css">
*{stroke-linecap:butt;stroke-linejoin:round;}
  </style>
 </defs>
 <g id="figure_1">
  <g id="patch_1">
   <path d="M 0 288 
L 288 288 
L 288 0 
L 0 0 
z
" style="fill:#ffffff;"/>
  </g>
  <g id="axes_1">
   <g id="patch_2">
    <path d="M 33.442163 183.67 
L 264.825 183.67 
L 264.825 23.175 
L 33.442163 23.175 
z
" style="fill:#ffffff;"/>
   </g>
   <g id="PolyCollection_1">
    <defs>
     <path d="M 43.959564 -111.625227 
L 43.959564 -114.500013 
L 48.252381 -116.264422 
L 52.545198 -118.787974 
L 56.838015 -122.24076 
L 61.130832 -126.696725 
L 65.423649 -132.048046 
L 69.716466 -138.02187 
L 74.009283 -144.373334 
L 78.3021 -151.18793 
L 82.594918 -159.062991 
L 86.887735 -168.916936 
L 91.180552 -181.388215 
L 95.473369 -196.128141 
L 99.766186 -211.487706 
L 104.059003 -224.921702 
L 108.35182 -233.956975 
L 112.644637 -237.168155 
L 116.937454 -234.613753 
L 121.230271 -227.580871 
L 125.523088 -217.918371 
L 129.815905 -207.390258 
L 134.108722 -197.32532 
L 138.401539 -188.57409 
L 142.694356 -181.616479 
L 146.987173 -176.661436 
L 151.27999 -173.678494 
L 155.572807 -172.396172 
L 159.865624 -172.335658 
L 164.158441 -172.918879 
L 168.451258 -173.627458 
L 172.744075 -174.137619 
L 177.036892 -174.359587 
L 181.329709 -174.372077 
L 185.622526 -174.309834 
L 189.915343 -174.274849 
L 194.20816 -174.298341 
L 198.500977 -174.332682 
L 202.793794 -174.242863 
L 207.086611 -173.792227 
L 211.379428 -172.646643 
L 215.672245 -170.428886 
L 219.965062 -166.831888 
L 224.257879 -161.756774 
L 228.550696 -155.408101 
L 232.843513 -148.283739 
L 237.13633 -141.046089 
L 241.429147 -134.327828 
L 245.721964 -128.564234 
L 250.014781 -123.925719 
L 254.307598 -120.360787 
L 254.307598 -111.625227 
L 254.307598 -111.625227 
L 250.014781 -111.625227 
L 245.721964 -111.625227 
L 241.429147 -111.625227 
L 237.13633 -111.625227 
L 232.843513 -111.625227 
L 228.550696 -111.625227 
L 224.257879 -111.625227 
L 219.965062 -111.625227 
L 215.672245 -111.625227 
L 211.379428 -111.625227 
L 207.086611 -111.625227 
L 202.793794 -111.625227 
L 198.500977 -111.625227 
L 194.20816 -111.625227 
L 189.915343 -111.625227 
L 185.622526 -111.625227 
L 181.329709 -111.625227 
L 177.036892 -111.625227 
L 172.744075 -111.625227 
L 168.451258 -111.625227 
L 164.158441 -111.625227 
L 159.865624 -111.625227 
L 155.572807 -111.625227 
L 151.27999 -111.625227 
L 146.987173 -111.625227 
L 142.694356 -111.625227 
L 138.401539 -111.625227 
L 134.108722 -111.625227 
L 129.815905 -111.625227 
L 125.523088 -111.625227 
L 121.230271 -111.625227 
L 116.937454 -111.625227 
L 112.644637 -111.625227 
L 108.35182 -111.625227 
L 104.059003 -111.625227 
L 99.766186 -111.625227 
L 95.473369 -111.625227 
L 91.180552 -111.625227 
L 86.887735 -111.625227 
L 82.594918 -111.625227 
L 78.3021 -111.625227 
L 74.009283 -111.625227 
L 69.716466 -111.625227 
L 65.423649 -111.625227 
L 61.130832 -111.625227 
L 56.838015 -111.625227 
L 52.545198 -111.625227 
L 48.252381 -111.625227 
L 43.959564 -111.625227 
z
" id="m93c045515c" style="stroke:#cc79a7;stroke-opacity:0.3;"/>
    </defs>
    <g clip-path="url(#p7d203ef5cf)">
     <use style="fill:#cc79a7;fill-opacity:0.3;stroke:#cc79a7;stroke-opacity:0.3;" x="0" xlink:href="#m93c045515c" y="288"/>
    </g>
   </g>
   <g id="PolyCollection_2">
    <defs>
     <path d="M 43.959564 -111.625227 
L 43.959564 -125.452361 
L 48.252381 -127.803173 
L 52.545198 -130.463594 
L 56.838015 -133.465946 
L 61.130832 -136.824506 
L 65.423649 -140.539097 
L 69.716466 -144.621985 
L 74.009283 -149.14299 
L 78.3021 -154.264398 
L 82.594918 -160.222605 
L 86.887735 -167.226705 
L 91.180552 -175.289712 
L 95.473369 -184.06466 
L 99.766186 -192.786184 
L 104.059003 -200.387667 
L 108.35182 -205.780125 
L 112.644637 -208.18801 
L 116.937454 -207.397487 
L 121.230271 -203.811972 
L 125.523088 -198.303314 
L 129.815905 -191.937079 
L 134.108722 -185.689272 
L 138.401539 -180.250831 
L 142.694356 -175.96115 
L 146.987173 -172.856791 
L 151.27999 -170.787129 
L 155.572807 -169.539521 
L 159.865624 -168.928455 
L 164.158441 -168.828147 
L 168.451258 -169.155887 
L 172.744075 -169.832666 
L 177.036892 -170.750829 
L 181.329709 -171.767067 
L 185.622526 -172.721 
L 189.915343 -173.465144 
L 194.20816 -173.887659 
L 198.500977 -173.915936 
L 202.793794 -173.502376 
L 207.086611 -172.60543 
L 211.379428 -171.181343 
L 215.672245 -169.193225 
L 219.965062 -166.630451 
L 224.257879 -163.52373 
L 228.550696 -159.945238 
L 232.843513 -155.994829 
L 237.13633 -151.782296 
L 241.429147 -147.415211 
L 245.721964 -142.994589 
L 250.014781 -138.614521 
L 254.307598 -134.362017 
L 254.307598 -111.625227 
L 254.307598 -111.625227 
L 250.014781 -111.625227 
L 245.721964 -111.625227 
L 241.429147 -111.625227 
L 237.13633 -111.625227 
L 232.843513 -111.625227 
L 228.550696 -111.625227 
L 224.257879 -111.625227 
L 219.965062 -111.625227 
L 215.672245 -111.625227 
L 211.379428 -111.625227 
L 207.086611 -111.625227 
L 202.793794 -111.625227 
L 198.500977 -111.625227 
L 194.20816 -111.625227 
L 189.915343 -111.625227 
L 185.622526 -111.625227 
L 181.329709 -111.625227 
L 177.036892 -111.625227 
L 172.744075 -111.625227 
L 168.451258 -111.625227 
L 164.158441 -111.625227 
L 159.865624 -111.625227 
L 155.572807 -111.625227 
L 151.27999 -111.625227 
L 146.987173 -111.625227 
L 142.694356 -111.625227 
L 138.401539 -111.625227 
L 134.108722 -111.625227 
L 129.815905 -111.625227 
L 125.523088 -111.625227 
L 121.230271 -111.625227 
L 116.937454 -111.625227 
L 112.644637 -111.625227 
L 108.35182 -111.625227 
L 104.059003 -111.625227 
L 99.766186 -111.625227 
L 95.473369 -111.625227 
L 91.180552 -111.625227 
L 86.887735 -111.625227 
L 82.594918 -111.625227 
L 78.3021 -111.625227 
L 74.009283 -111.625227 
L 69.716466 -111.625227 
L 65.423649 -111.625227 
L 61.130832 -111.625227 
L 56.838015 -111.625227 
L 52.545198 -111.625227 
L 48.252381 -111.625227 
L 43.959564 -111.625227 
z
" id="m0018db68d8" style="stroke:#424243;stroke-opacity:0.3;"/>
    </defs>
    <g clip-path="url(#p7d203ef5cf)">
     <use style="fill:#424243;fill-opacity:0.3;stroke:#424243;stroke-opacity:0.3;" x="0" xlink:href="#m0018db68d8" y="288"/>
    </g>
   </g>
   <g id="matplotlib.axis_1">
    <g id="xtick_1">
     <g id="line2d_1">
      <defs>
       <path d="M 0 0 
L 0 3.5 
" id="me7e6043c53" style="stroke:#000000;stroke-width:0.8;"/>
      </defs>
      <g>
       <use style="stroke:#000000;stroke-width:0.8;" x="46.31243" xlink:href="#me7e6043c53" y="183.67"/>
      </g>
     </g>
     <g id="text_1">
      <!-- 0.25 -->
      <defs>
       <path d="M 31.78125 66.40625 
Q 24.171875 66.40625 20.328125 58.90625 
Q 16.5 51.421875 16.5 36.375 
Q 16.5 21.390625 20.328125 13.890625 
Q 24.171875 6.390625 31.78125 6.390625 
Q 39.453125 6.390625 43.28125 13.890625 
Q 47.125 21.390625 47.125 36.375 
Q 47.125 51.421875 43.28125 58.90625 
Q 39.453125 66.40625 31.78125 66.40625 
z
M 31.78125 74.21875 
Q 44.046875 74.21875 50.515625 64.515625 
Q 56.984375 54.828125 56.984375 36.375 
Q 56.984375 17.96875 50.515625 8.265625 
Q 44.046875 -1.421875 31.78125 -1.421875 
Q 19.53125 -1.421875 13.0625 8.265625 
Q 6.59375 17.96875 6.59375 36.375 
Q 6.59375 54.828125 13.0625 64.515625 
Q 19.53125 74.21875 31.78125 74.21875 
z
" id="DejaVuSans-30"/>
       <path d="M 10.6875 12.40625 
L 21 12.40625 
L 21 0 
L 10.6875 0 
z
" id="DejaVuSans-2e"/>
       <path d="M 19.1875 8.296875 
L 53.609375 8.296875 
L 53.609375 0 
L 7.328125 0 
L 7.328125 8.296875 
Q 12.9375 14.109375 22.625 23.890625 
Q 32.328125 33.6875 34.8125 36.53125 
Q 39.546875 41.84375 41.421875 45.53125 
Q 43.3125 49.21875 43.3125 52.78125 
Q 43.3125 58.59375 39.234375 62.25 
Q 35.15625 65.921875 28.609375 65.921875 
Q 23.96875 65.921875 18.8125 64.3125 
Q 13.671875 62.703125 7.8125 59.421875 
L 7.8125 69.390625 
Q 13.765625 71.78125 18.9375 73 
Q 24.125 74.21875 28.421875 74.21875 
Q 39.75 74.21875 46.484375 68.546875 
Q 53.21875 62.890625 53.21875 53.421875 
Q 53.21875 48.921875 51.53125 44.890625 
Q 49.859375 40.875 45.40625 35.40625 
Q 44.1875 33.984375 37.640625 27.21875 
Q 31.109375 20.453125 19.1875 8.296875 
z
" id="DejaVuSans-32"/>
       <path d="M 10.796875 72.90625 
L 49.515625 72.90625 
L 49.515625 64.59375 
L 19.828125 64.59375 
L 19.828125 46.734375 
Q 21.96875 47.46875 24.109375 47.828125 
Q 26.265625 48.1875 28.421875 48.1875 
Q 40.625 48.1875 47.75 41.5 
Q 54.890625 34.8125 54.890625 23.390625 
Q 54.890625 11.625 47.5625 5.09375 
Q 40.234375 -1.421875 26.90625 -1.421875 
Q 22.3125 -1.421875 17.546875 -0.640625 
Q 12.796875 0.140625 7.71875 1.703125 
L 7.71875 11.625 
Q 12.109375 9.234375 16.796875 8.0625 
Q 21.484375 6.890625 26.703125 6.890625 
Q 35.15625 6.890625 40.078125 11.328125 
Q 45.015625 15.765625 45.015625 23.390625 
Q 45.015625 31 40.078125 35.4375 
Q 35.15625 39.890625 26.703125 39.890625 
Q 22.75 39.890625 18.8125 39.015625 
Q 14.890625 38.140625 10.796875 36.28125 
z
" id="DejaVuSans-35"/>
      </defs>
      <g transform="translate(24.046805 205.866875)scale(0.2 -0.2)">
       <use xlink:href="#DejaVuSans-30"/>
       <use x="63.623047" xlink:href="#DejaVuSans-2e"/>
       <use x="95.410156" xlink:href="#DejaVuSans-32"/>
       <use x="159.033203" xlink:href="#DejaVuSans-35"/>
      </g>
     </g>
    </g>
    <g id="xtick_2">
     <g id="line2d_2">
      <g>
       <use style="stroke:#000000;stroke-width:0.8;" x="123.226032" xlink:href="#me7e6043c53" y="183.67"/>
      </g>
     </g>
     <g id="text_2">
      <!-- 0.50 -->
      <g transform="translate(100.960407 205.866875)scale(0.2 -0.2)">
       <use xlink:href="#DejaVuSans-30"/>
       <use x="63.623047" xlink:href="#DejaVuSans-2e"/>
       <use x="95.410156" xlink:href="#DejaVuSans-35"/>
       <use x="159.033203" xlink:href="#DejaVuSans-30"/>
      </g>
     </g>
    </g>
    <g id="xtick_3">
     <g id="line2d_3">
      <g>
       <use style="stroke:#000000;stroke-width:0.8;" x="200.139635" xlink:href="#me7e6043c53" y="183.67"/>
      </g>
     </g>
     <g id="text_3">
      <!-- 0.75 -->
      <defs>
       <path d="M 8.203125 72.90625 
L 55.078125 72.90625 
L 55.078125 68.703125 
L 28.609375 0 
L 18.3125 0 
L 43.21875 64.59375 
L 8.203125 64.59375 
z
" id="DejaVuSans-37"/>
      </defs>
      <g transform="translate(177.87401 205.866875)scale(0.2 -0.2)">
       <use xlink:href="#DejaVuSans-30"/>
       <use x="63.623047" xlink:href="#DejaVuSans-2e"/>
       <use x="95.410156" xlink:href="#DejaVuSans-37"/>
       <use x="159.033203" xlink:href="#DejaVuSans-35"/>
      </g>
     </g>
    </g>
    <g id="text_4">
     <!-- cloud cover -->
     <defs>
      <path d="M 48.78125 52.59375 
L 48.78125 44.1875 
Q 44.96875 46.296875 41.140625 47.34375 
Q 37.3125 48.390625 33.40625 48.390625 
Q 24.65625 48.390625 19.8125 42.84375 
Q 14.984375 37.3125 14.984375 27.296875 
Q 14.984375 17.28125 19.8125 11.734375 
Q 24.65625 6.203125 33.40625 6.203125 
Q 37.3125 6.203125 41.140625 7.25 
Q 44.96875 8.296875 48.78125 10.40625 
L 48.78125 2.09375 
Q 45.015625 0.34375 40.984375 -0.53125 
Q 36.96875 -1.421875 32.421875 -1.421875 
Q 20.0625 -1.421875 12.78125 6.34375 
Q 5.515625 14.109375 5.515625 27.296875 
Q 5.515625 40.671875 12.859375 48.328125 
Q 20.21875 56 33.015625 56 
Q 37.15625 56 41.109375 55.140625 
Q 45.0625 54.296875 48.78125 52.59375 
z
" id="DejaVuSans-63"/>
      <path d="M 9.421875 75.984375 
L 18.40625 75.984375 
L 18.40625 0 
L 9.421875 0 
z
" id="DejaVuSans-6c"/>
      <path d="M 30.609375 48.390625 
Q 23.390625 48.390625 19.1875 42.75 
Q 14.984375 37.109375 14.984375 27.296875 
Q 14.984375 17.484375 19.15625 11.84375 
Q 23.34375 6.203125 30.609375 6.203125 
Q 37.796875 6.203125 41.984375 11.859375 
Q 46.1875 17.53125 46.1875 27.296875 
Q 46.1875 37.015625 41.984375 42.703125 
Q 37.796875 48.390625 30.609375 48.390625 
z
M 30.609375 56 
Q 42.328125 56 49.015625 48.375 
Q 55.71875 40.765625 55.71875 27.296875 
Q 55.71875 13.875 49.015625 6.21875 
Q 42.328125 -1.421875 30.609375 -1.421875 
Q 18.84375 -1.421875 12.171875 6.21875 
Q 5.515625 13.875 5.515625 27.296875 
Q 5.515625 40.765625 12.171875 48.375 
Q 18.84375 56 30.609375 56 
z
" id="DejaVuSans-6f"/>
      <path d="M 8.5 21.578125 
L 8.5 54.6875 
L 17.484375 54.6875 
L 17.484375 21.921875 
Q 17.484375 14.15625 20.5 10.265625 
Q 23.53125 6.390625 29.59375 6.390625 
Q 36.859375 6.390625 41.078125 11.03125 
Q 45.3125 15.671875 45.3125 23.6875 
L 45.3125 54.6875 
L 54.296875 54.6875 
L 54.296875 0 
L 45.3125 0 
L 45.3125 8.40625 
Q 42.046875 3.421875 37.71875 1 
Q 33.40625 -1.421875 27.6875 -1.421875 
Q 18.265625 -1.421875 13.375 4.4375 
Q 8.5 10.296875 8.5 21.578125 
z
M 31.109375 56 
z
" id="DejaVuSans-75"/>
      <path d="M 45.40625 46.390625 
L 45.40625 75.984375 
L 54.390625 75.984375 
L 54.390625 0 
L 45.40625 0 
L 45.40625 8.203125 
Q 42.578125 3.328125 38.25 0.953125 
Q 33.9375 -1.421875 27.875 -1.421875 
Q 17.96875 -1.421875 11.734375 6.484375 
Q 5.515625 14.40625 5.515625 27.296875 
Q 5.515625 40.1875 11.734375 48.09375 
Q 17.96875 56 27.875 56 
Q 33.9375 56 38.25 53.625 
Q 42.578125 51.265625 45.40625 46.390625 
z
M 14.796875 27.296875 
Q 14.796875 17.390625 18.875 11.75 
Q 22.953125 6.109375 30.078125 6.109375 
Q 37.203125 6.109375 41.296875 11.75 
Q 45.40625 17.390625 45.40625 27.296875 
Q 45.40625 37.203125 41.296875 42.84375 
Q 37.203125 48.484375 30.078125 48.484375 
Q 22.953125 48.484375 18.875 42.84375 
Q 14.796875 37.203125 14.796875 27.296875 
z
" id="DejaVuSans-64"/>
      <path id="DejaVuSans-20"/>
      <path d="M 2.984375 54.6875 
L 12.5 54.6875 
L 29.59375 8.796875 
L 46.6875 54.6875 
L 56.203125 54.6875 
L 35.6875 0 
L 23.484375 0 
z
" id="DejaVuSans-76"/>
      <path d="M 56.203125 29.59375 
L 56.203125 25.203125 
L 14.890625 25.203125 
Q 15.484375 15.921875 20.484375 11.0625 
Q 25.484375 6.203125 34.421875 6.203125 
Q 39.59375 6.203125 44.453125 7.46875 
Q 49.3125 8.734375 54.109375 11.28125 
L 54.109375 2.78125 
Q 49.265625 0.734375 44.1875 -0.34375 
Q 39.109375 -1.421875 33.890625 -1.421875 
Q 20.796875 -1.421875 13.15625 6.1875 
Q 5.515625 13.8125 5.515625 26.8125 
Q 5.515625 40.234375 12.765625 48.109375 
Q 20.015625 56 32.328125 56 
Q 43.359375 56 49.78125 48.890625 
Q 56.203125 41.796875 56.203125 29.59375 
z
M 47.21875 32.234375 
Q 47.125 39.59375 43.09375 43.984375 
Q 39.0625 48.390625 32.421875 48.390625 
Q 24.90625 48.390625 20.390625 44.140625 
Q 15.875 39.890625 15.1875 32.171875 
z
" id="DejaVuSans-65"/>
      <path d="M 41.109375 46.296875 
Q 39.59375 47.171875 37.8125 47.578125 
Q 36.03125 48 33.890625 48 
Q 26.265625 48 22.1875 43.046875 
Q 18.109375 38.09375 18.109375 28.8125 
L 18.109375 0 
L 9.078125 0 
L 9.078125 54.6875 
L 18.109375 54.6875 
L 18.109375 46.1875 
Q 20.953125 51.171875 25.484375 53.578125 
Q 30.03125 56 36.53125 56 
Q 37.453125 56 38.578125 55.875 
Q 39.703125 55.765625 41.0625 55.515625 
z
" id="DejaVuSans-72"/>
     </defs>
     <g transform="translate(76.559363 233.022344)scale(0.25 -0.25)">
      <use xlink:href="#DejaVuSans-63"/>
      <use x="54.980469" xlink:href="#DejaVuSans-6c"/>
      <use x="82.763672" xlink:href="#DejaVuSans-6f"/>
      <use x="143.945312" xlink:href="#DejaVuSans-75"/>
      <use x="207.324219" xlink:href="#DejaVuSans-64"/>
      <use x="270.800781" xlink:href="#DejaVuSans-20"/>
      <use x="302.587891" xlink:href="#DejaVuSans-63"/>
      <use x="357.568359" xlink:href="#DejaVuSans-6f"/>
      <use x="418.75" xlink:href="#DejaVuSans-76"/>
      <use x="477.929688" xlink:href="#DejaVuSans-65"/>
      <use x="539.453125" xlink:href="#DejaVuSans-72"/>
     </g>
     <!-- mean -->
     <defs>
      <path d="M 52 44.1875 
Q 55.375 50.25 60.0625 53.125 
Q 64.75 56 71.09375 56 
Q 79.640625 56 84.28125 50.015625 
Q 88.921875 44.046875 88.921875 33.015625 
L 88.921875 0 
L 79.890625 0 
L 79.890625 32.71875 
Q 79.890625 40.578125 77.09375 44.375 
Q 74.3125 48.1875 68.609375 48.1875 
Q 61.625 48.1875 57.5625 43.546875 
Q 53.515625 38.921875 53.515625 30.90625 
L 53.515625 0 
L 44.484375 0 
L 44.484375 32.71875 
Q 44.484375 40.625 41.703125 44.40625 
Q 38.921875 48.1875 33.109375 48.1875 
Q 26.21875 48.1875 22.15625 43.53125 
Q 18.109375 38.875 18.109375 30.90625 
L 18.109375 0 
L 9.078125 0 
L 9.078125 54.6875 
L 18.109375 54.6875 
L 18.109375 46.1875 
Q 21.1875 51.21875 25.484375 53.609375 
Q 29.78125 56 35.6875 56 
Q 41.65625 56 45.828125 52.96875 
Q 50 49.953125 52 44.1875 
z
" id="DejaVuSans-6d"/>
      <path d="M 34.28125 27.484375 
Q 23.390625 27.484375 19.1875 25 
Q 14.984375 22.515625 14.984375 16.5 
Q 14.984375 11.71875 18.140625 8.90625 
Q 21.296875 6.109375 26.703125 6.109375 
Q 34.1875 6.109375 38.703125 11.40625 
Q 43.21875 16.703125 43.21875 25.484375 
L 43.21875 27.484375 
z
M 52.203125 31.203125 
L 52.203125 0 
L 43.21875 0 
L 43.21875 8.296875 
Q 40.140625 3.328125 35.546875 0.953125 
Q 30.953125 -1.421875 24.3125 -1.421875 
Q 15.921875 -1.421875 10.953125 3.296875 
Q 6 8.015625 6 15.921875 
Q 6 25.140625 12.171875 29.828125 
Q 18.359375 34.515625 30.609375 34.515625 
L 43.21875 34.515625 
L 43.21875 35.40625 
Q 43.21875 41.609375 39.140625 45 
Q 35.0625 48.390625 27.6875 48.390625 
Q 23 48.390625 18.546875 47.265625 
Q 14.109375 46.140625 10.015625 43.890625 
L 10.015625 52.203125 
Q 14.9375 54.109375 19.578125 55.046875 
Q 24.21875 56 28.609375 56 
Q 40.484375 56 46.34375 49.84375 
Q 52.203125 43.703125 52.203125 31.203125 
z
" id="DejaVuSans-61"/>
      <path d="M 54.890625 33.015625 
L 54.890625 0 
L 45.90625 0 
L 45.90625 32.71875 
Q 45.90625 40.484375 42.875 44.328125 
Q 39.84375 48.1875 33.796875 48.1875 
Q 26.515625 48.1875 22.3125 43.546875 
Q 18.109375 38.921875 18.109375 30.90625 
L 18.109375 0 
L 9.078125 0 
L 9.078125 54.6875 
L 18.109375 54.6875 
L 18.109375 46.1875 
Q 21.34375 51.125 25.703125 53.5625 
Q 30.078125 56 35.796875 56 
Q 45.21875 56 50.046875 50.171875 
Q 54.890625 44.34375 54.890625 33.015625 
z
" id="DejaVuSans-6e"/>
     </defs>
     <g transform="translate(113.684363 261.016875)scale(0.25 -0.25)">
      <use xlink:href="#DejaVuSans-6d"/>
      <use x="97.412109" xlink:href="#DejaVuSans-65"/>
      <use x="158.935547" xlink:href="#DejaVuSans-61"/>
      <use x="220.214844" xlink:href="#DejaVuSans-6e"/>
     </g>
    </g>
   </g>
   <g id="line2d_4">
    <path clip-path="url(#p7d203ef5cf)" d="M 43.959564 173.499987 
L 48.252381 171.735578 
L 52.545198 169.212026 
L 56.838015 165.75924 
L 61.130832 161.303275 
L 65.423649 155.951954 
L 69.716466 149.97813 
L 74.009283 143.626666 
L 78.3021 136.81207 
L 82.594918 128.937009 
L 86.887735 119.083064 
L 91.180552 106.611785 
L 95.473369 91.871859 
L 99.766186 76.512294 
L 104.059003 63.078298 
L 108.35182 54.043025 
L 112.644637 50.831845 
L 116.937454 53.386247 
L 121.230271 60.419129 
L 125.523088 70.081629 
L 129.815905 80.609742 
L 134.108722 90.67468 
L 138.401539 99.42591 
L 142.694356 106.383521 
L 146.987173 111.338564 
L 151.27999 114.321506 
L 155.572807 115.603828 
L 159.865624 115.664342 
L 164.158441 115.081121 
L 168.451258 114.372542 
L 172.744075 113.862381 
L 177.036892 113.640413 
L 181.329709 113.627923 
L 185.622526 113.690166 
L 189.915343 113.725151 
L 194.20816 113.701659 
L 198.500977 113.667318 
L 202.793794 113.757137 
L 207.086611 114.207773 
L 211.379428 115.353357 
L 215.672245 117.571114 
L 219.965062 121.168112 
L 224.257879 126.243226 
L 228.550696 132.591899 
L 232.843513 139.716261 
L 237.13633 146.953911 
L 241.429147 153.672172 
L 245.721964 159.435766 
L 250.014781 164.074281 
L 254.307598 167.639213 
" style="fill:none;stroke:#cc79a7;stroke-linecap:square;stroke-width:2;"/>
   </g>
   <g id="line2d_5">
    <path clip-path="url(#p7d203ef5cf)" d="M 43.959564 162.547639 
L 48.252381 160.196827 
L 52.545198 157.536406 
L 56.838015 154.534054 
L 61.130832 151.175494 
L 65.423649 147.460903 
L 69.716466 143.378015 
L 74.009283 138.85701 
L 78.3021 133.735602 
L 82.594918 127.777395 
L 86.887735 120.773295 
L 91.180552 112.710288 
L 95.473369 103.93534 
L 99.766186 95.213816 
L 104.059003 87.612333 
L 108.35182 82.219875 
L 112.644637 79.81199 
L 116.937454 80.602513 
L 121.230271 84.188028 
L 125.523088 89.696686 
L 129.815905 96.062921 
L 134.108722 102.310728 
L 138.401539 107.749169 
L 142.694356 112.03885 
L 146.987173 115.143209 
L 151.27999 117.212871 
L 155.572807 118.460479 
L 159.865624 119.071545 
L 164.158441 119.171853 
L 168.451258 118.844113 
L 172.744075 118.167334 
L 177.036892 117.249171 
L 181.329709 116.232933 
L 185.622526 115.279 
L 189.915343 114.534856 
L 194.20816 114.112341 
L 198.500977 114.084064 
L 202.793794 114.497624 
L 207.086611 115.39457 
L 211.379428 116.818657 
L 215.672245 118.806775 
L 219.965062 121.369549 
L 224.257879 124.47627 
L 228.550696 128.054762 
L 232.843513 132.005171 
L 237.13633 136.217704 
L 241.429147 140.584789 
L 245.721964 145.005411 
L 250.014781 149.385479 
L 254.307598 153.637983 
" style="fill:none;stroke:#424243;stroke-linecap:square;stroke-width:2;"/>
   </g>
   <g id="patch_3">
    <path d="M 33.442163 183.67 
L 264.825 183.67 
" style="fill:none;stroke:#000000;stroke-linecap:square;stroke-linejoin:miter;stroke-width:0.8;"/>
   </g>
  </g>
 </g>
 <defs>
  <clipPath id="p7d203ef5cf">
   <rect height="160.495" width="231.382837" x="33.442163" y="23.175"/>
  </clipPath>
 </defs>
</svg>
