<?xml version="1.0" encoding="utf-8" standalone="no"?>
<!DOCTYPE svg PUBLIC "-//W3C//DTD SVG 1.1//EN"
  "http://www.w3.org/Graphics/SVG/1.1/DTD/svg11.dtd">
<!-- Created with matplotlib (http://matplotlib.org/) -->
<svg height="288pt" version="1.1" viewBox="0 0 288 288" width="288pt" xmlns="http://www.w3.org/2000/svg" xmlns:xlink="http://www.w3.org/1999/xlink">
 <defs>
  <style type="text/css">
*{stroke-linecap:butt;stroke-linejoin:round;}
  </style>
 </defs>
 <g id="figure_1">
  <g id="patch_1">
   <path d="M 0 288 
L 288 288 
L 288 0 
L 0 0 
z
" style="fill:#ffffff;"/>
  </g>
  <g id="axes_1">
   <g id="patch_2">
    <path d="M 37.330469 183.67 
L 250.669531 183.67 
L 250.669531 23.175 
L 37.330469 23.175 
z
" style="fill:#ffffff;"/>
   </g>
   <g id="PolyCollection_1">
    <defs>
     <path d="M 47.027699 -111.625227 
L 47.027699 -139.326939 
L 50.985752 -141.385574 
L 54.943805 -141.32064 
L 58.901858 -140.888012 
L 62.859911 -141.963194 
L 66.817964 -145.727611 
L 70.776018 -152.598118 
L 74.734071 -162.55903 
L 78.692124 -175.36429 
L 82.650177 -190.460523 
L 86.60823 -206.845728 
L 90.566283 -223.101415 
L 94.524336 -237.628015 
L 98.482389 -248.934109 
L 102.440442 -255.832512 
L 106.398495 -257.529773 
L 110.356549 -253.692041 
L 114.314602 -244.539869 
L 118.272655 -230.927769 
L 122.230708 -214.302537 
L 126.188761 -196.462555 
L 130.146814 -179.1612 
L 134.104867 -163.730077 
L 138.06292 -150.905226 
L 142.020973 -140.889882 
L 145.979027 -133.527638 
L 149.93708 -128.445802 
L 153.895133 -125.138858 
L 157.853186 -123.046542 
L 161.811239 -121.658652 
L 165.769292 -120.611324 
L 169.727345 -119.721861 
L 173.685398 -118.951226 
L 177.643451 -118.329325 
L 181.601505 -117.888468 
L 185.559558 -117.630578 
L 189.517611 -117.529227 
L 193.475664 -117.553732 
L 197.433717 -117.695621 
L 201.39177 -117.975023 
L 205.349823 -118.415712 
L 209.307876 -119.003149 
L 213.265929 -119.658818 
L 217.223982 -120.254589 
L 221.182036 -120.657662 
L 225.140089 -120.772023 
L 229.098142 -120.554223 
L 233.056195 -120.013449 
L 237.014248 -119.213325 
L 240.972301 -118.267605 
L 240.972301 -111.625227 
L 240.972301 -111.625227 
L 237.014248 -111.625227 
L 233.056195 -111.625227 
L 229.098142 -111.625227 
L 225.140089 -111.625227 
L 221.182036 -111.625227 
L 217.223982 -111.625227 
L 213.265929 -111.625227 
L 209.307876 -111.625227 
L 205.349823 -111.625227 
L 201.39177 -111.625227 
L 197.433717 -111.625227 
L 193.475664 -111.625227 
L 189.517611 -111.625227 
L 185.559558 -111.625227 
L 181.601505 -111.625227 
L 177.643451 -111.625227 
L 173.685398 -111.625227 
L 169.727345 -111.625227 
L 165.769292 -111.625227 
L 161.811239 -111.625227 
L 157.853186 -111.625227 
L 153.895133 -111.625227 
L 149.93708 -111.625227 
L 145.979027 -111.625227 
L 142.020973 -111.625227 
L 138.06292 -111.625227 
L 134.104867 -111.625227 
L 130.146814 -111.625227 
L 126.188761 -111.625227 
L 122.230708 -111.625227 
L 118.272655 -111.625227 
L 114.314602 -111.625227 
L 110.356549 -111.625227 
L 106.398495 -111.625227 
L 102.440442 -111.625227 
L 98.482389 -111.625227 
L 94.524336 -111.625227 
L 90.566283 -111.625227 
L 86.60823 -111.625227 
L 82.650177 -111.625227 
L 78.692124 -111.625227 
L 74.734071 -111.625227 
L 70.776018 -111.625227 
L 66.817964 -111.625227 
L 62.859911 -111.625227 
L 58.901858 -111.625227 
L 54.943805 -111.625227 
L 50.985752 -111.625227 
L 47.027699 -111.625227 
z
" id="m678b45b90c" style="stroke:#cc79a7;stroke-opacity:0.3;"/>
    </defs>
    <g clip-path="url(#p95be9ffc68)">
     <use style="fill:#cc79a7;fill-opacity:0.3;stroke:#cc79a7;stroke-opacity:0.3;" x="0" xlink:href="#m678b45b90c" y="288"/>
    </g>
   </g>
   <g id="PolyCollection_2">
    <defs>
     <path d="M 47.027699 -111.625227 
L 47.027699 -144.115803 
L 50.985752 -151.543179 
L 54.943805 -158.244164 
L 58.901858 -164.004772 
L 62.859911 -168.978636 
L 66.817964 -173.567016 
L 70.776018 -178.210361 
L 74.734071 -183.197293 
L 78.692124 -188.568523 
L 82.650177 -194.128028 
L 86.60823 -199.518517 
L 90.566283 -204.30514 
L 94.524336 -208.037898 
L 98.482389 -210.298392 
L 102.440442 -210.749378 
L 106.398495 -209.190515 
L 110.356549 -205.602336 
L 114.314602 -200.15707 
L 118.272655 -193.192103 
L 122.230708 -185.160278 
L 126.188761 -176.573602 
L 130.146814 -167.946218 
L 134.104867 -159.736335 
L 138.06292 -152.293786 
L 142.020973 -145.829548 
L 145.979027 -140.41989 
L 149.93708 -136.03989 
L 153.895133 -132.605095 
L 157.853186 -130.000877 
L 161.811239 -128.09471 
L 165.769292 -126.741591 
L 169.727345 -125.795118 
L 173.685398 -125.127116 
L 177.643451 -124.647897 
L 181.601505 -124.316224 
L 185.559558 -124.133591 
L 189.517611 -124.125736 
L 193.475664 -124.319156 
L 197.433717 -124.720403 
L 201.39177 -125.303176 
L 205.349823 -126.005085 
L 209.307876 -126.733317 
L 213.265929 -127.376537 
L 217.223982 -127.82017 
L 221.182036 -127.963253 
L 225.140089 -127.735606 
L 229.098142 -127.112359 
L 233.056195 -126.120571 
L 237.014248 -124.833326 
L 240.972301 -123.35186 
L 240.972301 -111.625227 
L 240.972301 -111.625227 
L 237.014248 -111.625227 
L 233.056195 -111.625227 
L 229.098142 -111.625227 
L 225.140089 -111.625227 
L 221.182036 -111.625227 
L 217.223982 -111.625227 
L 213.265929 -111.625227 
L 209.307876 -111.625227 
L 205.349823 -111.625227 
L 201.39177 -111.625227 
L 197.433717 -111.625227 
L 193.475664 -111.625227 
L 189.517611 -111.625227 
L 185.559558 -111.625227 
L 181.601505 -111.625227 
L 177.643451 -111.625227 
L 173.685398 -111.625227 
L 169.727345 -111.625227 
L 165.769292 -111.625227 
L 161.811239 -111.625227 
L 157.853186 -111.625227 
L 153.895133 -111.625227 
L 149.93708 -111.625227 
L 145.979027 -111.625227 
L 142.020973 -111.625227 
L 138.06292 -111.625227 
L 134.104867 -111.625227 
L 130.146814 -111.625227 
L 126.188761 -111.625227 
L 122.230708 -111.625227 
L 118.272655 -111.625227 
L 114.314602 -111.625227 
L 110.356549 -111.625227 
L 106.398495 -111.625227 
L 102.440442 -111.625227 
L 98.482389 -111.625227 
L 94.524336 -111.625227 
L 90.566283 -111.625227 
L 86.60823 -111.625227 
L 82.650177 -111.625227 
L 78.692124 -111.625227 
L 74.734071 -111.625227 
L 70.776018 -111.625227 
L 66.817964 -111.625227 
L 62.859911 -111.625227 
L 58.901858 -111.625227 
L 54.943805 -111.625227 
L 50.985752 -111.625227 
L 47.027699 -111.625227 
z
" id="m16e7de8192" style="stroke:#424243;stroke-opacity:0.3;"/>
    </defs>
    <g clip-path="url(#p95be9ffc68)">
     <use style="fill:#424243;fill-opacity:0.3;stroke:#424243;stroke-opacity:0.3;" x="0" xlink:href="#m16e7de8192" y="288"/>
    </g>
   </g>
   <g id="matplotlib.axis_1">
    <g id="xtick_1">
     <g id="line2d_1">
      <defs>
       <path d="M 0 0 
L 0 3.5 
" id="mb5089d9be9" style="stroke:#000000;stroke-width:0.8;"/>
      </defs>
      <g>
       <use style="stroke:#000000;stroke-width:0.8;" x="47.027699" xlink:href="#mb5089d9be9" y="183.67"/>
      </g>
     </g>
     <g id="text_1">
      <!-- 0 -->
      <defs>
       <path d="M 31.78125 66.40625 
Q 24.171875 66.40625 20.328125 58.90625 
Q 16.5 51.421875 16.5 36.375 
Q 16.5 21.390625 20.328125 13.890625 
Q 24.171875 6.390625 31.78125 6.390625 
Q 39.453125 6.390625 43.28125 13.890625 
Q 47.125 21.390625 47.125 36.375 
Q 47.125 51.421875 43.28125 58.90625 
Q 39.453125 66.40625 31.78125 66.40625 
z
M 31.78125 74.21875 
Q 44.046875 74.21875 50.515625 64.515625 
Q 56.984375 54.828125 56.984375 36.375 
Q 56.984375 17.96875 50.515625 8.265625 
Q 44.046875 -1.421875 31.78125 -1.421875 
Q 19.53125 -1.421875 13.0625 8.265625 
Q 6.59375 17.96875 6.59375 36.375 
Q 6.59375 54.828125 13.0625 64.515625 
Q 19.53125 74.21875 31.78125 74.21875 
z
" id="DejaVuSans-30"/>
      </defs>
      <g transform="translate(40.665199 205.866875)scale(0.2 -0.2)">
       <use xlink:href="#DejaVuSans-30"/>
      </g>
     </g>
    </g>
    <g id="xtick_2">
     <g id="line2d_2">
      <g>
       <use style="stroke:#000000;stroke-width:0.8;" x="131.344325" xlink:href="#mb5089d9be9" y="183.67"/>
      </g>
     </g>
     <g id="text_2">
      <!-- 20 -->
      <defs>
       <path d="M 19.1875 8.296875 
L 53.609375 8.296875 
L 53.609375 0 
L 7.328125 0 
L 7.328125 8.296875 
Q 12.9375 14.109375 22.625 23.890625 
Q 32.328125 33.6875 34.8125 36.53125 
Q 39.546875 41.84375 41.421875 45.53125 
Q 43.3125 49.21875 43.3125 52.78125 
Q 43.3125 58.59375 39.234375 62.25 
Q 35.15625 65.921875 28.609375 65.921875 
Q 23.96875 65.921875 18.8125 64.3125 
Q 13.671875 62.703125 7.8125 59.421875 
L 7.8125 69.390625 
Q 13.765625 71.78125 18.9375 73 
Q 24.125 74.21875 28.421875 74.21875 
Q 39.75 74.21875 46.484375 68.546875 
Q 53.21875 62.890625 53.21875 53.421875 
Q 53.21875 48.921875 51.53125 44.890625 
Q 49.859375 40.875 45.40625 35.40625 
Q 44.1875 33.984375 37.640625 27.21875 
Q 31.109375 20.453125 19.1875 8.296875 
z
" id="DejaVuSans-32"/>
      </defs>
      <g transform="translate(118.619325 205.866875)scale(0.2 -0.2)">
       <use xlink:href="#DejaVuSans-32"/>
       <use x="63.623047" xlink:href="#DejaVuSans-30"/>
      </g>
     </g>
    </g>
    <g id="xtick_3">
     <g id="line2d_3">
      <g>
       <use style="stroke:#000000;stroke-width:0.8;" x="215.660952" xlink:href="#mb5089d9be9" y="183.67"/>
      </g>
     </g>
     <g id="text_3">
      <!-- 40 -->
      <defs>
       <path d="M 37.796875 64.3125 
L 12.890625 25.390625 
L 37.796875 25.390625 
z
M 35.203125 72.90625 
L 47.609375 72.90625 
L 47.609375 25.390625 
L 58.015625 25.390625 
L 58.015625 17.1875 
L 47.609375 17.1875 
L 47.609375 0 
L 37.796875 0 
L 37.796875 17.1875 
L 4.890625 17.1875 
L 4.890625 26.703125 
z
" id="DejaVuSans-34"/>
      </defs>
      <g transform="translate(202.935952 205.866875)scale(0.2 -0.2)">
       <use xlink:href="#DejaVuSans-34"/>
       <use x="63.623047" xlink:href="#DejaVuSans-30"/>
      </g>
     </g>
    </g>
    <g id="text_4">
     <!-- leaf area index -->
     <defs>
      <path d="M 9.421875 75.984375 
L 18.40625 75.984375 
L 18.40625 0 
L 9.421875 0 
z
" id="DejaVuSans-6c"/>
      <path d="M 56.203125 29.59375 
L 56.203125 25.203125 
L 14.890625 25.203125 
Q 15.484375 15.921875 20.484375 11.0625 
Q 25.484375 6.203125 34.421875 6.203125 
Q 39.59375 6.203125 44.453125 7.46875 
Q 49.3125 8.734375 54.109375 11.28125 
L 54.109375 2.78125 
Q 49.265625 0.734375 44.1875 -0.34375 
Q 39.109375 -1.421875 33.890625 -1.421875 
Q 20.796875 -1.421875 13.15625 6.1875 
Q 5.515625 13.8125 5.515625 26.8125 
Q 5.515625 40.234375 12.765625 48.109375 
Q 20.015625 56 32.328125 56 
Q 43.359375 56 49.78125 48.890625 
Q 56.203125 41.796875 56.203125 29.59375 
z
M 47.21875 32.234375 
Q 47.125 39.59375 43.09375 43.984375 
Q 39.0625 48.390625 32.421875 48.390625 
Q 24.90625 48.390625 20.390625 44.140625 
Q 15.875 39.890625 15.1875 32.171875 
z
" id="DejaVuSans-65"/>
      <path d="M 34.28125 27.484375 
Q 23.390625 27.484375 19.1875 25 
Q 14.984375 22.515625 14.984375 16.5 
Q 14.984375 11.71875 18.140625 8.90625 
Q 21.296875 6.109375 26.703125 6.109375 
Q 34.1875 6.109375 38.703125 11.40625 
Q 43.21875 16.703125 43.21875 25.484375 
L 43.21875 27.484375 
z
M 52.203125 31.203125 
L 52.203125 0 
L 43.21875 0 
L 43.21875 8.296875 
Q 40.140625 3.328125 35.546875 0.953125 
Q 30.953125 -1.421875 24.3125 -1.421875 
Q 15.921875 -1.421875 10.953125 3.296875 
Q 6 8.015625 6 15.921875 
Q 6 25.140625 12.171875 29.828125 
Q 18.359375 34.515625 30.609375 34.515625 
L 43.21875 34.515625 
L 43.21875 35.40625 
Q 43.21875 41.609375 39.140625 45 
Q 35.0625 48.390625 27.6875 48.390625 
Q 23 48.390625 18.546875 47.265625 
Q 14.109375 46.140625 10.015625 43.890625 
L 10.015625 52.203125 
Q 14.9375 54.109375 19.578125 55.046875 
Q 24.21875 56 28.609375 56 
Q 40.484375 56 46.34375 49.84375 
Q 52.203125 43.703125 52.203125 31.203125 
z
" id="DejaVuSans-61"/>
      <path d="M 37.109375 75.984375 
L 37.109375 68.5 
L 28.515625 68.5 
Q 23.6875 68.5 21.796875 66.546875 
Q 19.921875 64.59375 19.921875 59.515625 
L 19.921875 54.6875 
L 34.71875 54.6875 
L 34.71875 47.703125 
L 19.921875 47.703125 
L 19.921875 0 
L 10.890625 0 
L 10.890625 47.703125 
L 2.296875 47.703125 
L 2.296875 54.6875 
L 10.890625 54.6875 
L 10.890625 58.5 
Q 10.890625 67.625 15.140625 71.796875 
Q 19.390625 75.984375 28.609375 75.984375 
z
" id="DejaVuSans-66"/>
      <path id="DejaVuSans-20"/>
      <path d="M 41.109375 46.296875 
Q 39.59375 47.171875 37.8125 47.578125 
Q 36.03125 48 33.890625 48 
Q 26.265625 48 22.1875 43.046875 
Q 18.109375 38.09375 18.109375 28.8125 
L 18.109375 0 
L 9.078125 0 
L 9.078125 54.6875 
L 18.109375 54.6875 
L 18.109375 46.1875 
Q 20.953125 51.171875 25.484375 53.578125 
Q 30.03125 56 36.53125 56 
Q 37.453125 56 38.578125 55.875 
Q 39.703125 55.765625 41.0625 55.515625 
z
" id="DejaVuSans-72"/>
      <path d="M 9.421875 54.6875 
L 18.40625 54.6875 
L 18.40625 0 
L 9.421875 0 
z
M 9.421875 75.984375 
L 18.40625 75.984375 
L 18.40625 64.59375 
L 9.421875 64.59375 
z
" id="DejaVuSans-69"/>
      <path d="M 54.890625 33.015625 
L 54.890625 0 
L 45.90625 0 
L 45.90625 32.71875 
Q 45.90625 40.484375 42.875 44.328125 
Q 39.84375 48.1875 33.796875 48.1875 
Q 26.515625 48.1875 22.3125 43.546875 
Q 18.109375 38.921875 18.109375 30.90625 
L 18.109375 0 
L 9.078125 0 
L 9.078125 54.6875 
L 18.109375 54.6875 
L 18.109375 46.1875 
Q 21.34375 51.125 25.703125 53.5625 
Q 30.078125 56 35.796875 56 
Q 45.21875 56 50.046875 50.171875 
Q 54.890625 44.34375 54.890625 33.015625 
z
" id="DejaVuSans-6e"/>
      <path d="M 45.40625 46.390625 
L 45.40625 75.984375 
L 54.390625 75.984375 
L 54.390625 0 
L 45.40625 0 
L 45.40625 8.203125 
Q 42.578125 3.328125 38.25 0.953125 
Q 33.9375 -1.421875 27.875 -1.421875 
Q 17.96875 -1.421875 11.734375 6.484375 
Q 5.515625 14.40625 5.515625 27.296875 
Q 5.515625 40.1875 11.734375 48.09375 
Q 17.96875 56 27.875 56 
Q 33.9375 56 38.25 53.625 
Q 42.578125 51.265625 45.40625 46.390625 
z
M 14.796875 27.296875 
Q 14.796875 17.390625 18.875 11.75 
Q 22.953125 6.109375 30.078125 6.109375 
Q 37.203125 6.109375 41.296875 11.75 
Q 45.40625 17.390625 45.40625 27.296875 
Q 45.40625 37.203125 41.296875 42.84375 
Q 37.203125 48.484375 30.078125 48.484375 
Q 22.953125 48.484375 18.875 42.84375 
Q 14.796875 37.203125 14.796875 27.296875 
z
" id="DejaVuSans-64"/>
      <path d="M 54.890625 54.6875 
L 35.109375 28.078125 
L 55.90625 0 
L 45.3125 0 
L 29.390625 21.484375 
L 13.484375 0 
L 2.875 0 
L 24.125 28.609375 
L 4.6875 54.6875 
L 15.28125 54.6875 
L 29.78125 35.203125 
L 44.28125 54.6875 
z
" id="DejaVuSans-78"/>
     </defs>
     <g transform="translate(50.265625 233.022344)scale(0.25 -0.25)">
      <use xlink:href="#DejaVuSans-6c"/>
      <use x="27.783203" xlink:href="#DejaVuSans-65"/>
      <use x="89.306641" xlink:href="#DejaVuSans-61"/>
      <use x="150.585938" xlink:href="#DejaVuSans-66"/>
      <use x="185.791016" xlink:href="#DejaVuSans-20"/>
      <use x="217.578125" xlink:href="#DejaVuSans-61"/>
      <use x="278.857422" xlink:href="#DejaVuSans-72"/>
      <use x="319.939453" xlink:href="#DejaVuSans-65"/>
      <use x="381.462891" xlink:href="#DejaVuSans-61"/>
      <use x="442.742188" xlink:href="#DejaVuSans-20"/>
      <use x="474.529297" xlink:href="#DejaVuSans-69"/>
      <use x="502.3125" xlink:href="#DejaVuSans-6e"/>
      <use x="565.691406" xlink:href="#DejaVuSans-64"/>
      <use x="629.167969" xlink:href="#DejaVuSans-65"/>
      <use x="690.675781" xlink:href="#DejaVuSans-78"/>
     </g>
     <!-- mean -->
     <defs>
      <path d="M 52 44.1875 
Q 55.375 50.25 60.0625 53.125 
Q 64.75 56 71.09375 56 
Q 79.640625 56 84.28125 50.015625 
Q 88.921875 44.046875 88.921875 33.015625 
L 88.921875 0 
L 79.890625 0 
L 79.890625 32.71875 
Q 79.890625 40.578125 77.09375 44.375 
Q 74.3125 48.1875 68.609375 48.1875 
Q 61.625 48.1875 57.5625 43.546875 
Q 53.515625 38.921875 53.515625 30.90625 
L 53.515625 0 
L 44.484375 0 
L 44.484375 32.71875 
Q 44.484375 40.625 41.703125 44.40625 
Q 38.921875 48.1875 33.109375 48.1875 
Q 26.21875 48.1875 22.15625 43.53125 
Q 18.109375 38.875 18.109375 30.90625 
L 18.109375 0 
L 9.078125 0 
L 9.078125 54.6875 
L 18.109375 54.6875 
L 18.109375 46.1875 
Q 21.1875 51.21875 25.484375 53.609375 
Q 29.78125 56 35.6875 56 
Q 41.65625 56 45.828125 52.96875 
Q 50 49.953125 52 44.1875 
z
" id="DejaVuSans-6d"/>
     </defs>
     <g transform="translate(108.550781 261.016875)scale(0.25 -0.25)">
      <use xlink:href="#DejaVuSans-6d"/>
      <use x="97.412109" xlink:href="#DejaVuSans-65"/>
      <use x="158.935547" xlink:href="#DejaVuSans-61"/>
      <use x="220.214844" xlink:href="#DejaVuSans-6e"/>
     </g>
    </g>
   </g>
   <g id="line2d_4">
    <path clip-path="url(#p95be9ffc68)" d="M 47.027699 148.673061 
L 50.985752 146.614426 
L 54.943805 146.67936 
L 58.901858 147.111988 
L 62.859911 146.036806 
L 66.817964 142.272389 
L 70.776018 135.401882 
L 74.734071 125.44097 
L 78.692124 112.63571 
L 82.650177 97.539477 
L 86.60823 81.154272 
L 90.566283 64.898585 
L 94.524336 50.371985 
L 98.482389 39.065891 
L 102.440442 32.167488 
L 106.398495 30.470227 
L 110.356549 34.307959 
L 114.314602 43.460131 
L 118.272655 57.072231 
L 122.230708 73.697463 
L 126.188761 91.537445 
L 130.146814 108.8388 
L 134.104867 124.269923 
L 138.06292 137.094774 
L 142.020973 147.110118 
L 145.979027 154.472362 
L 149.93708 159.554198 
L 153.895133 162.861142 
L 157.853186 164.953458 
L 161.811239 166.341348 
L 165.769292 167.388676 
L 169.727345 168.278139 
L 173.685398 169.048774 
L 177.643451 169.670675 
L 181.601505 170.111532 
L 185.559558 170.369422 
L 189.517611 170.470773 
L 193.475664 170.446268 
L 197.433717 170.304379 
L 201.39177 170.024977 
L 205.349823 169.584288 
L 209.307876 168.996851 
L 213.265929 168.341182 
L 217.223982 167.745411 
L 221.182036 167.342338 
L 225.140089 167.227977 
L 229.098142 167.445777 
L 233.056195 167.986551 
L 237.014248 168.786675 
L 240.972301 169.732395 
" style="fill:none;stroke:#cc79a7;stroke-linecap:square;stroke-width:2;"/>
   </g>
   <g id="line2d_5">
    <path clip-path="url(#p95be9ffc68)" d="M 47.027699 143.884197 
L 50.985752 136.456821 
L 54.943805 129.755836 
L 58.901858 123.995228 
L 62.859911 119.021364 
L 66.817964 114.432984 
L 70.776018 109.789639 
L 74.734071 104.802707 
L 78.692124 99.431477 
L 82.650177 93.871972 
L 86.60823 88.481483 
L 90.566283 83.69486 
L 94.524336 79.962102 
L 98.482389 77.701608 
L 102.440442 77.250622 
L 106.398495 78.809485 
L 110.356549 82.397664 
L 114.314602 87.84293 
L 118.272655 94.807897 
L 122.230708 102.839722 
L 126.188761 111.426398 
L 130.146814 120.053782 
L 134.104867 128.263665 
L 138.06292 135.706214 
L 142.020973 142.170452 
L 145.979027 147.58011 
L 149.93708 151.96011 
L 153.895133 155.394905 
L 157.853186 157.999123 
L 161.811239 159.90529 
L 165.769292 161.258409 
L 169.727345 162.204882 
L 173.685398 162.872884 
L 177.643451 163.352103 
L 181.601505 163.683776 
L 185.559558 163.866409 
L 189.517611 163.874264 
L 193.475664 163.680844 
L 197.433717 163.279597 
L 201.39177 162.696824 
L 205.349823 161.994915 
L 209.307876 161.266683 
L 213.265929 160.623463 
L 217.223982 160.17983 
L 221.182036 160.036747 
L 225.140089 160.264394 
L 229.098142 160.887641 
L 233.056195 161.879429 
L 237.014248 163.166674 
L 240.972301 164.64814 
" style="fill:none;stroke:#424243;stroke-linecap:square;stroke-width:2;"/>
   </g>
   <g id="patch_3">
    <path d="M 37.330469 183.67 
L 250.669531 183.67 
" style="fill:none;stroke:#000000;stroke-linecap:square;stroke-linejoin:miter;stroke-width:0.8;"/>
   </g>
  </g>
 </g>
 <defs>
  <clipPath id="p95be9ffc68">
   <rect height="160.495" width="213.339062" x="37.330469" y="23.175"/>
  </clipPath>
 </defs>
</svg>
