<?xml version="1.0" encoding="utf-8" standalone="no"?>
<!DOCTYPE svg PUBLIC "-//W3C//DTD SVG 1.1//EN"
  "http://www.w3.org/Graphics/SVG/1.1/DTD/svg11.dtd">
<!-- Created with matplotlib (http://matplotlib.org/) -->
<svg height="288pt" version="1.1" viewBox="0 0 288 288" width="288pt" xmlns="http://www.w3.org/2000/svg" xmlns:xlink="http://www.w3.org/1999/xlink">
 <defs>
  <style type="text/css">
*{stroke-linecap:butt;stroke-linejoin:round;}
  </style>
 </defs>
 <g id="figure_1">
  <g id="patch_1">
   <path d="M 0 288 
L 288 288 
L 288 0 
L 0 0 
z
" style="fill:#ffffff;"/>
  </g>
  <g id="axes_1">
   <g id="patch_2">
    <path d="M 59.89375 183.67 
L 228.10625 183.67 
L 228.10625 23.175 
L 59.89375 23.175 
z
" style="fill:#ffffff;"/>
   </g>
   <g id="PolyCollection_1">
    <defs>
     <path d="M 67.539773 -111.625227 
L 67.539773 -112.024726 
L 70.660598 -112.308174 
L 73.781424 -112.707965 
L 76.90225 -113.243056 
L 80.023075 -113.941116 
L 83.143901 -114.849758 
L 86.264726 -116.04092 
L 89.385552 -117.595448 
L 92.506378 -119.566748 
L 95.627203 -121.950709 
L 98.748029 -124.703259 
L 101.868854 -127.811583 
L 104.98968 -131.365606 
L 108.110506 -135.571168 
L 111.231331 -140.712445 
L 114.352157 -147.112323 
L 117.472982 -155.081829 
L 120.593808 -164.784734 
L 123.714634 -176.020086 
L 126.835459 -188.090141 
L 129.956285 -199.917586 
L 133.07711 -210.335432 
L 136.197936 -218.316555 
L 139.318762 -223.081763 
L 142.439587 -224.244123 
L 145.560413 -222.029025 
L 148.681238 -217.327372 
L 151.802064 -211.376137 
L 154.92289 -205.2337 
L 158.043715 -199.438241 
L 161.164541 -194.036302 
L 164.285366 -188.831035 
L 167.406192 -183.604105 
L 170.527018 -178.218073 
L 173.647843 -172.655867 
L 176.768669 -167.045352 
L 179.889494 -161.632005 
L 183.01032 -156.671105 
L 186.131146 -152.318898 
L 189.251971 -148.628973 
L 192.372797 -145.630955 
L 195.493622 -143.362528 
L 198.614448 -141.798854 
L 201.735274 -140.767513 
L 204.856099 -139.95867 
L 207.976925 -139.030177 
L 211.09775 -137.71524 
L 214.218576 -135.86319 
L 217.339402 -133.426821 
L 220.460227 -130.446892 
L 220.460227 -111.625227 
L 220.460227 -111.625227 
L 217.339402 -111.625227 
L 214.218576 -111.625227 
L 211.09775 -111.625227 
L 207.976925 -111.625227 
L 204.856099 -111.625227 
L 201.735274 -111.625227 
L 198.614448 -111.625227 
L 195.493622 -111.625227 
L 192.372797 -111.625227 
L 189.251971 -111.625227 
L 186.131146 -111.625227 
L 183.01032 -111.625227 
L 179.889494 -111.625227 
L 176.768669 -111.625227 
L 173.647843 -111.625227 
L 170.527018 -111.625227 
L 167.406192 -111.625227 
L 164.285366 -111.625227 
L 161.164541 -111.625227 
L 158.043715 -111.625227 
L 154.92289 -111.625227 
L 151.802064 -111.625227 
L 148.681238 -111.625227 
L 145.560413 -111.625227 
L 142.439587 -111.625227 
L 139.318762 -111.625227 
L 136.197936 -111.625227 
L 133.07711 -111.625227 
L 129.956285 -111.625227 
L 126.835459 -111.625227 
L 123.714634 -111.625227 
L 120.593808 -111.625227 
L 117.472982 -111.625227 
L 114.352157 -111.625227 
L 111.231331 -111.625227 
L 108.110506 -111.625227 
L 104.98968 -111.625227 
L 101.868854 -111.625227 
L 98.748029 -111.625227 
L 95.627203 -111.625227 
L 92.506378 -111.625227 
L 89.385552 -111.625227 
L 86.264726 -111.625227 
L 83.143901 -111.625227 
L 80.023075 -111.625227 
L 76.90225 -111.625227 
L 73.781424 -111.625227 
L 70.660598 -111.625227 
L 67.539773 -111.625227 
z
" id="m39366c7bb0" style="stroke:#cc79a7;stroke-opacity:0.3;"/>
    </defs>
    <g clip-path="url(#p8960d8ff83)">
     <use style="fill:#cc79a7;fill-opacity:0.3;stroke:#cc79a7;stroke-opacity:0.3;" x="0" xlink:href="#m39366c7bb0" y="288"/>
    </g>
   </g>
   <g id="PolyCollection_2">
    <defs>
     <path d="M 67.539773 -111.625227 
L 67.539773 -121.149242 
L 70.660598 -122.764217 
L 73.781424 -124.651693 
L 76.90225 -126.851604 
L 80.023075 -129.38403 
L 83.143901 -132.220462 
L 86.264726 -135.267509 
L 89.385552 -138.387354 
L 92.506378 -141.453239 
L 95.627203 -144.406832 
L 98.748029 -147.280563 
L 101.868854 -150.178784 
L 104.98968 -153.244408 
L 108.110506 -156.636641 
L 111.231331 -160.51693 
L 114.352157 -165.022394 
L 117.472982 -170.217739 
L 120.593808 -176.039097 
L 123.714634 -182.254763 
L 126.835459 -188.467573 
L 129.956285 -194.173356 
L 133.07711 -198.865758 
L 136.197936 -202.152173 
L 139.318762 -203.841383 
L 142.439587 -203.979106 
L 145.560413 -202.820711 
L 148.681238 -200.740638 
L 151.802064 -198.103431 
L 154.92289 -195.149869 
L 158.043715 -191.946716 
L 161.164541 -188.409235 
L 164.285366 -184.374357 
L 167.406192 -179.699695 
L 170.527018 -174.362877 
L 173.647843 -168.519939 
L 176.768669 -162.47995 
L 179.889494 -156.595178 
L 183.01032 -151.12773 
L 186.131146 -146.176079 
L 189.251971 -141.700643 
L 192.372797 -137.612993 
L 195.493622 -133.854781 
L 198.614448 -130.420039 
L 201.735274 -127.331343 
L 204.856099 -124.608138 
L 207.976925 -122.250393 
L 211.09775 -120.236381 
L 214.218576 -118.527514 
L 217.339402 -117.078041 
L 220.460227 -115.846975 
L 220.460227 -111.625227 
L 220.460227 -111.625227 
L 217.339402 -111.625227 
L 214.218576 -111.625227 
L 211.09775 -111.625227 
L 207.976925 -111.625227 
L 204.856099 -111.625227 
L 201.735274 -111.625227 
L 198.614448 -111.625227 
L 195.493622 -111.625227 
L 192.372797 -111.625227 
L 189.251971 -111.625227 
L 186.131146 -111.625227 
L 183.01032 -111.625227 
L 179.889494 -111.625227 
L 176.768669 -111.625227 
L 173.647843 -111.625227 
L 170.527018 -111.625227 
L 167.406192 -111.625227 
L 164.285366 -111.625227 
L 161.164541 -111.625227 
L 158.043715 -111.625227 
L 154.92289 -111.625227 
L 151.802064 -111.625227 
L 148.681238 -111.625227 
L 145.560413 -111.625227 
L 142.439587 -111.625227 
L 139.318762 -111.625227 
L 136.197936 -111.625227 
L 133.07711 -111.625227 
L 129.956285 -111.625227 
L 126.835459 -111.625227 
L 123.714634 -111.625227 
L 120.593808 -111.625227 
L 117.472982 -111.625227 
L 114.352157 -111.625227 
L 111.231331 -111.625227 
L 108.110506 -111.625227 
L 104.98968 -111.625227 
L 101.868854 -111.625227 
L 98.748029 -111.625227 
L 95.627203 -111.625227 
L 92.506378 -111.625227 
L 89.385552 -111.625227 
L 86.264726 -111.625227 
L 83.143901 -111.625227 
L 80.023075 -111.625227 
L 76.90225 -111.625227 
L 73.781424 -111.625227 
L 70.660598 -111.625227 
L 67.539773 -111.625227 
z
" id="mabeed0c89b" style="stroke:#424243;stroke-opacity:0.3;"/>
    </defs>
    <g clip-path="url(#p8960d8ff83)">
     <use style="fill:#424243;fill-opacity:0.3;stroke:#424243;stroke-opacity:0.3;" x="0" xlink:href="#mabeed0c89b" y="288"/>
    </g>
   </g>
   <g id="matplotlib.axis_1">
    <g id="xtick_1">
     <g id="line2d_1">
      <defs>
       <path d="M 0 0 
L 0 3.5 
" id="m4ac3f594b8" style="stroke:#000000;stroke-width:0.8;"/>
      </defs>
      <g>
       <use style="stroke:#000000;stroke-width:0.8;" x="75.073365" xlink:href="#m4ac3f594b8" y="183.67"/>
      </g>
     </g>
     <g id="text_1">
      <!-- 0.001 -->
      <defs>
       <path d="M 31.78125 66.40625 
Q 24.171875 66.40625 20.328125 58.90625 
Q 16.5 51.421875 16.5 36.375 
Q 16.5 21.390625 20.328125 13.890625 
Q 24.171875 6.390625 31.78125 6.390625 
Q 39.453125 6.390625 43.28125 13.890625 
Q 47.125 21.390625 47.125 36.375 
Q 47.125 51.421875 43.28125 58.90625 
Q 39.453125 66.40625 31.78125 66.40625 
z
M 31.78125 74.21875 
Q 44.046875 74.21875 50.515625 64.515625 
Q 56.984375 54.828125 56.984375 36.375 
Q 56.984375 17.96875 50.515625 8.265625 
Q 44.046875 -1.421875 31.78125 -1.421875 
Q 19.53125 -1.421875 13.0625 8.265625 
Q 6.59375 17.96875 6.59375 36.375 
Q 6.59375 54.828125 13.0625 64.515625 
Q 19.53125 74.21875 31.78125 74.21875 
z
" id="DejaVuSans-30"/>
       <path d="M 10.6875 12.40625 
L 21 12.40625 
L 21 0 
L 10.6875 0 
z
" id="DejaVuSans-2e"/>
       <path d="M 12.40625 8.296875 
L 28.515625 8.296875 
L 28.515625 63.921875 
L 10.984375 60.40625 
L 10.984375 69.390625 
L 28.421875 72.90625 
L 38.28125 72.90625 
L 38.28125 8.296875 
L 54.390625 8.296875 
L 54.390625 0 
L 12.40625 0 
z
" id="DejaVuSans-31"/>
      </defs>
      <g transform="translate(46.44524 205.866875)scale(0.2 -0.2)">
       <use xlink:href="#DejaVuSans-30"/>
       <use x="63.623047" xlink:href="#DejaVuSans-2e"/>
       <use x="95.410156" xlink:href="#DejaVuSans-30"/>
       <use x="159.033203" xlink:href="#DejaVuSans-30"/>
       <use x="222.65625" xlink:href="#DejaVuSans-31"/>
      </g>
     </g>
    </g>
    <g id="xtick_2">
     <g id="line2d_2">
      <g>
       <use style="stroke:#000000;stroke-width:0.8;" x="136.216421" xlink:href="#m4ac3f594b8" y="183.67"/>
      </g>
     </g>
     <g id="text_2">
      <!-- 0.1 -->
      <g transform="translate(120.313296 205.866875)scale(0.2 -0.2)">
       <use xlink:href="#DejaVuSans-30"/>
       <use x="63.623047" xlink:href="#DejaVuSans-2e"/>
       <use x="95.410156" xlink:href="#DejaVuSans-31"/>
      </g>
     </g>
    </g>
    <g id="xtick_3">
     <g id="line2d_3">
      <g>
       <use style="stroke:#000000;stroke-width:0.8;" x="166.787948" xlink:href="#m4ac3f594b8" y="183.67"/>
      </g>
     </g>
     <g id="text_3">
      <!-- 1 -->
      <g transform="translate(160.425448 205.866875)scale(0.2 -0.2)">
       <use xlink:href="#DejaVuSans-31"/>
      </g>
     </g>
    </g>
    <g id="xtick_4">
     <g id="line2d_4">
      <g>
       <use style="stroke:#000000;stroke-width:0.8;" x="197.359476" xlink:href="#m4ac3f594b8" y="183.67"/>
      </g>
     </g>
     <g id="text_4">
      <!-- 10 -->
      <g transform="translate(184.634476 205.866875)scale(0.2 -0.2)">
       <use xlink:href="#DejaVuSans-31"/>
       <use x="63.623047" xlink:href="#DejaVuSans-30"/>
      </g>
     </g>
    </g>
    <g id="text_5">
     <!-- population density -->
     <defs>
      <path d="M 18.109375 8.203125 
L 18.109375 -20.796875 
L 9.078125 -20.796875 
L 9.078125 54.6875 
L 18.109375 54.6875 
L 18.109375 46.390625 
Q 20.953125 51.265625 25.265625 53.625 
Q 29.59375 56 35.59375 56 
Q 45.5625 56 51.78125 48.09375 
Q 58.015625 40.1875 58.015625 27.296875 
Q 58.015625 14.40625 51.78125 6.484375 
Q 45.5625 -1.421875 35.59375 -1.421875 
Q 29.59375 -1.421875 25.265625 0.953125 
Q 20.953125 3.328125 18.109375 8.203125 
z
M 48.6875 27.296875 
Q 48.6875 37.203125 44.609375 42.84375 
Q 40.53125 48.484375 33.40625 48.484375 
Q 26.265625 48.484375 22.1875 42.84375 
Q 18.109375 37.203125 18.109375 27.296875 
Q 18.109375 17.390625 22.1875 11.75 
Q 26.265625 6.109375 33.40625 6.109375 
Q 40.53125 6.109375 44.609375 11.75 
Q 48.6875 17.390625 48.6875 27.296875 
z
" id="DejaVuSans-70"/>
      <path d="M 30.609375 48.390625 
Q 23.390625 48.390625 19.1875 42.75 
Q 14.984375 37.109375 14.984375 27.296875 
Q 14.984375 17.484375 19.15625 11.84375 
Q 23.34375 6.203125 30.609375 6.203125 
Q 37.796875 6.203125 41.984375 11.859375 
Q 46.1875 17.53125 46.1875 27.296875 
Q 46.1875 37.015625 41.984375 42.703125 
Q 37.796875 48.390625 30.609375 48.390625 
z
M 30.609375 56 
Q 42.328125 56 49.015625 48.375 
Q 55.71875 40.765625 55.71875 27.296875 
Q 55.71875 13.875 49.015625 6.21875 
Q 42.328125 -1.421875 30.609375 -1.421875 
Q 18.84375 -1.421875 12.171875 6.21875 
Q 5.515625 13.875 5.515625 27.296875 
Q 5.515625 40.765625 12.171875 48.375 
Q 18.84375 56 30.609375 56 
z
" id="DejaVuSans-6f"/>
      <path d="M 8.5 21.578125 
L 8.5 54.6875 
L 17.484375 54.6875 
L 17.484375 21.921875 
Q 17.484375 14.15625 20.5 10.265625 
Q 23.53125 6.390625 29.59375 6.390625 
Q 36.859375 6.390625 41.078125 11.03125 
Q 45.3125 15.671875 45.3125 23.6875 
L 45.3125 54.6875 
L 54.296875 54.6875 
L 54.296875 0 
L 45.3125 0 
L 45.3125 8.40625 
Q 42.046875 3.421875 37.71875 1 
Q 33.40625 -1.421875 27.6875 -1.421875 
Q 18.265625 -1.421875 13.375 4.4375 
Q 8.5 10.296875 8.5 21.578125 
z
M 31.109375 56 
z
" id="DejaVuSans-75"/>
      <path d="M 9.421875 75.984375 
L 18.40625 75.984375 
L 18.40625 0 
L 9.421875 0 
z
" id="DejaVuSans-6c"/>
      <path d="M 34.28125 27.484375 
Q 23.390625 27.484375 19.1875 25 
Q 14.984375 22.515625 14.984375 16.5 
Q 14.984375 11.71875 18.140625 8.90625 
Q 21.296875 6.109375 26.703125 6.109375 
Q 34.1875 6.109375 38.703125 11.40625 
Q 43.21875 16.703125 43.21875 25.484375 
L 43.21875 27.484375 
z
M 52.203125 31.203125 
L 52.203125 0 
L 43.21875 0 
L 43.21875 8.296875 
Q 40.140625 3.328125 35.546875 0.953125 
Q 30.953125 -1.421875 24.3125 -1.421875 
Q 15.921875 -1.421875 10.953125 3.296875 
Q 6 8.015625 6 15.921875 
Q 6 25.140625 12.171875 29.828125 
Q 18.359375 34.515625 30.609375 34.515625 
L 43.21875 34.515625 
L 43.21875 35.40625 
Q 43.21875 41.609375 39.140625 45 
Q 35.0625 48.390625 27.6875 48.390625 
Q 23 48.390625 18.546875 47.265625 
Q 14.109375 46.140625 10.015625 43.890625 
L 10.015625 52.203125 
Q 14.9375 54.109375 19.578125 55.046875 
Q 24.21875 56 28.609375 56 
Q 40.484375 56 46.34375 49.84375 
Q 52.203125 43.703125 52.203125 31.203125 
z
" id="DejaVuSans-61"/>
      <path d="M 18.3125 70.21875 
L 18.3125 54.6875 
L 36.8125 54.6875 
L 36.8125 47.703125 
L 18.3125 47.703125 
L 18.3125 18.015625 
Q 18.3125 11.328125 20.140625 9.421875 
Q 21.96875 7.515625 27.59375 7.515625 
L 36.8125 7.515625 
L 36.8125 0 
L 27.59375 0 
Q 17.1875 0 13.234375 3.875 
Q 9.28125 7.765625 9.28125 18.015625 
L 9.28125 47.703125 
L 2.6875 47.703125 
L 2.6875 54.6875 
L 9.28125 54.6875 
L 9.28125 70.21875 
z
" id="DejaVuSans-74"/>
      <path d="M 9.421875 54.6875 
L 18.40625 54.6875 
L 18.40625 0 
L 9.421875 0 
z
M 9.421875 75.984375 
L 18.40625 75.984375 
L 18.40625 64.59375 
L 9.421875 64.59375 
z
" id="DejaVuSans-69"/>
      <path d="M 54.890625 33.015625 
L 54.890625 0 
L 45.90625 0 
L 45.90625 32.71875 
Q 45.90625 40.484375 42.875 44.328125 
Q 39.84375 48.1875 33.796875 48.1875 
Q 26.515625 48.1875 22.3125 43.546875 
Q 18.109375 38.921875 18.109375 30.90625 
L 18.109375 0 
L 9.078125 0 
L 9.078125 54.6875 
L 18.109375 54.6875 
L 18.109375 46.1875 
Q 21.34375 51.125 25.703125 53.5625 
Q 30.078125 56 35.796875 56 
Q 45.21875 56 50.046875 50.171875 
Q 54.890625 44.34375 54.890625 33.015625 
z
" id="DejaVuSans-6e"/>
      <path id="DejaVuSans-20"/>
      <path d="M 45.40625 46.390625 
L 45.40625 75.984375 
L 54.390625 75.984375 
L 54.390625 0 
L 45.40625 0 
L 45.40625 8.203125 
Q 42.578125 3.328125 38.25 0.953125 
Q 33.9375 -1.421875 27.875 -1.421875 
Q 17.96875 -1.421875 11.734375 6.484375 
Q 5.515625 14.40625 5.515625 27.296875 
Q 5.515625 40.1875 11.734375 48.09375 
Q 17.96875 56 27.875 56 
Q 33.9375 56 38.25 53.625 
Q 42.578125 51.265625 45.40625 46.390625 
z
M 14.796875 27.296875 
Q 14.796875 17.390625 18.875 11.75 
Q 22.953125 6.109375 30.078125 6.109375 
Q 37.203125 6.109375 41.296875 11.75 
Q 45.40625 17.390625 45.40625 27.296875 
Q 45.40625 37.203125 41.296875 42.84375 
Q 37.203125 48.484375 30.078125 48.484375 
Q 22.953125 48.484375 18.875 42.84375 
Q 14.796875 37.203125 14.796875 27.296875 
z
" id="DejaVuSans-64"/>
      <path d="M 56.203125 29.59375 
L 56.203125 25.203125 
L 14.890625 25.203125 
Q 15.484375 15.921875 20.484375 11.0625 
Q 25.484375 6.203125 34.421875 6.203125 
Q 39.59375 6.203125 44.453125 7.46875 
Q 49.3125 8.734375 54.109375 11.28125 
L 54.109375 2.78125 
Q 49.265625 0.734375 44.1875 -0.34375 
Q 39.109375 -1.421875 33.890625 -1.421875 
Q 20.796875 -1.421875 13.15625 6.1875 
Q 5.515625 13.8125 5.515625 26.8125 
Q 5.515625 40.234375 12.765625 48.109375 
Q 20.015625 56 32.328125 56 
Q 43.359375 56 49.78125 48.890625 
Q 56.203125 41.796875 56.203125 29.59375 
z
M 47.21875 32.234375 
Q 47.125 39.59375 43.09375 43.984375 
Q 39.0625 48.390625 32.421875 48.390625 
Q 24.90625 48.390625 20.390625 44.140625 
Q 15.875 39.890625 15.1875 32.171875 
z
" id="DejaVuSans-65"/>
      <path d="M 44.28125 53.078125 
L 44.28125 44.578125 
Q 40.484375 46.53125 36.375 47.5 
Q 32.28125 48.484375 27.875 48.484375 
Q 21.1875 48.484375 17.84375 46.4375 
Q 14.5 44.390625 14.5 40.28125 
Q 14.5 37.15625 16.890625 35.375 
Q 19.28125 33.59375 26.515625 31.984375 
L 29.59375 31.296875 
Q 39.15625 29.25 43.1875 25.515625 
Q 47.21875 21.78125 47.21875 15.09375 
Q 47.21875 7.46875 41.1875 3.015625 
Q 35.15625 -1.421875 24.609375 -1.421875 
Q 20.21875 -1.421875 15.453125 -0.5625 
Q 10.6875 0.296875 5.421875 2 
L 5.421875 11.28125 
Q 10.40625 8.6875 15.234375 7.390625 
Q 20.0625 6.109375 24.8125 6.109375 
Q 31.15625 6.109375 34.5625 8.28125 
Q 37.984375 10.453125 37.984375 14.40625 
Q 37.984375 18.0625 35.515625 20.015625 
Q 33.0625 21.96875 24.703125 23.78125 
L 21.578125 24.515625 
Q 13.234375 26.265625 9.515625 29.90625 
Q 5.8125 33.546875 5.8125 39.890625 
Q 5.8125 47.609375 11.28125 51.796875 
Q 16.75 56 26.8125 56 
Q 31.78125 56 36.171875 55.265625 
Q 40.578125 54.546875 44.28125 53.078125 
z
" id="DejaVuSans-73"/>
      <path d="M 32.171875 -5.078125 
Q 28.375 -14.84375 24.75 -17.8125 
Q 21.140625 -20.796875 15.09375 -20.796875 
L 7.90625 -20.796875 
L 7.90625 -13.28125 
L 13.1875 -13.28125 
Q 16.890625 -13.28125 18.9375 -11.515625 
Q 21 -9.765625 23.484375 -3.21875 
L 25.09375 0.875 
L 2.984375 54.6875 
L 12.5 54.6875 
L 29.59375 11.921875 
L 46.6875 54.6875 
L 56.203125 54.6875 
z
" id="DejaVuSans-79"/>
     </defs>
     <g transform="translate(27.677734 233.022344)scale(0.25 -0.25)">
      <use xlink:href="#DejaVuSans-70"/>
      <use x="63.476562" xlink:href="#DejaVuSans-6f"/>
      <use x="124.658203" xlink:href="#DejaVuSans-70"/>
      <use x="188.134766" xlink:href="#DejaVuSans-75"/>
      <use x="251.513672" xlink:href="#DejaVuSans-6c"/>
      <use x="279.296875" xlink:href="#DejaVuSans-61"/>
      <use x="340.576172" xlink:href="#DejaVuSans-74"/>
      <use x="379.785156" xlink:href="#DejaVuSans-69"/>
      <use x="407.568359" xlink:href="#DejaVuSans-6f"/>
      <use x="468.75" xlink:href="#DejaVuSans-6e"/>
      <use x="532.128906" xlink:href="#DejaVuSans-20"/>
      <use x="563.916016" xlink:href="#DejaVuSans-64"/>
      <use x="627.392578" xlink:href="#DejaVuSans-65"/>
      <use x="688.916016" xlink:href="#DejaVuSans-6e"/>
      <use x="752.294922" xlink:href="#DejaVuSans-73"/>
      <use x="804.394531" xlink:href="#DejaVuSans-69"/>
      <use x="832.177734" xlink:href="#DejaVuSans-74"/>
      <use x="871.386719" xlink:href="#DejaVuSans-79"/>
     </g>
     <!-- people/ha -->
     <defs>
      <path d="M 25.390625 72.90625 
L 33.6875 72.90625 
L 8.296875 -9.28125 
L 0 -9.28125 
z
" id="DejaVuSans-2f"/>
      <path d="M 54.890625 33.015625 
L 54.890625 0 
L 45.90625 0 
L 45.90625 32.71875 
Q 45.90625 40.484375 42.875 44.328125 
Q 39.84375 48.1875 33.796875 48.1875 
Q 26.515625 48.1875 22.3125 43.546875 
Q 18.109375 38.921875 18.109375 30.90625 
L 18.109375 0 
L 9.078125 0 
L 9.078125 75.984375 
L 18.109375 75.984375 
L 18.109375 46.1875 
Q 21.34375 51.125 25.703125 53.5625 
Q 30.078125 56 35.796875 56 
Q 45.21875 56 50.046875 50.171875 
Q 54.890625 44.34375 54.890625 33.015625 
z
" id="DejaVuSans-68"/>
     </defs>
     <g transform="translate(81.832031 261.016875)scale(0.25 -0.25)">
      <use xlink:href="#DejaVuSans-70"/>
      <use x="63.476562" xlink:href="#DejaVuSans-65"/>
      <use x="125" xlink:href="#DejaVuSans-6f"/>
      <use x="186.181641" xlink:href="#DejaVuSans-70"/>
      <use x="249.658203" xlink:href="#DejaVuSans-6c"/>
      <use x="277.441406" xlink:href="#DejaVuSans-65"/>
      <use x="338.964844" xlink:href="#DejaVuSans-2f"/>
      <use x="372.65625" xlink:href="#DejaVuSans-68"/>
      <use x="436.035156" xlink:href="#DejaVuSans-61"/>
     </g>
    </g>
   </g>
   <g id="line2d_5">
    <path clip-path="url(#p8960d8ff83)" d="M 67.539773 175.975274 
L 70.660598 175.691826 
L 73.781424 175.292035 
L 76.90225 174.756944 
L 80.023075 174.058884 
L 83.143901 173.150242 
L 86.264726 171.95908 
L 89.385552 170.404552 
L 92.506378 168.433252 
L 95.627203 166.049291 
L 98.748029 163.296741 
L 101.868854 160.188417 
L 104.98968 156.634394 
L 108.110506 152.428832 
L 111.231331 147.287555 
L 114.352157 140.887677 
L 117.472982 132.918171 
L 120.593808 123.215266 
L 123.714634 111.979914 
L 126.835459 99.909859 
L 129.956285 88.082414 
L 133.07711 77.664568 
L 136.197936 69.683445 
L 139.318762 64.918237 
L 142.439587 63.755877 
L 145.560413 65.970975 
L 148.681238 70.672628 
L 151.802064 76.623863 
L 154.92289 82.7663 
L 158.043715 88.561759 
L 161.164541 93.963698 
L 164.285366 99.168965 
L 167.406192 104.395895 
L 170.527018 109.781927 
L 173.647843 115.344133 
L 176.768669 120.954648 
L 179.889494 126.367995 
L 183.01032 131.328895 
L 186.131146 135.681102 
L 189.251971 139.371027 
L 192.372797 142.369045 
L 195.493622 144.637472 
L 198.614448 146.201146 
L 201.735274 147.232487 
L 204.856099 148.04133 
L 207.976925 148.969823 
L 211.09775 150.28476 
L 214.218576 152.13681 
L 217.339402 154.573179 
L 220.460227 157.553108 
" style="fill:none;stroke:#cc79a7;stroke-linecap:square;stroke-width:2;"/>
   </g>
   <g id="line2d_6">
    <path clip-path="url(#p8960d8ff83)" d="M 67.539773 166.850758 
L 70.660598 165.235783 
L 73.781424 163.348307 
L 76.90225 161.148396 
L 80.023075 158.61597 
L 83.143901 155.779538 
L 86.264726 152.732491 
L 89.385552 149.612646 
L 92.506378 146.546761 
L 95.627203 143.593168 
L 98.748029 140.719437 
L 101.868854 137.821216 
L 104.98968 134.755592 
L 108.110506 131.363359 
L 111.231331 127.48307 
L 114.352157 122.977606 
L 117.472982 117.782261 
L 120.593808 111.960903 
L 123.714634 105.745237 
L 126.835459 99.532427 
L 129.956285 93.826644 
L 133.07711 89.134242 
L 136.197936 85.847827 
L 139.318762 84.158617 
L 142.439587 84.020894 
L 145.560413 85.179289 
L 148.681238 87.259362 
L 151.802064 89.896569 
L 154.92289 92.850131 
L 158.043715 96.053284 
L 161.164541 99.590765 
L 164.285366 103.625643 
L 167.406192 108.300305 
L 170.527018 113.637123 
L 173.647843 119.480061 
L 176.768669 125.52005 
L 179.889494 131.404822 
L 183.01032 136.87227 
L 186.131146 141.823921 
L 189.251971 146.299357 
L 192.372797 150.387007 
L 195.493622 154.145219 
L 198.614448 157.579961 
L 201.735274 160.668657 
L 204.856099 163.391862 
L 207.976925 165.749607 
L 211.09775 167.763619 
L 214.218576 169.472486 
L 217.339402 170.921959 
L 220.460227 172.153025 
" style="fill:none;stroke:#424243;stroke-linecap:square;stroke-width:2;"/>
   </g>
   <g id="patch_3">
    <path d="M 59.89375 183.67 
L 228.10625 183.67 
" style="fill:none;stroke:#000000;stroke-linecap:square;stroke-linejoin:miter;stroke-width:0.8;"/>
   </g>
  </g>
 </g>
 <defs>
  <clipPath id="p8960d8ff83">
   <rect height="160.495" width="168.2125" x="59.89375" y="23.175"/>
  </clipPath>
 </defs>
</svg>
