<?xml version="1.0" encoding="utf-8" standalone="no"?>
<!DOCTYPE svg PUBLIC "-//W3C//DTD SVG 1.1//EN"
  "http://www.w3.org/Graphics/SVG/1.1/DTD/svg11.dtd">
<!-- Created with matplotlib (http://matplotlib.org/) -->
<svg height="288pt" version="1.1" viewBox="0 0 288 288" width="288pt" xmlns="http://www.w3.org/2000/svg" xmlns:xlink="http://www.w3.org/1999/xlink">
 <defs>
  <style type="text/css">
*{stroke-linecap:butt;stroke-linejoin:round;}
  </style>
 </defs>
 <g id="figure_1">
  <g id="patch_1">
   <path d="M 0 288 
L 288 288 
L 288 0 
L 0 0 
z
" style="fill:#ffffff;"/>
  </g>
  <g id="axes_1">
   <g id="patch_2">
    <path d="M 25.663101 183.496 
L 264.72 183.496 
L 264.72 23.28 
L 25.663101 23.28 
z
" style="fill:#ffffff;"/>
   </g>
   <g id="PolyCollection_1">
    <defs>
     <path d="M 36.529324 -111.786545 
L 36.529324 -118.61235 
L 40.964516 -125.478146 
L 45.399709 -136.002963 
L 49.834902 -161.123518 
L 54.270095 -213.646221 
L 58.705288 -257.437455 
L 63.140481 -252.575194 
L 67.575674 -229.328255 
L 72.010867 -204.212999 
L 76.44606 -183.741077 
L 80.881253 -166.587753 
L 85.316446 -149.25195 
L 89.751639 -137.980214 
L 94.186832 -132.019111 
L 98.622025 -127.707907 
L 103.057218 -123.056282 
L 107.49241 -119.551518 
L 111.927603 -116.712486 
L 116.362796 -115.041253 
L 120.797989 -114.481206 
L 125.233182 -113.519163 
L 129.668375 -112.814325 
L 134.103568 -112.408087 
L 138.538761 -112.138752 
L 142.973954 -112.001812 
L 147.409147 -111.869496 
L 151.84434 -111.796798 
L 156.279533 -111.786863 
L 160.714726 -111.786548 
L 165.149919 -111.786545 
L 169.585112 -111.786545 
L 174.020304 -111.786545 
L 178.455497 -111.786545 
L 182.89069 -111.786545 
L 187.325883 -111.786545 
L 191.761076 -111.786545 
L 196.196269 -111.786545 
L 200.631462 -111.786545 
L 205.066655 -111.786545 
L 209.501848 -111.786545 
L 213.937041 -111.786545 
L 218.372234 -111.786545 
L 222.807427 -111.786545 
L 227.24262 -111.786545 
L 231.677813 -111.786545 
L 236.113006 -111.786545 
L 240.548199 -111.786545 
L 244.983391 -111.786545 
L 249.418584 -111.786545 
L 253.853777 -111.786545 
L 253.853777 -111.786545 
L 253.853777 -111.786545 
L 249.418584 -111.786545 
L 244.983391 -111.786545 
L 240.548199 -111.786545 
L 236.113006 -111.786545 
L 231.677813 -111.786545 
L 227.24262 -111.786545 
L 222.807427 -111.786545 
L 218.372234 -111.786545 
L 213.937041 -111.786545 
L 209.501848 -111.786545 
L 205.066655 -111.786545 
L 200.631462 -111.786545 
L 196.196269 -111.786545 
L 191.761076 -111.786545 
L 187.325883 -111.786545 
L 182.89069 -111.786545 
L 178.455497 -111.786545 
L 174.020304 -111.786545 
L 169.585112 -111.786545 
L 165.149919 -111.786545 
L 160.714726 -111.786545 
L 156.279533 -111.786545 
L 151.84434 -111.786545 
L 147.409147 -111.786545 
L 142.973954 -111.786545 
L 138.538761 -111.786545 
L 134.103568 -111.786545 
L 129.668375 -111.786545 
L 125.233182 -111.786545 
L 120.797989 -111.786545 
L 116.362796 -111.786545 
L 111.927603 -111.786545 
L 107.49241 -111.786545 
L 103.057218 -111.786545 
L 98.622025 -111.786545 
L 94.186832 -111.786545 
L 89.751639 -111.786545 
L 85.316446 -111.786545 
L 80.881253 -111.786545 
L 76.44606 -111.786545 
L 72.010867 -111.786545 
L 67.575674 -111.786545 
L 63.140481 -111.786545 
L 58.705288 -111.786545 
L 54.270095 -111.786545 
L 49.834902 -111.786545 
L 45.399709 -111.786545 
L 40.964516 -111.786545 
L 36.529324 -111.786545 
z
" id="m1da4872c94" style="stroke:#e69f00;stroke-opacity:0.3;"/>
    </defs>
    <g clip-path="url(#pde8728b88d)">
     <use style="fill:#e69f00;fill-opacity:0.3;stroke:#e69f00;stroke-opacity:0.3;" x="0" xlink:href="#m1da4872c94" y="288"/>
    </g>
   </g>
   <g id="PolyCollection_2">
    <defs>
     <path d="M 36.529324 -111.786545 
L 36.529324 -143.194786 
L 40.964516 -150.609539 
L 45.399709 -156.986003 
L 49.834902 -161.728573 
L 54.270095 -164.501062 
L 58.705288 -165.227262 
L 63.140481 -164.065514 
L 67.575674 -161.367792 
L 72.010867 -157.609893 
L 76.44606 -153.295477 
L 80.881253 -148.866014 
L 85.316446 -144.650652 
L 89.751639 -140.862079 
L 94.186832 -137.617762 
L 98.622025 -134.962831 
L 103.057218 -132.885099 
L 107.49241 -131.325091 
L 111.927603 -130.18614 
L 116.362796 -129.346652 
L 120.797989 -128.674793 
L 125.233182 -128.045232 
L 129.668375 -127.355918 
L 134.103568 -126.540743 
L 138.538761 -125.574125 
L 142.973954 -124.466709 
L 147.409147 -123.255158 
L 151.84434 -121.990531 
L 156.279533 -120.728358 
L 160.714726 -119.521248 
L 165.149919 -118.413601 
L 169.585112 -117.438248 
L 174.020304 -116.615004 
L 178.455497 -115.950554 
L 182.89069 -115.43878 
L 187.325883 -115.061566 
L 191.761076 -114.791334 
L 196.196269 -114.596262 
L 200.631462 -114.44696 
L 205.066655 -114.321648 
L 209.501848 -114.207444 
L 213.937041 -114.097907 
L 218.372234 -113.989349 
L 222.807427 -113.878758 
L 227.24262 -113.764397 
L 231.677813 -113.647736 
L 236.113006 -113.534169 
L 240.548199 -113.431063 
L 244.983391 -113.343976 
L 249.418584 -113.273494 
L 253.853777 -113.214889 
L 253.853777 -111.786545 
L 253.853777 -111.786545 
L 249.418584 -111.786545 
L 244.983391 -111.786545 
L 240.548199 -111.786545 
L 236.113006 -111.786545 
L 231.677813 -111.786545 
L 227.24262 -111.786545 
L 222.807427 -111.786545 
L 218.372234 -111.786545 
L 213.937041 -111.786545 
L 209.501848 -111.786545 
L 205.066655 -111.786545 
L 200.631462 -111.786545 
L 196.196269 -111.786545 
L 191.761076 -111.786545 
L 187.325883 -111.786545 
L 182.89069 -111.786545 
L 178.455497 -111.786545 
L 174.020304 -111.786545 
L 169.585112 -111.786545 
L 165.149919 -111.786545 
L 160.714726 -111.786545 
L 156.279533 -111.786545 
L 151.84434 -111.786545 
L 147.409147 -111.786545 
L 142.973954 -111.786545 
L 138.538761 -111.786545 
L 134.103568 -111.786545 
L 129.668375 -111.786545 
L 125.233182 -111.786545 
L 120.797989 -111.786545 
L 116.362796 -111.786545 
L 111.927603 -111.786545 
L 107.49241 -111.786545 
L 103.057218 -111.786545 
L 98.622025 -111.786545 
L 94.186832 -111.786545 
L 89.751639 -111.786545 
L 85.316446 -111.786545 
L 80.881253 -111.786545 
L 76.44606 -111.786545 
L 72.010867 -111.786545 
L 67.575674 -111.786545 
L 63.140481 -111.786545 
L 58.705288 -111.786545 
L 54.270095 -111.786545 
L 49.834902 -111.786545 
L 45.399709 -111.786545 
L 40.964516 -111.786545 
L 36.529324 -111.786545 
z
" id="m0731dc15c7" style="stroke:#424243;stroke-opacity:0.3;"/>
    </defs>
    <g clip-path="url(#pde8728b88d)">
     <use style="fill:#424243;fill-opacity:0.3;stroke:#424243;stroke-opacity:0.3;" x="0" xlink:href="#m0731dc15c7" y="288"/>
    </g>
   </g>
   <g id="matplotlib.axis_1">
    <g id="xtick_1">
     <g id="line2d_1">
      <defs>
       <path d="M 0 0 
L 0 3.5 
" id="m6846e9313b" style="stroke:#000000;stroke-width:0.8;"/>
      </defs>
      <g>
       <use style="stroke:#000000;stroke-width:0.8;" x="29.21065" xlink:href="#m6846e9313b" y="183.496"/>
      </g>
     </g>
     <g id="text_1">
      <!-- 0 -->
      <defs>
       <path d="M 31.78125 66.40625 
Q 24.171875 66.40625 20.328125 58.90625 
Q 16.5 51.421875 16.5 36.375 
Q 16.5 21.390625 20.328125 13.890625 
Q 24.171875 6.390625 31.78125 6.390625 
Q 39.453125 6.390625 43.28125 13.890625 
Q 47.125 21.390625 47.125 36.375 
Q 47.125 51.421875 43.28125 58.90625 
Q 39.453125 66.40625 31.78125 66.40625 
z
M 31.78125 74.21875 
Q 44.046875 74.21875 50.515625 64.515625 
Q 56.984375 54.828125 56.984375 36.375 
Q 56.984375 17.96875 50.515625 8.265625 
Q 44.046875 -1.421875 31.78125 -1.421875 
Q 19.53125 -1.421875 13.0625 8.265625 
Q 6.59375 17.96875 6.59375 36.375 
Q 6.59375 54.828125 13.0625 64.515625 
Q 19.53125 74.21875 31.78125 74.21875 
z
" id="DejaVuSans-30"/>
      </defs>
      <g transform="translate(22.84815 205.692875)scale(0.2 -0.2)">
       <use xlink:href="#DejaVuSans-30"/>
      </g>
     </g>
    </g>
    <g id="xtick_2">
     <g id="line2d_2">
      <g>
       <use style="stroke:#000000;stroke-width:0.8;" x="112.013551" xlink:href="#m6846e9313b" y="183.496"/>
      </g>
     </g>
     <g id="text_2">
      <!-- 50 -->
      <defs>
       <path d="M 10.796875 72.90625 
L 49.515625 72.90625 
L 49.515625 64.59375 
L 19.828125 64.59375 
L 19.828125 46.734375 
Q 21.96875 47.46875 24.109375 47.828125 
Q 26.265625 48.1875 28.421875 48.1875 
Q 40.625 48.1875 47.75 41.5 
Q 54.890625 34.8125 54.890625 23.390625 
Q 54.890625 11.625 47.5625 5.09375 
Q 40.234375 -1.421875 26.90625 -1.421875 
Q 22.3125 -1.421875 17.546875 -0.640625 
Q 12.796875 0.140625 7.71875 1.703125 
L 7.71875 11.625 
Q 12.109375 9.234375 16.796875 8.0625 
Q 21.484375 6.890625 26.703125 6.890625 
Q 35.15625 6.890625 40.078125 11.328125 
Q 45.015625 15.765625 45.015625 23.390625 
Q 45.015625 31 40.078125 35.4375 
Q 35.15625 39.890625 26.703125 39.890625 
Q 22.75 39.890625 18.8125 39.015625 
Q 14.890625 38.140625 10.796875 36.28125 
z
" id="DejaVuSans-35"/>
      </defs>
      <g transform="translate(99.288551 205.692875)scale(0.2 -0.2)">
       <use xlink:href="#DejaVuSans-35"/>
       <use x="63.623047" xlink:href="#DejaVuSans-30"/>
      </g>
     </g>
    </g>
    <g id="xtick_3">
     <g id="line2d_3">
      <g>
       <use style="stroke:#000000;stroke-width:0.8;" x="194.816452" xlink:href="#m6846e9313b" y="183.496"/>
      </g>
     </g>
     <g id="text_3">
      <!-- 100 -->
      <defs>
       <path d="M 12.40625 8.296875 
L 28.515625 8.296875 
L 28.515625 63.921875 
L 10.984375 60.40625 
L 10.984375 69.390625 
L 28.421875 72.90625 
L 38.28125 72.90625 
L 38.28125 8.296875 
L 54.390625 8.296875 
L 54.390625 0 
L 12.40625 0 
z
" id="DejaVuSans-31"/>
      </defs>
      <g transform="translate(175.728952 205.692875)scale(0.2 -0.2)">
       <use xlink:href="#DejaVuSans-31"/>
       <use x="63.623047" xlink:href="#DejaVuSans-30"/>
       <use x="127.246094" xlink:href="#DejaVuSans-30"/>
      </g>
     </g>
    </g>
    <g id="text_4">
     <!-- temperature -->
     <defs>
      <path d="M 18.3125 70.21875 
L 18.3125 54.6875 
L 36.8125 54.6875 
L 36.8125 47.703125 
L 18.3125 47.703125 
L 18.3125 18.015625 
Q 18.3125 11.328125 20.140625 9.421875 
Q 21.96875 7.515625 27.59375 7.515625 
L 36.8125 7.515625 
L 36.8125 0 
L 27.59375 0 
Q 17.1875 0 13.234375 3.875 
Q 9.28125 7.765625 9.28125 18.015625 
L 9.28125 47.703125 
L 2.6875 47.703125 
L 2.6875 54.6875 
L 9.28125 54.6875 
L 9.28125 70.21875 
z
" id="DejaVuSans-74"/>
      <path d="M 56.203125 29.59375 
L 56.203125 25.203125 
L 14.890625 25.203125 
Q 15.484375 15.921875 20.484375 11.0625 
Q 25.484375 6.203125 34.421875 6.203125 
Q 39.59375 6.203125 44.453125 7.46875 
Q 49.3125 8.734375 54.109375 11.28125 
L 54.109375 2.78125 
Q 49.265625 0.734375 44.1875 -0.34375 
Q 39.109375 -1.421875 33.890625 -1.421875 
Q 20.796875 -1.421875 13.15625 6.1875 
Q 5.515625 13.8125 5.515625 26.8125 
Q 5.515625 40.234375 12.765625 48.109375 
Q 20.015625 56 32.328125 56 
Q 43.359375 56 49.78125 48.890625 
Q 56.203125 41.796875 56.203125 29.59375 
z
M 47.21875 32.234375 
Q 47.125 39.59375 43.09375 43.984375 
Q 39.0625 48.390625 32.421875 48.390625 
Q 24.90625 48.390625 20.390625 44.140625 
Q 15.875 39.890625 15.1875 32.171875 
z
" id="DejaVuSans-65"/>
      <path d="M 52 44.1875 
Q 55.375 50.25 60.0625 53.125 
Q 64.75 56 71.09375 56 
Q 79.640625 56 84.28125 50.015625 
Q 88.921875 44.046875 88.921875 33.015625 
L 88.921875 0 
L 79.890625 0 
L 79.890625 32.71875 
Q 79.890625 40.578125 77.09375 44.375 
Q 74.3125 48.1875 68.609375 48.1875 
Q 61.625 48.1875 57.5625 43.546875 
Q 53.515625 38.921875 53.515625 30.90625 
L 53.515625 0 
L 44.484375 0 
L 44.484375 32.71875 
Q 44.484375 40.625 41.703125 44.40625 
Q 38.921875 48.1875 33.109375 48.1875 
Q 26.21875 48.1875 22.15625 43.53125 
Q 18.109375 38.875 18.109375 30.90625 
L 18.109375 0 
L 9.078125 0 
L 9.078125 54.6875 
L 18.109375 54.6875 
L 18.109375 46.1875 
Q 21.1875 51.21875 25.484375 53.609375 
Q 29.78125 56 35.6875 56 
Q 41.65625 56 45.828125 52.96875 
Q 50 49.953125 52 44.1875 
z
" id="DejaVuSans-6d"/>
      <path d="M 18.109375 8.203125 
L 18.109375 -20.796875 
L 9.078125 -20.796875 
L 9.078125 54.6875 
L 18.109375 54.6875 
L 18.109375 46.390625 
Q 20.953125 51.265625 25.265625 53.625 
Q 29.59375 56 35.59375 56 
Q 45.5625 56 51.78125 48.09375 
Q 58.015625 40.1875 58.015625 27.296875 
Q 58.015625 14.40625 51.78125 6.484375 
Q 45.5625 -1.421875 35.59375 -1.421875 
Q 29.59375 -1.421875 25.265625 0.953125 
Q 20.953125 3.328125 18.109375 8.203125 
z
M 48.6875 27.296875 
Q 48.6875 37.203125 44.609375 42.84375 
Q 40.53125 48.484375 33.40625 48.484375 
Q 26.265625 48.484375 22.1875 42.84375 
Q 18.109375 37.203125 18.109375 27.296875 
Q 18.109375 17.390625 22.1875 11.75 
Q 26.265625 6.109375 33.40625 6.109375 
Q 40.53125 6.109375 44.609375 11.75 
Q 48.6875 17.390625 48.6875 27.296875 
z
" id="DejaVuSans-70"/>
      <path d="M 41.109375 46.296875 
Q 39.59375 47.171875 37.8125 47.578125 
Q 36.03125 48 33.890625 48 
Q 26.265625 48 22.1875 43.046875 
Q 18.109375 38.09375 18.109375 28.8125 
L 18.109375 0 
L 9.078125 0 
L 9.078125 54.6875 
L 18.109375 54.6875 
L 18.109375 46.1875 
Q 20.953125 51.171875 25.484375 53.578125 
Q 30.03125 56 36.53125 56 
Q 37.453125 56 38.578125 55.875 
Q 39.703125 55.765625 41.0625 55.515625 
z
" id="DejaVuSans-72"/>
      <path d="M 34.28125 27.484375 
Q 23.390625 27.484375 19.1875 25 
Q 14.984375 22.515625 14.984375 16.5 
Q 14.984375 11.71875 18.140625 8.90625 
Q 21.296875 6.109375 26.703125 6.109375 
Q 34.1875 6.109375 38.703125 11.40625 
Q 43.21875 16.703125 43.21875 25.484375 
L 43.21875 27.484375 
z
M 52.203125 31.203125 
L 52.203125 0 
L 43.21875 0 
L 43.21875 8.296875 
Q 40.140625 3.328125 35.546875 0.953125 
Q 30.953125 -1.421875 24.3125 -1.421875 
Q 15.921875 -1.421875 10.953125 3.296875 
Q 6 8.015625 6 15.921875 
Q 6 25.140625 12.171875 29.828125 
Q 18.359375 34.515625 30.609375 34.515625 
L 43.21875 34.515625 
L 43.21875 35.40625 
Q 43.21875 41.609375 39.140625 45 
Q 35.0625 48.390625 27.6875 48.390625 
Q 23 48.390625 18.546875 47.265625 
Q 14.109375 46.140625 10.015625 43.890625 
L 10.015625 52.203125 
Q 14.9375 54.109375 19.578125 55.046875 
Q 24.21875 56 28.609375 56 
Q 40.484375 56 46.34375 49.84375 
Q 52.203125 43.703125 52.203125 31.203125 
z
" id="DejaVuSans-61"/>
      <path d="M 8.5 21.578125 
L 8.5 54.6875 
L 17.484375 54.6875 
L 17.484375 21.921875 
Q 17.484375 14.15625 20.5 10.265625 
Q 23.53125 6.390625 29.59375 6.390625 
Q 36.859375 6.390625 41.078125 11.03125 
Q 45.3125 15.671875 45.3125 23.6875 
L 45.3125 54.6875 
L 54.296875 54.6875 
L 54.296875 0 
L 45.3125 0 
L 45.3125 8.40625 
Q 42.046875 3.421875 37.71875 1 
Q 33.40625 -1.421875 27.6875 -1.421875 
Q 18.265625 -1.421875 13.375 4.4375 
Q 8.5 10.296875 8.5 21.578125 
z
M 31.109375 56 
z
" id="DejaVuSans-75"/>
     </defs>
     <g transform="translate(66.349754 232.848344)scale(0.25 -0.25)">
      <use xlink:href="#DejaVuSans-74"/>
      <use x="39.208984" xlink:href="#DejaVuSans-65"/>
      <use x="100.732422" xlink:href="#DejaVuSans-6d"/>
      <use x="198.144531" xlink:href="#DejaVuSans-70"/>
      <use x="261.621094" xlink:href="#DejaVuSans-65"/>
      <use x="323.144531" xlink:href="#DejaVuSans-72"/>
      <use x="364.257812" xlink:href="#DejaVuSans-61"/>
      <use x="425.537109" xlink:href="#DejaVuSans-74"/>
      <use x="464.746094" xlink:href="#DejaVuSans-75"/>
      <use x="528.125" xlink:href="#DejaVuSans-72"/>
      <use x="569.207031" xlink:href="#DejaVuSans-65"/>
     </g>
     <!-- variance -->
     <defs>
      <path d="M 2.984375 54.6875 
L 12.5 54.6875 
L 29.59375 8.796875 
L 46.6875 54.6875 
L 56.203125 54.6875 
L 35.6875 0 
L 23.484375 0 
z
" id="DejaVuSans-76"/>
      <path d="M 9.421875 54.6875 
L 18.40625 54.6875 
L 18.40625 0 
L 9.421875 0 
z
M 9.421875 75.984375 
L 18.40625 75.984375 
L 18.40625 64.59375 
L 9.421875 64.59375 
z
" id="DejaVuSans-69"/>
      <path d="M 54.890625 33.015625 
L 54.890625 0 
L 45.90625 0 
L 45.90625 32.71875 
Q 45.90625 40.484375 42.875 44.328125 
Q 39.84375 48.1875 33.796875 48.1875 
Q 26.515625 48.1875 22.3125 43.546875 
Q 18.109375 38.921875 18.109375 30.90625 
L 18.109375 0 
L 9.078125 0 
L 9.078125 54.6875 
L 18.109375 54.6875 
L 18.109375 46.1875 
Q 21.34375 51.125 25.703125 53.5625 
Q 30.078125 56 35.796875 56 
Q 45.21875 56 50.046875 50.171875 
Q 54.890625 44.34375 54.890625 33.015625 
z
" id="DejaVuSans-6e"/>
      <path d="M 48.78125 52.59375 
L 48.78125 44.1875 
Q 44.96875 46.296875 41.140625 47.34375 
Q 37.3125 48.390625 33.40625 48.390625 
Q 24.65625 48.390625 19.8125 42.84375 
Q 14.984375 37.3125 14.984375 27.296875 
Q 14.984375 17.28125 19.8125 11.734375 
Q 24.65625 6.203125 33.40625 6.203125 
Q 37.3125 6.203125 41.140625 7.25 
Q 44.96875 8.296875 48.78125 10.40625 
L 48.78125 2.09375 
Q 45.015625 0.34375 40.984375 -0.53125 
Q 36.96875 -1.421875 32.421875 -1.421875 
Q 20.0625 -1.421875 12.78125 6.34375 
Q 5.515625 14.109375 5.515625 27.296875 
Q 5.515625 40.671875 12.859375 48.328125 
Q 20.21875 56 33.015625 56 
Q 37.15625 56 41.109375 55.140625 
Q 45.0625 54.296875 48.78125 52.59375 
z
" id="DejaVuSans-63"/>
     </defs>
     <g transform="translate(91.375144 260.842875)scale(0.25 -0.25)">
      <use xlink:href="#DejaVuSans-76"/>
      <use x="59.179688" xlink:href="#DejaVuSans-61"/>
      <use x="120.458984" xlink:href="#DejaVuSans-72"/>
      <use x="161.572266" xlink:href="#DejaVuSans-69"/>
      <use x="189.355469" xlink:href="#DejaVuSans-61"/>
      <use x="250.634766" xlink:href="#DejaVuSans-6e"/>
      <use x="314.013672" xlink:href="#DejaVuSans-63"/>
      <use x="368.994141" xlink:href="#DejaVuSans-65"/>
     </g>
    </g>
   </g>
   <g id="line2d_4">
    <path clip-path="url(#pde8728b88d)" d="M 36.529324 169.38765 
L 40.964516 162.521854 
L 45.399709 151.997037 
L 49.834902 126.876482 
L 54.270095 74.353779 
L 58.705288 30.562545 
L 63.140481 35.424806 
L 67.575674 58.671745 
L 72.010867 83.787001 
L 76.44606 104.258923 
L 80.881253 121.412247 
L 85.316446 138.74805 
L 89.751639 150.019786 
L 94.186832 155.980889 
L 98.622025 160.292093 
L 103.057218 164.943718 
L 107.49241 168.448482 
L 111.927603 171.287514 
L 116.362796 172.958747 
L 120.797989 173.518794 
L 125.233182 174.480837 
L 129.668375 175.185675 
L 134.103568 175.591913 
L 138.538761 175.861248 
L 142.973954 175.998188 
L 147.409147 176.130504 
L 151.84434 176.203202 
L 156.279533 176.213137 
L 160.714726 176.213452 
L 165.149919 176.213455 
L 169.585112 176.213455 
L 174.020304 176.213455 
L 178.455497 176.213455 
L 182.89069 176.213455 
L 187.325883 176.213455 
L 191.761076 176.213455 
L 196.196269 176.213455 
L 200.631462 176.213455 
L 205.066655 176.213455 
L 209.501848 176.213455 
L 213.937041 176.213455 
L 218.372234 176.213455 
L 222.807427 176.213455 
L 227.24262 176.213455 
L 231.677813 176.213455 
L 236.113006 176.213455 
L 240.548199 176.213455 
L 244.983391 176.213455 
L 249.418584 176.213455 
L 253.853777 176.213455 
" style="fill:none;stroke:#e69f00;stroke-linecap:square;stroke-width:2;"/>
   </g>
   <g id="line2d_5">
    <path clip-path="url(#pde8728b88d)" d="M 36.529324 144.805214 
L 40.964516 137.390461 
L 45.399709 131.013997 
L 49.834902 126.271427 
L 54.270095 123.498938 
L 58.705288 122.772738 
L 63.140481 123.934486 
L 67.575674 126.632208 
L 72.010867 130.390107 
L 76.44606 134.704523 
L 80.881253 139.133986 
L 85.316446 143.349348 
L 89.751639 147.137921 
L 94.186832 150.382238 
L 98.622025 153.037169 
L 103.057218 155.114901 
L 107.49241 156.674909 
L 111.927603 157.81386 
L 116.362796 158.653348 
L 120.797989 159.325207 
L 125.233182 159.954768 
L 129.668375 160.644082 
L 134.103568 161.459257 
L 138.538761 162.425875 
L 142.973954 163.533291 
L 147.409147 164.744842 
L 151.84434 166.009469 
L 156.279533 167.271642 
L 160.714726 168.478752 
L 165.149919 169.586399 
L 169.585112 170.561752 
L 174.020304 171.384996 
L 178.455497 172.049446 
L 182.89069 172.56122 
L 187.325883 172.938434 
L 191.761076 173.208666 
L 196.196269 173.403738 
L 200.631462 173.55304 
L 205.066655 173.678352 
L 209.501848 173.792556 
L 213.937041 173.902093 
L 218.372234 174.010651 
L 222.807427 174.121242 
L 227.24262 174.235603 
L 231.677813 174.352264 
L 236.113006 174.465831 
L 240.548199 174.568937 
L 244.983391 174.656024 
L 249.418584 174.726506 
L 253.853777 174.785111 
" style="fill:none;stroke:#424243;stroke-linecap:square;stroke-width:2;"/>
   </g>
   <g id="patch_3">
    <path d="M 25.663101 183.496 
L 264.72 183.496 
" style="fill:none;stroke:#000000;stroke-linecap:square;stroke-linejoin:miter;stroke-width:0.8;"/>
   </g>
  </g>
 </g>
 <defs>
  <clipPath id="pde8728b88d">
   <rect height="160.216" width="239.056899" x="25.663101" y="23.28"/>
  </clipPath>
 </defs>
</svg>
