<?xml version="1.0" encoding="utf-8" standalone="no"?>
<!DOCTYPE svg PUBLIC "-//W3C//DTD SVG 1.1//EN"
  "http://www.w3.org/Graphics/SVG/1.1/DTD/svg11.dtd">
<!-- Created with matplotlib (http://matplotlib.org/) -->
<svg height="288pt" version="1.1" viewBox="0 0 288 288" width="288pt" xmlns="http://www.w3.org/2000/svg" xmlns:xlink="http://www.w3.org/1999/xlink">
 <defs>
  <style type="text/css">
*{stroke-linecap:butt;stroke-linejoin:round;}
  </style>
 </defs>
 <g id="figure_1">
  <g id="patch_1">
   <path d="M 0 288 
L 288 288 
L 288 0 
L 0 0 
z
" style="fill:#ffffff;"/>
  </g>
  <g id="axes_1">
   <g id="patch_2">
    <path d="M 23.175 183.67 
L 264.825 183.67 
L 264.825 23.175 
L 23.175 23.175 
z
" style="fill:#ffffff;"/>
   </g>
   <g id="PolyCollection_1">
    <defs>
     <path d="M 34.159091 -111.625227 
L 34.159091 -153.074301 
L 38.642393 -168.236858 
L 43.125696 -184.412166 
L 47.608998 -200.246982 
L 52.092301 -214.463914 
L 56.575603 -226.180387 
L 61.058905 -235.110402 
L 65.542208 -241.564468 
L 70.02551 -246.24229 
L 74.508813 -249.904917 
L 78.992115 -253.057719 
L 83.475417 -255.748078 
L 87.95872 -257.520494 
L 92.442022 -257.529773 
L 96.925325 -254.793418 
L 101.408627 -248.531672 
L 105.891929 -238.490466 
L 110.375232 -225.115443 
L 114.858534 -209.491509 
L 119.341837 -193.068818 
L 123.825139 -177.29431 
L 128.308442 -163.295223 
L 132.791744 -151.711365 
L 137.275046 -142.691612 
L 141.758349 -136.008632 
L 146.241651 -131.223957 
L 150.724954 -127.843301 
L 155.208256 -125.424082 
L 159.691558 -123.624031 
L 164.174861 -122.203469 
L 168.658163 -121.005393 
L 173.141466 -119.934176 
L 177.624768 -118.941716 
L 182.108071 -118.018664 
L 186.591373 -117.183961 
L 191.074675 -116.469061 
L 195.557978 -115.899666 
L 200.04128 -115.481673 
L 204.524583 -115.196593 
L 209.007885 -115.006918 
L 213.491187 -114.867562 
L 217.97449 -114.737917 
L 222.457792 -114.590349 
L 226.941095 -114.413355 
L 231.424397 -114.20962 
L 235.907699 -113.990461 
L 240.391002 -113.769159 
L 244.874304 -113.556157 
L 249.357607 -113.357908 
L 253.840909 -113.178654 
L 253.840909 -111.625227 
L 253.840909 -111.625227 
L 249.357607 -111.625227 
L 244.874304 -111.625227 
L 240.391002 -111.625227 
L 235.907699 -111.625227 
L 231.424397 -111.625227 
L 226.941095 -111.625227 
L 222.457792 -111.625227 
L 217.97449 -111.625227 
L 213.491187 -111.625227 
L 209.007885 -111.625227 
L 204.524583 -111.625227 
L 200.04128 -111.625227 
L 195.557978 -111.625227 
L 191.074675 -111.625227 
L 186.591373 -111.625227 
L 182.108071 -111.625227 
L 177.624768 -111.625227 
L 173.141466 -111.625227 
L 168.658163 -111.625227 
L 164.174861 -111.625227 
L 159.691558 -111.625227 
L 155.208256 -111.625227 
L 150.724954 -111.625227 
L 146.241651 -111.625227 
L 141.758349 -111.625227 
L 137.275046 -111.625227 
L 132.791744 -111.625227 
L 128.308442 -111.625227 
L 123.825139 -111.625227 
L 119.341837 -111.625227 
L 114.858534 -111.625227 
L 110.375232 -111.625227 
L 105.891929 -111.625227 
L 101.408627 -111.625227 
L 96.925325 -111.625227 
L 92.442022 -111.625227 
L 87.95872 -111.625227 
L 83.475417 -111.625227 
L 78.992115 -111.625227 
L 74.508813 -111.625227 
L 70.02551 -111.625227 
L 65.542208 -111.625227 
L 61.058905 -111.625227 
L 56.575603 -111.625227 
L 52.092301 -111.625227 
L 47.608998 -111.625227 
L 43.125696 -111.625227 
L 38.642393 -111.625227 
L 34.159091 -111.625227 
z
" id="m76aa9a4378" style="stroke:#cc79a7;stroke-opacity:0.3;"/>
    </defs>
    <g clip-path="url(#p138041e575)">
     <use style="fill:#cc79a7;fill-opacity:0.3;stroke:#cc79a7;stroke-opacity:0.3;" x="0" xlink:href="#m76aa9a4378" y="288"/>
    </g>
   </g>
   <g id="PolyCollection_2">
    <defs>
     <path d="M 34.159091 -111.625227 
L 34.159091 -174.382593 
L 38.642393 -188.855956 
L 43.125696 -202.971834 
L 47.608998 -215.718184 
L 52.092301 -226.249801 
L 56.575603 -234.038164 
L 61.058905 -238.940056 
L 65.542208 -241.166939 
L 70.02551 -241.171226 
L 74.508813 -239.491836 
L 78.992115 -236.609797 
L 83.475417 -232.854021 
L 87.95872 -228.375039 
L 92.442022 -223.180689 
L 96.925325 -217.210728 
L 101.408627 -210.420595 
L 105.891929 -202.847514 
L 110.375232 -194.641843 
L 114.858534 -186.059255 
L 119.341837 -177.421346 
L 123.825139 -169.060233 
L 128.308442 -161.264882 
L 132.791744 -154.243223 
L 137.275046 -148.106759 
L 141.758349 -142.876367 
L 146.241651 -138.502285 
L 150.724954 -134.889412 
L 155.208256 -131.920764 
L 159.691558 -129.475499 
L 164.174861 -127.441268 
L 168.658163 -125.722232 
L 173.141466 -124.243745 
L 177.624768 -122.953674 
L 182.108071 -121.819895 
L 186.591373 -120.82437 
L 191.074675 -119.955628 
L 195.557978 -119.202332 
L 200.04128 -118.550093 
L 204.524583 -117.981994 
L 209.007885 -117.481591 
L 213.491187 -117.036153 
L 217.97449 -116.638252 
L 222.457792 -116.284898 
L 226.941095 -115.974754 
L 231.424397 -115.704814 
L 235.907699 -115.468119 
L 240.391002 -115.253524 
L 244.874304 -115.04769 
L 249.357607 -114.838549 
L 253.840909 -114.618943 
L 253.840909 -111.625227 
L 253.840909 -111.625227 
L 249.357607 -111.625227 
L 244.874304 -111.625227 
L 240.391002 -111.625227 
L 235.907699 -111.625227 
L 231.424397 -111.625227 
L 226.941095 -111.625227 
L 222.457792 -111.625227 
L 217.97449 -111.625227 
L 213.491187 -111.625227 
L 209.007885 -111.625227 
L 204.524583 -111.625227 
L 200.04128 -111.625227 
L 195.557978 -111.625227 
L 191.074675 -111.625227 
L 186.591373 -111.625227 
L 182.108071 -111.625227 
L 177.624768 -111.625227 
L 173.141466 -111.625227 
L 168.658163 -111.625227 
L 164.174861 -111.625227 
L 159.691558 -111.625227 
L 155.208256 -111.625227 
L 150.724954 -111.625227 
L 146.241651 -111.625227 
L 141.758349 -111.625227 
L 137.275046 -111.625227 
L 132.791744 -111.625227 
L 128.308442 -111.625227 
L 123.825139 -111.625227 
L 119.341837 -111.625227 
L 114.858534 -111.625227 
L 110.375232 -111.625227 
L 105.891929 -111.625227 
L 101.408627 -111.625227 
L 96.925325 -111.625227 
L 92.442022 -111.625227 
L 87.95872 -111.625227 
L 83.475417 -111.625227 
L 78.992115 -111.625227 
L 74.508813 -111.625227 
L 70.02551 -111.625227 
L 65.542208 -111.625227 
L 61.058905 -111.625227 
L 56.575603 -111.625227 
L 52.092301 -111.625227 
L 47.608998 -111.625227 
L 43.125696 -111.625227 
L 38.642393 -111.625227 
L 34.159091 -111.625227 
z
" id="mb1312f3eaa" style="stroke:#424243;stroke-opacity:0.3;"/>
    </defs>
    <g clip-path="url(#p138041e575)">
     <use style="fill:#424243;fill-opacity:0.3;stroke:#424243;stroke-opacity:0.3;" x="0" xlink:href="#mb1312f3eaa" y="288"/>
    </g>
   </g>
   <g id="matplotlib.axis_1">
    <g id="xtick_1">
     <g id="line2d_1">
      <defs>
       <path d="M 0 0 
L 0 3.5 
" id="m991a7f355c" style="stroke:#000000;stroke-width:0.8;"/>
      </defs>
      <g>
       <use style="stroke:#000000;stroke-width:0.8;" x="93.456797" xlink:href="#m991a7f355c" y="183.67"/>
      </g>
     </g>
     <g id="text_1">
      <!-- 0 -->
      <defs>
       <path d="M 31.78125 66.40625 
Q 24.171875 66.40625 20.328125 58.90625 
Q 16.5 51.421875 16.5 36.375 
Q 16.5 21.390625 20.328125 13.890625 
Q 24.171875 6.390625 31.78125 6.390625 
Q 39.453125 6.390625 43.28125 13.890625 
Q 47.125 21.390625 47.125 36.375 
Q 47.125 51.421875 43.28125 58.90625 
Q 39.453125 66.40625 31.78125 66.40625 
z
M 31.78125 74.21875 
Q 44.046875 74.21875 50.515625 64.515625 
Q 56.984375 54.828125 56.984375 36.375 
Q 56.984375 17.96875 50.515625 8.265625 
Q 44.046875 -1.421875 31.78125 -1.421875 
Q 19.53125 -1.421875 13.0625 8.265625 
Q 6.59375 17.96875 6.59375 36.375 
Q 6.59375 54.828125 13.0625 64.515625 
Q 19.53125 74.21875 31.78125 74.21875 
z
" id="DejaVuSans-30"/>
      </defs>
      <g transform="translate(87.094297 205.866875)scale(0.2 -0.2)">
       <use xlink:href="#DejaVuSans-30"/>
      </g>
     </g>
    </g>
    <g id="xtick_2">
     <g id="line2d_2">
      <g>
       <use style="stroke:#000000;stroke-width:0.8;" x="212.485449" xlink:href="#m991a7f355c" y="183.67"/>
      </g>
     </g>
     <g id="text_2">
      <!-- 2 -->
      <defs>
       <path d="M 19.1875 8.296875 
L 53.609375 8.296875 
L 53.609375 0 
L 7.328125 0 
L 7.328125 8.296875 
Q 12.9375 14.109375 22.625 23.890625 
Q 32.328125 33.6875 34.8125 36.53125 
Q 39.546875 41.84375 41.421875 45.53125 
Q 43.3125 49.21875 43.3125 52.78125 
Q 43.3125 58.59375 39.234375 62.25 
Q 35.15625 65.921875 28.609375 65.921875 
Q 23.96875 65.921875 18.8125 64.3125 
Q 13.671875 62.703125 7.8125 59.421875 
L 7.8125 69.390625 
Q 13.765625 71.78125 18.9375 73 
Q 24.125 74.21875 28.421875 74.21875 
Q 39.75 74.21875 46.484375 68.546875 
Q 53.21875 62.890625 53.21875 53.421875 
Q 53.21875 48.921875 51.53125 44.890625 
Q 49.859375 40.875 45.40625 35.40625 
Q 44.1875 33.984375 37.640625 27.21875 
Q 31.109375 20.453125 19.1875 8.296875 
z
" id="DejaVuSans-32"/>
      </defs>
      <g transform="translate(206.122949 205.866875)scale(0.2 -0.2)">
       <use xlink:href="#DejaVuSans-32"/>
      </g>
     </g>
    </g>
    <g id="text_3">
     <!-- temperature -->
     <defs>
      <path d="M 18.3125 70.21875 
L 18.3125 54.6875 
L 36.8125 54.6875 
L 36.8125 47.703125 
L 18.3125 47.703125 
L 18.3125 18.015625 
Q 18.3125 11.328125 20.140625 9.421875 
Q 21.96875 7.515625 27.59375 7.515625 
L 36.8125 7.515625 
L 36.8125 0 
L 27.59375 0 
Q 17.1875 0 13.234375 3.875 
Q 9.28125 7.765625 9.28125 18.015625 
L 9.28125 47.703125 
L 2.6875 47.703125 
L 2.6875 54.6875 
L 9.28125 54.6875 
L 9.28125 70.21875 
z
" id="DejaVuSans-74"/>
      <path d="M 56.203125 29.59375 
L 56.203125 25.203125 
L 14.890625 25.203125 
Q 15.484375 15.921875 20.484375 11.0625 
Q 25.484375 6.203125 34.421875 6.203125 
Q 39.59375 6.203125 44.453125 7.46875 
Q 49.3125 8.734375 54.109375 11.28125 
L 54.109375 2.78125 
Q 49.265625 0.734375 44.1875 -0.34375 
Q 39.109375 -1.421875 33.890625 -1.421875 
Q 20.796875 -1.421875 13.15625 6.1875 
Q 5.515625 13.8125 5.515625 26.8125 
Q 5.515625 40.234375 12.765625 48.109375 
Q 20.015625 56 32.328125 56 
Q 43.359375 56 49.78125 48.890625 
Q 56.203125 41.796875 56.203125 29.59375 
z
M 47.21875 32.234375 
Q 47.125 39.59375 43.09375 43.984375 
Q 39.0625 48.390625 32.421875 48.390625 
Q 24.90625 48.390625 20.390625 44.140625 
Q 15.875 39.890625 15.1875 32.171875 
z
" id="DejaVuSans-65"/>
      <path d="M 52 44.1875 
Q 55.375 50.25 60.0625 53.125 
Q 64.75 56 71.09375 56 
Q 79.640625 56 84.28125 50.015625 
Q 88.921875 44.046875 88.921875 33.015625 
L 88.921875 0 
L 79.890625 0 
L 79.890625 32.71875 
Q 79.890625 40.578125 77.09375 44.375 
Q 74.3125 48.1875 68.609375 48.1875 
Q 61.625 48.1875 57.5625 43.546875 
Q 53.515625 38.921875 53.515625 30.90625 
L 53.515625 0 
L 44.484375 0 
L 44.484375 32.71875 
Q 44.484375 40.625 41.703125 44.40625 
Q 38.921875 48.1875 33.109375 48.1875 
Q 26.21875 48.1875 22.15625 43.53125 
Q 18.109375 38.875 18.109375 30.90625 
L 18.109375 0 
L 9.078125 0 
L 9.078125 54.6875 
L 18.109375 54.6875 
L 18.109375 46.1875 
Q 21.1875 51.21875 25.484375 53.609375 
Q 29.78125 56 35.6875 56 
Q 41.65625 56 45.828125 52.96875 
Q 50 49.953125 52 44.1875 
z
" id="DejaVuSans-6d"/>
      <path d="M 18.109375 8.203125 
L 18.109375 -20.796875 
L 9.078125 -20.796875 
L 9.078125 54.6875 
L 18.109375 54.6875 
L 18.109375 46.390625 
Q 20.953125 51.265625 25.265625 53.625 
Q 29.59375 56 35.59375 56 
Q 45.5625 56 51.78125 48.09375 
Q 58.015625 40.1875 58.015625 27.296875 
Q 58.015625 14.40625 51.78125 6.484375 
Q 45.5625 -1.421875 35.59375 -1.421875 
Q 29.59375 -1.421875 25.265625 0.953125 
Q 20.953125 3.328125 18.109375 8.203125 
z
M 48.6875 27.296875 
Q 48.6875 37.203125 44.609375 42.84375 
Q 40.53125 48.484375 33.40625 48.484375 
Q 26.265625 48.484375 22.1875 42.84375 
Q 18.109375 37.203125 18.109375 27.296875 
Q 18.109375 17.390625 22.1875 11.75 
Q 26.265625 6.109375 33.40625 6.109375 
Q 40.53125 6.109375 44.609375 11.75 
Q 48.6875 17.390625 48.6875 27.296875 
z
" id="DejaVuSans-70"/>
      <path d="M 41.109375 46.296875 
Q 39.59375 47.171875 37.8125 47.578125 
Q 36.03125 48 33.890625 48 
Q 26.265625 48 22.1875 43.046875 
Q 18.109375 38.09375 18.109375 28.8125 
L 18.109375 0 
L 9.078125 0 
L 9.078125 54.6875 
L 18.109375 54.6875 
L 18.109375 46.1875 
Q 20.953125 51.171875 25.484375 53.578125 
Q 30.03125 56 36.53125 56 
Q 37.453125 56 38.578125 55.875 
Q 39.703125 55.765625 41.0625 55.515625 
z
" id="DejaVuSans-72"/>
      <path d="M 34.28125 27.484375 
Q 23.390625 27.484375 19.1875 25 
Q 14.984375 22.515625 14.984375 16.5 
Q 14.984375 11.71875 18.140625 8.90625 
Q 21.296875 6.109375 26.703125 6.109375 
Q 34.1875 6.109375 38.703125 11.40625 
Q 43.21875 16.703125 43.21875 25.484375 
L 43.21875 27.484375 
z
M 52.203125 31.203125 
L 52.203125 0 
L 43.21875 0 
L 43.21875 8.296875 
Q 40.140625 3.328125 35.546875 0.953125 
Q 30.953125 -1.421875 24.3125 -1.421875 
Q 15.921875 -1.421875 10.953125 3.296875 
Q 6 8.015625 6 15.921875 
Q 6 25.140625 12.171875 29.828125 
Q 18.359375 34.515625 30.609375 34.515625 
L 43.21875 34.515625 
L 43.21875 35.40625 
Q 43.21875 41.609375 39.140625 45 
Q 35.0625 48.390625 27.6875 48.390625 
Q 23 48.390625 18.546875 47.265625 
Q 14.109375 46.140625 10.015625 43.890625 
L 10.015625 52.203125 
Q 14.9375 54.109375 19.578125 55.046875 
Q 24.21875 56 28.609375 56 
Q 40.484375 56 46.34375 49.84375 
Q 52.203125 43.703125 52.203125 31.203125 
z
" id="DejaVuSans-61"/>
      <path d="M 8.5 21.578125 
L 8.5 54.6875 
L 17.484375 54.6875 
L 17.484375 21.921875 
Q 17.484375 14.15625 20.5 10.265625 
Q 23.53125 6.390625 29.59375 6.390625 
Q 36.859375 6.390625 41.078125 11.03125 
Q 45.3125 15.671875 45.3125 23.6875 
L 45.3125 54.6875 
L 54.296875 54.6875 
L 54.296875 0 
L 45.3125 0 
L 45.3125 8.40625 
Q 42.046875 3.421875 37.71875 1 
Q 33.40625 -1.421875 27.6875 -1.421875 
Q 18.265625 -1.421875 13.375 4.4375 
Q 8.5 10.296875 8.5 21.578125 
z
M 31.109375 56 
z
" id="DejaVuSans-75"/>
     </defs>
     <g transform="translate(65.158203 233.022344)scale(0.25 -0.25)">
      <use xlink:href="#DejaVuSans-74"/>
      <use x="39.208984" xlink:href="#DejaVuSans-65"/>
      <use x="100.732422" xlink:href="#DejaVuSans-6d"/>
      <use x="198.144531" xlink:href="#DejaVuSans-70"/>
      <use x="261.621094" xlink:href="#DejaVuSans-65"/>
      <use x="323.144531" xlink:href="#DejaVuSans-72"/>
      <use x="364.257812" xlink:href="#DejaVuSans-61"/>
      <use x="425.537109" xlink:href="#DejaVuSans-74"/>
      <use x="464.746094" xlink:href="#DejaVuSans-75"/>
      <use x="528.125" xlink:href="#DejaVuSans-72"/>
      <use x="569.207031" xlink:href="#DejaVuSans-65"/>
     </g>
     <!-- kurtosis -->
     <defs>
      <path d="M 9.078125 75.984375 
L 18.109375 75.984375 
L 18.109375 31.109375 
L 44.921875 54.6875 
L 56.390625 54.6875 
L 27.390625 29.109375 
L 57.625 0 
L 45.90625 0 
L 18.109375 26.703125 
L 18.109375 0 
L 9.078125 0 
z
" id="DejaVuSans-6b"/>
      <path d="M 30.609375 48.390625 
Q 23.390625 48.390625 19.1875 42.75 
Q 14.984375 37.109375 14.984375 27.296875 
Q 14.984375 17.484375 19.15625 11.84375 
Q 23.34375 6.203125 30.609375 6.203125 
Q 37.796875 6.203125 41.984375 11.859375 
Q 46.1875 17.53125 46.1875 27.296875 
Q 46.1875 37.015625 41.984375 42.703125 
Q 37.796875 48.390625 30.609375 48.390625 
z
M 30.609375 56 
Q 42.328125 56 49.015625 48.375 
Q 55.71875 40.765625 55.71875 27.296875 
Q 55.71875 13.875 49.015625 6.21875 
Q 42.328125 -1.421875 30.609375 -1.421875 
Q 18.84375 -1.421875 12.171875 6.21875 
Q 5.515625 13.875 5.515625 27.296875 
Q 5.515625 40.765625 12.171875 48.375 
Q 18.84375 56 30.609375 56 
z
" id="DejaVuSans-6f"/>
      <path d="M 44.28125 53.078125 
L 44.28125 44.578125 
Q 40.484375 46.53125 36.375 47.5 
Q 32.28125 48.484375 27.875 48.484375 
Q 21.1875 48.484375 17.84375 46.4375 
Q 14.5 44.390625 14.5 40.28125 
Q 14.5 37.15625 16.890625 35.375 
Q 19.28125 33.59375 26.515625 31.984375 
L 29.59375 31.296875 
Q 39.15625 29.25 43.1875 25.515625 
Q 47.21875 21.78125 47.21875 15.09375 
Q 47.21875 7.46875 41.1875 3.015625 
Q 35.15625 -1.421875 24.609375 -1.421875 
Q 20.21875 -1.421875 15.453125 -0.5625 
Q 10.6875 0.296875 5.421875 2 
L 5.421875 11.28125 
Q 10.40625 8.6875 15.234375 7.390625 
Q 20.0625 6.109375 24.8125 6.109375 
Q 31.15625 6.109375 34.5625 8.28125 
Q 37.984375 10.453125 37.984375 14.40625 
Q 37.984375 18.0625 35.515625 20.015625 
Q 33.0625 21.96875 24.703125 23.78125 
L 21.578125 24.515625 
Q 13.234375 26.265625 9.515625 29.90625 
Q 5.8125 33.546875 5.8125 39.890625 
Q 5.8125 47.609375 11.28125 51.796875 
Q 16.75 56 26.8125 56 
Q 31.78125 56 36.171875 55.265625 
Q 40.578125 54.546875 44.28125 53.078125 
z
" id="DejaVuSans-73"/>
      <path d="M 9.421875 54.6875 
L 18.40625 54.6875 
L 18.40625 0 
L 9.421875 0 
z
M 9.421875 75.984375 
L 18.40625 75.984375 
L 18.40625 64.59375 
L 9.421875 64.59375 
z
" id="DejaVuSans-69"/>
     </defs>
     <g transform="translate(94.662109 261.016875)scale(0.25 -0.25)">
      <use xlink:href="#DejaVuSans-6b"/>
      <use x="57.863281" xlink:href="#DejaVuSans-75"/>
      <use x="121.242188" xlink:href="#DejaVuSans-72"/>
      <use x="162.355469" xlink:href="#DejaVuSans-74"/>
      <use x="201.564453" xlink:href="#DejaVuSans-6f"/>
      <use x="262.746094" xlink:href="#DejaVuSans-73"/>
      <use x="314.845703" xlink:href="#DejaVuSans-69"/>
      <use x="342.628906" xlink:href="#DejaVuSans-73"/>
     </g>
    </g>
   </g>
   <g id="line2d_3">
    <path clip-path="url(#p138041e575)" d="M 34.159091 134.925699 
L 38.642393 119.763142 
L 43.125696 103.587834 
L 47.608998 87.753018 
L 52.092301 73.536086 
L 56.575603 61.819613 
L 61.058905 52.889598 
L 65.542208 46.435532 
L 70.02551 41.75771 
L 74.508813 38.095083 
L 78.992115 34.942281 
L 83.475417 32.251922 
L 87.95872 30.479506 
L 92.442022 30.470227 
L 96.925325 33.206582 
L 101.408627 39.468328 
L 105.891929 49.509534 
L 110.375232 62.884557 
L 114.858534 78.508491 
L 119.341837 94.931182 
L 123.825139 110.70569 
L 128.308442 124.704777 
L 132.791744 136.288635 
L 137.275046 145.308388 
L 141.758349 151.991368 
L 146.241651 156.776043 
L 150.724954 160.156699 
L 155.208256 162.575918 
L 159.691558 164.375969 
L 164.174861 165.796531 
L 168.658163 166.994607 
L 173.141466 168.065824 
L 177.624768 169.058284 
L 182.108071 169.981336 
L 186.591373 170.816039 
L 191.074675 171.530939 
L 195.557978 172.100334 
L 200.04128 172.518327 
L 204.524583 172.803407 
L 209.007885 172.993082 
L 213.491187 173.132438 
L 217.97449 173.262083 
L 222.457792 173.409651 
L 226.941095 173.586645 
L 231.424397 173.79038 
L 235.907699 174.009539 
L 240.391002 174.230841 
L 244.874304 174.443843 
L 249.357607 174.642092 
L 253.840909 174.821346 
" style="fill:none;stroke:#cc79a7;stroke-linecap:square;stroke-width:2;"/>
   </g>
   <g id="line2d_4">
    <path clip-path="url(#p138041e575)" d="M 34.159091 113.617407 
L 38.642393 99.144044 
L 43.125696 85.028166 
L 47.608998 72.281816 
L 52.092301 61.750199 
L 56.575603 53.961836 
L 61.058905 49.059944 
L 65.542208 46.833061 
L 70.02551 46.828774 
L 74.508813 48.508164 
L 78.992115 51.390203 
L 83.475417 55.145979 
L 87.95872 59.624961 
L 92.442022 64.819311 
L 96.925325 70.789272 
L 101.408627 77.579405 
L 105.891929 85.152486 
L 110.375232 93.358157 
L 114.858534 101.940745 
L 119.341837 110.578654 
L 123.825139 118.939767 
L 128.308442 126.735118 
L 132.791744 133.756777 
L 137.275046 139.893241 
L 141.758349 145.123633 
L 146.241651 149.497715 
L 150.724954 153.110588 
L 155.208256 156.079236 
L 159.691558 158.524501 
L 164.174861 160.558732 
L 168.658163 162.277768 
L 173.141466 163.756255 
L 177.624768 165.046326 
L 182.108071 166.180105 
L 186.591373 167.17563 
L 191.074675 168.044372 
L 195.557978 168.797668 
L 200.04128 169.449907 
L 204.524583 170.018006 
L 209.007885 170.518409 
L 213.491187 170.963847 
L 217.97449 171.361748 
L 222.457792 171.715102 
L 226.941095 172.025246 
L 231.424397 172.295186 
L 235.907699 172.531881 
L 240.391002 172.746476 
L 244.874304 172.95231 
L 249.357607 173.161451 
L 253.840909 173.381057 
" style="fill:none;stroke:#424243;stroke-linecap:square;stroke-width:2;"/>
   </g>
   <g id="patch_3">
    <path d="M 23.175 183.67 
L 264.825 183.67 
" style="fill:none;stroke:#000000;stroke-linecap:square;stroke-linejoin:miter;stroke-width:0.8;"/>
   </g>
  </g>
 </g>
 <defs>
  <clipPath id="p138041e575">
   <rect height="160.495" width="241.65" x="23.175" y="23.175"/>
  </clipPath>
 </defs>
</svg>
