<?xml version="1.0" encoding="utf-8" standalone="no"?>
<!DOCTYPE svg PUBLIC "-//W3C//DTD SVG 1.1//EN"
  "http://www.w3.org/Graphics/SVG/1.1/DTD/svg11.dtd">
<!-- Created with matplotlib (http://matplotlib.org/) -->
<svg height="288pt" version="1.1" viewBox="0 0 288 288" width="288pt" xmlns="http://www.w3.org/2000/svg" xmlns:xlink="http://www.w3.org/1999/xlink">
 <defs>
  <style type="text/css">
*{stroke-linecap:butt;stroke-linejoin:round;}
  </style>
 </defs>
 <g id="figure_1">
  <g id="patch_1">
   <path d="M 0 288 
L 288 288 
L 288 0 
L 0 0 
z
" style="fill:#ffffff;"/>
  </g>
  <g id="axes_1">
   <g id="patch_2">
    <path d="M 23.175 183.67 
L 264.825 183.67 
L 264.825 23.175 
L 23.175 23.175 
z
" style="fill:#ffffff;"/>
   </g>
   <g id="PolyCollection_1">
    <defs>
     <path d="M 34.159091 -111.625227 
L 34.159091 -114.387289 
L 38.642393 -115.020803 
L 43.125696 -115.704888 
L 47.608998 -116.364968 
L 52.092301 -117.008901 
L 56.575603 -117.763914 
L 61.058905 -118.811816 
L 65.542208 -120.26553 
L 70.02551 -122.094405 
L 74.508813 -124.168586 
L 78.992115 -126.395536 
L 83.475417 -128.841657 
L 87.95872 -131.723139 
L 92.442022 -135.246185 
L 96.925325 -139.433589 
L 101.408627 -144.127322 
L 105.891929 -149.191778 
L 110.375232 -154.709191 
L 114.858534 -160.932372 
L 119.341837 -167.991505 
L 123.825139 -175.598874 
L 128.308442 -183.006298 
L 132.791744 -189.261767 
L 137.275046 -193.609606 
L 141.758349 -195.815291 
L 146.241651 -196.239995 
L 150.724954 -195.633144 
L 155.208256 -194.828515 
L 159.691558 -194.606534 
L 164.174861 -195.761155 
L 168.658163 -199.110855 
L 173.141466 -205.189047 
L 177.624768 -213.66484 
L 182.108071 -222.884612 
L 186.591373 -230.026416 
L 191.074675 -232.099895 
L 195.557978 -227.417611 
L 200.04128 -216.578388 
L 204.524583 -202.116667 
L 209.007885 -186.982414 
L 213.491187 -173.041308 
L 217.97449 -160.694974 
L 222.457792 -149.599775 
L 226.941095 -139.561438 
L 231.424397 -130.839174 
L 235.907699 -123.861072 
L 240.391002 -118.826701 
L 244.874304 -115.561467 
L 249.357607 -113.640219 
L 253.840909 -112.597418 
L 253.840909 -111.625227 
L 253.840909 -111.625227 
L 249.357607 -111.625227 
L 244.874304 -111.625227 
L 240.391002 -111.625227 
L 235.907699 -111.625227 
L 231.424397 -111.625227 
L 226.941095 -111.625227 
L 222.457792 -111.625227 
L 217.97449 -111.625227 
L 213.491187 -111.625227 
L 209.007885 -111.625227 
L 204.524583 -111.625227 
L 200.04128 -111.625227 
L 195.557978 -111.625227 
L 191.074675 -111.625227 
L 186.591373 -111.625227 
L 182.108071 -111.625227 
L 177.624768 -111.625227 
L 173.141466 -111.625227 
L 168.658163 -111.625227 
L 164.174861 -111.625227 
L 159.691558 -111.625227 
L 155.208256 -111.625227 
L 150.724954 -111.625227 
L 146.241651 -111.625227 
L 141.758349 -111.625227 
L 137.275046 -111.625227 
L 132.791744 -111.625227 
L 128.308442 -111.625227 
L 123.825139 -111.625227 
L 119.341837 -111.625227 
L 114.858534 -111.625227 
L 110.375232 -111.625227 
L 105.891929 -111.625227 
L 101.408627 -111.625227 
L 96.925325 -111.625227 
L 92.442022 -111.625227 
L 87.95872 -111.625227 
L 83.475417 -111.625227 
L 78.992115 -111.625227 
L 74.508813 -111.625227 
L 70.02551 -111.625227 
L 65.542208 -111.625227 
L 61.058905 -111.625227 
L 56.575603 -111.625227 
L 52.092301 -111.625227 
L 47.608998 -111.625227 
L 43.125696 -111.625227 
L 38.642393 -111.625227 
L 34.159091 -111.625227 
z
" id="m54d110b511" style="stroke:#cc79a7;stroke-opacity:0.3;"/>
    </defs>
    <g clip-path="url(#p31d4b92390)">
     <use style="fill:#cc79a7;fill-opacity:0.3;stroke:#cc79a7;stroke-opacity:0.3;" x="0" xlink:href="#m54d110b511" y="288"/>
    </g>
   </g>
   <g id="PolyCollection_2">
    <defs>
     <path d="M 34.159091 -111.625227 
L 34.159091 -118.585151 
L 38.642393 -119.70982 
L 43.125696 -121.067956 
L 47.608998 -122.666611 
L 52.092301 -124.489547 
L 56.575603 -126.504249 
L 61.058905 -128.675179 
L 65.542208 -130.97599 
L 70.02551 -133.393769 
L 74.508813 -135.923544 
L 78.992115 -138.557366 
L 83.475417 -141.27559 
L 87.95872 -144.046304 
L 92.442022 -146.833822 
L 96.925325 -149.611533 
L 101.408627 -152.371565 
L 105.891929 -155.124748 
L 110.375232 -157.888495 
L 114.858534 -160.665692 
L 119.341837 -163.422745 
L 123.825139 -166.077803 
L 128.308442 -168.508696 
L 132.791744 -170.583684 
L 137.275046 -172.208704 
L 141.758349 -173.376663 
L 146.241651 -174.201352 
L 150.724954 -174.921864 
L 155.208256 -175.871089 
L 159.691558 -177.409936 
L 164.174861 -179.835138 
L 168.658163 -183.274794 
L 173.141466 -187.596005 
L 177.624768 -192.360832 
L 182.108071 -196.867705 
L 186.591373 -200.2918 
L 191.074675 -201.891715 
L 195.557978 -201.206834 
L 200.04128 -198.163108 
L 204.524583 -193.047002 
L 209.007885 -186.374304 
L 213.491187 -178.728181 
L 217.97449 -170.639444 
L 222.457792 -162.538641 
L 226.941095 -154.760647 
L 231.424397 -147.561737 
L 235.907699 -141.123063 
L 240.391002 -135.542333 
L 244.874304 -130.83159 
L 249.357607 -126.933758 
L 253.840909 -123.754186 
L 253.840909 -111.625227 
L 253.840909 -111.625227 
L 249.357607 -111.625227 
L 244.874304 -111.625227 
L 240.391002 -111.625227 
L 235.907699 -111.625227 
L 231.424397 -111.625227 
L 226.941095 -111.625227 
L 222.457792 -111.625227 
L 217.97449 -111.625227 
L 213.491187 -111.625227 
L 209.007885 -111.625227 
L 204.524583 -111.625227 
L 200.04128 -111.625227 
L 195.557978 -111.625227 
L 191.074675 -111.625227 
L 186.591373 -111.625227 
L 182.108071 -111.625227 
L 177.624768 -111.625227 
L 173.141466 -111.625227 
L 168.658163 -111.625227 
L 164.174861 -111.625227 
L 159.691558 -111.625227 
L 155.208256 -111.625227 
L 150.724954 -111.625227 
L 146.241651 -111.625227 
L 141.758349 -111.625227 
L 137.275046 -111.625227 
L 132.791744 -111.625227 
L 128.308442 -111.625227 
L 123.825139 -111.625227 
L 119.341837 -111.625227 
L 114.858534 -111.625227 
L 110.375232 -111.625227 
L 105.891929 -111.625227 
L 101.408627 -111.625227 
L 96.925325 -111.625227 
L 92.442022 -111.625227 
L 87.95872 -111.625227 
L 83.475417 -111.625227 
L 78.992115 -111.625227 
L 74.508813 -111.625227 
L 70.02551 -111.625227 
L 65.542208 -111.625227 
L 61.058905 -111.625227 
L 56.575603 -111.625227 
L 52.092301 -111.625227 
L 47.608998 -111.625227 
L 43.125696 -111.625227 
L 38.642393 -111.625227 
L 34.159091 -111.625227 
z
" id="md9b91b85db" style="stroke:#424243;stroke-opacity:0.3;"/>
    </defs>
    <g clip-path="url(#p31d4b92390)">
     <use style="fill:#424243;fill-opacity:0.3;stroke:#424243;stroke-opacity:0.3;" x="0" xlink:href="#md9b91b85db" y="288"/>
    </g>
   </g>
   <g id="matplotlib.axis_1">
    <g id="xtick_1">
     <g id="line2d_1">
      <defs>
       <path d="M 0 0 
L 0 3.5 
" id="me7c0847f8a" style="stroke:#000000;stroke-width:0.8;"/>
      </defs>
      <g>
       <use style="stroke:#000000;stroke-width:0.8;" x="74.947259" xlink:href="#me7c0847f8a" y="183.67"/>
      </g>
     </g>
     <g id="text_1">
      <!-- −1 -->
      <defs>
       <path d="M 10.59375 35.5 
L 73.1875 35.5 
L 73.1875 27.203125 
L 10.59375 27.203125 
z
" id="DejaVuSans-2212"/>
       <path d="M 12.40625 8.296875 
L 28.515625 8.296875 
L 28.515625 63.921875 
L 10.984375 60.40625 
L 10.984375 69.390625 
L 28.421875 72.90625 
L 38.28125 72.90625 
L 38.28125 8.296875 
L 54.390625 8.296875 
L 54.390625 0 
L 12.40625 0 
z
" id="DejaVuSans-31"/>
      </defs>
      <g transform="translate(60.205071 205.866875)scale(0.2 -0.2)">
       <use xlink:href="#DejaVuSans-2212"/>
       <use x="83.789062" xlink:href="#DejaVuSans-31"/>
      </g>
     </g>
    </g>
    <g id="xtick_2">
     <g id="line2d_2">
      <g>
       <use style="stroke:#000000;stroke-width:0.8;" x="182.662445" xlink:href="#me7c0847f8a" y="183.67"/>
      </g>
     </g>
     <g id="text_2">
      <!-- 0 -->
      <defs>
       <path d="M 31.78125 66.40625 
Q 24.171875 66.40625 20.328125 58.90625 
Q 16.5 51.421875 16.5 36.375 
Q 16.5 21.390625 20.328125 13.890625 
Q 24.171875 6.390625 31.78125 6.390625 
Q 39.453125 6.390625 43.28125 13.890625 
Q 47.125 21.390625 47.125 36.375 
Q 47.125 51.421875 43.28125 58.90625 
Q 39.453125 66.40625 31.78125 66.40625 
z
M 31.78125 74.21875 
Q 44.046875 74.21875 50.515625 64.515625 
Q 56.984375 54.828125 56.984375 36.375 
Q 56.984375 17.96875 50.515625 8.265625 
Q 44.046875 -1.421875 31.78125 -1.421875 
Q 19.53125 -1.421875 13.0625 8.265625 
Q 6.59375 17.96875 6.59375 36.375 
Q 6.59375 54.828125 13.0625 64.515625 
Q 19.53125 74.21875 31.78125 74.21875 
z
" id="DejaVuSans-30"/>
      </defs>
      <g transform="translate(176.299945 205.866875)scale(0.2 -0.2)">
       <use xlink:href="#DejaVuSans-30"/>
      </g>
     </g>
    </g>
    <g id="text_3">
     <!-- cloud cover -->
     <defs>
      <path d="M 48.78125 52.59375 
L 48.78125 44.1875 
Q 44.96875 46.296875 41.140625 47.34375 
Q 37.3125 48.390625 33.40625 48.390625 
Q 24.65625 48.390625 19.8125 42.84375 
Q 14.984375 37.3125 14.984375 27.296875 
Q 14.984375 17.28125 19.8125 11.734375 
Q 24.65625 6.203125 33.40625 6.203125 
Q 37.3125 6.203125 41.140625 7.25 
Q 44.96875 8.296875 48.78125 10.40625 
L 48.78125 2.09375 
Q 45.015625 0.34375 40.984375 -0.53125 
Q 36.96875 -1.421875 32.421875 -1.421875 
Q 20.0625 -1.421875 12.78125 6.34375 
Q 5.515625 14.109375 5.515625 27.296875 
Q 5.515625 40.671875 12.859375 48.328125 
Q 20.21875 56 33.015625 56 
Q 37.15625 56 41.109375 55.140625 
Q 45.0625 54.296875 48.78125 52.59375 
z
" id="DejaVuSans-63"/>
      <path d="M 9.421875 75.984375 
L 18.40625 75.984375 
L 18.40625 0 
L 9.421875 0 
z
" id="DejaVuSans-6c"/>
      <path d="M 30.609375 48.390625 
Q 23.390625 48.390625 19.1875 42.75 
Q 14.984375 37.109375 14.984375 27.296875 
Q 14.984375 17.484375 19.15625 11.84375 
Q 23.34375 6.203125 30.609375 6.203125 
Q 37.796875 6.203125 41.984375 11.859375 
Q 46.1875 17.53125 46.1875 27.296875 
Q 46.1875 37.015625 41.984375 42.703125 
Q 37.796875 48.390625 30.609375 48.390625 
z
M 30.609375 56 
Q 42.328125 56 49.015625 48.375 
Q 55.71875 40.765625 55.71875 27.296875 
Q 55.71875 13.875 49.015625 6.21875 
Q 42.328125 -1.421875 30.609375 -1.421875 
Q 18.84375 -1.421875 12.171875 6.21875 
Q 5.515625 13.875 5.515625 27.296875 
Q 5.515625 40.765625 12.171875 48.375 
Q 18.84375 56 30.609375 56 
z
" id="DejaVuSans-6f"/>
      <path d="M 8.5 21.578125 
L 8.5 54.6875 
L 17.484375 54.6875 
L 17.484375 21.921875 
Q 17.484375 14.15625 20.5 10.265625 
Q 23.53125 6.390625 29.59375 6.390625 
Q 36.859375 6.390625 41.078125 11.03125 
Q 45.3125 15.671875 45.3125 23.6875 
L 45.3125 54.6875 
L 54.296875 54.6875 
L 54.296875 0 
L 45.3125 0 
L 45.3125 8.40625 
Q 42.046875 3.421875 37.71875 1 
Q 33.40625 -1.421875 27.6875 -1.421875 
Q 18.265625 -1.421875 13.375 4.4375 
Q 8.5 10.296875 8.5 21.578125 
z
M 31.109375 56 
z
" id="DejaVuSans-75"/>
      <path d="M 45.40625 46.390625 
L 45.40625 75.984375 
L 54.390625 75.984375 
L 54.390625 0 
L 45.40625 0 
L 45.40625 8.203125 
Q 42.578125 3.328125 38.25 0.953125 
Q 33.9375 -1.421875 27.875 -1.421875 
Q 17.96875 -1.421875 11.734375 6.484375 
Q 5.515625 14.40625 5.515625 27.296875 
Q 5.515625 40.1875 11.734375 48.09375 
Q 17.96875 56 27.875 56 
Q 33.9375 56 38.25 53.625 
Q 42.578125 51.265625 45.40625 46.390625 
z
M 14.796875 27.296875 
Q 14.796875 17.390625 18.875 11.75 
Q 22.953125 6.109375 30.078125 6.109375 
Q 37.203125 6.109375 41.296875 11.75 
Q 45.40625 17.390625 45.40625 27.296875 
Q 45.40625 37.203125 41.296875 42.84375 
Q 37.203125 48.484375 30.078125 48.484375 
Q 22.953125 48.484375 18.875 42.84375 
Q 14.796875 37.203125 14.796875 27.296875 
z
" id="DejaVuSans-64"/>
      <path id="DejaVuSans-20"/>
      <path d="M 2.984375 54.6875 
L 12.5 54.6875 
L 29.59375 8.796875 
L 46.6875 54.6875 
L 56.203125 54.6875 
L 35.6875 0 
L 23.484375 0 
z
" id="DejaVuSans-76"/>
      <path d="M 56.203125 29.59375 
L 56.203125 25.203125 
L 14.890625 25.203125 
Q 15.484375 15.921875 20.484375 11.0625 
Q 25.484375 6.203125 34.421875 6.203125 
Q 39.59375 6.203125 44.453125 7.46875 
Q 49.3125 8.734375 54.109375 11.28125 
L 54.109375 2.78125 
Q 49.265625 0.734375 44.1875 -0.34375 
Q 39.109375 -1.421875 33.890625 -1.421875 
Q 20.796875 -1.421875 13.15625 6.1875 
Q 5.515625 13.8125 5.515625 26.8125 
Q 5.515625 40.234375 12.765625 48.109375 
Q 20.015625 56 32.328125 56 
Q 43.359375 56 49.78125 48.890625 
Q 56.203125 41.796875 56.203125 29.59375 
z
M 47.21875 32.234375 
Q 47.125 39.59375 43.09375 43.984375 
Q 39.0625 48.390625 32.421875 48.390625 
Q 24.90625 48.390625 20.390625 44.140625 
Q 15.875 39.890625 15.1875 32.171875 
z
" id="DejaVuSans-65"/>
      <path d="M 41.109375 46.296875 
Q 39.59375 47.171875 37.8125 47.578125 
Q 36.03125 48 33.890625 48 
Q 26.265625 48 22.1875 43.046875 
Q 18.109375 38.09375 18.109375 28.8125 
L 18.109375 0 
L 9.078125 0 
L 9.078125 54.6875 
L 18.109375 54.6875 
L 18.109375 46.1875 
Q 20.953125 51.171875 25.484375 53.578125 
Q 30.03125 56 36.53125 56 
Q 37.453125 56 38.578125 55.875 
Q 39.703125 55.765625 41.0625 55.515625 
z
" id="DejaVuSans-72"/>
     </defs>
     <g transform="translate(71.425781 233.022344)scale(0.25 -0.25)">
      <use xlink:href="#DejaVuSans-63"/>
      <use x="54.980469" xlink:href="#DejaVuSans-6c"/>
      <use x="82.763672" xlink:href="#DejaVuSans-6f"/>
      <use x="143.945312" xlink:href="#DejaVuSans-75"/>
      <use x="207.324219" xlink:href="#DejaVuSans-64"/>
      <use x="270.800781" xlink:href="#DejaVuSans-20"/>
      <use x="302.587891" xlink:href="#DejaVuSans-63"/>
      <use x="357.568359" xlink:href="#DejaVuSans-6f"/>
      <use x="418.75" xlink:href="#DejaVuSans-76"/>
      <use x="477.929688" xlink:href="#DejaVuSans-65"/>
      <use x="539.453125" xlink:href="#DejaVuSans-72"/>
     </g>
     <!-- skew -->
     <defs>
      <path d="M 44.28125 53.078125 
L 44.28125 44.578125 
Q 40.484375 46.53125 36.375 47.5 
Q 32.28125 48.484375 27.875 48.484375 
Q 21.1875 48.484375 17.84375 46.4375 
Q 14.5 44.390625 14.5 40.28125 
Q 14.5 37.15625 16.890625 35.375 
Q 19.28125 33.59375 26.515625 31.984375 
L 29.59375 31.296875 
Q 39.15625 29.25 43.1875 25.515625 
Q 47.21875 21.78125 47.21875 15.09375 
Q 47.21875 7.46875 41.1875 3.015625 
Q 35.15625 -1.421875 24.609375 -1.421875 
Q 20.21875 -1.421875 15.453125 -0.5625 
Q 10.6875 0.296875 5.421875 2 
L 5.421875 11.28125 
Q 10.40625 8.6875 15.234375 7.390625 
Q 20.0625 6.109375 24.8125 6.109375 
Q 31.15625 6.109375 34.5625 8.28125 
Q 37.984375 10.453125 37.984375 14.40625 
Q 37.984375 18.0625 35.515625 20.015625 
Q 33.0625 21.96875 24.703125 23.78125 
L 21.578125 24.515625 
Q 13.234375 26.265625 9.515625 29.90625 
Q 5.8125 33.546875 5.8125 39.890625 
Q 5.8125 47.609375 11.28125 51.796875 
Q 16.75 56 26.8125 56 
Q 31.78125 56 36.171875 55.265625 
Q 40.578125 54.546875 44.28125 53.078125 
z
" id="DejaVuSans-73"/>
      <path d="M 9.078125 75.984375 
L 18.109375 75.984375 
L 18.109375 31.109375 
L 44.921875 54.6875 
L 56.390625 54.6875 
L 27.390625 29.109375 
L 57.625 0 
L 45.90625 0 
L 18.109375 26.703125 
L 18.109375 0 
L 9.078125 0 
z
" id="DejaVuSans-6b"/>
      <path d="M 4.203125 54.6875 
L 13.1875 54.6875 
L 24.421875 12.015625 
L 35.59375 54.6875 
L 46.1875 54.6875 
L 57.421875 12.015625 
L 68.609375 54.6875 
L 77.59375 54.6875 
L 63.28125 0 
L 52.6875 0 
L 40.921875 44.828125 
L 29.109375 0 
L 18.5 0 
z
" id="DejaVuSans-77"/>
     </defs>
     <g transform="translate(112.341797 261.016875)scale(0.25 -0.25)">
      <use xlink:href="#DejaVuSans-73"/>
      <use x="52.099609" xlink:href="#DejaVuSans-6b"/>
      <use x="109.962891" xlink:href="#DejaVuSans-65"/>
      <use x="171.486328" xlink:href="#DejaVuSans-77"/>
     </g>
    </g>
   </g>
   <g id="line2d_3">
    <path clip-path="url(#p31d4b92390)" d="M 34.159091 173.612711 
L 38.642393 172.979197 
L 43.125696 172.295112 
L 47.608998 171.635032 
L 52.092301 170.991099 
L 56.575603 170.236086 
L 61.058905 169.188184 
L 65.542208 167.73447 
L 70.02551 165.905595 
L 74.508813 163.831414 
L 78.992115 161.604464 
L 83.475417 159.158343 
L 87.95872 156.276861 
L 92.442022 152.753815 
L 96.925325 148.566411 
L 101.408627 143.872678 
L 105.891929 138.808222 
L 110.375232 133.290809 
L 114.858534 127.067628 
L 119.341837 120.008495 
L 123.825139 112.401126 
L 128.308442 104.993702 
L 132.791744 98.738233 
L 137.275046 94.390394 
L 141.758349 92.184709 
L 146.241651 91.760005 
L 150.724954 92.366856 
L 155.208256 93.171485 
L 159.691558 93.393466 
L 164.174861 92.238845 
L 168.658163 88.889145 
L 173.141466 82.810953 
L 177.624768 74.33516 
L 182.108071 65.115388 
L 186.591373 57.973584 
L 191.074675 55.900105 
L 195.557978 60.582389 
L 200.04128 71.421612 
L 204.524583 85.883333 
L 209.007885 101.017586 
L 213.491187 114.958692 
L 217.97449 127.305026 
L 222.457792 138.400225 
L 226.941095 148.438562 
L 231.424397 157.160826 
L 235.907699 164.138928 
L 240.391002 169.173299 
L 244.874304 172.438533 
L 249.357607 174.359781 
L 253.840909 175.402582 
" style="fill:none;stroke:#cc79a7;stroke-linecap:square;stroke-width:2;"/>
   </g>
   <g id="line2d_4">
    <path clip-path="url(#p31d4b92390)" d="M 34.159091 169.414849 
L 38.642393 168.29018 
L 43.125696 166.932044 
L 47.608998 165.333389 
L 52.092301 163.510453 
L 56.575603 161.495751 
L 61.058905 159.324821 
L 65.542208 157.02401 
L 70.02551 154.606231 
L 74.508813 152.076456 
L 78.992115 149.442634 
L 83.475417 146.72441 
L 87.95872 143.953696 
L 92.442022 141.166178 
L 96.925325 138.388467 
L 101.408627 135.628435 
L 105.891929 132.875252 
L 110.375232 130.111505 
L 114.858534 127.334308 
L 119.341837 124.577255 
L 123.825139 121.922197 
L 128.308442 119.491304 
L 132.791744 117.416316 
L 137.275046 115.791296 
L 141.758349 114.623337 
L 146.241651 113.798648 
L 150.724954 113.078136 
L 155.208256 112.128911 
L 159.691558 110.590064 
L 164.174861 108.164862 
L 168.658163 104.725206 
L 173.141466 100.403995 
L 177.624768 95.639168 
L 182.108071 91.132295 
L 186.591373 87.7082 
L 191.074675 86.108285 
L 195.557978 86.793166 
L 200.04128 89.836892 
L 204.524583 94.952998 
L 209.007885 101.625696 
L 213.491187 109.271819 
L 217.97449 117.360556 
L 222.457792 125.461359 
L 226.941095 133.239353 
L 231.424397 140.438263 
L 235.907699 146.876937 
L 240.391002 152.457667 
L 244.874304 157.16841 
L 249.357607 161.066242 
L 253.840909 164.245814 
" style="fill:none;stroke:#424243;stroke-linecap:square;stroke-width:2;"/>
   </g>
   <g id="patch_3">
    <path d="M 23.175 183.67 
L 264.825 183.67 
" style="fill:none;stroke:#000000;stroke-linecap:square;stroke-linejoin:miter;stroke-width:0.8;"/>
   </g>
  </g>
 </g>
 <defs>
  <clipPath id="p31d4b92390">
   <rect height="160.495" width="241.65" x="23.175" y="23.175"/>
  </clipPath>
 </defs>
</svg>
