<?xml version="1.0" encoding="utf-8" standalone="no"?>
<!DOCTYPE svg PUBLIC "-//W3C//DTD SVG 1.1//EN"
  "http://www.w3.org/Graphics/SVG/1.1/DTD/svg11.dtd">
<!-- Created with matplotlib (http://matplotlib.org/) -->
<svg height="288pt" version="1.1" viewBox="0 0 288 288" width="288pt" xmlns="http://www.w3.org/2000/svg" xmlns:xlink="http://www.w3.org/1999/xlink">
 <defs>
  <style type="text/css">
*{stroke-linecap:butt;stroke-linejoin:round;}
  </style>
 </defs>
 <g id="figure_1">
  <g id="patch_1">
   <path d="M 0 288 
L 288 288 
L 288 0 
L 0 0 
z
" style="fill:#ffffff;"/>
  </g>
  <g id="axes_1">
   <g id="patch_2">
    <path d="M 23.175 183.67 
L 252.981718 183.67 
L 252.981718 23.175 
L 23.175 23.175 
z
" style="fill:#ffffff;"/>
   </g>
   <g id="PolyCollection_1">
    <defs>
     <path d="M 33.62076 -111.625227 
L 33.62076 -237.962863 
L 37.884335 -253.03522 
L 42.147911 -257.529773 
L 46.411486 -252.176509 
L 50.675062 -240.068906 
L 54.938637 -225.047562 
L 59.202213 -210.225802 
L 63.465788 -197.32096 
L 67.729364 -186.782673 
L 71.992939 -178.307583 
L 76.256515 -171.343399 
L 80.52009 -165.401072 
L 84.783666 -160.174542 
L 89.047241 -155.535617 
L 93.310816 -151.468326 
L 97.574392 -147.988124 
L 101.837967 -145.078437 
L 106.101543 -142.665874 
L 110.365118 -140.637435 
L 114.628694 -138.880499 
L 118.892269 -137.313978 
L 123.155845 -135.889293 
L 127.41942 -134.566993 
L 131.682996 -133.29566 
L 135.946571 -132.015393 
L 140.210147 -130.683663 
L 144.473722 -129.300931 
L 148.737298 -127.914588 
L 153.000873 -126.597846 
L 157.264448 -125.416999 
L 161.528024 -124.404859 
L 165.791599 -123.552521 
L 170.055175 -122.821806 
L 174.31875 -122.169934 
L 178.582326 -121.570058 
L 182.845901 -121.013659 
L 187.109477 -120.495647 
L 191.373052 -119.999074 
L 195.636628 -119.497197 
L 199.900203 -118.973688 
L 204.163779 -118.443606 
L 208.427354 -117.95694 
L 212.69093 -117.582322 
L 216.954505 -117.382322 
L 221.218081 -117.39015 
L 225.481656 -117.588193 
L 229.745231 -117.889476 
L 234.008807 -118.136674 
L 238.272382 -118.139524 
L 242.535958 -117.750758 
L 242.535958 -111.625227 
L 242.535958 -111.625227 
L 238.272382 -111.625227 
L 234.008807 -111.625227 
L 229.745231 -111.625227 
L 225.481656 -111.625227 
L 221.218081 -111.625227 
L 216.954505 -111.625227 
L 212.69093 -111.625227 
L 208.427354 -111.625227 
L 204.163779 -111.625227 
L 199.900203 -111.625227 
L 195.636628 -111.625227 
L 191.373052 -111.625227 
L 187.109477 -111.625227 
L 182.845901 -111.625227 
L 178.582326 -111.625227 
L 174.31875 -111.625227 
L 170.055175 -111.625227 
L 165.791599 -111.625227 
L 161.528024 -111.625227 
L 157.264448 -111.625227 
L 153.000873 -111.625227 
L 148.737298 -111.625227 
L 144.473722 -111.625227 
L 140.210147 -111.625227 
L 135.946571 -111.625227 
L 131.682996 -111.625227 
L 127.41942 -111.625227 
L 123.155845 -111.625227 
L 118.892269 -111.625227 
L 114.628694 -111.625227 
L 110.365118 -111.625227 
L 106.101543 -111.625227 
L 101.837967 -111.625227 
L 97.574392 -111.625227 
L 93.310816 -111.625227 
L 89.047241 -111.625227 
L 84.783666 -111.625227 
L 80.52009 -111.625227 
L 76.256515 -111.625227 
L 71.992939 -111.625227 
L 67.729364 -111.625227 
L 63.465788 -111.625227 
L 59.202213 -111.625227 
L 54.938637 -111.625227 
L 50.675062 -111.625227 
L 46.411486 -111.625227 
L 42.147911 -111.625227 
L 37.884335 -111.625227 
L 33.62076 -111.625227 
z
" id="mb21a9b520e" style="stroke:#cc79a7;stroke-opacity:0.3;"/>
    </defs>
    <g clip-path="url(#p074b92b22e)">
     <use style="fill:#cc79a7;fill-opacity:0.3;stroke:#cc79a7;stroke-opacity:0.3;" x="0" xlink:href="#mb21a9b520e" y="288"/>
    </g>
   </g>
   <g id="PolyCollection_2">
    <defs>
     <path d="M 33.62076 -111.625227 
L 33.62076 -246.728765 
L 37.884335 -250.334775 
L 42.147911 -245.347968 
L 46.411486 -233.590516 
L 50.675062 -217.973343 
L 54.938637 -201.498342 
L 59.202213 -186.449319 
L 63.465788 -174.039865 
L 67.729364 -164.513128 
L 71.992939 -157.497511 
L 76.256515 -152.38905 
L 80.52009 -148.61516 
L 84.783666 -145.746704 
L 89.047241 -143.499963 
L 93.310816 -141.690814 
L 97.574392 -140.188013 
L 101.837967 -138.886238 
L 106.101543 -137.699045 
L 110.365118 -136.562424 
L 114.628694 -135.43919 
L 118.892269 -134.318588 
L 123.155845 -133.210295 
L 127.41942 -132.135134 
L 131.682996 -131.115782 
L 135.946571 -130.170014 
L 140.210147 -129.307612 
L 144.473722 -128.530587 
L 148.737298 -127.835327 
L 153.000873 -127.214941 
L 157.264448 -126.660545 
L 161.528024 -126.161264 
L 165.791599 -125.703686 
L 170.055175 -125.271788 
L 174.31875 -124.848068 
L 178.582326 -124.415986 
L 182.845901 -123.963356 
L 187.109477 -123.486178 
L 191.373052 -122.992299 
L 195.636628 -122.504363 
L 199.900203 -122.06134 
L 204.163779 -121.717417 
L 208.427354 -121.536207 
L 212.69093 -121.577671 
L 216.954505 -121.876427 
L 221.218081 -122.414533 
L 225.481656 -123.09862 
L 229.745231 -123.756285 
L 234.008807 -124.164233 
L 238.272382 -124.107801 
L 242.535958 -123.45306 
L 242.535958 -111.625227 
L 242.535958 -111.625227 
L 238.272382 -111.625227 
L 234.008807 -111.625227 
L 229.745231 -111.625227 
L 225.481656 -111.625227 
L 221.218081 -111.625227 
L 216.954505 -111.625227 
L 212.69093 -111.625227 
L 208.427354 -111.625227 
L 204.163779 -111.625227 
L 199.900203 -111.625227 
L 195.636628 -111.625227 
L 191.373052 -111.625227 
L 187.109477 -111.625227 
L 182.845901 -111.625227 
L 178.582326 -111.625227 
L 174.31875 -111.625227 
L 170.055175 -111.625227 
L 165.791599 -111.625227 
L 161.528024 -111.625227 
L 157.264448 -111.625227 
L 153.000873 -111.625227 
L 148.737298 -111.625227 
L 144.473722 -111.625227 
L 140.210147 -111.625227 
L 135.946571 -111.625227 
L 131.682996 -111.625227 
L 127.41942 -111.625227 
L 123.155845 -111.625227 
L 118.892269 -111.625227 
L 114.628694 -111.625227 
L 110.365118 -111.625227 
L 106.101543 -111.625227 
L 101.837967 -111.625227 
L 97.574392 -111.625227 
L 93.310816 -111.625227 
L 89.047241 -111.625227 
L 84.783666 -111.625227 
L 80.52009 -111.625227 
L 76.256515 -111.625227 
L 71.992939 -111.625227 
L 67.729364 -111.625227 
L 63.465788 -111.625227 
L 59.202213 -111.625227 
L 54.938637 -111.625227 
L 50.675062 -111.625227 
L 46.411486 -111.625227 
L 42.147911 -111.625227 
L 37.884335 -111.625227 
L 33.62076 -111.625227 
z
" id="m02ef973478" style="stroke:#424243;stroke-opacity:0.3;"/>
    </defs>
    <g clip-path="url(#p074b92b22e)">
     <use style="fill:#424243;fill-opacity:0.3;stroke:#424243;stroke-opacity:0.3;" x="0" xlink:href="#m02ef973478" y="288"/>
    </g>
   </g>
   <g id="matplotlib.axis_1">
    <g id="xtick_1">
     <g id="line2d_1">
      <defs>
       <path d="M 0 0 
L 0 3.5 
" id="mddfcb436cb" style="stroke:#000000;stroke-width:0.8;"/>
      </defs>
      <g>
       <use style="stroke:#000000;stroke-width:0.8;" x="33.62076" xlink:href="#mddfcb436cb" y="183.67"/>
      </g>
     </g>
     <g id="text_1">
      <!-- 0 -->
      <defs>
       <path d="M 31.78125 66.40625 
Q 24.171875 66.40625 20.328125 58.90625 
Q 16.5 51.421875 16.5 36.375 
Q 16.5 21.390625 20.328125 13.890625 
Q 24.171875 6.390625 31.78125 6.390625 
Q 39.453125 6.390625 43.28125 13.890625 
Q 47.125 21.390625 47.125 36.375 
Q 47.125 51.421875 43.28125 58.90625 
Q 39.453125 66.40625 31.78125 66.40625 
z
M 31.78125 74.21875 
Q 44.046875 74.21875 50.515625 64.515625 
Q 56.984375 54.828125 56.984375 36.375 
Q 56.984375 17.96875 50.515625 8.265625 
Q 44.046875 -1.421875 31.78125 -1.421875 
Q 19.53125 -1.421875 13.0625 8.265625 
Q 6.59375 17.96875 6.59375 36.375 
Q 6.59375 54.828125 13.0625 64.515625 
Q 19.53125 74.21875 31.78125 74.21875 
z
" id="DejaVuSans-30"/>
      </defs>
      <g transform="translate(27.25826 205.866875)scale(0.2 -0.2)">
       <use xlink:href="#DejaVuSans-30"/>
      </g>
     </g>
    </g>
    <g id="xtick_2">
     <g id="line2d_2">
      <g>
       <use style="stroke:#000000;stroke-width:0.8;" x="139.133486" xlink:href="#mddfcb436cb" y="183.67"/>
      </g>
     </g>
     <g id="text_2">
      <!-- 50 -->
      <defs>
       <path d="M 10.796875 72.90625 
L 49.515625 72.90625 
L 49.515625 64.59375 
L 19.828125 64.59375 
L 19.828125 46.734375 
Q 21.96875 47.46875 24.109375 47.828125 
Q 26.265625 48.1875 28.421875 48.1875 
Q 40.625 48.1875 47.75 41.5 
Q 54.890625 34.8125 54.890625 23.390625 
Q 54.890625 11.625 47.5625 5.09375 
Q 40.234375 -1.421875 26.90625 -1.421875 
Q 22.3125 -1.421875 17.546875 -0.640625 
Q 12.796875 0.140625 7.71875 1.703125 
L 7.71875 11.625 
Q 12.109375 9.234375 16.796875 8.0625 
Q 21.484375 6.890625 26.703125 6.890625 
Q 35.15625 6.890625 40.078125 11.328125 
Q 45.015625 15.765625 45.015625 23.390625 
Q 45.015625 31 40.078125 35.4375 
Q 35.15625 39.890625 26.703125 39.890625 
Q 22.75 39.890625 18.8125 39.015625 
Q 14.890625 38.140625 10.796875 36.28125 
z
" id="DejaVuSans-35"/>
      </defs>
      <g transform="translate(126.408486 205.866875)scale(0.2 -0.2)">
       <use xlink:href="#DejaVuSans-35"/>
       <use x="63.623047" xlink:href="#DejaVuSans-30"/>
      </g>
     </g>
    </g>
    <g id="xtick_3">
     <g id="line2d_3">
      <g>
       <use style="stroke:#000000;stroke-width:0.8;" x="244.646212" xlink:href="#mddfcb436cb" y="183.67"/>
      </g>
     </g>
     <g id="text_3">
      <!-- 100 -->
      <defs>
       <path d="M 12.40625 8.296875 
L 28.515625 8.296875 
L 28.515625 63.921875 
L 10.984375 60.40625 
L 10.984375 69.390625 
L 28.421875 72.90625 
L 38.28125 72.90625 
L 38.28125 8.296875 
L 54.390625 8.296875 
L 54.390625 0 
L 12.40625 0 
z
" id="DejaVuSans-31"/>
      </defs>
      <g transform="translate(225.558712 205.866875)scale(0.2 -0.2)">
       <use xlink:href="#DejaVuSans-31"/>
       <use x="63.623047" xlink:href="#DejaVuSans-30"/>
       <use x="127.246094" xlink:href="#DejaVuSans-30"/>
      </g>
     </g>
    </g>
    <g id="text_4">
     <!-- tree cover -->
     <defs>
      <path d="M 18.3125 70.21875 
L 18.3125 54.6875 
L 36.8125 54.6875 
L 36.8125 47.703125 
L 18.3125 47.703125 
L 18.3125 18.015625 
Q 18.3125 11.328125 20.140625 9.421875 
Q 21.96875 7.515625 27.59375 7.515625 
L 36.8125 7.515625 
L 36.8125 0 
L 27.59375 0 
Q 17.1875 0 13.234375 3.875 
Q 9.28125 7.765625 9.28125 18.015625 
L 9.28125 47.703125 
L 2.6875 47.703125 
L 2.6875 54.6875 
L 9.28125 54.6875 
L 9.28125 70.21875 
z
" id="DejaVuSans-74"/>
      <path d="M 41.109375 46.296875 
Q 39.59375 47.171875 37.8125 47.578125 
Q 36.03125 48 33.890625 48 
Q 26.265625 48 22.1875 43.046875 
Q 18.109375 38.09375 18.109375 28.8125 
L 18.109375 0 
L 9.078125 0 
L 9.078125 54.6875 
L 18.109375 54.6875 
L 18.109375 46.1875 
Q 20.953125 51.171875 25.484375 53.578125 
Q 30.03125 56 36.53125 56 
Q 37.453125 56 38.578125 55.875 
Q 39.703125 55.765625 41.0625 55.515625 
z
" id="DejaVuSans-72"/>
      <path d="M 56.203125 29.59375 
L 56.203125 25.203125 
L 14.890625 25.203125 
Q 15.484375 15.921875 20.484375 11.0625 
Q 25.484375 6.203125 34.421875 6.203125 
Q 39.59375 6.203125 44.453125 7.46875 
Q 49.3125 8.734375 54.109375 11.28125 
L 54.109375 2.78125 
Q 49.265625 0.734375 44.1875 -0.34375 
Q 39.109375 -1.421875 33.890625 -1.421875 
Q 20.796875 -1.421875 13.15625 6.1875 
Q 5.515625 13.8125 5.515625 26.8125 
Q 5.515625 40.234375 12.765625 48.109375 
Q 20.015625 56 32.328125 56 
Q 43.359375 56 49.78125 48.890625 
Q 56.203125 41.796875 56.203125 29.59375 
z
M 47.21875 32.234375 
Q 47.125 39.59375 43.09375 43.984375 
Q 39.0625 48.390625 32.421875 48.390625 
Q 24.90625 48.390625 20.390625 44.140625 
Q 15.875 39.890625 15.1875 32.171875 
z
" id="DejaVuSans-65"/>
      <path id="DejaVuSans-20"/>
      <path d="M 48.78125 52.59375 
L 48.78125 44.1875 
Q 44.96875 46.296875 41.140625 47.34375 
Q 37.3125 48.390625 33.40625 48.390625 
Q 24.65625 48.390625 19.8125 42.84375 
Q 14.984375 37.3125 14.984375 27.296875 
Q 14.984375 17.28125 19.8125 11.734375 
Q 24.65625 6.203125 33.40625 6.203125 
Q 37.3125 6.203125 41.140625 7.25 
Q 44.96875 8.296875 48.78125 10.40625 
L 48.78125 2.09375 
Q 45.015625 0.34375 40.984375 -0.53125 
Q 36.96875 -1.421875 32.421875 -1.421875 
Q 20.0625 -1.421875 12.78125 6.34375 
Q 5.515625 14.109375 5.515625 27.296875 
Q 5.515625 40.671875 12.859375 48.328125 
Q 20.21875 56 33.015625 56 
Q 37.15625 56 41.109375 55.140625 
Q 45.0625 54.296875 48.78125 52.59375 
z
" id="DejaVuSans-63"/>
      <path d="M 30.609375 48.390625 
Q 23.390625 48.390625 19.1875 42.75 
Q 14.984375 37.109375 14.984375 27.296875 
Q 14.984375 17.484375 19.15625 11.84375 
Q 23.34375 6.203125 30.609375 6.203125 
Q 37.796875 6.203125 41.984375 11.859375 
Q 46.1875 17.53125 46.1875 27.296875 
Q 46.1875 37.015625 41.984375 42.703125 
Q 37.796875 48.390625 30.609375 48.390625 
z
M 30.609375 56 
Q 42.328125 56 49.015625 48.375 
Q 55.71875 40.765625 55.71875 27.296875 
Q 55.71875 13.875 49.015625 6.21875 
Q 42.328125 -1.421875 30.609375 -1.421875 
Q 18.84375 -1.421875 12.171875 6.21875 
Q 5.515625 13.875 5.515625 27.296875 
Q 5.515625 40.765625 12.171875 48.375 
Q 18.84375 56 30.609375 56 
z
" id="DejaVuSans-6f"/>
      <path d="M 2.984375 54.6875 
L 12.5 54.6875 
L 29.59375 8.796875 
L 46.6875 54.6875 
L 56.203125 54.6875 
L 35.6875 0 
L 23.484375 0 
z
" id="DejaVuSans-76"/>
     </defs>
     <g transform="translate(73.937734 233.022344)scale(0.25 -0.25)">
      <use xlink:href="#DejaVuSans-74"/>
      <use x="39.208984" xlink:href="#DejaVuSans-72"/>
      <use x="80.291016" xlink:href="#DejaVuSans-65"/>
      <use x="141.814453" xlink:href="#DejaVuSans-65"/>
      <use x="203.337891" xlink:href="#DejaVuSans-20"/>
      <use x="235.125" xlink:href="#DejaVuSans-63"/>
      <use x="290.105469" xlink:href="#DejaVuSans-6f"/>
      <use x="351.287109" xlink:href="#DejaVuSans-76"/>
      <use x="410.466797" xlink:href="#DejaVuSans-65"/>
      <use x="471.990234" xlink:href="#DejaVuSans-72"/>
     </g>
     <!--   -->
     <g transform="translate(134.105703 261.016875)scale(0.25 -0.25)">
      <use xlink:href="#DejaVuSans-20"/>
     </g>
    </g>
   </g>
   <g id="line2d_4">
    <path clip-path="url(#p074b92b22e)" d="M 33.62076 50.037137 
L 37.884335 34.96478 
L 42.147911 30.470227 
L 46.411486 35.823491 
L 50.675062 47.931094 
L 54.938637 62.952438 
L 59.202213 77.774198 
L 63.465788 90.67904 
L 67.729364 101.217327 
L 71.992939 109.692417 
L 76.256515 116.656601 
L 80.52009 122.598928 
L 84.783666 127.825458 
L 89.047241 132.464383 
L 93.310816 136.531674 
L 97.574392 140.011876 
L 101.837967 142.921563 
L 106.101543 145.334126 
L 110.365118 147.362565 
L 114.628694 149.119501 
L 118.892269 150.686022 
L 123.155845 152.110707 
L 127.41942 153.433007 
L 131.682996 154.70434 
L 135.946571 155.984607 
L 140.210147 157.316337 
L 144.473722 158.699069 
L 148.737298 160.085412 
L 153.000873 161.402154 
L 157.264448 162.583001 
L 161.528024 163.595141 
L 165.791599 164.447479 
L 170.055175 165.178194 
L 174.31875 165.830066 
L 178.582326 166.429942 
L 182.845901 166.986341 
L 187.109477 167.504353 
L 191.373052 168.000926 
L 195.636628 168.502803 
L 199.900203 169.026312 
L 204.163779 169.556394 
L 208.427354 170.04306 
L 212.69093 170.417678 
L 216.954505 170.617678 
L 221.218081 170.60985 
L 225.481656 170.411807 
L 229.745231 170.110524 
L 234.008807 169.863326 
L 238.272382 169.860476 
L 242.535958 170.249242 
" style="fill:none;stroke:#cc79a7;stroke-linecap:square;stroke-width:2;"/>
   </g>
   <g id="line2d_5">
    <path clip-path="url(#p074b92b22e)" d="M 33.62076 41.271235 
L 37.884335 37.665225 
L 42.147911 42.652032 
L 46.411486 54.409484 
L 50.675062 70.026657 
L 54.938637 86.501658 
L 59.202213 101.550681 
L 63.465788 113.960135 
L 67.729364 123.486872 
L 71.992939 130.502489 
L 76.256515 135.61095 
L 80.52009 139.38484 
L 84.783666 142.253296 
L 89.047241 144.500037 
L 93.310816 146.309186 
L 97.574392 147.811987 
L 101.837967 149.113762 
L 106.101543 150.300955 
L 110.365118 151.437576 
L 114.628694 152.56081 
L 118.892269 153.681412 
L 123.155845 154.789705 
L 127.41942 155.864866 
L 131.682996 156.884218 
L 135.946571 157.829986 
L 140.210147 158.692388 
L 144.473722 159.469413 
L 148.737298 160.164673 
L 153.000873 160.785059 
L 157.264448 161.339455 
L 161.528024 161.838736 
L 165.791599 162.296314 
L 170.055175 162.728212 
L 174.31875 163.151932 
L 178.582326 163.584014 
L 182.845901 164.036644 
L 187.109477 164.513822 
L 191.373052 165.007701 
L 195.636628 165.495637 
L 199.900203 165.93866 
L 204.163779 166.282583 
L 208.427354 166.463793 
L 212.69093 166.422329 
L 216.954505 166.123573 
L 221.218081 165.585467 
L 225.481656 164.90138 
L 229.745231 164.243715 
L 234.008807 163.835767 
L 238.272382 163.892199 
L 242.535958 164.54694 
" style="fill:none;stroke:#424243;stroke-linecap:square;stroke-width:2;"/>
   </g>
   <g id="patch_3">
    <path d="M 23.175 183.67 
L 252.981718 183.67 
" style="fill:none;stroke:#000000;stroke-linecap:square;stroke-linejoin:miter;stroke-width:0.8;"/>
   </g>
  </g>
 </g>
 <defs>
  <clipPath id="p074b92b22e">
   <rect height="160.495" width="229.806718" x="23.175" y="23.175"/>
  </clipPath>
 </defs>
</svg>
