<?xml version="1.0" encoding="utf-8" standalone="no"?>
<!DOCTYPE svg PUBLIC "-//W3C//DTD SVG 1.1//EN"
  "http://www.w3.org/Graphics/SVG/1.1/DTD/svg11.dtd">
<!-- Created with matplotlib (http://matplotlib.org/) -->
<svg height="288pt" version="1.1" viewBox="0 0 288 288" width="288pt" xmlns="http://www.w3.org/2000/svg" xmlns:xlink="http://www.w3.org/1999/xlink">
 <defs>
  <style type="text/css">
*{stroke-linecap:butt;stroke-linejoin:round;}
  </style>
 </defs>
 <g id="figure_1">
  <g id="patch_1">
   <path d="M 0 288 
L 288 288 
L 288 0 
L 0 0 
z
" style="fill:#ffffff;"/>
  </g>
  <g id="axes_1">
   <g id="patch_2">
    <path d="M 33.442163 183.67 
L 264.825 183.67 
L 264.825 23.175 
L 33.442163 23.175 
z
" style="fill:#ffffff;"/>
   </g>
   <g id="PolyCollection_1">
    <defs>
     <path d="M 43.959564 -111.625227 
L 43.959564 -114.96627 
L 48.252381 -117.016846 
L 52.545198 -119.949689 
L 56.838015 -123.962478 
L 61.130832 -129.141148 
L 65.423649 -135.360392 
L 69.716466 -142.303101 
L 74.009283 -149.6847 
L 78.3021 -157.604545 
L 82.594918 -166.75685 
L 86.887735 -178.208991 
L 91.180552 -192.702969 
L 95.473369 -209.83354 
L 99.766186 -227.684251 
L 104.059003 -243.297086 
L 108.35182 -253.797775 
L 112.644637 -257.529773 
L 116.937454 -254.561075 
L 121.230271 -246.387541 
L 125.523088 -235.157895 
L 129.815905 -222.922244 
L 134.108722 -211.224888 
L 138.401539 -201.05431 
L 142.694356 -192.968254 
L 146.987173 -187.20956 
L 151.27999 -183.742819 
L 155.572807 -182.25252 
L 159.865624 -182.182191 
L 164.158441 -182.860004 
L 168.451258 -183.683506 
L 172.744075 -184.276409 
L 177.036892 -184.534378 
L 181.329709 -184.548894 
L 185.622526 -184.476556 
L 189.915343 -184.435897 
L 194.20816 -184.463198 
L 198.500977 -184.503109 
L 202.793794 -184.398722 
L 207.086611 -183.874998 
L 211.379428 -182.543613 
L 215.672245 -179.966162 
L 219.965062 -175.785773 
L 224.257879 -169.887534 
L 228.550696 -162.509179 
L 232.843513 -154.229327 
L 237.13633 -145.817814 
L 241.429147 -138.009928 
L 245.721964 -131.311546 
L 250.014781 -125.920717 
L 254.307598 -121.777594 
L 254.307598 -111.625227 
L 254.307598 -111.625227 
L 250.014781 -111.625227 
L 245.721964 -111.625227 
L 241.429147 -111.625227 
L 237.13633 -111.625227 
L 232.843513 -111.625227 
L 228.550696 -111.625227 
L 224.257879 -111.625227 
L 219.965062 -111.625227 
L 215.672245 -111.625227 
L 211.379428 -111.625227 
L 207.086611 -111.625227 
L 202.793794 -111.625227 
L 198.500977 -111.625227 
L 194.20816 -111.625227 
L 189.915343 -111.625227 
L 185.622526 -111.625227 
L 181.329709 -111.625227 
L 177.036892 -111.625227 
L 172.744075 -111.625227 
L 168.451258 -111.625227 
L 164.158441 -111.625227 
L 159.865624 -111.625227 
L 155.572807 -111.625227 
L 151.27999 -111.625227 
L 146.987173 -111.625227 
L 142.694356 -111.625227 
L 138.401539 -111.625227 
L 134.108722 -111.625227 
L 129.815905 -111.625227 
L 125.523088 -111.625227 
L 121.230271 -111.625227 
L 116.937454 -111.625227 
L 112.644637 -111.625227 
L 108.35182 -111.625227 
L 104.059003 -111.625227 
L 99.766186 -111.625227 
L 95.473369 -111.625227 
L 91.180552 -111.625227 
L 86.887735 -111.625227 
L 82.594918 -111.625227 
L 78.3021 -111.625227 
L 74.009283 -111.625227 
L 69.716466 -111.625227 
L 65.423649 -111.625227 
L 61.130832 -111.625227 
L 56.838015 -111.625227 
L 52.545198 -111.625227 
L 48.252381 -111.625227 
L 43.959564 -111.625227 
z
" id="m957faa1275" style="stroke:#cc79a7;stroke-opacity:0.3;"/>
    </defs>
    <g clip-path="url(#p1098729a4e)">
     <use style="fill:#cc79a7;fill-opacity:0.3;stroke:#cc79a7;stroke-opacity:0.3;" x="0" xlink:href="#m957faa1275" y="288"/>
    </g>
   </g>
   <g id="PolyCollection_2">
    <defs>
     <path d="M 43.959564 -111.625227 
L 43.959564 -127.694963 
L 48.252381 -130.427049 
L 52.545198 -133.51896 
L 56.838015 -137.008259 
L 61.130832 -140.911539 
L 65.423649 -145.228594 
L 69.716466 -149.973679 
L 74.009283 -155.227939 
L 78.3021 -161.179981 
L 82.594918 -168.10454 
L 86.887735 -176.244624 
L 91.180552 -185.615358 
L 95.473369 -195.813501 
L 99.766186 -205.949556 
L 104.059003 -214.783913 
L 108.35182 -221.050965 
L 112.644637 -223.849381 
L 116.937454 -222.930644 
L 121.230271 -218.763601 
L 125.523088 -212.361502 
L 129.815905 -204.962737 
L 134.108722 -197.701608 
L 138.401539 -191.381114 
L 142.694356 -186.395696 
L 146.987173 -182.787846 
L 151.27999 -180.382508 
L 155.572807 -178.932552 
L 159.865624 -178.222379 
L 164.158441 -178.105801 
L 168.451258 -178.486698 
L 172.744075 -179.273242 
L 177.036892 -180.340321 
L 181.329709 -181.521381 
L 185.622526 -182.630031 
L 189.915343 -183.494866 
L 194.20816 -183.985908 
L 198.500977 -184.018771 
L 202.793794 -183.538137 
L 207.086611 -182.495717 
L 211.379428 -180.840659 
L 215.672245 -178.530091 
L 219.965062 -175.551665 
L 224.257879 -171.941069 
L 228.550696 -167.782187 
L 232.843513 -163.191068 
L 237.13633 -158.295311 
L 241.429147 -153.219934 
L 245.721964 -148.082338 
L 250.014781 -142.991873 
L 254.307598 -138.049662 
L 254.307598 -111.625227 
L 254.307598 -111.625227 
L 250.014781 -111.625227 
L 245.721964 -111.625227 
L 241.429147 -111.625227 
L 237.13633 -111.625227 
L 232.843513 -111.625227 
L 228.550696 -111.625227 
L 224.257879 -111.625227 
L 219.965062 -111.625227 
L 215.672245 -111.625227 
L 211.379428 -111.625227 
L 207.086611 -111.625227 
L 202.793794 -111.625227 
L 198.500977 -111.625227 
L 194.20816 -111.625227 
L 189.915343 -111.625227 
L 185.622526 -111.625227 
L 181.329709 -111.625227 
L 177.036892 -111.625227 
L 172.744075 -111.625227 
L 168.451258 -111.625227 
L 164.158441 -111.625227 
L 159.865624 -111.625227 
L 155.572807 -111.625227 
L 151.27999 -111.625227 
L 146.987173 -111.625227 
L 142.694356 -111.625227 
L 138.401539 -111.625227 
L 134.108722 -111.625227 
L 129.815905 -111.625227 
L 125.523088 -111.625227 
L 121.230271 -111.625227 
L 116.937454 -111.625227 
L 112.644637 -111.625227 
L 108.35182 -111.625227 
L 104.059003 -111.625227 
L 99.766186 -111.625227 
L 95.473369 -111.625227 
L 91.180552 -111.625227 
L 86.887735 -111.625227 
L 82.594918 -111.625227 
L 78.3021 -111.625227 
L 74.009283 -111.625227 
L 69.716466 -111.625227 
L 65.423649 -111.625227 
L 61.130832 -111.625227 
L 56.838015 -111.625227 
L 52.545198 -111.625227 
L 48.252381 -111.625227 
L 43.959564 -111.625227 
z
" id="m739c46a3d4" style="stroke:#424243;stroke-opacity:0.3;"/>
    </defs>
    <g clip-path="url(#p1098729a4e)">
     <use style="fill:#424243;fill-opacity:0.3;stroke:#424243;stroke-opacity:0.3;" x="0" xlink:href="#m739c46a3d4" y="288"/>
    </g>
   </g>
   <g id="matplotlib.axis_1">
    <g id="xtick_1">
     <g id="line2d_1">
      <defs>
       <path d="M 0 0 
L 0 3.5 
" id="m935f0f9109" style="stroke:#000000;stroke-width:0.8;"/>
      </defs>
      <g>
       <use style="stroke:#000000;stroke-width:0.8;" x="46.31243" xlink:href="#m935f0f9109" y="183.67"/>
      </g>
     </g>
     <g id="text_1">
      <!-- 0.25 -->
      <defs>
       <path d="M 31.78125 66.40625 
Q 24.171875 66.40625 20.328125 58.90625 
Q 16.5 51.421875 16.5 36.375 
Q 16.5 21.390625 20.328125 13.890625 
Q 24.171875 6.390625 31.78125 6.390625 
Q 39.453125 6.390625 43.28125 13.890625 
Q 47.125 21.390625 47.125 36.375 
Q 47.125 51.421875 43.28125 58.90625 
Q 39.453125 66.40625 31.78125 66.40625 
z
M 31.78125 74.21875 
Q 44.046875 74.21875 50.515625 64.515625 
Q 56.984375 54.828125 56.984375 36.375 
Q 56.984375 17.96875 50.515625 8.265625 
Q 44.046875 -1.421875 31.78125 -1.421875 
Q 19.53125 -1.421875 13.0625 8.265625 
Q 6.59375 17.96875 6.59375 36.375 
Q 6.59375 54.828125 13.0625 64.515625 
Q 19.53125 74.21875 31.78125 74.21875 
z
" id="DejaVuSans-30"/>
       <path d="M 10.6875 12.40625 
L 21 12.40625 
L 21 0 
L 10.6875 0 
z
" id="DejaVuSans-2e"/>
       <path d="M 19.1875 8.296875 
L 53.609375 8.296875 
L 53.609375 0 
L 7.328125 0 
L 7.328125 8.296875 
Q 12.9375 14.109375 22.625 23.890625 
Q 32.328125 33.6875 34.8125 36.53125 
Q 39.546875 41.84375 41.421875 45.53125 
Q 43.3125 49.21875 43.3125 52.78125 
Q 43.3125 58.59375 39.234375 62.25 
Q 35.15625 65.921875 28.609375 65.921875 
Q 23.96875 65.921875 18.8125 64.3125 
Q 13.671875 62.703125 7.8125 59.421875 
L 7.8125 69.390625 
Q 13.765625 71.78125 18.9375 73 
Q 24.125 74.21875 28.421875 74.21875 
Q 39.75 74.21875 46.484375 68.546875 
Q 53.21875 62.890625 53.21875 53.421875 
Q 53.21875 48.921875 51.53125 44.890625 
Q 49.859375 40.875 45.40625 35.40625 
Q 44.1875 33.984375 37.640625 27.21875 
Q 31.109375 20.453125 19.1875 8.296875 
z
" id="DejaVuSans-32"/>
       <path d="M 10.796875 72.90625 
L 49.515625 72.90625 
L 49.515625 64.59375 
L 19.828125 64.59375 
L 19.828125 46.734375 
Q 21.96875 47.46875 24.109375 47.828125 
Q 26.265625 48.1875 28.421875 48.1875 
Q 40.625 48.1875 47.75 41.5 
Q 54.890625 34.8125 54.890625 23.390625 
Q 54.890625 11.625 47.5625 5.09375 
Q 40.234375 -1.421875 26.90625 -1.421875 
Q 22.3125 -1.421875 17.546875 -0.640625 
Q 12.796875 0.140625 7.71875 1.703125 
L 7.71875 11.625 
Q 12.109375 9.234375 16.796875 8.0625 
Q 21.484375 6.890625 26.703125 6.890625 
Q 35.15625 6.890625 40.078125 11.328125 
Q 45.015625 15.765625 45.015625 23.390625 
Q 45.015625 31 40.078125 35.4375 
Q 35.15625 39.890625 26.703125 39.890625 
Q 22.75 39.890625 18.8125 39.015625 
Q 14.890625 38.140625 10.796875 36.28125 
z
" id="DejaVuSans-35"/>
      </defs>
      <g transform="translate(24.046805 205.866875)scale(0.2 -0.2)">
       <use xlink:href="#DejaVuSans-30"/>
       <use x="63.623047" xlink:href="#DejaVuSans-2e"/>
       <use x="95.410156" xlink:href="#DejaVuSans-32"/>
       <use x="159.033203" xlink:href="#DejaVuSans-35"/>
      </g>
     </g>
    </g>
    <g id="xtick_2">
     <g id="line2d_2">
      <g>
       <use style="stroke:#000000;stroke-width:0.8;" x="123.226032" xlink:href="#m935f0f9109" y="183.67"/>
      </g>
     </g>
     <g id="text_2">
      <!-- 0.50 -->
      <g transform="translate(100.960407 205.866875)scale(0.2 -0.2)">
       <use xlink:href="#DejaVuSans-30"/>
       <use x="63.623047" xlink:href="#DejaVuSans-2e"/>
       <use x="95.410156" xlink:href="#DejaVuSans-35"/>
       <use x="159.033203" xlink:href="#DejaVuSans-30"/>
      </g>
     </g>
    </g>
    <g id="xtick_3">
     <g id="line2d_3">
      <g>
       <use style="stroke:#000000;stroke-width:0.8;" x="200.139635" xlink:href="#m935f0f9109" y="183.67"/>
      </g>
     </g>
     <g id="text_3">
      <!-- 0.75 -->
      <defs>
       <path d="M 8.203125 72.90625 
L 55.078125 72.90625 
L 55.078125 68.703125 
L 28.609375 0 
L 18.3125 0 
L 43.21875 64.59375 
L 8.203125 64.59375 
z
" id="DejaVuSans-37"/>
      </defs>
      <g transform="translate(177.87401 205.866875)scale(0.2 -0.2)">
       <use xlink:href="#DejaVuSans-30"/>
       <use x="63.623047" xlink:href="#DejaVuSans-2e"/>
       <use x="95.410156" xlink:href="#DejaVuSans-37"/>
       <use x="159.033203" xlink:href="#DejaVuSans-35"/>
      </g>
     </g>
    </g>
    <g id="text_4">
     <!-- cloud cover -->
     <defs>
      <path d="M 48.78125 52.59375 
L 48.78125 44.1875 
Q 44.96875 46.296875 41.140625 47.34375 
Q 37.3125 48.390625 33.40625 48.390625 
Q 24.65625 48.390625 19.8125 42.84375 
Q 14.984375 37.3125 14.984375 27.296875 
Q 14.984375 17.28125 19.8125 11.734375 
Q 24.65625 6.203125 33.40625 6.203125 
Q 37.3125 6.203125 41.140625 7.25 
Q 44.96875 8.296875 48.78125 10.40625 
L 48.78125 2.09375 
Q 45.015625 0.34375 40.984375 -0.53125 
Q 36.96875 -1.421875 32.421875 -1.421875 
Q 20.0625 -1.421875 12.78125 6.34375 
Q 5.515625 14.109375 5.515625 27.296875 
Q 5.515625 40.671875 12.859375 48.328125 
Q 20.21875 56 33.015625 56 
Q 37.15625 56 41.109375 55.140625 
Q 45.0625 54.296875 48.78125 52.59375 
z
" id="DejaVuSans-63"/>
      <path d="M 9.421875 75.984375 
L 18.40625 75.984375 
L 18.40625 0 
L 9.421875 0 
z
" id="DejaVuSans-6c"/>
      <path d="M 30.609375 48.390625 
Q 23.390625 48.390625 19.1875 42.75 
Q 14.984375 37.109375 14.984375 27.296875 
Q 14.984375 17.484375 19.15625 11.84375 
Q 23.34375 6.203125 30.609375 6.203125 
Q 37.796875 6.203125 41.984375 11.859375 
Q 46.1875 17.53125 46.1875 27.296875 
Q 46.1875 37.015625 41.984375 42.703125 
Q 37.796875 48.390625 30.609375 48.390625 
z
M 30.609375 56 
Q 42.328125 56 49.015625 48.375 
Q 55.71875 40.765625 55.71875 27.296875 
Q 55.71875 13.875 49.015625 6.21875 
Q 42.328125 -1.421875 30.609375 -1.421875 
Q 18.84375 -1.421875 12.171875 6.21875 
Q 5.515625 13.875 5.515625 27.296875 
Q 5.515625 40.765625 12.171875 48.375 
Q 18.84375 56 30.609375 56 
z
" id="DejaVuSans-6f"/>
      <path d="M 8.5 21.578125 
L 8.5 54.6875 
L 17.484375 54.6875 
L 17.484375 21.921875 
Q 17.484375 14.15625 20.5 10.265625 
Q 23.53125 6.390625 29.59375 6.390625 
Q 36.859375 6.390625 41.078125 11.03125 
Q 45.3125 15.671875 45.3125 23.6875 
L 45.3125 54.6875 
L 54.296875 54.6875 
L 54.296875 0 
L 45.3125 0 
L 45.3125 8.40625 
Q 42.046875 3.421875 37.71875 1 
Q 33.40625 -1.421875 27.6875 -1.421875 
Q 18.265625 -1.421875 13.375 4.4375 
Q 8.5 10.296875 8.5 21.578125 
z
M 31.109375 56 
z
" id="DejaVuSans-75"/>
      <path d="M 45.40625 46.390625 
L 45.40625 75.984375 
L 54.390625 75.984375 
L 54.390625 0 
L 45.40625 0 
L 45.40625 8.203125 
Q 42.578125 3.328125 38.25 0.953125 
Q 33.9375 -1.421875 27.875 -1.421875 
Q 17.96875 -1.421875 11.734375 6.484375 
Q 5.515625 14.40625 5.515625 27.296875 
Q 5.515625 40.1875 11.734375 48.09375 
Q 17.96875 56 27.875 56 
Q 33.9375 56 38.25 53.625 
Q 42.578125 51.265625 45.40625 46.390625 
z
M 14.796875 27.296875 
Q 14.796875 17.390625 18.875 11.75 
Q 22.953125 6.109375 30.078125 6.109375 
Q 37.203125 6.109375 41.296875 11.75 
Q 45.40625 17.390625 45.40625 27.296875 
Q 45.40625 37.203125 41.296875 42.84375 
Q 37.203125 48.484375 30.078125 48.484375 
Q 22.953125 48.484375 18.875 42.84375 
Q 14.796875 37.203125 14.796875 27.296875 
z
" id="DejaVuSans-64"/>
      <path id="DejaVuSans-20"/>
      <path d="M 2.984375 54.6875 
L 12.5 54.6875 
L 29.59375 8.796875 
L 46.6875 54.6875 
L 56.203125 54.6875 
L 35.6875 0 
L 23.484375 0 
z
" id="DejaVuSans-76"/>
      <path d="M 56.203125 29.59375 
L 56.203125 25.203125 
L 14.890625 25.203125 
Q 15.484375 15.921875 20.484375 11.0625 
Q 25.484375 6.203125 34.421875 6.203125 
Q 39.59375 6.203125 44.453125 7.46875 
Q 49.3125 8.734375 54.109375 11.28125 
L 54.109375 2.78125 
Q 49.265625 0.734375 44.1875 -0.34375 
Q 39.109375 -1.421875 33.890625 -1.421875 
Q 20.796875 -1.421875 13.15625 6.1875 
Q 5.515625 13.8125 5.515625 26.8125 
Q 5.515625 40.234375 12.765625 48.109375 
Q 20.015625 56 32.328125 56 
Q 43.359375 56 49.78125 48.890625 
Q 56.203125 41.796875 56.203125 29.59375 
z
M 47.21875 32.234375 
Q 47.125 39.59375 43.09375 43.984375 
Q 39.0625 48.390625 32.421875 48.390625 
Q 24.90625 48.390625 20.390625 44.140625 
Q 15.875 39.890625 15.1875 32.171875 
z
" id="DejaVuSans-65"/>
      <path d="M 41.109375 46.296875 
Q 39.59375 47.171875 37.8125 47.578125 
Q 36.03125 48 33.890625 48 
Q 26.265625 48 22.1875 43.046875 
Q 18.109375 38.09375 18.109375 28.8125 
L 18.109375 0 
L 9.078125 0 
L 9.078125 54.6875 
L 18.109375 54.6875 
L 18.109375 46.1875 
Q 20.953125 51.171875 25.484375 53.578125 
Q 30.03125 56 36.53125 56 
Q 37.453125 56 38.578125 55.875 
Q 39.703125 55.765625 41.0625 55.515625 
z
" id="DejaVuSans-72"/>
     </defs>
     <g transform="translate(76.559363 233.022344)scale(0.25 -0.25)">
      <use xlink:href="#DejaVuSans-63"/>
      <use x="54.980469" xlink:href="#DejaVuSans-6c"/>
      <use x="82.763672" xlink:href="#DejaVuSans-6f"/>
      <use x="143.945312" xlink:href="#DejaVuSans-75"/>
      <use x="207.324219" xlink:href="#DejaVuSans-64"/>
      <use x="270.800781" xlink:href="#DejaVuSans-20"/>
      <use x="302.587891" xlink:href="#DejaVuSans-63"/>
      <use x="357.568359" xlink:href="#DejaVuSans-6f"/>
      <use x="418.75" xlink:href="#DejaVuSans-76"/>
      <use x="477.929688" xlink:href="#DejaVuSans-65"/>
      <use x="539.453125" xlink:href="#DejaVuSans-72"/>
     </g>
     <!-- mean -->
     <defs>
      <path d="M 52 44.1875 
Q 55.375 50.25 60.0625 53.125 
Q 64.75 56 71.09375 56 
Q 79.640625 56 84.28125 50.015625 
Q 88.921875 44.046875 88.921875 33.015625 
L 88.921875 0 
L 79.890625 0 
L 79.890625 32.71875 
Q 79.890625 40.578125 77.09375 44.375 
Q 74.3125 48.1875 68.609375 48.1875 
Q 61.625 48.1875 57.5625 43.546875 
Q 53.515625 38.921875 53.515625 30.90625 
L 53.515625 0 
L 44.484375 0 
L 44.484375 32.71875 
Q 44.484375 40.625 41.703125 44.40625 
Q 38.921875 48.1875 33.109375 48.1875 
Q 26.21875 48.1875 22.15625 43.53125 
Q 18.109375 38.875 18.109375 30.90625 
L 18.109375 0 
L 9.078125 0 
L 9.078125 54.6875 
L 18.109375 54.6875 
L 18.109375 46.1875 
Q 21.1875 51.21875 25.484375 53.609375 
Q 29.78125 56 35.6875 56 
Q 41.65625 56 45.828125 52.96875 
Q 50 49.953125 52 44.1875 
z
" id="DejaVuSans-6d"/>
      <path d="M 34.28125 27.484375 
Q 23.390625 27.484375 19.1875 25 
Q 14.984375 22.515625 14.984375 16.5 
Q 14.984375 11.71875 18.140625 8.90625 
Q 21.296875 6.109375 26.703125 6.109375 
Q 34.1875 6.109375 38.703125 11.40625 
Q 43.21875 16.703125 43.21875 25.484375 
L 43.21875 27.484375 
z
M 52.203125 31.203125 
L 52.203125 0 
L 43.21875 0 
L 43.21875 8.296875 
Q 40.140625 3.328125 35.546875 0.953125 
Q 30.953125 -1.421875 24.3125 -1.421875 
Q 15.921875 -1.421875 10.953125 3.296875 
Q 6 8.015625 6 15.921875 
Q 6 25.140625 12.171875 29.828125 
Q 18.359375 34.515625 30.609375 34.515625 
L 43.21875 34.515625 
L 43.21875 35.40625 
Q 43.21875 41.609375 39.140625 45 
Q 35.0625 48.390625 27.6875 48.390625 
Q 23 48.390625 18.546875 47.265625 
Q 14.109375 46.140625 10.015625 43.890625 
L 10.015625 52.203125 
Q 14.9375 54.109375 19.578125 55.046875 
Q 24.21875 56 28.609375 56 
Q 40.484375 56 46.34375 49.84375 
Q 52.203125 43.703125 52.203125 31.203125 
z
" id="DejaVuSans-61"/>
      <path d="M 54.890625 33.015625 
L 54.890625 0 
L 45.90625 0 
L 45.90625 32.71875 
Q 45.90625 40.484375 42.875 44.328125 
Q 39.84375 48.1875 33.796875 48.1875 
Q 26.515625 48.1875 22.3125 43.546875 
Q 18.109375 38.921875 18.109375 30.90625 
L 18.109375 0 
L 9.078125 0 
L 9.078125 54.6875 
L 18.109375 54.6875 
L 18.109375 46.1875 
Q 21.34375 51.125 25.703125 53.5625 
Q 30.078125 56 35.796875 56 
Q 45.21875 56 50.046875 50.171875 
Q 54.890625 44.34375 54.890625 33.015625 
z
" id="DejaVuSans-6e"/>
     </defs>
     <g transform="translate(113.684363 261.016875)scale(0.25 -0.25)">
      <use xlink:href="#DejaVuSans-6d"/>
      <use x="97.412109" xlink:href="#DejaVuSans-65"/>
      <use x="158.935547" xlink:href="#DejaVuSans-61"/>
      <use x="220.214844" xlink:href="#DejaVuSans-6e"/>
     </g>
    </g>
   </g>
   <g id="line2d_4">
    <path clip-path="url(#p1098729a4e)" d="M 43.959564 173.03373 
L 48.252381 170.983154 
L 52.545198 168.050311 
L 56.838015 164.037522 
L 61.130832 158.858852 
L 65.423649 152.639608 
L 69.716466 145.696899 
L 74.009283 138.3153 
L 78.3021 130.395455 
L 82.594918 121.24315 
L 86.887735 109.791009 
L 91.180552 95.297031 
L 95.473369 78.16646 
L 99.766186 60.315749 
L 104.059003 44.702914 
L 108.35182 34.202225 
L 112.644637 30.470227 
L 116.937454 33.438925 
L 121.230271 41.612459 
L 125.523088 52.842105 
L 129.815905 65.077756 
L 134.108722 76.775112 
L 138.401539 86.94569 
L 142.694356 95.031746 
L 146.987173 100.79044 
L 151.27999 104.257181 
L 155.572807 105.74748 
L 159.865624 105.817809 
L 164.158441 105.139996 
L 168.451258 104.316494 
L 172.744075 103.723591 
L 177.036892 103.465622 
L 181.329709 103.451106 
L 185.622526 103.523444 
L 189.915343 103.564103 
L 194.20816 103.536802 
L 198.500977 103.496891 
L 202.793794 103.601278 
L 207.086611 104.125002 
L 211.379428 105.456387 
L 215.672245 108.033838 
L 219.965062 112.214227 
L 224.257879 118.112466 
L 228.550696 125.490821 
L 232.843513 133.770673 
L 237.13633 142.182186 
L 241.429147 149.990072 
L 245.721964 156.688454 
L 250.014781 162.079283 
L 254.307598 166.222406 
" style="fill:none;stroke:#cc79a7;stroke-linecap:square;stroke-width:2;"/>
   </g>
   <g id="line2d_5">
    <path clip-path="url(#p1098729a4e)" d="M 43.959564 160.305037 
L 48.252381 157.572951 
L 52.545198 154.48104 
L 56.838015 150.991741 
L 61.130832 147.088461 
L 65.423649 142.771406 
L 69.716466 138.026321 
L 74.009283 132.772061 
L 78.3021 126.820019 
L 82.594918 119.89546 
L 86.887735 111.755376 
L 91.180552 102.384642 
L 95.473369 92.186499 
L 99.766186 82.050444 
L 104.059003 73.216087 
L 108.35182 66.949035 
L 112.644637 64.150619 
L 116.937454 65.069356 
L 121.230271 69.236399 
L 125.523088 75.638498 
L 129.815905 83.037263 
L 134.108722 90.298392 
L 138.401539 96.618886 
L 142.694356 101.604304 
L 146.987173 105.212154 
L 151.27999 107.617492 
L 155.572807 109.067448 
L 159.865624 109.777621 
L 164.158441 109.894199 
L 168.451258 109.513302 
L 172.744075 108.726758 
L 177.036892 107.659679 
L 181.329709 106.478619 
L 185.622526 105.369969 
L 189.915343 104.505134 
L 194.20816 104.014092 
L 198.500977 103.981229 
L 202.793794 104.461863 
L 207.086611 105.504283 
L 211.379428 107.159341 
L 215.672245 109.469909 
L 219.965062 112.448335 
L 224.257879 116.058931 
L 228.550696 120.217813 
L 232.843513 124.808932 
L 237.13633 129.704689 
L 241.429147 134.780066 
L 245.721964 139.917662 
L 250.014781 145.008127 
L 254.307598 149.950338 
" style="fill:none;stroke:#424243;stroke-linecap:square;stroke-width:2;"/>
   </g>
   <g id="patch_3">
    <path d="M 33.442163 183.67 
L 264.825 183.67 
" style="fill:none;stroke:#000000;stroke-linecap:square;stroke-linejoin:miter;stroke-width:0.8;"/>
   </g>
  </g>
 </g>
 <defs>
  <clipPath id="p1098729a4e">
   <rect height="160.495" width="231.382837" x="33.442163" y="23.175"/>
  </clipPath>
 </defs>
</svg>
