<?xml version="1.0" encoding="utf-8" standalone="no"?>
<!DOCTYPE svg PUBLIC "-//W3C//DTD SVG 1.1//EN"
  "http://www.w3.org/Graphics/SVG/1.1/DTD/svg11.dtd">
<!-- Created with matplotlib (http://matplotlib.org/) -->
<svg height="288pt" version="1.1" viewBox="0 0 288 288" width="288pt" xmlns="http://www.w3.org/2000/svg" xmlns:xlink="http://www.w3.org/1999/xlink">
 <defs>
  <style type="text/css">
*{stroke-linecap:butt;stroke-linejoin:round;}
  </style>
 </defs>
 <g id="figure_1">
  <g id="patch_1">
   <path d="M 0 288 
L 288 288 
L 288 0 
L 0 0 
z
" style="fill:#ffffff;"/>
  </g>
  <g id="axes_1">
   <g id="patch_2">
    <path d="M 54.1 183.496 
L 233.9 183.496 
L 233.9 23.28 
L 54.1 23.28 
z
" style="fill:#ffffff;"/>
   </g>
   <g id="PolyCollection_1">
    <defs>
     <path d="M 62.272727 -111.786545 
L 62.272727 -111.934363 
L 65.608534 -111.998402 
L 68.944341 -112.106826 
L 72.280148 -112.309 
L 75.615955 -112.629934 
L 78.951763 -113.044542 
L 82.28757 -113.514743 
L 85.623377 -114.061481 
L 88.959184 -114.790316 
L 92.294991 -115.84037 
L 95.630798 -117.324493 
L 98.966605 -119.346188 
L 102.302412 -122.079489 
L 105.638219 -125.792011 
L 108.974026 -130.748038 
L 112.309833 -137.142845 
L 115.64564 -145.285445 
L 118.981447 -155.887682 
L 122.317254 -169.868271 
L 125.653061 -187.408646 
L 128.988868 -207.103698 
L 132.324675 -226.300457 
L 135.660482 -242.300258 
L 138.996289 -253.102286 
L 142.332096 -257.437455 
L 145.667904 -254.998365 
L 149.003711 -247.005405 
L 152.339518 -236.113364 
L 155.675325 -225.196257 
L 159.011132 -215.919702 
L 162.346939 -208.285051 
L 165.682746 -201.290868 
L 169.018553 -193.920523 
L 172.35436 -185.770144 
L 175.690167 -177.169017 
L 179.025974 -168.8545 
L 182.361781 -161.403522 
L 185.697588 -154.887384 
L 189.033395 -149.06861 
L 192.369202 -143.840948 
L 195.705009 -139.366466 
L 199.040816 -135.839194 
L 202.376623 -133.260954 
L 205.71243 -131.444579 
L 209.048237 -130.09466 
L 212.384045 -128.867215 
L 215.719852 -127.507652 
L 219.055659 -126.011747 
L 222.391466 -124.580887 
L 225.727273 -123.387384 
L 225.727273 -111.786545 
L 225.727273 -111.786545 
L 222.391466 -111.786545 
L 219.055659 -111.786545 
L 215.719852 -111.786545 
L 212.384045 -111.786545 
L 209.048237 -111.786545 
L 205.71243 -111.786545 
L 202.376623 -111.786545 
L 199.040816 -111.786545 
L 195.705009 -111.786545 
L 192.369202 -111.786545 
L 189.033395 -111.786545 
L 185.697588 -111.786545 
L 182.361781 -111.786545 
L 179.025974 -111.786545 
L 175.690167 -111.786545 
L 172.35436 -111.786545 
L 169.018553 -111.786545 
L 165.682746 -111.786545 
L 162.346939 -111.786545 
L 159.011132 -111.786545 
L 155.675325 -111.786545 
L 152.339518 -111.786545 
L 149.003711 -111.786545 
L 145.667904 -111.786545 
L 142.332096 -111.786545 
L 138.996289 -111.786545 
L 135.660482 -111.786545 
L 132.324675 -111.786545 
L 128.988868 -111.786545 
L 125.653061 -111.786545 
L 122.317254 -111.786545 
L 118.981447 -111.786545 
L 115.64564 -111.786545 
L 112.309833 -111.786545 
L 108.974026 -111.786545 
L 105.638219 -111.786545 
L 102.302412 -111.786545 
L 98.966605 -111.786545 
L 95.630798 -111.786545 
L 92.294991 -111.786545 
L 88.959184 -111.786545 
L 85.623377 -111.786545 
L 82.28757 -111.786545 
L 78.951763 -111.786545 
L 75.615955 -111.786545 
L 72.280148 -111.786545 
L 68.944341 -111.786545 
L 65.608534 -111.786545 
L 62.272727 -111.786545 
z
" id="me54c76a24e" style="stroke:#e69f00;stroke-opacity:0.3;"/>
    </defs>
    <g clip-path="url(#pe2c3cbf0b1)">
     <use style="fill:#e69f00;fill-opacity:0.3;stroke:#e69f00;stroke-opacity:0.3;" x="0" xlink:href="#me54c76a24e" y="288"/>
    </g>
   </g>
   <g id="PolyCollection_2">
    <defs>
     <path d="M 62.272727 -111.786545 
L 62.272727 -121.294004 
L 65.608534 -122.849385 
L 68.944341 -124.657995 
L 72.280148 -126.756381 
L 75.615955 -129.165315 
L 78.951763 -131.865426 
L 82.28757 -134.780635 
L 85.623377 -137.790203 
L 88.959184 -140.772128 
L 92.294991 -143.654831 
L 95.630798 -146.445295 
L 98.966605 -149.221115 
L 102.302412 -152.102664 
L 105.638219 -155.229863 
L 108.974026 -158.749726 
L 112.309833 -162.800409 
L 115.64564 -167.478164 
L 118.981447 -172.790514 
L 122.317254 -178.612712 
L 125.653061 -184.668186 
L 128.988868 -190.550183 
L 132.324675 -195.7893 
L 135.660482 -199.950146 
L 138.996289 -202.725074 
L 142.332096 -203.996823 
L 145.667904 -203.855248 
L 149.003711 -202.561374 
L 152.339518 -200.461406 
L 155.675325 -197.875625 
L 159.011132 -195.006939 
L 162.346939 -191.904836 
L 165.682746 -188.488371 
L 169.018553 -184.609401 
L 172.35436 -180.136579 
L 175.690167 -175.040232 
L 179.025974 -169.445677 
L 182.361781 -163.619493 
L 185.697588 -157.88326 
L 189.033395 -152.498018 
L 192.369202 -147.587266 
L 195.705009 -143.140368 
L 199.040816 -139.080601 
L 202.376623 -135.34117 
L 205.71243 -131.900897 
L 209.048237 -128.774145 
L 212.384045 -125.98262 
L 215.719852 -123.535188 
L 219.055659 -121.421514 
L 222.391466 -119.613785 
L 225.727273 -118.07285 
L 225.727273 -111.786545 
L 225.727273 -111.786545 
L 222.391466 -111.786545 
L 219.055659 -111.786545 
L 215.719852 -111.786545 
L 212.384045 -111.786545 
L 209.048237 -111.786545 
L 205.71243 -111.786545 
L 202.376623 -111.786545 
L 199.040816 -111.786545 
L 195.705009 -111.786545 
L 192.369202 -111.786545 
L 189.033395 -111.786545 
L 185.697588 -111.786545 
L 182.361781 -111.786545 
L 179.025974 -111.786545 
L 175.690167 -111.786545 
L 172.35436 -111.786545 
L 169.018553 -111.786545 
L 165.682746 -111.786545 
L 162.346939 -111.786545 
L 159.011132 -111.786545 
L 155.675325 -111.786545 
L 152.339518 -111.786545 
L 149.003711 -111.786545 
L 145.667904 -111.786545 
L 142.332096 -111.786545 
L 138.996289 -111.786545 
L 135.660482 -111.786545 
L 132.324675 -111.786545 
L 128.988868 -111.786545 
L 125.653061 -111.786545 
L 122.317254 -111.786545 
L 118.981447 -111.786545 
L 115.64564 -111.786545 
L 112.309833 -111.786545 
L 108.974026 -111.786545 
L 105.638219 -111.786545 
L 102.302412 -111.786545 
L 98.966605 -111.786545 
L 95.630798 -111.786545 
L 92.294991 -111.786545 
L 88.959184 -111.786545 
L 85.623377 -111.786545 
L 82.28757 -111.786545 
L 78.951763 -111.786545 
L 75.615955 -111.786545 
L 72.280148 -111.786545 
L 68.944341 -111.786545 
L 65.608534 -111.786545 
L 62.272727 -111.786545 
z
" id="m25dd7f260d" style="stroke:#424243;stroke-opacity:0.3;"/>
    </defs>
    <g clip-path="url(#pe2c3cbf0b1)">
     <use style="fill:#424243;fill-opacity:0.3;stroke:#424243;stroke-opacity:0.3;" x="0" xlink:href="#m25dd7f260d" y="288"/>
    </g>
   </g>
   <g id="matplotlib.axis_1">
    <g id="xtick_1">
     <g id="line2d_1">
      <defs>
       <path d="M 0 0 
L 0 3.5 
" id="m359eb6f7b7" style="stroke:#000000;stroke-width:0.8;"/>
      </defs>
      <g>
       <use style="stroke:#000000;stroke-width:0.8;" x="98.586936" xlink:href="#m359eb6f7b7" y="183.496"/>
      </g>
     </g>
     <g id="text_1">
      <!-- −5 -->
      <defs>
       <path d="M 10.59375 35.5 
L 73.1875 35.5 
L 73.1875 27.203125 
L 10.59375 27.203125 
z
" id="DejaVuSans-2212"/>
       <path d="M 10.796875 72.90625 
L 49.515625 72.90625 
L 49.515625 64.59375 
L 19.828125 64.59375 
L 19.828125 46.734375 
Q 21.96875 47.46875 24.109375 47.828125 
Q 26.265625 48.1875 28.421875 48.1875 
Q 40.625 48.1875 47.75 41.5 
Q 54.890625 34.8125 54.890625 23.390625 
Q 54.890625 11.625 47.5625 5.09375 
Q 40.234375 -1.421875 26.90625 -1.421875 
Q 22.3125 -1.421875 17.546875 -0.640625 
Q 12.796875 0.140625 7.71875 1.703125 
L 7.71875 11.625 
Q 12.109375 9.234375 16.796875 8.0625 
Q 21.484375 6.890625 26.703125 6.890625 
Q 35.15625 6.890625 40.078125 11.328125 
Q 45.015625 15.765625 45.015625 23.390625 
Q 45.015625 31 40.078125 35.4375 
Q 35.15625 39.890625 26.703125 39.890625 
Q 22.75 39.890625 18.8125 39.015625 
Q 14.890625 38.140625 10.796875 36.28125 
z
" id="DejaVuSans-35"/>
      </defs>
      <g transform="translate(83.844748 205.692875)scale(0.2 -0.2)">
       <use xlink:href="#DejaVuSans-2212"/>
       <use x="83.789062" xlink:href="#DejaVuSans-35"/>
      </g>
     </g>
    </g>
    <g id="xtick_2">
     <g id="line2d_2">
      <g>
       <use style="stroke:#000000;stroke-width:0.8;" x="171.943931" xlink:href="#m359eb6f7b7" y="183.496"/>
      </g>
     </g>
     <g id="text_2">
      <!-- 0 -->
      <defs>
       <path d="M 31.78125 66.40625 
Q 24.171875 66.40625 20.328125 58.90625 
Q 16.5 51.421875 16.5 36.375 
Q 16.5 21.390625 20.328125 13.890625 
Q 24.171875 6.390625 31.78125 6.390625 
Q 39.453125 6.390625 43.28125 13.890625 
Q 47.125 21.390625 47.125 36.375 
Q 47.125 51.421875 43.28125 58.90625 
Q 39.453125 66.40625 31.78125 66.40625 
z
M 31.78125 74.21875 
Q 44.046875 74.21875 50.515625 64.515625 
Q 56.984375 54.828125 56.984375 36.375 
Q 56.984375 17.96875 50.515625 8.265625 
Q 44.046875 -1.421875 31.78125 -1.421875 
Q 19.53125 -1.421875 13.0625 8.265625 
Q 6.59375 17.96875 6.59375 36.375 
Q 6.59375 54.828125 13.0625 64.515625 
Q 19.53125 74.21875 31.78125 74.21875 
z
" id="DejaVuSans-30"/>
      </defs>
      <g transform="translate(165.581431 205.692875)scale(0.2 -0.2)">
       <use xlink:href="#DejaVuSans-30"/>
      </g>
     </g>
    </g>
    <g id="text_3">
     <!-- population density -->
     <defs>
      <path d="M 18.109375 8.203125 
L 18.109375 -20.796875 
L 9.078125 -20.796875 
L 9.078125 54.6875 
L 18.109375 54.6875 
L 18.109375 46.390625 
Q 20.953125 51.265625 25.265625 53.625 
Q 29.59375 56 35.59375 56 
Q 45.5625 56 51.78125 48.09375 
Q 58.015625 40.1875 58.015625 27.296875 
Q 58.015625 14.40625 51.78125 6.484375 
Q 45.5625 -1.421875 35.59375 -1.421875 
Q 29.59375 -1.421875 25.265625 0.953125 
Q 20.953125 3.328125 18.109375 8.203125 
z
M 48.6875 27.296875 
Q 48.6875 37.203125 44.609375 42.84375 
Q 40.53125 48.484375 33.40625 48.484375 
Q 26.265625 48.484375 22.1875 42.84375 
Q 18.109375 37.203125 18.109375 27.296875 
Q 18.109375 17.390625 22.1875 11.75 
Q 26.265625 6.109375 33.40625 6.109375 
Q 40.53125 6.109375 44.609375 11.75 
Q 48.6875 17.390625 48.6875 27.296875 
z
" id="DejaVuSans-70"/>
      <path d="M 30.609375 48.390625 
Q 23.390625 48.390625 19.1875 42.75 
Q 14.984375 37.109375 14.984375 27.296875 
Q 14.984375 17.484375 19.15625 11.84375 
Q 23.34375 6.203125 30.609375 6.203125 
Q 37.796875 6.203125 41.984375 11.859375 
Q 46.1875 17.53125 46.1875 27.296875 
Q 46.1875 37.015625 41.984375 42.703125 
Q 37.796875 48.390625 30.609375 48.390625 
z
M 30.609375 56 
Q 42.328125 56 49.015625 48.375 
Q 55.71875 40.765625 55.71875 27.296875 
Q 55.71875 13.875 49.015625 6.21875 
Q 42.328125 -1.421875 30.609375 -1.421875 
Q 18.84375 -1.421875 12.171875 6.21875 
Q 5.515625 13.875 5.515625 27.296875 
Q 5.515625 40.765625 12.171875 48.375 
Q 18.84375 56 30.609375 56 
z
" id="DejaVuSans-6f"/>
      <path d="M 8.5 21.578125 
L 8.5 54.6875 
L 17.484375 54.6875 
L 17.484375 21.921875 
Q 17.484375 14.15625 20.5 10.265625 
Q 23.53125 6.390625 29.59375 6.390625 
Q 36.859375 6.390625 41.078125 11.03125 
Q 45.3125 15.671875 45.3125 23.6875 
L 45.3125 54.6875 
L 54.296875 54.6875 
L 54.296875 0 
L 45.3125 0 
L 45.3125 8.40625 
Q 42.046875 3.421875 37.71875 1 
Q 33.40625 -1.421875 27.6875 -1.421875 
Q 18.265625 -1.421875 13.375 4.4375 
Q 8.5 10.296875 8.5 21.578125 
z
M 31.109375 56 
z
" id="DejaVuSans-75"/>
      <path d="M 9.421875 75.984375 
L 18.40625 75.984375 
L 18.40625 0 
L 9.421875 0 
z
" id="DejaVuSans-6c"/>
      <path d="M 34.28125 27.484375 
Q 23.390625 27.484375 19.1875 25 
Q 14.984375 22.515625 14.984375 16.5 
Q 14.984375 11.71875 18.140625 8.90625 
Q 21.296875 6.109375 26.703125 6.109375 
Q 34.1875 6.109375 38.703125 11.40625 
Q 43.21875 16.703125 43.21875 25.484375 
L 43.21875 27.484375 
z
M 52.203125 31.203125 
L 52.203125 0 
L 43.21875 0 
L 43.21875 8.296875 
Q 40.140625 3.328125 35.546875 0.953125 
Q 30.953125 -1.421875 24.3125 -1.421875 
Q 15.921875 -1.421875 10.953125 3.296875 
Q 6 8.015625 6 15.921875 
Q 6 25.140625 12.171875 29.828125 
Q 18.359375 34.515625 30.609375 34.515625 
L 43.21875 34.515625 
L 43.21875 35.40625 
Q 43.21875 41.609375 39.140625 45 
Q 35.0625 48.390625 27.6875 48.390625 
Q 23 48.390625 18.546875 47.265625 
Q 14.109375 46.140625 10.015625 43.890625 
L 10.015625 52.203125 
Q 14.9375 54.109375 19.578125 55.046875 
Q 24.21875 56 28.609375 56 
Q 40.484375 56 46.34375 49.84375 
Q 52.203125 43.703125 52.203125 31.203125 
z
" id="DejaVuSans-61"/>
      <path d="M 18.3125 70.21875 
L 18.3125 54.6875 
L 36.8125 54.6875 
L 36.8125 47.703125 
L 18.3125 47.703125 
L 18.3125 18.015625 
Q 18.3125 11.328125 20.140625 9.421875 
Q 21.96875 7.515625 27.59375 7.515625 
L 36.8125 7.515625 
L 36.8125 0 
L 27.59375 0 
Q 17.1875 0 13.234375 3.875 
Q 9.28125 7.765625 9.28125 18.015625 
L 9.28125 47.703125 
L 2.6875 47.703125 
L 2.6875 54.6875 
L 9.28125 54.6875 
L 9.28125 70.21875 
z
" id="DejaVuSans-74"/>
      <path d="M 9.421875 54.6875 
L 18.40625 54.6875 
L 18.40625 0 
L 9.421875 0 
z
M 9.421875 75.984375 
L 18.40625 75.984375 
L 18.40625 64.59375 
L 9.421875 64.59375 
z
" id="DejaVuSans-69"/>
      <path d="M 54.890625 33.015625 
L 54.890625 0 
L 45.90625 0 
L 45.90625 32.71875 
Q 45.90625 40.484375 42.875 44.328125 
Q 39.84375 48.1875 33.796875 48.1875 
Q 26.515625 48.1875 22.3125 43.546875 
Q 18.109375 38.921875 18.109375 30.90625 
L 18.109375 0 
L 9.078125 0 
L 9.078125 54.6875 
L 18.109375 54.6875 
L 18.109375 46.1875 
Q 21.34375 51.125 25.703125 53.5625 
Q 30.078125 56 35.796875 56 
Q 45.21875 56 50.046875 50.171875 
Q 54.890625 44.34375 54.890625 33.015625 
z
" id="DejaVuSans-6e"/>
      <path id="DejaVuSans-20"/>
      <path d="M 45.40625 46.390625 
L 45.40625 75.984375 
L 54.390625 75.984375 
L 54.390625 0 
L 45.40625 0 
L 45.40625 8.203125 
Q 42.578125 3.328125 38.25 0.953125 
Q 33.9375 -1.421875 27.875 -1.421875 
Q 17.96875 -1.421875 11.734375 6.484375 
Q 5.515625 14.40625 5.515625 27.296875 
Q 5.515625 40.1875 11.734375 48.09375 
Q 17.96875 56 27.875 56 
Q 33.9375 56 38.25 53.625 
Q 42.578125 51.265625 45.40625 46.390625 
z
M 14.796875 27.296875 
Q 14.796875 17.390625 18.875 11.75 
Q 22.953125 6.109375 30.078125 6.109375 
Q 37.203125 6.109375 41.296875 11.75 
Q 45.40625 17.390625 45.40625 27.296875 
Q 45.40625 37.203125 41.296875 42.84375 
Q 37.203125 48.484375 30.078125 48.484375 
Q 22.953125 48.484375 18.875 42.84375 
Q 14.796875 37.203125 14.796875 27.296875 
z
" id="DejaVuSans-64"/>
      <path d="M 56.203125 29.59375 
L 56.203125 25.203125 
L 14.890625 25.203125 
Q 15.484375 15.921875 20.484375 11.0625 
Q 25.484375 6.203125 34.421875 6.203125 
Q 39.59375 6.203125 44.453125 7.46875 
Q 49.3125 8.734375 54.109375 11.28125 
L 54.109375 2.78125 
Q 49.265625 0.734375 44.1875 -0.34375 
Q 39.109375 -1.421875 33.890625 -1.421875 
Q 20.796875 -1.421875 13.15625 6.1875 
Q 5.515625 13.8125 5.515625 26.8125 
Q 5.515625 40.234375 12.765625 48.109375 
Q 20.015625 56 32.328125 56 
Q 43.359375 56 49.78125 48.890625 
Q 56.203125 41.796875 56.203125 29.59375 
z
M 47.21875 32.234375 
Q 47.125 39.59375 43.09375 43.984375 
Q 39.0625 48.390625 32.421875 48.390625 
Q 24.90625 48.390625 20.390625 44.140625 
Q 15.875 39.890625 15.1875 32.171875 
z
" id="DejaVuSans-65"/>
      <path d="M 44.28125 53.078125 
L 44.28125 44.578125 
Q 40.484375 46.53125 36.375 47.5 
Q 32.28125 48.484375 27.875 48.484375 
Q 21.1875 48.484375 17.84375 46.4375 
Q 14.5 44.390625 14.5 40.28125 
Q 14.5 37.15625 16.890625 35.375 
Q 19.28125 33.59375 26.515625 31.984375 
L 29.59375 31.296875 
Q 39.15625 29.25 43.1875 25.515625 
Q 47.21875 21.78125 47.21875 15.09375 
Q 47.21875 7.46875 41.1875 3.015625 
Q 35.15625 -1.421875 24.609375 -1.421875 
Q 20.21875 -1.421875 15.453125 -0.5625 
Q 10.6875 0.296875 5.421875 2 
L 5.421875 11.28125 
Q 10.40625 8.6875 15.234375 7.390625 
Q 20.0625 6.109375 24.8125 6.109375 
Q 31.15625 6.109375 34.5625 8.28125 
Q 37.984375 10.453125 37.984375 14.40625 
Q 37.984375 18.0625 35.515625 20.015625 
Q 33.0625 21.96875 24.703125 23.78125 
L 21.578125 24.515625 
Q 13.234375 26.265625 9.515625 29.90625 
Q 5.8125 33.546875 5.8125 39.890625 
Q 5.8125 47.609375 11.28125 51.796875 
Q 16.75 56 26.8125 56 
Q 31.78125 56 36.171875 55.265625 
Q 40.578125 54.546875 44.28125 53.078125 
z
" id="DejaVuSans-73"/>
      <path d="M 32.171875 -5.078125 
Q 28.375 -14.84375 24.75 -17.8125 
Q 21.140625 -20.796875 15.09375 -20.796875 
L 7.90625 -20.796875 
L 7.90625 -13.28125 
L 13.1875 -13.28125 
Q 16.890625 -13.28125 18.9375 -11.515625 
Q 21 -9.765625 23.484375 -3.21875 
L 25.09375 0.875 
L 2.984375 54.6875 
L 12.5 54.6875 
L 29.59375 11.921875 
L 46.6875 54.6875 
L 56.203125 54.6875 
z
" id="DejaVuSans-79"/>
     </defs>
     <g transform="translate(27.677734 232.848344)scale(0.25 -0.25)">
      <use xlink:href="#DejaVuSans-70"/>
      <use x="63.476562" xlink:href="#DejaVuSans-6f"/>
      <use x="124.658203" xlink:href="#DejaVuSans-70"/>
      <use x="188.134766" xlink:href="#DejaVuSans-75"/>
      <use x="251.513672" xlink:href="#DejaVuSans-6c"/>
      <use x="279.296875" xlink:href="#DejaVuSans-61"/>
      <use x="340.576172" xlink:href="#DejaVuSans-74"/>
      <use x="379.785156" xlink:href="#DejaVuSans-69"/>
      <use x="407.568359" xlink:href="#DejaVuSans-6f"/>
      <use x="468.75" xlink:href="#DejaVuSans-6e"/>
      <use x="532.128906" xlink:href="#DejaVuSans-20"/>
      <use x="563.916016" xlink:href="#DejaVuSans-64"/>
      <use x="627.392578" xlink:href="#DejaVuSans-65"/>
      <use x="688.916016" xlink:href="#DejaVuSans-6e"/>
      <use x="752.294922" xlink:href="#DejaVuSans-73"/>
      <use x="804.394531" xlink:href="#DejaVuSans-69"/>
      <use x="832.177734" xlink:href="#DejaVuSans-74"/>
      <use x="871.386719" xlink:href="#DejaVuSans-79"/>
     </g>
     <!-- (ln) -->
     <defs>
      <path d="M 31 75.875 
Q 24.46875 64.65625 21.28125 53.65625 
Q 18.109375 42.671875 18.109375 31.390625 
Q 18.109375 20.125 21.3125 9.0625 
Q 24.515625 -2 31 -13.1875 
L 23.1875 -13.1875 
Q 15.875 -1.703125 12.234375 9.375 
Q 8.59375 20.453125 8.59375 31.390625 
Q 8.59375 42.28125 12.203125 53.3125 
Q 15.828125 64.359375 23.1875 75.875 
z
" id="DejaVuSans-28"/>
      <path d="M 8.015625 75.875 
L 15.828125 75.875 
Q 23.140625 64.359375 26.78125 53.3125 
Q 30.421875 42.28125 30.421875 31.390625 
Q 30.421875 20.453125 26.78125 9.375 
Q 23.140625 -1.703125 15.828125 -13.1875 
L 8.015625 -13.1875 
Q 14.5 -2 17.703125 9.0625 
Q 20.90625 20.125 20.90625 31.390625 
Q 20.90625 42.671875 17.703125 53.65625 
Q 14.5 64.65625 8.015625 75.875 
z
" id="DejaVuSans-29"/>
     </defs>
     <g transform="translate(122.851562 260.842875)scale(0.25 -0.25)">
      <use xlink:href="#DejaVuSans-28"/>
      <use x="39.013672" xlink:href="#DejaVuSans-6c"/>
      <use x="66.796875" xlink:href="#DejaVuSans-6e"/>
      <use x="130.175781" xlink:href="#DejaVuSans-29"/>
     </g>
    </g>
   </g>
   <g id="line2d_3">
    <path clip-path="url(#pe2c3cbf0b1)" d="M 62.272727 176.065637 
L 65.608534 176.001598 
L 68.944341 175.893174 
L 72.280148 175.691 
L 75.615955 175.370066 
L 78.951763 174.955458 
L 82.28757 174.485257 
L 85.623377 173.938519 
L 88.959184 173.209684 
L 92.294991 172.15963 
L 95.630798 170.675507 
L 98.966605 168.653812 
L 102.302412 165.920511 
L 105.638219 162.207989 
L 108.974026 157.251962 
L 112.309833 150.857155 
L 115.64564 142.714555 
L 118.981447 132.112318 
L 122.317254 118.131729 
L 125.653061 100.591354 
L 128.988868 80.896302 
L 132.324675 61.699543 
L 135.660482 45.699742 
L 138.996289 34.897714 
L 142.332096 30.562545 
L 145.667904 33.001635 
L 149.003711 40.994595 
L 152.339518 51.886636 
L 155.675325 62.803743 
L 159.011132 72.080298 
L 162.346939 79.714949 
L 165.682746 86.709132 
L 169.018553 94.079477 
L 172.35436 102.229856 
L 175.690167 110.830983 
L 179.025974 119.1455 
L 182.361781 126.596478 
L 185.697588 133.112616 
L 189.033395 138.93139 
L 192.369202 144.159052 
L 195.705009 148.633534 
L 199.040816 152.160806 
L 202.376623 154.739046 
L 205.71243 156.555421 
L 209.048237 157.90534 
L 212.384045 159.132785 
L 215.719852 160.492348 
L 219.055659 161.988253 
L 222.391466 163.419113 
L 225.727273 164.612616 
" style="fill:none;stroke:#e69f00;stroke-linecap:square;stroke-width:2;"/>
   </g>
   <g id="line2d_4">
    <path clip-path="url(#pe2c3cbf0b1)" d="M 62.272727 166.705996 
L 65.608534 165.150615 
L 68.944341 163.342005 
L 72.280148 161.243619 
L 75.615955 158.834685 
L 78.951763 156.134574 
L 82.28757 153.219365 
L 85.623377 150.209797 
L 88.959184 147.227872 
L 92.294991 144.345169 
L 95.630798 141.554705 
L 98.966605 138.778885 
L 102.302412 135.897336 
L 105.638219 132.770137 
L 108.974026 129.250274 
L 112.309833 125.199591 
L 115.64564 120.521836 
L 118.981447 115.209486 
L 122.317254 109.387288 
L 125.653061 103.331814 
L 128.988868 97.449817 
L 132.324675 92.2107 
L 135.660482 88.049854 
L 138.996289 85.274926 
L 142.332096 84.003177 
L 145.667904 84.144752 
L 149.003711 85.438626 
L 152.339518 87.538594 
L 155.675325 90.124375 
L 159.011132 92.993061 
L 162.346939 96.095164 
L 165.682746 99.511629 
L 169.018553 103.390599 
L 172.35436 107.863421 
L 175.690167 112.959768 
L 179.025974 118.554323 
L 182.361781 124.380507 
L 185.697588 130.11674 
L 189.033395 135.501982 
L 192.369202 140.412734 
L 195.705009 144.859632 
L 199.040816 148.919399 
L 202.376623 152.65883 
L 205.71243 156.099103 
L 209.048237 159.225855 
L 212.384045 162.01738 
L 215.719852 164.464812 
L 219.055659 166.578486 
L 222.391466 168.386215 
L 225.727273 169.92715 
" style="fill:none;stroke:#424243;stroke-linecap:square;stroke-width:2;"/>
   </g>
   <g id="patch_3">
    <path d="M 54.1 183.496 
L 233.9 183.496 
" style="fill:none;stroke:#000000;stroke-linecap:square;stroke-linejoin:miter;stroke-width:0.8;"/>
   </g>
  </g>
 </g>
 <defs>
  <clipPath id="pe2c3cbf0b1">
   <rect height="160.216" width="179.8" x="54.1" y="23.28"/>
  </clipPath>
 </defs>
</svg>
