<?xml version="1.0" encoding="utf-8" standalone="no"?>
<!DOCTYPE svg PUBLIC "-//W3C//DTD SVG 1.1//EN"
  "http://www.w3.org/Graphics/SVG/1.1/DTD/svg11.dtd">
<!-- Created with matplotlib (http://matplotlib.org/) -->
<svg height="288pt" version="1.1" viewBox="0 0 288 288" width="288pt" xmlns="http://www.w3.org/2000/svg" xmlns:xlink="http://www.w3.org/1999/xlink">
 <defs>
  <style type="text/css">
*{stroke-linecap:butt;stroke-linejoin:round;}
  </style>
 </defs>
 <g id="figure_1">
  <g id="patch_1">
   <path d="M 0 288 
L 288 288 
L 288 0 
L 0 0 
z
" style="fill:#ffffff;"/>
  </g>
  <g id="axes_1">
   <g id="patch_2">
    <path d="M 35.393359 183.67 
L 252.606641 183.67 
L 252.606641 23.175 
L 35.393359 23.175 
z
" style="fill:#ffffff;"/>
   </g>
   <g id="PolyCollection_1">
    <defs>
     <path d="M 45.26669 -111.625227 
L 45.26669 -150.955779 
L 49.296621 -160.932201 
L 53.326552 -170.072186 
L 57.356483 -177.656872 
L 61.386414 -183.306052 
L 65.416345 -187.003566 
L 69.446276 -189.038043 
L 73.476207 -189.88808 
L 77.506138 -190.075875 
L 81.536069 -190.032269 
L 85.566 -190.038574 
L 89.595931 -190.283846 
L 93.625862 -190.992936 
L 97.655793 -192.507381 
L 101.685724 -195.213976 
L 105.715655 -199.317707 
L 109.745586 -204.573559 
L 113.775517 -210.145828 
L 117.805448 -214.721853 
L 121.835379 -216.886589 
L 125.86531 -215.618294 
L 129.895241 -210.674564 
L 133.925172 -202.673965 
L 137.955103 -192.837838 
L 141.985034 -182.538318 
L 146.014966 -172.878986 
L 150.044897 -164.474106 
L 154.074828 -157.457872 
L 158.104759 -151.645864 
L 162.13469 -146.73643 
L 166.164621 -142.465932 
L 170.194552 -138.680565 
L 174.224483 -135.33165 
L 178.254414 -132.428834 
L 182.284345 -129.99125 
L 186.314276 -128.02134 
L 190.344207 -126.50099 
L 194.374138 -125.392771 
L 198.404069 -124.631941 
L 202.434 -124.112315 
L 206.463931 -123.683806 
L 210.493862 -123.17684 
L 214.523793 -122.450024 
L 218.553724 -121.437855 
L 222.583655 -120.171459 
L 226.613586 -118.76055 
L 230.643517 -117.347315 
L 234.673448 -116.056676 
L 238.703379 -114.964824 
L 242.73331 -114.094069 
L 242.73331 -111.625227 
L 242.73331 -111.625227 
L 238.703379 -111.625227 
L 234.673448 -111.625227 
L 230.643517 -111.625227 
L 226.613586 -111.625227 
L 222.583655 -111.625227 
L 218.553724 -111.625227 
L 214.523793 -111.625227 
L 210.493862 -111.625227 
L 206.463931 -111.625227 
L 202.434 -111.625227 
L 198.404069 -111.625227 
L 194.374138 -111.625227 
L 190.344207 -111.625227 
L 186.314276 -111.625227 
L 182.284345 -111.625227 
L 178.254414 -111.625227 
L 174.224483 -111.625227 
L 170.194552 -111.625227 
L 166.164621 -111.625227 
L 162.13469 -111.625227 
L 158.104759 -111.625227 
L 154.074828 -111.625227 
L 150.044897 -111.625227 
L 146.014966 -111.625227 
L 141.985034 -111.625227 
L 137.955103 -111.625227 
L 133.925172 -111.625227 
L 129.895241 -111.625227 
L 125.86531 -111.625227 
L 121.835379 -111.625227 
L 117.805448 -111.625227 
L 113.775517 -111.625227 
L 109.745586 -111.625227 
L 105.715655 -111.625227 
L 101.685724 -111.625227 
L 97.655793 -111.625227 
L 93.625862 -111.625227 
L 89.595931 -111.625227 
L 85.566 -111.625227 
L 81.536069 -111.625227 
L 77.506138 -111.625227 
L 73.476207 -111.625227 
L 69.446276 -111.625227 
L 65.416345 -111.625227 
L 61.386414 -111.625227 
L 57.356483 -111.625227 
L 53.326552 -111.625227 
L 49.296621 -111.625227 
L 45.26669 -111.625227 
z
" id="m023d4034f7" style="stroke:#cc79a7;stroke-opacity:0.3;"/>
    </defs>
    <g clip-path="url(#pb1fbf0fb13)">
     <use style="fill:#cc79a7;fill-opacity:0.3;stroke:#cc79a7;stroke-opacity:0.3;" x="0" xlink:href="#m023d4034f7" y="288"/>
    </g>
   </g>
   <g id="PolyCollection_2">
    <defs>
     <path d="M 45.26669 -111.625227 
L 45.26669 -147.433811 
L 49.296621 -154.487415 
L 53.326552 -161.286265 
L 57.356483 -167.512643 
L 61.386414 -172.927222 
L 65.416345 -177.392141 
L 69.446276 -180.879681 
L 73.476207 -183.466893 
L 77.506138 -185.315766 
L 81.536069 -186.640327 
L 85.566 -187.666671 
L 89.595931 -188.595577 
L 93.625862 -189.575838 
L 97.655793 -190.689696 
L 101.685724 -191.944642 
L 105.715655 -193.264765 
L 109.745586 -194.481803 
L 113.775517 -195.336672 
L 117.805448 -195.507389 
L 121.835379 -194.672064 
L 125.86531 -192.597235 
L 129.895241 -189.222427 
L 133.925172 -184.704762 
L 137.955103 -179.39946 
L 141.985034 -173.778286 
L 146.014966 -168.314346 
L 150.044897 -163.374541 
L 154.074828 -159.154892 
L 158.104759 -155.674113 
L 162.13469 -152.81778 
L 166.164621 -150.409278 
L 170.194552 -148.279097 
L 174.224483 -146.310381 
L 178.254414 -144.451445 
L 182.284345 -142.699535 
L 186.314276 -141.069431 
L 190.344207 -139.562886 
L 194.374138 -138.15083 
L 198.404069 -136.772749 
L 202.434 -135.350536 
L 206.463931 -133.809898 
L 210.493862 -132.101519 
L 214.523793 -130.215676 
L 218.553724 -128.186443 
L 222.583655 -126.084597 
L 226.613586 -124.001473 
L 230.643517 -122.028783 
L 234.673448 -120.24066 
L 238.703379 -118.682965 
L 242.73331 -117.371695 
L 242.73331 -111.625227 
L 242.73331 -111.625227 
L 238.703379 -111.625227 
L 234.673448 -111.625227 
L 230.643517 -111.625227 
L 226.613586 -111.625227 
L 222.583655 -111.625227 
L 218.553724 -111.625227 
L 214.523793 -111.625227 
L 210.493862 -111.625227 
L 206.463931 -111.625227 
L 202.434 -111.625227 
L 198.404069 -111.625227 
L 194.374138 -111.625227 
L 190.344207 -111.625227 
L 186.314276 -111.625227 
L 182.284345 -111.625227 
L 178.254414 -111.625227 
L 174.224483 -111.625227 
L 170.194552 -111.625227 
L 166.164621 -111.625227 
L 162.13469 -111.625227 
L 158.104759 -111.625227 
L 154.074828 -111.625227 
L 150.044897 -111.625227 
L 146.014966 -111.625227 
L 141.985034 -111.625227 
L 137.955103 -111.625227 
L 133.925172 -111.625227 
L 129.895241 -111.625227 
L 125.86531 -111.625227 
L 121.835379 -111.625227 
L 117.805448 -111.625227 
L 113.775517 -111.625227 
L 109.745586 -111.625227 
L 105.715655 -111.625227 
L 101.685724 -111.625227 
L 97.655793 -111.625227 
L 93.625862 -111.625227 
L 89.595931 -111.625227 
L 85.566 -111.625227 
L 81.536069 -111.625227 
L 77.506138 -111.625227 
L 73.476207 -111.625227 
L 69.446276 -111.625227 
L 65.416345 -111.625227 
L 61.386414 -111.625227 
L 57.356483 -111.625227 
L 53.326552 -111.625227 
L 49.296621 -111.625227 
L 45.26669 -111.625227 
z
" id="m634d9e6e24" style="stroke:#424243;stroke-opacity:0.3;"/>
    </defs>
    <g clip-path="url(#pb1fbf0fb13)">
     <use style="fill:#424243;fill-opacity:0.3;stroke:#424243;stroke-opacity:0.3;" x="0" xlink:href="#m634d9e6e24" y="288"/>
    </g>
   </g>
   <g id="matplotlib.axis_1">
    <g id="xtick_1">
     <g id="line2d_1">
      <defs>
       <path d="M 0 0 
L 0 3.5 
" id="m3e8009a26d" style="stroke:#000000;stroke-width:0.8;"/>
      </defs>
      <g>
       <use style="stroke:#000000;stroke-width:0.8;" x="132.155969" xlink:href="#m3e8009a26d" y="183.67"/>
      </g>
     </g>
     <g id="text_1">
      <!-- 100 -->
      <defs>
       <path d="M 12.40625 8.296875 
L 28.515625 8.296875 
L 28.515625 63.921875 
L 10.984375 60.40625 
L 10.984375 69.390625 
L 28.421875 72.90625 
L 38.28125 72.90625 
L 38.28125 8.296875 
L 54.390625 8.296875 
L 54.390625 0 
L 12.40625 0 
z
" id="DejaVuSans-31"/>
       <path d="M 31.78125 66.40625 
Q 24.171875 66.40625 20.328125 58.90625 
Q 16.5 51.421875 16.5 36.375 
Q 16.5 21.390625 20.328125 13.890625 
Q 24.171875 6.390625 31.78125 6.390625 
Q 39.453125 6.390625 43.28125 13.890625 
Q 47.125 21.390625 47.125 36.375 
Q 47.125 51.421875 43.28125 58.90625 
Q 39.453125 66.40625 31.78125 66.40625 
z
M 31.78125 74.21875 
Q 44.046875 74.21875 50.515625 64.515625 
Q 56.984375 54.828125 56.984375 36.375 
Q 56.984375 17.96875 50.515625 8.265625 
Q 44.046875 -1.421875 31.78125 -1.421875 
Q 19.53125 -1.421875 13.0625 8.265625 
Q 6.59375 17.96875 6.59375 36.375 
Q 6.59375 54.828125 13.0625 64.515625 
Q 19.53125 74.21875 31.78125 74.21875 
z
" id="DejaVuSans-30"/>
      </defs>
      <g transform="translate(113.068469 205.866875)scale(0.2 -0.2)">
       <use xlink:href="#DejaVuSans-31"/>
       <use x="63.623047" xlink:href="#DejaVuSans-30"/>
       <use x="127.246094" xlink:href="#DejaVuSans-30"/>
      </g>
     </g>
    </g>
    <g id="xtick_2">
     <g id="line2d_2">
      <g>
       <use style="stroke:#000000;stroke-width:0.8;" x="232.17061" xlink:href="#m3e8009a26d" y="183.67"/>
      </g>
     </g>
     <g id="text_2">
      <!-- 200 -->
      <defs>
       <path d="M 19.1875 8.296875 
L 53.609375 8.296875 
L 53.609375 0 
L 7.328125 0 
L 7.328125 8.296875 
Q 12.9375 14.109375 22.625 23.890625 
Q 32.328125 33.6875 34.8125 36.53125 
Q 39.546875 41.84375 41.421875 45.53125 
Q 43.3125 49.21875 43.3125 52.78125 
Q 43.3125 58.59375 39.234375 62.25 
Q 35.15625 65.921875 28.609375 65.921875 
Q 23.96875 65.921875 18.8125 64.3125 
Q 13.671875 62.703125 7.8125 59.421875 
L 7.8125 69.390625 
Q 13.765625 71.78125 18.9375 73 
Q 24.125 74.21875 28.421875 74.21875 
Q 39.75 74.21875 46.484375 68.546875 
Q 53.21875 62.890625 53.21875 53.421875 
Q 53.21875 48.921875 51.53125 44.890625 
Q 49.859375 40.875 45.40625 35.40625 
Q 44.1875 33.984375 37.640625 27.21875 
Q 31.109375 20.453125 19.1875 8.296875 
z
" id="DejaVuSans-32"/>
      </defs>
      <g transform="translate(213.08311 205.866875)scale(0.2 -0.2)">
       <use xlink:href="#DejaVuSans-32"/>
       <use x="63.623047" xlink:href="#DejaVuSans-30"/>
       <use x="127.246094" xlink:href="#DejaVuSans-30"/>
      </g>
     </g>
    </g>
    <g id="text_3">
     <!-- precipitation -->
     <defs>
      <path d="M 18.109375 8.203125 
L 18.109375 -20.796875 
L 9.078125 -20.796875 
L 9.078125 54.6875 
L 18.109375 54.6875 
L 18.109375 46.390625 
Q 20.953125 51.265625 25.265625 53.625 
Q 29.59375 56 35.59375 56 
Q 45.5625 56 51.78125 48.09375 
Q 58.015625 40.1875 58.015625 27.296875 
Q 58.015625 14.40625 51.78125 6.484375 
Q 45.5625 -1.421875 35.59375 -1.421875 
Q 29.59375 -1.421875 25.265625 0.953125 
Q 20.953125 3.328125 18.109375 8.203125 
z
M 48.6875 27.296875 
Q 48.6875 37.203125 44.609375 42.84375 
Q 40.53125 48.484375 33.40625 48.484375 
Q 26.265625 48.484375 22.1875 42.84375 
Q 18.109375 37.203125 18.109375 27.296875 
Q 18.109375 17.390625 22.1875 11.75 
Q 26.265625 6.109375 33.40625 6.109375 
Q 40.53125 6.109375 44.609375 11.75 
Q 48.6875 17.390625 48.6875 27.296875 
z
" id="DejaVuSans-70"/>
      <path d="M 41.109375 46.296875 
Q 39.59375 47.171875 37.8125 47.578125 
Q 36.03125 48 33.890625 48 
Q 26.265625 48 22.1875 43.046875 
Q 18.109375 38.09375 18.109375 28.8125 
L 18.109375 0 
L 9.078125 0 
L 9.078125 54.6875 
L 18.109375 54.6875 
L 18.109375 46.1875 
Q 20.953125 51.171875 25.484375 53.578125 
Q 30.03125 56 36.53125 56 
Q 37.453125 56 38.578125 55.875 
Q 39.703125 55.765625 41.0625 55.515625 
z
" id="DejaVuSans-72"/>
      <path d="M 56.203125 29.59375 
L 56.203125 25.203125 
L 14.890625 25.203125 
Q 15.484375 15.921875 20.484375 11.0625 
Q 25.484375 6.203125 34.421875 6.203125 
Q 39.59375 6.203125 44.453125 7.46875 
Q 49.3125 8.734375 54.109375 11.28125 
L 54.109375 2.78125 
Q 49.265625 0.734375 44.1875 -0.34375 
Q 39.109375 -1.421875 33.890625 -1.421875 
Q 20.796875 -1.421875 13.15625 6.1875 
Q 5.515625 13.8125 5.515625 26.8125 
Q 5.515625 40.234375 12.765625 48.109375 
Q 20.015625 56 32.328125 56 
Q 43.359375 56 49.78125 48.890625 
Q 56.203125 41.796875 56.203125 29.59375 
z
M 47.21875 32.234375 
Q 47.125 39.59375 43.09375 43.984375 
Q 39.0625 48.390625 32.421875 48.390625 
Q 24.90625 48.390625 20.390625 44.140625 
Q 15.875 39.890625 15.1875 32.171875 
z
" id="DejaVuSans-65"/>
      <path d="M 48.78125 52.59375 
L 48.78125 44.1875 
Q 44.96875 46.296875 41.140625 47.34375 
Q 37.3125 48.390625 33.40625 48.390625 
Q 24.65625 48.390625 19.8125 42.84375 
Q 14.984375 37.3125 14.984375 27.296875 
Q 14.984375 17.28125 19.8125 11.734375 
Q 24.65625 6.203125 33.40625 6.203125 
Q 37.3125 6.203125 41.140625 7.25 
Q 44.96875 8.296875 48.78125 10.40625 
L 48.78125 2.09375 
Q 45.015625 0.34375 40.984375 -0.53125 
Q 36.96875 -1.421875 32.421875 -1.421875 
Q 20.0625 -1.421875 12.78125 6.34375 
Q 5.515625 14.109375 5.515625 27.296875 
Q 5.515625 40.671875 12.859375 48.328125 
Q 20.21875 56 33.015625 56 
Q 37.15625 56 41.109375 55.140625 
Q 45.0625 54.296875 48.78125 52.59375 
z
" id="DejaVuSans-63"/>
      <path d="M 9.421875 54.6875 
L 18.40625 54.6875 
L 18.40625 0 
L 9.421875 0 
z
M 9.421875 75.984375 
L 18.40625 75.984375 
L 18.40625 64.59375 
L 9.421875 64.59375 
z
" id="DejaVuSans-69"/>
      <path d="M 18.3125 70.21875 
L 18.3125 54.6875 
L 36.8125 54.6875 
L 36.8125 47.703125 
L 18.3125 47.703125 
L 18.3125 18.015625 
Q 18.3125 11.328125 20.140625 9.421875 
Q 21.96875 7.515625 27.59375 7.515625 
L 36.8125 7.515625 
L 36.8125 0 
L 27.59375 0 
Q 17.1875 0 13.234375 3.875 
Q 9.28125 7.765625 9.28125 18.015625 
L 9.28125 47.703125 
L 2.6875 47.703125 
L 2.6875 54.6875 
L 9.28125 54.6875 
L 9.28125 70.21875 
z
" id="DejaVuSans-74"/>
      <path d="M 34.28125 27.484375 
Q 23.390625 27.484375 19.1875 25 
Q 14.984375 22.515625 14.984375 16.5 
Q 14.984375 11.71875 18.140625 8.90625 
Q 21.296875 6.109375 26.703125 6.109375 
Q 34.1875 6.109375 38.703125 11.40625 
Q 43.21875 16.703125 43.21875 25.484375 
L 43.21875 27.484375 
z
M 52.203125 31.203125 
L 52.203125 0 
L 43.21875 0 
L 43.21875 8.296875 
Q 40.140625 3.328125 35.546875 0.953125 
Q 30.953125 -1.421875 24.3125 -1.421875 
Q 15.921875 -1.421875 10.953125 3.296875 
Q 6 8.015625 6 15.921875 
Q 6 25.140625 12.171875 29.828125 
Q 18.359375 34.515625 30.609375 34.515625 
L 43.21875 34.515625 
L 43.21875 35.40625 
Q 43.21875 41.609375 39.140625 45 
Q 35.0625 48.390625 27.6875 48.390625 
Q 23 48.390625 18.546875 47.265625 
Q 14.109375 46.140625 10.015625 43.890625 
L 10.015625 52.203125 
Q 14.9375 54.109375 19.578125 55.046875 
Q 24.21875 56 28.609375 56 
Q 40.484375 56 46.34375 49.84375 
Q 52.203125 43.703125 52.203125 31.203125 
z
" id="DejaVuSans-61"/>
      <path d="M 30.609375 48.390625 
Q 23.390625 48.390625 19.1875 42.75 
Q 14.984375 37.109375 14.984375 27.296875 
Q 14.984375 17.484375 19.15625 11.84375 
Q 23.34375 6.203125 30.609375 6.203125 
Q 37.796875 6.203125 41.984375 11.859375 
Q 46.1875 17.53125 46.1875 27.296875 
Q 46.1875 37.015625 41.984375 42.703125 
Q 37.796875 48.390625 30.609375 48.390625 
z
M 30.609375 56 
Q 42.328125 56 49.015625 48.375 
Q 55.71875 40.765625 55.71875 27.296875 
Q 55.71875 13.875 49.015625 6.21875 
Q 42.328125 -1.421875 30.609375 -1.421875 
Q 18.84375 -1.421875 12.171875 6.21875 
Q 5.515625 13.875 5.515625 27.296875 
Q 5.515625 40.765625 12.171875 48.375 
Q 18.84375 56 30.609375 56 
z
" id="DejaVuSans-6f"/>
      <path d="M 54.890625 33.015625 
L 54.890625 0 
L 45.90625 0 
L 45.90625 32.71875 
Q 45.90625 40.484375 42.875 44.328125 
Q 39.84375 48.1875 33.796875 48.1875 
Q 26.515625 48.1875 22.3125 43.546875 
Q 18.109375 38.921875 18.109375 30.90625 
L 18.109375 0 
L 9.078125 0 
L 9.078125 54.6875 
L 18.109375 54.6875 
L 18.109375 46.1875 
Q 21.34375 51.125 25.703125 53.5625 
Q 30.078125 56 35.796875 56 
Q 45.21875 56 50.046875 50.171875 
Q 54.890625 44.34375 54.890625 33.015625 
z
" id="DejaVuSans-6e"/>
     </defs>
     <g transform="translate(64.980469 233.022344)scale(0.25 -0.25)">
      <use xlink:href="#DejaVuSans-70"/>
      <use x="63.476562" xlink:href="#DejaVuSans-72"/>
      <use x="104.558594" xlink:href="#DejaVuSans-65"/>
      <use x="166.082031" xlink:href="#DejaVuSans-63"/>
      <use x="221.0625" xlink:href="#DejaVuSans-69"/>
      <use x="248.845703" xlink:href="#DejaVuSans-70"/>
      <use x="312.322266" xlink:href="#DejaVuSans-69"/>
      <use x="340.105469" xlink:href="#DejaVuSans-74"/>
      <use x="379.314453" xlink:href="#DejaVuSans-61"/>
      <use x="440.59375" xlink:href="#DejaVuSans-74"/>
      <use x="479.802734" xlink:href="#DejaVuSans-69"/>
      <use x="507.585938" xlink:href="#DejaVuSans-6f"/>
      <use x="568.767578" xlink:href="#DejaVuSans-6e"/>
     </g>
     <!-- mean -->
     <defs>
      <path d="M 52 44.1875 
Q 55.375 50.25 60.0625 53.125 
Q 64.75 56 71.09375 56 
Q 79.640625 56 84.28125 50.015625 
Q 88.921875 44.046875 88.921875 33.015625 
L 88.921875 0 
L 79.890625 0 
L 79.890625 32.71875 
Q 79.890625 40.578125 77.09375 44.375 
Q 74.3125 48.1875 68.609375 48.1875 
Q 61.625 48.1875 57.5625 43.546875 
Q 53.515625 38.921875 53.515625 30.90625 
L 53.515625 0 
L 44.484375 0 
L 44.484375 32.71875 
Q 44.484375 40.625 41.703125 44.40625 
Q 38.921875 48.1875 33.109375 48.1875 
Q 26.21875 48.1875 22.15625 43.53125 
Q 18.109375 38.875 18.109375 30.90625 
L 18.109375 0 
L 9.078125 0 
L 9.078125 54.6875 
L 18.109375 54.6875 
L 18.109375 46.1875 
Q 21.1875 51.21875 25.484375 53.609375 
Q 29.78125 56 35.6875 56 
Q 41.65625 56 45.828125 52.96875 
Q 50 49.953125 52 44.1875 
z
" id="DejaVuSans-6d"/>
     </defs>
     <g transform="translate(108.550781 261.016875)scale(0.25 -0.25)">
      <use xlink:href="#DejaVuSans-6d"/>
      <use x="97.412109" xlink:href="#DejaVuSans-65"/>
      <use x="158.935547" xlink:href="#DejaVuSans-61"/>
      <use x="220.214844" xlink:href="#DejaVuSans-6e"/>
     </g>
    </g>
   </g>
   <g id="line2d_3">
    <path clip-path="url(#pb1fbf0fb13)" d="M 45.26669 137.044221 
L 49.296621 127.067799 
L 53.326552 117.927814 
L 57.356483 110.343128 
L 61.386414 104.693948 
L 65.416345 100.996434 
L 69.446276 98.961957 
L 73.476207 98.11192 
L 77.506138 97.924125 
L 81.536069 97.967731 
L 85.566 97.961426 
L 89.595931 97.716154 
L 93.625862 97.007064 
L 97.655793 95.492619 
L 101.685724 92.786024 
L 105.715655 88.682293 
L 109.745586 83.426441 
L 113.775517 77.854172 
L 117.805448 73.278147 
L 121.835379 71.113411 
L 125.86531 72.381706 
L 129.895241 77.325436 
L 133.925172 85.326035 
L 137.955103 95.162162 
L 141.985034 105.461682 
L 146.014966 115.121014 
L 150.044897 123.525894 
L 154.074828 130.542128 
L 158.104759 136.354136 
L 162.13469 141.26357 
L 166.164621 145.534068 
L 170.194552 149.319435 
L 174.224483 152.66835 
L 178.254414 155.571166 
L 182.284345 158.00875 
L 186.314276 159.97866 
L 190.344207 161.49901 
L 194.374138 162.607229 
L 198.404069 163.368059 
L 202.434 163.887685 
L 206.463931 164.316194 
L 210.493862 164.82316 
L 214.523793 165.549976 
L 218.553724 166.562145 
L 222.583655 167.828541 
L 226.613586 169.23945 
L 230.643517 170.652685 
L 234.673448 171.943324 
L 238.703379 173.035176 
L 242.73331 173.905931 
" style="fill:none;stroke:#cc79a7;stroke-linecap:square;stroke-width:2;"/>
   </g>
   <g id="line2d_4">
    <path clip-path="url(#pb1fbf0fb13)" d="M 45.26669 140.566189 
L 49.296621 133.512585 
L 53.326552 126.713735 
L 57.356483 120.487357 
L 61.386414 115.072778 
L 65.416345 110.607859 
L 69.446276 107.120319 
L 73.476207 104.533107 
L 77.506138 102.684234 
L 81.536069 101.359673 
L 85.566 100.333329 
L 89.595931 99.404423 
L 93.625862 98.424162 
L 97.655793 97.310304 
L 101.685724 96.055358 
L 105.715655 94.735235 
L 109.745586 93.518197 
L 113.775517 92.663328 
L 117.805448 92.492611 
L 121.835379 93.327936 
L 125.86531 95.402765 
L 129.895241 98.777573 
L 133.925172 103.295238 
L 137.955103 108.60054 
L 141.985034 114.221714 
L 146.014966 119.685654 
L 150.044897 124.625459 
L 154.074828 128.845108 
L 158.104759 132.325887 
L 162.13469 135.18222 
L 166.164621 137.590722 
L 170.194552 139.720903 
L 174.224483 141.689619 
L 178.254414 143.548555 
L 182.284345 145.300465 
L 186.314276 146.930569 
L 190.344207 148.437114 
L 194.374138 149.84917 
L 198.404069 151.227251 
L 202.434 152.649464 
L 206.463931 154.190102 
L 210.493862 155.898481 
L 214.523793 157.784324 
L 218.553724 159.813557 
L 222.583655 161.915403 
L 226.613586 163.998527 
L 230.643517 165.971217 
L 234.673448 167.75934 
L 238.703379 169.317035 
L 242.73331 170.628305 
" style="fill:none;stroke:#424243;stroke-linecap:square;stroke-width:2;"/>
   </g>
   <g id="patch_3">
    <path d="M 35.393359 183.67 
L 252.606641 183.67 
" style="fill:none;stroke:#000000;stroke-linecap:square;stroke-linejoin:miter;stroke-width:0.8;"/>
   </g>
  </g>
 </g>
 <defs>
  <clipPath id="pb1fbf0fb13">
   <rect height="160.495" width="217.213281" x="35.393359" y="23.175"/>
  </clipPath>
 </defs>
</svg>
