<?xml version="1.0" encoding="utf-8" standalone="no"?>
<!DOCTYPE svg PUBLIC "-//W3C//DTD SVG 1.1//EN"
  "http://www.w3.org/Graphics/SVG/1.1/DTD/svg11.dtd">
<!-- Created with matplotlib (http://matplotlib.org/) -->
<svg height="288pt" version="1.1" viewBox="0 0 288 288" width="288pt" xmlns="http://www.w3.org/2000/svg" xmlns:xlink="http://www.w3.org/1999/xlink">
 <defs>
  <style type="text/css">
*{stroke-linecap:butt;stroke-linejoin:round;}
  </style>
 </defs>
 <g id="figure_1">
  <g id="patch_1">
   <path d="M 0 288 
L 288 288 
L 288 0 
L 0 0 
z
" style="fill:#ffffff;"/>
  </g>
  <g id="axes_1">
   <g id="patch_2">
    <path d="M 41.749609 183.67 
L 246.250391 183.67 
L 246.250391 23.175 
L 41.749609 23.175 
z
" style="fill:#ffffff;"/>
   </g>
   <g id="PolyCollection_1">
    <defs>
     <path d="M 51.045099 -111.625227 
L 51.045099 -151.963309 
L 54.839177 -155.780119 
L 58.633255 -159.327424 
L 62.427332 -162.495357 
L 66.22141 -165.183368 
L 70.015487 -167.305943 
L 73.809565 -168.797538 
L 77.603642 -169.616278 
L 81.39772 -169.746149 
L 85.191798 -169.197491 
L 88.985875 -168.005786 
L 92.779953 -166.228887 
L 96.57403 -163.94294 
L 100.368108 -161.237413 
L 104.162185 -158.209634 
L 107.956263 -154.959309 
L 111.750341 -151.583423 
L 115.544418 -148.171872 
L 119.338496 -144.804056 
L 123.132573 -141.546568 
L 126.926651 -138.451989 
L 130.720728 -135.558708 
L 134.514806 -132.891621 
L 138.308884 -130.463485 
L 142.102961 -128.276724 
L 145.897039 -126.325461 
L 149.691116 -124.59759 
L 153.485194 -123.076736 
L 157.279272 -121.74399 
L 161.073349 -120.579362 
L 164.867427 -119.562931 
L 168.661504 -118.675681 
L 172.455582 -117.900067 
L 176.249659 -117.220347 
L 180.043737 -116.622717 
L 183.837815 -116.095312 
L 187.631892 -115.628099 
L 191.42597 -115.212705 
L 195.220047 -114.842211 
L 199.014125 -114.510937 
L 202.808202 -114.214218 
L 206.60228 -113.948213 
L 210.396358 -113.709718 
L 214.190435 -113.496027 
L 217.984513 -113.304799 
L 221.77859 -113.133975 
L 225.572668 -112.981697 
L 229.366745 -112.846273 
L 233.160823 -112.726134 
L 236.954901 -112.619825 
L 236.954901 -111.625227 
L 236.954901 -111.625227 
L 233.160823 -111.625227 
L 229.366745 -111.625227 
L 225.572668 -111.625227 
L 221.77859 -111.625227 
L 217.984513 -111.625227 
L 214.190435 -111.625227 
L 210.396358 -111.625227 
L 206.60228 -111.625227 
L 202.808202 -111.625227 
L 199.014125 -111.625227 
L 195.220047 -111.625227 
L 191.42597 -111.625227 
L 187.631892 -111.625227 
L 183.837815 -111.625227 
L 180.043737 -111.625227 
L 176.249659 -111.625227 
L 172.455582 -111.625227 
L 168.661504 -111.625227 
L 164.867427 -111.625227 
L 161.073349 -111.625227 
L 157.279272 -111.625227 
L 153.485194 -111.625227 
L 149.691116 -111.625227 
L 145.897039 -111.625227 
L 142.102961 -111.625227 
L 138.308884 -111.625227 
L 134.514806 -111.625227 
L 130.720728 -111.625227 
L 126.926651 -111.625227 
L 123.132573 -111.625227 
L 119.338496 -111.625227 
L 115.544418 -111.625227 
L 111.750341 -111.625227 
L 107.956263 -111.625227 
L 104.162185 -111.625227 
L 100.368108 -111.625227 
L 96.57403 -111.625227 
L 92.779953 -111.625227 
L 88.985875 -111.625227 
L 85.191798 -111.625227 
L 81.39772 -111.625227 
L 77.603642 -111.625227 
L 73.809565 -111.625227 
L 70.015487 -111.625227 
L 66.22141 -111.625227 
L 62.427332 -111.625227 
L 58.633255 -111.625227 
L 54.839177 -111.625227 
L 51.045099 -111.625227 
z
" id="m48dd094200" style="stroke:#cc79a7;stroke-opacity:0.3;"/>
    </defs>
    <g clip-path="url(#pe61cbe2539)">
     <use style="fill:#cc79a7;fill-opacity:0.3;stroke:#cc79a7;stroke-opacity:0.3;" x="0" xlink:href="#m48dd094200" y="288"/>
    </g>
   </g>
   <g id="PolyCollection_2">
    <defs>
     <path d="M 51.045099 -111.625227 
L 51.045099 -152.383212 
L 54.839177 -156.589762 
L 58.633255 -160.463184 
L 62.427332 -163.871268 
L 66.22141 -166.698572 
L 70.015487 -168.853526 
L 73.809565 -170.27371 
L 77.603642 -170.928901 
L 81.39772 -170.821726 
L 85.191798 -169.985964 
L 88.985875 -168.482808 
L 92.779953 -166.395533 
L 96.57403 -163.823121 
L 100.368108 -160.873462 
L 104.162185 -157.656711 
L 107.956263 -154.279295 
L 111.750341 -150.83897 
L 115.544418 -147.421172 
L 119.338496 -144.09674 
L 123.132573 -140.92098 
L 126.926651 -137.933904 
L 130.720728 -135.161389 
L 134.514806 -132.616996 
L 138.308884 -130.304142 
L 142.102961 -128.218377 
L 145.897039 -126.349572 
L 149.691116 -124.683855 
L 153.485194 -123.205229 
L 157.279272 -121.896836 
L 161.073349 -120.741886 
L 164.867427 -119.724285 
L 168.661504 -118.829015 
L 172.455582 -118.042332 
L 176.249659 -117.351812 
L 180.043737 -116.746315 
L 183.837815 -116.215882 
L 187.631892 -115.751613 
L 191.42597 -115.345532 
L 195.220047 -114.990459 
L 199.014125 -114.679916 
L 202.808202 -114.408037 
L 206.60228 -114.169519 
L 210.396358 -113.959585 
L 214.190435 -113.77397 
L 217.984513 -113.60891 
L 221.77859 -113.461132 
L 225.572668 -113.327849 
L 229.366745 -113.20674 
L 233.160823 -113.095921 
L 236.954901 -112.993907 
L 236.954901 -111.625227 
L 236.954901 -111.625227 
L 233.160823 -111.625227 
L 229.366745 -111.625227 
L 225.572668 -111.625227 
L 221.77859 -111.625227 
L 217.984513 -111.625227 
L 214.190435 -111.625227 
L 210.396358 -111.625227 
L 206.60228 -111.625227 
L 202.808202 -111.625227 
L 199.014125 -111.625227 
L 195.220047 -111.625227 
L 191.42597 -111.625227 
L 187.631892 -111.625227 
L 183.837815 -111.625227 
L 180.043737 -111.625227 
L 176.249659 -111.625227 
L 172.455582 -111.625227 
L 168.661504 -111.625227 
L 164.867427 -111.625227 
L 161.073349 -111.625227 
L 157.279272 -111.625227 
L 153.485194 -111.625227 
L 149.691116 -111.625227 
L 145.897039 -111.625227 
L 142.102961 -111.625227 
L 138.308884 -111.625227 
L 134.514806 -111.625227 
L 130.720728 -111.625227 
L 126.926651 -111.625227 
L 123.132573 -111.625227 
L 119.338496 -111.625227 
L 115.544418 -111.625227 
L 111.750341 -111.625227 
L 107.956263 -111.625227 
L 104.162185 -111.625227 
L 100.368108 -111.625227 
L 96.57403 -111.625227 
L 92.779953 -111.625227 
L 88.985875 -111.625227 
L 85.191798 -111.625227 
L 81.39772 -111.625227 
L 77.603642 -111.625227 
L 73.809565 -111.625227 
L 70.015487 -111.625227 
L 66.22141 -111.625227 
L 62.427332 -111.625227 
L 58.633255 -111.625227 
L 54.839177 -111.625227 
L 51.045099 -111.625227 
z
" id="mbc321e0b97" style="stroke:#424243;stroke-opacity:0.3;"/>
    </defs>
    <g clip-path="url(#pe61cbe2539)">
     <use style="fill:#424243;fill-opacity:0.3;stroke:#424243;stroke-opacity:0.3;" x="0" xlink:href="#mbc321e0b97" y="288"/>
    </g>
   </g>
   <g id="matplotlib.axis_1">
    <g id="xtick_1">
     <g id="line2d_1">
      <defs>
       <path d="M 0 0 
L 0 3.5 
" id="m6f0d64e4d3" style="stroke:#000000;stroke-width:0.8;"/>
      </defs>
      <g>
       <use style="stroke:#000000;stroke-width:0.8;" x="48.681489" xlink:href="#m6f0d64e4d3" y="183.67"/>
      </g>
     </g>
     <g id="text_1">
      <!-- 0 -->
      <defs>
       <path d="M 31.78125 66.40625 
Q 24.171875 66.40625 20.328125 58.90625 
Q 16.5 51.421875 16.5 36.375 
Q 16.5 21.390625 20.328125 13.890625 
Q 24.171875 6.390625 31.78125 6.390625 
Q 39.453125 6.390625 43.28125 13.890625 
Q 47.125 21.390625 47.125 36.375 
Q 47.125 51.421875 43.28125 58.90625 
Q 39.453125 66.40625 31.78125 66.40625 
z
M 31.78125 74.21875 
Q 44.046875 74.21875 50.515625 64.515625 
Q 56.984375 54.828125 56.984375 36.375 
Q 56.984375 17.96875 50.515625 8.265625 
Q 44.046875 -1.421875 31.78125 -1.421875 
Q 19.53125 -1.421875 13.0625 8.265625 
Q 6.59375 17.96875 6.59375 36.375 
Q 6.59375 54.828125 13.0625 64.515625 
Q 19.53125 74.21875 31.78125 74.21875 
z
" id="DejaVuSans-30"/>
      </defs>
      <g transform="translate(42.318989 205.866875)scale(0.2 -0.2)">
       <use xlink:href="#DejaVuSans-30"/>
      </g>
     </g>
    </g>
    <g id="xtick_2">
     <g id="line2d_2">
      <g>
       <use style="stroke:#000000;stroke-width:0.8;" x="165.79619" xlink:href="#m6f0d64e4d3" y="183.67"/>
      </g>
     </g>
     <g id="text_2">
      <!-- 20000 -->
      <defs>
       <path d="M 19.1875 8.296875 
L 53.609375 8.296875 
L 53.609375 0 
L 7.328125 0 
L 7.328125 8.296875 
Q 12.9375 14.109375 22.625 23.890625 
Q 32.328125 33.6875 34.8125 36.53125 
Q 39.546875 41.84375 41.421875 45.53125 
Q 43.3125 49.21875 43.3125 52.78125 
Q 43.3125 58.59375 39.234375 62.25 
Q 35.15625 65.921875 28.609375 65.921875 
Q 23.96875 65.921875 18.8125 64.3125 
Q 13.671875 62.703125 7.8125 59.421875 
L 7.8125 69.390625 
Q 13.765625 71.78125 18.9375 73 
Q 24.125 74.21875 28.421875 74.21875 
Q 39.75 74.21875 46.484375 68.546875 
Q 53.21875 62.890625 53.21875 53.421875 
Q 53.21875 48.921875 51.53125 44.890625 
Q 49.859375 40.875 45.40625 35.40625 
Q 44.1875 33.984375 37.640625 27.21875 
Q 31.109375 20.453125 19.1875 8.296875 
z
" id="DejaVuSans-32"/>
      </defs>
      <g transform="translate(133.98369 205.866875)scale(0.2 -0.2)">
       <use xlink:href="#DejaVuSans-32"/>
       <use x="63.623047" xlink:href="#DejaVuSans-30"/>
       <use x="127.246094" xlink:href="#DejaVuSans-30"/>
       <use x="190.869141" xlink:href="#DejaVuSans-30"/>
       <use x="254.492188" xlink:href="#DejaVuSans-30"/>
      </g>
     </g>
    </g>
    <g id="text_3">
     <!-- precipitation -->
     <defs>
      <path d="M 18.109375 8.203125 
L 18.109375 -20.796875 
L 9.078125 -20.796875 
L 9.078125 54.6875 
L 18.109375 54.6875 
L 18.109375 46.390625 
Q 20.953125 51.265625 25.265625 53.625 
Q 29.59375 56 35.59375 56 
Q 45.5625 56 51.78125 48.09375 
Q 58.015625 40.1875 58.015625 27.296875 
Q 58.015625 14.40625 51.78125 6.484375 
Q 45.5625 -1.421875 35.59375 -1.421875 
Q 29.59375 -1.421875 25.265625 0.953125 
Q 20.953125 3.328125 18.109375 8.203125 
z
M 48.6875 27.296875 
Q 48.6875 37.203125 44.609375 42.84375 
Q 40.53125 48.484375 33.40625 48.484375 
Q 26.265625 48.484375 22.1875 42.84375 
Q 18.109375 37.203125 18.109375 27.296875 
Q 18.109375 17.390625 22.1875 11.75 
Q 26.265625 6.109375 33.40625 6.109375 
Q 40.53125 6.109375 44.609375 11.75 
Q 48.6875 17.390625 48.6875 27.296875 
z
" id="DejaVuSans-70"/>
      <path d="M 41.109375 46.296875 
Q 39.59375 47.171875 37.8125 47.578125 
Q 36.03125 48 33.890625 48 
Q 26.265625 48 22.1875 43.046875 
Q 18.109375 38.09375 18.109375 28.8125 
L 18.109375 0 
L 9.078125 0 
L 9.078125 54.6875 
L 18.109375 54.6875 
L 18.109375 46.1875 
Q 20.953125 51.171875 25.484375 53.578125 
Q 30.03125 56 36.53125 56 
Q 37.453125 56 38.578125 55.875 
Q 39.703125 55.765625 41.0625 55.515625 
z
" id="DejaVuSans-72"/>
      <path d="M 56.203125 29.59375 
L 56.203125 25.203125 
L 14.890625 25.203125 
Q 15.484375 15.921875 20.484375 11.0625 
Q 25.484375 6.203125 34.421875 6.203125 
Q 39.59375 6.203125 44.453125 7.46875 
Q 49.3125 8.734375 54.109375 11.28125 
L 54.109375 2.78125 
Q 49.265625 0.734375 44.1875 -0.34375 
Q 39.109375 -1.421875 33.890625 -1.421875 
Q 20.796875 -1.421875 13.15625 6.1875 
Q 5.515625 13.8125 5.515625 26.8125 
Q 5.515625 40.234375 12.765625 48.109375 
Q 20.015625 56 32.328125 56 
Q 43.359375 56 49.78125 48.890625 
Q 56.203125 41.796875 56.203125 29.59375 
z
M 47.21875 32.234375 
Q 47.125 39.59375 43.09375 43.984375 
Q 39.0625 48.390625 32.421875 48.390625 
Q 24.90625 48.390625 20.390625 44.140625 
Q 15.875 39.890625 15.1875 32.171875 
z
" id="DejaVuSans-65"/>
      <path d="M 48.78125 52.59375 
L 48.78125 44.1875 
Q 44.96875 46.296875 41.140625 47.34375 
Q 37.3125 48.390625 33.40625 48.390625 
Q 24.65625 48.390625 19.8125 42.84375 
Q 14.984375 37.3125 14.984375 27.296875 
Q 14.984375 17.28125 19.8125 11.734375 
Q 24.65625 6.203125 33.40625 6.203125 
Q 37.3125 6.203125 41.140625 7.25 
Q 44.96875 8.296875 48.78125 10.40625 
L 48.78125 2.09375 
Q 45.015625 0.34375 40.984375 -0.53125 
Q 36.96875 -1.421875 32.421875 -1.421875 
Q 20.0625 -1.421875 12.78125 6.34375 
Q 5.515625 14.109375 5.515625 27.296875 
Q 5.515625 40.671875 12.859375 48.328125 
Q 20.21875 56 33.015625 56 
Q 37.15625 56 41.109375 55.140625 
Q 45.0625 54.296875 48.78125 52.59375 
z
" id="DejaVuSans-63"/>
      <path d="M 9.421875 54.6875 
L 18.40625 54.6875 
L 18.40625 0 
L 9.421875 0 
z
M 9.421875 75.984375 
L 18.40625 75.984375 
L 18.40625 64.59375 
L 9.421875 64.59375 
z
" id="DejaVuSans-69"/>
      <path d="M 18.3125 70.21875 
L 18.3125 54.6875 
L 36.8125 54.6875 
L 36.8125 47.703125 
L 18.3125 47.703125 
L 18.3125 18.015625 
Q 18.3125 11.328125 20.140625 9.421875 
Q 21.96875 7.515625 27.59375 7.515625 
L 36.8125 7.515625 
L 36.8125 0 
L 27.59375 0 
Q 17.1875 0 13.234375 3.875 
Q 9.28125 7.765625 9.28125 18.015625 
L 9.28125 47.703125 
L 2.6875 47.703125 
L 2.6875 54.6875 
L 9.28125 54.6875 
L 9.28125 70.21875 
z
" id="DejaVuSans-74"/>
      <path d="M 34.28125 27.484375 
Q 23.390625 27.484375 19.1875 25 
Q 14.984375 22.515625 14.984375 16.5 
Q 14.984375 11.71875 18.140625 8.90625 
Q 21.296875 6.109375 26.703125 6.109375 
Q 34.1875 6.109375 38.703125 11.40625 
Q 43.21875 16.703125 43.21875 25.484375 
L 43.21875 27.484375 
z
M 52.203125 31.203125 
L 52.203125 0 
L 43.21875 0 
L 43.21875 8.296875 
Q 40.140625 3.328125 35.546875 0.953125 
Q 30.953125 -1.421875 24.3125 -1.421875 
Q 15.921875 -1.421875 10.953125 3.296875 
Q 6 8.015625 6 15.921875 
Q 6 25.140625 12.171875 29.828125 
Q 18.359375 34.515625 30.609375 34.515625 
L 43.21875 34.515625 
L 43.21875 35.40625 
Q 43.21875 41.609375 39.140625 45 
Q 35.0625 48.390625 27.6875 48.390625 
Q 23 48.390625 18.546875 47.265625 
Q 14.109375 46.140625 10.015625 43.890625 
L 10.015625 52.203125 
Q 14.9375 54.109375 19.578125 55.046875 
Q 24.21875 56 28.609375 56 
Q 40.484375 56 46.34375 49.84375 
Q 52.203125 43.703125 52.203125 31.203125 
z
" id="DejaVuSans-61"/>
      <path d="M 30.609375 48.390625 
Q 23.390625 48.390625 19.1875 42.75 
Q 14.984375 37.109375 14.984375 27.296875 
Q 14.984375 17.484375 19.15625 11.84375 
Q 23.34375 6.203125 30.609375 6.203125 
Q 37.796875 6.203125 41.984375 11.859375 
Q 46.1875 17.53125 46.1875 27.296875 
Q 46.1875 37.015625 41.984375 42.703125 
Q 37.796875 48.390625 30.609375 48.390625 
z
M 30.609375 56 
Q 42.328125 56 49.015625 48.375 
Q 55.71875 40.765625 55.71875 27.296875 
Q 55.71875 13.875 49.015625 6.21875 
Q 42.328125 -1.421875 30.609375 -1.421875 
Q 18.84375 -1.421875 12.171875 6.21875 
Q 5.515625 13.875 5.515625 27.296875 
Q 5.515625 40.765625 12.171875 48.375 
Q 18.84375 56 30.609375 56 
z
" id="DejaVuSans-6f"/>
      <path d="M 54.890625 33.015625 
L 54.890625 0 
L 45.90625 0 
L 45.90625 32.71875 
Q 45.90625 40.484375 42.875 44.328125 
Q 39.84375 48.1875 33.796875 48.1875 
Q 26.515625 48.1875 22.3125 43.546875 
Q 18.109375 38.921875 18.109375 30.90625 
L 18.109375 0 
L 9.078125 0 
L 9.078125 54.6875 
L 18.109375 54.6875 
L 18.109375 46.1875 
Q 21.34375 51.125 25.703125 53.5625 
Q 30.078125 56 35.796875 56 
Q 45.21875 56 50.046875 50.171875 
Q 54.890625 44.34375 54.890625 33.015625 
z
" id="DejaVuSans-6e"/>
     </defs>
     <g transform="translate(64.980469 233.022344)scale(0.25 -0.25)">
      <use xlink:href="#DejaVuSans-70"/>
      <use x="63.476562" xlink:href="#DejaVuSans-72"/>
      <use x="104.558594" xlink:href="#DejaVuSans-65"/>
      <use x="166.082031" xlink:href="#DejaVuSans-63"/>
      <use x="221.0625" xlink:href="#DejaVuSans-69"/>
      <use x="248.845703" xlink:href="#DejaVuSans-70"/>
      <use x="312.322266" xlink:href="#DejaVuSans-69"/>
      <use x="340.105469" xlink:href="#DejaVuSans-74"/>
      <use x="379.314453" xlink:href="#DejaVuSans-61"/>
      <use x="440.59375" xlink:href="#DejaVuSans-74"/>
      <use x="479.802734" xlink:href="#DejaVuSans-69"/>
      <use x="507.585938" xlink:href="#DejaVuSans-6f"/>
      <use x="568.767578" xlink:href="#DejaVuSans-6e"/>
     </g>
     <!-- variance -->
     <defs>
      <path d="M 2.984375 54.6875 
L 12.5 54.6875 
L 29.59375 8.796875 
L 46.6875 54.6875 
L 56.203125 54.6875 
L 35.6875 0 
L 23.484375 0 
z
" id="DejaVuSans-76"/>
     </defs>
     <g transform="translate(90.183594 261.016875)scale(0.25 -0.25)">
      <use xlink:href="#DejaVuSans-76"/>
      <use x="59.179688" xlink:href="#DejaVuSans-61"/>
      <use x="120.458984" xlink:href="#DejaVuSans-72"/>
      <use x="161.572266" xlink:href="#DejaVuSans-69"/>
      <use x="189.355469" xlink:href="#DejaVuSans-61"/>
      <use x="250.634766" xlink:href="#DejaVuSans-6e"/>
      <use x="314.013672" xlink:href="#DejaVuSans-63"/>
      <use x="368.994141" xlink:href="#DejaVuSans-65"/>
     </g>
    </g>
   </g>
   <g id="line2d_3">
    <path clip-path="url(#pe61cbe2539)" d="M 51.045099 136.036691 
L 54.839177 132.219881 
L 58.633255 128.672576 
L 62.427332 125.504643 
L 66.22141 122.816632 
L 70.015487 120.694057 
L 73.809565 119.202462 
L 77.603642 118.383722 
L 81.39772 118.253851 
L 85.191798 118.802509 
L 88.985875 119.994214 
L 92.779953 121.771113 
L 96.57403 124.05706 
L 100.368108 126.762587 
L 104.162185 129.790366 
L 107.956263 133.040691 
L 111.750341 136.416577 
L 115.544418 139.828128 
L 119.338496 143.195944 
L 123.132573 146.453432 
L 126.926651 149.548011 
L 130.720728 152.441292 
L 134.514806 155.108379 
L 138.308884 157.536515 
L 142.102961 159.723276 
L 145.897039 161.674539 
L 149.691116 163.40241 
L 153.485194 164.923264 
L 157.279272 166.25601 
L 161.073349 167.420638 
L 164.867427 168.437069 
L 168.661504 169.324319 
L 172.455582 170.099933 
L 176.249659 170.779653 
L 180.043737 171.377283 
L 183.837815 171.904688 
L 187.631892 172.371901 
L 191.42597 172.787295 
L 195.220047 173.157789 
L 199.014125 173.489063 
L 202.808202 173.785782 
L 206.60228 174.051787 
L 210.396358 174.290282 
L 214.190435 174.503973 
L 217.984513 174.695201 
L 221.77859 174.866025 
L 225.572668 175.018303 
L 229.366745 175.153727 
L 233.160823 175.273866 
L 236.954901 175.380175 
" style="fill:none;stroke:#cc79a7;stroke-linecap:square;stroke-width:2;"/>
   </g>
   <g id="line2d_4">
    <path clip-path="url(#pe61cbe2539)" d="M 51.045099 135.616788 
L 54.839177 131.410238 
L 58.633255 127.536816 
L 62.427332 124.128732 
L 66.22141 121.301428 
L 70.015487 119.146474 
L 73.809565 117.72629 
L 77.603642 117.071099 
L 81.39772 117.178274 
L 85.191798 118.014036 
L 88.985875 119.517192 
L 92.779953 121.604467 
L 96.57403 124.176879 
L 100.368108 127.126538 
L 104.162185 130.343289 
L 107.956263 133.720705 
L 111.750341 137.16103 
L 115.544418 140.578828 
L 119.338496 143.90326 
L 123.132573 147.07902 
L 126.926651 150.066096 
L 130.720728 152.838611 
L 134.514806 155.383004 
L 138.308884 157.695858 
L 142.102961 159.781623 
L 145.897039 161.650428 
L 149.691116 163.316145 
L 153.485194 164.794771 
L 157.279272 166.103164 
L 161.073349 167.258114 
L 164.867427 168.275715 
L 168.661504 169.170985 
L 172.455582 169.957668 
L 176.249659 170.648188 
L 180.043737 171.253685 
L 183.837815 171.784118 
L 187.631892 172.248387 
L 191.42597 172.654468 
L 195.220047 173.009541 
L 199.014125 173.320084 
L 202.808202 173.591963 
L 206.60228 173.830481 
L 210.396358 174.040415 
L 214.190435 174.22603 
L 217.984513 174.39109 
L 221.77859 174.538868 
L 225.572668 174.672151 
L 229.366745 174.79326 
L 233.160823 174.904079 
L 236.954901 175.006093 
" style="fill:none;stroke:#424243;stroke-linecap:square;stroke-width:2;"/>
   </g>
   <g id="patch_3">
    <path d="M 41.749609 183.67 
L 246.250391 183.67 
" style="fill:none;stroke:#000000;stroke-linecap:square;stroke-linejoin:miter;stroke-width:0.8;"/>
   </g>
  </g>
 </g>
 <defs>
  <clipPath id="pe61cbe2539">
   <rect height="160.495" width="204.500781" x="41.749609" y="23.175"/>
  </clipPath>
 </defs>
</svg>
