<?xml version="1.0" encoding="utf-8" standalone="no"?>
<!DOCTYPE svg PUBLIC "-//W3C//DTD SVG 1.1//EN"
  "http://www.w3.org/Graphics/SVG/1.1/DTD/svg11.dtd">
<!-- Created with matplotlib (http://matplotlib.org/) -->
<svg height="288pt" version="1.1" viewBox="0 0 288 288" width="288pt" xmlns="http://www.w3.org/2000/svg" xmlns:xlink="http://www.w3.org/1999/xlink">
 <defs>
  <style type="text/css">
*{stroke-linecap:butt;stroke-linejoin:round;}
  </style>
 </defs>
 <g id="figure_1">
  <g id="patch_1">
   <path d="M 0 288 
L 288 288 
L 288 0 
L 0 0 
z
" style="fill:#ffffff;"/>
  </g>
  <g id="axes_1">
   <g id="patch_2">
    <path d="M 42.24625 183.496 
L 245.75375 183.496 
L 245.75375 23.28 
L 42.24625 23.28 
z
" style="fill:#ffffff;"/>
   </g>
   <g id="PolyCollection_1">
    <defs>
     <path d="M 51.496591 -111.786545 
L 51.496591 -126.537947 
L 55.27224 -136.212977 
L 59.04789 -145.414992 
L 62.823539 -153.807425 
L 66.599188 -165.105371 
L 70.374838 -184.184866 
L 74.150487 -210.83492 
L 77.926136 -237.775464 
L 81.701786 -255.638468 
L 85.477435 -257.437455 
L 89.253084 -240.946559 
L 93.028734 -212.667099 
L 96.804383 -185.60818 
L 100.580032 -168.416111 
L 104.355682 -160.013235 
L 108.131331 -155.022491 
L 111.906981 -149.998592 
L 115.68263 -144.472125 
L 119.458279 -139.333237 
L 123.233929 -135.29311 
L 127.009578 -132.12618 
L 130.785227 -129.003399 
L 134.560877 -125.541789 
L 138.336526 -122.212432 
L 142.112175 -119.5655 
L 145.887825 -117.595356 
L 149.663474 -116.063628 
L 153.439123 -114.895841 
L 157.214773 -114.113641 
L 160.990422 -113.710536 
L 164.766071 -113.598153 
L 168.541721 -113.573847 
L 172.31737 -113.449196 
L 176.093019 -113.195992 
L 179.868669 -112.900884 
L 183.644318 -112.656389 
L 187.419968 -112.514216 
L 191.195617 -112.459632 
L 194.971266 -112.418059 
L 198.746916 -112.333772 
L 202.522565 -112.218519 
L 206.298214 -112.10789 
L 210.073864 -112.022616 
L 213.849513 -111.966088 
L 217.625162 -111.922933 
L 221.400812 -111.876301 
L 225.176461 -111.831416 
L 228.95211 -111.802452 
L 232.72776 -111.790494 
L 236.503409 -111.787796 
L 236.503409 -111.786545 
L 236.503409 -111.786545 
L 232.72776 -111.786545 
L 228.95211 -111.786545 
L 225.176461 -111.786545 
L 221.400812 -111.786545 
L 217.625162 -111.786545 
L 213.849513 -111.786545 
L 210.073864 -111.786545 
L 206.298214 -111.786545 
L 202.522565 -111.786545 
L 198.746916 -111.786545 
L 194.971266 -111.786545 
L 191.195617 -111.786545 
L 187.419968 -111.786545 
L 183.644318 -111.786545 
L 179.868669 -111.786545 
L 176.093019 -111.786545 
L 172.31737 -111.786545 
L 168.541721 -111.786545 
L 164.766071 -111.786545 
L 160.990422 -111.786545 
L 157.214773 -111.786545 
L 153.439123 -111.786545 
L 149.663474 -111.786545 
L 145.887825 -111.786545 
L 142.112175 -111.786545 
L 138.336526 -111.786545 
L 134.560877 -111.786545 
L 130.785227 -111.786545 
L 127.009578 -111.786545 
L 123.233929 -111.786545 
L 119.458279 -111.786545 
L 115.68263 -111.786545 
L 111.906981 -111.786545 
L 108.131331 -111.786545 
L 104.355682 -111.786545 
L 100.580032 -111.786545 
L 96.804383 -111.786545 
L 93.028734 -111.786545 
L 89.253084 -111.786545 
L 85.477435 -111.786545 
L 81.701786 -111.786545 
L 77.926136 -111.786545 
L 74.150487 -111.786545 
L 70.374838 -111.786545 
L 66.599188 -111.786545 
L 62.823539 -111.786545 
L 59.04789 -111.786545 
L 55.27224 -111.786545 
L 51.496591 -111.786545 
z
" id="m8d7801350d" style="stroke:#e69f00;stroke-opacity:0.3;"/>
    </defs>
    <g clip-path="url(#p7e42d7f370)">
     <use style="fill:#e69f00;fill-opacity:0.3;stroke:#e69f00;stroke-opacity:0.3;" x="0" xlink:href="#m8d7801350d" y="288"/>
    </g>
   </g>
   <g id="PolyCollection_2">
    <defs>
     <path d="M 51.496591 -111.786545 
L 51.496591 -152.473678 
L 55.27224 -156.672915 
L 59.04789 -160.539604 
L 62.823539 -163.941763 
L 66.599188 -166.764153 
L 70.374838 -168.91536 
L 74.150487 -170.333075 
L 77.926136 -170.987128 
L 81.701786 -170.880139 
L 85.477435 -170.045829 
L 89.253084 -168.545287 
L 93.028734 -166.46164 
L 96.804383 -163.8937 
L 100.580032 -160.949169 
L 104.355682 -157.73801 
L 108.131331 -154.366464 
L 111.906981 -150.93212 
L 115.68263 -147.520264 
L 119.458279 -144.20161 
L 123.233929 -141.031371 
L 127.009578 -138.049487 
L 130.785227 -135.281793 
L 134.560877 -132.741823 
L 138.336526 -130.432989 
L 142.112175 -128.35085 
L 145.887825 -126.485294 
L 149.663474 -124.822473 
L 153.439123 -123.346417 
L 157.214773 -122.040299 
L 160.990422 -120.887356 
L 164.766071 -119.871524 
L 168.541721 -118.977811 
L 172.31737 -118.192495 
L 176.093019 -117.503176 
L 179.868669 -116.898731 
L 183.644318 -116.36922 
L 187.419968 -115.905758 
L 191.195617 -115.500382 
L 194.971266 -115.145928 
L 198.746916 -114.835924 
L 202.522565 -114.564518 
L 206.298214 -114.326414 
L 210.073864 -114.116845 
L 213.849513 -113.931553 
L 217.625162 -113.766779 
L 221.400812 -113.619259 
L 225.176461 -113.486208 
L 228.95211 -113.365309 
L 232.72776 -113.254682 
L 236.503409 -113.152846 
L 236.503409 -111.786545 
L 236.503409 -111.786545 
L 232.72776 -111.786545 
L 228.95211 -111.786545 
L 225.176461 -111.786545 
L 221.400812 -111.786545 
L 217.625162 -111.786545 
L 213.849513 -111.786545 
L 210.073864 -111.786545 
L 206.298214 -111.786545 
L 202.522565 -111.786545 
L 198.746916 -111.786545 
L 194.971266 -111.786545 
L 191.195617 -111.786545 
L 187.419968 -111.786545 
L 183.644318 -111.786545 
L 179.868669 -111.786545 
L 176.093019 -111.786545 
L 172.31737 -111.786545 
L 168.541721 -111.786545 
L 164.766071 -111.786545 
L 160.990422 -111.786545 
L 157.214773 -111.786545 
L 153.439123 -111.786545 
L 149.663474 -111.786545 
L 145.887825 -111.786545 
L 142.112175 -111.786545 
L 138.336526 -111.786545 
L 134.560877 -111.786545 
L 130.785227 -111.786545 
L 127.009578 -111.786545 
L 123.233929 -111.786545 
L 119.458279 -111.786545 
L 115.68263 -111.786545 
L 111.906981 -111.786545 
L 108.131331 -111.786545 
L 104.355682 -111.786545 
L 100.580032 -111.786545 
L 96.804383 -111.786545 
L 93.028734 -111.786545 
L 89.253084 -111.786545 
L 85.477435 -111.786545 
L 81.701786 -111.786545 
L 77.926136 -111.786545 
L 74.150487 -111.786545 
L 70.374838 -111.786545 
L 66.599188 -111.786545 
L 62.823539 -111.786545 
L 59.04789 -111.786545 
L 55.27224 -111.786545 
L 51.496591 -111.786545 
z
" id="m6f78a0ac34" style="stroke:#424243;stroke-opacity:0.3;"/>
    </defs>
    <g clip-path="url(#p7e42d7f370)">
     <use style="fill:#424243;fill-opacity:0.3;stroke:#424243;stroke-opacity:0.3;" x="0" xlink:href="#m6f78a0ac34" y="288"/>
    </g>
   </g>
   <g id="matplotlib.axis_1">
    <g id="xtick_1">
     <g id="line2d_1">
      <defs>
       <path d="M 0 0 
L 0 3.5 
" id="m7bf05d1e47" style="stroke:#000000;stroke-width:0.8;"/>
      </defs>
      <g>
       <use style="stroke:#000000;stroke-width:0.8;" x="49.144461" xlink:href="#m7bf05d1e47" y="183.496"/>
      </g>
     </g>
     <g id="text_1">
      <!-- 0 -->
      <defs>
       <path d="M 31.78125 66.40625 
Q 24.171875 66.40625 20.328125 58.90625 
Q 16.5 51.421875 16.5 36.375 
Q 16.5 21.390625 20.328125 13.890625 
Q 24.171875 6.390625 31.78125 6.390625 
Q 39.453125 6.390625 43.28125 13.890625 
Q 47.125 21.390625 47.125 36.375 
Q 47.125 51.421875 43.28125 58.90625 
Q 39.453125 66.40625 31.78125 66.40625 
z
M 31.78125 74.21875 
Q 44.046875 74.21875 50.515625 64.515625 
Q 56.984375 54.828125 56.984375 36.375 
Q 56.984375 17.96875 50.515625 8.265625 
Q 44.046875 -1.421875 31.78125 -1.421875 
Q 19.53125 -1.421875 13.0625 8.265625 
Q 6.59375 17.96875 6.59375 36.375 
Q 6.59375 54.828125 13.0625 64.515625 
Q 19.53125 74.21875 31.78125 74.21875 
z
" id="DejaVuSans-30"/>
      </defs>
      <g transform="translate(42.781961 205.692875)scale(0.2 -0.2)">
       <use xlink:href="#DejaVuSans-30"/>
      </g>
     </g>
    </g>
    <g id="xtick_2">
     <g id="line2d_2">
      <g>
       <use style="stroke:#000000;stroke-width:0.8;" x="165.690324" xlink:href="#m7bf05d1e47" y="183.496"/>
      </g>
     </g>
     <g id="text_2">
      <!-- 20000 -->
      <defs>
       <path d="M 19.1875 8.296875 
L 53.609375 8.296875 
L 53.609375 0 
L 7.328125 0 
L 7.328125 8.296875 
Q 12.9375 14.109375 22.625 23.890625 
Q 32.328125 33.6875 34.8125 36.53125 
Q 39.546875 41.84375 41.421875 45.53125 
Q 43.3125 49.21875 43.3125 52.78125 
Q 43.3125 58.59375 39.234375 62.25 
Q 35.15625 65.921875 28.609375 65.921875 
Q 23.96875 65.921875 18.8125 64.3125 
Q 13.671875 62.703125 7.8125 59.421875 
L 7.8125 69.390625 
Q 13.765625 71.78125 18.9375 73 
Q 24.125 74.21875 28.421875 74.21875 
Q 39.75 74.21875 46.484375 68.546875 
Q 53.21875 62.890625 53.21875 53.421875 
Q 53.21875 48.921875 51.53125 44.890625 
Q 49.859375 40.875 45.40625 35.40625 
Q 44.1875 33.984375 37.640625 27.21875 
Q 31.109375 20.453125 19.1875 8.296875 
z
" id="DejaVuSans-32"/>
      </defs>
      <g transform="translate(133.877824 205.692875)scale(0.2 -0.2)">
       <use xlink:href="#DejaVuSans-32"/>
       <use x="63.623047" xlink:href="#DejaVuSans-30"/>
       <use x="127.246094" xlink:href="#DejaVuSans-30"/>
       <use x="190.869141" xlink:href="#DejaVuSans-30"/>
       <use x="254.492188" xlink:href="#DejaVuSans-30"/>
      </g>
     </g>
    </g>
    <g id="text_3">
     <!-- precipitation -->
     <defs>
      <path d="M 18.109375 8.203125 
L 18.109375 -20.796875 
L 9.078125 -20.796875 
L 9.078125 54.6875 
L 18.109375 54.6875 
L 18.109375 46.390625 
Q 20.953125 51.265625 25.265625 53.625 
Q 29.59375 56 35.59375 56 
Q 45.5625 56 51.78125 48.09375 
Q 58.015625 40.1875 58.015625 27.296875 
Q 58.015625 14.40625 51.78125 6.484375 
Q 45.5625 -1.421875 35.59375 -1.421875 
Q 29.59375 -1.421875 25.265625 0.953125 
Q 20.953125 3.328125 18.109375 8.203125 
z
M 48.6875 27.296875 
Q 48.6875 37.203125 44.609375 42.84375 
Q 40.53125 48.484375 33.40625 48.484375 
Q 26.265625 48.484375 22.1875 42.84375 
Q 18.109375 37.203125 18.109375 27.296875 
Q 18.109375 17.390625 22.1875 11.75 
Q 26.265625 6.109375 33.40625 6.109375 
Q 40.53125 6.109375 44.609375 11.75 
Q 48.6875 17.390625 48.6875 27.296875 
z
" id="DejaVuSans-70"/>
      <path d="M 41.109375 46.296875 
Q 39.59375 47.171875 37.8125 47.578125 
Q 36.03125 48 33.890625 48 
Q 26.265625 48 22.1875 43.046875 
Q 18.109375 38.09375 18.109375 28.8125 
L 18.109375 0 
L 9.078125 0 
L 9.078125 54.6875 
L 18.109375 54.6875 
L 18.109375 46.1875 
Q 20.953125 51.171875 25.484375 53.578125 
Q 30.03125 56 36.53125 56 
Q 37.453125 56 38.578125 55.875 
Q 39.703125 55.765625 41.0625 55.515625 
z
" id="DejaVuSans-72"/>
      <path d="M 56.203125 29.59375 
L 56.203125 25.203125 
L 14.890625 25.203125 
Q 15.484375 15.921875 20.484375 11.0625 
Q 25.484375 6.203125 34.421875 6.203125 
Q 39.59375 6.203125 44.453125 7.46875 
Q 49.3125 8.734375 54.109375 11.28125 
L 54.109375 2.78125 
Q 49.265625 0.734375 44.1875 -0.34375 
Q 39.109375 -1.421875 33.890625 -1.421875 
Q 20.796875 -1.421875 13.15625 6.1875 
Q 5.515625 13.8125 5.515625 26.8125 
Q 5.515625 40.234375 12.765625 48.109375 
Q 20.015625 56 32.328125 56 
Q 43.359375 56 49.78125 48.890625 
Q 56.203125 41.796875 56.203125 29.59375 
z
M 47.21875 32.234375 
Q 47.125 39.59375 43.09375 43.984375 
Q 39.0625 48.390625 32.421875 48.390625 
Q 24.90625 48.390625 20.390625 44.140625 
Q 15.875 39.890625 15.1875 32.171875 
z
" id="DejaVuSans-65"/>
      <path d="M 48.78125 52.59375 
L 48.78125 44.1875 
Q 44.96875 46.296875 41.140625 47.34375 
Q 37.3125 48.390625 33.40625 48.390625 
Q 24.65625 48.390625 19.8125 42.84375 
Q 14.984375 37.3125 14.984375 27.296875 
Q 14.984375 17.28125 19.8125 11.734375 
Q 24.65625 6.203125 33.40625 6.203125 
Q 37.3125 6.203125 41.140625 7.25 
Q 44.96875 8.296875 48.78125 10.40625 
L 48.78125 2.09375 
Q 45.015625 0.34375 40.984375 -0.53125 
Q 36.96875 -1.421875 32.421875 -1.421875 
Q 20.0625 -1.421875 12.78125 6.34375 
Q 5.515625 14.109375 5.515625 27.296875 
Q 5.515625 40.671875 12.859375 48.328125 
Q 20.21875 56 33.015625 56 
Q 37.15625 56 41.109375 55.140625 
Q 45.0625 54.296875 48.78125 52.59375 
z
" id="DejaVuSans-63"/>
      <path d="M 9.421875 54.6875 
L 18.40625 54.6875 
L 18.40625 0 
L 9.421875 0 
z
M 9.421875 75.984375 
L 18.40625 75.984375 
L 18.40625 64.59375 
L 9.421875 64.59375 
z
" id="DejaVuSans-69"/>
      <path d="M 18.3125 70.21875 
L 18.3125 54.6875 
L 36.8125 54.6875 
L 36.8125 47.703125 
L 18.3125 47.703125 
L 18.3125 18.015625 
Q 18.3125 11.328125 20.140625 9.421875 
Q 21.96875 7.515625 27.59375 7.515625 
L 36.8125 7.515625 
L 36.8125 0 
L 27.59375 0 
Q 17.1875 0 13.234375 3.875 
Q 9.28125 7.765625 9.28125 18.015625 
L 9.28125 47.703125 
L 2.6875 47.703125 
L 2.6875 54.6875 
L 9.28125 54.6875 
L 9.28125 70.21875 
z
" id="DejaVuSans-74"/>
      <path d="M 34.28125 27.484375 
Q 23.390625 27.484375 19.1875 25 
Q 14.984375 22.515625 14.984375 16.5 
Q 14.984375 11.71875 18.140625 8.90625 
Q 21.296875 6.109375 26.703125 6.109375 
Q 34.1875 6.109375 38.703125 11.40625 
Q 43.21875 16.703125 43.21875 25.484375 
L 43.21875 27.484375 
z
M 52.203125 31.203125 
L 52.203125 0 
L 43.21875 0 
L 43.21875 8.296875 
Q 40.140625 3.328125 35.546875 0.953125 
Q 30.953125 -1.421875 24.3125 -1.421875 
Q 15.921875 -1.421875 10.953125 3.296875 
Q 6 8.015625 6 15.921875 
Q 6 25.140625 12.171875 29.828125 
Q 18.359375 34.515625 30.609375 34.515625 
L 43.21875 34.515625 
L 43.21875 35.40625 
Q 43.21875 41.609375 39.140625 45 
Q 35.0625 48.390625 27.6875 48.390625 
Q 23 48.390625 18.546875 47.265625 
Q 14.109375 46.140625 10.015625 43.890625 
L 10.015625 52.203125 
Q 14.9375 54.109375 19.578125 55.046875 
Q 24.21875 56 28.609375 56 
Q 40.484375 56 46.34375 49.84375 
Q 52.203125 43.703125 52.203125 31.203125 
z
" id="DejaVuSans-61"/>
      <path d="M 30.609375 48.390625 
Q 23.390625 48.390625 19.1875 42.75 
Q 14.984375 37.109375 14.984375 27.296875 
Q 14.984375 17.484375 19.15625 11.84375 
Q 23.34375 6.203125 30.609375 6.203125 
Q 37.796875 6.203125 41.984375 11.859375 
Q 46.1875 17.53125 46.1875 27.296875 
Q 46.1875 37.015625 41.984375 42.703125 
Q 37.796875 48.390625 30.609375 48.390625 
z
M 30.609375 56 
Q 42.328125 56 49.015625 48.375 
Q 55.71875 40.765625 55.71875 27.296875 
Q 55.71875 13.875 49.015625 6.21875 
Q 42.328125 -1.421875 30.609375 -1.421875 
Q 18.84375 -1.421875 12.171875 6.21875 
Q 5.515625 13.875 5.515625 27.296875 
Q 5.515625 40.765625 12.171875 48.375 
Q 18.84375 56 30.609375 56 
z
" id="DejaVuSans-6f"/>
      <path d="M 54.890625 33.015625 
L 54.890625 0 
L 45.90625 0 
L 45.90625 32.71875 
Q 45.90625 40.484375 42.875 44.328125 
Q 39.84375 48.1875 33.796875 48.1875 
Q 26.515625 48.1875 22.3125 43.546875 
Q 18.109375 38.921875 18.109375 30.90625 
L 18.109375 0 
L 9.078125 0 
L 9.078125 54.6875 
L 18.109375 54.6875 
L 18.109375 46.1875 
Q 21.34375 51.125 25.703125 53.5625 
Q 30.078125 56 35.796875 56 
Q 45.21875 56 50.046875 50.171875 
Q 54.890625 44.34375 54.890625 33.015625 
z
" id="DejaVuSans-6e"/>
     </defs>
     <g transform="translate(64.980469 232.848344)scale(0.25 -0.25)">
      <use xlink:href="#DejaVuSans-70"/>
      <use x="63.476562" xlink:href="#DejaVuSans-72"/>
      <use x="104.558594" xlink:href="#DejaVuSans-65"/>
      <use x="166.082031" xlink:href="#DejaVuSans-63"/>
      <use x="221.0625" xlink:href="#DejaVuSans-69"/>
      <use x="248.845703" xlink:href="#DejaVuSans-70"/>
      <use x="312.322266" xlink:href="#DejaVuSans-69"/>
      <use x="340.105469" xlink:href="#DejaVuSans-74"/>
      <use x="379.314453" xlink:href="#DejaVuSans-61"/>
      <use x="440.59375" xlink:href="#DejaVuSans-74"/>
      <use x="479.802734" xlink:href="#DejaVuSans-69"/>
      <use x="507.585938" xlink:href="#DejaVuSans-6f"/>
      <use x="568.767578" xlink:href="#DejaVuSans-6e"/>
     </g>
     <!-- variance -->
     <defs>
      <path d="M 2.984375 54.6875 
L 12.5 54.6875 
L 29.59375 8.796875 
L 46.6875 54.6875 
L 56.203125 54.6875 
L 35.6875 0 
L 23.484375 0 
z
" id="DejaVuSans-76"/>
     </defs>
     <g transform="translate(90.183594 260.842875)scale(0.25 -0.25)">
      <use xlink:href="#DejaVuSans-76"/>
      <use x="59.179688" xlink:href="#DejaVuSans-61"/>
      <use x="120.458984" xlink:href="#DejaVuSans-72"/>
      <use x="161.572266" xlink:href="#DejaVuSans-69"/>
      <use x="189.355469" xlink:href="#DejaVuSans-61"/>
      <use x="250.634766" xlink:href="#DejaVuSans-6e"/>
      <use x="314.013672" xlink:href="#DejaVuSans-63"/>
      <use x="368.994141" xlink:href="#DejaVuSans-65"/>
     </g>
    </g>
   </g>
   <g id="line2d_3">
    <path clip-path="url(#p7e42d7f370)" d="M 51.496591 161.462053 
L 55.27224 151.787023 
L 59.04789 142.585008 
L 62.823539 134.192575 
L 66.599188 122.894629 
L 70.374838 103.815134 
L 74.150487 77.16508 
L 77.926136 50.224536 
L 81.701786 32.361532 
L 85.477435 30.562545 
L 89.253084 47.053441 
L 93.028734 75.332901 
L 96.804383 102.39182 
L 100.580032 119.583889 
L 104.355682 127.986765 
L 108.131331 132.977509 
L 111.906981 138.001408 
L 115.68263 143.527875 
L 119.458279 148.666763 
L 123.233929 152.70689 
L 127.009578 155.87382 
L 130.785227 158.996601 
L 134.560877 162.458211 
L 138.336526 165.787568 
L 142.112175 168.4345 
L 145.887825 170.404644 
L 149.663474 171.936372 
L 153.439123 173.104159 
L 157.214773 173.886359 
L 160.990422 174.289464 
L 164.766071 174.401847 
L 168.541721 174.426153 
L 172.31737 174.550804 
L 176.093019 174.804008 
L 179.868669 175.099116 
L 183.644318 175.343611 
L 187.419968 175.485784 
L 191.195617 175.540368 
L 194.971266 175.581941 
L 198.746916 175.666228 
L 202.522565 175.781481 
L 206.298214 175.89211 
L 210.073864 175.977384 
L 213.849513 176.033912 
L 217.625162 176.077067 
L 221.400812 176.123699 
L 225.176461 176.168584 
L 228.95211 176.197548 
L 232.72776 176.209506 
L 236.503409 176.212204 
" style="fill:none;stroke:#e69f00;stroke-linecap:square;stroke-width:2;"/>
   </g>
   <g id="line2d_4">
    <path clip-path="url(#p7e42d7f370)" d="M 51.496591 135.526322 
L 55.27224 131.327085 
L 59.04789 127.460396 
L 62.823539 124.058237 
L 66.599188 121.235847 
L 70.374838 119.08464 
L 74.150487 117.666925 
L 77.926136 117.012872 
L 81.701786 117.119861 
L 85.477435 117.954171 
L 89.253084 119.454713 
L 93.028734 121.53836 
L 96.804383 124.1063 
L 100.580032 127.050831 
L 104.355682 130.26199 
L 108.131331 133.633536 
L 111.906981 137.06788 
L 115.68263 140.479736 
L 119.458279 143.79839 
L 123.233929 146.968629 
L 127.009578 149.950513 
L 130.785227 152.718207 
L 134.560877 155.258177 
L 138.336526 157.567011 
L 142.112175 159.64915 
L 145.887825 161.514706 
L 149.663474 163.177527 
L 153.439123 164.653583 
L 157.214773 165.959701 
L 160.990422 167.112644 
L 164.766071 168.128476 
L 168.541721 169.022189 
L 172.31737 169.807505 
L 176.093019 170.496824 
L 179.868669 171.101269 
L 183.644318 171.63078 
L 187.419968 172.094242 
L 191.195617 172.499618 
L 194.971266 172.854072 
L 198.746916 173.164076 
L 202.522565 173.435482 
L 206.298214 173.673586 
L 210.073864 173.883155 
L 213.849513 174.068447 
L 217.625162 174.233221 
L 221.400812 174.380741 
L 225.176461 174.513792 
L 228.95211 174.634691 
L 232.72776 174.745318 
L 236.503409 174.847154 
" style="fill:none;stroke:#424243;stroke-linecap:square;stroke-width:2;"/>
   </g>
   <g id="patch_3">
    <path d="M 42.24625 183.496 
L 245.75375 183.496 
" style="fill:none;stroke:#000000;stroke-linecap:square;stroke-linejoin:miter;stroke-width:0.8;"/>
   </g>
  </g>
 </g>
 <defs>
  <clipPath id="p7e42d7f370">
   <rect height="160.216" width="203.5075" x="42.24625" y="23.28"/>
  </clipPath>
 </defs>
</svg>
