<?xml version="1.0" encoding="utf-8" standalone="no"?>
<!DOCTYPE svg PUBLIC "-//W3C//DTD SVG 1.1//EN"
  "http://www.w3.org/Graphics/SVG/1.1/DTD/svg11.dtd">
<!-- Created with matplotlib (http://matplotlib.org/) -->
<svg height="288pt" version="1.1" viewBox="0 0 288 288" width="288pt" xmlns="http://www.w3.org/2000/svg" xmlns:xlink="http://www.w3.org/1999/xlink">
 <defs>
  <style type="text/css">
*{stroke-linecap:butt;stroke-linejoin:round;}
  </style>
 </defs>
 <g id="figure_1">
  <g id="patch_1">
   <path d="M 0 288 
L 288 288 
L 288 0 
L 0 0 
z
" style="fill:#ffffff;"/>
  </g>
  <g id="axes_1">
   <g id="patch_2">
    <path d="M 28.840234 183.67 
L 259.159766 183.67 
L 259.159766 23.175 
L 28.840234 23.175 
z
" style="fill:#ffffff;"/>
   </g>
   <g id="PolyCollection_1">
    <defs>
     <path d="M 39.309304 -111.625227 
L 39.309304 -111.929809 
L 43.582394 -111.908359 
L 47.855483 -111.839087 
L 52.128573 -111.759755 
L 56.401663 -111.699141 
L 60.674752 -111.680267 
L 64.947842 -111.701637 
L 69.220931 -111.728859 
L 73.494021 -111.741456 
L 77.767111 -111.769039 
L 82.0402 -111.843845 
L 86.31329 -111.955158 
L 90.58638 -112.062208 
L 94.859469 -112.115756 
L 99.132559 -112.108496 
L 103.405648 -112.110263 
L 107.678738 -112.19875 
L 111.951828 -112.370916 
L 116.224917 -112.568627 
L 120.498007 -112.803011 
L 124.771097 -113.174349 
L 129.044186 -113.772846 
L 133.317276 -114.703697 
L 137.590366 -116.251999 
L 141.863455 -118.988908 
L 146.136545 -123.630954 
L 150.409634 -130.684147 
L 154.682724 -140.525212 
L 158.955814 -153.716101 
L 163.228903 -170.133784 
L 167.501993 -187.954932 
L 171.775083 -204.594101 
L 176.048172 -218.67393 
L 180.321262 -230.609254 
L 184.594352 -241.047079 
L 188.867441 -249.531441 
L 193.140531 -255.096888 
L 197.41362 -257.48836 
L 201.68671 -257.529773 
L 205.9598 -255.162508 
L 210.232889 -248.182755 
L 214.505979 -235.679272 
L 218.779069 -219.721974 
L 223.052158 -202.519565 
L 227.325248 -185.518952 
L 231.598337 -170.295629 
L 235.871427 -157.704701 
L 240.144517 -147.123614 
L 244.417606 -137.643501 
L 248.690696 -129.177393 
L 248.690696 -111.625227 
L 248.690696 -111.625227 
L 244.417606 -111.625227 
L 240.144517 -111.625227 
L 235.871427 -111.625227 
L 231.598337 -111.625227 
L 227.325248 -111.625227 
L 223.052158 -111.625227 
L 218.779069 -111.625227 
L 214.505979 -111.625227 
L 210.232889 -111.625227 
L 205.9598 -111.625227 
L 201.68671 -111.625227 
L 197.41362 -111.625227 
L 193.140531 -111.625227 
L 188.867441 -111.625227 
L 184.594352 -111.625227 
L 180.321262 -111.625227 
L 176.048172 -111.625227 
L 171.775083 -111.625227 
L 167.501993 -111.625227 
L 163.228903 -111.625227 
L 158.955814 -111.625227 
L 154.682724 -111.625227 
L 150.409634 -111.625227 
L 146.136545 -111.625227 
L 141.863455 -111.625227 
L 137.590366 -111.625227 
L 133.317276 -111.625227 
L 129.044186 -111.625227 
L 124.771097 -111.625227 
L 120.498007 -111.625227 
L 116.224917 -111.625227 
L 111.951828 -111.625227 
L 107.678738 -111.625227 
L 103.405648 -111.625227 
L 99.132559 -111.625227 
L 94.859469 -111.625227 
L 90.58638 -111.625227 
L 86.31329 -111.625227 
L 82.0402 -111.625227 
L 77.767111 -111.625227 
L 73.494021 -111.625227 
L 69.220931 -111.625227 
L 64.947842 -111.625227 
L 60.674752 -111.625227 
L 56.401663 -111.625227 
L 52.128573 -111.625227 
L 47.855483 -111.625227 
L 43.582394 -111.625227 
L 39.309304 -111.625227 
z
" id="mfd571e2550" style="stroke:#cc79a7;stroke-opacity:0.3;"/>
    </defs>
    <g clip-path="url(#p047aec3d51)">
     <use style="fill:#cc79a7;fill-opacity:0.3;stroke:#cc79a7;stroke-opacity:0.3;" x="0" xlink:href="#mfd571e2550" y="288"/>
    </g>
   </g>
   <g id="PolyCollection_2">
    <defs>
     <path d="M 39.309304 -111.625227 
L 39.309304 -114.869913 
L 43.582394 -114.965979 
L 47.855483 -114.999318 
L 52.128573 -114.985202 
L 56.401663 -114.951833 
L 60.674752 -114.927878 
L 64.947842 -114.929998 
L 69.220931 -114.958958 
L 73.494021 -115.006867 
L 77.767111 -115.069559 
L 82.0402 -115.15549 
L 86.31329 -115.288054 
L 90.58638 -115.50445 
L 94.859469 -115.854807 
L 99.132559 -116.402218 
L 103.405648 -117.224678 
L 107.678738 -118.422689 
L 111.951828 -120.132013 
L 116.224917 -122.526118 
L 120.498007 -125.784016 
L 124.771097 -130.01997 
L 129.044186 -135.216128 
L 133.317276 -141.221906 
L 137.590366 -147.84603 
L 141.863455 -154.987397 
L 146.136545 -162.698462 
L 150.409634 -171.106044 
L 154.682724 -180.218011 
L 158.955814 -189.741001 
L 163.228903 -199.041836 
L 167.501993 -207.296286 
L 171.775083 -213.753707 
L 176.048172 -217.979034 
L 180.321262 -219.944583 
L 184.594352 -219.930991 
L 188.867441 -218.317605 
L 193.140531 -215.405375 
L 197.41362 -211.359164 
L 201.68671 -206.247147 
L 205.9598 -200.110922 
L 210.232889 -193.033157 
L 214.505979 -185.194542 
L 218.779069 -176.893752 
L 223.052158 -168.499623 
L 227.325248 -160.352135 
L 231.598337 -152.680877 
L 235.871427 -145.599278 
L 240.144517 -139.164383 
L 244.417606 -133.438467 
L 248.690696 -128.501899 
L 248.690696 -111.625227 
L 248.690696 -111.625227 
L 244.417606 -111.625227 
L 240.144517 -111.625227 
L 235.871427 -111.625227 
L 231.598337 -111.625227 
L 227.325248 -111.625227 
L 223.052158 -111.625227 
L 218.779069 -111.625227 
L 214.505979 -111.625227 
L 210.232889 -111.625227 
L 205.9598 -111.625227 
L 201.68671 -111.625227 
L 197.41362 -111.625227 
L 193.140531 -111.625227 
L 188.867441 -111.625227 
L 184.594352 -111.625227 
L 180.321262 -111.625227 
L 176.048172 -111.625227 
L 171.775083 -111.625227 
L 167.501993 -111.625227 
L 163.228903 -111.625227 
L 158.955814 -111.625227 
L 154.682724 -111.625227 
L 150.409634 -111.625227 
L 146.136545 -111.625227 
L 141.863455 -111.625227 
L 137.590366 -111.625227 
L 133.317276 -111.625227 
L 129.044186 -111.625227 
L 124.771097 -111.625227 
L 120.498007 -111.625227 
L 116.224917 -111.625227 
L 111.951828 -111.625227 
L 107.678738 -111.625227 
L 103.405648 -111.625227 
L 99.132559 -111.625227 
L 94.859469 -111.625227 
L 90.58638 -111.625227 
L 86.31329 -111.625227 
L 82.0402 -111.625227 
L 77.767111 -111.625227 
L 73.494021 -111.625227 
L 69.220931 -111.625227 
L 64.947842 -111.625227 
L 60.674752 -111.625227 
L 56.401663 -111.625227 
L 52.128573 -111.625227 
L 47.855483 -111.625227 
L 43.582394 -111.625227 
L 39.309304 -111.625227 
z
" id="m0d429075fa" style="stroke:#424243;stroke-opacity:0.3;"/>
    </defs>
    <g clip-path="url(#p047aec3d51)">
     <use style="fill:#424243;fill-opacity:0.3;stroke:#424243;stroke-opacity:0.3;" x="0" xlink:href="#m0d429075fa" y="288"/>
    </g>
   </g>
   <g id="matplotlib.axis_1">
    <g id="xtick_1">
     <g id="line2d_1">
      <defs>
       <path d="M 0 0 
L 0 3.5 
" id="m391e02b3b5" style="stroke:#000000;stroke-width:0.8;"/>
      </defs>
      <g>
       <use style="stroke:#000000;stroke-width:0.8;" x="47.130544" xlink:href="#m391e02b3b5" y="183.67"/>
      </g>
     </g>
     <g id="text_1">
      <!-- 10 -->
      <defs>
       <path d="M 12.40625 8.296875 
L 28.515625 8.296875 
L 28.515625 63.921875 
L 10.984375 60.40625 
L 10.984375 69.390625 
L 28.421875 72.90625 
L 38.28125 72.90625 
L 38.28125 8.296875 
L 54.390625 8.296875 
L 54.390625 0 
L 12.40625 0 
z
" id="DejaVuSans-31"/>
       <path d="M 31.78125 66.40625 
Q 24.171875 66.40625 20.328125 58.90625 
Q 16.5 51.421875 16.5 36.375 
Q 16.5 21.390625 20.328125 13.890625 
Q 24.171875 6.390625 31.78125 6.390625 
Q 39.453125 6.390625 43.28125 13.890625 
Q 47.125 21.390625 47.125 36.375 
Q 47.125 51.421875 43.28125 58.90625 
Q 39.453125 66.40625 31.78125 66.40625 
z
M 31.78125 74.21875 
Q 44.046875 74.21875 50.515625 64.515625 
Q 56.984375 54.828125 56.984375 36.375 
Q 56.984375 17.96875 50.515625 8.265625 
Q 44.046875 -1.421875 31.78125 -1.421875 
Q 19.53125 -1.421875 13.0625 8.265625 
Q 6.59375 17.96875 6.59375 36.375 
Q 6.59375 54.828125 13.0625 64.515625 
Q 19.53125 74.21875 31.78125 74.21875 
z
" id="DejaVuSans-30"/>
      </defs>
      <g transform="translate(34.405544 205.866875)scale(0.2 -0.2)">
       <use xlink:href="#DejaVuSans-31"/>
       <use x="63.623047" xlink:href="#DejaVuSans-30"/>
      </g>
     </g>
    </g>
    <g id="xtick_2">
     <g id="line2d_2">
      <g>
       <use style="stroke:#000000;stroke-width:0.8;" x="118.657395" xlink:href="#m391e02b3b5" y="183.67"/>
      </g>
     </g>
     <g id="text_2">
      <!-- 20 -->
      <defs>
       <path d="M 19.1875 8.296875 
L 53.609375 8.296875 
L 53.609375 0 
L 7.328125 0 
L 7.328125 8.296875 
Q 12.9375 14.109375 22.625 23.890625 
Q 32.328125 33.6875 34.8125 36.53125 
Q 39.546875 41.84375 41.421875 45.53125 
Q 43.3125 49.21875 43.3125 52.78125 
Q 43.3125 58.59375 39.234375 62.25 
Q 35.15625 65.921875 28.609375 65.921875 
Q 23.96875 65.921875 18.8125 64.3125 
Q 13.671875 62.703125 7.8125 59.421875 
L 7.8125 69.390625 
Q 13.765625 71.78125 18.9375 73 
Q 24.125 74.21875 28.421875 74.21875 
Q 39.75 74.21875 46.484375 68.546875 
Q 53.21875 62.890625 53.21875 53.421875 
Q 53.21875 48.921875 51.53125 44.890625 
Q 49.859375 40.875 45.40625 35.40625 
Q 44.1875 33.984375 37.640625 27.21875 
Q 31.109375 20.453125 19.1875 8.296875 
z
" id="DejaVuSans-32"/>
      </defs>
      <g transform="translate(105.932395 205.866875)scale(0.2 -0.2)">
       <use xlink:href="#DejaVuSans-32"/>
       <use x="63.623047" xlink:href="#DejaVuSans-30"/>
      </g>
     </g>
    </g>
    <g id="xtick_3">
     <g id="line2d_3">
      <g>
       <use style="stroke:#000000;stroke-width:0.8;" x="190.184246" xlink:href="#m391e02b3b5" y="183.67"/>
      </g>
     </g>
     <g id="text_3">
      <!-- 30 -->
      <defs>
       <path d="M 40.578125 39.3125 
Q 47.65625 37.796875 51.625 33 
Q 55.609375 28.21875 55.609375 21.1875 
Q 55.609375 10.40625 48.1875 4.484375 
Q 40.765625 -1.421875 27.09375 -1.421875 
Q 22.515625 -1.421875 17.65625 -0.515625 
Q 12.796875 0.390625 7.625 2.203125 
L 7.625 11.71875 
Q 11.71875 9.328125 16.59375 8.109375 
Q 21.484375 6.890625 26.8125 6.890625 
Q 36.078125 6.890625 40.9375 10.546875 
Q 45.796875 14.203125 45.796875 21.1875 
Q 45.796875 27.640625 41.28125 31.265625 
Q 36.765625 34.90625 28.71875 34.90625 
L 20.21875 34.90625 
L 20.21875 43.015625 
L 29.109375 43.015625 
Q 36.375 43.015625 40.234375 45.921875 
Q 44.09375 48.828125 44.09375 54.296875 
Q 44.09375 59.90625 40.109375 62.90625 
Q 36.140625 65.921875 28.71875 65.921875 
Q 24.65625 65.921875 20.015625 65.03125 
Q 15.375 64.15625 9.8125 62.3125 
L 9.8125 71.09375 
Q 15.4375 72.65625 20.34375 73.4375 
Q 25.25 74.21875 29.59375 74.21875 
Q 40.828125 74.21875 47.359375 69.109375 
Q 53.90625 64.015625 53.90625 55.328125 
Q 53.90625 49.265625 50.4375 45.09375 
Q 46.96875 40.921875 40.578125 39.3125 
z
" id="DejaVuSans-33"/>
      </defs>
      <g transform="translate(177.459246 205.866875)scale(0.2 -0.2)">
       <use xlink:href="#DejaVuSans-33"/>
       <use x="63.623047" xlink:href="#DejaVuSans-30"/>
      </g>
     </g>
    </g>
    <g id="text_4">
     <!-- temperature -->
     <defs>
      <path d="M 18.3125 70.21875 
L 18.3125 54.6875 
L 36.8125 54.6875 
L 36.8125 47.703125 
L 18.3125 47.703125 
L 18.3125 18.015625 
Q 18.3125 11.328125 20.140625 9.421875 
Q 21.96875 7.515625 27.59375 7.515625 
L 36.8125 7.515625 
L 36.8125 0 
L 27.59375 0 
Q 17.1875 0 13.234375 3.875 
Q 9.28125 7.765625 9.28125 18.015625 
L 9.28125 47.703125 
L 2.6875 47.703125 
L 2.6875 54.6875 
L 9.28125 54.6875 
L 9.28125 70.21875 
z
" id="DejaVuSans-74"/>
      <path d="M 56.203125 29.59375 
L 56.203125 25.203125 
L 14.890625 25.203125 
Q 15.484375 15.921875 20.484375 11.0625 
Q 25.484375 6.203125 34.421875 6.203125 
Q 39.59375 6.203125 44.453125 7.46875 
Q 49.3125 8.734375 54.109375 11.28125 
L 54.109375 2.78125 
Q 49.265625 0.734375 44.1875 -0.34375 
Q 39.109375 -1.421875 33.890625 -1.421875 
Q 20.796875 -1.421875 13.15625 6.1875 
Q 5.515625 13.8125 5.515625 26.8125 
Q 5.515625 40.234375 12.765625 48.109375 
Q 20.015625 56 32.328125 56 
Q 43.359375 56 49.78125 48.890625 
Q 56.203125 41.796875 56.203125 29.59375 
z
M 47.21875 32.234375 
Q 47.125 39.59375 43.09375 43.984375 
Q 39.0625 48.390625 32.421875 48.390625 
Q 24.90625 48.390625 20.390625 44.140625 
Q 15.875 39.890625 15.1875 32.171875 
z
" id="DejaVuSans-65"/>
      <path d="M 52 44.1875 
Q 55.375 50.25 60.0625 53.125 
Q 64.75 56 71.09375 56 
Q 79.640625 56 84.28125 50.015625 
Q 88.921875 44.046875 88.921875 33.015625 
L 88.921875 0 
L 79.890625 0 
L 79.890625 32.71875 
Q 79.890625 40.578125 77.09375 44.375 
Q 74.3125 48.1875 68.609375 48.1875 
Q 61.625 48.1875 57.5625 43.546875 
Q 53.515625 38.921875 53.515625 30.90625 
L 53.515625 0 
L 44.484375 0 
L 44.484375 32.71875 
Q 44.484375 40.625 41.703125 44.40625 
Q 38.921875 48.1875 33.109375 48.1875 
Q 26.21875 48.1875 22.15625 43.53125 
Q 18.109375 38.875 18.109375 30.90625 
L 18.109375 0 
L 9.078125 0 
L 9.078125 54.6875 
L 18.109375 54.6875 
L 18.109375 46.1875 
Q 21.1875 51.21875 25.484375 53.609375 
Q 29.78125 56 35.6875 56 
Q 41.65625 56 45.828125 52.96875 
Q 50 49.953125 52 44.1875 
z
" id="DejaVuSans-6d"/>
      <path d="M 18.109375 8.203125 
L 18.109375 -20.796875 
L 9.078125 -20.796875 
L 9.078125 54.6875 
L 18.109375 54.6875 
L 18.109375 46.390625 
Q 20.953125 51.265625 25.265625 53.625 
Q 29.59375 56 35.59375 56 
Q 45.5625 56 51.78125 48.09375 
Q 58.015625 40.1875 58.015625 27.296875 
Q 58.015625 14.40625 51.78125 6.484375 
Q 45.5625 -1.421875 35.59375 -1.421875 
Q 29.59375 -1.421875 25.265625 0.953125 
Q 20.953125 3.328125 18.109375 8.203125 
z
M 48.6875 27.296875 
Q 48.6875 37.203125 44.609375 42.84375 
Q 40.53125 48.484375 33.40625 48.484375 
Q 26.265625 48.484375 22.1875 42.84375 
Q 18.109375 37.203125 18.109375 27.296875 
Q 18.109375 17.390625 22.1875 11.75 
Q 26.265625 6.109375 33.40625 6.109375 
Q 40.53125 6.109375 44.609375 11.75 
Q 48.6875 17.390625 48.6875 27.296875 
z
" id="DejaVuSans-70"/>
      <path d="M 41.109375 46.296875 
Q 39.59375 47.171875 37.8125 47.578125 
Q 36.03125 48 33.890625 48 
Q 26.265625 48 22.1875 43.046875 
Q 18.109375 38.09375 18.109375 28.8125 
L 18.109375 0 
L 9.078125 0 
L 9.078125 54.6875 
L 18.109375 54.6875 
L 18.109375 46.1875 
Q 20.953125 51.171875 25.484375 53.578125 
Q 30.03125 56 36.53125 56 
Q 37.453125 56 38.578125 55.875 
Q 39.703125 55.765625 41.0625 55.515625 
z
" id="DejaVuSans-72"/>
      <path d="M 34.28125 27.484375 
Q 23.390625 27.484375 19.1875 25 
Q 14.984375 22.515625 14.984375 16.5 
Q 14.984375 11.71875 18.140625 8.90625 
Q 21.296875 6.109375 26.703125 6.109375 
Q 34.1875 6.109375 38.703125 11.40625 
Q 43.21875 16.703125 43.21875 25.484375 
L 43.21875 27.484375 
z
M 52.203125 31.203125 
L 52.203125 0 
L 43.21875 0 
L 43.21875 8.296875 
Q 40.140625 3.328125 35.546875 0.953125 
Q 30.953125 -1.421875 24.3125 -1.421875 
Q 15.921875 -1.421875 10.953125 3.296875 
Q 6 8.015625 6 15.921875 
Q 6 25.140625 12.171875 29.828125 
Q 18.359375 34.515625 30.609375 34.515625 
L 43.21875 34.515625 
L 43.21875 35.40625 
Q 43.21875 41.609375 39.140625 45 
Q 35.0625 48.390625 27.6875 48.390625 
Q 23 48.390625 18.546875 47.265625 
Q 14.109375 46.140625 10.015625 43.890625 
L 10.015625 52.203125 
Q 14.9375 54.109375 19.578125 55.046875 
Q 24.21875 56 28.609375 56 
Q 40.484375 56 46.34375 49.84375 
Q 52.203125 43.703125 52.203125 31.203125 
z
" id="DejaVuSans-61"/>
      <path d="M 8.5 21.578125 
L 8.5 54.6875 
L 17.484375 54.6875 
L 17.484375 21.921875 
Q 17.484375 14.15625 20.5 10.265625 
Q 23.53125 6.390625 29.59375 6.390625 
Q 36.859375 6.390625 41.078125 11.03125 
Q 45.3125 15.671875 45.3125 23.6875 
L 45.3125 54.6875 
L 54.296875 54.6875 
L 54.296875 0 
L 45.3125 0 
L 45.3125 8.40625 
Q 42.046875 3.421875 37.71875 1 
Q 33.40625 -1.421875 27.6875 -1.421875 
Q 18.265625 -1.421875 13.375 4.4375 
Q 8.5 10.296875 8.5 21.578125 
z
M 31.109375 56 
z
" id="DejaVuSans-75"/>
     </defs>
     <g transform="translate(65.158203 233.022344)scale(0.25 -0.25)">
      <use xlink:href="#DejaVuSans-74"/>
      <use x="39.208984" xlink:href="#DejaVuSans-65"/>
      <use x="100.732422" xlink:href="#DejaVuSans-6d"/>
      <use x="198.144531" xlink:href="#DejaVuSans-70"/>
      <use x="261.621094" xlink:href="#DejaVuSans-65"/>
      <use x="323.144531" xlink:href="#DejaVuSans-72"/>
      <use x="364.257812" xlink:href="#DejaVuSans-61"/>
      <use x="425.537109" xlink:href="#DejaVuSans-74"/>
      <use x="464.746094" xlink:href="#DejaVuSans-75"/>
      <use x="528.125" xlink:href="#DejaVuSans-72"/>
      <use x="569.207031" xlink:href="#DejaVuSans-65"/>
     </g>
     <!-- mean -->
     <defs>
      <path d="M 54.890625 33.015625 
L 54.890625 0 
L 45.90625 0 
L 45.90625 32.71875 
Q 45.90625 40.484375 42.875 44.328125 
Q 39.84375 48.1875 33.796875 48.1875 
Q 26.515625 48.1875 22.3125 43.546875 
Q 18.109375 38.921875 18.109375 30.90625 
L 18.109375 0 
L 9.078125 0 
L 9.078125 54.6875 
L 18.109375 54.6875 
L 18.109375 46.1875 
Q 21.34375 51.125 25.703125 53.5625 
Q 30.078125 56 35.796875 56 
Q 45.21875 56 50.046875 50.171875 
Q 54.890625 44.34375 54.890625 33.015625 
z
" id="DejaVuSans-6e"/>
     </defs>
     <g transform="translate(108.550781 261.016875)scale(0.25 -0.25)">
      <use xlink:href="#DejaVuSans-6d"/>
      <use x="97.412109" xlink:href="#DejaVuSans-65"/>
      <use x="158.935547" xlink:href="#DejaVuSans-61"/>
      <use x="220.214844" xlink:href="#DejaVuSans-6e"/>
     </g>
    </g>
   </g>
   <g id="line2d_4">
    <path clip-path="url(#p047aec3d51)" d="M 39.309304 176.070191 
L 43.582394 176.091641 
L 47.855483 176.160913 
L 52.128573 176.240245 
L 56.401663 176.300859 
L 60.674752 176.319733 
L 64.947842 176.298363 
L 69.220931 176.271141 
L 73.494021 176.258544 
L 77.767111 176.230961 
L 82.0402 176.156155 
L 86.31329 176.044842 
L 90.58638 175.937792 
L 94.859469 175.884244 
L 99.132559 175.891504 
L 103.405648 175.889737 
L 107.678738 175.80125 
L 111.951828 175.629084 
L 116.224917 175.431373 
L 120.498007 175.196989 
L 124.771097 174.825651 
L 129.044186 174.227154 
L 133.317276 173.296303 
L 137.590366 171.748001 
L 141.863455 169.011092 
L 146.136545 164.369046 
L 150.409634 157.315853 
L 154.682724 147.474788 
L 158.955814 134.283899 
L 163.228903 117.866216 
L 167.501993 100.045068 
L 171.775083 83.405899 
L 176.048172 69.32607 
L 180.321262 57.390746 
L 184.594352 46.952921 
L 188.867441 38.468559 
L 193.140531 32.903112 
L 197.41362 30.51164 
L 201.68671 30.470227 
L 205.9598 32.837492 
L 210.232889 39.817245 
L 214.505979 52.320728 
L 218.779069 68.278026 
L 223.052158 85.480435 
L 227.325248 102.481048 
L 231.598337 117.704371 
L 235.871427 130.295299 
L 240.144517 140.876386 
L 244.417606 150.356499 
L 248.690696 158.822607 
" style="fill:none;stroke:#cc79a7;stroke-linecap:square;stroke-width:2;"/>
   </g>
   <g id="line2d_5">
    <path clip-path="url(#p047aec3d51)" d="M 39.309304 173.130087 
L 43.582394 173.034021 
L 47.855483 173.000682 
L 52.128573 173.014798 
L 56.401663 173.048167 
L 60.674752 173.072122 
L 64.947842 173.070002 
L 69.220931 173.041042 
L 73.494021 172.993133 
L 77.767111 172.930441 
L 82.0402 172.84451 
L 86.31329 172.711946 
L 90.58638 172.49555 
L 94.859469 172.145193 
L 99.132559 171.597782 
L 103.405648 170.775322 
L 107.678738 169.577311 
L 111.951828 167.867987 
L 116.224917 165.473882 
L 120.498007 162.215984 
L 124.771097 157.98003 
L 129.044186 152.783872 
L 133.317276 146.778094 
L 137.590366 140.15397 
L 141.863455 133.012603 
L 146.136545 125.301538 
L 150.409634 116.893956 
L 154.682724 107.781989 
L 158.955814 98.258999 
L 163.228903 88.958164 
L 167.501993 80.703714 
L 171.775083 74.246293 
L 176.048172 70.020966 
L 180.321262 68.055417 
L 184.594352 68.069009 
L 188.867441 69.682395 
L 193.140531 72.594625 
L 197.41362 76.640836 
L 201.68671 81.752853 
L 205.9598 87.889078 
L 210.232889 94.966843 
L 214.505979 102.805458 
L 218.779069 111.106248 
L 223.052158 119.500377 
L 227.325248 127.647865 
L 231.598337 135.319123 
L 235.871427 142.400722 
L 240.144517 148.835617 
L 244.417606 154.561533 
L 248.690696 159.498101 
" style="fill:none;stroke:#424243;stroke-linecap:square;stroke-width:2;"/>
   </g>
   <g id="patch_3">
    <path d="M 28.840234 183.67 
L 259.159766 183.67 
" style="fill:none;stroke:#000000;stroke-linecap:square;stroke-linejoin:miter;stroke-width:0.8;"/>
   </g>
  </g>
 </g>
 <defs>
  <clipPath id="p047aec3d51">
   <rect height="160.495" width="230.319531" x="28.840234" y="23.175"/>
  </clipPath>
 </defs>
</svg>
