<?xml version="1.0" encoding="utf-8" standalone="no"?>
<!DOCTYPE svg PUBLIC "-//W3C//DTD SVG 1.1//EN"
  "http://www.w3.org/Graphics/SVG/1.1/DTD/svg11.dtd">
<!-- Created with matplotlib (http://matplotlib.org/) -->
<svg height="288pt" version="1.1" viewBox="0 0 288 288" width="288pt" xmlns="http://www.w3.org/2000/svg" xmlns:xlink="http://www.w3.org/1999/xlink">
 <defs>
  <style type="text/css">
*{stroke-linecap:butt;stroke-linejoin:round;}
  </style>
 </defs>
 <g id="figure_1">
  <g id="patch_1">
   <path d="M 0 288 
L 288 288 
L 288 0 
L 0 0 
z
" style="fill:#ffffff;"/>
  </g>
  <g id="axes_1">
   <g id="patch_2">
    <path d="M 23.175 183.67 
L 264.825 183.67 
L 264.825 23.175 
L 23.175 23.175 
z
" style="fill:#ffffff;"/>
   </g>
   <g id="PolyCollection_1">
    <defs>
     <path d="M 34.159091 -111.625227 
L 34.159091 -116.519939 
L 38.642393 -117.101878 
L 43.125696 -117.921371 
L 47.608998 -118.995275 
L 52.092301 -120.286555 
L 56.575603 -121.754869 
L 61.058905 -123.416755 
L 65.542208 -125.368098 
L 70.02551 -127.747737 
L 74.508813 -130.670714 
L 78.992115 -134.18542 
L 83.475417 -138.285423 
L 87.95872 -142.960058 
L 92.442022 -148.241045 
L 96.925325 -154.209533 
L 101.408627 -160.954281 
L 105.891929 -168.500293 
L 110.375232 -176.746149 
L 114.858534 -185.446984 
L 119.341837 -194.258211 
L 123.825139 -202.826094 
L 128.308442 -210.887261 
L 132.791744 -218.329038 
L 137.275046 -225.179266 
L 141.758349 -231.537544 
L 146.241651 -237.493312 
L 150.724954 -243.064397 
L 155.208256 -248.154745 
L 159.691558 -252.525002 
L 164.174861 -255.797829 
L 168.658163 -257.529773 
L 173.141466 -257.346945 
L 177.624768 -255.09763 
L 182.108071 -250.959696 
L 186.591373 -245.451417 
L 191.074675 -239.318142 
L 195.557978 -233.314323 
L 200.04128 -227.966027 
L 204.524583 -223.427971 
L 209.007885 -219.492107 
L 213.491187 -215.703281 
L 217.97449 -211.493932 
L 222.457792 -206.300515 
L 226.941095 -199.688618 
L 231.424397 -191.499012 
L 235.907699 -181.95216 
L 240.391002 -171.620251 
L 244.874304 -161.249507 
L 249.357607 -151.525096 
L 253.840909 -142.907208 
L 253.840909 -111.625227 
L 253.840909 -111.625227 
L 249.357607 -111.625227 
L 244.874304 -111.625227 
L 240.391002 -111.625227 
L 235.907699 -111.625227 
L 231.424397 -111.625227 
L 226.941095 -111.625227 
L 222.457792 -111.625227 
L 217.97449 -111.625227 
L 213.491187 -111.625227 
L 209.007885 -111.625227 
L 204.524583 -111.625227 
L 200.04128 -111.625227 
L 195.557978 -111.625227 
L 191.074675 -111.625227 
L 186.591373 -111.625227 
L 182.108071 -111.625227 
L 177.624768 -111.625227 
L 173.141466 -111.625227 
L 168.658163 -111.625227 
L 164.174861 -111.625227 
L 159.691558 -111.625227 
L 155.208256 -111.625227 
L 150.724954 -111.625227 
L 146.241651 -111.625227 
L 141.758349 -111.625227 
L 137.275046 -111.625227 
L 132.791744 -111.625227 
L 128.308442 -111.625227 
L 123.825139 -111.625227 
L 119.341837 -111.625227 
L 114.858534 -111.625227 
L 110.375232 -111.625227 
L 105.891929 -111.625227 
L 101.408627 -111.625227 
L 96.925325 -111.625227 
L 92.442022 -111.625227 
L 87.95872 -111.625227 
L 83.475417 -111.625227 
L 78.992115 -111.625227 
L 74.508813 -111.625227 
L 70.02551 -111.625227 
L 65.542208 -111.625227 
L 61.058905 -111.625227 
L 56.575603 -111.625227 
L 52.092301 -111.625227 
L 47.608998 -111.625227 
L 43.125696 -111.625227 
L 38.642393 -111.625227 
L 34.159091 -111.625227 
z
" id="mc38c5ca31a" style="stroke:#cc79a7;stroke-opacity:0.3;"/>
    </defs>
    <g clip-path="url(#p92971ee383)">
     <use style="fill:#cc79a7;fill-opacity:0.3;stroke:#cc79a7;stroke-opacity:0.3;" x="0" xlink:href="#mc38c5ca31a" y="288"/>
    </g>
   </g>
   <g id="PolyCollection_2">
    <defs>
     <path d="M 34.159091 -111.625227 
L 34.159091 -121.746265 
L 38.642393 -123.185212 
L 43.125696 -124.982547 
L 47.608998 -127.2642 
L 52.092301 -130.176128 
L 56.575603 -133.86812 
L 61.058905 -138.45655 
L 65.542208 -143.980398 
L 70.02551 -150.373397 
L 74.508813 -157.467136 
L 78.992115 -165.024202 
L 83.475417 -172.789357 
L 87.95872 -180.544836 
L 92.442022 -188.157659 
L 96.925325 -195.605792 
L 101.408627 -202.966493 
L 105.891929 -210.354112 
L 110.375232 -217.815361 
L 114.858534 -225.222456 
L 119.341837 -232.225059 
L 123.825139 -238.305611 
L 128.308442 -242.928818 
L 132.791744 -245.717237 
L 137.275046 -246.564878 
L 141.758349 -245.637921 
L 146.241651 -243.280575 
L 150.724954 -239.893412 
L 155.208256 -235.847398 
L 159.691558 -231.451389 
L 164.174861 -226.949071 
L 168.658163 -222.51678 
L 173.141466 -218.258011 
L 177.624768 -214.209142 
L 182.108071 -210.363807 
L 186.591373 -206.703599 
L 191.074675 -203.214497 
L 195.557978 -199.878414 
L 200.04128 -196.645844 
L 204.524583 -193.407 
L 209.007885 -189.981756 
L 213.491187 -186.142178 
L 217.97449 -181.665952 
L 222.457792 -176.402407 
L 226.941095 -170.326682 
L 231.424397 -163.564325 
L 235.907699 -156.379402 
L 240.391002 -149.127442 
L 244.874304 -142.183468 
L 249.357607 -135.866801 
L 253.840909 -130.389287 
L 253.840909 -111.625227 
L 253.840909 -111.625227 
L 249.357607 -111.625227 
L 244.874304 -111.625227 
L 240.391002 -111.625227 
L 235.907699 -111.625227 
L 231.424397 -111.625227 
L 226.941095 -111.625227 
L 222.457792 -111.625227 
L 217.97449 -111.625227 
L 213.491187 -111.625227 
L 209.007885 -111.625227 
L 204.524583 -111.625227 
L 200.04128 -111.625227 
L 195.557978 -111.625227 
L 191.074675 -111.625227 
L 186.591373 -111.625227 
L 182.108071 -111.625227 
L 177.624768 -111.625227 
L 173.141466 -111.625227 
L 168.658163 -111.625227 
L 164.174861 -111.625227 
L 159.691558 -111.625227 
L 155.208256 -111.625227 
L 150.724954 -111.625227 
L 146.241651 -111.625227 
L 141.758349 -111.625227 
L 137.275046 -111.625227 
L 132.791744 -111.625227 
L 128.308442 -111.625227 
L 123.825139 -111.625227 
L 119.341837 -111.625227 
L 114.858534 -111.625227 
L 110.375232 -111.625227 
L 105.891929 -111.625227 
L 101.408627 -111.625227 
L 96.925325 -111.625227 
L 92.442022 -111.625227 
L 87.95872 -111.625227 
L 83.475417 -111.625227 
L 78.992115 -111.625227 
L 74.508813 -111.625227 
L 70.02551 -111.625227 
L 65.542208 -111.625227 
L 61.058905 -111.625227 
L 56.575603 -111.625227 
L 52.092301 -111.625227 
L 47.608998 -111.625227 
L 43.125696 -111.625227 
L 38.642393 -111.625227 
L 34.159091 -111.625227 
z
" id="m2fbfb1411a" style="stroke:#424243;stroke-opacity:0.3;"/>
    </defs>
    <g clip-path="url(#p92971ee383)">
     <use style="fill:#424243;fill-opacity:0.3;stroke:#424243;stroke-opacity:0.3;" x="0" xlink:href="#m2fbfb1411a" y="288"/>
    </g>
   </g>
   <g id="matplotlib.axis_1">
    <g id="xtick_1">
     <g id="line2d_1">
      <defs>
       <path d="M 0 0 
L 0 3.5 
" id="mcb7a796cda" style="stroke:#000000;stroke-width:0.8;"/>
      </defs>
      <g>
       <use style="stroke:#000000;stroke-width:0.8;" x="75.421473" xlink:href="#mcb7a796cda" y="183.67"/>
      </g>
     </g>
     <g id="text_1">
      <!-- −0.5 -->
      <defs>
       <path d="M 10.59375 35.5 
L 73.1875 35.5 
L 73.1875 27.203125 
L 10.59375 27.203125 
z
" id="DejaVuSans-2212"/>
       <path d="M 31.78125 66.40625 
Q 24.171875 66.40625 20.328125 58.90625 
Q 16.5 51.421875 16.5 36.375 
Q 16.5 21.390625 20.328125 13.890625 
Q 24.171875 6.390625 31.78125 6.390625 
Q 39.453125 6.390625 43.28125 13.890625 
Q 47.125 21.390625 47.125 36.375 
Q 47.125 51.421875 43.28125 58.90625 
Q 39.453125 66.40625 31.78125 66.40625 
z
M 31.78125 74.21875 
Q 44.046875 74.21875 50.515625 64.515625 
Q 56.984375 54.828125 56.984375 36.375 
Q 56.984375 17.96875 50.515625 8.265625 
Q 44.046875 -1.421875 31.78125 -1.421875 
Q 19.53125 -1.421875 13.0625 8.265625 
Q 6.59375 17.96875 6.59375 36.375 
Q 6.59375 54.828125 13.0625 64.515625 
Q 19.53125 74.21875 31.78125 74.21875 
z
" id="DejaVuSans-30"/>
       <path d="M 10.6875 12.40625 
L 21 12.40625 
L 21 0 
L 10.6875 0 
z
" id="DejaVuSans-2e"/>
       <path d="M 10.796875 72.90625 
L 49.515625 72.90625 
L 49.515625 64.59375 
L 19.828125 64.59375 
L 19.828125 46.734375 
Q 21.96875 47.46875 24.109375 47.828125 
Q 26.265625 48.1875 28.421875 48.1875 
Q 40.625 48.1875 47.75 41.5 
Q 54.890625 34.8125 54.890625 23.390625 
Q 54.890625 11.625 47.5625 5.09375 
Q 40.234375 -1.421875 26.90625 -1.421875 
Q 22.3125 -1.421875 17.546875 -0.640625 
Q 12.796875 0.140625 7.71875 1.703125 
L 7.71875 11.625 
Q 12.109375 9.234375 16.796875 8.0625 
Q 21.484375 6.890625 26.703125 6.890625 
Q 35.15625 6.890625 40.078125 11.328125 
Q 45.015625 15.765625 45.015625 23.390625 
Q 45.015625 31 40.078125 35.4375 
Q 35.15625 39.890625 26.703125 39.890625 
Q 22.75 39.890625 18.8125 39.015625 
Q 14.890625 38.140625 10.796875 36.28125 
z
" id="DejaVuSans-35"/>
      </defs>
      <g transform="translate(51.13866 205.866875)scale(0.2 -0.2)">
       <use xlink:href="#DejaVuSans-2212"/>
       <use x="83.789062" xlink:href="#DejaVuSans-30"/>
       <use x="147.412109" xlink:href="#DejaVuSans-2e"/>
       <use x="179.199219" xlink:href="#DejaVuSans-35"/>
      </g>
     </g>
    </g>
    <g id="xtick_2">
     <g id="line2d_2">
      <g>
       <use style="stroke:#000000;stroke-width:0.8;" x="150.107602" xlink:href="#mcb7a796cda" y="183.67"/>
      </g>
     </g>
     <g id="text_2">
      <!-- 0.0 -->
      <g transform="translate(134.204477 205.866875)scale(0.2 -0.2)">
       <use xlink:href="#DejaVuSans-30"/>
       <use x="63.623047" xlink:href="#DejaVuSans-2e"/>
       <use x="95.410156" xlink:href="#DejaVuSans-30"/>
      </g>
     </g>
    </g>
    <g id="xtick_3">
     <g id="line2d_3">
      <g>
       <use style="stroke:#000000;stroke-width:0.8;" x="224.793732" xlink:href="#mcb7a796cda" y="183.67"/>
      </g>
     </g>
     <g id="text_3">
      <!-- 0.5 -->
      <g transform="translate(208.890607 205.866875)scale(0.2 -0.2)">
       <use xlink:href="#DejaVuSans-30"/>
       <use x="63.623047" xlink:href="#DejaVuSans-2e"/>
       <use x="95.410156" xlink:href="#DejaVuSans-35"/>
      </g>
     </g>
    </g>
    <g id="text_4">
     <!-- temperature -->
     <defs>
      <path d="M 18.3125 70.21875 
L 18.3125 54.6875 
L 36.8125 54.6875 
L 36.8125 47.703125 
L 18.3125 47.703125 
L 18.3125 18.015625 
Q 18.3125 11.328125 20.140625 9.421875 
Q 21.96875 7.515625 27.59375 7.515625 
L 36.8125 7.515625 
L 36.8125 0 
L 27.59375 0 
Q 17.1875 0 13.234375 3.875 
Q 9.28125 7.765625 9.28125 18.015625 
L 9.28125 47.703125 
L 2.6875 47.703125 
L 2.6875 54.6875 
L 9.28125 54.6875 
L 9.28125 70.21875 
z
" id="DejaVuSans-74"/>
      <path d="M 56.203125 29.59375 
L 56.203125 25.203125 
L 14.890625 25.203125 
Q 15.484375 15.921875 20.484375 11.0625 
Q 25.484375 6.203125 34.421875 6.203125 
Q 39.59375 6.203125 44.453125 7.46875 
Q 49.3125 8.734375 54.109375 11.28125 
L 54.109375 2.78125 
Q 49.265625 0.734375 44.1875 -0.34375 
Q 39.109375 -1.421875 33.890625 -1.421875 
Q 20.796875 -1.421875 13.15625 6.1875 
Q 5.515625 13.8125 5.515625 26.8125 
Q 5.515625 40.234375 12.765625 48.109375 
Q 20.015625 56 32.328125 56 
Q 43.359375 56 49.78125 48.890625 
Q 56.203125 41.796875 56.203125 29.59375 
z
M 47.21875 32.234375 
Q 47.125 39.59375 43.09375 43.984375 
Q 39.0625 48.390625 32.421875 48.390625 
Q 24.90625 48.390625 20.390625 44.140625 
Q 15.875 39.890625 15.1875 32.171875 
z
" id="DejaVuSans-65"/>
      <path d="M 52 44.1875 
Q 55.375 50.25 60.0625 53.125 
Q 64.75 56 71.09375 56 
Q 79.640625 56 84.28125 50.015625 
Q 88.921875 44.046875 88.921875 33.015625 
L 88.921875 0 
L 79.890625 0 
L 79.890625 32.71875 
Q 79.890625 40.578125 77.09375 44.375 
Q 74.3125 48.1875 68.609375 48.1875 
Q 61.625 48.1875 57.5625 43.546875 
Q 53.515625 38.921875 53.515625 30.90625 
L 53.515625 0 
L 44.484375 0 
L 44.484375 32.71875 
Q 44.484375 40.625 41.703125 44.40625 
Q 38.921875 48.1875 33.109375 48.1875 
Q 26.21875 48.1875 22.15625 43.53125 
Q 18.109375 38.875 18.109375 30.90625 
L 18.109375 0 
L 9.078125 0 
L 9.078125 54.6875 
L 18.109375 54.6875 
L 18.109375 46.1875 
Q 21.1875 51.21875 25.484375 53.609375 
Q 29.78125 56 35.6875 56 
Q 41.65625 56 45.828125 52.96875 
Q 50 49.953125 52 44.1875 
z
" id="DejaVuSans-6d"/>
      <path d="M 18.109375 8.203125 
L 18.109375 -20.796875 
L 9.078125 -20.796875 
L 9.078125 54.6875 
L 18.109375 54.6875 
L 18.109375 46.390625 
Q 20.953125 51.265625 25.265625 53.625 
Q 29.59375 56 35.59375 56 
Q 45.5625 56 51.78125 48.09375 
Q 58.015625 40.1875 58.015625 27.296875 
Q 58.015625 14.40625 51.78125 6.484375 
Q 45.5625 -1.421875 35.59375 -1.421875 
Q 29.59375 -1.421875 25.265625 0.953125 
Q 20.953125 3.328125 18.109375 8.203125 
z
M 48.6875 27.296875 
Q 48.6875 37.203125 44.609375 42.84375 
Q 40.53125 48.484375 33.40625 48.484375 
Q 26.265625 48.484375 22.1875 42.84375 
Q 18.109375 37.203125 18.109375 27.296875 
Q 18.109375 17.390625 22.1875 11.75 
Q 26.265625 6.109375 33.40625 6.109375 
Q 40.53125 6.109375 44.609375 11.75 
Q 48.6875 17.390625 48.6875 27.296875 
z
" id="DejaVuSans-70"/>
      <path d="M 41.109375 46.296875 
Q 39.59375 47.171875 37.8125 47.578125 
Q 36.03125 48 33.890625 48 
Q 26.265625 48 22.1875 43.046875 
Q 18.109375 38.09375 18.109375 28.8125 
L 18.109375 0 
L 9.078125 0 
L 9.078125 54.6875 
L 18.109375 54.6875 
L 18.109375 46.1875 
Q 20.953125 51.171875 25.484375 53.578125 
Q 30.03125 56 36.53125 56 
Q 37.453125 56 38.578125 55.875 
Q 39.703125 55.765625 41.0625 55.515625 
z
" id="DejaVuSans-72"/>
      <path d="M 34.28125 27.484375 
Q 23.390625 27.484375 19.1875 25 
Q 14.984375 22.515625 14.984375 16.5 
Q 14.984375 11.71875 18.140625 8.90625 
Q 21.296875 6.109375 26.703125 6.109375 
Q 34.1875 6.109375 38.703125 11.40625 
Q 43.21875 16.703125 43.21875 25.484375 
L 43.21875 27.484375 
z
M 52.203125 31.203125 
L 52.203125 0 
L 43.21875 0 
L 43.21875 8.296875 
Q 40.140625 3.328125 35.546875 0.953125 
Q 30.953125 -1.421875 24.3125 -1.421875 
Q 15.921875 -1.421875 10.953125 3.296875 
Q 6 8.015625 6 15.921875 
Q 6 25.140625 12.171875 29.828125 
Q 18.359375 34.515625 30.609375 34.515625 
L 43.21875 34.515625 
L 43.21875 35.40625 
Q 43.21875 41.609375 39.140625 45 
Q 35.0625 48.390625 27.6875 48.390625 
Q 23 48.390625 18.546875 47.265625 
Q 14.109375 46.140625 10.015625 43.890625 
L 10.015625 52.203125 
Q 14.9375 54.109375 19.578125 55.046875 
Q 24.21875 56 28.609375 56 
Q 40.484375 56 46.34375 49.84375 
Q 52.203125 43.703125 52.203125 31.203125 
z
" id="DejaVuSans-61"/>
      <path d="M 8.5 21.578125 
L 8.5 54.6875 
L 17.484375 54.6875 
L 17.484375 21.921875 
Q 17.484375 14.15625 20.5 10.265625 
Q 23.53125 6.390625 29.59375 6.390625 
Q 36.859375 6.390625 41.078125 11.03125 
Q 45.3125 15.671875 45.3125 23.6875 
L 45.3125 54.6875 
L 54.296875 54.6875 
L 54.296875 0 
L 45.3125 0 
L 45.3125 8.40625 
Q 42.046875 3.421875 37.71875 1 
Q 33.40625 -1.421875 27.6875 -1.421875 
Q 18.265625 -1.421875 13.375 4.4375 
Q 8.5 10.296875 8.5 21.578125 
z
M 31.109375 56 
z
" id="DejaVuSans-75"/>
     </defs>
     <g transform="translate(65.158203 233.022344)scale(0.25 -0.25)">
      <use xlink:href="#DejaVuSans-74"/>
      <use x="39.208984" xlink:href="#DejaVuSans-65"/>
      <use x="100.732422" xlink:href="#DejaVuSans-6d"/>
      <use x="198.144531" xlink:href="#DejaVuSans-70"/>
      <use x="261.621094" xlink:href="#DejaVuSans-65"/>
      <use x="323.144531" xlink:href="#DejaVuSans-72"/>
      <use x="364.257812" xlink:href="#DejaVuSans-61"/>
      <use x="425.537109" xlink:href="#DejaVuSans-74"/>
      <use x="464.746094" xlink:href="#DejaVuSans-75"/>
      <use x="528.125" xlink:href="#DejaVuSans-72"/>
      <use x="569.207031" xlink:href="#DejaVuSans-65"/>
     </g>
     <!-- skew -->
     <defs>
      <path d="M 44.28125 53.078125 
L 44.28125 44.578125 
Q 40.484375 46.53125 36.375 47.5 
Q 32.28125 48.484375 27.875 48.484375 
Q 21.1875 48.484375 17.84375 46.4375 
Q 14.5 44.390625 14.5 40.28125 
Q 14.5 37.15625 16.890625 35.375 
Q 19.28125 33.59375 26.515625 31.984375 
L 29.59375 31.296875 
Q 39.15625 29.25 43.1875 25.515625 
Q 47.21875 21.78125 47.21875 15.09375 
Q 47.21875 7.46875 41.1875 3.015625 
Q 35.15625 -1.421875 24.609375 -1.421875 
Q 20.21875 -1.421875 15.453125 -0.5625 
Q 10.6875 0.296875 5.421875 2 
L 5.421875 11.28125 
Q 10.40625 8.6875 15.234375 7.390625 
Q 20.0625 6.109375 24.8125 6.109375 
Q 31.15625 6.109375 34.5625 8.28125 
Q 37.984375 10.453125 37.984375 14.40625 
Q 37.984375 18.0625 35.515625 20.015625 
Q 33.0625 21.96875 24.703125 23.78125 
L 21.578125 24.515625 
Q 13.234375 26.265625 9.515625 29.90625 
Q 5.8125 33.546875 5.8125 39.890625 
Q 5.8125 47.609375 11.28125 51.796875 
Q 16.75 56 26.8125 56 
Q 31.78125 56 36.171875 55.265625 
Q 40.578125 54.546875 44.28125 53.078125 
z
" id="DejaVuSans-73"/>
      <path d="M 9.078125 75.984375 
L 18.109375 75.984375 
L 18.109375 31.109375 
L 44.921875 54.6875 
L 56.390625 54.6875 
L 27.390625 29.109375 
L 57.625 0 
L 45.90625 0 
L 18.109375 26.703125 
L 18.109375 0 
L 9.078125 0 
z
" id="DejaVuSans-6b"/>
      <path d="M 4.203125 54.6875 
L 13.1875 54.6875 
L 24.421875 12.015625 
L 35.59375 54.6875 
L 46.1875 54.6875 
L 57.421875 12.015625 
L 68.609375 54.6875 
L 77.59375 54.6875 
L 63.28125 0 
L 52.6875 0 
L 40.921875 44.828125 
L 29.109375 0 
L 18.5 0 
z
" id="DejaVuSans-77"/>
     </defs>
     <g transform="translate(112.341797 261.016875)scale(0.25 -0.25)">
      <use xlink:href="#DejaVuSans-73"/>
      <use x="52.099609" xlink:href="#DejaVuSans-6b"/>
      <use x="109.962891" xlink:href="#DejaVuSans-65"/>
      <use x="171.486328" xlink:href="#DejaVuSans-77"/>
     </g>
    </g>
   </g>
   <g id="line2d_4">
    <path clip-path="url(#p92971ee383)" d="M 34.159091 171.480061 
L 38.642393 170.898122 
L 43.125696 170.078629 
L 47.608998 169.004725 
L 52.092301 167.713445 
L 56.575603 166.245131 
L 61.058905 164.583245 
L 65.542208 162.631902 
L 70.02551 160.252263 
L 74.508813 157.329286 
L 78.992115 153.81458 
L 83.475417 149.714577 
L 87.95872 145.039942 
L 92.442022 139.758955 
L 96.925325 133.790467 
L 101.408627 127.045719 
L 105.891929 119.499707 
L 110.375232 111.253851 
L 114.858534 102.553016 
L 119.341837 93.741789 
L 123.825139 85.173906 
L 128.308442 77.112739 
L 132.791744 69.670962 
L 137.275046 62.820734 
L 141.758349 56.462456 
L 146.241651 50.506688 
L 150.724954 44.935603 
L 155.208256 39.845255 
L 159.691558 35.474998 
L 164.174861 32.202171 
L 168.658163 30.470227 
L 173.141466 30.653055 
L 177.624768 32.90237 
L 182.108071 37.040304 
L 186.591373 42.548583 
L 191.074675 48.681858 
L 195.557978 54.685677 
L 200.04128 60.033973 
L 204.524583 64.572029 
L 209.007885 68.507893 
L 213.491187 72.296719 
L 217.97449 76.506068 
L 222.457792 81.699485 
L 226.941095 88.311382 
L 231.424397 96.500988 
L 235.907699 106.04784 
L 240.391002 116.379749 
L 244.874304 126.750493 
L 249.357607 136.474904 
L 253.840909 145.092792 
" style="fill:none;stroke:#cc79a7;stroke-linecap:square;stroke-width:2;"/>
   </g>
   <g id="line2d_5">
    <path clip-path="url(#p92971ee383)" d="M 34.159091 166.253735 
L 38.642393 164.814788 
L 43.125696 163.017453 
L 47.608998 160.7358 
L 52.092301 157.823872 
L 56.575603 154.13188 
L 61.058905 149.54345 
L 65.542208 144.019602 
L 70.02551 137.626603 
L 74.508813 130.532864 
L 78.992115 122.975798 
L 83.475417 115.210643 
L 87.95872 107.455164 
L 92.442022 99.842341 
L 96.925325 92.394208 
L 101.408627 85.033507 
L 105.891929 77.645888 
L 110.375232 70.184639 
L 114.858534 62.777544 
L 119.341837 55.774941 
L 123.825139 49.694389 
L 128.308442 45.071182 
L 132.791744 42.282763 
L 137.275046 41.435122 
L 141.758349 42.362079 
L 146.241651 44.719425 
L 150.724954 48.106588 
L 155.208256 52.152602 
L 159.691558 56.548611 
L 164.174861 61.050929 
L 168.658163 65.48322 
L 173.141466 69.741989 
L 177.624768 73.790858 
L 182.108071 77.636193 
L 186.591373 81.296401 
L 191.074675 84.785503 
L 195.557978 88.121586 
L 200.04128 91.354156 
L 204.524583 94.593 
L 209.007885 98.018244 
L 213.491187 101.857822 
L 217.97449 106.334048 
L 222.457792 111.597593 
L 226.941095 117.673318 
L 231.424397 124.435675 
L 235.907699 131.620598 
L 240.391002 138.872558 
L 244.874304 145.816532 
L 249.357607 152.133199 
L 253.840909 157.610713 
" style="fill:none;stroke:#424243;stroke-linecap:square;stroke-width:2;"/>
   </g>
   <g id="patch_3">
    <path d="M 23.175 183.67 
L 264.825 183.67 
" style="fill:none;stroke:#000000;stroke-linecap:square;stroke-linejoin:miter;stroke-width:0.8;"/>
   </g>
  </g>
 </g>
 <defs>
  <clipPath id="p92971ee383">
   <rect height="160.495" width="241.65" x="23.175" y="23.175"/>
  </clipPath>
 </defs>
</svg>
