<?xml version="1.0" encoding="utf-8" standalone="no"?>
<!DOCTYPE svg PUBLIC "-//W3C//DTD SVG 1.1//EN"
  "http://www.w3.org/Graphics/SVG/1.1/DTD/svg11.dtd">
<!-- Created with matplotlib (http://matplotlib.org/) -->
<svg height="288pt" version="1.1" viewBox="0 0 288 288" width="288pt" xmlns="http://www.w3.org/2000/svg" xmlns:xlink="http://www.w3.org/1999/xlink">
 <defs>
  <style type="text/css">
*{stroke-linecap:butt;stroke-linejoin:round;}
  </style>
 </defs>
 <g id="figure_1">
  <g id="patch_1">
   <path d="M 0 288 
L 288 288 
L 288 0 
L 0 0 
z
" style="fill:#ffffff;"/>
  </g>
  <g id="axes_1">
   <g id="patch_2">
    <path d="M 37.92625 183.496 
L 250.07375 183.496 
L 250.07375 23.28 
L 37.92625 23.28 
z
" style="fill:#ffffff;"/>
   </g>
   <g id="PolyCollection_1">
    <defs>
     <path d="M 47.569318 -111.786545 
L 47.569318 -163.221333 
L 51.505264 -218.279247 
L 55.441211 -257.437455 
L 59.377157 -250.269355 
L 63.313103 -212.206868 
L 67.249049 -174.377131 
L 71.184995 -148.705131 
L 75.120942 -133.575763 
L 79.056888 -125.083124 
L 82.992834 -120.337015 
L 86.92878 -117.701606 
L 90.864726 -116.03709 
L 94.800673 -114.871321 
L 98.736619 -114.109652 
L 102.672565 -113.48712 
L 106.608511 -112.947926 
L 110.544457 -112.707136 
L 114.480404 -112.717508 
L 118.41635 -112.720121 
L 122.352296 -112.620622 
L 126.288242 -112.449116 
L 130.224188 -112.296465 
L 134.160135 -112.232064 
L 138.096081 -112.207881 
L 142.032027 -112.139552 
L 145.967973 -112.047168 
L 149.903919 -111.996363 
L 153.839865 -111.970947 
L 157.775812 -111.940423 
L 161.711758 -111.923667 
L 165.647704 -111.948813 
L 169.58365 -112.005624 
L 173.519596 -112.018978 
L 177.455543 -111.947478 
L 181.391489 -111.858166 
L 185.327435 -111.825131 
L 189.263381 -111.85109 
L 193.199327 -111.890796 
L 197.135274 -111.89926 
L 201.07122 -111.884778 
L 205.007166 -111.896296 
L 208.943112 -111.92043 
L 212.879058 -111.892267 
L 216.815005 -111.832209 
L 220.750951 -111.797028 
L 224.686897 -111.787819 
L 228.622843 -111.786627 
L 232.558789 -111.786548 
L 236.494736 -111.786546 
L 240.430682 -111.786545 
L 240.430682 -111.786545 
L 240.430682 -111.786545 
L 236.494736 -111.786545 
L 232.558789 -111.786545 
L 228.622843 -111.786545 
L 224.686897 -111.786545 
L 220.750951 -111.786545 
L 216.815005 -111.786545 
L 212.879058 -111.786545 
L 208.943112 -111.786545 
L 205.007166 -111.786545 
L 201.07122 -111.786545 
L 197.135274 -111.786545 
L 193.199327 -111.786545 
L 189.263381 -111.786545 
L 185.327435 -111.786545 
L 181.391489 -111.786545 
L 177.455543 -111.786545 
L 173.519596 -111.786545 
L 169.58365 -111.786545 
L 165.647704 -111.786545 
L 161.711758 -111.786545 
L 157.775812 -111.786545 
L 153.839865 -111.786545 
L 149.903919 -111.786545 
L 145.967973 -111.786545 
L 142.032027 -111.786545 
L 138.096081 -111.786545 
L 134.160135 -111.786545 
L 130.224188 -111.786545 
L 126.288242 -111.786545 
L 122.352296 -111.786545 
L 118.41635 -111.786545 
L 114.480404 -111.786545 
L 110.544457 -111.786545 
L 106.608511 -111.786545 
L 102.672565 -111.786545 
L 98.736619 -111.786545 
L 94.800673 -111.786545 
L 90.864726 -111.786545 
L 86.92878 -111.786545 
L 82.992834 -111.786545 
L 79.056888 -111.786545 
L 75.120942 -111.786545 
L 71.184995 -111.786545 
L 67.249049 -111.786545 
L 63.313103 -111.786545 
L 59.377157 -111.786545 
L 55.441211 -111.786545 
L 51.505264 -111.786545 
L 47.569318 -111.786545 
z
" id="mc37dc11da3" style="stroke:#e69f00;stroke-opacity:0.3;"/>
    </defs>
    <g clip-path="url(#p2997d77e2b)">
     <use style="fill:#e69f00;fill-opacity:0.3;stroke:#e69f00;stroke-opacity:0.3;" x="0" xlink:href="#mc37dc11da3" y="288"/>
    </g>
   </g>
   <g id="PolyCollection_2">
    <defs>
     <path d="M 47.569318 -111.786545 
L 47.569318 -141.471201 
L 51.505264 -142.416105 
L 55.441211 -142.992849 
L 59.377157 -143.181924 
L 63.313103 -142.978573 
L 67.249049 -142.392999 
L 71.184995 -141.449614 
L 75.120942 -140.185412 
L 79.056888 -138.647611 
L 82.992834 -136.890768 
L 86.92878 -134.973621 
L 90.864726 -132.955897 
L 94.800673 -130.895332 
L 98.736619 -128.845104 
L 102.672565 -126.851805 
L 106.608511 -124.95406 
L 110.544457 -123.181786 
L 114.480404 -121.556076 
L 118.41635 -120.089607 
L 122.352296 -118.787474 
L 126.288242 -117.648307 
L 130.224188 -116.665548 
L 134.160135 -115.82878 
L 138.096081 -115.124988 
L 142.032027 -114.539696 
L 145.967973 -114.057933 
L 149.903919 -113.664993 
L 153.839865 -113.346997 
L 157.775812 -113.091268 
L 161.711758 -112.886548 
L 165.647704 -112.723077 
L 169.58365 -112.592575 
L 173.519596 -112.488155 
L 177.455543 -112.404187 
L 181.391489 -112.336146 
L 185.327435 -112.28045 
L 189.263381 -112.234301 
L 193.199327 -112.195547 
L 197.135274 -112.162551 
L 201.07122 -112.134082 
L 205.007166 -112.109226 
L 208.943112 -112.08731 
L 212.879058 -112.067842 
L 216.815005 -112.050462 
L 220.750951 -112.034902 
L 224.686897 -112.020963 
L 228.622843 -112.008486 
L 232.558789 -111.997339 
L 236.494736 -111.987405 
L 240.430682 -111.978573 
L 240.430682 -111.786545 
L 240.430682 -111.786545 
L 236.494736 -111.786545 
L 232.558789 -111.786545 
L 228.622843 -111.786545 
L 224.686897 -111.786545 
L 220.750951 -111.786545 
L 216.815005 -111.786545 
L 212.879058 -111.786545 
L 208.943112 -111.786545 
L 205.007166 -111.786545 
L 201.07122 -111.786545 
L 197.135274 -111.786545 
L 193.199327 -111.786545 
L 189.263381 -111.786545 
L 185.327435 -111.786545 
L 181.391489 -111.786545 
L 177.455543 -111.786545 
L 173.519596 -111.786545 
L 169.58365 -111.786545 
L 165.647704 -111.786545 
L 161.711758 -111.786545 
L 157.775812 -111.786545 
L 153.839865 -111.786545 
L 149.903919 -111.786545 
L 145.967973 -111.786545 
L 142.032027 -111.786545 
L 138.096081 -111.786545 
L 134.160135 -111.786545 
L 130.224188 -111.786545 
L 126.288242 -111.786545 
L 122.352296 -111.786545 
L 118.41635 -111.786545 
L 114.480404 -111.786545 
L 110.544457 -111.786545 
L 106.608511 -111.786545 
L 102.672565 -111.786545 
L 98.736619 -111.786545 
L 94.800673 -111.786545 
L 90.864726 -111.786545 
L 86.92878 -111.786545 
L 82.992834 -111.786545 
L 79.056888 -111.786545 
L 75.120942 -111.786545 
L 71.184995 -111.786545 
L 67.249049 -111.786545 
L 63.313103 -111.786545 
L 59.377157 -111.786545 
L 55.441211 -111.786545 
L 51.505264 -111.786545 
L 47.569318 -111.786545 
z
" id="m70629de9dd" style="stroke:#424243;stroke-opacity:0.3;"/>
    </defs>
    <g clip-path="url(#p2997d77e2b)">
     <use style="fill:#424243;fill-opacity:0.3;stroke:#424243;stroke-opacity:0.3;" x="0" xlink:href="#m70629de9dd" y="288"/>
    </g>
   </g>
   <g id="matplotlib.axis_1">
    <g id="xtick_1">
     <g id="line2d_1">
      <defs>
       <path d="M 0 0 
L 0 3.5 
" id="m8c88fcb89d" style="stroke:#000000;stroke-width:0.8;"/>
      </defs>
      <g>
       <use style="stroke:#000000;stroke-width:0.8;" x="52.760678" xlink:href="#m8c88fcb89d" y="183.496"/>
      </g>
     </g>
     <g id="text_1">
      <!-- 0 -->
      <defs>
       <path d="M 31.78125 66.40625 
Q 24.171875 66.40625 20.328125 58.90625 
Q 16.5 51.421875 16.5 36.375 
Q 16.5 21.390625 20.328125 13.890625 
Q 24.171875 6.390625 31.78125 6.390625 
Q 39.453125 6.390625 43.28125 13.890625 
Q 47.125 21.390625 47.125 36.375 
Q 47.125 51.421875 43.28125 58.90625 
Q 39.453125 66.40625 31.78125 66.40625 
z
M 31.78125 74.21875 
Q 44.046875 74.21875 50.515625 64.515625 
Q 56.984375 54.828125 56.984375 36.375 
Q 56.984375 17.96875 50.515625 8.265625 
Q 44.046875 -1.421875 31.78125 -1.421875 
Q 19.53125 -1.421875 13.0625 8.265625 
Q 6.59375 17.96875 6.59375 36.375 
Q 6.59375 54.828125 13.0625 64.515625 
Q 19.53125 74.21875 31.78125 74.21875 
z
" id="DejaVuSans-30"/>
      </defs>
      <g transform="translate(46.398178 205.692875)scale(0.2 -0.2)">
       <use xlink:href="#DejaVuSans-30"/>
      </g>
     </g>
    </g>
    <g id="xtick_2">
     <g id="line2d_2">
      <g>
       <use style="stroke:#000000;stroke-width:0.8;" x="126.77047" xlink:href="#m8c88fcb89d" y="183.496"/>
      </g>
     </g>
     <g id="text_2">
      <!-- 20 -->
      <defs>
       <path d="M 19.1875 8.296875 
L 53.609375 8.296875 
L 53.609375 0 
L 7.328125 0 
L 7.328125 8.296875 
Q 12.9375 14.109375 22.625 23.890625 
Q 32.328125 33.6875 34.8125 36.53125 
Q 39.546875 41.84375 41.421875 45.53125 
Q 43.3125 49.21875 43.3125 52.78125 
Q 43.3125 58.59375 39.234375 62.25 
Q 35.15625 65.921875 28.609375 65.921875 
Q 23.96875 65.921875 18.8125 64.3125 
Q 13.671875 62.703125 7.8125 59.421875 
L 7.8125 69.390625 
Q 13.765625 71.78125 18.9375 73 
Q 24.125 74.21875 28.421875 74.21875 
Q 39.75 74.21875 46.484375 68.546875 
Q 53.21875 62.890625 53.21875 53.421875 
Q 53.21875 48.921875 51.53125 44.890625 
Q 49.859375 40.875 45.40625 35.40625 
Q 44.1875 33.984375 37.640625 27.21875 
Q 31.109375 20.453125 19.1875 8.296875 
z
" id="DejaVuSans-32"/>
      </defs>
      <g transform="translate(114.04547 205.692875)scale(0.2 -0.2)">
       <use xlink:href="#DejaVuSans-32"/>
       <use x="63.623047" xlink:href="#DejaVuSans-30"/>
      </g>
     </g>
    </g>
    <g id="xtick_3">
     <g id="line2d_3">
      <g>
       <use style="stroke:#000000;stroke-width:0.8;" x="200.780262" xlink:href="#m8c88fcb89d" y="183.496"/>
      </g>
     </g>
     <g id="text_3">
      <!-- 40 -->
      <defs>
       <path d="M 37.796875 64.3125 
L 12.890625 25.390625 
L 37.796875 25.390625 
z
M 35.203125 72.90625 
L 47.609375 72.90625 
L 47.609375 25.390625 
L 58.015625 25.390625 
L 58.015625 17.1875 
L 47.609375 17.1875 
L 47.609375 0 
L 37.796875 0 
L 37.796875 17.1875 
L 4.890625 17.1875 
L 4.890625 26.703125 
z
" id="DejaVuSans-34"/>
      </defs>
      <g transform="translate(188.055262 205.692875)scale(0.2 -0.2)">
       <use xlink:href="#DejaVuSans-34"/>
       <use x="63.623047" xlink:href="#DejaVuSans-30"/>
      </g>
     </g>
    </g>
    <g id="text_4">
     <!-- leaf area index -->
     <defs>
      <path d="M 9.421875 75.984375 
L 18.40625 75.984375 
L 18.40625 0 
L 9.421875 0 
z
" id="DejaVuSans-6c"/>
      <path d="M 56.203125 29.59375 
L 56.203125 25.203125 
L 14.890625 25.203125 
Q 15.484375 15.921875 20.484375 11.0625 
Q 25.484375 6.203125 34.421875 6.203125 
Q 39.59375 6.203125 44.453125 7.46875 
Q 49.3125 8.734375 54.109375 11.28125 
L 54.109375 2.78125 
Q 49.265625 0.734375 44.1875 -0.34375 
Q 39.109375 -1.421875 33.890625 -1.421875 
Q 20.796875 -1.421875 13.15625 6.1875 
Q 5.515625 13.8125 5.515625 26.8125 
Q 5.515625 40.234375 12.765625 48.109375 
Q 20.015625 56 32.328125 56 
Q 43.359375 56 49.78125 48.890625 
Q 56.203125 41.796875 56.203125 29.59375 
z
M 47.21875 32.234375 
Q 47.125 39.59375 43.09375 43.984375 
Q 39.0625 48.390625 32.421875 48.390625 
Q 24.90625 48.390625 20.390625 44.140625 
Q 15.875 39.890625 15.1875 32.171875 
z
" id="DejaVuSans-65"/>
      <path d="M 34.28125 27.484375 
Q 23.390625 27.484375 19.1875 25 
Q 14.984375 22.515625 14.984375 16.5 
Q 14.984375 11.71875 18.140625 8.90625 
Q 21.296875 6.109375 26.703125 6.109375 
Q 34.1875 6.109375 38.703125 11.40625 
Q 43.21875 16.703125 43.21875 25.484375 
L 43.21875 27.484375 
z
M 52.203125 31.203125 
L 52.203125 0 
L 43.21875 0 
L 43.21875 8.296875 
Q 40.140625 3.328125 35.546875 0.953125 
Q 30.953125 -1.421875 24.3125 -1.421875 
Q 15.921875 -1.421875 10.953125 3.296875 
Q 6 8.015625 6 15.921875 
Q 6 25.140625 12.171875 29.828125 
Q 18.359375 34.515625 30.609375 34.515625 
L 43.21875 34.515625 
L 43.21875 35.40625 
Q 43.21875 41.609375 39.140625 45 
Q 35.0625 48.390625 27.6875 48.390625 
Q 23 48.390625 18.546875 47.265625 
Q 14.109375 46.140625 10.015625 43.890625 
L 10.015625 52.203125 
Q 14.9375 54.109375 19.578125 55.046875 
Q 24.21875 56 28.609375 56 
Q 40.484375 56 46.34375 49.84375 
Q 52.203125 43.703125 52.203125 31.203125 
z
" id="DejaVuSans-61"/>
      <path d="M 37.109375 75.984375 
L 37.109375 68.5 
L 28.515625 68.5 
Q 23.6875 68.5 21.796875 66.546875 
Q 19.921875 64.59375 19.921875 59.515625 
L 19.921875 54.6875 
L 34.71875 54.6875 
L 34.71875 47.703125 
L 19.921875 47.703125 
L 19.921875 0 
L 10.890625 0 
L 10.890625 47.703125 
L 2.296875 47.703125 
L 2.296875 54.6875 
L 10.890625 54.6875 
L 10.890625 58.5 
Q 10.890625 67.625 15.140625 71.796875 
Q 19.390625 75.984375 28.609375 75.984375 
z
" id="DejaVuSans-66"/>
      <path id="DejaVuSans-20"/>
      <path d="M 41.109375 46.296875 
Q 39.59375 47.171875 37.8125 47.578125 
Q 36.03125 48 33.890625 48 
Q 26.265625 48 22.1875 43.046875 
Q 18.109375 38.09375 18.109375 28.8125 
L 18.109375 0 
L 9.078125 0 
L 9.078125 54.6875 
L 18.109375 54.6875 
L 18.109375 46.1875 
Q 20.953125 51.171875 25.484375 53.578125 
Q 30.03125 56 36.53125 56 
Q 37.453125 56 38.578125 55.875 
Q 39.703125 55.765625 41.0625 55.515625 
z
" id="DejaVuSans-72"/>
      <path d="M 9.421875 54.6875 
L 18.40625 54.6875 
L 18.40625 0 
L 9.421875 0 
z
M 9.421875 75.984375 
L 18.40625 75.984375 
L 18.40625 64.59375 
L 9.421875 64.59375 
z
" id="DejaVuSans-69"/>
      <path d="M 54.890625 33.015625 
L 54.890625 0 
L 45.90625 0 
L 45.90625 32.71875 
Q 45.90625 40.484375 42.875 44.328125 
Q 39.84375 48.1875 33.796875 48.1875 
Q 26.515625 48.1875 22.3125 43.546875 
Q 18.109375 38.921875 18.109375 30.90625 
L 18.109375 0 
L 9.078125 0 
L 9.078125 54.6875 
L 18.109375 54.6875 
L 18.109375 46.1875 
Q 21.34375 51.125 25.703125 53.5625 
Q 30.078125 56 35.796875 56 
Q 45.21875 56 50.046875 50.171875 
Q 54.890625 44.34375 54.890625 33.015625 
z
" id="DejaVuSans-6e"/>
      <path d="M 45.40625 46.390625 
L 45.40625 75.984375 
L 54.390625 75.984375 
L 54.390625 0 
L 45.40625 0 
L 45.40625 8.203125 
Q 42.578125 3.328125 38.25 0.953125 
Q 33.9375 -1.421875 27.875 -1.421875 
Q 17.96875 -1.421875 11.734375 6.484375 
Q 5.515625 14.40625 5.515625 27.296875 
Q 5.515625 40.1875 11.734375 48.09375 
Q 17.96875 56 27.875 56 
Q 33.9375 56 38.25 53.625 
Q 42.578125 51.265625 45.40625 46.390625 
z
M 14.796875 27.296875 
Q 14.796875 17.390625 18.875 11.75 
Q 22.953125 6.109375 30.078125 6.109375 
Q 37.203125 6.109375 41.296875 11.75 
Q 45.40625 17.390625 45.40625 27.296875 
Q 45.40625 37.203125 41.296875 42.84375 
Q 37.203125 48.484375 30.078125 48.484375 
Q 22.953125 48.484375 18.875 42.84375 
Q 14.796875 37.203125 14.796875 27.296875 
z
" id="DejaVuSans-64"/>
      <path d="M 54.890625 54.6875 
L 35.109375 28.078125 
L 55.90625 0 
L 45.3125 0 
L 29.390625 21.484375 
L 13.484375 0 
L 2.875 0 
L 24.125 28.609375 
L 4.6875 54.6875 
L 15.28125 54.6875 
L 29.78125 35.203125 
L 44.28125 54.6875 
z
" id="DejaVuSans-78"/>
     </defs>
     <g transform="translate(50.265625 232.848344)scale(0.25 -0.25)">
      <use xlink:href="#DejaVuSans-6c"/>
      <use x="27.783203" xlink:href="#DejaVuSans-65"/>
      <use x="89.306641" xlink:href="#DejaVuSans-61"/>
      <use x="150.585938" xlink:href="#DejaVuSans-66"/>
      <use x="185.791016" xlink:href="#DejaVuSans-20"/>
      <use x="217.578125" xlink:href="#DejaVuSans-61"/>
      <use x="278.857422" xlink:href="#DejaVuSans-72"/>
      <use x="319.939453" xlink:href="#DejaVuSans-65"/>
      <use x="381.462891" xlink:href="#DejaVuSans-61"/>
      <use x="442.742188" xlink:href="#DejaVuSans-20"/>
      <use x="474.529297" xlink:href="#DejaVuSans-69"/>
      <use x="502.3125" xlink:href="#DejaVuSans-6e"/>
      <use x="565.691406" xlink:href="#DejaVuSans-64"/>
      <use x="629.167969" xlink:href="#DejaVuSans-65"/>
      <use x="690.675781" xlink:href="#DejaVuSans-78"/>
     </g>
     <!-- kurtosis -->
     <defs>
      <path d="M 9.078125 75.984375 
L 18.109375 75.984375 
L 18.109375 31.109375 
L 44.921875 54.6875 
L 56.390625 54.6875 
L 27.390625 29.109375 
L 57.625 0 
L 45.90625 0 
L 18.109375 26.703125 
L 18.109375 0 
L 9.078125 0 
z
" id="DejaVuSans-6b"/>
      <path d="M 8.5 21.578125 
L 8.5 54.6875 
L 17.484375 54.6875 
L 17.484375 21.921875 
Q 17.484375 14.15625 20.5 10.265625 
Q 23.53125 6.390625 29.59375 6.390625 
Q 36.859375 6.390625 41.078125 11.03125 
Q 45.3125 15.671875 45.3125 23.6875 
L 45.3125 54.6875 
L 54.296875 54.6875 
L 54.296875 0 
L 45.3125 0 
L 45.3125 8.40625 
Q 42.046875 3.421875 37.71875 1 
Q 33.40625 -1.421875 27.6875 -1.421875 
Q 18.265625 -1.421875 13.375 4.4375 
Q 8.5 10.296875 8.5 21.578125 
z
M 31.109375 56 
z
" id="DejaVuSans-75"/>
      <path d="M 18.3125 70.21875 
L 18.3125 54.6875 
L 36.8125 54.6875 
L 36.8125 47.703125 
L 18.3125 47.703125 
L 18.3125 18.015625 
Q 18.3125 11.328125 20.140625 9.421875 
Q 21.96875 7.515625 27.59375 7.515625 
L 36.8125 7.515625 
L 36.8125 0 
L 27.59375 0 
Q 17.1875 0 13.234375 3.875 
Q 9.28125 7.765625 9.28125 18.015625 
L 9.28125 47.703125 
L 2.6875 47.703125 
L 2.6875 54.6875 
L 9.28125 54.6875 
L 9.28125 70.21875 
z
" id="DejaVuSans-74"/>
      <path d="M 30.609375 48.390625 
Q 23.390625 48.390625 19.1875 42.75 
Q 14.984375 37.109375 14.984375 27.296875 
Q 14.984375 17.484375 19.15625 11.84375 
Q 23.34375 6.203125 30.609375 6.203125 
Q 37.796875 6.203125 41.984375 11.859375 
Q 46.1875 17.53125 46.1875 27.296875 
Q 46.1875 37.015625 41.984375 42.703125 
Q 37.796875 48.390625 30.609375 48.390625 
z
M 30.609375 56 
Q 42.328125 56 49.015625 48.375 
Q 55.71875 40.765625 55.71875 27.296875 
Q 55.71875 13.875 49.015625 6.21875 
Q 42.328125 -1.421875 30.609375 -1.421875 
Q 18.84375 -1.421875 12.171875 6.21875 
Q 5.515625 13.875 5.515625 27.296875 
Q 5.515625 40.765625 12.171875 48.375 
Q 18.84375 56 30.609375 56 
z
" id="DejaVuSans-6f"/>
      <path d="M 44.28125 53.078125 
L 44.28125 44.578125 
Q 40.484375 46.53125 36.375 47.5 
Q 32.28125 48.484375 27.875 48.484375 
Q 21.1875 48.484375 17.84375 46.4375 
Q 14.5 44.390625 14.5 40.28125 
Q 14.5 37.15625 16.890625 35.375 
Q 19.28125 33.59375 26.515625 31.984375 
L 29.59375 31.296875 
Q 39.15625 29.25 43.1875 25.515625 
Q 47.21875 21.78125 47.21875 15.09375 
Q 47.21875 7.46875 41.1875 3.015625 
Q 35.15625 -1.421875 24.609375 -1.421875 
Q 20.21875 -1.421875 15.453125 -0.5625 
Q 10.6875 0.296875 5.421875 2 
L 5.421875 11.28125 
Q 10.40625 8.6875 15.234375 7.390625 
Q 20.0625 6.109375 24.8125 6.109375 
Q 31.15625 6.109375 34.5625 8.28125 
Q 37.984375 10.453125 37.984375 14.40625 
Q 37.984375 18.0625 35.515625 20.015625 
Q 33.0625 21.96875 24.703125 23.78125 
L 21.578125 24.515625 
Q 13.234375 26.265625 9.515625 29.90625 
Q 5.8125 33.546875 5.8125 39.890625 
Q 5.8125 47.609375 11.28125 51.796875 
Q 16.75 56 26.8125 56 
Q 31.78125 56 36.171875 55.265625 
Q 40.578125 54.546875 44.28125 53.078125 
z
" id="DejaVuSans-73"/>
     </defs>
     <g transform="translate(94.662109 260.842875)scale(0.25 -0.25)">
      <use xlink:href="#DejaVuSans-6b"/>
      <use x="57.863281" xlink:href="#DejaVuSans-75"/>
      <use x="121.242188" xlink:href="#DejaVuSans-72"/>
      <use x="162.355469" xlink:href="#DejaVuSans-74"/>
      <use x="201.564453" xlink:href="#DejaVuSans-6f"/>
      <use x="262.746094" xlink:href="#DejaVuSans-73"/>
      <use x="314.845703" xlink:href="#DejaVuSans-69"/>
      <use x="342.628906" xlink:href="#DejaVuSans-73"/>
     </g>
    </g>
   </g>
   <g id="line2d_4">
    <path clip-path="url(#p2997d77e2b)" d="M 47.569318 124.778667 
L 51.505264 69.720753 
L 55.441211 30.562545 
L 59.377157 37.730645 
L 63.313103 75.793132 
L 67.249049 113.622869 
L 71.184995 139.294869 
L 75.120942 154.424237 
L 79.056888 162.916876 
L 82.992834 167.662985 
L 86.92878 170.298394 
L 90.864726 171.96291 
L 94.800673 173.128679 
L 98.736619 173.890348 
L 102.672565 174.51288 
L 106.608511 175.052074 
L 110.544457 175.292864 
L 114.480404 175.282492 
L 118.41635 175.279879 
L 122.352296 175.379378 
L 126.288242 175.550884 
L 130.224188 175.703535 
L 134.160135 175.767936 
L 138.096081 175.792119 
L 142.032027 175.860448 
L 145.967973 175.952832 
L 149.903919 176.003637 
L 153.839865 176.029053 
L 157.775812 176.059577 
L 161.711758 176.076333 
L 165.647704 176.051187 
L 169.58365 175.994376 
L 173.519596 175.981022 
L 177.455543 176.052522 
L 181.391489 176.141834 
L 185.327435 176.174869 
L 189.263381 176.14891 
L 193.199327 176.109204 
L 197.135274 176.10074 
L 201.07122 176.115222 
L 205.007166 176.103704 
L 208.943112 176.07957 
L 212.879058 176.107733 
L 216.815005 176.167791 
L 220.750951 176.202972 
L 224.686897 176.212181 
L 228.622843 176.213373 
L 232.558789 176.213452 
L 236.494736 176.213454 
L 240.430682 176.213455 
" style="fill:none;stroke:#e69f00;stroke-linecap:square;stroke-width:2;"/>
   </g>
   <g id="line2d_5">
    <path clip-path="url(#p2997d77e2b)" d="M 47.569318 146.528799 
L 51.505264 145.583895 
L 55.441211 145.007151 
L 59.377157 144.818076 
L 63.313103 145.021427 
L 67.249049 145.607001 
L 71.184995 146.550386 
L 75.120942 147.814588 
L 79.056888 149.352389 
L 82.992834 151.109232 
L 86.92878 153.026379 
L 90.864726 155.044103 
L 94.800673 157.104668 
L 98.736619 159.154896 
L 102.672565 161.148195 
L 106.608511 163.04594 
L 110.544457 164.818214 
L 114.480404 166.443924 
L 118.41635 167.910393 
L 122.352296 169.212526 
L 126.288242 170.351693 
L 130.224188 171.334452 
L 134.160135 172.17122 
L 138.096081 172.875012 
L 142.032027 173.460304 
L 145.967973 173.942067 
L 149.903919 174.335007 
L 153.839865 174.653003 
L 157.775812 174.908732 
L 161.711758 175.113452 
L 165.647704 175.276923 
L 169.58365 175.407425 
L 173.519596 175.511845 
L 177.455543 175.595813 
L 181.391489 175.663854 
L 185.327435 175.71955 
L 189.263381 175.765699 
L 193.199327 175.804453 
L 197.135274 175.837449 
L 201.07122 175.865918 
L 205.007166 175.890774 
L 208.943112 175.91269 
L 212.879058 175.932158 
L 216.815005 175.949538 
L 220.750951 175.965098 
L 224.686897 175.979037 
L 228.622843 175.991514 
L 232.558789 176.002661 
L 236.494736 176.012595 
L 240.430682 176.021427 
" style="fill:none;stroke:#424243;stroke-linecap:square;stroke-width:2;"/>
   </g>
   <g id="patch_3">
    <path d="M 37.92625 183.496 
L 250.07375 183.496 
" style="fill:none;stroke:#000000;stroke-linecap:square;stroke-linejoin:miter;stroke-width:0.8;"/>
   </g>
  </g>
 </g>
 <defs>
  <clipPath id="p2997d77e2b">
   <rect height="160.216" width="212.1475" x="37.92625" y="23.28"/>
  </clipPath>
 </defs>
</svg>
