<?xml version="1.0" encoding="utf-8" standalone="no"?>
<!DOCTYPE svg PUBLIC "-//W3C//DTD SVG 1.1//EN"
  "http://www.w3.org/Graphics/SVG/1.1/DTD/svg11.dtd">
<!-- Created with matplotlib (http://matplotlib.org/) -->
<svg height="288pt" version="1.1" viewBox="0 0 288 288" width="288pt" xmlns="http://www.w3.org/2000/svg" xmlns:xlink="http://www.w3.org/1999/xlink">
 <defs>
  <style type="text/css">
*{stroke-linecap:butt;stroke-linejoin:round;}
  </style>
 </defs>
 <g id="figure_1">
  <g id="patch_1">
   <path d="M 0 288 
L 288 288 
L 288 0 
L 0 0 
z
" style="fill:#ffffff;"/>
  </g>
  <g id="axes_1">
   <g id="patch_2">
    <path d="M 23.28 183.496 
L 252.931974 183.496 
L 252.931974 23.28 
L 23.28 23.28 
z
" style="fill:#ffffff;"/>
   </g>
   <g id="PolyCollection_1">
    <defs>
     <path d="M 33.718726 -111.786545 
L 33.718726 -198.915592 
L 37.979431 -215.549425 
L 42.240135 -226.300071 
L 46.50084 -230.172743 
L 50.761544 -227.90105 
L 55.022249 -221.361358 
L 59.282953 -212.712352 
L 63.543658 -203.719456 
L 67.804362 -195.461245 
L 72.065067 -188.357615 
L 76.325771 -182.364162 
L 80.586476 -177.204645 
L 84.84718 -172.567057 
L 89.107885 -168.22772 
L 93.36859 -164.096407 
L 97.629294 -160.197865 
L 101.889999 -156.6174 
L 106.150703 -153.44008 
L 110.411408 -150.707468 
L 114.672112 -148.40297 
L 118.932817 -146.460365 
L 123.193521 -144.780596 
L 127.454226 -143.247107 
L 131.71493 -141.742195 
L 135.975635 -140.170055 
L 140.236339 -138.481739 
L 144.497044 -136.686927 
L 148.757748 -134.841862 
L 153.018453 -133.019372 
L 157.279158 -131.279618 
L 161.539862 -129.658119 
L 165.800567 -128.173924 
L 170.061271 -126.846058 
L 174.321976 -125.700558 
L 178.58268 -124.758095 
L 182.843385 -124.009485 
L 187.104089 -123.400257 
L 191.364794 -122.842553 
L 195.625498 -122.252598 
L 199.886203 -121.591067 
L 204.146907 -120.880489 
L 208.407612 -120.190652 
L 212.668316 -119.603653 
L 216.929021 -119.177424 
L 221.189726 -118.919661 
L 225.45043 -118.776143 
L 229.711135 -118.63706 
L 233.971839 -118.366302 
L 238.232544 -117.851146 
L 242.493248 -117.053697 
L 242.493248 -111.786545 
L 242.493248 -111.786545 
L 238.232544 -111.786545 
L 233.971839 -111.786545 
L 229.711135 -111.786545 
L 225.45043 -111.786545 
L 221.189726 -111.786545 
L 216.929021 -111.786545 
L 212.668316 -111.786545 
L 208.407612 -111.786545 
L 204.146907 -111.786545 
L 199.886203 -111.786545 
L 195.625498 -111.786545 
L 191.364794 -111.786545 
L 187.104089 -111.786545 
L 182.843385 -111.786545 
L 178.58268 -111.786545 
L 174.321976 -111.786545 
L 170.061271 -111.786545 
L 165.800567 -111.786545 
L 161.539862 -111.786545 
L 157.279158 -111.786545 
L 153.018453 -111.786545 
L 148.757748 -111.786545 
L 144.497044 -111.786545 
L 140.236339 -111.786545 
L 135.975635 -111.786545 
L 131.71493 -111.786545 
L 127.454226 -111.786545 
L 123.193521 -111.786545 
L 118.932817 -111.786545 
L 114.672112 -111.786545 
L 110.411408 -111.786545 
L 106.150703 -111.786545 
L 101.889999 -111.786545 
L 97.629294 -111.786545 
L 93.36859 -111.786545 
L 89.107885 -111.786545 
L 84.84718 -111.786545 
L 80.586476 -111.786545 
L 76.325771 -111.786545 
L 72.065067 -111.786545 
L 67.804362 -111.786545 
L 63.543658 -111.786545 
L 59.282953 -111.786545 
L 55.022249 -111.786545 
L 50.761544 -111.786545 
L 46.50084 -111.786545 
L 42.240135 -111.786545 
L 37.979431 -111.786545 
L 33.718726 -111.786545 
z
" id="m7770570a76" style="stroke:#e69f00;stroke-opacity:0.3;"/>
    </defs>
    <g clip-path="url(#p7afda4b29f)">
     <use style="fill:#e69f00;fill-opacity:0.3;stroke:#e69f00;stroke-opacity:0.3;" x="0" xlink:href="#m7770570a76" y="288"/>
    </g>
   </g>
   <g id="PolyCollection_2">
    <defs>
     <path d="M 33.718726 -111.786545 
L 33.718726 -246.655223 
L 37.979431 -250.254964 
L 42.240135 -245.276826 
L 46.50084 -233.539814 
L 50.761544 -217.949789 
L 55.022249 -201.503427 
L 59.282953 -186.480565 
L 63.543658 -174.092684 
L 67.804362 -164.582508 
L 72.065067 -157.579086 
L 76.325771 -152.479505 
L 80.586476 -148.712176 
L 84.84718 -145.848707 
L 89.107885 -143.605871 
L 93.36859 -141.799867 
L 97.629294 -140.299678 
L 101.889999 -139.000166 
L 106.150703 -137.815038 
L 110.411408 -136.680392 
L 114.672112 -135.55911 
L 118.932817 -134.440457 
L 123.193521 -133.33409 
L 127.454226 -132.260798 
L 131.71493 -131.243218 
L 135.975635 -130.299094 
L 140.236339 -129.438192 
L 144.497044 -128.662517 
L 148.757748 -127.968466 
L 153.018453 -127.349158 
L 157.279158 -126.795726 
L 161.539862 -126.297313 
L 165.800567 -125.840531 
L 170.061271 -125.409383 
L 174.321976 -124.9864 
L 178.58268 -124.555069 
L 182.843385 -124.103226 
L 187.104089 -123.626878 
L 191.364794 -123.133857 
L 195.625498 -122.64677 
L 199.886203 -122.204517 
L 204.146907 -121.861191 
L 208.407612 -121.680296 
L 212.668316 -121.721688 
L 216.929021 -122.019924 
L 221.189726 -122.557095 
L 225.45043 -123.239993 
L 229.711135 -123.896515 
L 233.971839 -124.303754 
L 238.232544 -124.24742 
L 242.493248 -123.593817 
L 242.493248 -111.786545 
L 242.493248 -111.786545 
L 238.232544 -111.786545 
L 233.971839 -111.786545 
L 229.711135 -111.786545 
L 225.45043 -111.786545 
L 221.189726 -111.786545 
L 216.929021 -111.786545 
L 212.668316 -111.786545 
L 208.407612 -111.786545 
L 204.146907 -111.786545 
L 199.886203 -111.786545 
L 195.625498 -111.786545 
L 191.364794 -111.786545 
L 187.104089 -111.786545 
L 182.843385 -111.786545 
L 178.58268 -111.786545 
L 174.321976 -111.786545 
L 170.061271 -111.786545 
L 165.800567 -111.786545 
L 161.539862 -111.786545 
L 157.279158 -111.786545 
L 153.018453 -111.786545 
L 148.757748 -111.786545 
L 144.497044 -111.786545 
L 140.236339 -111.786545 
L 135.975635 -111.786545 
L 131.71493 -111.786545 
L 127.454226 -111.786545 
L 123.193521 -111.786545 
L 118.932817 -111.786545 
L 114.672112 -111.786545 
L 110.411408 -111.786545 
L 106.150703 -111.786545 
L 101.889999 -111.786545 
L 97.629294 -111.786545 
L 93.36859 -111.786545 
L 89.107885 -111.786545 
L 84.84718 -111.786545 
L 80.586476 -111.786545 
L 76.325771 -111.786545 
L 72.065067 -111.786545 
L 67.804362 -111.786545 
L 63.543658 -111.786545 
L 59.282953 -111.786545 
L 55.022249 -111.786545 
L 50.761544 -111.786545 
L 46.50084 -111.786545 
L 42.240135 -111.786545 
L 37.979431 -111.786545 
L 33.718726 -111.786545 
z
" id="m3e9aedd88e" style="stroke:#424243;stroke-opacity:0.3;"/>
    </defs>
    <g clip-path="url(#p7afda4b29f)">
     <use style="fill:#424243;fill-opacity:0.3;stroke:#424243;stroke-opacity:0.3;" x="0" xlink:href="#m3e9aedd88e" y="288"/>
    </g>
   </g>
   <g id="matplotlib.axis_1">
    <g id="xtick_1">
     <g id="line2d_1">
      <defs>
       <path d="M 0 0 
L 0 3.5 
" id="m2016567a8d" style="stroke:#000000;stroke-width:0.8;"/>
      </defs>
      <g>
       <use style="stroke:#000000;stroke-width:0.8;" x="33.718726" xlink:href="#m2016567a8d" y="183.496"/>
      </g>
     </g>
     <g id="text_1">
      <!-- 0 -->
      <defs>
       <path d="M 31.78125 66.40625 
Q 24.171875 66.40625 20.328125 58.90625 
Q 16.5 51.421875 16.5 36.375 
Q 16.5 21.390625 20.328125 13.890625 
Q 24.171875 6.390625 31.78125 6.390625 
Q 39.453125 6.390625 43.28125 13.890625 
Q 47.125 21.390625 47.125 36.375 
Q 47.125 51.421875 43.28125 58.90625 
Q 39.453125 66.40625 31.78125 66.40625 
z
M 31.78125 74.21875 
Q 44.046875 74.21875 50.515625 64.515625 
Q 56.984375 54.828125 56.984375 36.375 
Q 56.984375 17.96875 50.515625 8.265625 
Q 44.046875 -1.421875 31.78125 -1.421875 
Q 19.53125 -1.421875 13.0625 8.265625 
Q 6.59375 17.96875 6.59375 36.375 
Q 6.59375 54.828125 13.0625 64.515625 
Q 19.53125 74.21875 31.78125 74.21875 
z
" id="DejaVuSans-30"/>
      </defs>
      <g transform="translate(27.356226 205.692875)scale(0.2 -0.2)">
       <use xlink:href="#DejaVuSans-30"/>
      </g>
     </g>
    </g>
    <g id="xtick_2">
     <g id="line2d_2">
      <g>
       <use style="stroke:#000000;stroke-width:0.8;" x="139.160404" xlink:href="#m2016567a8d" y="183.496"/>
      </g>
     </g>
     <g id="text_2">
      <!-- 50 -->
      <defs>
       <path d="M 10.796875 72.90625 
L 49.515625 72.90625 
L 49.515625 64.59375 
L 19.828125 64.59375 
L 19.828125 46.734375 
Q 21.96875 47.46875 24.109375 47.828125 
Q 26.265625 48.1875 28.421875 48.1875 
Q 40.625 48.1875 47.75 41.5 
Q 54.890625 34.8125 54.890625 23.390625 
Q 54.890625 11.625 47.5625 5.09375 
Q 40.234375 -1.421875 26.90625 -1.421875 
Q 22.3125 -1.421875 17.546875 -0.640625 
Q 12.796875 0.140625 7.71875 1.703125 
L 7.71875 11.625 
Q 12.109375 9.234375 16.796875 8.0625 
Q 21.484375 6.890625 26.703125 6.890625 
Q 35.15625 6.890625 40.078125 11.328125 
Q 45.015625 15.765625 45.015625 23.390625 
Q 45.015625 31 40.078125 35.4375 
Q 35.15625 39.890625 26.703125 39.890625 
Q 22.75 39.890625 18.8125 39.015625 
Q 14.890625 38.140625 10.796875 36.28125 
z
" id="DejaVuSans-35"/>
      </defs>
      <g transform="translate(126.435404 205.692875)scale(0.2 -0.2)">
       <use xlink:href="#DejaVuSans-35"/>
       <use x="63.623047" xlink:href="#DejaVuSans-30"/>
      </g>
     </g>
    </g>
    <g id="xtick_3">
     <g id="line2d_3">
      <g>
       <use style="stroke:#000000;stroke-width:0.8;" x="244.602082" xlink:href="#m2016567a8d" y="183.496"/>
      </g>
     </g>
     <g id="text_3">
      <!-- 100 -->
      <defs>
       <path d="M 12.40625 8.296875 
L 28.515625 8.296875 
L 28.515625 63.921875 
L 10.984375 60.40625 
L 10.984375 69.390625 
L 28.421875 72.90625 
L 38.28125 72.90625 
L 38.28125 8.296875 
L 54.390625 8.296875 
L 54.390625 0 
L 12.40625 0 
z
" id="DejaVuSans-31"/>
      </defs>
      <g transform="translate(225.514582 205.692875)scale(0.2 -0.2)">
       <use xlink:href="#DejaVuSans-31"/>
       <use x="63.623047" xlink:href="#DejaVuSans-30"/>
       <use x="127.246094" xlink:href="#DejaVuSans-30"/>
      </g>
     </g>
    </g>
    <g id="text_4">
     <!-- tree cover -->
     <defs>
      <path d="M 18.3125 70.21875 
L 18.3125 54.6875 
L 36.8125 54.6875 
L 36.8125 47.703125 
L 18.3125 47.703125 
L 18.3125 18.015625 
Q 18.3125 11.328125 20.140625 9.421875 
Q 21.96875 7.515625 27.59375 7.515625 
L 36.8125 7.515625 
L 36.8125 0 
L 27.59375 0 
Q 17.1875 0 13.234375 3.875 
Q 9.28125 7.765625 9.28125 18.015625 
L 9.28125 47.703125 
L 2.6875 47.703125 
L 2.6875 54.6875 
L 9.28125 54.6875 
L 9.28125 70.21875 
z
" id="DejaVuSans-74"/>
      <path d="M 41.109375 46.296875 
Q 39.59375 47.171875 37.8125 47.578125 
Q 36.03125 48 33.890625 48 
Q 26.265625 48 22.1875 43.046875 
Q 18.109375 38.09375 18.109375 28.8125 
L 18.109375 0 
L 9.078125 0 
L 9.078125 54.6875 
L 18.109375 54.6875 
L 18.109375 46.1875 
Q 20.953125 51.171875 25.484375 53.578125 
Q 30.03125 56 36.53125 56 
Q 37.453125 56 38.578125 55.875 
Q 39.703125 55.765625 41.0625 55.515625 
z
" id="DejaVuSans-72"/>
      <path d="M 56.203125 29.59375 
L 56.203125 25.203125 
L 14.890625 25.203125 
Q 15.484375 15.921875 20.484375 11.0625 
Q 25.484375 6.203125 34.421875 6.203125 
Q 39.59375 6.203125 44.453125 7.46875 
Q 49.3125 8.734375 54.109375 11.28125 
L 54.109375 2.78125 
Q 49.265625 0.734375 44.1875 -0.34375 
Q 39.109375 -1.421875 33.890625 -1.421875 
Q 20.796875 -1.421875 13.15625 6.1875 
Q 5.515625 13.8125 5.515625 26.8125 
Q 5.515625 40.234375 12.765625 48.109375 
Q 20.015625 56 32.328125 56 
Q 43.359375 56 49.78125 48.890625 
Q 56.203125 41.796875 56.203125 29.59375 
z
M 47.21875 32.234375 
Q 47.125 39.59375 43.09375 43.984375 
Q 39.0625 48.390625 32.421875 48.390625 
Q 24.90625 48.390625 20.390625 44.140625 
Q 15.875 39.890625 15.1875 32.171875 
z
" id="DejaVuSans-65"/>
      <path id="DejaVuSans-20"/>
      <path d="M 48.78125 52.59375 
L 48.78125 44.1875 
Q 44.96875 46.296875 41.140625 47.34375 
Q 37.3125 48.390625 33.40625 48.390625 
Q 24.65625 48.390625 19.8125 42.84375 
Q 14.984375 37.3125 14.984375 27.296875 
Q 14.984375 17.28125 19.8125 11.734375 
Q 24.65625 6.203125 33.40625 6.203125 
Q 37.3125 6.203125 41.140625 7.25 
Q 44.96875 8.296875 48.78125 10.40625 
L 48.78125 2.09375 
Q 45.015625 0.34375 40.984375 -0.53125 
Q 36.96875 -1.421875 32.421875 -1.421875 
Q 20.0625 -1.421875 12.78125 6.34375 
Q 5.515625 14.109375 5.515625 27.296875 
Q 5.515625 40.671875 12.859375 48.328125 
Q 20.21875 56 33.015625 56 
Q 37.15625 56 41.109375 55.140625 
Q 45.0625 54.296875 48.78125 52.59375 
z
" id="DejaVuSans-63"/>
      <path d="M 30.609375 48.390625 
Q 23.390625 48.390625 19.1875 42.75 
Q 14.984375 37.109375 14.984375 27.296875 
Q 14.984375 17.484375 19.15625 11.84375 
Q 23.34375 6.203125 30.609375 6.203125 
Q 37.796875 6.203125 41.984375 11.859375 
Q 46.1875 17.53125 46.1875 27.296875 
Q 46.1875 37.015625 41.984375 42.703125 
Q 37.796875 48.390625 30.609375 48.390625 
z
M 30.609375 56 
Q 42.328125 56 49.015625 48.375 
Q 55.71875 40.765625 55.71875 27.296875 
Q 55.71875 13.875 49.015625 6.21875 
Q 42.328125 -1.421875 30.609375 -1.421875 
Q 18.84375 -1.421875 12.171875 6.21875 
Q 5.515625 13.875 5.515625 27.296875 
Q 5.515625 40.765625 12.171875 48.375 
Q 18.84375 56 30.609375 56 
z
" id="DejaVuSans-6f"/>
      <path d="M 2.984375 54.6875 
L 12.5 54.6875 
L 29.59375 8.796875 
L 46.6875 54.6875 
L 56.203125 54.6875 
L 35.6875 0 
L 23.484375 0 
z
" id="DejaVuSans-76"/>
     </defs>
     <g transform="translate(73.965362 232.848344)scale(0.25 -0.25)">
      <use xlink:href="#DejaVuSans-74"/>
      <use x="39.208984" xlink:href="#DejaVuSans-72"/>
      <use x="80.291016" xlink:href="#DejaVuSans-65"/>
      <use x="141.814453" xlink:href="#DejaVuSans-65"/>
      <use x="203.337891" xlink:href="#DejaVuSans-20"/>
      <use x="235.125" xlink:href="#DejaVuSans-63"/>
      <use x="290.105469" xlink:href="#DejaVuSans-6f"/>
      <use x="351.287109" xlink:href="#DejaVuSans-76"/>
      <use x="410.466797" xlink:href="#DejaVuSans-65"/>
      <use x="471.990234" xlink:href="#DejaVuSans-72"/>
     </g>
     <!--   -->
     <g transform="translate(134.133331 260.842875)scale(0.25 -0.25)">
      <use xlink:href="#DejaVuSans-20"/>
     </g>
    </g>
   </g>
   <g id="line2d_4">
    <path clip-path="url(#p7afda4b29f)" d="M 33.718726 89.084408 
L 37.979431 72.450575 
L 42.240135 61.699929 
L 46.50084 57.827257 
L 50.761544 60.09895 
L 55.022249 66.638642 
L 59.282953 75.287648 
L 63.543658 84.280544 
L 67.804362 92.538755 
L 72.065067 99.642385 
L 76.325771 105.635838 
L 80.586476 110.795355 
L 84.84718 115.432943 
L 89.107885 119.77228 
L 93.36859 123.903593 
L 97.629294 127.802135 
L 101.889999 131.3826 
L 106.150703 134.55992 
L 110.411408 137.292532 
L 114.672112 139.59703 
L 118.932817 141.539635 
L 123.193521 143.219404 
L 127.454226 144.752893 
L 131.71493 146.257805 
L 135.975635 147.829945 
L 140.236339 149.518261 
L 144.497044 151.313073 
L 148.757748 153.158138 
L 153.018453 154.980628 
L 157.279158 156.720382 
L 161.539862 158.341881 
L 165.800567 159.826076 
L 170.061271 161.153942 
L 174.321976 162.299442 
L 178.58268 163.241905 
L 182.843385 163.990515 
L 187.104089 164.599743 
L 191.364794 165.157447 
L 195.625498 165.747402 
L 199.886203 166.408933 
L 204.146907 167.119511 
L 208.407612 167.809348 
L 212.668316 168.396347 
L 216.929021 168.822576 
L 221.189726 169.080339 
L 225.45043 169.223857 
L 229.711135 169.36294 
L 233.971839 169.633698 
L 238.232544 170.148854 
L 242.493248 170.946303 
" style="fill:none;stroke:#e69f00;stroke-linecap:square;stroke-width:2;"/>
   </g>
   <g id="line2d_5">
    <path clip-path="url(#p7afda4b29f)" d="M 33.718726 41.344777 
L 37.979431 37.745036 
L 42.240135 42.723174 
L 46.50084 54.460186 
L 50.761544 70.050211 
L 55.022249 86.496573 
L 59.282953 101.519435 
L 63.543658 113.907316 
L 67.804362 123.417492 
L 72.065067 130.420914 
L 76.325771 135.520495 
L 80.586476 139.287824 
L 84.84718 142.151293 
L 89.107885 144.394129 
L 93.36859 146.200133 
L 97.629294 147.700322 
L 101.889999 148.999834 
L 106.150703 150.184962 
L 110.411408 151.319608 
L 114.672112 152.44089 
L 118.932817 153.559543 
L 123.193521 154.66591 
L 127.454226 155.739202 
L 131.71493 156.756782 
L 135.975635 157.700906 
L 140.236339 158.561808 
L 144.497044 159.337483 
L 148.757748 160.031534 
L 153.018453 160.650842 
L 157.279158 161.204274 
L 161.539862 161.702687 
L 165.800567 162.159469 
L 170.061271 162.590617 
L 174.321976 163.0136 
L 178.58268 163.444931 
L 182.843385 163.896774 
L 187.104089 164.373122 
L 191.364794 164.866143 
L 195.625498 165.35323 
L 199.886203 165.795483 
L 204.146907 166.138809 
L 208.407612 166.319704 
L 212.668316 166.278312 
L 216.929021 165.980076 
L 221.189726 165.442905 
L 225.45043 164.760007 
L 229.711135 164.103485 
L 233.971839 163.696246 
L 238.232544 163.75258 
L 242.493248 164.406183 
" style="fill:none;stroke:#424243;stroke-linecap:square;stroke-width:2;"/>
   </g>
   <g id="patch_3">
    <path d="M 23.28 183.496 
L 252.931974 183.496 
" style="fill:none;stroke:#000000;stroke-linecap:square;stroke-linejoin:miter;stroke-width:0.8;"/>
   </g>
  </g>
 </g>
 <defs>
  <clipPath id="p7afda4b29f">
   <rect height="160.216" width="229.651974" x="23.28" y="23.28"/>
  </clipPath>
 </defs>
</svg>
