<?xml version="1.0" encoding="utf-8" standalone="no"?>
<!DOCTYPE svg PUBLIC "-//W3C//DTD SVG 1.1//EN"
  "http://www.w3.org/Graphics/SVG/1.1/DTD/svg11.dtd">
<!-- Created with matplotlib (http://matplotlib.org/) -->
<svg height="288pt" version="1.1" viewBox="0 0 288 288" width="288pt" xmlns="http://www.w3.org/2000/svg" xmlns:xlink="http://www.w3.org/1999/xlink">
 <defs>
  <style type="text/css">
*{stroke-linecap:butt;stroke-linejoin:round;}
  </style>
 </defs>
 <g id="figure_1">
  <g id="patch_1">
   <path d="M 0 288 
L 288 288 
L 288 0 
L 0 0 
z
" style="fill:#ffffff;"/>
  </g>
  <g id="axes_1">
   <g id="patch_2">
    <path d="M 23.28 183.496 
L 264.72 183.496 
L 264.72 23.28 
L 23.28 23.28 
z
" style="fill:#ffffff;"/>
   </g>
   <g id="PolyCollection_1">
    <defs>
     <path d="M 34.254545 -111.786545 
L 34.254545 -122.516804 
L 38.733952 -129.261969 
L 43.213358 -138.228301 
L 47.692764 -149.410091 
L 52.172171 -162.381893 
L 56.651577 -176.320579 
L 61.130983 -190.462591 
L 65.61039 -204.552268 
L 70.089796 -218.604509 
L 74.569202 -232.115566 
L 79.048609 -243.773416 
L 83.528015 -252.195778 
L 88.007421 -256.758214 
L 92.486827 -257.437455 
L 96.966234 -254.035729 
L 101.44564 -245.943793 
L 105.925046 -232.797832 
L 110.404453 -215.315027 
L 114.883859 -195.457095 
L 119.363265 -175.755059 
L 123.842672 -158.350858 
L 128.322078 -144.424799 
L 132.801484 -134.180689 
L 137.280891 -127.129735 
L 141.760297 -122.461748 
L 146.239703 -119.416608 
L 150.719109 -117.495006 
L 155.198516 -116.39709 
L 159.677922 -115.848717 
L 164.157328 -115.560772 
L 168.636735 -115.3205 
L 173.116141 -115.03613 
L 177.595547 -114.686127 
L 182.074954 -114.272418 
L 186.55436 -113.818098 
L 191.033766 -113.365666 
L 195.513173 -112.959812 
L 199.992579 -112.633455 
L 204.471985 -112.403034 
L 208.951391 -112.267951 
L 213.430798 -112.212865 
L 217.910204 -112.216538 
L 222.38961 -112.263777 
L 226.869017 -112.345778 
L 231.348423 -112.447772 
L 235.827829 -112.540744 
L 240.307236 -112.5865 
L 244.786642 -112.556306 
L 249.266048 -112.454974 
L 253.745455 -112.325287 
L 253.745455 -111.786545 
L 253.745455 -111.786545 
L 249.266048 -111.786545 
L 244.786642 -111.786545 
L 240.307236 -111.786545 
L 235.827829 -111.786545 
L 231.348423 -111.786545 
L 226.869017 -111.786545 
L 222.38961 -111.786545 
L 217.910204 -111.786545 
L 213.430798 -111.786545 
L 208.951391 -111.786545 
L 204.471985 -111.786545 
L 199.992579 -111.786545 
L 195.513173 -111.786545 
L 191.033766 -111.786545 
L 186.55436 -111.786545 
L 182.074954 -111.786545 
L 177.595547 -111.786545 
L 173.116141 -111.786545 
L 168.636735 -111.786545 
L 164.157328 -111.786545 
L 159.677922 -111.786545 
L 155.198516 -111.786545 
L 150.719109 -111.786545 
L 146.239703 -111.786545 
L 141.760297 -111.786545 
L 137.280891 -111.786545 
L 132.801484 -111.786545 
L 128.322078 -111.786545 
L 123.842672 -111.786545 
L 119.363265 -111.786545 
L 114.883859 -111.786545 
L 110.404453 -111.786545 
L 105.925046 -111.786545 
L 101.44564 -111.786545 
L 96.966234 -111.786545 
L 92.486827 -111.786545 
L 88.007421 -111.786545 
L 83.528015 -111.786545 
L 79.048609 -111.786545 
L 74.569202 -111.786545 
L 70.089796 -111.786545 
L 65.61039 -111.786545 
L 61.130983 -111.786545 
L 56.651577 -111.786545 
L 52.172171 -111.786545 
L 47.692764 -111.786545 
L 43.213358 -111.786545 
L 38.733952 -111.786545 
L 34.254545 -111.786545 
z
" id="maaf9e45d7d" style="stroke:#e69f00;stroke-opacity:0.3;"/>
    </defs>
    <g clip-path="url(#p9d27d78dfc)">
     <use style="fill:#e69f00;fill-opacity:0.3;stroke:#e69f00;stroke-opacity:0.3;" x="0" xlink:href="#maaf9e45d7d" y="288"/>
    </g>
   </g>
   <g id="PolyCollection_2">
    <defs>
     <path d="M 34.254545 -111.786545 
L 34.254545 -157.84934 
L 38.733952 -168.472532 
L 43.213358 -178.833337 
L 47.692764 -188.188931 
L 52.172171 -195.918951 
L 56.651577 -201.635472 
L 61.130983 -205.233374 
L 65.61039 -206.867867 
L 70.089796 -206.871013 
L 74.569202 -205.63837 
L 79.048609 -203.523005 
L 83.528015 -200.766332 
L 88.007421 -197.478838 
L 92.486827 -193.666278 
L 96.966234 -189.284433 
L 101.44564 -184.300595 
L 105.925046 -178.742088 
L 110.404453 -172.719271 
L 114.883859 -166.419803 
L 119.363265 -160.079731 
L 123.842672 -153.942822 
L 128.322078 -148.221173 
L 132.801484 -143.067399 
L 137.280891 -138.563343 
L 141.760297 -134.724329 
L 146.239703 -131.513829 
L 150.719109 -128.862045 
L 155.198516 -126.68311 
L 159.677922 -124.888328 
L 164.157328 -123.395239 
L 168.636735 -122.133497 
L 173.116141 -121.048314 
L 177.595547 -120.101425 
L 182.074954 -119.269251 
L 186.55436 -118.538553 
L 191.033766 -117.900912 
L 195.513173 -117.348006 
L 199.992579 -116.869274 
L 204.471985 -116.4523 
L 208.951391 -116.085013 
L 213.430798 -115.758069 
L 217.910204 -115.466016 
L 222.38961 -115.206662 
L 226.869017 -114.979021 
L 231.348423 -114.78089 
L 235.827829 -114.60716 
L 240.307236 -114.449651 
L 244.786642 -114.298572 
L 249.266048 -114.145066 
L 253.745455 -113.98388 
L 253.745455 -111.786545 
L 253.745455 -111.786545 
L 249.266048 -111.786545 
L 244.786642 -111.786545 
L 240.307236 -111.786545 
L 235.827829 -111.786545 
L 231.348423 -111.786545 
L 226.869017 -111.786545 
L 222.38961 -111.786545 
L 217.910204 -111.786545 
L 213.430798 -111.786545 
L 208.951391 -111.786545 
L 204.471985 -111.786545 
L 199.992579 -111.786545 
L 195.513173 -111.786545 
L 191.033766 -111.786545 
L 186.55436 -111.786545 
L 182.074954 -111.786545 
L 177.595547 -111.786545 
L 173.116141 -111.786545 
L 168.636735 -111.786545 
L 164.157328 -111.786545 
L 159.677922 -111.786545 
L 155.198516 -111.786545 
L 150.719109 -111.786545 
L 146.239703 -111.786545 
L 141.760297 -111.786545 
L 137.280891 -111.786545 
L 132.801484 -111.786545 
L 128.322078 -111.786545 
L 123.842672 -111.786545 
L 119.363265 -111.786545 
L 114.883859 -111.786545 
L 110.404453 -111.786545 
L 105.925046 -111.786545 
L 101.44564 -111.786545 
L 96.966234 -111.786545 
L 92.486827 -111.786545 
L 88.007421 -111.786545 
L 83.528015 -111.786545 
L 79.048609 -111.786545 
L 74.569202 -111.786545 
L 70.089796 -111.786545 
L 65.61039 -111.786545 
L 61.130983 -111.786545 
L 56.651577 -111.786545 
L 52.172171 -111.786545 
L 47.692764 -111.786545 
L 43.213358 -111.786545 
L 38.733952 -111.786545 
L 34.254545 -111.786545 
z
" id="m82975449cb" style="stroke:#424243;stroke-opacity:0.3;"/>
    </defs>
    <g clip-path="url(#p9d27d78dfc)">
     <use style="fill:#424243;fill-opacity:0.3;stroke:#424243;stroke-opacity:0.3;" x="0" xlink:href="#m82975449cb" y="288"/>
    </g>
   </g>
   <g id="matplotlib.axis_1">
    <g id="xtick_1">
     <g id="line2d_1">
      <defs>
       <path d="M 0 0 
L 0 3.5 
" id="m1c381ae6a0" style="stroke:#000000;stroke-width:0.8;"/>
      </defs>
      <g>
       <use style="stroke:#000000;stroke-width:0.8;" x="93.50072" xlink:href="#m1c381ae6a0" y="183.496"/>
      </g>
     </g>
     <g id="text_1">
      <!-- 0 -->
      <defs>
       <path d="M 31.78125 66.40625 
Q 24.171875 66.40625 20.328125 58.90625 
Q 16.5 51.421875 16.5 36.375 
Q 16.5 21.390625 20.328125 13.890625 
Q 24.171875 6.390625 31.78125 6.390625 
Q 39.453125 6.390625 43.28125 13.890625 
Q 47.125 21.390625 47.125 36.375 
Q 47.125 51.421875 43.28125 58.90625 
Q 39.453125 66.40625 31.78125 66.40625 
z
M 31.78125 74.21875 
Q 44.046875 74.21875 50.515625 64.515625 
Q 56.984375 54.828125 56.984375 36.375 
Q 56.984375 17.96875 50.515625 8.265625 
Q 44.046875 -1.421875 31.78125 -1.421875 
Q 19.53125 -1.421875 13.0625 8.265625 
Q 6.59375 17.96875 6.59375 36.375 
Q 6.59375 54.828125 13.0625 64.515625 
Q 19.53125 74.21875 31.78125 74.21875 
z
" id="DejaVuSans-30"/>
      </defs>
      <g transform="translate(87.13822 205.692875)scale(0.2 -0.2)">
       <use xlink:href="#DejaVuSans-30"/>
      </g>
     </g>
    </g>
    <g id="xtick_2">
     <g id="line2d_2">
      <g>
       <use style="stroke:#000000;stroke-width:0.8;" x="212.425934" xlink:href="#m1c381ae6a0" y="183.496"/>
      </g>
     </g>
     <g id="text_2">
      <!-- 2 -->
      <defs>
       <path d="M 19.1875 8.296875 
L 53.609375 8.296875 
L 53.609375 0 
L 7.328125 0 
L 7.328125 8.296875 
Q 12.9375 14.109375 22.625 23.890625 
Q 32.328125 33.6875 34.8125 36.53125 
Q 39.546875 41.84375 41.421875 45.53125 
Q 43.3125 49.21875 43.3125 52.78125 
Q 43.3125 58.59375 39.234375 62.25 
Q 35.15625 65.921875 28.609375 65.921875 
Q 23.96875 65.921875 18.8125 64.3125 
Q 13.671875 62.703125 7.8125 59.421875 
L 7.8125 69.390625 
Q 13.765625 71.78125 18.9375 73 
Q 24.125 74.21875 28.421875 74.21875 
Q 39.75 74.21875 46.484375 68.546875 
Q 53.21875 62.890625 53.21875 53.421875 
Q 53.21875 48.921875 51.53125 44.890625 
Q 49.859375 40.875 45.40625 35.40625 
Q 44.1875 33.984375 37.640625 27.21875 
Q 31.109375 20.453125 19.1875 8.296875 
z
" id="DejaVuSans-32"/>
      </defs>
      <g transform="translate(206.063434 205.692875)scale(0.2 -0.2)">
       <use xlink:href="#DejaVuSans-32"/>
      </g>
     </g>
    </g>
    <g id="text_3">
     <!-- temperature -->
     <defs>
      <path d="M 18.3125 70.21875 
L 18.3125 54.6875 
L 36.8125 54.6875 
L 36.8125 47.703125 
L 18.3125 47.703125 
L 18.3125 18.015625 
Q 18.3125 11.328125 20.140625 9.421875 
Q 21.96875 7.515625 27.59375 7.515625 
L 36.8125 7.515625 
L 36.8125 0 
L 27.59375 0 
Q 17.1875 0 13.234375 3.875 
Q 9.28125 7.765625 9.28125 18.015625 
L 9.28125 47.703125 
L 2.6875 47.703125 
L 2.6875 54.6875 
L 9.28125 54.6875 
L 9.28125 70.21875 
z
" id="DejaVuSans-74"/>
      <path d="M 56.203125 29.59375 
L 56.203125 25.203125 
L 14.890625 25.203125 
Q 15.484375 15.921875 20.484375 11.0625 
Q 25.484375 6.203125 34.421875 6.203125 
Q 39.59375 6.203125 44.453125 7.46875 
Q 49.3125 8.734375 54.109375 11.28125 
L 54.109375 2.78125 
Q 49.265625 0.734375 44.1875 -0.34375 
Q 39.109375 -1.421875 33.890625 -1.421875 
Q 20.796875 -1.421875 13.15625 6.1875 
Q 5.515625 13.8125 5.515625 26.8125 
Q 5.515625 40.234375 12.765625 48.109375 
Q 20.015625 56 32.328125 56 
Q 43.359375 56 49.78125 48.890625 
Q 56.203125 41.796875 56.203125 29.59375 
z
M 47.21875 32.234375 
Q 47.125 39.59375 43.09375 43.984375 
Q 39.0625 48.390625 32.421875 48.390625 
Q 24.90625 48.390625 20.390625 44.140625 
Q 15.875 39.890625 15.1875 32.171875 
z
" id="DejaVuSans-65"/>
      <path d="M 52 44.1875 
Q 55.375 50.25 60.0625 53.125 
Q 64.75 56 71.09375 56 
Q 79.640625 56 84.28125 50.015625 
Q 88.921875 44.046875 88.921875 33.015625 
L 88.921875 0 
L 79.890625 0 
L 79.890625 32.71875 
Q 79.890625 40.578125 77.09375 44.375 
Q 74.3125 48.1875 68.609375 48.1875 
Q 61.625 48.1875 57.5625 43.546875 
Q 53.515625 38.921875 53.515625 30.90625 
L 53.515625 0 
L 44.484375 0 
L 44.484375 32.71875 
Q 44.484375 40.625 41.703125 44.40625 
Q 38.921875 48.1875 33.109375 48.1875 
Q 26.21875 48.1875 22.15625 43.53125 
Q 18.109375 38.875 18.109375 30.90625 
L 18.109375 0 
L 9.078125 0 
L 9.078125 54.6875 
L 18.109375 54.6875 
L 18.109375 46.1875 
Q 21.1875 51.21875 25.484375 53.609375 
Q 29.78125 56 35.6875 56 
Q 41.65625 56 45.828125 52.96875 
Q 50 49.953125 52 44.1875 
z
" id="DejaVuSans-6d"/>
      <path d="M 18.109375 8.203125 
L 18.109375 -20.796875 
L 9.078125 -20.796875 
L 9.078125 54.6875 
L 18.109375 54.6875 
L 18.109375 46.390625 
Q 20.953125 51.265625 25.265625 53.625 
Q 29.59375 56 35.59375 56 
Q 45.5625 56 51.78125 48.09375 
Q 58.015625 40.1875 58.015625 27.296875 
Q 58.015625 14.40625 51.78125 6.484375 
Q 45.5625 -1.421875 35.59375 -1.421875 
Q 29.59375 -1.421875 25.265625 0.953125 
Q 20.953125 3.328125 18.109375 8.203125 
z
M 48.6875 27.296875 
Q 48.6875 37.203125 44.609375 42.84375 
Q 40.53125 48.484375 33.40625 48.484375 
Q 26.265625 48.484375 22.1875 42.84375 
Q 18.109375 37.203125 18.109375 27.296875 
Q 18.109375 17.390625 22.1875 11.75 
Q 26.265625 6.109375 33.40625 6.109375 
Q 40.53125 6.109375 44.609375 11.75 
Q 48.6875 17.390625 48.6875 27.296875 
z
" id="DejaVuSans-70"/>
      <path d="M 41.109375 46.296875 
Q 39.59375 47.171875 37.8125 47.578125 
Q 36.03125 48 33.890625 48 
Q 26.265625 48 22.1875 43.046875 
Q 18.109375 38.09375 18.109375 28.8125 
L 18.109375 0 
L 9.078125 0 
L 9.078125 54.6875 
L 18.109375 54.6875 
L 18.109375 46.1875 
Q 20.953125 51.171875 25.484375 53.578125 
Q 30.03125 56 36.53125 56 
Q 37.453125 56 38.578125 55.875 
Q 39.703125 55.765625 41.0625 55.515625 
z
" id="DejaVuSans-72"/>
      <path d="M 34.28125 27.484375 
Q 23.390625 27.484375 19.1875 25 
Q 14.984375 22.515625 14.984375 16.5 
Q 14.984375 11.71875 18.140625 8.90625 
Q 21.296875 6.109375 26.703125 6.109375 
Q 34.1875 6.109375 38.703125 11.40625 
Q 43.21875 16.703125 43.21875 25.484375 
L 43.21875 27.484375 
z
M 52.203125 31.203125 
L 52.203125 0 
L 43.21875 0 
L 43.21875 8.296875 
Q 40.140625 3.328125 35.546875 0.953125 
Q 30.953125 -1.421875 24.3125 -1.421875 
Q 15.921875 -1.421875 10.953125 3.296875 
Q 6 8.015625 6 15.921875 
Q 6 25.140625 12.171875 29.828125 
Q 18.359375 34.515625 30.609375 34.515625 
L 43.21875 34.515625 
L 43.21875 35.40625 
Q 43.21875 41.609375 39.140625 45 
Q 35.0625 48.390625 27.6875 48.390625 
Q 23 48.390625 18.546875 47.265625 
Q 14.109375 46.140625 10.015625 43.890625 
L 10.015625 52.203125 
Q 14.9375 54.109375 19.578125 55.046875 
Q 24.21875 56 28.609375 56 
Q 40.484375 56 46.34375 49.84375 
Q 52.203125 43.703125 52.203125 31.203125 
z
" id="DejaVuSans-61"/>
      <path d="M 8.5 21.578125 
L 8.5 54.6875 
L 17.484375 54.6875 
L 17.484375 21.921875 
Q 17.484375 14.15625 20.5 10.265625 
Q 23.53125 6.390625 29.59375 6.390625 
Q 36.859375 6.390625 41.078125 11.03125 
Q 45.3125 15.671875 45.3125 23.6875 
L 45.3125 54.6875 
L 54.296875 54.6875 
L 54.296875 0 
L 45.3125 0 
L 45.3125 8.40625 
Q 42.046875 3.421875 37.71875 1 
Q 33.40625 -1.421875 27.6875 -1.421875 
Q 18.265625 -1.421875 13.375 4.4375 
Q 8.5 10.296875 8.5 21.578125 
z
M 31.109375 56 
z
" id="DejaVuSans-75"/>
     </defs>
     <g transform="translate(65.158203 232.848344)scale(0.25 -0.25)">
      <use xlink:href="#DejaVuSans-74"/>
      <use x="39.208984" xlink:href="#DejaVuSans-65"/>
      <use x="100.732422" xlink:href="#DejaVuSans-6d"/>
      <use x="198.144531" xlink:href="#DejaVuSans-70"/>
      <use x="261.621094" xlink:href="#DejaVuSans-65"/>
      <use x="323.144531" xlink:href="#DejaVuSans-72"/>
      <use x="364.257812" xlink:href="#DejaVuSans-61"/>
      <use x="425.537109" xlink:href="#DejaVuSans-74"/>
      <use x="464.746094" xlink:href="#DejaVuSans-75"/>
      <use x="528.125" xlink:href="#DejaVuSans-72"/>
      <use x="569.207031" xlink:href="#DejaVuSans-65"/>
     </g>
     <!-- kurtosis -->
     <defs>
      <path d="M 9.078125 75.984375 
L 18.109375 75.984375 
L 18.109375 31.109375 
L 44.921875 54.6875 
L 56.390625 54.6875 
L 27.390625 29.109375 
L 57.625 0 
L 45.90625 0 
L 18.109375 26.703125 
L 18.109375 0 
L 9.078125 0 
z
" id="DejaVuSans-6b"/>
      <path d="M 30.609375 48.390625 
Q 23.390625 48.390625 19.1875 42.75 
Q 14.984375 37.109375 14.984375 27.296875 
Q 14.984375 17.484375 19.15625 11.84375 
Q 23.34375 6.203125 30.609375 6.203125 
Q 37.796875 6.203125 41.984375 11.859375 
Q 46.1875 17.53125 46.1875 27.296875 
Q 46.1875 37.015625 41.984375 42.703125 
Q 37.796875 48.390625 30.609375 48.390625 
z
M 30.609375 56 
Q 42.328125 56 49.015625 48.375 
Q 55.71875 40.765625 55.71875 27.296875 
Q 55.71875 13.875 49.015625 6.21875 
Q 42.328125 -1.421875 30.609375 -1.421875 
Q 18.84375 -1.421875 12.171875 6.21875 
Q 5.515625 13.875 5.515625 27.296875 
Q 5.515625 40.765625 12.171875 48.375 
Q 18.84375 56 30.609375 56 
z
" id="DejaVuSans-6f"/>
      <path d="M 44.28125 53.078125 
L 44.28125 44.578125 
Q 40.484375 46.53125 36.375 47.5 
Q 32.28125 48.484375 27.875 48.484375 
Q 21.1875 48.484375 17.84375 46.4375 
Q 14.5 44.390625 14.5 40.28125 
Q 14.5 37.15625 16.890625 35.375 
Q 19.28125 33.59375 26.515625 31.984375 
L 29.59375 31.296875 
Q 39.15625 29.25 43.1875 25.515625 
Q 47.21875 21.78125 47.21875 15.09375 
Q 47.21875 7.46875 41.1875 3.015625 
Q 35.15625 -1.421875 24.609375 -1.421875 
Q 20.21875 -1.421875 15.453125 -0.5625 
Q 10.6875 0.296875 5.421875 2 
L 5.421875 11.28125 
Q 10.40625 8.6875 15.234375 7.390625 
Q 20.0625 6.109375 24.8125 6.109375 
Q 31.15625 6.109375 34.5625 8.28125 
Q 37.984375 10.453125 37.984375 14.40625 
Q 37.984375 18.0625 35.515625 20.015625 
Q 33.0625 21.96875 24.703125 23.78125 
L 21.578125 24.515625 
Q 13.234375 26.265625 9.515625 29.90625 
Q 5.8125 33.546875 5.8125 39.890625 
Q 5.8125 47.609375 11.28125 51.796875 
Q 16.75 56 26.8125 56 
Q 31.78125 56 36.171875 55.265625 
Q 40.578125 54.546875 44.28125 53.078125 
z
" id="DejaVuSans-73"/>
      <path d="M 9.421875 54.6875 
L 18.40625 54.6875 
L 18.40625 0 
L 9.421875 0 
z
M 9.421875 75.984375 
L 18.40625 75.984375 
L 18.40625 64.59375 
L 9.421875 64.59375 
z
" id="DejaVuSans-69"/>
     </defs>
     <g transform="translate(94.662109 260.842875)scale(0.25 -0.25)">
      <use xlink:href="#DejaVuSans-6b"/>
      <use x="57.863281" xlink:href="#DejaVuSans-75"/>
      <use x="121.242188" xlink:href="#DejaVuSans-72"/>
      <use x="162.355469" xlink:href="#DejaVuSans-74"/>
      <use x="201.564453" xlink:href="#DejaVuSans-6f"/>
      <use x="262.746094" xlink:href="#DejaVuSans-73"/>
      <use x="314.845703" xlink:href="#DejaVuSans-69"/>
      <use x="342.628906" xlink:href="#DejaVuSans-73"/>
     </g>
    </g>
   </g>
   <g id="line2d_3">
    <path clip-path="url(#p9d27d78dfc)" d="M 34.254545 165.483196 
L 38.733952 158.738031 
L 43.213358 149.771699 
L 47.692764 138.589909 
L 52.172171 125.618107 
L 56.651577 111.679421 
L 61.130983 97.537409 
L 65.61039 83.447732 
L 70.089796 69.395491 
L 74.569202 55.884434 
L 79.048609 44.226584 
L 83.528015 35.804222 
L 88.007421 31.241786 
L 92.486827 30.562545 
L 96.966234 33.964271 
L 101.44564 42.056207 
L 105.925046 55.202168 
L 110.404453 72.684973 
L 114.883859 92.542905 
L 119.363265 112.244941 
L 123.842672 129.649142 
L 128.322078 143.575201 
L 132.801484 153.819311 
L 137.280891 160.870265 
L 141.760297 165.538252 
L 146.239703 168.583392 
L 150.719109 170.504994 
L 155.198516 171.60291 
L 159.677922 172.151283 
L 164.157328 172.439228 
L 168.636735 172.6795 
L 173.116141 172.96387 
L 177.595547 173.313873 
L 182.074954 173.727582 
L 186.55436 174.181902 
L 191.033766 174.634334 
L 195.513173 175.040188 
L 199.992579 175.366545 
L 204.471985 175.596966 
L 208.951391 175.732049 
L 213.430798 175.787135 
L 217.910204 175.783462 
L 222.38961 175.736223 
L 226.869017 175.654222 
L 231.348423 175.552228 
L 235.827829 175.459256 
L 240.307236 175.4135 
L 244.786642 175.443694 
L 249.266048 175.545026 
L 253.745455 175.674713 
" style="fill:none;stroke:#e69f00;stroke-linecap:square;stroke-width:2;"/>
   </g>
   <g id="line2d_4">
    <path clip-path="url(#p9d27d78dfc)" d="M 34.254545 130.15066 
L 38.733952 119.527468 
L 43.213358 109.166663 
L 47.692764 99.811069 
L 52.172171 92.081049 
L 56.651577 86.364528 
L 61.130983 82.766626 
L 65.61039 81.132133 
L 70.089796 81.128987 
L 74.569202 82.36163 
L 79.048609 84.476995 
L 83.528015 87.233668 
L 88.007421 90.521162 
L 92.486827 94.333722 
L 96.966234 98.715567 
L 101.44564 103.699405 
L 105.925046 109.257912 
L 110.404453 115.280729 
L 114.883859 121.580197 
L 119.363265 127.920269 
L 123.842672 134.057178 
L 128.322078 139.778827 
L 132.801484 144.932601 
L 137.280891 149.436657 
L 141.760297 153.275671 
L 146.239703 156.486171 
L 150.719109 159.137955 
L 155.198516 161.31689 
L 159.677922 163.111672 
L 164.157328 164.604761 
L 168.636735 165.866503 
L 173.116141 166.951686 
L 177.595547 167.898575 
L 182.074954 168.730749 
L 186.55436 169.461447 
L 191.033766 170.099088 
L 195.513173 170.651994 
L 199.992579 171.130726 
L 204.471985 171.5477 
L 208.951391 171.914987 
L 213.430798 172.241931 
L 217.910204 172.533984 
L 222.38961 172.793338 
L 226.869017 173.020979 
L 231.348423 173.21911 
L 235.827829 173.39284 
L 240.307236 173.550349 
L 244.786642 173.701428 
L 249.266048 173.854934 
L 253.745455 174.01612 
" style="fill:none;stroke:#424243;stroke-linecap:square;stroke-width:2;"/>
   </g>
   <g id="patch_3">
    <path d="M 23.28 183.496 
L 264.72 183.496 
" style="fill:none;stroke:#000000;stroke-linecap:square;stroke-linejoin:miter;stroke-width:0.8;"/>
   </g>
  </g>
 </g>
 <defs>
  <clipPath id="p9d27d78dfc">
   <rect height="160.216" width="241.44" x="23.28" y="23.28"/>
  </clipPath>
 </defs>
</svg>
