<?xml version="1.0" encoding="utf-8" standalone="no"?>
<!DOCTYPE svg PUBLIC "-//W3C//DTD SVG 1.1//EN"
  "http://www.w3.org/Graphics/SVG/1.1/DTD/svg11.dtd">
<!-- Created with matplotlib (http://matplotlib.org/) -->
<svg height="288pt" version="1.1" viewBox="0 0 288 288" width="288pt" xmlns="http://www.w3.org/2000/svg" xmlns:xlink="http://www.w3.org/1999/xlink">
 <defs>
  <style type="text/css">
*{stroke-linecap:butt;stroke-linejoin:round;}
  </style>
 </defs>
 <g id="figure_1">
  <g id="patch_1">
   <path d="M 0 288 
L 288 288 
L 288 0 
L 0 0 
z
" style="fill:#ffffff;"/>
  </g>
  <g id="axes_1">
   <g id="patch_2">
    <path d="M 44.31625 183.496 
L 243.68375 183.496 
L 243.68375 23.28 
L 44.31625 23.28 
z
" style="fill:#ffffff;"/>
   </g>
   <g id="PolyCollection_1">
    <defs>
     <path d="M 53.378409 -111.786545 
L 53.378409 -165.417159 
L 57.07725 -188.621993 
L 60.77609 -212.677622 
L 64.47493 -234.302005 
L 68.173771 -250.102993 
L 71.872611 -257.437455 
L 75.571452 -255.227501 
L 79.270292 -244.300665 
L 82.969133 -227.097382 
L 86.667973 -206.899555 
L 90.366814 -186.865557 
L 94.065654 -169.225061 
L 97.764494 -154.968247 
L 101.463335 -144.092531 
L 105.162175 -136.107924 
L 108.861016 -130.422546 
L 112.559856 -126.46905 
L 116.258697 -123.695626 
L 119.957537 -121.603432 
L 123.656378 -119.868296 
L 127.355218 -118.420424 
L 131.054058 -117.365566 
L 134.752899 -116.79818 
L 138.451739 -116.669397 
L 142.15058 -116.802347 
L 145.84942 -116.999936 
L 149.548261 -117.134187 
L 153.247101 -117.166234 
L 156.945942 -117.120063 
L 160.644782 -117.045758 
L 164.343622 -116.983326 
L 168.042463 -116.934703 
L 171.741303 -116.867813 
L 175.440144 -116.757414 
L 179.138984 -116.616718 
L 182.837825 -116.477776 
L 186.536665 -116.350365 
L 190.235506 -116.217712 
L 193.934346 -116.068191 
L 197.633186 -115.914471 
L 201.332027 -115.779413 
L 205.030867 -115.672892 
L 208.729708 -115.58468 
L 212.428548 -115.493046 
L 216.127389 -115.377685 
L 219.826229 -115.229229 
L 223.52507 -115.047133 
L 227.22391 -114.822949 
L 230.92275 -114.528252 
L 234.621591 -114.133879 
L 234.621591 -111.786545 
L 234.621591 -111.786545 
L 230.92275 -111.786545 
L 227.22391 -111.786545 
L 223.52507 -111.786545 
L 219.826229 -111.786545 
L 216.127389 -111.786545 
L 212.428548 -111.786545 
L 208.729708 -111.786545 
L 205.030867 -111.786545 
L 201.332027 -111.786545 
L 197.633186 -111.786545 
L 193.934346 -111.786545 
L 190.235506 -111.786545 
L 186.536665 -111.786545 
L 182.837825 -111.786545 
L 179.138984 -111.786545 
L 175.440144 -111.786545 
L 171.741303 -111.786545 
L 168.042463 -111.786545 
L 164.343622 -111.786545 
L 160.644782 -111.786545 
L 156.945942 -111.786545 
L 153.247101 -111.786545 
L 149.548261 -111.786545 
L 145.84942 -111.786545 
L 142.15058 -111.786545 
L 138.451739 -111.786545 
L 134.752899 -111.786545 
L 131.054058 -111.786545 
L 127.355218 -111.786545 
L 123.656378 -111.786545 
L 119.957537 -111.786545 
L 116.258697 -111.786545 
L 112.559856 -111.786545 
L 108.861016 -111.786545 
L 105.162175 -111.786545 
L 101.463335 -111.786545 
L 97.764494 -111.786545 
L 94.065654 -111.786545 
L 90.366814 -111.786545 
L 86.667973 -111.786545 
L 82.969133 -111.786545 
L 79.270292 -111.786545 
L 75.571452 -111.786545 
L 71.872611 -111.786545 
L 68.173771 -111.786545 
L 64.47493 -111.786545 
L 60.77609 -111.786545 
L 57.07725 -111.786545 
L 53.378409 -111.786545 
z
" id="mdf1e805c63" style="stroke:#e69f00;stroke-opacity:0.3;"/>
    </defs>
    <g clip-path="url(#p5c46ea7e93)">
     <use style="fill:#e69f00;fill-opacity:0.3;stroke:#e69f00;stroke-opacity:0.3;" x="0" xlink:href="#mdf1e805c63" y="288"/>
    </g>
   </g>
   <g id="PolyCollection_2">
    <defs>
     <path d="M 53.378409 -111.786545 
L 53.378409 -191.879781 
L 57.07725 -205.076257 
L 60.77609 -214.06477 
L 64.47493 -217.993048 
L 68.173771 -216.943726 
L 71.872611 -211.746088 
L 75.571452 -203.625565 
L 79.270292 -193.859131 
L 82.969133 -183.543234 
L 86.667973 -173.493997 
L 90.366814 -164.2427 
L 94.065654 -156.077604 
L 97.764494 -149.098584 
L 101.463335 -143.270755 
L 105.162175 -138.474452 
L 108.861016 -134.550634 
L 112.559856 -131.33848 
L 116.258697 -128.700522 
L 119.957537 -126.532465 
L 123.656378 -124.759194 
L 127.355218 -123.32303 
L 131.054058 -122.172154 
L 134.752899 -121.255025 
L 138.451739 -120.521608 
L 142.15058 -119.92789 
L 145.84942 -119.439204 
L 149.548261 -119.030483 
L 153.247101 -118.68475 
L 156.945942 -118.392092 
L 160.644782 -118.149773 
L 164.343622 -117.962181 
L 168.042463 -117.839261 
L 171.741303 -117.793545 
L 175.440144 -117.837013 
L 179.138984 -117.978365 
L 182.837825 -118.219975 
L 186.536665 -118.553804 
L 190.235506 -118.957325 
L 193.934346 -119.392445 
L 197.633186 -119.810014 
L 201.332027 -120.159536 
L 205.030867 -120.400271 
L 208.729708 -120.508641 
L 212.428548 -120.478892 
L 216.127389 -120.317723 
L 219.826229 -120.036601 
L 223.52507 -119.646176 
L 227.22391 -119.155453 
L 230.92275 -118.57554 
L 234.621591 -117.925061 
L 234.621591 -111.786545 
L 234.621591 -111.786545 
L 230.92275 -111.786545 
L 227.22391 -111.786545 
L 223.52507 -111.786545 
L 219.826229 -111.786545 
L 216.127389 -111.786545 
L 212.428548 -111.786545 
L 208.729708 -111.786545 
L 205.030867 -111.786545 
L 201.332027 -111.786545 
L 197.633186 -111.786545 
L 193.934346 -111.786545 
L 190.235506 -111.786545 
L 186.536665 -111.786545 
L 182.837825 -111.786545 
L 179.138984 -111.786545 
L 175.440144 -111.786545 
L 171.741303 -111.786545 
L 168.042463 -111.786545 
L 164.343622 -111.786545 
L 160.644782 -111.786545 
L 156.945942 -111.786545 
L 153.247101 -111.786545 
L 149.548261 -111.786545 
L 145.84942 -111.786545 
L 142.15058 -111.786545 
L 138.451739 -111.786545 
L 134.752899 -111.786545 
L 131.054058 -111.786545 
L 127.355218 -111.786545 
L 123.656378 -111.786545 
L 119.957537 -111.786545 
L 116.258697 -111.786545 
L 112.559856 -111.786545 
L 108.861016 -111.786545 
L 105.162175 -111.786545 
L 101.463335 -111.786545 
L 97.764494 -111.786545 
L 94.065654 -111.786545 
L 90.366814 -111.786545 
L 86.667973 -111.786545 
L 82.969133 -111.786545 
L 79.270292 -111.786545 
L 75.571452 -111.786545 
L 71.872611 -111.786545 
L 68.173771 -111.786545 
L 64.47493 -111.786545 
L 60.77609 -111.786545 
L 57.07725 -111.786545 
L 53.378409 -111.786545 
z
" id="m7b6ba45766" style="stroke:#424243;stroke-opacity:0.3;"/>
    </defs>
    <g clip-path="url(#p5c46ea7e93)">
     <use style="fill:#424243;fill-opacity:0.3;stroke:#424243;stroke-opacity:0.3;" x="0" xlink:href="#m7b6ba45766" y="288"/>
    </g>
   </g>
   <g id="matplotlib.axis_1">
    <g id="xtick_1">
     <g id="line2d_1">
      <defs>
       <path d="M 0 0 
L 0 3.5 
" id="m4090d90a75" style="stroke:#000000;stroke-width:0.8;"/>
      </defs>
      <g>
       <use style="stroke:#000000;stroke-width:0.8;" x="53.378409" xlink:href="#m4090d90a75" y="183.496"/>
      </g>
     </g>
     <g id="text_1">
      <!-- 0 -->
      <defs>
       <path d="M 31.78125 66.40625 
Q 24.171875 66.40625 20.328125 58.90625 
Q 16.5 51.421875 16.5 36.375 
Q 16.5 21.390625 20.328125 13.890625 
Q 24.171875 6.390625 31.78125 6.390625 
Q 39.453125 6.390625 43.28125 13.890625 
Q 47.125 21.390625 47.125 36.375 
Q 47.125 51.421875 43.28125 58.90625 
Q 39.453125 66.40625 31.78125 66.40625 
z
M 31.78125 74.21875 
Q 44.046875 74.21875 50.515625 64.515625 
Q 56.984375 54.828125 56.984375 36.375 
Q 56.984375 17.96875 50.515625 8.265625 
Q 44.046875 -1.421875 31.78125 -1.421875 
Q 19.53125 -1.421875 13.0625 8.265625 
Q 6.59375 17.96875 6.59375 36.375 
Q 6.59375 54.828125 13.0625 64.515625 
Q 19.53125 74.21875 31.78125 74.21875 
z
" id="DejaVuSans-30"/>
      </defs>
      <g transform="translate(47.015909 205.692875)scale(0.2 -0.2)">
       <use xlink:href="#DejaVuSans-30"/>
      </g>
     </g>
    </g>
    <g id="xtick_2">
     <g id="line2d_2">
      <g>
       <use style="stroke:#000000;stroke-width:0.8;" x="123.730947" xlink:href="#m4090d90a75" y="183.496"/>
      </g>
     </g>
     <g id="text_2">
      <!-- 200 -->
      <defs>
       <path d="M 19.1875 8.296875 
L 53.609375 8.296875 
L 53.609375 0 
L 7.328125 0 
L 7.328125 8.296875 
Q 12.9375 14.109375 22.625 23.890625 
Q 32.328125 33.6875 34.8125 36.53125 
Q 39.546875 41.84375 41.421875 45.53125 
Q 43.3125 49.21875 43.3125 52.78125 
Q 43.3125 58.59375 39.234375 62.25 
Q 35.15625 65.921875 28.609375 65.921875 
Q 23.96875 65.921875 18.8125 64.3125 
Q 13.671875 62.703125 7.8125 59.421875 
L 7.8125 69.390625 
Q 13.765625 71.78125 18.9375 73 
Q 24.125 74.21875 28.421875 74.21875 
Q 39.75 74.21875 46.484375 68.546875 
Q 53.21875 62.890625 53.21875 53.421875 
Q 53.21875 48.921875 51.53125 44.890625 
Q 49.859375 40.875 45.40625 35.40625 
Q 44.1875 33.984375 37.640625 27.21875 
Q 31.109375 20.453125 19.1875 8.296875 
z
" id="DejaVuSans-32"/>
      </defs>
      <g transform="translate(104.643447 205.692875)scale(0.2 -0.2)">
       <use xlink:href="#DejaVuSans-32"/>
       <use x="63.623047" xlink:href="#DejaVuSans-30"/>
       <use x="127.246094" xlink:href="#DejaVuSans-30"/>
      </g>
     </g>
    </g>
    <g id="xtick_3">
     <g id="line2d_3">
      <g>
       <use style="stroke:#000000;stroke-width:0.8;" x="194.083485" xlink:href="#m4090d90a75" y="183.496"/>
      </g>
     </g>
     <g id="text_3">
      <!-- 400 -->
      <defs>
       <path d="M 37.796875 64.3125 
L 12.890625 25.390625 
L 37.796875 25.390625 
z
M 35.203125 72.90625 
L 47.609375 72.90625 
L 47.609375 25.390625 
L 58.015625 25.390625 
L 58.015625 17.1875 
L 47.609375 17.1875 
L 47.609375 0 
L 37.796875 0 
L 37.796875 17.1875 
L 4.890625 17.1875 
L 4.890625 26.703125 
z
" id="DejaVuSans-34"/>
      </defs>
      <g transform="translate(174.995985 205.692875)scale(0.2 -0.2)">
       <use xlink:href="#DejaVuSans-34"/>
       <use x="63.623047" xlink:href="#DejaVuSans-30"/>
       <use x="127.246094" xlink:href="#DejaVuSans-30"/>
      </g>
     </g>
    </g>
    <g id="text_4">
     <!-- leaf area index -->
     <defs>
      <path d="M 9.421875 75.984375 
L 18.40625 75.984375 
L 18.40625 0 
L 9.421875 0 
z
" id="DejaVuSans-6c"/>
      <path d="M 56.203125 29.59375 
L 56.203125 25.203125 
L 14.890625 25.203125 
Q 15.484375 15.921875 20.484375 11.0625 
Q 25.484375 6.203125 34.421875 6.203125 
Q 39.59375 6.203125 44.453125 7.46875 
Q 49.3125 8.734375 54.109375 11.28125 
L 54.109375 2.78125 
Q 49.265625 0.734375 44.1875 -0.34375 
Q 39.109375 -1.421875 33.890625 -1.421875 
Q 20.796875 -1.421875 13.15625 6.1875 
Q 5.515625 13.8125 5.515625 26.8125 
Q 5.515625 40.234375 12.765625 48.109375 
Q 20.015625 56 32.328125 56 
Q 43.359375 56 49.78125 48.890625 
Q 56.203125 41.796875 56.203125 29.59375 
z
M 47.21875 32.234375 
Q 47.125 39.59375 43.09375 43.984375 
Q 39.0625 48.390625 32.421875 48.390625 
Q 24.90625 48.390625 20.390625 44.140625 
Q 15.875 39.890625 15.1875 32.171875 
z
" id="DejaVuSans-65"/>
      <path d="M 34.28125 27.484375 
Q 23.390625 27.484375 19.1875 25 
Q 14.984375 22.515625 14.984375 16.5 
Q 14.984375 11.71875 18.140625 8.90625 
Q 21.296875 6.109375 26.703125 6.109375 
Q 34.1875 6.109375 38.703125 11.40625 
Q 43.21875 16.703125 43.21875 25.484375 
L 43.21875 27.484375 
z
M 52.203125 31.203125 
L 52.203125 0 
L 43.21875 0 
L 43.21875 8.296875 
Q 40.140625 3.328125 35.546875 0.953125 
Q 30.953125 -1.421875 24.3125 -1.421875 
Q 15.921875 -1.421875 10.953125 3.296875 
Q 6 8.015625 6 15.921875 
Q 6 25.140625 12.171875 29.828125 
Q 18.359375 34.515625 30.609375 34.515625 
L 43.21875 34.515625 
L 43.21875 35.40625 
Q 43.21875 41.609375 39.140625 45 
Q 35.0625 48.390625 27.6875 48.390625 
Q 23 48.390625 18.546875 47.265625 
Q 14.109375 46.140625 10.015625 43.890625 
L 10.015625 52.203125 
Q 14.9375 54.109375 19.578125 55.046875 
Q 24.21875 56 28.609375 56 
Q 40.484375 56 46.34375 49.84375 
Q 52.203125 43.703125 52.203125 31.203125 
z
" id="DejaVuSans-61"/>
      <path d="M 37.109375 75.984375 
L 37.109375 68.5 
L 28.515625 68.5 
Q 23.6875 68.5 21.796875 66.546875 
Q 19.921875 64.59375 19.921875 59.515625 
L 19.921875 54.6875 
L 34.71875 54.6875 
L 34.71875 47.703125 
L 19.921875 47.703125 
L 19.921875 0 
L 10.890625 0 
L 10.890625 47.703125 
L 2.296875 47.703125 
L 2.296875 54.6875 
L 10.890625 54.6875 
L 10.890625 58.5 
Q 10.890625 67.625 15.140625 71.796875 
Q 19.390625 75.984375 28.609375 75.984375 
z
" id="DejaVuSans-66"/>
      <path id="DejaVuSans-20"/>
      <path d="M 41.109375 46.296875 
Q 39.59375 47.171875 37.8125 47.578125 
Q 36.03125 48 33.890625 48 
Q 26.265625 48 22.1875 43.046875 
Q 18.109375 38.09375 18.109375 28.8125 
L 18.109375 0 
L 9.078125 0 
L 9.078125 54.6875 
L 18.109375 54.6875 
L 18.109375 46.1875 
Q 20.953125 51.171875 25.484375 53.578125 
Q 30.03125 56 36.53125 56 
Q 37.453125 56 38.578125 55.875 
Q 39.703125 55.765625 41.0625 55.515625 
z
" id="DejaVuSans-72"/>
      <path d="M 9.421875 54.6875 
L 18.40625 54.6875 
L 18.40625 0 
L 9.421875 0 
z
M 9.421875 75.984375 
L 18.40625 75.984375 
L 18.40625 64.59375 
L 9.421875 64.59375 
z
" id="DejaVuSans-69"/>
      <path d="M 54.890625 33.015625 
L 54.890625 0 
L 45.90625 0 
L 45.90625 32.71875 
Q 45.90625 40.484375 42.875 44.328125 
Q 39.84375 48.1875 33.796875 48.1875 
Q 26.515625 48.1875 22.3125 43.546875 
Q 18.109375 38.921875 18.109375 30.90625 
L 18.109375 0 
L 9.078125 0 
L 9.078125 54.6875 
L 18.109375 54.6875 
L 18.109375 46.1875 
Q 21.34375 51.125 25.703125 53.5625 
Q 30.078125 56 35.796875 56 
Q 45.21875 56 50.046875 50.171875 
Q 54.890625 44.34375 54.890625 33.015625 
z
" id="DejaVuSans-6e"/>
      <path d="M 45.40625 46.390625 
L 45.40625 75.984375 
L 54.390625 75.984375 
L 54.390625 0 
L 45.40625 0 
L 45.40625 8.203125 
Q 42.578125 3.328125 38.25 0.953125 
Q 33.9375 -1.421875 27.875 -1.421875 
Q 17.96875 -1.421875 11.734375 6.484375 
Q 5.515625 14.40625 5.515625 27.296875 
Q 5.515625 40.1875 11.734375 48.09375 
Q 17.96875 56 27.875 56 
Q 33.9375 56 38.25 53.625 
Q 42.578125 51.265625 45.40625 46.390625 
z
M 14.796875 27.296875 
Q 14.796875 17.390625 18.875 11.75 
Q 22.953125 6.109375 30.078125 6.109375 
Q 37.203125 6.109375 41.296875 11.75 
Q 45.40625 17.390625 45.40625 27.296875 
Q 45.40625 37.203125 41.296875 42.84375 
Q 37.203125 48.484375 30.078125 48.484375 
Q 22.953125 48.484375 18.875 42.84375 
Q 14.796875 37.203125 14.796875 27.296875 
z
" id="DejaVuSans-64"/>
      <path d="M 54.890625 54.6875 
L 35.109375 28.078125 
L 55.90625 0 
L 45.3125 0 
L 29.390625 21.484375 
L 13.484375 0 
L 2.875 0 
L 24.125 28.609375 
L 4.6875 54.6875 
L 15.28125 54.6875 
L 29.78125 35.203125 
L 44.28125 54.6875 
z
" id="DejaVuSans-78"/>
     </defs>
     <g transform="translate(50.265625 232.848344)scale(0.25 -0.25)">
      <use xlink:href="#DejaVuSans-6c"/>
      <use x="27.783203" xlink:href="#DejaVuSans-65"/>
      <use x="89.306641" xlink:href="#DejaVuSans-61"/>
      <use x="150.585938" xlink:href="#DejaVuSans-66"/>
      <use x="185.791016" xlink:href="#DejaVuSans-20"/>
      <use x="217.578125" xlink:href="#DejaVuSans-61"/>
      <use x="278.857422" xlink:href="#DejaVuSans-72"/>
      <use x="319.939453" xlink:href="#DejaVuSans-65"/>
      <use x="381.462891" xlink:href="#DejaVuSans-61"/>
      <use x="442.742188" xlink:href="#DejaVuSans-20"/>
      <use x="474.529297" xlink:href="#DejaVuSans-69"/>
      <use x="502.3125" xlink:href="#DejaVuSans-6e"/>
      <use x="565.691406" xlink:href="#DejaVuSans-64"/>
      <use x="629.167969" xlink:href="#DejaVuSans-65"/>
      <use x="690.675781" xlink:href="#DejaVuSans-78"/>
     </g>
     <!-- variance -->
     <defs>
      <path d="M 2.984375 54.6875 
L 12.5 54.6875 
L 29.59375 8.796875 
L 46.6875 54.6875 
L 56.203125 54.6875 
L 35.6875 0 
L 23.484375 0 
z
" id="DejaVuSans-76"/>
      <path d="M 48.78125 52.59375 
L 48.78125 44.1875 
Q 44.96875 46.296875 41.140625 47.34375 
Q 37.3125 48.390625 33.40625 48.390625 
Q 24.65625 48.390625 19.8125 42.84375 
Q 14.984375 37.3125 14.984375 27.296875 
Q 14.984375 17.28125 19.8125 11.734375 
Q 24.65625 6.203125 33.40625 6.203125 
Q 37.3125 6.203125 41.140625 7.25 
Q 44.96875 8.296875 48.78125 10.40625 
L 48.78125 2.09375 
Q 45.015625 0.34375 40.984375 -0.53125 
Q 36.96875 -1.421875 32.421875 -1.421875 
Q 20.0625 -1.421875 12.78125 6.34375 
Q 5.515625 14.109375 5.515625 27.296875 
Q 5.515625 40.671875 12.859375 48.328125 
Q 20.21875 56 33.015625 56 
Q 37.15625 56 41.109375 55.140625 
Q 45.0625 54.296875 48.78125 52.59375 
z
" id="DejaVuSans-63"/>
     </defs>
     <g transform="translate(90.183594 260.842875)scale(0.25 -0.25)">
      <use xlink:href="#DejaVuSans-76"/>
      <use x="59.179688" xlink:href="#DejaVuSans-61"/>
      <use x="120.458984" xlink:href="#DejaVuSans-72"/>
      <use x="161.572266" xlink:href="#DejaVuSans-69"/>
      <use x="189.355469" xlink:href="#DejaVuSans-61"/>
      <use x="250.634766" xlink:href="#DejaVuSans-6e"/>
      <use x="314.013672" xlink:href="#DejaVuSans-63"/>
      <use x="368.994141" xlink:href="#DejaVuSans-65"/>
     </g>
    </g>
   </g>
   <g id="line2d_4">
    <path clip-path="url(#p5c46ea7e93)" d="M 53.378409 122.582841 
L 57.07725 99.378007 
L 60.77609 75.322378 
L 64.47493 53.697995 
L 68.173771 37.897007 
L 71.872611 30.562545 
L 75.571452 32.772499 
L 79.270292 43.699335 
L 82.969133 60.902618 
L 86.667973 81.100445 
L 90.366814 101.134443 
L 94.065654 118.774939 
L 97.764494 133.031753 
L 101.463335 143.907469 
L 105.162175 151.892076 
L 108.861016 157.577454 
L 112.559856 161.53095 
L 116.258697 164.304374 
L 119.957537 166.396568 
L 123.656378 168.131704 
L 127.355218 169.579576 
L 131.054058 170.634434 
L 134.752899 171.20182 
L 138.451739 171.330603 
L 142.15058 171.197653 
L 145.84942 171.000064 
L 149.548261 170.865813 
L 153.247101 170.833766 
L 156.945942 170.879937 
L 160.644782 170.954242 
L 164.343622 171.016674 
L 168.042463 171.065297 
L 171.741303 171.132187 
L 175.440144 171.242586 
L 179.138984 171.383282 
L 182.837825 171.522224 
L 186.536665 171.649635 
L 190.235506 171.782288 
L 193.934346 171.931809 
L 197.633186 172.085529 
L 201.332027 172.220587 
L 205.030867 172.327108 
L 208.729708 172.41532 
L 212.428548 172.506954 
L 216.127389 172.622315 
L 219.826229 172.770771 
L 223.52507 172.952867 
L 227.22391 173.177051 
L 230.92275 173.471748 
L 234.621591 173.866121 
" style="fill:none;stroke:#e69f00;stroke-linecap:square;stroke-width:2;"/>
   </g>
   <g id="line2d_5">
    <path clip-path="url(#p5c46ea7e93)" d="M 53.378409 96.120219 
L 57.07725 82.923743 
L 60.77609 73.93523 
L 64.47493 70.006952 
L 68.173771 71.056274 
L 71.872611 76.253912 
L 75.571452 84.374435 
L 79.270292 94.140869 
L 82.969133 104.456766 
L 86.667973 114.506003 
L 90.366814 123.7573 
L 94.065654 131.922396 
L 97.764494 138.901416 
L 101.463335 144.729245 
L 105.162175 149.525548 
L 108.861016 153.449366 
L 112.559856 156.66152 
L 116.258697 159.299478 
L 119.957537 161.467535 
L 123.656378 163.240806 
L 127.355218 164.67697 
L 131.054058 165.827846 
L 134.752899 166.744975 
L 138.451739 167.478392 
L 142.15058 168.07211 
L 145.84942 168.560796 
L 149.548261 168.969517 
L 153.247101 169.31525 
L 156.945942 169.607908 
L 160.644782 169.850227 
L 164.343622 170.037819 
L 168.042463 170.160739 
L 171.741303 170.206455 
L 175.440144 170.162987 
L 179.138984 170.021635 
L 182.837825 169.780025 
L 186.536665 169.446196 
L 190.235506 169.042675 
L 193.934346 168.607555 
L 197.633186 168.189986 
L 201.332027 167.840464 
L 205.030867 167.599729 
L 208.729708 167.491359 
L 212.428548 167.521108 
L 216.127389 167.682277 
L 219.826229 167.963399 
L 223.52507 168.353824 
L 227.22391 168.844547 
L 230.92275 169.42446 
L 234.621591 170.074939 
" style="fill:none;stroke:#424243;stroke-linecap:square;stroke-width:2;"/>
   </g>
   <g id="patch_3">
    <path d="M 44.31625 183.496 
L 243.68375 183.496 
" style="fill:none;stroke:#000000;stroke-linecap:square;stroke-linejoin:miter;stroke-width:0.8;"/>
   </g>
  </g>
 </g>
 <defs>
  <clipPath id="p5c46ea7e93">
   <rect height="160.216" width="199.3675" x="44.31625" y="23.28"/>
  </clipPath>
 </defs>
</svg>
