<?xml version="1.0" encoding="utf-8" standalone="no"?>
<!DOCTYPE svg PUBLIC "-//W3C//DTD SVG 1.1//EN"
  "http://www.w3.org/Graphics/SVG/1.1/DTD/svg11.dtd">
<!-- Created with matplotlib (http://matplotlib.org/) -->
<svg height="288pt" version="1.1" viewBox="0 0 288 288" width="288pt" xmlns="http://www.w3.org/2000/svg" xmlns:xlink="http://www.w3.org/1999/xlink">
 <defs>
  <style type="text/css">
*{stroke-linecap:butt;stroke-linejoin:round;}
  </style>
 </defs>
 <g id="figure_1">
  <g id="patch_1">
   <path d="M 0 288 
L 288 288 
L 288 0 
L 0 0 
z
" style="fill:#ffffff;"/>
  </g>
  <g id="axes_1">
   <g id="patch_2">
    <path d="M 26.783594 183.67 
L 261.216406 183.67 
L 261.216406 23.175 
L 26.783594 23.175 
z
" style="fill:#ffffff;"/>
   </g>
   <g id="PolyCollection_1">
    <defs>
     <path d="M 37.439631 -111.625227 
L 37.439631 -191.335123 
L 41.789034 -199.310417 
L 46.138436 -181.648412 
L 50.487839 -156.849961 
L 54.837242 -139.082475 
L 59.186645 -129.467926 
L 63.536048 -124.518943 
L 67.88545 -121.637003 
L 72.234853 -119.737385 
L 76.584256 -118.531304 
L 80.933659 -117.742763 
L 85.283062 -116.998995 
L 89.632465 -116.175187 
L 93.981867 -115.449163 
L 98.33127 -114.932253 
L 102.680673 -114.491751 
L 107.030076 -114.037087 
L 111.379479 -113.650758 
L 115.728882 -113.391261 
L 120.078284 -113.221712 
L 124.427687 -113.087377 
L 128.77709 -112.957859 
L 133.126493 -112.823573 
L 137.475896 -112.68687 
L 141.825299 -112.562153 
L 146.174701 -112.431953 
L 150.524104 -112.275946 
L 154.873507 -112.149884 
L 159.22291 -112.104718 
L 163.572313 -112.098292 
L 167.921716 -112.064843 
L 172.271118 -111.990169 
L 176.620521 -111.900888 
L 180.969924 -111.830368 
L 185.319327 -111.791324 
L 189.66873 -111.774288 
L 194.018133 -111.773842 
L 198.367535 -111.797607 
L 202.716938 -111.849725 
L 207.066341 -111.905913 
L 211.415744 -111.914237 
L 215.765147 -111.856976 
L 220.11455 -111.785087 
L 224.463952 -111.758941 
L 228.813355 -111.787044 
L 233.162758 -111.825822 
L 237.512161 -111.825626 
L 241.861564 -111.783698 
L 246.210966 -111.744008 
L 250.560369 -111.732942 
L 250.560369 -111.625227 
L 250.560369 -111.625227 
L 246.210966 -111.625227 
L 241.861564 -111.625227 
L 237.512161 -111.625227 
L 233.162758 -111.625227 
L 228.813355 -111.625227 
L 224.463952 -111.625227 
L 220.11455 -111.625227 
L 215.765147 -111.625227 
L 211.415744 -111.625227 
L 207.066341 -111.625227 
L 202.716938 -111.625227 
L 198.367535 -111.625227 
L 194.018133 -111.625227 
L 189.66873 -111.625227 
L 185.319327 -111.625227 
L 180.969924 -111.625227 
L 176.620521 -111.625227 
L 172.271118 -111.625227 
L 167.921716 -111.625227 
L 163.572313 -111.625227 
L 159.22291 -111.625227 
L 154.873507 -111.625227 
L 150.524104 -111.625227 
L 146.174701 -111.625227 
L 141.825299 -111.625227 
L 137.475896 -111.625227 
L 133.126493 -111.625227 
L 128.77709 -111.625227 
L 124.427687 -111.625227 
L 120.078284 -111.625227 
L 115.728882 -111.625227 
L 111.379479 -111.625227 
L 107.030076 -111.625227 
L 102.680673 -111.625227 
L 98.33127 -111.625227 
L 93.981867 -111.625227 
L 89.632465 -111.625227 
L 85.283062 -111.625227 
L 80.933659 -111.625227 
L 76.584256 -111.625227 
L 72.234853 -111.625227 
L 67.88545 -111.625227 
L 63.536048 -111.625227 
L 59.186645 -111.625227 
L 54.837242 -111.625227 
L 50.487839 -111.625227 
L 46.138436 -111.625227 
L 41.789034 -111.625227 
L 37.439631 -111.625227 
z
" id="m7b7095ef95" style="stroke:#cc79a7;stroke-opacity:0.3;"/>
    </defs>
    <g clip-path="url(#p3bed742c32)">
     <use style="fill:#cc79a7;fill-opacity:0.3;stroke:#cc79a7;stroke-opacity:0.3;" x="0" xlink:href="#m7b7095ef95" y="288"/>
    </g>
   </g>
   <g id="PolyCollection_2">
    <defs>
     <path d="M 37.439631 -111.625227 
L 37.439631 -157.799853 
L 41.789034 -160.434539 
L 46.138436 -158.429936 
L 50.487839 -152.696828 
L 54.837242 -145.007806 
L 59.186645 -137.171259 
L 63.536048 -130.415534 
L 67.88545 -125.225184 
L 72.234853 -121.532159 
L 76.584256 -119.015977 
L 80.933659 -117.329181 
L 85.283062 -116.198014 
L 89.632465 -115.435024 
L 93.981867 -114.917051 
L 98.33127 -114.56188 
L 102.680673 -114.313636 
L 107.030076 -114.134848 
L 111.379479 -114.001132 
L 115.728882 -113.896976 
L 120.078284 -113.812934 
L 124.427687 -113.74433 
L 128.77709 -113.690348 
L 133.126493 -113.652123 
L 137.475896 -113.629536 
L 141.825299 -113.618063 
L 146.174701 -113.607793 
L 150.524104 -113.585923 
L 154.873507 -113.541885 
L 159.22291 -113.472245 
L 163.572313 -113.382248 
L 167.921716 -113.282988 
L 172.271118 -113.186014 
L 176.620521 -113.098576 
L 180.969924 -113.021856 
L 185.319327 -112.952367 
L 189.66873 -112.885104 
L 194.018133 -112.816557 
L 198.367535 -112.746257 
L 202.716938 -112.676487 
L 207.066341 -112.610759 
L 211.415744 -112.552083 
L 215.765147 -112.50189 
L 220.11455 -112.459908 
L 224.463952 -112.424719 
L 228.813355 -112.394399 
L 233.162758 -112.366874 
L 237.512161 -112.340062 
L 241.861564 -112.312234 
L 246.210966 -112.28287 
L 250.560369 -112.253854 
L 250.560369 -111.625227 
L 250.560369 -111.625227 
L 246.210966 -111.625227 
L 241.861564 -111.625227 
L 237.512161 -111.625227 
L 233.162758 -111.625227 
L 228.813355 -111.625227 
L 224.463952 -111.625227 
L 220.11455 -111.625227 
L 215.765147 -111.625227 
L 211.415744 -111.625227 
L 207.066341 -111.625227 
L 202.716938 -111.625227 
L 198.367535 -111.625227 
L 194.018133 -111.625227 
L 189.66873 -111.625227 
L 185.319327 -111.625227 
L 180.969924 -111.625227 
L 176.620521 -111.625227 
L 172.271118 -111.625227 
L 167.921716 -111.625227 
L 163.572313 -111.625227 
L 159.22291 -111.625227 
L 154.873507 -111.625227 
L 150.524104 -111.625227 
L 146.174701 -111.625227 
L 141.825299 -111.625227 
L 137.475896 -111.625227 
L 133.126493 -111.625227 
L 128.77709 -111.625227 
L 124.427687 -111.625227 
L 120.078284 -111.625227 
L 115.728882 -111.625227 
L 111.379479 -111.625227 
L 107.030076 -111.625227 
L 102.680673 -111.625227 
L 98.33127 -111.625227 
L 93.981867 -111.625227 
L 89.632465 -111.625227 
L 85.283062 -111.625227 
L 80.933659 -111.625227 
L 76.584256 -111.625227 
L 72.234853 -111.625227 
L 67.88545 -111.625227 
L 63.536048 -111.625227 
L 59.186645 -111.625227 
L 54.837242 -111.625227 
L 50.487839 -111.625227 
L 46.138436 -111.625227 
L 41.789034 -111.625227 
L 37.439631 -111.625227 
z
" id="m88e2bf0872" style="stroke:#424243;stroke-opacity:0.3;"/>
    </defs>
    <g clip-path="url(#p3bed742c32)">
     <use style="fill:#424243;fill-opacity:0.3;stroke:#424243;stroke-opacity:0.3;" x="0" xlink:href="#m88e2bf0872" y="288"/>
    </g>
   </g>
   <g id="matplotlib.axis_1">
    <g id="xtick_1">
     <g id="line2d_1">
      <defs>
       <path d="M 0 0 
L 0 3.5 
" id="m5c1b69a81c" style="stroke:#000000;stroke-width:0.8;"/>
      </defs>
      <g>
       <use style="stroke:#000000;stroke-width:0.8;" x="37.439631" xlink:href="#m5c1b69a81c" y="183.67"/>
      </g>
     </g>
     <g id="text_1">
      <!-- 0 -->
      <defs>
       <path d="M 31.78125 66.40625 
Q 24.171875 66.40625 20.328125 58.90625 
Q 16.5 51.421875 16.5 36.375 
Q 16.5 21.390625 20.328125 13.890625 
Q 24.171875 6.390625 31.78125 6.390625 
Q 39.453125 6.390625 43.28125 13.890625 
Q 47.125 21.390625 47.125 36.375 
Q 47.125 51.421875 43.28125 58.90625 
Q 39.453125 66.40625 31.78125 66.40625 
z
M 31.78125 74.21875 
Q 44.046875 74.21875 50.515625 64.515625 
Q 56.984375 54.828125 56.984375 36.375 
Q 56.984375 17.96875 50.515625 8.265625 
Q 44.046875 -1.421875 31.78125 -1.421875 
Q 19.53125 -1.421875 13.0625 8.265625 
Q 6.59375 17.96875 6.59375 36.375 
Q 6.59375 54.828125 13.0625 64.515625 
Q 19.53125 74.21875 31.78125 74.21875 
z
" id="DejaVuSans-30"/>
      </defs>
      <g transform="translate(31.077131 205.866875)scale(0.2 -0.2)">
       <use xlink:href="#DejaVuSans-30"/>
      </g>
     </g>
    </g>
    <g id="xtick_2">
     <g id="line2d_2">
      <g>
       <use style="stroke:#000000;stroke-width:0.8;" x="164.448667" xlink:href="#m5c1b69a81c" y="183.67"/>
      </g>
     </g>
     <g id="text_2">
      <!-- 50 -->
      <defs>
       <path d="M 10.796875 72.90625 
L 49.515625 72.90625 
L 49.515625 64.59375 
L 19.828125 64.59375 
L 19.828125 46.734375 
Q 21.96875 47.46875 24.109375 47.828125 
Q 26.265625 48.1875 28.421875 48.1875 
Q 40.625 48.1875 47.75 41.5 
Q 54.890625 34.8125 54.890625 23.390625 
Q 54.890625 11.625 47.5625 5.09375 
Q 40.234375 -1.421875 26.90625 -1.421875 
Q 22.3125 -1.421875 17.546875 -0.640625 
Q 12.796875 0.140625 7.71875 1.703125 
L 7.71875 11.625 
Q 12.109375 9.234375 16.796875 8.0625 
Q 21.484375 6.890625 26.703125 6.890625 
Q 35.15625 6.890625 40.078125 11.328125 
Q 45.015625 15.765625 45.015625 23.390625 
Q 45.015625 31 40.078125 35.4375 
Q 35.15625 39.890625 26.703125 39.890625 
Q 22.75 39.890625 18.8125 39.015625 
Q 14.890625 38.140625 10.796875 36.28125 
z
" id="DejaVuSans-35"/>
      </defs>
      <g transform="translate(151.723667 205.866875)scale(0.2 -0.2)">
       <use xlink:href="#DejaVuSans-35"/>
       <use x="63.623047" xlink:href="#DejaVuSans-30"/>
      </g>
     </g>
    </g>
    <g id="text_3">
     <!-- bare ground -->
     <defs>
      <path d="M 48.6875 27.296875 
Q 48.6875 37.203125 44.609375 42.84375 
Q 40.53125 48.484375 33.40625 48.484375 
Q 26.265625 48.484375 22.1875 42.84375 
Q 18.109375 37.203125 18.109375 27.296875 
Q 18.109375 17.390625 22.1875 11.75 
Q 26.265625 6.109375 33.40625 6.109375 
Q 40.53125 6.109375 44.609375 11.75 
Q 48.6875 17.390625 48.6875 27.296875 
z
M 18.109375 46.390625 
Q 20.953125 51.265625 25.265625 53.625 
Q 29.59375 56 35.59375 56 
Q 45.5625 56 51.78125 48.09375 
Q 58.015625 40.1875 58.015625 27.296875 
Q 58.015625 14.40625 51.78125 6.484375 
Q 45.5625 -1.421875 35.59375 -1.421875 
Q 29.59375 -1.421875 25.265625 0.953125 
Q 20.953125 3.328125 18.109375 8.203125 
L 18.109375 0 
L 9.078125 0 
L 9.078125 75.984375 
L 18.109375 75.984375 
z
" id="DejaVuSans-62"/>
      <path d="M 34.28125 27.484375 
Q 23.390625 27.484375 19.1875 25 
Q 14.984375 22.515625 14.984375 16.5 
Q 14.984375 11.71875 18.140625 8.90625 
Q 21.296875 6.109375 26.703125 6.109375 
Q 34.1875 6.109375 38.703125 11.40625 
Q 43.21875 16.703125 43.21875 25.484375 
L 43.21875 27.484375 
z
M 52.203125 31.203125 
L 52.203125 0 
L 43.21875 0 
L 43.21875 8.296875 
Q 40.140625 3.328125 35.546875 0.953125 
Q 30.953125 -1.421875 24.3125 -1.421875 
Q 15.921875 -1.421875 10.953125 3.296875 
Q 6 8.015625 6 15.921875 
Q 6 25.140625 12.171875 29.828125 
Q 18.359375 34.515625 30.609375 34.515625 
L 43.21875 34.515625 
L 43.21875 35.40625 
Q 43.21875 41.609375 39.140625 45 
Q 35.0625 48.390625 27.6875 48.390625 
Q 23 48.390625 18.546875 47.265625 
Q 14.109375 46.140625 10.015625 43.890625 
L 10.015625 52.203125 
Q 14.9375 54.109375 19.578125 55.046875 
Q 24.21875 56 28.609375 56 
Q 40.484375 56 46.34375 49.84375 
Q 52.203125 43.703125 52.203125 31.203125 
z
" id="DejaVuSans-61"/>
      <path d="M 41.109375 46.296875 
Q 39.59375 47.171875 37.8125 47.578125 
Q 36.03125 48 33.890625 48 
Q 26.265625 48 22.1875 43.046875 
Q 18.109375 38.09375 18.109375 28.8125 
L 18.109375 0 
L 9.078125 0 
L 9.078125 54.6875 
L 18.109375 54.6875 
L 18.109375 46.1875 
Q 20.953125 51.171875 25.484375 53.578125 
Q 30.03125 56 36.53125 56 
Q 37.453125 56 38.578125 55.875 
Q 39.703125 55.765625 41.0625 55.515625 
z
" id="DejaVuSans-72"/>
      <path d="M 56.203125 29.59375 
L 56.203125 25.203125 
L 14.890625 25.203125 
Q 15.484375 15.921875 20.484375 11.0625 
Q 25.484375 6.203125 34.421875 6.203125 
Q 39.59375 6.203125 44.453125 7.46875 
Q 49.3125 8.734375 54.109375 11.28125 
L 54.109375 2.78125 
Q 49.265625 0.734375 44.1875 -0.34375 
Q 39.109375 -1.421875 33.890625 -1.421875 
Q 20.796875 -1.421875 13.15625 6.1875 
Q 5.515625 13.8125 5.515625 26.8125 
Q 5.515625 40.234375 12.765625 48.109375 
Q 20.015625 56 32.328125 56 
Q 43.359375 56 49.78125 48.890625 
Q 56.203125 41.796875 56.203125 29.59375 
z
M 47.21875 32.234375 
Q 47.125 39.59375 43.09375 43.984375 
Q 39.0625 48.390625 32.421875 48.390625 
Q 24.90625 48.390625 20.390625 44.140625 
Q 15.875 39.890625 15.1875 32.171875 
z
" id="DejaVuSans-65"/>
      <path id="DejaVuSans-20"/>
      <path d="M 45.40625 27.984375 
Q 45.40625 37.75 41.375 43.109375 
Q 37.359375 48.484375 30.078125 48.484375 
Q 22.859375 48.484375 18.828125 43.109375 
Q 14.796875 37.75 14.796875 27.984375 
Q 14.796875 18.265625 18.828125 12.890625 
Q 22.859375 7.515625 30.078125 7.515625 
Q 37.359375 7.515625 41.375 12.890625 
Q 45.40625 18.265625 45.40625 27.984375 
z
M 54.390625 6.78125 
Q 54.390625 -7.171875 48.1875 -13.984375 
Q 42 -20.796875 29.203125 -20.796875 
Q 24.46875 -20.796875 20.265625 -20.09375 
Q 16.0625 -19.390625 12.109375 -17.921875 
L 12.109375 -9.1875 
Q 16.0625 -11.328125 19.921875 -12.34375 
Q 23.78125 -13.375 27.78125 -13.375 
Q 36.625 -13.375 41.015625 -8.765625 
Q 45.40625 -4.15625 45.40625 5.171875 
L 45.40625 9.625 
Q 42.625 4.78125 38.28125 2.390625 
Q 33.9375 0 27.875 0 
Q 17.828125 0 11.671875 7.65625 
Q 5.515625 15.328125 5.515625 27.984375 
Q 5.515625 40.671875 11.671875 48.328125 
Q 17.828125 56 27.875 56 
Q 33.9375 56 38.28125 53.609375 
Q 42.625 51.21875 45.40625 46.390625 
L 45.40625 54.6875 
L 54.390625 54.6875 
z
" id="DejaVuSans-67"/>
      <path d="M 30.609375 48.390625 
Q 23.390625 48.390625 19.1875 42.75 
Q 14.984375 37.109375 14.984375 27.296875 
Q 14.984375 17.484375 19.15625 11.84375 
Q 23.34375 6.203125 30.609375 6.203125 
Q 37.796875 6.203125 41.984375 11.859375 
Q 46.1875 17.53125 46.1875 27.296875 
Q 46.1875 37.015625 41.984375 42.703125 
Q 37.796875 48.390625 30.609375 48.390625 
z
M 30.609375 56 
Q 42.328125 56 49.015625 48.375 
Q 55.71875 40.765625 55.71875 27.296875 
Q 55.71875 13.875 49.015625 6.21875 
Q 42.328125 -1.421875 30.609375 -1.421875 
Q 18.84375 -1.421875 12.171875 6.21875 
Q 5.515625 13.875 5.515625 27.296875 
Q 5.515625 40.765625 12.171875 48.375 
Q 18.84375 56 30.609375 56 
z
" id="DejaVuSans-6f"/>
      <path d="M 8.5 21.578125 
L 8.5 54.6875 
L 17.484375 54.6875 
L 17.484375 21.921875 
Q 17.484375 14.15625 20.5 10.265625 
Q 23.53125 6.390625 29.59375 6.390625 
Q 36.859375 6.390625 41.078125 11.03125 
Q 45.3125 15.671875 45.3125 23.6875 
L 45.3125 54.6875 
L 54.296875 54.6875 
L 54.296875 0 
L 45.3125 0 
L 45.3125 8.40625 
Q 42.046875 3.421875 37.71875 1 
Q 33.40625 -1.421875 27.6875 -1.421875 
Q 18.265625 -1.421875 13.375 4.4375 
Q 8.5 10.296875 8.5 21.578125 
z
M 31.109375 56 
z
" id="DejaVuSans-75"/>
      <path d="M 54.890625 33.015625 
L 54.890625 0 
L 45.90625 0 
L 45.90625 32.71875 
Q 45.90625 40.484375 42.875 44.328125 
Q 39.84375 48.1875 33.796875 48.1875 
Q 26.515625 48.1875 22.3125 43.546875 
Q 18.109375 38.921875 18.109375 30.90625 
L 18.109375 0 
L 9.078125 0 
L 9.078125 54.6875 
L 18.109375 54.6875 
L 18.109375 46.1875 
Q 21.34375 51.125 25.703125 53.5625 
Q 30.078125 56 35.796875 56 
Q 45.21875 56 50.046875 50.171875 
Q 54.890625 44.34375 54.890625 33.015625 
z
" id="DejaVuSans-6e"/>
      <path d="M 45.40625 46.390625 
L 45.40625 75.984375 
L 54.390625 75.984375 
L 54.390625 0 
L 45.40625 0 
L 45.40625 8.203125 
Q 42.578125 3.328125 38.25 0.953125 
Q 33.9375 -1.421875 27.875 -1.421875 
Q 17.96875 -1.421875 11.734375 6.484375 
Q 5.515625 14.40625 5.515625 27.296875 
Q 5.515625 40.1875 11.734375 48.09375 
Q 17.96875 56 27.875 56 
Q 33.9375 56 38.25 53.625 
Q 42.578125 51.265625 45.40625 46.390625 
z
M 14.796875 27.296875 
Q 14.796875 17.390625 18.875 11.75 
Q 22.953125 6.109375 30.078125 6.109375 
Q 37.203125 6.109375 41.296875 11.75 
Q 45.40625 17.390625 45.40625 27.296875 
Q 45.40625 37.203125 41.296875 42.84375 
Q 37.203125 48.484375 30.078125 48.484375 
Q 22.953125 48.484375 18.875 42.84375 
Q 14.796875 37.203125 14.796875 27.296875 
z
" id="DejaVuSans-64"/>
     </defs>
     <g transform="translate(67.107422 233.022344)scale(0.25 -0.25)">
      <use xlink:href="#DejaVuSans-62"/>
      <use x="63.476562" xlink:href="#DejaVuSans-61"/>
      <use x="124.755859" xlink:href="#DejaVuSans-72"/>
      <use x="165.837891" xlink:href="#DejaVuSans-65"/>
      <use x="227.361328" xlink:href="#DejaVuSans-20"/>
      <use x="259.148438" xlink:href="#DejaVuSans-67"/>
      <use x="322.625" xlink:href="#DejaVuSans-72"/>
      <use x="363.707031" xlink:href="#DejaVuSans-6f"/>
      <use x="424.888672" xlink:href="#DejaVuSans-75"/>
      <use x="488.267578" xlink:href="#DejaVuSans-6e"/>
      <use x="551.646484" xlink:href="#DejaVuSans-64"/>
     </g>
     <!--   -->
     <g transform="translate(140.027344 261.016875)scale(0.25 -0.25)">
      <use xlink:href="#DejaVuSans-20"/>
     </g>
    </g>
   </g>
   <g id="line2d_3">
    <path clip-path="url(#p3bed742c32)" d="M 37.439631 96.664877 
L 41.789034 88.689583 
L 46.138436 106.351588 
L 50.487839 131.150039 
L 54.837242 148.917525 
L 59.186645 158.532074 
L 63.536048 163.481057 
L 67.88545 166.362997 
L 72.234853 168.262615 
L 76.584256 169.468696 
L 80.933659 170.257237 
L 85.283062 171.001005 
L 89.632465 171.824813 
L 93.981867 172.550837 
L 98.33127 173.067747 
L 102.680673 173.508249 
L 107.030076 173.962913 
L 111.379479 174.349242 
L 115.728882 174.608739 
L 120.078284 174.778288 
L 124.427687 174.912623 
L 128.77709 175.042141 
L 133.126493 175.176427 
L 137.475896 175.31313 
L 141.825299 175.437847 
L 146.174701 175.568047 
L 150.524104 175.724054 
L 154.873507 175.850116 
L 159.22291 175.895282 
L 163.572313 175.901708 
L 167.921716 175.935157 
L 172.271118 176.009831 
L 176.620521 176.099112 
L 180.969924 176.169632 
L 185.319327 176.208676 
L 189.66873 176.225712 
L 194.018133 176.226158 
L 198.367535 176.202393 
L 202.716938 176.150275 
L 207.066341 176.094087 
L 211.415744 176.085763 
L 215.765147 176.143024 
L 220.11455 176.214913 
L 224.463952 176.241059 
L 228.813355 176.212956 
L 233.162758 176.174178 
L 237.512161 176.174374 
L 241.861564 176.216302 
L 246.210966 176.255992 
L 250.560369 176.267058 
" style="fill:none;stroke:#cc79a7;stroke-linecap:square;stroke-width:2;"/>
   </g>
   <g id="line2d_4">
    <path clip-path="url(#p3bed742c32)" d="M 37.439631 130.200147 
L 41.789034 127.565461 
L 46.138436 129.570064 
L 50.487839 135.303172 
L 54.837242 142.992194 
L 59.186645 150.828741 
L 63.536048 157.584466 
L 67.88545 162.774816 
L 72.234853 166.467841 
L 76.584256 168.984023 
L 80.933659 170.670819 
L 85.283062 171.801986 
L 89.632465 172.564976 
L 93.981867 173.082949 
L 98.33127 173.43812 
L 102.680673 173.686364 
L 107.030076 173.865152 
L 111.379479 173.998868 
L 115.728882 174.103024 
L 120.078284 174.187066 
L 124.427687 174.25567 
L 128.77709 174.309652 
L 133.126493 174.347877 
L 137.475896 174.370464 
L 141.825299 174.381937 
L 146.174701 174.392207 
L 150.524104 174.414077 
L 154.873507 174.458115 
L 159.22291 174.527755 
L 163.572313 174.617752 
L 167.921716 174.717012 
L 172.271118 174.813986 
L 176.620521 174.901424 
L 180.969924 174.978144 
L 185.319327 175.047633 
L 189.66873 175.114896 
L 194.018133 175.183443 
L 198.367535 175.253743 
L 202.716938 175.323513 
L 207.066341 175.389241 
L 211.415744 175.447917 
L 215.765147 175.49811 
L 220.11455 175.540092 
L 224.463952 175.575281 
L 228.813355 175.605601 
L 233.162758 175.633126 
L 237.512161 175.659938 
L 241.861564 175.687766 
L 246.210966 175.71713 
L 250.560369 175.746146 
" style="fill:none;stroke:#424243;stroke-linecap:square;stroke-width:2;"/>
   </g>
   <g id="patch_3">
    <path d="M 26.783594 183.67 
L 261.216406 183.67 
" style="fill:none;stroke:#000000;stroke-linecap:square;stroke-linejoin:miter;stroke-width:0.8;"/>
   </g>
  </g>
 </g>
 <defs>
  <clipPath id="p3bed742c32">
   <rect height="160.495" width="234.432812" x="26.783594" y="23.175"/>
  </clipPath>
 </defs>
</svg>
