<?xml version="1.0" encoding="utf-8" standalone="no"?>
<!DOCTYPE svg PUBLIC "-//W3C//DTD SVG 1.1//EN"
  "http://www.w3.org/Graphics/SVG/1.1/DTD/svg11.dtd">
<!-- Created with matplotlib (http://matplotlib.org/) -->
<svg height="288pt" version="1.1" viewBox="0 0 288 288" width="288pt" xmlns="http://www.w3.org/2000/svg" xmlns:xlink="http://www.w3.org/1999/xlink">
 <defs>
  <style type="text/css">
*{stroke-linecap:butt;stroke-linejoin:round;}
  </style>
 </defs>
 <g id="figure_1">
  <g id="patch_1">
   <path d="M 0 288 
L 288 288 
L 288 0 
L 0 0 
z
" style="fill:#ffffff;"/>
  </g>
  <g id="axes_1">
   <g id="patch_2">
    <path d="M 23.175 183.67 
L 254.142108 183.67 
L 254.142108 23.175 
L 23.175 23.175 
z
" style="fill:#ffffff;"/>
   </g>
   <g id="PolyCollection_1">
    <defs>
     <path d="M 33.673505 -111.625227 
L 33.673505 -166.940764 
L 37.958609 -181.415238 
L 42.243713 -191.55607 
L 46.528817 -197.69112 
L 50.813921 -201.540247 
L 55.099025 -204.730371 
L 59.384129 -208.186813 
L 63.669233 -212.299502 
L 67.954337 -217.049872 
L 72.239441 -221.813907 
L 76.524545 -225.282165 
L 80.809649 -225.936451 
L 85.094753 -222.877231 
L 89.379857 -216.321628 
L 93.664962 -207.358495 
L 97.950066 -197.242435 
L 102.23517 -186.860528 
L 106.520274 -176.696872 
L 110.805378 -167.088722 
L 115.090482 -158.392139 
L 119.375586 -150.915308 
L 123.66069 -144.766808 
L 127.945794 -139.816548 
L 132.230898 -135.800666 
L 136.516002 -132.444423 
L 140.801106 -129.516317 
L 145.08621 -126.861843 
L 149.371314 -124.452045 
L 153.656418 -122.369168 
L 157.941522 -120.691465 
L 162.226626 -119.389292 
L 166.51173 -118.343836 
L 170.796834 -117.44877 
L 175.081938 -116.678398 
L 179.367042 -116.068678 
L 183.652146 -115.648205 
L 187.937251 -115.389338 
L 192.222355 -115.212726 
L 196.507459 -115.022206 
L 200.792563 -114.741758 
L 205.077667 -114.3503 
L 209.362771 -113.896085 
L 213.647875 -113.462248 
L 217.932979 -113.108486 
L 222.218083 -112.849094 
L 226.503187 -112.673761 
L 230.788291 -112.565841 
L 235.073395 -112.500683 
L 239.358499 -112.446117 
L 243.643603 -112.375396 
L 243.643603 -111.625227 
L 243.643603 -111.625227 
L 239.358499 -111.625227 
L 235.073395 -111.625227 
L 230.788291 -111.625227 
L 226.503187 -111.625227 
L 222.218083 -111.625227 
L 217.932979 -111.625227 
L 213.647875 -111.625227 
L 209.362771 -111.625227 
L 205.077667 -111.625227 
L 200.792563 -111.625227 
L 196.507459 -111.625227 
L 192.222355 -111.625227 
L 187.937251 -111.625227 
L 183.652146 -111.625227 
L 179.367042 -111.625227 
L 175.081938 -111.625227 
L 170.796834 -111.625227 
L 166.51173 -111.625227 
L 162.226626 -111.625227 
L 157.941522 -111.625227 
L 153.656418 -111.625227 
L 149.371314 -111.625227 
L 145.08621 -111.625227 
L 140.801106 -111.625227 
L 136.516002 -111.625227 
L 132.230898 -111.625227 
L 127.945794 -111.625227 
L 123.66069 -111.625227 
L 119.375586 -111.625227 
L 115.090482 -111.625227 
L 110.805378 -111.625227 
L 106.520274 -111.625227 
L 102.23517 -111.625227 
L 97.950066 -111.625227 
L 93.664962 -111.625227 
L 89.379857 -111.625227 
L 85.094753 -111.625227 
L 80.809649 -111.625227 
L 76.524545 -111.625227 
L 72.239441 -111.625227 
L 67.954337 -111.625227 
L 63.669233 -111.625227 
L 59.384129 -111.625227 
L 55.099025 -111.625227 
L 50.813921 -111.625227 
L 46.528817 -111.625227 
L 42.243713 -111.625227 
L 37.958609 -111.625227 
L 33.673505 -111.625227 
z
" id="m3f59475dcc" style="stroke:#cc79a7;stroke-opacity:0.3;"/>
    </defs>
    <g clip-path="url(#p4291ad63a1)">
     <use style="fill:#cc79a7;fill-opacity:0.3;stroke:#cc79a7;stroke-opacity:0.3;" x="0" xlink:href="#m3f59475dcc" y="288"/>
    </g>
   </g>
   <g id="PolyCollection_2">
    <defs>
     <path d="M 33.673505 -111.625227 
L 33.673505 -140.972169 
L 37.958609 -147.475219 
L 42.243713 -153.913148 
L 46.528817 -160.153961 
L 50.813921 -166.222232 
L 55.099025 -172.265249 
L 59.384129 -178.469988 
L 63.669233 -184.959097 
L 67.954337 -191.6994 
L 72.239441 -198.450907 
L 76.524545 -204.772247 
L 80.809649 -210.084049 
L 85.094753 -213.777497 
L 89.379857 -215.342826 
L 93.664962 -214.484758 
L 97.950066 -211.192566 
L 102.23517 -205.744058 
L 106.520274 -198.643115 
L 110.805378 -190.512103 
L 115.090482 -181.973922 
L 119.375586 -173.557661 
L 123.66069 -165.64782 
L 127.945794 -158.477823 
L 132.230898 -152.153701 
L 136.516002 -146.689026 
L 140.801106 -142.036916 
L 145.08621 -138.11369 
L 149.371314 -134.815688 
L 153.656418 -132.033002 
L 157.941522 -129.661975 
L 162.226626 -127.615483 
L 166.51173 -125.82853 
L 170.796834 -124.257736 
L 175.081938 -122.875735 
L 179.367042 -121.663616 
L 183.652146 -120.604843 
L 187.937251 -119.682479 
L 192.222355 -118.879246 
L 196.507459 -118.178516 
L 200.792563 -117.564647 
L 205.077667 -117.022493 
L 209.362771 -116.537092 
L 213.647875 -116.094523 
L 217.932979 -115.683956 
L 222.218083 -115.299905 
L 226.503187 -114.94336 
L 230.788291 -114.620946 
L 235.073395 -114.342072 
L 239.358499 -114.114865 
L 243.643603 -113.94226 
L 243.643603 -111.625227 
L 243.643603 -111.625227 
L 239.358499 -111.625227 
L 235.073395 -111.625227 
L 230.788291 -111.625227 
L 226.503187 -111.625227 
L 222.218083 -111.625227 
L 217.932979 -111.625227 
L 213.647875 -111.625227 
L 209.362771 -111.625227 
L 205.077667 -111.625227 
L 200.792563 -111.625227 
L 196.507459 -111.625227 
L 192.222355 -111.625227 
L 187.937251 -111.625227 
L 183.652146 -111.625227 
L 179.367042 -111.625227 
L 175.081938 -111.625227 
L 170.796834 -111.625227 
L 166.51173 -111.625227 
L 162.226626 -111.625227 
L 157.941522 -111.625227 
L 153.656418 -111.625227 
L 149.371314 -111.625227 
L 145.08621 -111.625227 
L 140.801106 -111.625227 
L 136.516002 -111.625227 
L 132.230898 -111.625227 
L 127.945794 -111.625227 
L 123.66069 -111.625227 
L 119.375586 -111.625227 
L 115.090482 -111.625227 
L 110.805378 -111.625227 
L 106.520274 -111.625227 
L 102.23517 -111.625227 
L 97.950066 -111.625227 
L 93.664962 -111.625227 
L 89.379857 -111.625227 
L 85.094753 -111.625227 
L 80.809649 -111.625227 
L 76.524545 -111.625227 
L 72.239441 -111.625227 
L 67.954337 -111.625227 
L 63.669233 -111.625227 
L 59.384129 -111.625227 
L 55.099025 -111.625227 
L 50.813921 -111.625227 
L 46.528817 -111.625227 
L 42.243713 -111.625227 
L 37.958609 -111.625227 
L 33.673505 -111.625227 
z
" id="m0563b9ded0" style="stroke:#424243;stroke-opacity:0.3;"/>
    </defs>
    <g clip-path="url(#p4291ad63a1)">
     <use style="fill:#424243;fill-opacity:0.3;stroke:#424243;stroke-opacity:0.3;" x="0" xlink:href="#m0563b9ded0" y="288"/>
    </g>
   </g>
   <g id="matplotlib.axis_1">
    <g id="xtick_1">
     <g id="line2d_1">
      <defs>
       <path d="M 0 0 
L 0 3.5 
" id="m0037bbf5a7" style="stroke:#000000;stroke-width:0.8;"/>
      </defs>
      <g>
       <use style="stroke:#000000;stroke-width:0.8;" x="110.286028" xlink:href="#m0037bbf5a7" y="183.67"/>
      </g>
     </g>
     <g id="text_1">
      <!-- 0 -->
      <defs>
       <path d="M 31.78125 66.40625 
Q 24.171875 66.40625 20.328125 58.90625 
Q 16.5 51.421875 16.5 36.375 
Q 16.5 21.390625 20.328125 13.890625 
Q 24.171875 6.390625 31.78125 6.390625 
Q 39.453125 6.390625 43.28125 13.890625 
Q 47.125 21.390625 47.125 36.375 
Q 47.125 51.421875 43.28125 58.90625 
Q 39.453125 66.40625 31.78125 66.40625 
z
M 31.78125 74.21875 
Q 44.046875 74.21875 50.515625 64.515625 
Q 56.984375 54.828125 56.984375 36.375 
Q 56.984375 17.96875 50.515625 8.265625 
Q 44.046875 -1.421875 31.78125 -1.421875 
Q 19.53125 -1.421875 13.0625 8.265625 
Q 6.59375 17.96875 6.59375 36.375 
Q 6.59375 54.828125 13.0625 64.515625 
Q 19.53125 74.21875 31.78125 74.21875 
z
" id="DejaVuSans-30"/>
      </defs>
      <g transform="translate(103.923528 205.866875)scale(0.2 -0.2)">
       <use xlink:href="#DejaVuSans-30"/>
      </g>
     </g>
    </g>
    <g id="xtick_2">
     <g id="line2d_2">
      <g>
       <use style="stroke:#000000;stroke-width:0.8;" x="221.35632" xlink:href="#m0037bbf5a7" y="183.67"/>
      </g>
     </g>
     <g id="text_2">
      <!-- 2 -->
      <defs>
       <path d="M 19.1875 8.296875 
L 53.609375 8.296875 
L 53.609375 0 
L 7.328125 0 
L 7.328125 8.296875 
Q 12.9375 14.109375 22.625 23.890625 
Q 32.328125 33.6875 34.8125 36.53125 
Q 39.546875 41.84375 41.421875 45.53125 
Q 43.3125 49.21875 43.3125 52.78125 
Q 43.3125 58.59375 39.234375 62.25 
Q 35.15625 65.921875 28.609375 65.921875 
Q 23.96875 65.921875 18.8125 64.3125 
Q 13.671875 62.703125 7.8125 59.421875 
L 7.8125 69.390625 
Q 13.765625 71.78125 18.9375 73 
Q 24.125 74.21875 28.421875 74.21875 
Q 39.75 74.21875 46.484375 68.546875 
Q 53.21875 62.890625 53.21875 53.421875 
Q 53.21875 48.921875 51.53125 44.890625 
Q 49.859375 40.875 45.40625 35.40625 
Q 44.1875 33.984375 37.640625 27.21875 
Q 31.109375 20.453125 19.1875 8.296875 
z
" id="DejaVuSans-32"/>
      </defs>
      <g transform="translate(214.99382 205.866875)scale(0.2 -0.2)">
       <use xlink:href="#DejaVuSans-32"/>
      </g>
     </g>
    </g>
    <g id="text_3">
     <!-- cloud cover -->
     <defs>
      <path d="M 48.78125 52.59375 
L 48.78125 44.1875 
Q 44.96875 46.296875 41.140625 47.34375 
Q 37.3125 48.390625 33.40625 48.390625 
Q 24.65625 48.390625 19.8125 42.84375 
Q 14.984375 37.3125 14.984375 27.296875 
Q 14.984375 17.28125 19.8125 11.734375 
Q 24.65625 6.203125 33.40625 6.203125 
Q 37.3125 6.203125 41.140625 7.25 
Q 44.96875 8.296875 48.78125 10.40625 
L 48.78125 2.09375 
Q 45.015625 0.34375 40.984375 -0.53125 
Q 36.96875 -1.421875 32.421875 -1.421875 
Q 20.0625 -1.421875 12.78125 6.34375 
Q 5.515625 14.109375 5.515625 27.296875 
Q 5.515625 40.671875 12.859375 48.328125 
Q 20.21875 56 33.015625 56 
Q 37.15625 56 41.109375 55.140625 
Q 45.0625 54.296875 48.78125 52.59375 
z
" id="DejaVuSans-63"/>
      <path d="M 9.421875 75.984375 
L 18.40625 75.984375 
L 18.40625 0 
L 9.421875 0 
z
" id="DejaVuSans-6c"/>
      <path d="M 30.609375 48.390625 
Q 23.390625 48.390625 19.1875 42.75 
Q 14.984375 37.109375 14.984375 27.296875 
Q 14.984375 17.484375 19.15625 11.84375 
Q 23.34375 6.203125 30.609375 6.203125 
Q 37.796875 6.203125 41.984375 11.859375 
Q 46.1875 17.53125 46.1875 27.296875 
Q 46.1875 37.015625 41.984375 42.703125 
Q 37.796875 48.390625 30.609375 48.390625 
z
M 30.609375 56 
Q 42.328125 56 49.015625 48.375 
Q 55.71875 40.765625 55.71875 27.296875 
Q 55.71875 13.875 49.015625 6.21875 
Q 42.328125 -1.421875 30.609375 -1.421875 
Q 18.84375 -1.421875 12.171875 6.21875 
Q 5.515625 13.875 5.515625 27.296875 
Q 5.515625 40.765625 12.171875 48.375 
Q 18.84375 56 30.609375 56 
z
" id="DejaVuSans-6f"/>
      <path d="M 8.5 21.578125 
L 8.5 54.6875 
L 17.484375 54.6875 
L 17.484375 21.921875 
Q 17.484375 14.15625 20.5 10.265625 
Q 23.53125 6.390625 29.59375 6.390625 
Q 36.859375 6.390625 41.078125 11.03125 
Q 45.3125 15.671875 45.3125 23.6875 
L 45.3125 54.6875 
L 54.296875 54.6875 
L 54.296875 0 
L 45.3125 0 
L 45.3125 8.40625 
Q 42.046875 3.421875 37.71875 1 
Q 33.40625 -1.421875 27.6875 -1.421875 
Q 18.265625 -1.421875 13.375 4.4375 
Q 8.5 10.296875 8.5 21.578125 
z
M 31.109375 56 
z
" id="DejaVuSans-75"/>
      <path d="M 45.40625 46.390625 
L 45.40625 75.984375 
L 54.390625 75.984375 
L 54.390625 0 
L 45.40625 0 
L 45.40625 8.203125 
Q 42.578125 3.328125 38.25 0.953125 
Q 33.9375 -1.421875 27.875 -1.421875 
Q 17.96875 -1.421875 11.734375 6.484375 
Q 5.515625 14.40625 5.515625 27.296875 
Q 5.515625 40.1875 11.734375 48.09375 
Q 17.96875 56 27.875 56 
Q 33.9375 56 38.25 53.625 
Q 42.578125 51.265625 45.40625 46.390625 
z
M 14.796875 27.296875 
Q 14.796875 17.390625 18.875 11.75 
Q 22.953125 6.109375 30.078125 6.109375 
Q 37.203125 6.109375 41.296875 11.75 
Q 45.40625 17.390625 45.40625 27.296875 
Q 45.40625 37.203125 41.296875 42.84375 
Q 37.203125 48.484375 30.078125 48.484375 
Q 22.953125 48.484375 18.875 42.84375 
Q 14.796875 37.203125 14.796875 27.296875 
z
" id="DejaVuSans-64"/>
      <path id="DejaVuSans-20"/>
      <path d="M 2.984375 54.6875 
L 12.5 54.6875 
L 29.59375 8.796875 
L 46.6875 54.6875 
L 56.203125 54.6875 
L 35.6875 0 
L 23.484375 0 
z
" id="DejaVuSans-76"/>
      <path d="M 56.203125 29.59375 
L 56.203125 25.203125 
L 14.890625 25.203125 
Q 15.484375 15.921875 20.484375 11.0625 
Q 25.484375 6.203125 34.421875 6.203125 
Q 39.59375 6.203125 44.453125 7.46875 
Q 49.3125 8.734375 54.109375 11.28125 
L 54.109375 2.78125 
Q 49.265625 0.734375 44.1875 -0.34375 
Q 39.109375 -1.421875 33.890625 -1.421875 
Q 20.796875 -1.421875 13.15625 6.1875 
Q 5.515625 13.8125 5.515625 26.8125 
Q 5.515625 40.234375 12.765625 48.109375 
Q 20.015625 56 32.328125 56 
Q 43.359375 56 49.78125 48.890625 
Q 56.203125 41.796875 56.203125 29.59375 
z
M 47.21875 32.234375 
Q 47.125 39.59375 43.09375 43.984375 
Q 39.0625 48.390625 32.421875 48.390625 
Q 24.90625 48.390625 20.390625 44.140625 
Q 15.875 39.890625 15.1875 32.171875 
z
" id="DejaVuSans-65"/>
      <path d="M 41.109375 46.296875 
Q 39.59375 47.171875 37.8125 47.578125 
Q 36.03125 48 33.890625 48 
Q 26.265625 48 22.1875 43.046875 
Q 18.109375 38.09375 18.109375 28.8125 
L 18.109375 0 
L 9.078125 0 
L 9.078125 54.6875 
L 18.109375 54.6875 
L 18.109375 46.1875 
Q 20.953125 51.171875 25.484375 53.578125 
Q 30.03125 56 36.53125 56 
Q 37.453125 56 38.578125 55.875 
Q 39.703125 55.765625 41.0625 55.515625 
z
" id="DejaVuSans-72"/>
     </defs>
     <g transform="translate(66.084335 233.022344)scale(0.25 -0.25)">
      <use xlink:href="#DejaVuSans-63"/>
      <use x="54.980469" xlink:href="#DejaVuSans-6c"/>
      <use x="82.763672" xlink:href="#DejaVuSans-6f"/>
      <use x="143.945312" xlink:href="#DejaVuSans-75"/>
      <use x="207.324219" xlink:href="#DejaVuSans-64"/>
      <use x="270.800781" xlink:href="#DejaVuSans-20"/>
      <use x="302.587891" xlink:href="#DejaVuSans-63"/>
      <use x="357.568359" xlink:href="#DejaVuSans-6f"/>
      <use x="418.75" xlink:href="#DejaVuSans-76"/>
      <use x="477.929688" xlink:href="#DejaVuSans-65"/>
      <use x="539.453125" xlink:href="#DejaVuSans-72"/>
     </g>
     <!-- kurtosis -->
     <defs>
      <path d="M 9.078125 75.984375 
L 18.109375 75.984375 
L 18.109375 31.109375 
L 44.921875 54.6875 
L 56.390625 54.6875 
L 27.390625 29.109375 
L 57.625 0 
L 45.90625 0 
L 18.109375 26.703125 
L 18.109375 0 
L 9.078125 0 
z
" id="DejaVuSans-6b"/>
      <path d="M 18.3125 70.21875 
L 18.3125 54.6875 
L 36.8125 54.6875 
L 36.8125 47.703125 
L 18.3125 47.703125 
L 18.3125 18.015625 
Q 18.3125 11.328125 20.140625 9.421875 
Q 21.96875 7.515625 27.59375 7.515625 
L 36.8125 7.515625 
L 36.8125 0 
L 27.59375 0 
Q 17.1875 0 13.234375 3.875 
Q 9.28125 7.765625 9.28125 18.015625 
L 9.28125 47.703125 
L 2.6875 47.703125 
L 2.6875 54.6875 
L 9.28125 54.6875 
L 9.28125 70.21875 
z
" id="DejaVuSans-74"/>
      <path d="M 44.28125 53.078125 
L 44.28125 44.578125 
Q 40.484375 46.53125 36.375 47.5 
Q 32.28125 48.484375 27.875 48.484375 
Q 21.1875 48.484375 17.84375 46.4375 
Q 14.5 44.390625 14.5 40.28125 
Q 14.5 37.15625 16.890625 35.375 
Q 19.28125 33.59375 26.515625 31.984375 
L 29.59375 31.296875 
Q 39.15625 29.25 43.1875 25.515625 
Q 47.21875 21.78125 47.21875 15.09375 
Q 47.21875 7.46875 41.1875 3.015625 
Q 35.15625 -1.421875 24.609375 -1.421875 
Q 20.21875 -1.421875 15.453125 -0.5625 
Q 10.6875 0.296875 5.421875 2 
L 5.421875 11.28125 
Q 10.40625 8.6875 15.234375 7.390625 
Q 20.0625 6.109375 24.8125 6.109375 
Q 31.15625 6.109375 34.5625 8.28125 
Q 37.984375 10.453125 37.984375 14.40625 
Q 37.984375 18.0625 35.515625 20.015625 
Q 33.0625 21.96875 24.703125 23.78125 
L 21.578125 24.515625 
Q 13.234375 26.265625 9.515625 29.90625 
Q 5.8125 33.546875 5.8125 39.890625 
Q 5.8125 47.609375 11.28125 51.796875 
Q 16.75 56 26.8125 56 
Q 31.78125 56 36.171875 55.265625 
Q 40.578125 54.546875 44.28125 53.078125 
z
" id="DejaVuSans-73"/>
      <path d="M 9.421875 54.6875 
L 18.40625 54.6875 
L 18.40625 0 
L 9.421875 0 
z
M 9.421875 75.984375 
L 18.40625 75.984375 
L 18.40625 64.59375 
L 9.421875 64.59375 
z
" id="DejaVuSans-69"/>
     </defs>
     <g transform="translate(89.320663 261.016875)scale(0.25 -0.25)">
      <use xlink:href="#DejaVuSans-6b"/>
      <use x="57.863281" xlink:href="#DejaVuSans-75"/>
      <use x="121.242188" xlink:href="#DejaVuSans-72"/>
      <use x="162.355469" xlink:href="#DejaVuSans-74"/>
      <use x="201.564453" xlink:href="#DejaVuSans-6f"/>
      <use x="262.746094" xlink:href="#DejaVuSans-73"/>
      <use x="314.845703" xlink:href="#DejaVuSans-69"/>
      <use x="342.628906" xlink:href="#DejaVuSans-73"/>
     </g>
    </g>
   </g>
   <g id="line2d_3">
    <path clip-path="url(#p4291ad63a1)" d="M 33.673505 121.059236 
L 37.958609 106.584762 
L 42.243713 96.44393 
L 46.528817 90.30888 
L 50.813921 86.459753 
L 55.099025 83.269629 
L 59.384129 79.813187 
L 63.669233 75.700498 
L 67.954337 70.950128 
L 72.239441 66.186093 
L 76.524545 62.717835 
L 80.809649 62.063549 
L 85.094753 65.122769 
L 89.379857 71.678372 
L 93.664962 80.641505 
L 97.950066 90.757565 
L 102.23517 101.139472 
L 106.520274 111.303128 
L 110.805378 120.911278 
L 115.090482 129.607861 
L 119.375586 137.084692 
L 123.66069 143.233192 
L 127.945794 148.183452 
L 132.230898 152.199334 
L 136.516002 155.555577 
L 140.801106 158.483683 
L 145.08621 161.138157 
L 149.371314 163.547955 
L 153.656418 165.630832 
L 157.941522 167.308535 
L 162.226626 168.610708 
L 166.51173 169.656164 
L 170.796834 170.55123 
L 175.081938 171.321602 
L 179.367042 171.931322 
L 183.652146 172.351795 
L 187.937251 172.610662 
L 192.222355 172.787274 
L 196.507459 172.977794 
L 200.792563 173.258242 
L 205.077667 173.6497 
L 209.362771 174.103915 
L 213.647875 174.537752 
L 217.932979 174.891514 
L 222.218083 175.150906 
L 226.503187 175.326239 
L 230.788291 175.434159 
L 235.073395 175.499317 
L 239.358499 175.553883 
L 243.643603 175.624604 
" style="fill:none;stroke:#cc79a7;stroke-linecap:square;stroke-width:2;"/>
   </g>
   <g id="line2d_4">
    <path clip-path="url(#p4291ad63a1)" d="M 33.673505 147.027831 
L 37.958609 140.524781 
L 42.243713 134.086852 
L 46.528817 127.846039 
L 50.813921 121.777768 
L 55.099025 115.734751 
L 59.384129 109.530012 
L 63.669233 103.040903 
L 67.954337 96.3006 
L 72.239441 89.549093 
L 76.524545 83.227753 
L 80.809649 77.915951 
L 85.094753 74.222503 
L 89.379857 72.657174 
L 93.664962 73.515242 
L 97.950066 76.807434 
L 102.23517 82.255942 
L 106.520274 89.356885 
L 110.805378 97.487897 
L 115.090482 106.026078 
L 119.375586 114.442339 
L 123.66069 122.35218 
L 127.945794 129.522177 
L 132.230898 135.846299 
L 136.516002 141.310974 
L 140.801106 145.963084 
L 145.08621 149.88631 
L 149.371314 153.184312 
L 153.656418 155.966998 
L 157.941522 158.338025 
L 162.226626 160.384517 
L 166.51173 162.17147 
L 170.796834 163.742264 
L 175.081938 165.124265 
L 179.367042 166.336384 
L 183.652146 167.395157 
L 187.937251 168.317521 
L 192.222355 169.120754 
L 196.507459 169.821484 
L 200.792563 170.435353 
L 205.077667 170.977507 
L 209.362771 171.462908 
L 213.647875 171.905477 
L 217.932979 172.316044 
L 222.218083 172.700095 
L 226.503187 173.05664 
L 230.788291 173.379054 
L 235.073395 173.657928 
L 239.358499 173.885135 
L 243.643603 174.05774 
" style="fill:none;stroke:#424243;stroke-linecap:square;stroke-width:2;"/>
   </g>
   <g id="patch_3">
    <path d="M 23.175 183.67 
L 254.142108 183.67 
" style="fill:none;stroke:#000000;stroke-linecap:square;stroke-linejoin:miter;stroke-width:0.8;"/>
   </g>
  </g>
 </g>
 <defs>
  <clipPath id="p4291ad63a1">
   <rect height="160.495" width="230.967108" x="23.175" y="23.175"/>
  </clipPath>
 </defs>
</svg>
