<?xml version="1.0" encoding="utf-8" standalone="no"?>
<!DOCTYPE svg PUBLIC "-//W3C//DTD SVG 1.1//EN"
  "http://www.w3.org/Graphics/SVG/1.1/DTD/svg11.dtd">
<!-- Created with matplotlib (http://matplotlib.org/) -->
<svg height="288pt" version="1.1" viewBox="0 0 288 288" width="288pt" xmlns="http://www.w3.org/2000/svg" xmlns:xlink="http://www.w3.org/1999/xlink">
 <defs>
  <style type="text/css">
*{stroke-linecap:butt;stroke-linejoin:round;}
  </style>
 </defs>
 <g id="figure_1">
  <g id="patch_1">
   <path d="M 0 288 
L 288 288 
L 288 0 
L 0 0 
z
" style="fill:#ffffff;"/>
  </g>
  <g id="axes_1">
   <g id="patch_2">
    <path d="M 23.28 183.496 
L 264.72 183.496 
L 264.72 23.28 
L 23.28 23.28 
z
" style="fill:#ffffff;"/>
   </g>
   <g id="PolyCollection_1">
    <defs>
     <path d="M 34.254545 -111.786545 
L 34.254545 -254.750198 
L 38.733952 -257.437455 
L 43.213358 -181.346215 
L 47.692764 -139.715671 
L 52.172171 -125.914233 
L 56.651577 -120.615052 
L 61.130983 -118.183211 
L 65.61039 -116.517844 
L 70.089796 -114.912345 
L 74.569202 -114.107928 
L 79.048609 -113.816481 
L 83.528015 -113.771862 
L 88.007421 -113.678461 
L 92.486827 -113.590652 
L 96.966234 -113.422445 
L 101.44564 -112.986894 
L 105.925046 -112.638492 
L 110.404453 -112.494224 
L 114.883859 -112.511162 
L 119.363265 -112.465914 
L 123.842672 -112.501383 
L 128.322078 -112.459836 
L 132.801484 -112.21235 
L 137.280891 -112.042021 
L 141.760297 -111.99655 
L 146.239703 -111.941395 
L 150.719109 -111.946277 
L 155.198516 -111.938771 
L 159.677922 -111.848046 
L 164.157328 -111.837201 
L 168.636735 -111.869608 
L 173.116141 -111.869537 
L 177.595547 -111.832067 
L 182.074954 -111.792734 
L 186.55436 -111.786718 
L 191.033766 -111.786546 
L 195.513173 -111.786545 
L 199.992579 -111.786545 
L 204.471985 -111.786545 
L 208.951391 -111.786545 
L 213.430798 -111.786545 
L 217.910204 -111.786561 
L 222.38961 -111.787775 
L 226.869017 -111.806502 
L 231.348423 -111.851625 
L 235.827829 -111.829184 
L 240.307236 -111.792158 
L 244.786642 -111.786694 
L 249.266048 -111.786546 
L 253.745455 -111.786545 
L 253.745455 -111.786545 
L 253.745455 -111.786545 
L 249.266048 -111.786545 
L 244.786642 -111.786545 
L 240.307236 -111.786545 
L 235.827829 -111.786545 
L 231.348423 -111.786545 
L 226.869017 -111.786545 
L 222.38961 -111.786545 
L 217.910204 -111.786545 
L 213.430798 -111.786545 
L 208.951391 -111.786545 
L 204.471985 -111.786545 
L 199.992579 -111.786545 
L 195.513173 -111.786545 
L 191.033766 -111.786545 
L 186.55436 -111.786545 
L 182.074954 -111.786545 
L 177.595547 -111.786545 
L 173.116141 -111.786545 
L 168.636735 -111.786545 
L 164.157328 -111.786545 
L 159.677922 -111.786545 
L 155.198516 -111.786545 
L 150.719109 -111.786545 
L 146.239703 -111.786545 
L 141.760297 -111.786545 
L 137.280891 -111.786545 
L 132.801484 -111.786545 
L 128.322078 -111.786545 
L 123.842672 -111.786545 
L 119.363265 -111.786545 
L 114.883859 -111.786545 
L 110.404453 -111.786545 
L 105.925046 -111.786545 
L 101.44564 -111.786545 
L 96.966234 -111.786545 
L 92.486827 -111.786545 
L 88.007421 -111.786545 
L 83.528015 -111.786545 
L 79.048609 -111.786545 
L 74.569202 -111.786545 
L 70.089796 -111.786545 
L 65.61039 -111.786545 
L 61.130983 -111.786545 
L 56.651577 -111.786545 
L 52.172171 -111.786545 
L 47.692764 -111.786545 
L 43.213358 -111.786545 
L 38.733952 -111.786545 
L 34.254545 -111.786545 
z
" id="mb1c265de06" style="stroke:#e69f00;stroke-opacity:0.3;"/>
    </defs>
    <g clip-path="url(#pba7f266b62)">
     <use style="fill:#e69f00;fill-opacity:0.3;stroke:#e69f00;stroke-opacity:0.3;" x="0" xlink:href="#mb1c265de06" y="288"/>
    </g>
   </g>
   <g id="PolyCollection_2">
    <defs>
     <path d="M 34.254545 -111.786545 
L 34.254545 -157.880902 
L 38.733952 -160.511009 
L 43.213358 -158.50989 
L 47.692764 -152.786749 
L 52.172171 -145.111093 
L 56.651577 -137.288169 
L 61.130983 -130.544187 
L 65.61039 -125.36286 
L 70.089796 -121.676255 
L 74.569202 -119.164447 
L 79.048609 -117.480583 
L 83.528015 -116.351383 
L 88.007421 -115.589719 
L 92.486827 -115.072647 
L 96.966234 -114.718093 
L 101.44564 -114.470281 
L 105.925046 -114.291804 
L 110.404453 -114.15832 
L 114.883859 -114.054345 
L 119.363265 -113.970449 
L 123.842672 -113.901964 
L 128.322078 -113.848076 
L 132.801484 -113.809918 
L 137.280891 -113.78737 
L 141.760297 -113.775917 
L 146.239703 -113.765665 
L 150.719109 -113.743832 
L 155.198516 -113.699872 
L 159.677922 -113.630353 
L 164.157328 -113.540512 
L 168.636735 -113.441425 
L 173.116141 -113.344619 
L 177.595547 -113.257333 
L 182.074954 -113.180747 
L 186.55436 -113.111378 
L 191.033766 -113.044232 
L 195.513173 -112.975805 
L 199.992579 -112.905627 
L 204.471985 -112.835978 
L 208.951391 -112.770364 
L 213.430798 -112.71179 
L 217.910204 -112.661684 
L 222.38961 -112.619776 
L 226.869017 -112.584648 
L 231.348423 -112.554381 
L 235.827829 -112.526903 
L 240.307236 -112.500137 
L 244.786642 -112.472358 
L 249.266048 -112.443045 
L 253.745455 -112.414079 
L 253.745455 -111.786545 
L 253.745455 -111.786545 
L 249.266048 -111.786545 
L 244.786642 -111.786545 
L 240.307236 -111.786545 
L 235.827829 -111.786545 
L 231.348423 -111.786545 
L 226.869017 -111.786545 
L 222.38961 -111.786545 
L 217.910204 -111.786545 
L 213.430798 -111.786545 
L 208.951391 -111.786545 
L 204.471985 -111.786545 
L 199.992579 -111.786545 
L 195.513173 -111.786545 
L 191.033766 -111.786545 
L 186.55436 -111.786545 
L 182.074954 -111.786545 
L 177.595547 -111.786545 
L 173.116141 -111.786545 
L 168.636735 -111.786545 
L 164.157328 -111.786545 
L 159.677922 -111.786545 
L 155.198516 -111.786545 
L 150.719109 -111.786545 
L 146.239703 -111.786545 
L 141.760297 -111.786545 
L 137.280891 -111.786545 
L 132.801484 -111.786545 
L 128.322078 -111.786545 
L 123.842672 -111.786545 
L 119.363265 -111.786545 
L 114.883859 -111.786545 
L 110.404453 -111.786545 
L 105.925046 -111.786545 
L 101.44564 -111.786545 
L 96.966234 -111.786545 
L 92.486827 -111.786545 
L 88.007421 -111.786545 
L 83.528015 -111.786545 
L 79.048609 -111.786545 
L 74.569202 -111.786545 
L 70.089796 -111.786545 
L 65.61039 -111.786545 
L 61.130983 -111.786545 
L 56.651577 -111.786545 
L 52.172171 -111.786545 
L 47.692764 -111.786545 
L 43.213358 -111.786545 
L 38.733952 -111.786545 
L 34.254545 -111.786545 
z
" id="mef040ebe51" style="stroke:#424243;stroke-opacity:0.3;"/>
    </defs>
    <g clip-path="url(#pba7f266b62)">
     <use style="fill:#424243;fill-opacity:0.3;stroke:#424243;stroke-opacity:0.3;" x="0" xlink:href="#mef040ebe51" y="288"/>
    </g>
   </g>
   <g id="matplotlib.axis_1">
    <g id="xtick_1">
     <g id="line2d_1">
      <defs>
       <path d="M 0 0 
L 0 3.5 
" id="m615eb94eb8" style="stroke:#000000;stroke-width:0.8;"/>
      </defs>
      <g>
       <use style="stroke:#000000;stroke-width:0.8;" x="34.254545" xlink:href="#m615eb94eb8" y="183.496"/>
      </g>
     </g>
     <g id="text_1">
      <!-- 0 -->
      <defs>
       <path d="M 31.78125 66.40625 
Q 24.171875 66.40625 20.328125 58.90625 
Q 16.5 51.421875 16.5 36.375 
Q 16.5 21.390625 20.328125 13.890625 
Q 24.171875 6.390625 31.78125 6.390625 
Q 39.453125 6.390625 43.28125 13.890625 
Q 47.125 21.390625 47.125 36.375 
Q 47.125 51.421875 43.28125 58.90625 
Q 39.453125 66.40625 31.78125 66.40625 
z
M 31.78125 74.21875 
Q 44.046875 74.21875 50.515625 64.515625 
Q 56.984375 54.828125 56.984375 36.375 
Q 56.984375 17.96875 50.515625 8.265625 
Q 44.046875 -1.421875 31.78125 -1.421875 
Q 19.53125 -1.421875 13.0625 8.265625 
Q 6.59375 17.96875 6.59375 36.375 
Q 6.59375 54.828125 13.0625 64.515625 
Q 19.53125 74.21875 31.78125 74.21875 
z
" id="DejaVuSans-30"/>
      </defs>
      <g transform="translate(27.892045 205.692875)scale(0.2 -0.2)">
       <use xlink:href="#DejaVuSans-30"/>
      </g>
     </g>
    </g>
    <g id="xtick_2">
     <g id="line2d_2">
      <g>
       <use style="stroke:#000000;stroke-width:0.8;" x="99.657211" xlink:href="#m615eb94eb8" y="183.496"/>
      </g>
     </g>
     <g id="text_2">
      <!-- 25 -->
      <defs>
       <path d="M 19.1875 8.296875 
L 53.609375 8.296875 
L 53.609375 0 
L 7.328125 0 
L 7.328125 8.296875 
Q 12.9375 14.109375 22.625 23.890625 
Q 32.328125 33.6875 34.8125 36.53125 
Q 39.546875 41.84375 41.421875 45.53125 
Q 43.3125 49.21875 43.3125 52.78125 
Q 43.3125 58.59375 39.234375 62.25 
Q 35.15625 65.921875 28.609375 65.921875 
Q 23.96875 65.921875 18.8125 64.3125 
Q 13.671875 62.703125 7.8125 59.421875 
L 7.8125 69.390625 
Q 13.765625 71.78125 18.9375 73 
Q 24.125 74.21875 28.421875 74.21875 
Q 39.75 74.21875 46.484375 68.546875 
Q 53.21875 62.890625 53.21875 53.421875 
Q 53.21875 48.921875 51.53125 44.890625 
Q 49.859375 40.875 45.40625 35.40625 
Q 44.1875 33.984375 37.640625 27.21875 
Q 31.109375 20.453125 19.1875 8.296875 
z
" id="DejaVuSans-32"/>
       <path d="M 10.796875 72.90625 
L 49.515625 72.90625 
L 49.515625 64.59375 
L 19.828125 64.59375 
L 19.828125 46.734375 
Q 21.96875 47.46875 24.109375 47.828125 
Q 26.265625 48.1875 28.421875 48.1875 
Q 40.625 48.1875 47.75 41.5 
Q 54.890625 34.8125 54.890625 23.390625 
Q 54.890625 11.625 47.5625 5.09375 
Q 40.234375 -1.421875 26.90625 -1.421875 
Q 22.3125 -1.421875 17.546875 -0.640625 
Q 12.796875 0.140625 7.71875 1.703125 
L 7.71875 11.625 
Q 12.109375 9.234375 16.796875 8.0625 
Q 21.484375 6.890625 26.703125 6.890625 
Q 35.15625 6.890625 40.078125 11.328125 
Q 45.015625 15.765625 45.015625 23.390625 
Q 45.015625 31 40.078125 35.4375 
Q 35.15625 39.890625 26.703125 39.890625 
Q 22.75 39.890625 18.8125 39.015625 
Q 14.890625 38.140625 10.796875 36.28125 
z
" id="DejaVuSans-35"/>
      </defs>
      <g transform="translate(86.932211 205.692875)scale(0.2 -0.2)">
       <use xlink:href="#DejaVuSans-32"/>
       <use x="63.623047" xlink:href="#DejaVuSans-35"/>
      </g>
     </g>
    </g>
    <g id="xtick_3">
     <g id="line2d_3">
      <g>
       <use style="stroke:#000000;stroke-width:0.8;" x="165.059876" xlink:href="#m615eb94eb8" y="183.496"/>
      </g>
     </g>
     <g id="text_3">
      <!-- 50 -->
      <g transform="translate(152.334876 205.692875)scale(0.2 -0.2)">
       <use xlink:href="#DejaVuSans-35"/>
       <use x="63.623047" xlink:href="#DejaVuSans-30"/>
      </g>
     </g>
    </g>
    <g id="xtick_4">
     <g id="line2d_4">
      <g>
       <use style="stroke:#000000;stroke-width:0.8;" x="230.462542" xlink:href="#m615eb94eb8" y="183.496"/>
      </g>
     </g>
     <g id="text_4">
      <!-- 75 -->
      <defs>
       <path d="M 8.203125 72.90625 
L 55.078125 72.90625 
L 55.078125 68.703125 
L 28.609375 0 
L 18.3125 0 
L 43.21875 64.59375 
L 8.203125 64.59375 
z
" id="DejaVuSans-37"/>
      </defs>
      <g transform="translate(217.737542 205.692875)scale(0.2 -0.2)">
       <use xlink:href="#DejaVuSans-37"/>
       <use x="63.623047" xlink:href="#DejaVuSans-35"/>
      </g>
     </g>
    </g>
    <g id="text_5">
     <!-- bare ground -->
     <defs>
      <path d="M 48.6875 27.296875 
Q 48.6875 37.203125 44.609375 42.84375 
Q 40.53125 48.484375 33.40625 48.484375 
Q 26.265625 48.484375 22.1875 42.84375 
Q 18.109375 37.203125 18.109375 27.296875 
Q 18.109375 17.390625 22.1875 11.75 
Q 26.265625 6.109375 33.40625 6.109375 
Q 40.53125 6.109375 44.609375 11.75 
Q 48.6875 17.390625 48.6875 27.296875 
z
M 18.109375 46.390625 
Q 20.953125 51.265625 25.265625 53.625 
Q 29.59375 56 35.59375 56 
Q 45.5625 56 51.78125 48.09375 
Q 58.015625 40.1875 58.015625 27.296875 
Q 58.015625 14.40625 51.78125 6.484375 
Q 45.5625 -1.421875 35.59375 -1.421875 
Q 29.59375 -1.421875 25.265625 0.953125 
Q 20.953125 3.328125 18.109375 8.203125 
L 18.109375 0 
L 9.078125 0 
L 9.078125 75.984375 
L 18.109375 75.984375 
z
" id="DejaVuSans-62"/>
      <path d="M 34.28125 27.484375 
Q 23.390625 27.484375 19.1875 25 
Q 14.984375 22.515625 14.984375 16.5 
Q 14.984375 11.71875 18.140625 8.90625 
Q 21.296875 6.109375 26.703125 6.109375 
Q 34.1875 6.109375 38.703125 11.40625 
Q 43.21875 16.703125 43.21875 25.484375 
L 43.21875 27.484375 
z
M 52.203125 31.203125 
L 52.203125 0 
L 43.21875 0 
L 43.21875 8.296875 
Q 40.140625 3.328125 35.546875 0.953125 
Q 30.953125 -1.421875 24.3125 -1.421875 
Q 15.921875 -1.421875 10.953125 3.296875 
Q 6 8.015625 6 15.921875 
Q 6 25.140625 12.171875 29.828125 
Q 18.359375 34.515625 30.609375 34.515625 
L 43.21875 34.515625 
L 43.21875 35.40625 
Q 43.21875 41.609375 39.140625 45 
Q 35.0625 48.390625 27.6875 48.390625 
Q 23 48.390625 18.546875 47.265625 
Q 14.109375 46.140625 10.015625 43.890625 
L 10.015625 52.203125 
Q 14.9375 54.109375 19.578125 55.046875 
Q 24.21875 56 28.609375 56 
Q 40.484375 56 46.34375 49.84375 
Q 52.203125 43.703125 52.203125 31.203125 
z
" id="DejaVuSans-61"/>
      <path d="M 41.109375 46.296875 
Q 39.59375 47.171875 37.8125 47.578125 
Q 36.03125 48 33.890625 48 
Q 26.265625 48 22.1875 43.046875 
Q 18.109375 38.09375 18.109375 28.8125 
L 18.109375 0 
L 9.078125 0 
L 9.078125 54.6875 
L 18.109375 54.6875 
L 18.109375 46.1875 
Q 20.953125 51.171875 25.484375 53.578125 
Q 30.03125 56 36.53125 56 
Q 37.453125 56 38.578125 55.875 
Q 39.703125 55.765625 41.0625 55.515625 
z
" id="DejaVuSans-72"/>
      <path d="M 56.203125 29.59375 
L 56.203125 25.203125 
L 14.890625 25.203125 
Q 15.484375 15.921875 20.484375 11.0625 
Q 25.484375 6.203125 34.421875 6.203125 
Q 39.59375 6.203125 44.453125 7.46875 
Q 49.3125 8.734375 54.109375 11.28125 
L 54.109375 2.78125 
Q 49.265625 0.734375 44.1875 -0.34375 
Q 39.109375 -1.421875 33.890625 -1.421875 
Q 20.796875 -1.421875 13.15625 6.1875 
Q 5.515625 13.8125 5.515625 26.8125 
Q 5.515625 40.234375 12.765625 48.109375 
Q 20.015625 56 32.328125 56 
Q 43.359375 56 49.78125 48.890625 
Q 56.203125 41.796875 56.203125 29.59375 
z
M 47.21875 32.234375 
Q 47.125 39.59375 43.09375 43.984375 
Q 39.0625 48.390625 32.421875 48.390625 
Q 24.90625 48.390625 20.390625 44.140625 
Q 15.875 39.890625 15.1875 32.171875 
z
" id="DejaVuSans-65"/>
      <path id="DejaVuSans-20"/>
      <path d="M 45.40625 27.984375 
Q 45.40625 37.75 41.375 43.109375 
Q 37.359375 48.484375 30.078125 48.484375 
Q 22.859375 48.484375 18.828125 43.109375 
Q 14.796875 37.75 14.796875 27.984375 
Q 14.796875 18.265625 18.828125 12.890625 
Q 22.859375 7.515625 30.078125 7.515625 
Q 37.359375 7.515625 41.375 12.890625 
Q 45.40625 18.265625 45.40625 27.984375 
z
M 54.390625 6.78125 
Q 54.390625 -7.171875 48.1875 -13.984375 
Q 42 -20.796875 29.203125 -20.796875 
Q 24.46875 -20.796875 20.265625 -20.09375 
Q 16.0625 -19.390625 12.109375 -17.921875 
L 12.109375 -9.1875 
Q 16.0625 -11.328125 19.921875 -12.34375 
Q 23.78125 -13.375 27.78125 -13.375 
Q 36.625 -13.375 41.015625 -8.765625 
Q 45.40625 -4.15625 45.40625 5.171875 
L 45.40625 9.625 
Q 42.625 4.78125 38.28125 2.390625 
Q 33.9375 0 27.875 0 
Q 17.828125 0 11.671875 7.65625 
Q 5.515625 15.328125 5.515625 27.984375 
Q 5.515625 40.671875 11.671875 48.328125 
Q 17.828125 56 27.875 56 
Q 33.9375 56 38.28125 53.609375 
Q 42.625 51.21875 45.40625 46.390625 
L 45.40625 54.6875 
L 54.390625 54.6875 
z
" id="DejaVuSans-67"/>
      <path d="M 30.609375 48.390625 
Q 23.390625 48.390625 19.1875 42.75 
Q 14.984375 37.109375 14.984375 27.296875 
Q 14.984375 17.484375 19.15625 11.84375 
Q 23.34375 6.203125 30.609375 6.203125 
Q 37.796875 6.203125 41.984375 11.859375 
Q 46.1875 17.53125 46.1875 27.296875 
Q 46.1875 37.015625 41.984375 42.703125 
Q 37.796875 48.390625 30.609375 48.390625 
z
M 30.609375 56 
Q 42.328125 56 49.015625 48.375 
Q 55.71875 40.765625 55.71875 27.296875 
Q 55.71875 13.875 49.015625 6.21875 
Q 42.328125 -1.421875 30.609375 -1.421875 
Q 18.84375 -1.421875 12.171875 6.21875 
Q 5.515625 13.875 5.515625 27.296875 
Q 5.515625 40.765625 12.171875 48.375 
Q 18.84375 56 30.609375 56 
z
" id="DejaVuSans-6f"/>
      <path d="M 8.5 21.578125 
L 8.5 54.6875 
L 17.484375 54.6875 
L 17.484375 21.921875 
Q 17.484375 14.15625 20.5 10.265625 
Q 23.53125 6.390625 29.59375 6.390625 
Q 36.859375 6.390625 41.078125 11.03125 
Q 45.3125 15.671875 45.3125 23.6875 
L 45.3125 54.6875 
L 54.296875 54.6875 
L 54.296875 0 
L 45.3125 0 
L 45.3125 8.40625 
Q 42.046875 3.421875 37.71875 1 
Q 33.40625 -1.421875 27.6875 -1.421875 
Q 18.265625 -1.421875 13.375 4.4375 
Q 8.5 10.296875 8.5 21.578125 
z
M 31.109375 56 
z
" id="DejaVuSans-75"/>
      <path d="M 54.890625 33.015625 
L 54.890625 0 
L 45.90625 0 
L 45.90625 32.71875 
Q 45.90625 40.484375 42.875 44.328125 
Q 39.84375 48.1875 33.796875 48.1875 
Q 26.515625 48.1875 22.3125 43.546875 
Q 18.109375 38.921875 18.109375 30.90625 
L 18.109375 0 
L 9.078125 0 
L 9.078125 54.6875 
L 18.109375 54.6875 
L 18.109375 46.1875 
Q 21.34375 51.125 25.703125 53.5625 
Q 30.078125 56 35.796875 56 
Q 45.21875 56 50.046875 50.171875 
Q 54.890625 44.34375 54.890625 33.015625 
z
" id="DejaVuSans-6e"/>
      <path d="M 45.40625 46.390625 
L 45.40625 75.984375 
L 54.390625 75.984375 
L 54.390625 0 
L 45.40625 0 
L 45.40625 8.203125 
Q 42.578125 3.328125 38.25 0.953125 
Q 33.9375 -1.421875 27.875 -1.421875 
Q 17.96875 -1.421875 11.734375 6.484375 
Q 5.515625 14.40625 5.515625 27.296875 
Q 5.515625 40.1875 11.734375 48.09375 
Q 17.96875 56 27.875 56 
Q 33.9375 56 38.25 53.625 
Q 42.578125 51.265625 45.40625 46.390625 
z
M 14.796875 27.296875 
Q 14.796875 17.390625 18.875 11.75 
Q 22.953125 6.109375 30.078125 6.109375 
Q 37.203125 6.109375 41.296875 11.75 
Q 45.40625 17.390625 45.40625 27.296875 
Q 45.40625 37.203125 41.296875 42.84375 
Q 37.203125 48.484375 30.078125 48.484375 
Q 22.953125 48.484375 18.875 42.84375 
Q 14.796875 37.203125 14.796875 27.296875 
z
" id="DejaVuSans-64"/>
     </defs>
     <g transform="translate(67.107422 232.848344)scale(0.25 -0.25)">
      <use xlink:href="#DejaVuSans-62"/>
      <use x="63.476562" xlink:href="#DejaVuSans-61"/>
      <use x="124.755859" xlink:href="#DejaVuSans-72"/>
      <use x="165.837891" xlink:href="#DejaVuSans-65"/>
      <use x="227.361328" xlink:href="#DejaVuSans-20"/>
      <use x="259.148438" xlink:href="#DejaVuSans-67"/>
      <use x="322.625" xlink:href="#DejaVuSans-72"/>
      <use x="363.707031" xlink:href="#DejaVuSans-6f"/>
      <use x="424.888672" xlink:href="#DejaVuSans-75"/>
      <use x="488.267578" xlink:href="#DejaVuSans-6e"/>
      <use x="551.646484" xlink:href="#DejaVuSans-64"/>
     </g>
     <!--   -->
     <g transform="translate(140.027344 260.842875)scale(0.25 -0.25)">
      <use xlink:href="#DejaVuSans-20"/>
     </g>
    </g>
   </g>
   <g id="line2d_5">
    <path clip-path="url(#pba7f266b62)" d="M 34.254545 33.249802 
L 38.733952 30.562545 
L 43.213358 106.653785 
L 47.692764 148.284329 
L 52.172171 162.085767 
L 56.651577 167.384948 
L 61.130983 169.816789 
L 65.61039 171.482156 
L 70.089796 173.087655 
L 74.569202 173.892072 
L 79.048609 174.183519 
L 83.528015 174.228138 
L 88.007421 174.321539 
L 92.486827 174.409348 
L 96.966234 174.577555 
L 101.44564 175.013106 
L 105.925046 175.361508 
L 110.404453 175.505776 
L 114.883859 175.488838 
L 119.363265 175.534086 
L 123.842672 175.498617 
L 128.322078 175.540164 
L 132.801484 175.78765 
L 137.280891 175.957979 
L 141.760297 176.00345 
L 146.239703 176.058605 
L 150.719109 176.053723 
L 155.198516 176.061229 
L 159.677922 176.151954 
L 164.157328 176.162799 
L 168.636735 176.130392 
L 173.116141 176.130463 
L 177.595547 176.167933 
L 182.074954 176.207266 
L 186.55436 176.213282 
L 191.033766 176.213454 
L 195.513173 176.213455 
L 199.992579 176.213455 
L 204.471985 176.213455 
L 208.951391 176.213455 
L 213.430798 176.213455 
L 217.910204 176.213439 
L 222.38961 176.212225 
L 226.869017 176.193498 
L 231.348423 176.148375 
L 235.827829 176.170816 
L 240.307236 176.207842 
L 244.786642 176.213306 
L 249.266048 176.213454 
L 253.745455 176.213455 
" style="fill:none;stroke:#e69f00;stroke-linecap:square;stroke-width:2;"/>
   </g>
   <g id="line2d_6">
    <path clip-path="url(#pba7f266b62)" d="M 34.254545 130.119098 
L 38.733952 127.488991 
L 43.213358 129.49011 
L 47.692764 135.213251 
L 52.172171 142.888907 
L 56.651577 150.711831 
L 61.130983 157.455813 
L 65.61039 162.63714 
L 70.089796 166.323745 
L 74.569202 168.835553 
L 79.048609 170.519417 
L 83.528015 171.648617 
L 88.007421 172.410281 
L 92.486827 172.927353 
L 96.966234 173.281907 
L 101.44564 173.529719 
L 105.925046 173.708196 
L 110.404453 173.84168 
L 114.883859 173.945655 
L 119.363265 174.029551 
L 123.842672 174.098036 
L 128.322078 174.151924 
L 132.801484 174.190082 
L 137.280891 174.21263 
L 141.760297 174.224083 
L 146.239703 174.234335 
L 150.719109 174.256168 
L 155.198516 174.300128 
L 159.677922 174.369647 
L 164.157328 174.459488 
L 168.636735 174.558575 
L 173.116141 174.655381 
L 177.595547 174.742667 
L 182.074954 174.819253 
L 186.55436 174.888622 
L 191.033766 174.955768 
L 195.513173 175.024195 
L 199.992579 175.094373 
L 204.471985 175.164022 
L 208.951391 175.229636 
L 213.430798 175.28821 
L 217.910204 175.338316 
L 222.38961 175.380224 
L 226.869017 175.415352 
L 231.348423 175.445619 
L 235.827829 175.473097 
L 240.307236 175.499863 
L 244.786642 175.527642 
L 249.266048 175.556955 
L 253.745455 175.585921 
" style="fill:none;stroke:#424243;stroke-linecap:square;stroke-width:2;"/>
   </g>
   <g id="patch_3">
    <path d="M 23.28 183.496 
L 264.72 183.496 
" style="fill:none;stroke:#000000;stroke-linecap:square;stroke-linejoin:miter;stroke-width:0.8;"/>
   </g>
  </g>
 </g>
 <defs>
  <clipPath id="pba7f266b62">
   <rect height="160.216" width="241.44" x="23.28" y="23.28"/>
  </clipPath>
 </defs>
</svg>
