<?xml version="1.0" encoding="utf-8" standalone="no"?>
<!DOCTYPE svg PUBLIC "-//W3C//DTD SVG 1.1//EN"
  "http://www.w3.org/Graphics/SVG/1.1/DTD/svg11.dtd">
<!-- Created with matplotlib (http://matplotlib.org/) -->
<svg height="288pt" version="1.1" viewBox="0 0 288 288" width="288pt" xmlns="http://www.w3.org/2000/svg" xmlns:xlink="http://www.w3.org/1999/xlink">
 <defs>
  <style type="text/css">
*{stroke-linecap:butt;stroke-linejoin:round;}
  </style>
 </defs>
 <g id="figure_1">
  <g id="patch_1">
   <path d="M 0 288 
L 288 288 
L 288 0 
L 0 0 
z
" style="fill:#ffffff;"/>
  </g>
  <g id="axes_1">
   <g id="patch_2">
    <path d="M 25.644493 183.67 
L 264.825 183.67 
L 264.825 23.175 
L 25.644493 23.175 
z
" style="fill:#ffffff;"/>
   </g>
   <g id="PolyCollection_1">
    <defs>
     <path d="M 36.516334 -111.625227 
L 36.516334 -139.377395 
L 40.95382 -157.171092 
L 45.391306 -176.3381 
L 49.828792 -200.200331 
L 54.266279 -228.899887 
L 58.703765 -252.045569 
L 63.141251 -257.529773 
L 67.578737 -245.139921 
L 72.016224 -223.332992 
L 76.45371 -201.232092 
L 80.891196 -184.083859 
L 85.328682 -172.551136 
L 89.766168 -164.515321 
L 94.203655 -157.144172 
L 98.641141 -149.288914 
L 103.078627 -141.656566 
L 107.516113 -135.79295 
L 111.9536 -132.4554 
L 116.391086 -130.037919 
L 120.828572 -126.608095 
L 125.266058 -122.508111 
L 129.703544 -119.22547 
L 134.141031 -117.183661 
L 138.578517 -115.914735 
L 143.016003 -114.910421 
L 147.453489 -114.017268 
L 151.890976 -113.309101 
L 156.328462 -112.758485 
L 160.765948 -112.290548 
L 165.203434 -111.952683 
L 169.64092 -111.818272 
L 174.078407 -111.852528 
L 178.515893 -111.950326 
L 182.953379 -111.964103 
L 187.390865 -111.837845 
L 191.828352 -111.706802 
L 196.265838 -111.671462 
L 200.703324 -111.697891 
L 205.14081 -111.723162 
L 209.578297 -111.736149 
L 214.015783 -111.757085 
L 218.453269 -111.784863 
L 222.890755 -111.777434 
L 227.328241 -111.714318 
L 231.765728 -111.653847 
L 236.203214 -111.630101 
L 240.6407 -111.625663 
L 245.078186 -111.625248 
L 249.515673 -111.625228 
L 253.953159 -111.625227 
L 253.953159 -111.625227 
L 253.953159 -111.625227 
L 249.515673 -111.625227 
L 245.078186 -111.625227 
L 240.6407 -111.625227 
L 236.203214 -111.625227 
L 231.765728 -111.625227 
L 227.328241 -111.625227 
L 222.890755 -111.625227 
L 218.453269 -111.625227 
L 214.015783 -111.625227 
L 209.578297 -111.625227 
L 205.14081 -111.625227 
L 200.703324 -111.625227 
L 196.265838 -111.625227 
L 191.828352 -111.625227 
L 187.390865 -111.625227 
L 182.953379 -111.625227 
L 178.515893 -111.625227 
L 174.078407 -111.625227 
L 169.64092 -111.625227 
L 165.203434 -111.625227 
L 160.765948 -111.625227 
L 156.328462 -111.625227 
L 151.890976 -111.625227 
L 147.453489 -111.625227 
L 143.016003 -111.625227 
L 138.578517 -111.625227 
L 134.141031 -111.625227 
L 129.703544 -111.625227 
L 125.266058 -111.625227 
L 120.828572 -111.625227 
L 116.391086 -111.625227 
L 111.9536 -111.625227 
L 107.516113 -111.625227 
L 103.078627 -111.625227 
L 98.641141 -111.625227 
L 94.203655 -111.625227 
L 89.766168 -111.625227 
L 85.328682 -111.625227 
L 80.891196 -111.625227 
L 76.45371 -111.625227 
L 72.016224 -111.625227 
L 67.578737 -111.625227 
L 63.141251 -111.625227 
L 58.703765 -111.625227 
L 54.266279 -111.625227 
L 49.828792 -111.625227 
L 45.391306 -111.625227 
L 40.95382 -111.625227 
L 36.516334 -111.625227 
z
" id="mcf521c97c5" style="stroke:#cc79a7;stroke-opacity:0.3;"/>
    </defs>
    <g clip-path="url(#p91849278b0)">
     <use style="fill:#cc79a7;fill-opacity:0.3;stroke:#cc79a7;stroke-opacity:0.3;" x="0" xlink:href="#mcf521c97c5" y="288"/>
    </g>
   </g>
   <g id="PolyCollection_2">
    <defs>
     <path d="M 36.516334 -111.625227 
L 36.516334 -157.664228 
L 40.95382 -168.53296 
L 45.391306 -177.879745 
L 49.828792 -184.831524 
L 54.266279 -188.895509 
L 58.703765 -189.959993 
L 63.141251 -188.257072 
L 67.578737 -184.302682 
L 72.016224 -178.794259 
L 76.45371 -172.470077 
L 80.891196 -165.977258 
L 85.328682 -159.798272 
L 89.766168 -154.244886 
L 94.203655 -149.489284 
L 98.641141 -145.597617 
L 103.078627 -142.552025 
L 107.516113 -140.265326 
L 111.9536 -138.595822 
L 116.391086 -137.365279 
L 120.828572 -136.380451 
L 125.266058 -135.457625 
L 129.703544 -134.447211 
L 134.141031 -133.252306 
L 138.578517 -131.835413 
L 143.016003 -130.212134 
L 147.453489 -128.436213 
L 151.890976 -126.582489 
L 156.328462 -124.732365 
L 160.765948 -122.962952 
L 165.203434 -121.339334 
L 169.64092 -119.909637 
L 174.078407 -118.702906 
L 178.515893 -117.728937 
L 182.953379 -116.978766 
L 187.390865 -116.425837 
L 191.828352 -116.029724 
L 196.265838 -115.743781 
L 200.703324 -115.52493 
L 205.14081 -115.341246 
L 209.578297 -115.173842 
L 214.015783 -115.01328 
L 218.453269 -114.854154 
L 222.890755 -114.692046 
L 227.328241 -114.524413 
L 231.765728 -114.353408 
L 236.203214 -114.186938 
L 240.6407 -114.035803 
L 245.078186 -113.908149 
L 249.515673 -113.804835 
L 253.953159 -113.718929 
L 253.953159 -111.625227 
L 253.953159 -111.625227 
L 249.515673 -111.625227 
L 245.078186 -111.625227 
L 240.6407 -111.625227 
L 236.203214 -111.625227 
L 231.765728 -111.625227 
L 227.328241 -111.625227 
L 222.890755 -111.625227 
L 218.453269 -111.625227 
L 214.015783 -111.625227 
L 209.578297 -111.625227 
L 205.14081 -111.625227 
L 200.703324 -111.625227 
L 196.265838 -111.625227 
L 191.828352 -111.625227 
L 187.390865 -111.625227 
L 182.953379 -111.625227 
L 178.515893 -111.625227 
L 174.078407 -111.625227 
L 169.64092 -111.625227 
L 165.203434 -111.625227 
L 160.765948 -111.625227 
L 156.328462 -111.625227 
L 151.890976 -111.625227 
L 147.453489 -111.625227 
L 143.016003 -111.625227 
L 138.578517 -111.625227 
L 134.141031 -111.625227 
L 129.703544 -111.625227 
L 125.266058 -111.625227 
L 120.828572 -111.625227 
L 116.391086 -111.625227 
L 111.9536 -111.625227 
L 107.516113 -111.625227 
L 103.078627 -111.625227 
L 98.641141 -111.625227 
L 94.203655 -111.625227 
L 89.766168 -111.625227 
L 85.328682 -111.625227 
L 80.891196 -111.625227 
L 76.45371 -111.625227 
L 72.016224 -111.625227 
L 67.578737 -111.625227 
L 63.141251 -111.625227 
L 58.703765 -111.625227 
L 54.266279 -111.625227 
L 49.828792 -111.625227 
L 45.391306 -111.625227 
L 40.95382 -111.625227 
L 36.516334 -111.625227 
z
" id="m98ec8f8d19" style="stroke:#424243;stroke-opacity:0.3;"/>
    </defs>
    <g clip-path="url(#p91849278b0)">
     <use style="fill:#424243;fill-opacity:0.3;stroke:#424243;stroke-opacity:0.3;" x="0" xlink:href="#m98ec8f8d19" y="288"/>
    </g>
   </g>
   <g id="matplotlib.axis_1">
    <g id="xtick_1">
     <g id="line2d_1">
      <defs>
       <path d="M 0 0 
L 0 3.5 
" id="m20e7c500fe" style="stroke:#000000;stroke-width:0.8;"/>
      </defs>
      <g>
       <use style="stroke:#000000;stroke-width:0.8;" x="29.193876" xlink:href="#m20e7c500fe" y="183.67"/>
      </g>
     </g>
     <g id="text_1">
      <!-- 0 -->
      <defs>
       <path d="M 31.78125 66.40625 
Q 24.171875 66.40625 20.328125 58.90625 
Q 16.5 51.421875 16.5 36.375 
Q 16.5 21.390625 20.328125 13.890625 
Q 24.171875 6.390625 31.78125 6.390625 
Q 39.453125 6.390625 43.28125 13.890625 
Q 47.125 21.390625 47.125 36.375 
Q 47.125 51.421875 43.28125 58.90625 
Q 39.453125 66.40625 31.78125 66.40625 
z
M 31.78125 74.21875 
Q 44.046875 74.21875 50.515625 64.515625 
Q 56.984375 54.828125 56.984375 36.375 
Q 56.984375 17.96875 50.515625 8.265625 
Q 44.046875 -1.421875 31.78125 -1.421875 
Q 19.53125 -1.421875 13.0625 8.265625 
Q 6.59375 17.96875 6.59375 36.375 
Q 6.59375 54.828125 13.0625 64.515625 
Q 19.53125 74.21875 31.78125 74.21875 
z
" id="DejaVuSans-30"/>
      </defs>
      <g transform="translate(22.831376 205.866875)scale(0.2 -0.2)">
       <use xlink:href="#DejaVuSans-30"/>
      </g>
     </g>
    </g>
    <g id="xtick_2">
     <g id="line2d_2">
      <g>
       <use style="stroke:#000000;stroke-width:0.8;" x="112.039591" xlink:href="#m20e7c500fe" y="183.67"/>
      </g>
     </g>
     <g id="text_2">
      <!-- 50 -->
      <defs>
       <path d="M 10.796875 72.90625 
L 49.515625 72.90625 
L 49.515625 64.59375 
L 19.828125 64.59375 
L 19.828125 46.734375 
Q 21.96875 47.46875 24.109375 47.828125 
Q 26.265625 48.1875 28.421875 48.1875 
Q 40.625 48.1875 47.75 41.5 
Q 54.890625 34.8125 54.890625 23.390625 
Q 54.890625 11.625 47.5625 5.09375 
Q 40.234375 -1.421875 26.90625 -1.421875 
Q 22.3125 -1.421875 17.546875 -0.640625 
Q 12.796875 0.140625 7.71875 1.703125 
L 7.71875 11.625 
Q 12.109375 9.234375 16.796875 8.0625 
Q 21.484375 6.890625 26.703125 6.890625 
Q 35.15625 6.890625 40.078125 11.328125 
Q 45.015625 15.765625 45.015625 23.390625 
Q 45.015625 31 40.078125 35.4375 
Q 35.15625 39.890625 26.703125 39.890625 
Q 22.75 39.890625 18.8125 39.015625 
Q 14.890625 38.140625 10.796875 36.28125 
z
" id="DejaVuSans-35"/>
      </defs>
      <g transform="translate(99.314591 205.866875)scale(0.2 -0.2)">
       <use xlink:href="#DejaVuSans-35"/>
       <use x="63.623047" xlink:href="#DejaVuSans-30"/>
      </g>
     </g>
    </g>
    <g id="xtick_3">
     <g id="line2d_3">
      <g>
       <use style="stroke:#000000;stroke-width:0.8;" x="194.885307" xlink:href="#m20e7c500fe" y="183.67"/>
      </g>
     </g>
     <g id="text_3">
      <!-- 100 -->
      <defs>
       <path d="M 12.40625 8.296875 
L 28.515625 8.296875 
L 28.515625 63.921875 
L 10.984375 60.40625 
L 10.984375 69.390625 
L 28.421875 72.90625 
L 38.28125 72.90625 
L 38.28125 8.296875 
L 54.390625 8.296875 
L 54.390625 0 
L 12.40625 0 
z
" id="DejaVuSans-31"/>
      </defs>
      <g transform="translate(175.797807 205.866875)scale(0.2 -0.2)">
       <use xlink:href="#DejaVuSans-31"/>
       <use x="63.623047" xlink:href="#DejaVuSans-30"/>
       <use x="127.246094" xlink:href="#DejaVuSans-30"/>
      </g>
     </g>
    </g>
    <g id="text_4">
     <!-- temperature -->
     <defs>
      <path d="M 18.3125 70.21875 
L 18.3125 54.6875 
L 36.8125 54.6875 
L 36.8125 47.703125 
L 18.3125 47.703125 
L 18.3125 18.015625 
Q 18.3125 11.328125 20.140625 9.421875 
Q 21.96875 7.515625 27.59375 7.515625 
L 36.8125 7.515625 
L 36.8125 0 
L 27.59375 0 
Q 17.1875 0 13.234375 3.875 
Q 9.28125 7.765625 9.28125 18.015625 
L 9.28125 47.703125 
L 2.6875 47.703125 
L 2.6875 54.6875 
L 9.28125 54.6875 
L 9.28125 70.21875 
z
" id="DejaVuSans-74"/>
      <path d="M 56.203125 29.59375 
L 56.203125 25.203125 
L 14.890625 25.203125 
Q 15.484375 15.921875 20.484375 11.0625 
Q 25.484375 6.203125 34.421875 6.203125 
Q 39.59375 6.203125 44.453125 7.46875 
Q 49.3125 8.734375 54.109375 11.28125 
L 54.109375 2.78125 
Q 49.265625 0.734375 44.1875 -0.34375 
Q 39.109375 -1.421875 33.890625 -1.421875 
Q 20.796875 -1.421875 13.15625 6.1875 
Q 5.515625 13.8125 5.515625 26.8125 
Q 5.515625 40.234375 12.765625 48.109375 
Q 20.015625 56 32.328125 56 
Q 43.359375 56 49.78125 48.890625 
Q 56.203125 41.796875 56.203125 29.59375 
z
M 47.21875 32.234375 
Q 47.125 39.59375 43.09375 43.984375 
Q 39.0625 48.390625 32.421875 48.390625 
Q 24.90625 48.390625 20.390625 44.140625 
Q 15.875 39.890625 15.1875 32.171875 
z
" id="DejaVuSans-65"/>
      <path d="M 52 44.1875 
Q 55.375 50.25 60.0625 53.125 
Q 64.75 56 71.09375 56 
Q 79.640625 56 84.28125 50.015625 
Q 88.921875 44.046875 88.921875 33.015625 
L 88.921875 0 
L 79.890625 0 
L 79.890625 32.71875 
Q 79.890625 40.578125 77.09375 44.375 
Q 74.3125 48.1875 68.609375 48.1875 
Q 61.625 48.1875 57.5625 43.546875 
Q 53.515625 38.921875 53.515625 30.90625 
L 53.515625 0 
L 44.484375 0 
L 44.484375 32.71875 
Q 44.484375 40.625 41.703125 44.40625 
Q 38.921875 48.1875 33.109375 48.1875 
Q 26.21875 48.1875 22.15625 43.53125 
Q 18.109375 38.875 18.109375 30.90625 
L 18.109375 0 
L 9.078125 0 
L 9.078125 54.6875 
L 18.109375 54.6875 
L 18.109375 46.1875 
Q 21.1875 51.21875 25.484375 53.609375 
Q 29.78125 56 35.6875 56 
Q 41.65625 56 45.828125 52.96875 
Q 50 49.953125 52 44.1875 
z
" id="DejaVuSans-6d"/>
      <path d="M 18.109375 8.203125 
L 18.109375 -20.796875 
L 9.078125 -20.796875 
L 9.078125 54.6875 
L 18.109375 54.6875 
L 18.109375 46.390625 
Q 20.953125 51.265625 25.265625 53.625 
Q 29.59375 56 35.59375 56 
Q 45.5625 56 51.78125 48.09375 
Q 58.015625 40.1875 58.015625 27.296875 
Q 58.015625 14.40625 51.78125 6.484375 
Q 45.5625 -1.421875 35.59375 -1.421875 
Q 29.59375 -1.421875 25.265625 0.953125 
Q 20.953125 3.328125 18.109375 8.203125 
z
M 48.6875 27.296875 
Q 48.6875 37.203125 44.609375 42.84375 
Q 40.53125 48.484375 33.40625 48.484375 
Q 26.265625 48.484375 22.1875 42.84375 
Q 18.109375 37.203125 18.109375 27.296875 
Q 18.109375 17.390625 22.1875 11.75 
Q 26.265625 6.109375 33.40625 6.109375 
Q 40.53125 6.109375 44.609375 11.75 
Q 48.6875 17.390625 48.6875 27.296875 
z
" id="DejaVuSans-70"/>
      <path d="M 41.109375 46.296875 
Q 39.59375 47.171875 37.8125 47.578125 
Q 36.03125 48 33.890625 48 
Q 26.265625 48 22.1875 43.046875 
Q 18.109375 38.09375 18.109375 28.8125 
L 18.109375 0 
L 9.078125 0 
L 9.078125 54.6875 
L 18.109375 54.6875 
L 18.109375 46.1875 
Q 20.953125 51.171875 25.484375 53.578125 
Q 30.03125 56 36.53125 56 
Q 37.453125 56 38.578125 55.875 
Q 39.703125 55.765625 41.0625 55.515625 
z
" id="DejaVuSans-72"/>
      <path d="M 34.28125 27.484375 
Q 23.390625 27.484375 19.1875 25 
Q 14.984375 22.515625 14.984375 16.5 
Q 14.984375 11.71875 18.140625 8.90625 
Q 21.296875 6.109375 26.703125 6.109375 
Q 34.1875 6.109375 38.703125 11.40625 
Q 43.21875 16.703125 43.21875 25.484375 
L 43.21875 27.484375 
z
M 52.203125 31.203125 
L 52.203125 0 
L 43.21875 0 
L 43.21875 8.296875 
Q 40.140625 3.328125 35.546875 0.953125 
Q 30.953125 -1.421875 24.3125 -1.421875 
Q 15.921875 -1.421875 10.953125 3.296875 
Q 6 8.015625 6 15.921875 
Q 6 25.140625 12.171875 29.828125 
Q 18.359375 34.515625 30.609375 34.515625 
L 43.21875 34.515625 
L 43.21875 35.40625 
Q 43.21875 41.609375 39.140625 45 
Q 35.0625 48.390625 27.6875 48.390625 
Q 23 48.390625 18.546875 47.265625 
Q 14.109375 46.140625 10.015625 43.890625 
L 10.015625 52.203125 
Q 14.9375 54.109375 19.578125 55.046875 
Q 24.21875 56 28.609375 56 
Q 40.484375 56 46.34375 49.84375 
Q 52.203125 43.703125 52.203125 31.203125 
z
" id="DejaVuSans-61"/>
      <path d="M 8.5 21.578125 
L 8.5 54.6875 
L 17.484375 54.6875 
L 17.484375 21.921875 
Q 17.484375 14.15625 20.5 10.265625 
Q 23.53125 6.390625 29.59375 6.390625 
Q 36.859375 6.390625 41.078125 11.03125 
Q 45.3125 15.671875 45.3125 23.6875 
L 45.3125 54.6875 
L 54.296875 54.6875 
L 54.296875 0 
L 45.3125 0 
L 45.3125 8.40625 
Q 42.046875 3.421875 37.71875 1 
Q 33.40625 -1.421875 27.6875 -1.421875 
Q 18.265625 -1.421875 13.375 4.4375 
Q 8.5 10.296875 8.5 21.578125 
z
M 31.109375 56 
z
" id="DejaVuSans-75"/>
     </defs>
     <g transform="translate(66.392949 233.022344)scale(0.25 -0.25)">
      <use xlink:href="#DejaVuSans-74"/>
      <use x="39.208984" xlink:href="#DejaVuSans-65"/>
      <use x="100.732422" xlink:href="#DejaVuSans-6d"/>
      <use x="198.144531" xlink:href="#DejaVuSans-70"/>
      <use x="261.621094" xlink:href="#DejaVuSans-65"/>
      <use x="323.144531" xlink:href="#DejaVuSans-72"/>
      <use x="364.257812" xlink:href="#DejaVuSans-61"/>
      <use x="425.537109" xlink:href="#DejaVuSans-74"/>
      <use x="464.746094" xlink:href="#DejaVuSans-75"/>
      <use x="528.125" xlink:href="#DejaVuSans-72"/>
      <use x="569.207031" xlink:href="#DejaVuSans-65"/>
     </g>
     <!-- variance -->
     <defs>
      <path d="M 2.984375 54.6875 
L 12.5 54.6875 
L 29.59375 8.796875 
L 46.6875 54.6875 
L 56.203125 54.6875 
L 35.6875 0 
L 23.484375 0 
z
" id="DejaVuSans-76"/>
      <path d="M 9.421875 54.6875 
L 18.40625 54.6875 
L 18.40625 0 
L 9.421875 0 
z
M 9.421875 75.984375 
L 18.40625 75.984375 
L 18.40625 64.59375 
L 9.421875 64.59375 
z
" id="DejaVuSans-69"/>
      <path d="M 54.890625 33.015625 
L 54.890625 0 
L 45.90625 0 
L 45.90625 32.71875 
Q 45.90625 40.484375 42.875 44.328125 
Q 39.84375 48.1875 33.796875 48.1875 
Q 26.515625 48.1875 22.3125 43.546875 
Q 18.109375 38.921875 18.109375 30.90625 
L 18.109375 0 
L 9.078125 0 
L 9.078125 54.6875 
L 18.109375 54.6875 
L 18.109375 46.1875 
Q 21.34375 51.125 25.703125 53.5625 
Q 30.078125 56 35.796875 56 
Q 45.21875 56 50.046875 50.171875 
Q 54.890625 44.34375 54.890625 33.015625 
z
" id="DejaVuSans-6e"/>
      <path d="M 48.78125 52.59375 
L 48.78125 44.1875 
Q 44.96875 46.296875 41.140625 47.34375 
Q 37.3125 48.390625 33.40625 48.390625 
Q 24.65625 48.390625 19.8125 42.84375 
Q 14.984375 37.3125 14.984375 27.296875 
Q 14.984375 17.28125 19.8125 11.734375 
Q 24.65625 6.203125 33.40625 6.203125 
Q 37.3125 6.203125 41.140625 7.25 
Q 44.96875 8.296875 48.78125 10.40625 
L 48.78125 2.09375 
Q 45.015625 0.34375 40.984375 -0.53125 
Q 36.96875 -1.421875 32.421875 -1.421875 
Q 20.0625 -1.421875 12.78125 6.34375 
Q 5.515625 14.109375 5.515625 27.296875 
Q 5.515625 40.671875 12.859375 48.328125 
Q 20.21875 56 33.015625 56 
Q 37.15625 56 41.109375 55.140625 
Q 45.0625 54.296875 48.78125 52.59375 
z
" id="DejaVuSans-63"/>
     </defs>
     <g transform="translate(91.41834 261.016875)scale(0.25 -0.25)">
      <use xlink:href="#DejaVuSans-76"/>
      <use x="59.179688" xlink:href="#DejaVuSans-61"/>
      <use x="120.458984" xlink:href="#DejaVuSans-72"/>
      <use x="161.572266" xlink:href="#DejaVuSans-69"/>
      <use x="189.355469" xlink:href="#DejaVuSans-61"/>
      <use x="250.634766" xlink:href="#DejaVuSans-6e"/>
      <use x="314.013672" xlink:href="#DejaVuSans-63"/>
      <use x="368.994141" xlink:href="#DejaVuSans-65"/>
     </g>
    </g>
   </g>
   <g id="line2d_4">
    <path clip-path="url(#p91849278b0)" d="M 36.516334 148.622605 
L 40.95382 130.828908 
L 45.391306 111.6619 
L 49.828792 87.799669 
L 54.266279 59.100113 
L 58.703765 35.954431 
L 63.141251 30.470227 
L 67.578737 42.860079 
L 72.016224 64.667008 
L 76.45371 86.767908 
L 80.891196 103.916141 
L 85.328682 115.448864 
L 89.766168 123.484679 
L 94.203655 130.855828 
L 98.641141 138.711086 
L 103.078627 146.343434 
L 107.516113 152.20705 
L 111.9536 155.5446 
L 116.391086 157.962081 
L 120.828572 161.391905 
L 125.266058 165.491889 
L 129.703544 168.77453 
L 134.141031 170.816339 
L 138.578517 172.085265 
L 143.016003 173.089579 
L 147.453489 173.982732 
L 151.890976 174.690899 
L 156.328462 175.241515 
L 160.765948 175.709452 
L 165.203434 176.047317 
L 169.64092 176.181728 
L 174.078407 176.147472 
L 178.515893 176.049674 
L 182.953379 176.035897 
L 187.390865 176.162155 
L 191.828352 176.293198 
L 196.265838 176.328538 
L 200.703324 176.302109 
L 205.14081 176.276838 
L 209.578297 176.263851 
L 214.015783 176.242915 
L 218.453269 176.215137 
L 222.890755 176.222566 
L 227.328241 176.285682 
L 231.765728 176.346153 
L 236.203214 176.369899 
L 240.6407 176.374337 
L 245.078186 176.374752 
L 249.515673 176.374772 
L 253.953159 176.374773 
" style="fill:none;stroke:#cc79a7;stroke-linecap:square;stroke-width:2;"/>
   </g>
   <g id="line2d_5">
    <path clip-path="url(#p91849278b0)" d="M 36.516334 130.335772 
L 40.95382 119.46704 
L 45.391306 110.120255 
L 49.828792 103.168476 
L 54.266279 99.104491 
L 58.703765 98.040007 
L 63.141251 99.742928 
L 67.578737 103.697318 
L 72.016224 109.205741 
L 76.45371 115.529923 
L 80.891196 122.022742 
L 85.328682 128.201728 
L 89.766168 133.755114 
L 94.203655 138.510716 
L 98.641141 142.402383 
L 103.078627 145.447975 
L 107.516113 147.734674 
L 111.9536 149.404178 
L 116.391086 150.634721 
L 120.828572 151.619549 
L 125.266058 152.542375 
L 129.703544 153.552789 
L 134.141031 154.747694 
L 138.578517 156.164587 
L 143.016003 157.787866 
L 147.453489 159.563787 
L 151.890976 161.417511 
L 156.328462 163.267635 
L 160.765948 165.037048 
L 165.203434 166.660666 
L 169.64092 168.090363 
L 174.078407 169.297094 
L 178.515893 170.271063 
L 182.953379 171.021234 
L 187.390865 171.574163 
L 191.828352 171.970276 
L 196.265838 172.256219 
L 200.703324 172.47507 
L 205.14081 172.658754 
L 209.578297 172.826158 
L 214.015783 172.98672 
L 218.453269 173.145846 
L 222.890755 173.307954 
L 227.328241 173.475587 
L 231.765728 173.646592 
L 236.203214 173.813062 
L 240.6407 173.964197 
L 245.078186 174.091851 
L 249.515673 174.195165 
L 253.953159 174.281071 
" style="fill:none;stroke:#424243;stroke-linecap:square;stroke-width:2;"/>
   </g>
   <g id="patch_3">
    <path d="M 25.644493 183.67 
L 264.825 183.67 
" style="fill:none;stroke:#000000;stroke-linecap:square;stroke-linejoin:miter;stroke-width:0.8;"/>
   </g>
  </g>
 </g>
 <defs>
  <clipPath id="p91849278b0">
   <rect height="160.495" width="239.180507" x="25.644493" y="23.175"/>
  </clipPath>
 </defs>
</svg>
