<?xml version="1.0" encoding="utf-8" standalone="no"?>
<!DOCTYPE svg PUBLIC "-//W3C//DTD SVG 1.1//EN"
  "http://www.w3.org/Graphics/SVG/1.1/DTD/svg11.dtd">
<!-- Created with matplotlib (http://matplotlib.org/) -->
<svg height="288pt" version="1.1" viewBox="0 0 288 288" width="288pt" xmlns="http://www.w3.org/2000/svg" xmlns:xlink="http://www.w3.org/1999/xlink">
 <defs>
  <style type="text/css">
*{stroke-linecap:butt;stroke-linejoin:round;}
  </style>
 </defs>
 <g id="figure_1">
  <g id="patch_1">
   <path d="M 0 288 
L 288 288 
L 288 0 
L 0 0 
z
" style="fill:#ffffff;"/>
  </g>
  <g id="axes_1">
   <g id="patch_2">
    <path d="M 23.28 183.496 
L 264.72 183.496 
L 264.72 23.28 
L 23.28 23.28 
z
" style="fill:#ffffff;"/>
   </g>
   <g id="PolyCollection_1">
    <defs>
     <path d="M 34.254545 -111.786545 
L 34.254545 -113.628306 
L 38.645831 -114.64568 
L 43.037117 -116.227432 
L 47.428402 -118.495691 
L 51.819688 -121.46705 
L 56.210974 -125.036261 
L 60.602259 -129.024947 
L 64.993545 -133.275587 
L 69.38483 -137.736558 
L 73.776116 -142.482207 
L 78.167402 -147.645216 
L 82.558687 -153.290933 
L 86.949973 -159.30986 
L 91.341258 -165.412561 
L 95.732544 -171.255267 
L 100.12383 -176.626563 
L 104.515115 -181.564462 
L 108.906401 -186.31521 
L 113.297687 -191.164108 
L 117.688972 -196.264391 
L 122.080258 -201.586782 
L 126.471543 -207.01757 
L 130.862829 -212.517816 
L 135.254115 -218.205319 
L 139.6454 -224.281011 
L 144.036686 -230.849556 
L 148.427972 -237.763565 
L 152.819257 -244.581797 
L 157.210543 -250.635469 
L 161.601828 -255.155117 
L 165.993114 -257.437455 
L 170.3844 -257.040889 
L 174.775685 -253.945428 
L 179.166971 -248.573415 
L 183.558256 -241.631579 
L 187.949542 -233.864473 
L 192.340828 -225.871049 
L 196.732113 -218.067066 
L 201.123399 -210.752055 
L 205.514685 -204.172616 
L 209.90597 -198.499746 
L 214.297256 -193.719462 
L 218.688541 -189.519446 
L 223.079827 -185.291739 
L 227.471113 -180.322648 
L 231.862398 -174.110274 
L 236.253684 -166.625386 
L 240.64497 -158.335948 
L 245.036255 -149.974425 
L 249.427541 -142.210367 
L 249.427541 -111.786545 
L 249.427541 -111.786545 
L 245.036255 -111.786545 
L 240.64497 -111.786545 
L 236.253684 -111.786545 
L 231.862398 -111.786545 
L 227.471113 -111.786545 
L 223.079827 -111.786545 
L 218.688541 -111.786545 
L 214.297256 -111.786545 
L 209.90597 -111.786545 
L 205.514685 -111.786545 
L 201.123399 -111.786545 
L 196.732113 -111.786545 
L 192.340828 -111.786545 
L 187.949542 -111.786545 
L 183.558256 -111.786545 
L 179.166971 -111.786545 
L 174.775685 -111.786545 
L 170.3844 -111.786545 
L 165.993114 -111.786545 
L 161.601828 -111.786545 
L 157.210543 -111.786545 
L 152.819257 -111.786545 
L 148.427972 -111.786545 
L 144.036686 -111.786545 
L 139.6454 -111.786545 
L 135.254115 -111.786545 
L 130.862829 -111.786545 
L 126.471543 -111.786545 
L 122.080258 -111.786545 
L 117.688972 -111.786545 
L 113.297687 -111.786545 
L 108.906401 -111.786545 
L 104.515115 -111.786545 
L 100.12383 -111.786545 
L 95.732544 -111.786545 
L 91.341258 -111.786545 
L 86.949973 -111.786545 
L 82.558687 -111.786545 
L 78.167402 -111.786545 
L 73.776116 -111.786545 
L 69.38483 -111.786545 
L 64.993545 -111.786545 
L 60.602259 -111.786545 
L 56.210974 -111.786545 
L 51.819688 -111.786545 
L 47.428402 -111.786545 
L 43.037117 -111.786545 
L 38.645831 -111.786545 
L 34.254545 -111.786545 
z
" id="m1045cfc16e" style="stroke:#e69f00;stroke-opacity:0.3;"/>
    </defs>
    <g clip-path="url(#p7fe9fd0956)">
     <use style="fill:#e69f00;fill-opacity:0.3;stroke:#e69f00;stroke-opacity:0.3;" x="0" xlink:href="#m1045cfc16e" y="288"/>
    </g>
   </g>
   <g id="PolyCollection_2">
    <defs>
     <path d="M 34.254545 -111.786545 
L 34.254545 -121.511709 
L 38.645831 -122.864215 
L 43.037117 -124.545523 
L 47.428402 -126.669054 
L 51.819688 -129.366288 
L 56.210974 -132.773655 
L 60.602259 -137.001052 
L 64.993545 -142.093128 
L 69.38483 -148.002563 
L 73.776116 -154.58908 
L 78.167402 -161.645025 
L 82.558687 -168.938254 
L 86.949973 -176.260489 
L 91.341258 -183.470852 
L 95.732544 -190.524087 
L 100.12383 -197.469999 
L 104.515115 -204.411373 
L 108.906401 -211.420864 
L 113.297687 -218.442896 
L 117.688972 -225.229091 
L 122.080258 -231.35341 
L 126.471543 -236.317286 
L 130.862829 -239.703551 
L 135.254115 -241.305747 
L 139.6454 -241.172059 
L 144.036686 -239.553958 
L 148.427972 -236.80264 
L 152.819257 -233.274149 
L 157.210543 -229.278731 
L 161.601828 -225.068789 
L 165.993114 -220.838791 
L 170.3844 -216.721078 
L 174.775685 -212.783368 
L 179.166971 -209.040421 
L 183.558256 -205.479514 
L 187.949542 -202.08471 
L 192.340828 -198.8441 
L 196.732113 -195.735904 
L 201.123399 -192.702276 
L 205.514685 -189.626954 
L 209.90597 -186.333142 
L 214.297256 -182.610426 
L 218.688541 -178.26563 
L 223.079827 -173.179999 
L 227.471113 -167.352583 
L 231.862398 -160.916661 
L 236.253684 -154.124747 
L 240.64497 -147.304188 
L 245.036255 -140.793039 
L 249.427541 -134.875311 
L 249.427541 -111.786545 
L 249.427541 -111.786545 
L 245.036255 -111.786545 
L 240.64497 -111.786545 
L 236.253684 -111.786545 
L 231.862398 -111.786545 
L 227.471113 -111.786545 
L 223.079827 -111.786545 
L 218.688541 -111.786545 
L 214.297256 -111.786545 
L 209.90597 -111.786545 
L 205.514685 -111.786545 
L 201.123399 -111.786545 
L 196.732113 -111.786545 
L 192.340828 -111.786545 
L 187.949542 -111.786545 
L 183.558256 -111.786545 
L 179.166971 -111.786545 
L 174.775685 -111.786545 
L 170.3844 -111.786545 
L 165.993114 -111.786545 
L 161.601828 -111.786545 
L 157.210543 -111.786545 
L 152.819257 -111.786545 
L 148.427972 -111.786545 
L 144.036686 -111.786545 
L 139.6454 -111.786545 
L 135.254115 -111.786545 
L 130.862829 -111.786545 
L 126.471543 -111.786545 
L 122.080258 -111.786545 
L 117.688972 -111.786545 
L 113.297687 -111.786545 
L 108.906401 -111.786545 
L 104.515115 -111.786545 
L 100.12383 -111.786545 
L 95.732544 -111.786545 
L 91.341258 -111.786545 
L 86.949973 -111.786545 
L 82.558687 -111.786545 
L 78.167402 -111.786545 
L 73.776116 -111.786545 
L 69.38483 -111.786545 
L 64.993545 -111.786545 
L 60.602259 -111.786545 
L 56.210974 -111.786545 
L 51.819688 -111.786545 
L 47.428402 -111.786545 
L 43.037117 -111.786545 
L 38.645831 -111.786545 
L 34.254545 -111.786545 
z
" id="m45d56a5265" style="stroke:#424243;stroke-opacity:0.3;"/>
    </defs>
    <g clip-path="url(#p7fe9fd0956)">
     <use style="fill:#424243;fill-opacity:0.3;stroke:#424243;stroke-opacity:0.3;" x="0" xlink:href="#m45d56a5265" y="288"/>
    </g>
   </g>
   <g id="matplotlib.axis_1">
    <g id="xtick_1">
     <g id="line2d_1">
      <defs>
       <path d="M 0 0 
L 0 3.5 
" id="m008a2eb40e" style="stroke:#000000;stroke-width:0.8;"/>
      </defs>
      <g>
       <use style="stroke:#000000;stroke-width:0.8;" x="75.481069" xlink:href="#m008a2eb40e" y="183.496"/>
      </g>
     </g>
     <g id="text_1">
      <!-- −0.5 -->
      <defs>
       <path d="M 10.59375 35.5 
L 73.1875 35.5 
L 73.1875 27.203125 
L 10.59375 27.203125 
z
" id="DejaVuSans-2212"/>
       <path d="M 31.78125 66.40625 
Q 24.171875 66.40625 20.328125 58.90625 
Q 16.5 51.421875 16.5 36.375 
Q 16.5 21.390625 20.328125 13.890625 
Q 24.171875 6.390625 31.78125 6.390625 
Q 39.453125 6.390625 43.28125 13.890625 
Q 47.125 21.390625 47.125 36.375 
Q 47.125 51.421875 43.28125 58.90625 
Q 39.453125 66.40625 31.78125 66.40625 
z
M 31.78125 74.21875 
Q 44.046875 74.21875 50.515625 64.515625 
Q 56.984375 54.828125 56.984375 36.375 
Q 56.984375 17.96875 50.515625 8.265625 
Q 44.046875 -1.421875 31.78125 -1.421875 
Q 19.53125 -1.421875 13.0625 8.265625 
Q 6.59375 17.96875 6.59375 36.375 
Q 6.59375 54.828125 13.0625 64.515625 
Q 19.53125 74.21875 31.78125 74.21875 
z
" id="DejaVuSans-30"/>
       <path d="M 10.6875 12.40625 
L 21 12.40625 
L 21 0 
L 10.6875 0 
z
" id="DejaVuSans-2e"/>
       <path d="M 10.796875 72.90625 
L 49.515625 72.90625 
L 49.515625 64.59375 
L 19.828125 64.59375 
L 19.828125 46.734375 
Q 21.96875 47.46875 24.109375 47.828125 
Q 26.265625 48.1875 28.421875 48.1875 
Q 40.625 48.1875 47.75 41.5 
Q 54.890625 34.8125 54.890625 23.390625 
Q 54.890625 11.625 47.5625 5.09375 
Q 40.234375 -1.421875 26.90625 -1.421875 
Q 22.3125 -1.421875 17.546875 -0.640625 
Q 12.796875 0.140625 7.71875 1.703125 
L 7.71875 11.625 
Q 12.109375 9.234375 16.796875 8.0625 
Q 21.484375 6.890625 26.703125 6.890625 
Q 35.15625 6.890625 40.078125 11.328125 
Q 45.015625 15.765625 45.015625 23.390625 
Q 45.015625 31 40.078125 35.4375 
Q 35.15625 39.890625 26.703125 39.890625 
Q 22.75 39.890625 18.8125 39.015625 
Q 14.890625 38.140625 10.796875 36.28125 
z
" id="DejaVuSans-35"/>
      </defs>
      <g transform="translate(51.198257 205.692875)scale(0.2 -0.2)">
       <use xlink:href="#DejaVuSans-2212"/>
       <use x="83.789062" xlink:href="#DejaVuSans-30"/>
       <use x="147.412109" xlink:href="#DejaVuSans-2e"/>
       <use x="179.199219" xlink:href="#DejaVuSans-35"/>
      </g>
     </g>
    </g>
    <g id="xtick_2">
     <g id="line2d_2">
      <g>
       <use style="stroke:#000000;stroke-width:0.8;" x="150.102295" xlink:href="#m008a2eb40e" y="183.496"/>
      </g>
     </g>
     <g id="text_2">
      <!-- 0.0 -->
      <g transform="translate(134.19917 205.692875)scale(0.2 -0.2)">
       <use xlink:href="#DejaVuSans-30"/>
       <use x="63.623047" xlink:href="#DejaVuSans-2e"/>
       <use x="95.410156" xlink:href="#DejaVuSans-30"/>
      </g>
     </g>
    </g>
    <g id="xtick_3">
     <g id="line2d_3">
      <g>
       <use style="stroke:#000000;stroke-width:0.8;" x="224.72352" xlink:href="#m008a2eb40e" y="183.496"/>
      </g>
     </g>
     <g id="text_3">
      <!-- 0.5 -->
      <g transform="translate(208.820395 205.692875)scale(0.2 -0.2)">
       <use xlink:href="#DejaVuSans-30"/>
       <use x="63.623047" xlink:href="#DejaVuSans-2e"/>
       <use x="95.410156" xlink:href="#DejaVuSans-35"/>
      </g>
     </g>
    </g>
    <g id="text_4">
     <!-- temperature -->
     <defs>
      <path d="M 18.3125 70.21875 
L 18.3125 54.6875 
L 36.8125 54.6875 
L 36.8125 47.703125 
L 18.3125 47.703125 
L 18.3125 18.015625 
Q 18.3125 11.328125 20.140625 9.421875 
Q 21.96875 7.515625 27.59375 7.515625 
L 36.8125 7.515625 
L 36.8125 0 
L 27.59375 0 
Q 17.1875 0 13.234375 3.875 
Q 9.28125 7.765625 9.28125 18.015625 
L 9.28125 47.703125 
L 2.6875 47.703125 
L 2.6875 54.6875 
L 9.28125 54.6875 
L 9.28125 70.21875 
z
" id="DejaVuSans-74"/>
      <path d="M 56.203125 29.59375 
L 56.203125 25.203125 
L 14.890625 25.203125 
Q 15.484375 15.921875 20.484375 11.0625 
Q 25.484375 6.203125 34.421875 6.203125 
Q 39.59375 6.203125 44.453125 7.46875 
Q 49.3125 8.734375 54.109375 11.28125 
L 54.109375 2.78125 
Q 49.265625 0.734375 44.1875 -0.34375 
Q 39.109375 -1.421875 33.890625 -1.421875 
Q 20.796875 -1.421875 13.15625 6.1875 
Q 5.515625 13.8125 5.515625 26.8125 
Q 5.515625 40.234375 12.765625 48.109375 
Q 20.015625 56 32.328125 56 
Q 43.359375 56 49.78125 48.890625 
Q 56.203125 41.796875 56.203125 29.59375 
z
M 47.21875 32.234375 
Q 47.125 39.59375 43.09375 43.984375 
Q 39.0625 48.390625 32.421875 48.390625 
Q 24.90625 48.390625 20.390625 44.140625 
Q 15.875 39.890625 15.1875 32.171875 
z
" id="DejaVuSans-65"/>
      <path d="M 52 44.1875 
Q 55.375 50.25 60.0625 53.125 
Q 64.75 56 71.09375 56 
Q 79.640625 56 84.28125 50.015625 
Q 88.921875 44.046875 88.921875 33.015625 
L 88.921875 0 
L 79.890625 0 
L 79.890625 32.71875 
Q 79.890625 40.578125 77.09375 44.375 
Q 74.3125 48.1875 68.609375 48.1875 
Q 61.625 48.1875 57.5625 43.546875 
Q 53.515625 38.921875 53.515625 30.90625 
L 53.515625 0 
L 44.484375 0 
L 44.484375 32.71875 
Q 44.484375 40.625 41.703125 44.40625 
Q 38.921875 48.1875 33.109375 48.1875 
Q 26.21875 48.1875 22.15625 43.53125 
Q 18.109375 38.875 18.109375 30.90625 
L 18.109375 0 
L 9.078125 0 
L 9.078125 54.6875 
L 18.109375 54.6875 
L 18.109375 46.1875 
Q 21.1875 51.21875 25.484375 53.609375 
Q 29.78125 56 35.6875 56 
Q 41.65625 56 45.828125 52.96875 
Q 50 49.953125 52 44.1875 
z
" id="DejaVuSans-6d"/>
      <path d="M 18.109375 8.203125 
L 18.109375 -20.796875 
L 9.078125 -20.796875 
L 9.078125 54.6875 
L 18.109375 54.6875 
L 18.109375 46.390625 
Q 20.953125 51.265625 25.265625 53.625 
Q 29.59375 56 35.59375 56 
Q 45.5625 56 51.78125 48.09375 
Q 58.015625 40.1875 58.015625 27.296875 
Q 58.015625 14.40625 51.78125 6.484375 
Q 45.5625 -1.421875 35.59375 -1.421875 
Q 29.59375 -1.421875 25.265625 0.953125 
Q 20.953125 3.328125 18.109375 8.203125 
z
M 48.6875 27.296875 
Q 48.6875 37.203125 44.609375 42.84375 
Q 40.53125 48.484375 33.40625 48.484375 
Q 26.265625 48.484375 22.1875 42.84375 
Q 18.109375 37.203125 18.109375 27.296875 
Q 18.109375 17.390625 22.1875 11.75 
Q 26.265625 6.109375 33.40625 6.109375 
Q 40.53125 6.109375 44.609375 11.75 
Q 48.6875 17.390625 48.6875 27.296875 
z
" id="DejaVuSans-70"/>
      <path d="M 41.109375 46.296875 
Q 39.59375 47.171875 37.8125 47.578125 
Q 36.03125 48 33.890625 48 
Q 26.265625 48 22.1875 43.046875 
Q 18.109375 38.09375 18.109375 28.8125 
L 18.109375 0 
L 9.078125 0 
L 9.078125 54.6875 
L 18.109375 54.6875 
L 18.109375 46.1875 
Q 20.953125 51.171875 25.484375 53.578125 
Q 30.03125 56 36.53125 56 
Q 37.453125 56 38.578125 55.875 
Q 39.703125 55.765625 41.0625 55.515625 
z
" id="DejaVuSans-72"/>
      <path d="M 34.28125 27.484375 
Q 23.390625 27.484375 19.1875 25 
Q 14.984375 22.515625 14.984375 16.5 
Q 14.984375 11.71875 18.140625 8.90625 
Q 21.296875 6.109375 26.703125 6.109375 
Q 34.1875 6.109375 38.703125 11.40625 
Q 43.21875 16.703125 43.21875 25.484375 
L 43.21875 27.484375 
z
M 52.203125 31.203125 
L 52.203125 0 
L 43.21875 0 
L 43.21875 8.296875 
Q 40.140625 3.328125 35.546875 0.953125 
Q 30.953125 -1.421875 24.3125 -1.421875 
Q 15.921875 -1.421875 10.953125 3.296875 
Q 6 8.015625 6 15.921875 
Q 6 25.140625 12.171875 29.828125 
Q 18.359375 34.515625 30.609375 34.515625 
L 43.21875 34.515625 
L 43.21875 35.40625 
Q 43.21875 41.609375 39.140625 45 
Q 35.0625 48.390625 27.6875 48.390625 
Q 23 48.390625 18.546875 47.265625 
Q 14.109375 46.140625 10.015625 43.890625 
L 10.015625 52.203125 
Q 14.9375 54.109375 19.578125 55.046875 
Q 24.21875 56 28.609375 56 
Q 40.484375 56 46.34375 49.84375 
Q 52.203125 43.703125 52.203125 31.203125 
z
" id="DejaVuSans-61"/>
      <path d="M 8.5 21.578125 
L 8.5 54.6875 
L 17.484375 54.6875 
L 17.484375 21.921875 
Q 17.484375 14.15625 20.5 10.265625 
Q 23.53125 6.390625 29.59375 6.390625 
Q 36.859375 6.390625 41.078125 11.03125 
Q 45.3125 15.671875 45.3125 23.6875 
L 45.3125 54.6875 
L 54.296875 54.6875 
L 54.296875 0 
L 45.3125 0 
L 45.3125 8.40625 
Q 42.046875 3.421875 37.71875 1 
Q 33.40625 -1.421875 27.6875 -1.421875 
Q 18.265625 -1.421875 13.375 4.4375 
Q 8.5 10.296875 8.5 21.578125 
z
M 31.109375 56 
z
" id="DejaVuSans-75"/>
     </defs>
     <g transform="translate(65.158203 232.848344)scale(0.25 -0.25)">
      <use xlink:href="#DejaVuSans-74"/>
      <use x="39.208984" xlink:href="#DejaVuSans-65"/>
      <use x="100.732422" xlink:href="#DejaVuSans-6d"/>
      <use x="198.144531" xlink:href="#DejaVuSans-70"/>
      <use x="261.621094" xlink:href="#DejaVuSans-65"/>
      <use x="323.144531" xlink:href="#DejaVuSans-72"/>
      <use x="364.257812" xlink:href="#DejaVuSans-61"/>
      <use x="425.537109" xlink:href="#DejaVuSans-74"/>
      <use x="464.746094" xlink:href="#DejaVuSans-75"/>
      <use x="528.125" xlink:href="#DejaVuSans-72"/>
      <use x="569.207031" xlink:href="#DejaVuSans-65"/>
     </g>
     <!-- skew -->
     <defs>
      <path d="M 44.28125 53.078125 
L 44.28125 44.578125 
Q 40.484375 46.53125 36.375 47.5 
Q 32.28125 48.484375 27.875 48.484375 
Q 21.1875 48.484375 17.84375 46.4375 
Q 14.5 44.390625 14.5 40.28125 
Q 14.5 37.15625 16.890625 35.375 
Q 19.28125 33.59375 26.515625 31.984375 
L 29.59375 31.296875 
Q 39.15625 29.25 43.1875 25.515625 
Q 47.21875 21.78125 47.21875 15.09375 
Q 47.21875 7.46875 41.1875 3.015625 
Q 35.15625 -1.421875 24.609375 -1.421875 
Q 20.21875 -1.421875 15.453125 -0.5625 
Q 10.6875 0.296875 5.421875 2 
L 5.421875 11.28125 
Q 10.40625 8.6875 15.234375 7.390625 
Q 20.0625 6.109375 24.8125 6.109375 
Q 31.15625 6.109375 34.5625 8.28125 
Q 37.984375 10.453125 37.984375 14.40625 
Q 37.984375 18.0625 35.515625 20.015625 
Q 33.0625 21.96875 24.703125 23.78125 
L 21.578125 24.515625 
Q 13.234375 26.265625 9.515625 29.90625 
Q 5.8125 33.546875 5.8125 39.890625 
Q 5.8125 47.609375 11.28125 51.796875 
Q 16.75 56 26.8125 56 
Q 31.78125 56 36.171875 55.265625 
Q 40.578125 54.546875 44.28125 53.078125 
z
" id="DejaVuSans-73"/>
      <path d="M 9.078125 75.984375 
L 18.109375 75.984375 
L 18.109375 31.109375 
L 44.921875 54.6875 
L 56.390625 54.6875 
L 27.390625 29.109375 
L 57.625 0 
L 45.90625 0 
L 18.109375 26.703125 
L 18.109375 0 
L 9.078125 0 
z
" id="DejaVuSans-6b"/>
      <path d="M 4.203125 54.6875 
L 13.1875 54.6875 
L 24.421875 12.015625 
L 35.59375 54.6875 
L 46.1875 54.6875 
L 57.421875 12.015625 
L 68.609375 54.6875 
L 77.59375 54.6875 
L 63.28125 0 
L 52.6875 0 
L 40.921875 44.828125 
L 29.109375 0 
L 18.5 0 
z
" id="DejaVuSans-77"/>
     </defs>
     <g transform="translate(112.341797 260.842875)scale(0.25 -0.25)">
      <use xlink:href="#DejaVuSans-73"/>
      <use x="52.099609" xlink:href="#DejaVuSans-6b"/>
      <use x="109.962891" xlink:href="#DejaVuSans-65"/>
      <use x="171.486328" xlink:href="#DejaVuSans-77"/>
     </g>
    </g>
   </g>
   <g id="line2d_4">
    <path clip-path="url(#p7fe9fd0956)" d="M 34.254545 174.371694 
L 38.645831 173.35432 
L 43.037117 171.772568 
L 47.428402 169.504309 
L 51.819688 166.53295 
L 56.210974 162.963739 
L 60.602259 158.975053 
L 64.993545 154.724413 
L 69.38483 150.263442 
L 73.776116 145.517793 
L 78.167402 140.354784 
L 82.558687 134.709067 
L 86.949973 128.69014 
L 91.341258 122.587439 
L 95.732544 116.744733 
L 100.12383 111.373437 
L 104.515115 106.435538 
L 108.906401 101.68479 
L 113.297687 96.835892 
L 117.688972 91.735609 
L 122.080258 86.413218 
L 126.471543 80.98243 
L 130.862829 75.482184 
L 135.254115 69.794681 
L 139.6454 63.718989 
L 144.036686 57.150444 
L 148.427972 50.236435 
L 152.819257 43.418203 
L 157.210543 37.364531 
L 161.601828 32.844883 
L 165.993114 30.562545 
L 170.3844 30.959111 
L 174.775685 34.054572 
L 179.166971 39.426585 
L 183.558256 46.368421 
L 187.949542 54.135527 
L 192.340828 62.128951 
L 196.732113 69.932934 
L 201.123399 77.247945 
L 205.514685 83.827384 
L 209.90597 89.500254 
L 214.297256 94.280538 
L 218.688541 98.480554 
L 223.079827 102.708261 
L 227.471113 107.677352 
L 231.862398 113.889726 
L 236.253684 121.374614 
L 240.64497 129.664052 
L 245.036255 138.025575 
L 249.427541 145.789633 
" style="fill:none;stroke:#e69f00;stroke-linecap:square;stroke-width:2;"/>
   </g>
   <g id="line2d_5">
    <path clip-path="url(#p7fe9fd0956)" d="M 34.254545 166.488291 
L 38.645831 165.135785 
L 43.037117 163.454477 
L 47.428402 161.330946 
L 51.819688 158.633712 
L 56.210974 155.226345 
L 60.602259 150.998948 
L 64.993545 145.906872 
L 69.38483 139.997437 
L 73.776116 133.41092 
L 78.167402 126.354975 
L 82.558687 119.061746 
L 86.949973 111.739511 
L 91.341258 104.529148 
L 95.732544 97.475913 
L 100.12383 90.530001 
L 104.515115 83.588627 
L 108.906401 76.579136 
L 113.297687 69.557104 
L 117.688972 62.770909 
L 122.080258 56.64659 
L 126.471543 51.682714 
L 130.862829 48.296449 
L 135.254115 46.694253 
L 139.6454 46.827941 
L 144.036686 48.446042 
L 148.427972 51.19736 
L 152.819257 54.725851 
L 157.210543 58.721269 
L 161.601828 62.931211 
L 165.993114 67.161209 
L 170.3844 71.278922 
L 174.775685 75.216632 
L 179.166971 78.959579 
L 183.558256 82.520486 
L 187.949542 85.91529 
L 192.340828 89.1559 
L 196.732113 92.264096 
L 201.123399 95.297724 
L 205.514685 98.373046 
L 209.90597 101.666858 
L 214.297256 105.389574 
L 218.688541 109.73437 
L 223.079827 114.820001 
L 227.471113 120.647417 
L 231.862398 127.083339 
L 236.253684 133.875253 
L 240.64497 140.695812 
L 245.036255 147.206961 
L 249.427541 153.124689 
" style="fill:none;stroke:#424243;stroke-linecap:square;stroke-width:2;"/>
   </g>
   <g id="patch_3">
    <path d="M 23.28 183.496 
L 264.72 183.496 
" style="fill:none;stroke:#000000;stroke-linecap:square;stroke-linejoin:miter;stroke-width:0.8;"/>
   </g>
  </g>
 </g>
 <defs>
  <clipPath id="p7fe9fd0956">
   <rect height="160.216" width="241.44" x="23.28" y="23.28"/>
  </clipPath>
 </defs>
</svg>
