<?xml version="1.0" encoding="utf-8" standalone="no"?>
<!DOCTYPE svg PUBLIC "-//W3C//DTD SVG 1.1//EN"
  "http://www.w3.org/Graphics/SVG/1.1/DTD/svg11.dtd">
<!-- Created with matplotlib (http://matplotlib.org/) -->
<svg height="288pt" version="1.1" viewBox="0 0 288 288" width="288pt" xmlns="http://www.w3.org/2000/svg" xmlns:xlink="http://www.w3.org/1999/xlink">
 <defs>
  <style type="text/css">
*{stroke-linecap:butt;stroke-linejoin:round;}
  </style>
 </defs>
 <g id="figure_1">
  <g id="patch_1">
   <path d="M 0 288 
L 288 288 
L 288 0 
L 0 0 
z
" style="fill:#ffffff;"/>
  </g>
  <g id="axes_1">
   <g id="patch_2">
    <path d="M 23.28 183.496 
L 264.72 183.496 
L 264.72 23.28 
L 23.28 23.28 
z
" style="fill:#ffffff;"/>
   </g>
   <g id="PolyCollection_1">
    <defs>
     <path d="M 36.465238 -111.786545 
L 36.465238 -149.451925 
L 40.899528 -166.53303 
L 45.333818 -186.105874 
L 49.768108 -206.714934 
L 54.202399 -226.185689 
L 58.636689 -242.081325 
L 63.070979 -252.664348 
L 67.505269 -257.437455 
L 71.939559 -256.719547 
L 76.373849 -250.977418 
L 80.808139 -240.806033 
L 85.242429 -227.349602 
L 89.67672 -212.367931 
L 94.11101 -197.694919 
L 98.5453 -184.539655 
L 102.97959 -173.240263 
L 107.41388 -163.629197 
L 111.84817 -155.541344 
L 116.28246 -148.966873 
L 120.716751 -143.896637 
L 125.151041 -140.182683 
L 129.585331 -137.530553 
L 134.019621 -135.560922 
L 138.453911 -133.894488 
L 142.888201 -132.242892 
L 147.322491 -130.477933 
L 151.756781 -128.644795 
L 156.191072 -126.9033 
L 160.625362 -125.423781 
L 165.059652 -124.290874 
L 169.493942 -123.453228 
L 173.928232 -122.737841 
L 178.362522 -121.93551 
L 182.796812 -120.91576 
L 187.231103 -119.68546 
L 191.665393 -118.354184 
L 196.099683 -117.0585 
L 200.533973 -115.910505 
L 204.968263 -114.982541 
L 209.402553 -114.301602 
L 213.836843 -113.840238 
L 218.271133 -113.525364 
L 222.705424 -113.279565 
L 227.139714 -113.061265 
L 231.574004 -112.86217 
L 236.008294 -112.676203 
L 240.442584 -112.488824 
L 244.876874 -112.298629 
L 249.311164 -112.134465 
L 253.745455 -112.039162 
L 253.745455 -111.786545 
L 253.745455 -111.786545 
L 249.311164 -111.786545 
L 244.876874 -111.786545 
L 240.442584 -111.786545 
L 236.008294 -111.786545 
L 231.574004 -111.786545 
L 227.139714 -111.786545 
L 222.705424 -111.786545 
L 218.271133 -111.786545 
L 213.836843 -111.786545 
L 209.402553 -111.786545 
L 204.968263 -111.786545 
L 200.533973 -111.786545 
L 196.099683 -111.786545 
L 191.665393 -111.786545 
L 187.231103 -111.786545 
L 182.796812 -111.786545 
L 178.362522 -111.786545 
L 173.928232 -111.786545 
L 169.493942 -111.786545 
L 165.059652 -111.786545 
L 160.625362 -111.786545 
L 156.191072 -111.786545 
L 151.756781 -111.786545 
L 147.322491 -111.786545 
L 142.888201 -111.786545 
L 138.453911 -111.786545 
L 134.019621 -111.786545 
L 129.585331 -111.786545 
L 125.151041 -111.786545 
L 120.716751 -111.786545 
L 116.28246 -111.786545 
L 111.84817 -111.786545 
L 107.41388 -111.786545 
L 102.97959 -111.786545 
L 98.5453 -111.786545 
L 94.11101 -111.786545 
L 89.67672 -111.786545 
L 85.242429 -111.786545 
L 80.808139 -111.786545 
L 76.373849 -111.786545 
L 71.939559 -111.786545 
L 67.505269 -111.786545 
L 63.070979 -111.786545 
L 58.636689 -111.786545 
L 54.202399 -111.786545 
L 49.768108 -111.786545 
L 45.333818 -111.786545 
L 40.899528 -111.786545 
L 36.465238 -111.786545 
z
" id="m2d74e418e8" style="stroke:#e69f00;stroke-opacity:0.3;"/>
    </defs>
    <g clip-path="url(#pbf8ba38428)">
     <use style="fill:#e69f00;fill-opacity:0.3;stroke:#e69f00;stroke-opacity:0.3;" x="0" xlink:href="#m2d74e418e8" y="288"/>
    </g>
   </g>
   <g id="PolyCollection_2">
    <defs>
     <path d="M 36.465238 -111.786545 
L 36.465238 -140.984733 
L 40.899528 -150.307721 
L 45.333818 -161.256933 
L 49.768108 -173.512818 
L 54.202399 -186.459098 
L 58.636689 -199.210004 
L 63.070979 -210.722266 
L 67.505269 -219.975526 
L 71.939559 -226.172463 
L 76.373849 -228.892886 
L 80.808139 -228.148603 
L 85.242429 -224.326966 
L 89.67672 -218.059071 
L 94.11101 -210.074118 
L 98.5453 -201.089833 
L 102.97959 -191.752503 
L 107.41388 -182.608154 
L 111.84817 -174.080034 
L 116.28246 -166.444494 
L 120.716751 -159.81736 
L 125.151041 -154.167476 
L 129.585331 -149.361196 
L 134.019621 -145.223863 
L 138.453911 -141.595925 
L 142.888201 -138.366768 
L 147.322491 -135.482247 
L 151.756781 -132.932723 
L 156.191072 -130.731789 
L 160.625362 -128.893309 
L 165.059652 -127.410764 
L 169.493942 -126.242406 
L 173.928232 -125.307737 
L 178.362522 -124.500504 
L 182.796812 -123.716807 
L 187.231103 -122.886787 
L 191.665393 -121.993393 
L 196.099683 -121.06795 
L 200.533973 -120.16631 
L 204.968263 -119.340411 
L 209.402553 -118.620008 
L 213.836843 -118.00993 
L 218.271133 -117.497936 
L 222.705424 -117.064513 
L 227.139714 -116.689252 
L 231.574004 -116.353832 
L 236.008294 -116.044114 
L 240.442584 -115.752448 
L 244.876874 -115.478679 
L 249.311164 -115.227808 
L 253.745455 -115.004494 
L 253.745455 -111.786545 
L 253.745455 -111.786545 
L 249.311164 -111.786545 
L 244.876874 -111.786545 
L 240.442584 -111.786545 
L 236.008294 -111.786545 
L 231.574004 -111.786545 
L 227.139714 -111.786545 
L 222.705424 -111.786545 
L 218.271133 -111.786545 
L 213.836843 -111.786545 
L 209.402553 -111.786545 
L 204.968263 -111.786545 
L 200.533973 -111.786545 
L 196.099683 -111.786545 
L 191.665393 -111.786545 
L 187.231103 -111.786545 
L 182.796812 -111.786545 
L 178.362522 -111.786545 
L 173.928232 -111.786545 
L 169.493942 -111.786545 
L 165.059652 -111.786545 
L 160.625362 -111.786545 
L 156.191072 -111.786545 
L 151.756781 -111.786545 
L 147.322491 -111.786545 
L 142.888201 -111.786545 
L 138.453911 -111.786545 
L 134.019621 -111.786545 
L 129.585331 -111.786545 
L 125.151041 -111.786545 
L 120.716751 -111.786545 
L 116.28246 -111.786545 
L 111.84817 -111.786545 
L 107.41388 -111.786545 
L 102.97959 -111.786545 
L 98.5453 -111.786545 
L 94.11101 -111.786545 
L 89.67672 -111.786545 
L 85.242429 -111.786545 
L 80.808139 -111.786545 
L 76.373849 -111.786545 
L 71.939559 -111.786545 
L 67.505269 -111.786545 
L 63.070979 -111.786545 
L 58.636689 -111.786545 
L 54.202399 -111.786545 
L 49.768108 -111.786545 
L 45.333818 -111.786545 
L 40.899528 -111.786545 
L 36.465238 -111.786545 
z
" id="mffbd064e93" style="stroke:#424243;stroke-opacity:0.3;"/>
    </defs>
    <g clip-path="url(#pbf8ba38428)">
     <use style="fill:#424243;fill-opacity:0.3;stroke:#424243;stroke-opacity:0.3;" x="0" xlink:href="#mffbd064e93" y="288"/>
    </g>
   </g>
   <g id="matplotlib.axis_1">
    <g id="xtick_1">
     <g id="line2d_1">
      <defs>
       <path d="M 0 0 
L 0 3.5 
" id="md28ad84268" style="stroke:#000000;stroke-width:0.8;"/>
      </defs>
      <g>
       <use style="stroke:#000000;stroke-width:0.8;" x="127.400729" xlink:href="#md28ad84268" y="183.496"/>
      </g>
     </g>
     <g id="text_1">
      <!-- 2 -->
      <defs>
       <path d="M 19.1875 8.296875 
L 53.609375 8.296875 
L 53.609375 0 
L 7.328125 0 
L 7.328125 8.296875 
Q 12.9375 14.109375 22.625 23.890625 
Q 32.328125 33.6875 34.8125 36.53125 
Q 39.546875 41.84375 41.421875 45.53125 
Q 43.3125 49.21875 43.3125 52.78125 
Q 43.3125 58.59375 39.234375 62.25 
Q 35.15625 65.921875 28.609375 65.921875 
Q 23.96875 65.921875 18.8125 64.3125 
Q 13.671875 62.703125 7.8125 59.421875 
L 7.8125 69.390625 
Q 13.765625 71.78125 18.9375 73 
Q 24.125 74.21875 28.421875 74.21875 
Q 39.75 74.21875 46.484375 68.546875 
Q 53.21875 62.890625 53.21875 53.421875 
Q 53.21875 48.921875 51.53125 44.890625 
Q 49.859375 40.875 45.40625 35.40625 
Q 44.1875 33.984375 37.640625 27.21875 
Q 31.109375 20.453125 19.1875 8.296875 
z
" id="DejaVuSans-32"/>
      </defs>
      <g transform="translate(121.038229 205.692875)scale(0.2 -0.2)">
       <use xlink:href="#DejaVuSans-32"/>
      </g>
     </g>
    </g>
    <g id="xtick_2">
     <g id="line2d_2">
      <g>
       <use style="stroke:#000000;stroke-width:0.8;" x="241.198249" xlink:href="#md28ad84268" y="183.496"/>
      </g>
     </g>
     <g id="text_2">
      <!-- 4 -->
      <defs>
       <path d="M 37.796875 64.3125 
L 12.890625 25.390625 
L 37.796875 25.390625 
z
M 35.203125 72.90625 
L 47.609375 72.90625 
L 47.609375 25.390625 
L 58.015625 25.390625 
L 58.015625 17.1875 
L 47.609375 17.1875 
L 47.609375 0 
L 37.796875 0 
L 37.796875 17.1875 
L 4.890625 17.1875 
L 4.890625 26.703125 
z
" id="DejaVuSans-34"/>
      </defs>
      <g transform="translate(234.835749 205.692875)scale(0.2 -0.2)">
       <use xlink:href="#DejaVuSans-34"/>
      </g>
     </g>
    </g>
    <g id="text_3">
     <!-- precipitation -->
     <defs>
      <path d="M 18.109375 8.203125 
L 18.109375 -20.796875 
L 9.078125 -20.796875 
L 9.078125 54.6875 
L 18.109375 54.6875 
L 18.109375 46.390625 
Q 20.953125 51.265625 25.265625 53.625 
Q 29.59375 56 35.59375 56 
Q 45.5625 56 51.78125 48.09375 
Q 58.015625 40.1875 58.015625 27.296875 
Q 58.015625 14.40625 51.78125 6.484375 
Q 45.5625 -1.421875 35.59375 -1.421875 
Q 29.59375 -1.421875 25.265625 0.953125 
Q 20.953125 3.328125 18.109375 8.203125 
z
M 48.6875 27.296875 
Q 48.6875 37.203125 44.609375 42.84375 
Q 40.53125 48.484375 33.40625 48.484375 
Q 26.265625 48.484375 22.1875 42.84375 
Q 18.109375 37.203125 18.109375 27.296875 
Q 18.109375 17.390625 22.1875 11.75 
Q 26.265625 6.109375 33.40625 6.109375 
Q 40.53125 6.109375 44.609375 11.75 
Q 48.6875 17.390625 48.6875 27.296875 
z
" id="DejaVuSans-70"/>
      <path d="M 41.109375 46.296875 
Q 39.59375 47.171875 37.8125 47.578125 
Q 36.03125 48 33.890625 48 
Q 26.265625 48 22.1875 43.046875 
Q 18.109375 38.09375 18.109375 28.8125 
L 18.109375 0 
L 9.078125 0 
L 9.078125 54.6875 
L 18.109375 54.6875 
L 18.109375 46.1875 
Q 20.953125 51.171875 25.484375 53.578125 
Q 30.03125 56 36.53125 56 
Q 37.453125 56 38.578125 55.875 
Q 39.703125 55.765625 41.0625 55.515625 
z
" id="DejaVuSans-72"/>
      <path d="M 56.203125 29.59375 
L 56.203125 25.203125 
L 14.890625 25.203125 
Q 15.484375 15.921875 20.484375 11.0625 
Q 25.484375 6.203125 34.421875 6.203125 
Q 39.59375 6.203125 44.453125 7.46875 
Q 49.3125 8.734375 54.109375 11.28125 
L 54.109375 2.78125 
Q 49.265625 0.734375 44.1875 -0.34375 
Q 39.109375 -1.421875 33.890625 -1.421875 
Q 20.796875 -1.421875 13.15625 6.1875 
Q 5.515625 13.8125 5.515625 26.8125 
Q 5.515625 40.234375 12.765625 48.109375 
Q 20.015625 56 32.328125 56 
Q 43.359375 56 49.78125 48.890625 
Q 56.203125 41.796875 56.203125 29.59375 
z
M 47.21875 32.234375 
Q 47.125 39.59375 43.09375 43.984375 
Q 39.0625 48.390625 32.421875 48.390625 
Q 24.90625 48.390625 20.390625 44.140625 
Q 15.875 39.890625 15.1875 32.171875 
z
" id="DejaVuSans-65"/>
      <path d="M 48.78125 52.59375 
L 48.78125 44.1875 
Q 44.96875 46.296875 41.140625 47.34375 
Q 37.3125 48.390625 33.40625 48.390625 
Q 24.65625 48.390625 19.8125 42.84375 
Q 14.984375 37.3125 14.984375 27.296875 
Q 14.984375 17.28125 19.8125 11.734375 
Q 24.65625 6.203125 33.40625 6.203125 
Q 37.3125 6.203125 41.140625 7.25 
Q 44.96875 8.296875 48.78125 10.40625 
L 48.78125 2.09375 
Q 45.015625 0.34375 40.984375 -0.53125 
Q 36.96875 -1.421875 32.421875 -1.421875 
Q 20.0625 -1.421875 12.78125 6.34375 
Q 5.515625 14.109375 5.515625 27.296875 
Q 5.515625 40.671875 12.859375 48.328125 
Q 20.21875 56 33.015625 56 
Q 37.15625 56 41.109375 55.140625 
Q 45.0625 54.296875 48.78125 52.59375 
z
" id="DejaVuSans-63"/>
      <path d="M 9.421875 54.6875 
L 18.40625 54.6875 
L 18.40625 0 
L 9.421875 0 
z
M 9.421875 75.984375 
L 18.40625 75.984375 
L 18.40625 64.59375 
L 9.421875 64.59375 
z
" id="DejaVuSans-69"/>
      <path d="M 18.3125 70.21875 
L 18.3125 54.6875 
L 36.8125 54.6875 
L 36.8125 47.703125 
L 18.3125 47.703125 
L 18.3125 18.015625 
Q 18.3125 11.328125 20.140625 9.421875 
Q 21.96875 7.515625 27.59375 7.515625 
L 36.8125 7.515625 
L 36.8125 0 
L 27.59375 0 
Q 17.1875 0 13.234375 3.875 
Q 9.28125 7.765625 9.28125 18.015625 
L 9.28125 47.703125 
L 2.6875 47.703125 
L 2.6875 54.6875 
L 9.28125 54.6875 
L 9.28125 70.21875 
z
" id="DejaVuSans-74"/>
      <path d="M 34.28125 27.484375 
Q 23.390625 27.484375 19.1875 25 
Q 14.984375 22.515625 14.984375 16.5 
Q 14.984375 11.71875 18.140625 8.90625 
Q 21.296875 6.109375 26.703125 6.109375 
Q 34.1875 6.109375 38.703125 11.40625 
Q 43.21875 16.703125 43.21875 25.484375 
L 43.21875 27.484375 
z
M 52.203125 31.203125 
L 52.203125 0 
L 43.21875 0 
L 43.21875 8.296875 
Q 40.140625 3.328125 35.546875 0.953125 
Q 30.953125 -1.421875 24.3125 -1.421875 
Q 15.921875 -1.421875 10.953125 3.296875 
Q 6 8.015625 6 15.921875 
Q 6 25.140625 12.171875 29.828125 
Q 18.359375 34.515625 30.609375 34.515625 
L 43.21875 34.515625 
L 43.21875 35.40625 
Q 43.21875 41.609375 39.140625 45 
Q 35.0625 48.390625 27.6875 48.390625 
Q 23 48.390625 18.546875 47.265625 
Q 14.109375 46.140625 10.015625 43.890625 
L 10.015625 52.203125 
Q 14.9375 54.109375 19.578125 55.046875 
Q 24.21875 56 28.609375 56 
Q 40.484375 56 46.34375 49.84375 
Q 52.203125 43.703125 52.203125 31.203125 
z
" id="DejaVuSans-61"/>
      <path d="M 30.609375 48.390625 
Q 23.390625 48.390625 19.1875 42.75 
Q 14.984375 37.109375 14.984375 27.296875 
Q 14.984375 17.484375 19.15625 11.84375 
Q 23.34375 6.203125 30.609375 6.203125 
Q 37.796875 6.203125 41.984375 11.859375 
Q 46.1875 17.53125 46.1875 27.296875 
Q 46.1875 37.015625 41.984375 42.703125 
Q 37.796875 48.390625 30.609375 48.390625 
z
M 30.609375 56 
Q 42.328125 56 49.015625 48.375 
Q 55.71875 40.765625 55.71875 27.296875 
Q 55.71875 13.875 49.015625 6.21875 
Q 42.328125 -1.421875 30.609375 -1.421875 
Q 18.84375 -1.421875 12.171875 6.21875 
Q 5.515625 13.875 5.515625 27.296875 
Q 5.515625 40.765625 12.171875 48.375 
Q 18.84375 56 30.609375 56 
z
" id="DejaVuSans-6f"/>
      <path d="M 54.890625 33.015625 
L 54.890625 0 
L 45.90625 0 
L 45.90625 32.71875 
Q 45.90625 40.484375 42.875 44.328125 
Q 39.84375 48.1875 33.796875 48.1875 
Q 26.515625 48.1875 22.3125 43.546875 
Q 18.109375 38.921875 18.109375 30.90625 
L 18.109375 0 
L 9.078125 0 
L 9.078125 54.6875 
L 18.109375 54.6875 
L 18.109375 46.1875 
Q 21.34375 51.125 25.703125 53.5625 
Q 30.078125 56 35.796875 56 
Q 45.21875 56 50.046875 50.171875 
Q 54.890625 44.34375 54.890625 33.015625 
z
" id="DejaVuSans-6e"/>
     </defs>
     <g transform="translate(64.980469 232.848344)scale(0.25 -0.25)">
      <use xlink:href="#DejaVuSans-70"/>
      <use x="63.476562" xlink:href="#DejaVuSans-72"/>
      <use x="104.558594" xlink:href="#DejaVuSans-65"/>
      <use x="166.082031" xlink:href="#DejaVuSans-63"/>
      <use x="221.0625" xlink:href="#DejaVuSans-69"/>
      <use x="248.845703" xlink:href="#DejaVuSans-70"/>
      <use x="312.322266" xlink:href="#DejaVuSans-69"/>
      <use x="340.105469" xlink:href="#DejaVuSans-74"/>
      <use x="379.314453" xlink:href="#DejaVuSans-61"/>
      <use x="440.59375" xlink:href="#DejaVuSans-74"/>
      <use x="479.802734" xlink:href="#DejaVuSans-69"/>
      <use x="507.585938" xlink:href="#DejaVuSans-6f"/>
      <use x="568.767578" xlink:href="#DejaVuSans-6e"/>
     </g>
     <!-- skew -->
     <defs>
      <path d="M 44.28125 53.078125 
L 44.28125 44.578125 
Q 40.484375 46.53125 36.375 47.5 
Q 32.28125 48.484375 27.875 48.484375 
Q 21.1875 48.484375 17.84375 46.4375 
Q 14.5 44.390625 14.5 40.28125 
Q 14.5 37.15625 16.890625 35.375 
Q 19.28125 33.59375 26.515625 31.984375 
L 29.59375 31.296875 
Q 39.15625 29.25 43.1875 25.515625 
Q 47.21875 21.78125 47.21875 15.09375 
Q 47.21875 7.46875 41.1875 3.015625 
Q 35.15625 -1.421875 24.609375 -1.421875 
Q 20.21875 -1.421875 15.453125 -0.5625 
Q 10.6875 0.296875 5.421875 2 
L 5.421875 11.28125 
Q 10.40625 8.6875 15.234375 7.390625 
Q 20.0625 6.109375 24.8125 6.109375 
Q 31.15625 6.109375 34.5625 8.28125 
Q 37.984375 10.453125 37.984375 14.40625 
Q 37.984375 18.0625 35.515625 20.015625 
Q 33.0625 21.96875 24.703125 23.78125 
L 21.578125 24.515625 
Q 13.234375 26.265625 9.515625 29.90625 
Q 5.8125 33.546875 5.8125 39.890625 
Q 5.8125 47.609375 11.28125 51.796875 
Q 16.75 56 26.8125 56 
Q 31.78125 56 36.171875 55.265625 
Q 40.578125 54.546875 44.28125 53.078125 
z
" id="DejaVuSans-73"/>
      <path d="M 9.078125 75.984375 
L 18.109375 75.984375 
L 18.109375 31.109375 
L 44.921875 54.6875 
L 56.390625 54.6875 
L 27.390625 29.109375 
L 57.625 0 
L 45.90625 0 
L 18.109375 26.703125 
L 18.109375 0 
L 9.078125 0 
z
" id="DejaVuSans-6b"/>
      <path d="M 4.203125 54.6875 
L 13.1875 54.6875 
L 24.421875 12.015625 
L 35.59375 54.6875 
L 46.1875 54.6875 
L 57.421875 12.015625 
L 68.609375 54.6875 
L 77.59375 54.6875 
L 63.28125 0 
L 52.6875 0 
L 40.921875 44.828125 
L 29.109375 0 
L 18.5 0 
z
" id="DejaVuSans-77"/>
     </defs>
     <g transform="translate(112.341797 260.842875)scale(0.25 -0.25)">
      <use xlink:href="#DejaVuSans-73"/>
      <use x="52.099609" xlink:href="#DejaVuSans-6b"/>
      <use x="109.962891" xlink:href="#DejaVuSans-65"/>
      <use x="171.486328" xlink:href="#DejaVuSans-77"/>
     </g>
    </g>
   </g>
   <g id="line2d_3">
    <path clip-path="url(#pbf8ba38428)" d="M 36.465238 138.548075 
L 40.899528 121.46697 
L 45.333818 101.894126 
L 49.768108 81.285066 
L 54.202399 61.814311 
L 58.636689 45.918675 
L 63.070979 35.335652 
L 67.505269 30.562545 
L 71.939559 31.280453 
L 76.373849 37.022582 
L 80.808139 47.193967 
L 85.242429 60.650398 
L 89.67672 75.632069 
L 94.11101 90.305081 
L 98.5453 103.460345 
L 102.97959 114.759737 
L 107.41388 124.370803 
L 111.84817 132.458656 
L 116.28246 139.033127 
L 120.716751 144.103363 
L 125.151041 147.817317 
L 129.585331 150.469447 
L 134.019621 152.439078 
L 138.453911 154.105512 
L 142.888201 155.757108 
L 147.322491 157.522067 
L 151.756781 159.355205 
L 156.191072 161.0967 
L 160.625362 162.576219 
L 165.059652 163.709126 
L 169.493942 164.546772 
L 173.928232 165.262159 
L 178.362522 166.06449 
L 182.796812 167.08424 
L 187.231103 168.31454 
L 191.665393 169.645816 
L 196.099683 170.9415 
L 200.533973 172.089495 
L 204.968263 173.017459 
L 209.402553 173.698398 
L 213.836843 174.159762 
L 218.271133 174.474636 
L 222.705424 174.720435 
L 227.139714 174.938735 
L 231.574004 175.13783 
L 236.008294 175.323797 
L 240.442584 175.511176 
L 244.876874 175.701371 
L 249.311164 175.865535 
L 253.745455 175.960838 
" style="fill:none;stroke:#e69f00;stroke-linecap:square;stroke-width:2;"/>
   </g>
   <g id="line2d_4">
    <path clip-path="url(#pbf8ba38428)" d="M 36.465238 147.015267 
L 40.899528 137.692279 
L 45.333818 126.743067 
L 49.768108 114.487182 
L 54.202399 101.540902 
L 58.636689 88.789996 
L 63.070979 77.277734 
L 67.505269 68.024474 
L 71.939559 61.827537 
L 76.373849 59.107114 
L 80.808139 59.851397 
L 85.242429 63.673034 
L 89.67672 69.940929 
L 94.11101 77.925882 
L 98.5453 86.910167 
L 102.97959 96.247497 
L 107.41388 105.391846 
L 111.84817 113.919966 
L 116.28246 121.555506 
L 120.716751 128.18264 
L 125.151041 133.832524 
L 129.585331 138.638804 
L 134.019621 142.776137 
L 138.453911 146.404075 
L 142.888201 149.633232 
L 147.322491 152.517753 
L 151.756781 155.067277 
L 156.191072 157.268211 
L 160.625362 159.106691 
L 165.059652 160.589236 
L 169.493942 161.757594 
L 173.928232 162.692263 
L 178.362522 163.499496 
L 182.796812 164.283193 
L 187.231103 165.113213 
L 191.665393 166.006607 
L 196.099683 166.93205 
L 200.533973 167.83369 
L 204.968263 168.659589 
L 209.402553 169.379992 
L 213.836843 169.99007 
L 218.271133 170.502064 
L 222.705424 170.935487 
L 227.139714 171.310748 
L 231.574004 171.646168 
L 236.008294 171.955886 
L 240.442584 172.247552 
L 244.876874 172.521321 
L 249.311164 172.772192 
L 253.745455 172.995506 
" style="fill:none;stroke:#424243;stroke-linecap:square;stroke-width:2;"/>
   </g>
   <g id="patch_3">
    <path d="M 23.28 183.496 
L 264.72 183.496 
" style="fill:none;stroke:#000000;stroke-linecap:square;stroke-linejoin:miter;stroke-width:0.8;"/>
   </g>
  </g>
 </g>
 <defs>
  <clipPath id="pbf8ba38428">
   <rect height="160.216" width="241.44" x="23.28" y="23.28"/>
  </clipPath>
 </defs>
</svg>
