<?xml version="1.0" encoding="utf-8" standalone="no"?>
<!DOCTYPE svg PUBLIC "-//W3C//DTD SVG 1.1//EN"
  "http://www.w3.org/Graphics/SVG/1.1/DTD/svg11.dtd">
<!-- Created with matplotlib (http://matplotlib.org/) -->
<svg height="288pt" version="1.1" viewBox="0 0 288 288" width="288pt" xmlns="http://www.w3.org/2000/svg" xmlns:xlink="http://www.w3.org/1999/xlink">
 <defs>
  <style type="text/css">
*{stroke-linecap:butt;stroke-linejoin:round;}
  </style>
 </defs>
 <g id="figure_1">
  <g id="patch_1">
   <path d="M 0 288 
L 288 288 
L 288 0 
L 0 0 
z
" style="fill:#ffffff;"/>
  </g>
  <g id="axes_1">
   <g id="patch_2">
    <path d="M 23.28 183.496 
L 264.72 183.496 
L 264.72 23.28 
L 23.28 23.28 
z
" style="fill:#ffffff;"/>
   </g>
   <g id="PolyCollection_1">
    <defs>
     <path d="M 34.254545 -111.786545 
L 34.254545 -113.12622 
L 38.733952 -113.309443 
L 43.213358 -113.551898 
L 47.692764 -113.838251 
L 52.172171 -114.200052 
L 56.651577 -114.705906 
L 61.130983 -115.396614 
L 65.61039 -116.227113 
L 70.089796 -117.097177 
L 74.569202 -117.942956 
L 79.048609 -118.797237 
L 83.528015 -119.839713 
L 88.007421 -121.426904 
L 92.486827 -123.925796 
L 96.966234 -127.416268 
L 101.44564 -131.68662 
L 105.925046 -136.637239 
L 110.404453 -142.640049 
L 114.883859 -150.400874 
L 119.363265 -160.318848 
L 123.842672 -171.873212 
L 128.322078 -183.698518 
L 132.801484 -194.234103 
L 137.280891 -202.230599 
L 141.760297 -207.040753 
L 146.239703 -208.968769 
L 150.719109 -209.179694 
L 155.198516 -208.873028 
L 159.677922 -208.69984 
L 164.157328 -209.187755 
L 168.636735 -211.459894 
L 173.116141 -217.159495 
L 177.595547 -227.300788 
L 182.074954 -240.623987 
L 186.55436 -252.74048 
L 191.033766 -257.437455 
L 195.513173 -250.127509 
L 199.992579 -231.141852 
L 204.471985 -205.795134 
L 208.951391 -180.817249 
L 213.430798 -160.456779 
L 217.910204 -145.480433 
L 222.38961 -134.726803 
L 226.869017 -126.867857 
L 231.348423 -121.121925 
L 235.827829 -117.13157 
L 240.307236 -114.609826 
L 244.786642 -113.172467 
L 249.266048 -112.417344 
L 253.745455 -112.045363 
L 253.745455 -111.786545 
L 253.745455 -111.786545 
L 249.266048 -111.786545 
L 244.786642 -111.786545 
L 240.307236 -111.786545 
L 235.827829 -111.786545 
L 231.348423 -111.786545 
L 226.869017 -111.786545 
L 222.38961 -111.786545 
L 217.910204 -111.786545 
L 213.430798 -111.786545 
L 208.951391 -111.786545 
L 204.471985 -111.786545 
L 199.992579 -111.786545 
L 195.513173 -111.786545 
L 191.033766 -111.786545 
L 186.55436 -111.786545 
L 182.074954 -111.786545 
L 177.595547 -111.786545 
L 173.116141 -111.786545 
L 168.636735 -111.786545 
L 164.157328 -111.786545 
L 159.677922 -111.786545 
L 155.198516 -111.786545 
L 150.719109 -111.786545 
L 146.239703 -111.786545 
L 141.760297 -111.786545 
L 137.280891 -111.786545 
L 132.801484 -111.786545 
L 128.322078 -111.786545 
L 123.842672 -111.786545 
L 119.363265 -111.786545 
L 114.883859 -111.786545 
L 110.404453 -111.786545 
L 105.925046 -111.786545 
L 101.44564 -111.786545 
L 96.966234 -111.786545 
L 92.486827 -111.786545 
L 88.007421 -111.786545 
L 83.528015 -111.786545 
L 79.048609 -111.786545 
L 74.569202 -111.786545 
L 70.089796 -111.786545 
L 65.61039 -111.786545 
L 61.130983 -111.786545 
L 56.651577 -111.786545 
L 52.172171 -111.786545 
L 47.692764 -111.786545 
L 43.213358 -111.786545 
L 38.733952 -111.786545 
L 34.254545 -111.786545 
z
" id="m3d7dc055dd" style="stroke:#e69f00;stroke-opacity:0.3;"/>
    </defs>
    <g clip-path="url(#pc6b45bbfe2)">
     <use style="fill:#e69f00;fill-opacity:0.3;stroke:#e69f00;stroke-opacity:0.3;" x="0" xlink:href="#m3d7dc055dd" y="288"/>
    </g>
   </g>
   <g id="PolyCollection_2">
    <defs>
     <path d="M 34.254545 -111.786545 
L 34.254545 -118.73437 
L 38.733952 -119.857084 
L 43.213358 -121.212859 
L 47.692764 -122.808735 
L 52.172171 -124.628502 
L 56.651577 -126.639701 
L 61.130983 -128.806858 
L 65.61039 -131.103669 
L 70.089796 -133.517246 
L 74.569202 -136.042622 
L 79.048609 -138.671866 
L 83.528015 -141.385364 
L 88.007421 -144.151262 
L 92.486827 -146.933935 
L 96.966234 -149.706817 
L 101.44564 -152.462051 
L 105.925046 -155.210447 
L 110.404453 -157.96939 
L 114.883859 -160.74176 
L 119.363265 -163.49402 
L 123.842672 -166.144462 
L 128.322078 -168.571129 
L 132.801484 -170.642511 
L 137.280891 -172.264706 
L 141.760297 -173.430635 
L 146.239703 -174.25389 
L 150.719109 -174.973149 
L 155.198516 -175.920724 
L 159.677922 -177.456896 
L 164.157328 -179.877882 
L 168.636735 -183.311558 
L 173.116141 -187.625258 
L 177.595547 -192.381801 
L 182.074954 -196.88084 
L 186.55436 -200.298983 
L 191.033766 -201.896117 
L 195.513173 -201.212426 
L 199.992579 -198.173991 
L 204.471985 -193.066779 
L 208.951391 -186.40568 
L 213.430798 -178.77285 
L 217.910204 -170.698174 
L 222.38961 -162.611453 
L 226.869017 -154.846979 
L 231.348423 -147.660584 
L 235.827829 -141.233103 
L 240.307236 -135.662075 
L 244.786642 -130.959521 
L 249.266048 -127.068464 
L 253.745455 -123.89442 
L 253.745455 -111.786545 
L 253.745455 -111.786545 
L 249.266048 -111.786545 
L 244.786642 -111.786545 
L 240.307236 -111.786545 
L 235.827829 -111.786545 
L 231.348423 -111.786545 
L 226.869017 -111.786545 
L 222.38961 -111.786545 
L 217.910204 -111.786545 
L 213.430798 -111.786545 
L 208.951391 -111.786545 
L 204.471985 -111.786545 
L 199.992579 -111.786545 
L 195.513173 -111.786545 
L 191.033766 -111.786545 
L 186.55436 -111.786545 
L 182.074954 -111.786545 
L 177.595547 -111.786545 
L 173.116141 -111.786545 
L 168.636735 -111.786545 
L 164.157328 -111.786545 
L 159.677922 -111.786545 
L 155.198516 -111.786545 
L 150.719109 -111.786545 
L 146.239703 -111.786545 
L 141.760297 -111.786545 
L 137.280891 -111.786545 
L 132.801484 -111.786545 
L 128.322078 -111.786545 
L 123.842672 -111.786545 
L 119.363265 -111.786545 
L 114.883859 -111.786545 
L 110.404453 -111.786545 
L 105.925046 -111.786545 
L 101.44564 -111.786545 
L 96.966234 -111.786545 
L 92.486827 -111.786545 
L 88.007421 -111.786545 
L 83.528015 -111.786545 
L 79.048609 -111.786545 
L 74.569202 -111.786545 
L 70.089796 -111.786545 
L 65.61039 -111.786545 
L 61.130983 -111.786545 
L 56.651577 -111.786545 
L 52.172171 -111.786545 
L 47.692764 -111.786545 
L 43.213358 -111.786545 
L 38.733952 -111.786545 
L 34.254545 -111.786545 
z
" id="mc7ed5deed8" style="stroke:#424243;stroke-opacity:0.3;"/>
    </defs>
    <g clip-path="url(#pc6b45bbfe2)">
     <use style="fill:#424243;fill-opacity:0.3;stroke:#424243;stroke-opacity:0.3;" x="0" xlink:href="#mc7ed5deed8" y="288"/>
    </g>
   </g>
   <g id="matplotlib.axis_1">
    <g id="xtick_1">
     <g id="line2d_1">
      <defs>
       <path d="M 0 0 
L 0 3.5 
" id="mca1732d820" style="stroke:#000000;stroke-width:0.8;"/>
      </defs>
      <g>
       <use style="stroke:#000000;stroke-width:0.8;" x="75.007267" xlink:href="#mca1732d820" y="183.496"/>
      </g>
     </g>
     <g id="text_1">
      <!-- −1 -->
      <defs>
       <path d="M 10.59375 35.5 
L 73.1875 35.5 
L 73.1875 27.203125 
L 10.59375 27.203125 
z
" id="DejaVuSans-2212"/>
       <path d="M 12.40625 8.296875 
L 28.515625 8.296875 
L 28.515625 63.921875 
L 10.984375 60.40625 
L 10.984375 69.390625 
L 28.421875 72.90625 
L 38.28125 72.90625 
L 38.28125 8.296875 
L 54.390625 8.296875 
L 54.390625 0 
L 12.40625 0 
z
" id="DejaVuSans-31"/>
      </defs>
      <g transform="translate(60.26508 205.692875)scale(0.2 -0.2)">
       <use xlink:href="#DejaVuSans-2212"/>
       <use x="83.789062" xlink:href="#DejaVuSans-31"/>
      </g>
     </g>
    </g>
    <g id="xtick_2">
     <g id="line2d_2">
      <g>
       <use style="stroke:#000000;stroke-width:0.8;" x="182.628846" xlink:href="#mca1732d820" y="183.496"/>
      </g>
     </g>
     <g id="text_2">
      <!-- 0 -->
      <defs>
       <path d="M 31.78125 66.40625 
Q 24.171875 66.40625 20.328125 58.90625 
Q 16.5 51.421875 16.5 36.375 
Q 16.5 21.390625 20.328125 13.890625 
Q 24.171875 6.390625 31.78125 6.390625 
Q 39.453125 6.390625 43.28125 13.890625 
Q 47.125 21.390625 47.125 36.375 
Q 47.125 51.421875 43.28125 58.90625 
Q 39.453125 66.40625 31.78125 66.40625 
z
M 31.78125 74.21875 
Q 44.046875 74.21875 50.515625 64.515625 
Q 56.984375 54.828125 56.984375 36.375 
Q 56.984375 17.96875 50.515625 8.265625 
Q 44.046875 -1.421875 31.78125 -1.421875 
Q 19.53125 -1.421875 13.0625 8.265625 
Q 6.59375 17.96875 6.59375 36.375 
Q 6.59375 54.828125 13.0625 64.515625 
Q 19.53125 74.21875 31.78125 74.21875 
z
" id="DejaVuSans-30"/>
      </defs>
      <g transform="translate(176.266346 205.692875)scale(0.2 -0.2)">
       <use xlink:href="#DejaVuSans-30"/>
      </g>
     </g>
    </g>
    <g id="text_3">
     <!-- cloud cover -->
     <defs>
      <path d="M 48.78125 52.59375 
L 48.78125 44.1875 
Q 44.96875 46.296875 41.140625 47.34375 
Q 37.3125 48.390625 33.40625 48.390625 
Q 24.65625 48.390625 19.8125 42.84375 
Q 14.984375 37.3125 14.984375 27.296875 
Q 14.984375 17.28125 19.8125 11.734375 
Q 24.65625 6.203125 33.40625 6.203125 
Q 37.3125 6.203125 41.140625 7.25 
Q 44.96875 8.296875 48.78125 10.40625 
L 48.78125 2.09375 
Q 45.015625 0.34375 40.984375 -0.53125 
Q 36.96875 -1.421875 32.421875 -1.421875 
Q 20.0625 -1.421875 12.78125 6.34375 
Q 5.515625 14.109375 5.515625 27.296875 
Q 5.515625 40.671875 12.859375 48.328125 
Q 20.21875 56 33.015625 56 
Q 37.15625 56 41.109375 55.140625 
Q 45.0625 54.296875 48.78125 52.59375 
z
" id="DejaVuSans-63"/>
      <path d="M 9.421875 75.984375 
L 18.40625 75.984375 
L 18.40625 0 
L 9.421875 0 
z
" id="DejaVuSans-6c"/>
      <path d="M 30.609375 48.390625 
Q 23.390625 48.390625 19.1875 42.75 
Q 14.984375 37.109375 14.984375 27.296875 
Q 14.984375 17.484375 19.15625 11.84375 
Q 23.34375 6.203125 30.609375 6.203125 
Q 37.796875 6.203125 41.984375 11.859375 
Q 46.1875 17.53125 46.1875 27.296875 
Q 46.1875 37.015625 41.984375 42.703125 
Q 37.796875 48.390625 30.609375 48.390625 
z
M 30.609375 56 
Q 42.328125 56 49.015625 48.375 
Q 55.71875 40.765625 55.71875 27.296875 
Q 55.71875 13.875 49.015625 6.21875 
Q 42.328125 -1.421875 30.609375 -1.421875 
Q 18.84375 -1.421875 12.171875 6.21875 
Q 5.515625 13.875 5.515625 27.296875 
Q 5.515625 40.765625 12.171875 48.375 
Q 18.84375 56 30.609375 56 
z
" id="DejaVuSans-6f"/>
      <path d="M 8.5 21.578125 
L 8.5 54.6875 
L 17.484375 54.6875 
L 17.484375 21.921875 
Q 17.484375 14.15625 20.5 10.265625 
Q 23.53125 6.390625 29.59375 6.390625 
Q 36.859375 6.390625 41.078125 11.03125 
Q 45.3125 15.671875 45.3125 23.6875 
L 45.3125 54.6875 
L 54.296875 54.6875 
L 54.296875 0 
L 45.3125 0 
L 45.3125 8.40625 
Q 42.046875 3.421875 37.71875 1 
Q 33.40625 -1.421875 27.6875 -1.421875 
Q 18.265625 -1.421875 13.375 4.4375 
Q 8.5 10.296875 8.5 21.578125 
z
M 31.109375 56 
z
" id="DejaVuSans-75"/>
      <path d="M 45.40625 46.390625 
L 45.40625 75.984375 
L 54.390625 75.984375 
L 54.390625 0 
L 45.40625 0 
L 45.40625 8.203125 
Q 42.578125 3.328125 38.25 0.953125 
Q 33.9375 -1.421875 27.875 -1.421875 
Q 17.96875 -1.421875 11.734375 6.484375 
Q 5.515625 14.40625 5.515625 27.296875 
Q 5.515625 40.1875 11.734375 48.09375 
Q 17.96875 56 27.875 56 
Q 33.9375 56 38.25 53.625 
Q 42.578125 51.265625 45.40625 46.390625 
z
M 14.796875 27.296875 
Q 14.796875 17.390625 18.875 11.75 
Q 22.953125 6.109375 30.078125 6.109375 
Q 37.203125 6.109375 41.296875 11.75 
Q 45.40625 17.390625 45.40625 27.296875 
Q 45.40625 37.203125 41.296875 42.84375 
Q 37.203125 48.484375 30.078125 48.484375 
Q 22.953125 48.484375 18.875 42.84375 
Q 14.796875 37.203125 14.796875 27.296875 
z
" id="DejaVuSans-64"/>
      <path id="DejaVuSans-20"/>
      <path d="M 2.984375 54.6875 
L 12.5 54.6875 
L 29.59375 8.796875 
L 46.6875 54.6875 
L 56.203125 54.6875 
L 35.6875 0 
L 23.484375 0 
z
" id="DejaVuSans-76"/>
      <path d="M 56.203125 29.59375 
L 56.203125 25.203125 
L 14.890625 25.203125 
Q 15.484375 15.921875 20.484375 11.0625 
Q 25.484375 6.203125 34.421875 6.203125 
Q 39.59375 6.203125 44.453125 7.46875 
Q 49.3125 8.734375 54.109375 11.28125 
L 54.109375 2.78125 
Q 49.265625 0.734375 44.1875 -0.34375 
Q 39.109375 -1.421875 33.890625 -1.421875 
Q 20.796875 -1.421875 13.15625 6.1875 
Q 5.515625 13.8125 5.515625 26.8125 
Q 5.515625 40.234375 12.765625 48.109375 
Q 20.015625 56 32.328125 56 
Q 43.359375 56 49.78125 48.890625 
Q 56.203125 41.796875 56.203125 29.59375 
z
M 47.21875 32.234375 
Q 47.125 39.59375 43.09375 43.984375 
Q 39.0625 48.390625 32.421875 48.390625 
Q 24.90625 48.390625 20.390625 44.140625 
Q 15.875 39.890625 15.1875 32.171875 
z
" id="DejaVuSans-65"/>
      <path d="M 41.109375 46.296875 
Q 39.59375 47.171875 37.8125 47.578125 
Q 36.03125 48 33.890625 48 
Q 26.265625 48 22.1875 43.046875 
Q 18.109375 38.09375 18.109375 28.8125 
L 18.109375 0 
L 9.078125 0 
L 9.078125 54.6875 
L 18.109375 54.6875 
L 18.109375 46.1875 
Q 20.953125 51.171875 25.484375 53.578125 
Q 30.03125 56 36.53125 56 
Q 37.453125 56 38.578125 55.875 
Q 39.703125 55.765625 41.0625 55.515625 
z
" id="DejaVuSans-72"/>
     </defs>
     <g transform="translate(71.425781 232.848344)scale(0.25 -0.25)">
      <use xlink:href="#DejaVuSans-63"/>
      <use x="54.980469" xlink:href="#DejaVuSans-6c"/>
      <use x="82.763672" xlink:href="#DejaVuSans-6f"/>
      <use x="143.945312" xlink:href="#DejaVuSans-75"/>
      <use x="207.324219" xlink:href="#DejaVuSans-64"/>
      <use x="270.800781" xlink:href="#DejaVuSans-20"/>
      <use x="302.587891" xlink:href="#DejaVuSans-63"/>
      <use x="357.568359" xlink:href="#DejaVuSans-6f"/>
      <use x="418.75" xlink:href="#DejaVuSans-76"/>
      <use x="477.929688" xlink:href="#DejaVuSans-65"/>
      <use x="539.453125" xlink:href="#DejaVuSans-72"/>
     </g>
     <!-- skew -->
     <defs>
      <path d="M 44.28125 53.078125 
L 44.28125 44.578125 
Q 40.484375 46.53125 36.375 47.5 
Q 32.28125 48.484375 27.875 48.484375 
Q 21.1875 48.484375 17.84375 46.4375 
Q 14.5 44.390625 14.5 40.28125 
Q 14.5 37.15625 16.890625 35.375 
Q 19.28125 33.59375 26.515625 31.984375 
L 29.59375 31.296875 
Q 39.15625 29.25 43.1875 25.515625 
Q 47.21875 21.78125 47.21875 15.09375 
Q 47.21875 7.46875 41.1875 3.015625 
Q 35.15625 -1.421875 24.609375 -1.421875 
Q 20.21875 -1.421875 15.453125 -0.5625 
Q 10.6875 0.296875 5.421875 2 
L 5.421875 11.28125 
Q 10.40625 8.6875 15.234375 7.390625 
Q 20.0625 6.109375 24.8125 6.109375 
Q 31.15625 6.109375 34.5625 8.28125 
Q 37.984375 10.453125 37.984375 14.40625 
Q 37.984375 18.0625 35.515625 20.015625 
Q 33.0625 21.96875 24.703125 23.78125 
L 21.578125 24.515625 
Q 13.234375 26.265625 9.515625 29.90625 
Q 5.8125 33.546875 5.8125 39.890625 
Q 5.8125 47.609375 11.28125 51.796875 
Q 16.75 56 26.8125 56 
Q 31.78125 56 36.171875 55.265625 
Q 40.578125 54.546875 44.28125 53.078125 
z
" id="DejaVuSans-73"/>
      <path d="M 9.078125 75.984375 
L 18.109375 75.984375 
L 18.109375 31.109375 
L 44.921875 54.6875 
L 56.390625 54.6875 
L 27.390625 29.109375 
L 57.625 0 
L 45.90625 0 
L 18.109375 26.703125 
L 18.109375 0 
L 9.078125 0 
z
" id="DejaVuSans-6b"/>
      <path d="M 4.203125 54.6875 
L 13.1875 54.6875 
L 24.421875 12.015625 
L 35.59375 54.6875 
L 46.1875 54.6875 
L 57.421875 12.015625 
L 68.609375 54.6875 
L 77.59375 54.6875 
L 63.28125 0 
L 52.6875 0 
L 40.921875 44.828125 
L 29.109375 0 
L 18.5 0 
z
" id="DejaVuSans-77"/>
     </defs>
     <g transform="translate(112.341797 260.842875)scale(0.25 -0.25)">
      <use xlink:href="#DejaVuSans-73"/>
      <use x="52.099609" xlink:href="#DejaVuSans-6b"/>
      <use x="109.962891" xlink:href="#DejaVuSans-65"/>
      <use x="171.486328" xlink:href="#DejaVuSans-77"/>
     </g>
    </g>
   </g>
   <g id="line2d_3">
    <path clip-path="url(#pc6b45bbfe2)" d="M 34.254545 174.87378 
L 38.733952 174.690557 
L 43.213358 174.448102 
L 47.692764 174.161749 
L 52.172171 173.799948 
L 56.651577 173.294094 
L 61.130983 172.603386 
L 65.61039 171.772887 
L 70.089796 170.902823 
L 74.569202 170.057044 
L 79.048609 169.202763 
L 83.528015 168.160287 
L 88.007421 166.573096 
L 92.486827 164.074204 
L 96.966234 160.583732 
L 101.44564 156.31338 
L 105.925046 151.362761 
L 110.404453 145.359951 
L 114.883859 137.599126 
L 119.363265 127.681152 
L 123.842672 116.126788 
L 128.322078 104.301482 
L 132.801484 93.765897 
L 137.280891 85.769401 
L 141.760297 80.959247 
L 146.239703 79.031231 
L 150.719109 78.820306 
L 155.198516 79.126972 
L 159.677922 79.30016 
L 164.157328 78.812245 
L 168.636735 76.540106 
L 173.116141 70.840505 
L 177.595547 60.699212 
L 182.074954 47.376013 
L 186.55436 35.25952 
L 191.033766 30.562545 
L 195.513173 37.872491 
L 199.992579 56.858148 
L 204.471985 82.204866 
L 208.951391 107.182751 
L 213.430798 127.543221 
L 217.910204 142.519567 
L 222.38961 153.273197 
L 226.869017 161.132143 
L 231.348423 166.878075 
L 235.827829 170.86843 
L 240.307236 173.390174 
L 244.786642 174.827533 
L 249.266048 175.582656 
L 253.745455 175.954637 
" style="fill:none;stroke:#e69f00;stroke-linecap:square;stroke-width:2;"/>
   </g>
   <g id="line2d_4">
    <path clip-path="url(#pc6b45bbfe2)" d="M 34.254545 169.26563 
L 38.733952 168.142916 
L 43.213358 166.787141 
L 47.692764 165.191265 
L 52.172171 163.371498 
L 56.651577 161.360299 
L 61.130983 159.193142 
L 65.61039 156.896331 
L 70.089796 154.482754 
L 74.569202 151.957378 
L 79.048609 149.328134 
L 83.528015 146.614636 
L 88.007421 143.848738 
L 92.486827 141.066065 
L 96.966234 138.293183 
L 101.44564 135.537949 
L 105.925046 132.789553 
L 110.404453 130.03061 
L 114.883859 127.25824 
L 119.363265 124.50598 
L 123.842672 121.855538 
L 128.322078 119.428871 
L 132.801484 117.357489 
L 137.280891 115.735294 
L 141.760297 114.569365 
L 146.239703 113.74611 
L 150.719109 113.026851 
L 155.198516 112.079276 
L 159.677922 110.543104 
L 164.157328 108.122118 
L 168.636735 104.688442 
L 173.116141 100.374742 
L 177.595547 95.618199 
L 182.074954 91.11916 
L 186.55436 87.701017 
L 191.033766 86.103883 
L 195.513173 86.787574 
L 199.992579 89.826009 
L 204.471985 94.933221 
L 208.951391 101.59432 
L 213.430798 109.22715 
L 217.910204 117.301826 
L 222.38961 125.388547 
L 226.869017 133.153021 
L 231.348423 140.339416 
L 235.827829 146.766897 
L 240.307236 152.337925 
L 244.786642 157.040479 
L 249.266048 160.931536 
L 253.745455 164.10558 
" style="fill:none;stroke:#424243;stroke-linecap:square;stroke-width:2;"/>
   </g>
   <g id="patch_3">
    <path d="M 23.28 183.496 
L 264.72 183.496 
" style="fill:none;stroke:#000000;stroke-linecap:square;stroke-linejoin:miter;stroke-width:0.8;"/>
   </g>
  </g>
 </g>
 <defs>
  <clipPath id="pc6b45bbfe2">
   <rect height="160.216" width="241.44" x="23.28" y="23.28"/>
  </clipPath>
 </defs>
</svg>
