<?xml version="1.0" encoding="utf-8" standalone="no"?>
<!DOCTYPE svg PUBLIC "-//W3C//DTD SVG 1.1//EN"
  "http://www.w3.org/Graphics/SVG/1.1/DTD/svg11.dtd">
<!-- Created with matplotlib (http://matplotlib.org/) -->
<svg height="288pt" version="1.1" viewBox="0 0 288 288" width="288pt" xmlns="http://www.w3.org/2000/svg" xmlns:xlink="http://www.w3.org/1999/xlink">
 <defs>
  <style type="text/css">
*{stroke-linecap:butt;stroke-linejoin:round;}
  </style>
 </defs>
 <g id="figure_1">
  <g id="patch_1">
   <path d="M 0 288 
L 288 288 
L 288 0 
L 0 0 
z
" style="fill:#ffffff;"/>
  </g>
  <g id="axes_1">
   <g id="patch_2">
    <path d="M 43.673149 183.496 
L 264.72 183.496 
L 264.72 23.28 
L 43.673149 23.28 
z
" style="fill:#ffffff;"/>
   </g>
   <g id="PolyCollection_1">
    <defs>
     <path d="M 53.720733 -111.786545 
L 53.720733 -145.441401 
L 57.821788 -154.1682 
L 61.922842 -162.963245 
L 66.023897 -171.687178 
L 70.124952 -180.3818 
L 74.226007 -189.109499 
L 78.327061 -197.780771 
L 82.428116 -206.081971 
L 86.529171 -213.536534 
L 90.630226 -219.637791 
L 94.73128 -223.957384 
L 98.832335 -226.181439 
L 102.93339 -226.105424 
L 107.034445 -223.651973 
L 111.135499 -218.935132 
L 115.236554 -212.324522 
L 119.337609 -204.436288 
L 123.438664 -196.02239 
L 127.539718 -187.803903 
L 131.640773 -180.330874 
L 135.741828 -173.923956 
L 139.842883 -168.693294 
L 143.943937 -164.590834 
L 148.044992 -161.457427 
L 152.146047 -159.057338 
L 156.247102 -157.115106 
L 160.348156 -155.365847 
L 164.449211 -153.610369 
L 168.550266 -151.752685 
L 172.651321 -149.801974 
L 176.752375 -147.838854 
L 180.85343 -145.963255 
L 184.954485 -144.247879 
L 189.05554 -142.715539 
L 193.156594 -141.34561 
L 197.257649 -140.101596 
L 201.358704 -138.963799 
L 205.459759 -137.950519 
L 209.560814 -137.117062 
L 213.661868 -136.531222 
L 217.762923 -136.233917 
L 221.863978 -136.201163 
L 225.965033 -136.325187 
L 230.066087 -136.426171 
L 234.167142 -136.293441 
L 238.268197 -135.741783 
L 242.369252 -134.661485 
L 246.470306 -133.043535 
L 250.571361 -130.972878 
L 254.672416 -128.596803 
L 254.672416 -111.786545 
L 254.672416 -111.786545 
L 250.571361 -111.786545 
L 246.470306 -111.786545 
L 242.369252 -111.786545 
L 238.268197 -111.786545 
L 234.167142 -111.786545 
L 230.066087 -111.786545 
L 225.965033 -111.786545 
L 221.863978 -111.786545 
L 217.762923 -111.786545 
L 213.661868 -111.786545 
L 209.560814 -111.786545 
L 205.459759 -111.786545 
L 201.358704 -111.786545 
L 197.257649 -111.786545 
L 193.156594 -111.786545 
L 189.05554 -111.786545 
L 184.954485 -111.786545 
L 180.85343 -111.786545 
L 176.752375 -111.786545 
L 172.651321 -111.786545 
L 168.550266 -111.786545 
L 164.449211 -111.786545 
L 160.348156 -111.786545 
L 156.247102 -111.786545 
L 152.146047 -111.786545 
L 148.044992 -111.786545 
L 143.943937 -111.786545 
L 139.842883 -111.786545 
L 135.741828 -111.786545 
L 131.640773 -111.786545 
L 127.539718 -111.786545 
L 123.438664 -111.786545 
L 119.337609 -111.786545 
L 115.236554 -111.786545 
L 111.135499 -111.786545 
L 107.034445 -111.786545 
L 102.93339 -111.786545 
L 98.832335 -111.786545 
L 94.73128 -111.786545 
L 90.630226 -111.786545 
L 86.529171 -111.786545 
L 82.428116 -111.786545 
L 78.327061 -111.786545 
L 74.226007 -111.786545 
L 70.124952 -111.786545 
L 66.023897 -111.786545 
L 61.922842 -111.786545 
L 57.821788 -111.786545 
L 53.720733 -111.786545 
z
" id="m4d995ada1b" style="stroke:#e69f00;stroke-opacity:0.3;"/>
    </defs>
    <g clip-path="url(#pf33f2ffcdf)">
     <use style="fill:#e69f00;fill-opacity:0.3;stroke:#e69f00;stroke-opacity:0.3;" x="0" xlink:href="#m4d995ada1b" y="288"/>
    </g>
   </g>
   <g id="PolyCollection_2">
    <defs>
     <path d="M 53.720733 -111.786545 
L 53.720733 -163.454626 
L 57.821788 -178.834063 
L 61.922842 -195.358661 
L 66.023897 -212.229034 
L 70.124952 -228.335961 
L 74.226007 -242.236099 
L 78.327061 -252.355935 
L 82.428116 -257.437455 
L 86.529171 -257.021921 
L 90.630226 -251.668189 
L 94.73128 -242.741286 
L 98.832335 -231.889977 
L 102.93339 -220.522652 
L 107.034445 -209.542188 
L 111.135499 -199.384059 
L 115.236554 -190.212524 
L 119.337609 -182.094589 
L 123.438664 -175.065817 
L 127.539718 -169.114761 
L 131.640773 -164.158552 
L 135.741828 -160.053965 
L 139.842883 -156.635901 
L 143.943937 -153.75005 
L 148.044992 -151.262134 
L 152.146047 -149.055253 
L 156.247102 -147.034999 
L 160.348156 -145.143365 
L 164.449211 -143.363131 
L 168.550266 -141.69968 
L 172.651321 -140.151398 
L 176.752375 -138.693947 
L 180.85343 -137.290638 
L 184.954485 -135.915781 
L 189.05554 -134.567715 
L 193.156594 -133.261844 
L 197.257649 -132.01396 
L 201.358704 -130.830364 
L 205.459759 -129.711287 
L 209.560814 -128.660638 
L 213.661868 -127.690264 
L 217.762923 -126.81266 
L 221.863978 -126.026609 
L 225.965033 -125.307175 
L 230.066087 -124.60959 
L 234.167142 -123.886764 
L 238.268197 -123.109968 
L 242.369252 -122.279902 
L 246.470306 -121.422623 
L 250.571361 -120.575038 
L 254.672416 -119.769504 
L 254.672416 -111.786545 
L 254.672416 -111.786545 
L 250.571361 -111.786545 
L 246.470306 -111.786545 
L 242.369252 -111.786545 
L 238.268197 -111.786545 
L 234.167142 -111.786545 
L 230.066087 -111.786545 
L 225.965033 -111.786545 
L 221.863978 -111.786545 
L 217.762923 -111.786545 
L 213.661868 -111.786545 
L 209.560814 -111.786545 
L 205.459759 -111.786545 
L 201.358704 -111.786545 
L 197.257649 -111.786545 
L 193.156594 -111.786545 
L 189.05554 -111.786545 
L 184.954485 -111.786545 
L 180.85343 -111.786545 
L 176.752375 -111.786545 
L 172.651321 -111.786545 
L 168.550266 -111.786545 
L 164.449211 -111.786545 
L 160.348156 -111.786545 
L 156.247102 -111.786545 
L 152.146047 -111.786545 
L 148.044992 -111.786545 
L 143.943937 -111.786545 
L 139.842883 -111.786545 
L 135.741828 -111.786545 
L 131.640773 -111.786545 
L 127.539718 -111.786545 
L 123.438664 -111.786545 
L 119.337609 -111.786545 
L 115.236554 -111.786545 
L 111.135499 -111.786545 
L 107.034445 -111.786545 
L 102.93339 -111.786545 
L 98.832335 -111.786545 
L 94.73128 -111.786545 
L 90.630226 -111.786545 
L 86.529171 -111.786545 
L 82.428116 -111.786545 
L 78.327061 -111.786545 
L 74.226007 -111.786545 
L 70.124952 -111.786545 
L 66.023897 -111.786545 
L 61.922842 -111.786545 
L 57.821788 -111.786545 
L 53.720733 -111.786545 
z
" id="meb5145ba72" style="stroke:#424243;stroke-opacity:0.3;"/>
    </defs>
    <g clip-path="url(#pf33f2ffcdf)">
     <use style="fill:#424243;fill-opacity:0.3;stroke:#424243;stroke-opacity:0.3;" x="0" xlink:href="#meb5145ba72" y="288"/>
    </g>
   </g>
   <g id="matplotlib.axis_1">
    <g id="xtick_1">
     <g id="line2d_1">
      <defs>
       <path d="M 0 0 
L 0 3.5 
" id="m842ca02a00" style="stroke:#000000;stroke-width:0.8;"/>
      </defs>
      <g>
       <use style="stroke:#000000;stroke-width:0.8;" x="43.910795" xlink:href="#m842ca02a00" y="183.496"/>
      </g>
     </g>
     <g id="text_1">
      <!-- 0.00 -->
      <defs>
       <path d="M 31.78125 66.40625 
Q 24.171875 66.40625 20.328125 58.90625 
Q 16.5 51.421875 16.5 36.375 
Q 16.5 21.390625 20.328125 13.890625 
Q 24.171875 6.390625 31.78125 6.390625 
Q 39.453125 6.390625 43.28125 13.890625 
Q 47.125 21.390625 47.125 36.375 
Q 47.125 51.421875 43.28125 58.90625 
Q 39.453125 66.40625 31.78125 66.40625 
z
M 31.78125 74.21875 
Q 44.046875 74.21875 50.515625 64.515625 
Q 56.984375 54.828125 56.984375 36.375 
Q 56.984375 17.96875 50.515625 8.265625 
Q 44.046875 -1.421875 31.78125 -1.421875 
Q 19.53125 -1.421875 13.0625 8.265625 
Q 6.59375 17.96875 6.59375 36.375 
Q 6.59375 54.828125 13.0625 64.515625 
Q 19.53125 74.21875 31.78125 74.21875 
z
" id="DejaVuSans-30"/>
       <path d="M 10.6875 12.40625 
L 21 12.40625 
L 21 0 
L 10.6875 0 
z
" id="DejaVuSans-2e"/>
      </defs>
      <g transform="translate(21.64517 205.692875)scale(0.2 -0.2)">
       <use xlink:href="#DejaVuSans-30"/>
       <use x="63.623047" xlink:href="#DejaVuSans-2e"/>
       <use x="95.410156" xlink:href="#DejaVuSans-30"/>
       <use x="159.033203" xlink:href="#DejaVuSans-30"/>
      </g>
     </g>
    </g>
    <g id="xtick_2">
     <g id="line2d_2">
      <g>
       <use style="stroke:#000000;stroke-width:0.8;" x="165.419941" xlink:href="#m842ca02a00" y="183.496"/>
      </g>
     </g>
     <g id="text_2">
      <!-- 0.05 -->
      <defs>
       <path d="M 10.796875 72.90625 
L 49.515625 72.90625 
L 49.515625 64.59375 
L 19.828125 64.59375 
L 19.828125 46.734375 
Q 21.96875 47.46875 24.109375 47.828125 
Q 26.265625 48.1875 28.421875 48.1875 
Q 40.625 48.1875 47.75 41.5 
Q 54.890625 34.8125 54.890625 23.390625 
Q 54.890625 11.625 47.5625 5.09375 
Q 40.234375 -1.421875 26.90625 -1.421875 
Q 22.3125 -1.421875 17.546875 -0.640625 
Q 12.796875 0.140625 7.71875 1.703125 
L 7.71875 11.625 
Q 12.109375 9.234375 16.796875 8.0625 
Q 21.484375 6.890625 26.703125 6.890625 
Q 35.15625 6.890625 40.078125 11.328125 
Q 45.015625 15.765625 45.015625 23.390625 
Q 45.015625 31 40.078125 35.4375 
Q 35.15625 39.890625 26.703125 39.890625 
Q 22.75 39.890625 18.8125 39.015625 
Q 14.890625 38.140625 10.796875 36.28125 
z
" id="DejaVuSans-35"/>
      </defs>
      <g transform="translate(143.154316 205.692875)scale(0.2 -0.2)">
       <use xlink:href="#DejaVuSans-30"/>
       <use x="63.623047" xlink:href="#DejaVuSans-2e"/>
       <use x="95.410156" xlink:href="#DejaVuSans-30"/>
       <use x="159.033203" xlink:href="#DejaVuSans-35"/>
      </g>
     </g>
    </g>
    <g id="text_3">
     <!-- cloud cover -->
     <defs>
      <path d="M 48.78125 52.59375 
L 48.78125 44.1875 
Q 44.96875 46.296875 41.140625 47.34375 
Q 37.3125 48.390625 33.40625 48.390625 
Q 24.65625 48.390625 19.8125 42.84375 
Q 14.984375 37.3125 14.984375 27.296875 
Q 14.984375 17.28125 19.8125 11.734375 
Q 24.65625 6.203125 33.40625 6.203125 
Q 37.3125 6.203125 41.140625 7.25 
Q 44.96875 8.296875 48.78125 10.40625 
L 48.78125 2.09375 
Q 45.015625 0.34375 40.984375 -0.53125 
Q 36.96875 -1.421875 32.421875 -1.421875 
Q 20.0625 -1.421875 12.78125 6.34375 
Q 5.515625 14.109375 5.515625 27.296875 
Q 5.515625 40.671875 12.859375 48.328125 
Q 20.21875 56 33.015625 56 
Q 37.15625 56 41.109375 55.140625 
Q 45.0625 54.296875 48.78125 52.59375 
z
" id="DejaVuSans-63"/>
      <path d="M 9.421875 75.984375 
L 18.40625 75.984375 
L 18.40625 0 
L 9.421875 0 
z
" id="DejaVuSans-6c"/>
      <path d="M 30.609375 48.390625 
Q 23.390625 48.390625 19.1875 42.75 
Q 14.984375 37.109375 14.984375 27.296875 
Q 14.984375 17.484375 19.15625 11.84375 
Q 23.34375 6.203125 30.609375 6.203125 
Q 37.796875 6.203125 41.984375 11.859375 
Q 46.1875 17.53125 46.1875 27.296875 
Q 46.1875 37.015625 41.984375 42.703125 
Q 37.796875 48.390625 30.609375 48.390625 
z
M 30.609375 56 
Q 42.328125 56 49.015625 48.375 
Q 55.71875 40.765625 55.71875 27.296875 
Q 55.71875 13.875 49.015625 6.21875 
Q 42.328125 -1.421875 30.609375 -1.421875 
Q 18.84375 -1.421875 12.171875 6.21875 
Q 5.515625 13.875 5.515625 27.296875 
Q 5.515625 40.765625 12.171875 48.375 
Q 18.84375 56 30.609375 56 
z
" id="DejaVuSans-6f"/>
      <path d="M 8.5 21.578125 
L 8.5 54.6875 
L 17.484375 54.6875 
L 17.484375 21.921875 
Q 17.484375 14.15625 20.5 10.265625 
Q 23.53125 6.390625 29.59375 6.390625 
Q 36.859375 6.390625 41.078125 11.03125 
Q 45.3125 15.671875 45.3125 23.6875 
L 45.3125 54.6875 
L 54.296875 54.6875 
L 54.296875 0 
L 45.3125 0 
L 45.3125 8.40625 
Q 42.046875 3.421875 37.71875 1 
Q 33.40625 -1.421875 27.6875 -1.421875 
Q 18.265625 -1.421875 13.375 4.4375 
Q 8.5 10.296875 8.5 21.578125 
z
M 31.109375 56 
z
" id="DejaVuSans-75"/>
      <path d="M 45.40625 46.390625 
L 45.40625 75.984375 
L 54.390625 75.984375 
L 54.390625 0 
L 45.40625 0 
L 45.40625 8.203125 
Q 42.578125 3.328125 38.25 0.953125 
Q 33.9375 -1.421875 27.875 -1.421875 
Q 17.96875 -1.421875 11.734375 6.484375 
Q 5.515625 14.40625 5.515625 27.296875 
Q 5.515625 40.1875 11.734375 48.09375 
Q 17.96875 56 27.875 56 
Q 33.9375 56 38.25 53.625 
Q 42.578125 51.265625 45.40625 46.390625 
z
M 14.796875 27.296875 
Q 14.796875 17.390625 18.875 11.75 
Q 22.953125 6.109375 30.078125 6.109375 
Q 37.203125 6.109375 41.296875 11.75 
Q 45.40625 17.390625 45.40625 27.296875 
Q 45.40625 37.203125 41.296875 42.84375 
Q 37.203125 48.484375 30.078125 48.484375 
Q 22.953125 48.484375 18.875 42.84375 
Q 14.796875 37.203125 14.796875 27.296875 
z
" id="DejaVuSans-64"/>
      <path id="DejaVuSans-20"/>
      <path d="M 2.984375 54.6875 
L 12.5 54.6875 
L 29.59375 8.796875 
L 46.6875 54.6875 
L 56.203125 54.6875 
L 35.6875 0 
L 23.484375 0 
z
" id="DejaVuSans-76"/>
      <path d="M 56.203125 29.59375 
L 56.203125 25.203125 
L 14.890625 25.203125 
Q 15.484375 15.921875 20.484375 11.0625 
Q 25.484375 6.203125 34.421875 6.203125 
Q 39.59375 6.203125 44.453125 7.46875 
Q 49.3125 8.734375 54.109375 11.28125 
L 54.109375 2.78125 
Q 49.265625 0.734375 44.1875 -0.34375 
Q 39.109375 -1.421875 33.890625 -1.421875 
Q 20.796875 -1.421875 13.15625 6.1875 
Q 5.515625 13.8125 5.515625 26.8125 
Q 5.515625 40.234375 12.765625 48.109375 
Q 20.015625 56 32.328125 56 
Q 43.359375 56 49.78125 48.890625 
Q 56.203125 41.796875 56.203125 29.59375 
z
M 47.21875 32.234375 
Q 47.125 39.59375 43.09375 43.984375 
Q 39.0625 48.390625 32.421875 48.390625 
Q 24.90625 48.390625 20.390625 44.140625 
Q 15.875 39.890625 15.1875 32.171875 
z
" id="DejaVuSans-65"/>
      <path d="M 41.109375 46.296875 
Q 39.59375 47.171875 37.8125 47.578125 
Q 36.03125 48 33.890625 48 
Q 26.265625 48 22.1875 43.046875 
Q 18.109375 38.09375 18.109375 28.8125 
L 18.109375 0 
L 9.078125 0 
L 9.078125 54.6875 
L 18.109375 54.6875 
L 18.109375 46.1875 
Q 20.953125 51.171875 25.484375 53.578125 
Q 30.03125 56 36.53125 56 
Q 37.453125 56 38.578125 55.875 
Q 39.703125 55.765625 41.0625 55.515625 
z
" id="DejaVuSans-72"/>
     </defs>
     <g transform="translate(81.622356 232.848344)scale(0.25 -0.25)">
      <use xlink:href="#DejaVuSans-63"/>
      <use x="54.980469" xlink:href="#DejaVuSans-6c"/>
      <use x="82.763672" xlink:href="#DejaVuSans-6f"/>
      <use x="143.945312" xlink:href="#DejaVuSans-75"/>
      <use x="207.324219" xlink:href="#DejaVuSans-64"/>
      <use x="270.800781" xlink:href="#DejaVuSans-20"/>
      <use x="302.587891" xlink:href="#DejaVuSans-63"/>
      <use x="357.568359" xlink:href="#DejaVuSans-6f"/>
      <use x="418.75" xlink:href="#DejaVuSans-76"/>
      <use x="477.929688" xlink:href="#DejaVuSans-65"/>
      <use x="539.453125" xlink:href="#DejaVuSans-72"/>
     </g>
     <!-- variance -->
     <defs>
      <path d="M 34.28125 27.484375 
Q 23.390625 27.484375 19.1875 25 
Q 14.984375 22.515625 14.984375 16.5 
Q 14.984375 11.71875 18.140625 8.90625 
Q 21.296875 6.109375 26.703125 6.109375 
Q 34.1875 6.109375 38.703125 11.40625 
Q 43.21875 16.703125 43.21875 25.484375 
L 43.21875 27.484375 
z
M 52.203125 31.203125 
L 52.203125 0 
L 43.21875 0 
L 43.21875 8.296875 
Q 40.140625 3.328125 35.546875 0.953125 
Q 30.953125 -1.421875 24.3125 -1.421875 
Q 15.921875 -1.421875 10.953125 3.296875 
Q 6 8.015625 6 15.921875 
Q 6 25.140625 12.171875 29.828125 
Q 18.359375 34.515625 30.609375 34.515625 
L 43.21875 34.515625 
L 43.21875 35.40625 
Q 43.21875 41.609375 39.140625 45 
Q 35.0625 48.390625 27.6875 48.390625 
Q 23 48.390625 18.546875 47.265625 
Q 14.109375 46.140625 10.015625 43.890625 
L 10.015625 52.203125 
Q 14.9375 54.109375 19.578125 55.046875 
Q 24.21875 56 28.609375 56 
Q 40.484375 56 46.34375 49.84375 
Q 52.203125 43.703125 52.203125 31.203125 
z
" id="DejaVuSans-61"/>
      <path d="M 9.421875 54.6875 
L 18.40625 54.6875 
L 18.40625 0 
L 9.421875 0 
z
M 9.421875 75.984375 
L 18.40625 75.984375 
L 18.40625 64.59375 
L 9.421875 64.59375 
z
" id="DejaVuSans-69"/>
      <path d="M 54.890625 33.015625 
L 54.890625 0 
L 45.90625 0 
L 45.90625 32.71875 
Q 45.90625 40.484375 42.875 44.328125 
Q 39.84375 48.1875 33.796875 48.1875 
Q 26.515625 48.1875 22.3125 43.546875 
Q 18.109375 38.921875 18.109375 30.90625 
L 18.109375 0 
L 9.078125 0 
L 9.078125 54.6875 
L 18.109375 54.6875 
L 18.109375 46.1875 
Q 21.34375 51.125 25.703125 53.5625 
Q 30.078125 56 35.796875 56 
Q 45.21875 56 50.046875 50.171875 
Q 54.890625 44.34375 54.890625 33.015625 
z
" id="DejaVuSans-6e"/>
     </defs>
     <g transform="translate(100.380168 260.842875)scale(0.25 -0.25)">
      <use xlink:href="#DejaVuSans-76"/>
      <use x="59.179688" xlink:href="#DejaVuSans-61"/>
      <use x="120.458984" xlink:href="#DejaVuSans-72"/>
      <use x="161.572266" xlink:href="#DejaVuSans-69"/>
      <use x="189.355469" xlink:href="#DejaVuSans-61"/>
      <use x="250.634766" xlink:href="#DejaVuSans-6e"/>
      <use x="314.013672" xlink:href="#DejaVuSans-63"/>
      <use x="368.994141" xlink:href="#DejaVuSans-65"/>
     </g>
    </g>
   </g>
   <g id="line2d_3">
    <path clip-path="url(#pf33f2ffcdf)" d="M 53.720733 142.558599 
L 57.821788 133.8318 
L 61.922842 125.036755 
L 66.023897 116.312822 
L 70.124952 107.6182 
L 74.226007 98.890501 
L 78.327061 90.219229 
L 82.428116 81.918029 
L 86.529171 74.463466 
L 90.630226 68.362209 
L 94.73128 64.042616 
L 98.832335 61.818561 
L 102.93339 61.894576 
L 107.034445 64.348027 
L 111.135499 69.064868 
L 115.236554 75.675478 
L 119.337609 83.563712 
L 123.438664 91.97761 
L 127.539718 100.196097 
L 131.640773 107.669126 
L 135.741828 114.076044 
L 139.842883 119.306706 
L 143.943937 123.409166 
L 148.044992 126.542573 
L 152.146047 128.942662 
L 156.247102 130.884894 
L 160.348156 132.634153 
L 164.449211 134.389631 
L 168.550266 136.247315 
L 172.651321 138.198026 
L 176.752375 140.161146 
L 180.85343 142.036745 
L 184.954485 143.752121 
L 189.05554 145.284461 
L 193.156594 146.65439 
L 197.257649 147.898404 
L 201.358704 149.036201 
L 205.459759 150.049481 
L 209.560814 150.882938 
L 213.661868 151.468778 
L 217.762923 151.766083 
L 221.863978 151.798837 
L 225.965033 151.674813 
L 230.066087 151.573829 
L 234.167142 151.706559 
L 238.268197 152.258217 
L 242.369252 153.338515 
L 246.470306 154.956465 
L 250.571361 157.027122 
L 254.672416 159.403197 
" style="fill:none;stroke:#e69f00;stroke-linecap:square;stroke-width:2;"/>
   </g>
   <g id="line2d_4">
    <path clip-path="url(#pf33f2ffcdf)" d="M 53.720733 124.545374 
L 57.821788 109.165937 
L 61.922842 92.641339 
L 66.023897 75.770966 
L 70.124952 59.664039 
L 74.226007 45.763901 
L 78.327061 35.644065 
L 82.428116 30.562545 
L 86.529171 30.978079 
L 90.630226 36.331811 
L 94.73128 45.258714 
L 98.832335 56.110023 
L 102.93339 67.477348 
L 107.034445 78.457812 
L 111.135499 88.615941 
L 115.236554 97.787476 
L 119.337609 105.905411 
L 123.438664 112.934183 
L 127.539718 118.885239 
L 131.640773 123.841448 
L 135.741828 127.946035 
L 139.842883 131.364099 
L 143.943937 134.24995 
L 148.044992 136.737866 
L 152.146047 138.944747 
L 156.247102 140.965001 
L 160.348156 142.856635 
L 164.449211 144.636869 
L 168.550266 146.30032 
L 172.651321 147.848602 
L 176.752375 149.306053 
L 180.85343 150.709362 
L 184.954485 152.084219 
L 189.05554 153.432285 
L 193.156594 154.738156 
L 197.257649 155.98604 
L 201.358704 157.169636 
L 205.459759 158.288713 
L 209.560814 159.339362 
L 213.661868 160.309736 
L 217.762923 161.18734 
L 221.863978 161.973391 
L 225.965033 162.692825 
L 230.066087 163.39041 
L 234.167142 164.113236 
L 238.268197 164.890032 
L 242.369252 165.720098 
L 246.470306 166.577377 
L 250.571361 167.424962 
L 254.672416 168.230496 
" style="fill:none;stroke:#424243;stroke-linecap:square;stroke-width:2;"/>
   </g>
   <g id="patch_3">
    <path d="M 43.673149 183.496 
L 264.72 183.496 
" style="fill:none;stroke:#000000;stroke-linecap:square;stroke-linejoin:miter;stroke-width:0.8;"/>
   </g>
  </g>
 </g>
 <defs>
  <clipPath id="pf33f2ffcdf">
   <rect height="160.216" width="221.046851" x="43.673149" y="23.28"/>
  </clipPath>
 </defs>
</svg>
