<?xml version="1.0" encoding="utf-8" standalone="no"?>
<!DOCTYPE svg PUBLIC "-//W3C//DTD SVG 1.1//EN"
  "http://www.w3.org/Graphics/SVG/1.1/DTD/svg11.dtd">
<!-- Created with matplotlib (http://matplotlib.org/) -->
<svg height="288pt" version="1.1" viewBox="0 0 288 288" width="288pt" xmlns="http://www.w3.org/2000/svg" xmlns:xlink="http://www.w3.org/1999/xlink">
 <defs>
  <style type="text/css">
*{stroke-linecap:butt;stroke-linejoin:round;}
  </style>
 </defs>
 <g id="figure_1">
  <g id="patch_1">
   <path d="M 0 288 
L 288 288 
L 288 0 
L 0 0 
z
" style="fill:#ffffff;"/>
  </g>
  <g id="axes_1">
   <g id="patch_2">
    <path d="M 29.37625 183.496 
L 258.62375 183.496 
L 258.62375 23.28 
L 29.37625 23.28 
z
" style="fill:#ffffff;"/>
   </g>
   <g id="PolyCollection_1">
    <defs>
     <path d="M 39.796591 -111.786545 
L 39.796591 -111.786545 
L 44.049791 -111.786545 
L 48.302992 -111.786545 
L 52.556192 -111.786545 
L 56.809392 -111.786546 
L 61.062593 -111.786563 
L 65.315793 -111.78679 
L 69.568994 -111.788727 
L 73.822194 -111.799054 
L 78.075394 -111.832575 
L 82.328595 -111.895282 
L 86.581795 -111.951648 
L 90.834995 -111.949519 
L 95.088196 -111.902218 
L 99.341396 -111.892172 
L 103.594596 -112.016113 
L 107.847797 -112.444617 
L 112.100997 -113.577345 
L 116.354198 -115.985352 
L 120.607398 -120.013611 
L 124.860598 -125.508427 
L 129.113799 -131.866746 
L 133.366999 -138.201705 
L 137.620199 -144.118201 
L 141.8734 -150.862252 
L 146.1266 -161.190773 
L 150.379801 -177.30982 
L 154.633001 -198.167334 
L 158.886201 -219.19377 
L 163.139402 -235.469842 
L 167.392602 -245.02567 
L 171.645802 -249.369192 
L 175.899003 -251.548311 
L 180.152203 -253.914227 
L 184.405404 -256.544994 
L 188.658604 -257.437455 
L 192.911804 -254.500346 
L 197.165005 -247.042036 
L 201.418205 -236.272112 
L 205.671405 -223.535668 
L 209.924606 -208.312764 
L 214.177806 -190.691222 
L 218.431006 -173.285589 
L 222.684207 -158.563657 
L 226.937407 -147.040625 
L 231.190608 -138.154739 
L 235.443808 -131.237721 
L 239.697008 -125.867115 
L 243.950209 -121.792729 
L 248.203409 -118.751001 
L 248.203409 -111.786545 
L 248.203409 -111.786545 
L 243.950209 -111.786545 
L 239.697008 -111.786545 
L 235.443808 -111.786545 
L 231.190608 -111.786545 
L 226.937407 -111.786545 
L 222.684207 -111.786545 
L 218.431006 -111.786545 
L 214.177806 -111.786545 
L 209.924606 -111.786545 
L 205.671405 -111.786545 
L 201.418205 -111.786545 
L 197.165005 -111.786545 
L 192.911804 -111.786545 
L 188.658604 -111.786545 
L 184.405404 -111.786545 
L 180.152203 -111.786545 
L 175.899003 -111.786545 
L 171.645802 -111.786545 
L 167.392602 -111.786545 
L 163.139402 -111.786545 
L 158.886201 -111.786545 
L 154.633001 -111.786545 
L 150.379801 -111.786545 
L 146.1266 -111.786545 
L 141.8734 -111.786545 
L 137.620199 -111.786545 
L 133.366999 -111.786545 
L 129.113799 -111.786545 
L 124.860598 -111.786545 
L 120.607398 -111.786545 
L 116.354198 -111.786545 
L 112.100997 -111.786545 
L 107.847797 -111.786545 
L 103.594596 -111.786545 
L 99.341396 -111.786545 
L 95.088196 -111.786545 
L 90.834995 -111.786545 
L 86.581795 -111.786545 
L 82.328595 -111.786545 
L 78.075394 -111.786545 
L 73.822194 -111.786545 
L 69.568994 -111.786545 
L 65.315793 -111.786545 
L 61.062593 -111.786545 
L 56.809392 -111.786545 
L 52.556192 -111.786545 
L 48.302992 -111.786545 
L 44.049791 -111.786545 
L 39.796591 -111.786545 
z
" id="m8a8e2fc7ed" style="stroke:#e69f00;stroke-opacity:0.3;"/>
    </defs>
    <g clip-path="url(#pcdcfe1062e)">
     <use style="fill:#e69f00;fill-opacity:0.3;stroke:#e69f00;stroke-opacity:0.3;" x="0" xlink:href="#m8a8e2fc7ed" y="288"/>
    </g>
   </g>
   <g id="PolyCollection_2">
    <defs>
     <path d="M 39.796591 -111.786545 
L 39.796591 -115.293373 
L 44.049791 -115.3972 
L 48.302992 -115.433233 
L 52.556192 -115.417976 
L 56.809392 -115.381911 
L 61.062593 -115.356021 
L 65.315793 -115.358313 
L 69.568994 -115.389612 
L 73.822194 -115.441392 
L 78.075394 -115.509148 
L 82.328595 -115.602023 
L 86.581795 -115.745296 
L 90.834995 -115.979175 
L 95.088196 -116.357838 
L 99.341396 -116.949475 
L 103.594596 -117.838382 
L 107.847797 -119.133182 
L 112.100997 -120.980604 
L 116.354198 -123.568132 
L 120.607398 -127.089239 
L 124.860598 -131.667421 
L 129.113799 -137.283382 
L 133.366999 -143.774374 
L 137.620199 -150.933668 
L 141.8734 -158.651995 
L 146.1266 -166.986046 
L 150.379801 -176.072886 
L 154.633001 -185.92102 
L 158.886201 -196.213383 
L 163.139402 -206.265643 
L 167.392602 -215.186979 
L 171.645802 -222.166103 
L 175.899003 -226.732799 
L 180.152203 -228.857147 
L 184.405404 -228.842457 
L 188.658604 -227.098724 
L 192.911804 -223.951211 
L 197.165005 -219.578102 
L 201.418205 -214.05308 
L 205.671405 -207.421102 
L 209.924606 -199.771515 
L 214.177806 -191.29961 
L 218.431006 -182.328189 
L 222.684207 -173.255889 
L 226.937407 -164.450157 
L 231.190608 -156.159129 
L 235.443808 -148.505399 
L 239.697008 -141.550621 
L 243.950209 -135.362102 
L 248.203409 -130.026703 
L 248.203409 -111.786545 
L 248.203409 -111.786545 
L 243.950209 -111.786545 
L 239.697008 -111.786545 
L 235.443808 -111.786545 
L 231.190608 -111.786545 
L 226.937407 -111.786545 
L 222.684207 -111.786545 
L 218.431006 -111.786545 
L 214.177806 -111.786545 
L 209.924606 -111.786545 
L 205.671405 -111.786545 
L 201.418205 -111.786545 
L 197.165005 -111.786545 
L 192.911804 -111.786545 
L 188.658604 -111.786545 
L 184.405404 -111.786545 
L 180.152203 -111.786545 
L 175.899003 -111.786545 
L 171.645802 -111.786545 
L 167.392602 -111.786545 
L 163.139402 -111.786545 
L 158.886201 -111.786545 
L 154.633001 -111.786545 
L 150.379801 -111.786545 
L 146.1266 -111.786545 
L 141.8734 -111.786545 
L 137.620199 -111.786545 
L 133.366999 -111.786545 
L 129.113799 -111.786545 
L 124.860598 -111.786545 
L 120.607398 -111.786545 
L 116.354198 -111.786545 
L 112.100997 -111.786545 
L 107.847797 -111.786545 
L 103.594596 -111.786545 
L 99.341396 -111.786545 
L 95.088196 -111.786545 
L 90.834995 -111.786545 
L 86.581795 -111.786545 
L 82.328595 -111.786545 
L 78.075394 -111.786545 
L 73.822194 -111.786545 
L 69.568994 -111.786545 
L 65.315793 -111.786545 
L 61.062593 -111.786545 
L 56.809392 -111.786545 
L 52.556192 -111.786545 
L 48.302992 -111.786545 
L 44.049791 -111.786545 
L 39.796591 -111.786545 
z
" id="m7f2d4c4499" style="stroke:#424243;stroke-opacity:0.3;"/>
    </defs>
    <g clip-path="url(#pcdcfe1062e)">
     <use style="fill:#424243;fill-opacity:0.3;stroke:#424243;stroke-opacity:0.3;" x="0" xlink:href="#m7f2d4c4499" y="288"/>
    </g>
   </g>
   <g id="matplotlib.axis_1">
    <g id="xtick_1">
     <g id="line2d_1">
      <defs>
       <path d="M 0 0 
L 0 3.5 
" id="m2a72848b78" style="stroke:#000000;stroke-width:0.8;"/>
      </defs>
      <g>
       <use style="stroke:#000000;stroke-width:0.8;" x="47.581427" xlink:href="#m2a72848b78" y="183.496"/>
      </g>
     </g>
     <g id="text_1">
      <!-- 10 -->
      <defs>
       <path d="M 12.40625 8.296875 
L 28.515625 8.296875 
L 28.515625 63.921875 
L 10.984375 60.40625 
L 10.984375 69.390625 
L 28.421875 72.90625 
L 38.28125 72.90625 
L 38.28125 8.296875 
L 54.390625 8.296875 
L 54.390625 0 
L 12.40625 0 
z
" id="DejaVuSans-31"/>
       <path d="M 31.78125 66.40625 
Q 24.171875 66.40625 20.328125 58.90625 
Q 16.5 51.421875 16.5 36.375 
Q 16.5 21.390625 20.328125 13.890625 
Q 24.171875 6.390625 31.78125 6.390625 
Q 39.453125 6.390625 43.28125 13.890625 
Q 47.125 21.390625 47.125 36.375 
Q 47.125 51.421875 43.28125 58.90625 
Q 39.453125 66.40625 31.78125 66.40625 
z
M 31.78125 74.21875 
Q 44.046875 74.21875 50.515625 64.515625 
Q 56.984375 54.828125 56.984375 36.375 
Q 56.984375 17.96875 50.515625 8.265625 
Q 44.046875 -1.421875 31.78125 -1.421875 
Q 19.53125 -1.421875 13.0625 8.265625 
Q 6.59375 17.96875 6.59375 36.375 
Q 6.59375 54.828125 13.0625 64.515625 
Q 19.53125 74.21875 31.78125 74.21875 
z
" id="DejaVuSans-30"/>
      </defs>
      <g transform="translate(34.856427 205.692875)scale(0.2 -0.2)">
       <use xlink:href="#DejaVuSans-31"/>
       <use x="63.623047" xlink:href="#DejaVuSans-30"/>
      </g>
     </g>
    </g>
    <g id="xtick_2">
     <g id="line2d_2">
      <g>
       <use style="stroke:#000000;stroke-width:0.8;" x="118.775353" xlink:href="#m2a72848b78" y="183.496"/>
      </g>
     </g>
     <g id="text_2">
      <!-- 20 -->
      <defs>
       <path d="M 19.1875 8.296875 
L 53.609375 8.296875 
L 53.609375 0 
L 7.328125 0 
L 7.328125 8.296875 
Q 12.9375 14.109375 22.625 23.890625 
Q 32.328125 33.6875 34.8125 36.53125 
Q 39.546875 41.84375 41.421875 45.53125 
Q 43.3125 49.21875 43.3125 52.78125 
Q 43.3125 58.59375 39.234375 62.25 
Q 35.15625 65.921875 28.609375 65.921875 
Q 23.96875 65.921875 18.8125 64.3125 
Q 13.671875 62.703125 7.8125 59.421875 
L 7.8125 69.390625 
Q 13.765625 71.78125 18.9375 73 
Q 24.125 74.21875 28.421875 74.21875 
Q 39.75 74.21875 46.484375 68.546875 
Q 53.21875 62.890625 53.21875 53.421875 
Q 53.21875 48.921875 51.53125 44.890625 
Q 49.859375 40.875 45.40625 35.40625 
Q 44.1875 33.984375 37.640625 27.21875 
Q 31.109375 20.453125 19.1875 8.296875 
z
" id="DejaVuSans-32"/>
      </defs>
      <g transform="translate(106.050353 205.692875)scale(0.2 -0.2)">
       <use xlink:href="#DejaVuSans-32"/>
       <use x="63.623047" xlink:href="#DejaVuSans-30"/>
      </g>
     </g>
    </g>
    <g id="xtick_3">
     <g id="line2d_3">
      <g>
       <use style="stroke:#000000;stroke-width:0.8;" x="189.96928" xlink:href="#m2a72848b78" y="183.496"/>
      </g>
     </g>
     <g id="text_3">
      <!-- 30 -->
      <defs>
       <path d="M 40.578125 39.3125 
Q 47.65625 37.796875 51.625 33 
Q 55.609375 28.21875 55.609375 21.1875 
Q 55.609375 10.40625 48.1875 4.484375 
Q 40.765625 -1.421875 27.09375 -1.421875 
Q 22.515625 -1.421875 17.65625 -0.515625 
Q 12.796875 0.390625 7.625 2.203125 
L 7.625 11.71875 
Q 11.71875 9.328125 16.59375 8.109375 
Q 21.484375 6.890625 26.8125 6.890625 
Q 36.078125 6.890625 40.9375 10.546875 
Q 45.796875 14.203125 45.796875 21.1875 
Q 45.796875 27.640625 41.28125 31.265625 
Q 36.765625 34.90625 28.71875 34.90625 
L 20.21875 34.90625 
L 20.21875 43.015625 
L 29.109375 43.015625 
Q 36.375 43.015625 40.234375 45.921875 
Q 44.09375 48.828125 44.09375 54.296875 
Q 44.09375 59.90625 40.109375 62.90625 
Q 36.140625 65.921875 28.71875 65.921875 
Q 24.65625 65.921875 20.015625 65.03125 
Q 15.375 64.15625 9.8125 62.3125 
L 9.8125 71.09375 
Q 15.4375 72.65625 20.34375 73.4375 
Q 25.25 74.21875 29.59375 74.21875 
Q 40.828125 74.21875 47.359375 69.109375 
Q 53.90625 64.015625 53.90625 55.328125 
Q 53.90625 49.265625 50.4375 45.09375 
Q 46.96875 40.921875 40.578125 39.3125 
z
" id="DejaVuSans-33"/>
      </defs>
      <g transform="translate(177.24428 205.692875)scale(0.2 -0.2)">
       <use xlink:href="#DejaVuSans-33"/>
       <use x="63.623047" xlink:href="#DejaVuSans-30"/>
      </g>
     </g>
    </g>
    <g id="text_4">
     <!-- temperature -->
     <defs>
      <path d="M 18.3125 70.21875 
L 18.3125 54.6875 
L 36.8125 54.6875 
L 36.8125 47.703125 
L 18.3125 47.703125 
L 18.3125 18.015625 
Q 18.3125 11.328125 20.140625 9.421875 
Q 21.96875 7.515625 27.59375 7.515625 
L 36.8125 7.515625 
L 36.8125 0 
L 27.59375 0 
Q 17.1875 0 13.234375 3.875 
Q 9.28125 7.765625 9.28125 18.015625 
L 9.28125 47.703125 
L 2.6875 47.703125 
L 2.6875 54.6875 
L 9.28125 54.6875 
L 9.28125 70.21875 
z
" id="DejaVuSans-74"/>
      <path d="M 56.203125 29.59375 
L 56.203125 25.203125 
L 14.890625 25.203125 
Q 15.484375 15.921875 20.484375 11.0625 
Q 25.484375 6.203125 34.421875 6.203125 
Q 39.59375 6.203125 44.453125 7.46875 
Q 49.3125 8.734375 54.109375 11.28125 
L 54.109375 2.78125 
Q 49.265625 0.734375 44.1875 -0.34375 
Q 39.109375 -1.421875 33.890625 -1.421875 
Q 20.796875 -1.421875 13.15625 6.1875 
Q 5.515625 13.8125 5.515625 26.8125 
Q 5.515625 40.234375 12.765625 48.109375 
Q 20.015625 56 32.328125 56 
Q 43.359375 56 49.78125 48.890625 
Q 56.203125 41.796875 56.203125 29.59375 
z
M 47.21875 32.234375 
Q 47.125 39.59375 43.09375 43.984375 
Q 39.0625 48.390625 32.421875 48.390625 
Q 24.90625 48.390625 20.390625 44.140625 
Q 15.875 39.890625 15.1875 32.171875 
z
" id="DejaVuSans-65"/>
      <path d="M 52 44.1875 
Q 55.375 50.25 60.0625 53.125 
Q 64.75 56 71.09375 56 
Q 79.640625 56 84.28125 50.015625 
Q 88.921875 44.046875 88.921875 33.015625 
L 88.921875 0 
L 79.890625 0 
L 79.890625 32.71875 
Q 79.890625 40.578125 77.09375 44.375 
Q 74.3125 48.1875 68.609375 48.1875 
Q 61.625 48.1875 57.5625 43.546875 
Q 53.515625 38.921875 53.515625 30.90625 
L 53.515625 0 
L 44.484375 0 
L 44.484375 32.71875 
Q 44.484375 40.625 41.703125 44.40625 
Q 38.921875 48.1875 33.109375 48.1875 
Q 26.21875 48.1875 22.15625 43.53125 
Q 18.109375 38.875 18.109375 30.90625 
L 18.109375 0 
L 9.078125 0 
L 9.078125 54.6875 
L 18.109375 54.6875 
L 18.109375 46.1875 
Q 21.1875 51.21875 25.484375 53.609375 
Q 29.78125 56 35.6875 56 
Q 41.65625 56 45.828125 52.96875 
Q 50 49.953125 52 44.1875 
z
" id="DejaVuSans-6d"/>
      <path d="M 18.109375 8.203125 
L 18.109375 -20.796875 
L 9.078125 -20.796875 
L 9.078125 54.6875 
L 18.109375 54.6875 
L 18.109375 46.390625 
Q 20.953125 51.265625 25.265625 53.625 
Q 29.59375 56 35.59375 56 
Q 45.5625 56 51.78125 48.09375 
Q 58.015625 40.1875 58.015625 27.296875 
Q 58.015625 14.40625 51.78125 6.484375 
Q 45.5625 -1.421875 35.59375 -1.421875 
Q 29.59375 -1.421875 25.265625 0.953125 
Q 20.953125 3.328125 18.109375 8.203125 
z
M 48.6875 27.296875 
Q 48.6875 37.203125 44.609375 42.84375 
Q 40.53125 48.484375 33.40625 48.484375 
Q 26.265625 48.484375 22.1875 42.84375 
Q 18.109375 37.203125 18.109375 27.296875 
Q 18.109375 17.390625 22.1875 11.75 
Q 26.265625 6.109375 33.40625 6.109375 
Q 40.53125 6.109375 44.609375 11.75 
Q 48.6875 17.390625 48.6875 27.296875 
z
" id="DejaVuSans-70"/>
      <path d="M 41.109375 46.296875 
Q 39.59375 47.171875 37.8125 47.578125 
Q 36.03125 48 33.890625 48 
Q 26.265625 48 22.1875 43.046875 
Q 18.109375 38.09375 18.109375 28.8125 
L 18.109375 0 
L 9.078125 0 
L 9.078125 54.6875 
L 18.109375 54.6875 
L 18.109375 46.1875 
Q 20.953125 51.171875 25.484375 53.578125 
Q 30.03125 56 36.53125 56 
Q 37.453125 56 38.578125 55.875 
Q 39.703125 55.765625 41.0625 55.515625 
z
" id="DejaVuSans-72"/>
      <path d="M 34.28125 27.484375 
Q 23.390625 27.484375 19.1875 25 
Q 14.984375 22.515625 14.984375 16.5 
Q 14.984375 11.71875 18.140625 8.90625 
Q 21.296875 6.109375 26.703125 6.109375 
Q 34.1875 6.109375 38.703125 11.40625 
Q 43.21875 16.703125 43.21875 25.484375 
L 43.21875 27.484375 
z
M 52.203125 31.203125 
L 52.203125 0 
L 43.21875 0 
L 43.21875 8.296875 
Q 40.140625 3.328125 35.546875 0.953125 
Q 30.953125 -1.421875 24.3125 -1.421875 
Q 15.921875 -1.421875 10.953125 3.296875 
Q 6 8.015625 6 15.921875 
Q 6 25.140625 12.171875 29.828125 
Q 18.359375 34.515625 30.609375 34.515625 
L 43.21875 34.515625 
L 43.21875 35.40625 
Q 43.21875 41.609375 39.140625 45 
Q 35.0625 48.390625 27.6875 48.390625 
Q 23 48.390625 18.546875 47.265625 
Q 14.109375 46.140625 10.015625 43.890625 
L 10.015625 52.203125 
Q 14.9375 54.109375 19.578125 55.046875 
Q 24.21875 56 28.609375 56 
Q 40.484375 56 46.34375 49.84375 
Q 52.203125 43.703125 52.203125 31.203125 
z
" id="DejaVuSans-61"/>
      <path d="M 8.5 21.578125 
L 8.5 54.6875 
L 17.484375 54.6875 
L 17.484375 21.921875 
Q 17.484375 14.15625 20.5 10.265625 
Q 23.53125 6.390625 29.59375 6.390625 
Q 36.859375 6.390625 41.078125 11.03125 
Q 45.3125 15.671875 45.3125 23.6875 
L 45.3125 54.6875 
L 54.296875 54.6875 
L 54.296875 0 
L 45.3125 0 
L 45.3125 8.40625 
Q 42.046875 3.421875 37.71875 1 
Q 33.40625 -1.421875 27.6875 -1.421875 
Q 18.265625 -1.421875 13.375 4.4375 
Q 8.5 10.296875 8.5 21.578125 
z
M 31.109375 56 
z
" id="DejaVuSans-75"/>
     </defs>
     <g transform="translate(65.158203 232.848344)scale(0.25 -0.25)">
      <use xlink:href="#DejaVuSans-74"/>
      <use x="39.208984" xlink:href="#DejaVuSans-65"/>
      <use x="100.732422" xlink:href="#DejaVuSans-6d"/>
      <use x="198.144531" xlink:href="#DejaVuSans-70"/>
      <use x="261.621094" xlink:href="#DejaVuSans-65"/>
      <use x="323.144531" xlink:href="#DejaVuSans-72"/>
      <use x="364.257812" xlink:href="#DejaVuSans-61"/>
      <use x="425.537109" xlink:href="#DejaVuSans-74"/>
      <use x="464.746094" xlink:href="#DejaVuSans-75"/>
      <use x="528.125" xlink:href="#DejaVuSans-72"/>
      <use x="569.207031" xlink:href="#DejaVuSans-65"/>
     </g>
     <!-- mean -->
     <defs>
      <path d="M 54.890625 33.015625 
L 54.890625 0 
L 45.90625 0 
L 45.90625 32.71875 
Q 45.90625 40.484375 42.875 44.328125 
Q 39.84375 48.1875 33.796875 48.1875 
Q 26.515625 48.1875 22.3125 43.546875 
Q 18.109375 38.921875 18.109375 30.90625 
L 18.109375 0 
L 9.078125 0 
L 9.078125 54.6875 
L 18.109375 54.6875 
L 18.109375 46.1875 
Q 21.34375 51.125 25.703125 53.5625 
Q 30.078125 56 35.796875 56 
Q 45.21875 56 50.046875 50.171875 
Q 54.890625 44.34375 54.890625 33.015625 
z
" id="DejaVuSans-6e"/>
     </defs>
     <g transform="translate(108.550781 260.842875)scale(0.25 -0.25)">
      <use xlink:href="#DejaVuSans-6d"/>
      <use x="97.412109" xlink:href="#DejaVuSans-65"/>
      <use x="158.935547" xlink:href="#DejaVuSans-61"/>
      <use x="220.214844" xlink:href="#DejaVuSans-6e"/>
     </g>
    </g>
   </g>
   <g id="line2d_4">
    <path clip-path="url(#pcdcfe1062e)" d="M 39.796591 176.213455 
L 44.049791 176.213455 
L 48.302992 176.213455 
L 52.556192 176.213455 
L 56.809392 176.213454 
L 61.062593 176.213437 
L 65.315793 176.21321 
L 69.568994 176.211273 
L 73.822194 176.200946 
L 78.075394 176.167425 
L 82.328595 176.104718 
L 86.581795 176.048352 
L 90.834995 176.050481 
L 95.088196 176.097782 
L 99.341396 176.107828 
L 103.594596 175.983887 
L 107.847797 175.555383 
L 112.100997 174.422655 
L 116.354198 172.014648 
L 120.607398 167.986389 
L 124.860598 162.491573 
L 129.113799 156.133254 
L 133.366999 149.798295 
L 137.620199 143.881799 
L 141.8734 137.137748 
L 146.1266 126.809227 
L 150.379801 110.69018 
L 154.633001 89.832666 
L 158.886201 68.80623 
L 163.139402 52.530158 
L 167.392602 42.97433 
L 171.645802 38.630808 
L 175.899003 36.451689 
L 180.152203 34.085773 
L 184.405404 31.455006 
L 188.658604 30.562545 
L 192.911804 33.499654 
L 197.165005 40.957964 
L 201.418205 51.727888 
L 205.671405 64.464332 
L 209.924606 79.687236 
L 214.177806 97.308778 
L 218.431006 114.714411 
L 222.684207 129.436343 
L 226.937407 140.959375 
L 231.190608 149.845261 
L 235.443808 156.762279 
L 239.697008 162.132885 
L 243.950209 166.207271 
L 248.203409 169.248999 
" style="fill:none;stroke:#e69f00;stroke-linecap:square;stroke-width:2;"/>
   </g>
   <g id="line2d_5">
    <path clip-path="url(#pcdcfe1062e)" d="M 39.796591 172.706627 
L 44.049791 172.6028 
L 48.302992 172.566767 
L 52.556192 172.582024 
L 56.809392 172.618089 
L 61.062593 172.643979 
L 65.315793 172.641687 
L 69.568994 172.610388 
L 73.822194 172.558608 
L 78.075394 172.490852 
L 82.328595 172.397977 
L 86.581795 172.254704 
L 90.834995 172.020825 
L 95.088196 171.642162 
L 99.341396 171.050525 
L 103.594596 170.161618 
L 107.847797 168.866818 
L 112.100997 167.019396 
L 116.354198 164.431868 
L 120.607398 160.910761 
L 124.860598 156.332579 
L 129.113799 150.716618 
L 133.366999 144.225626 
L 137.620199 137.066332 
L 141.8734 129.348005 
L 146.1266 121.013954 
L 150.379801 111.927114 
L 154.633001 102.07898 
L 158.886201 91.786617 
L 163.139402 81.734357 
L 167.392602 72.813021 
L 171.645802 65.833897 
L 175.899003 61.267201 
L 180.152203 59.142853 
L 184.405404 59.157543 
L 188.658604 60.901276 
L 192.911804 64.048789 
L 197.165005 68.421898 
L 201.418205 73.94692 
L 205.671405 80.578898 
L 209.924606 88.228485 
L 214.177806 96.70039 
L 218.431006 105.671811 
L 222.684207 114.744111 
L 226.937407 123.549843 
L 231.190608 131.840871 
L 235.443808 139.494601 
L 239.697008 146.449379 
L 243.950209 152.637898 
L 248.203409 157.973297 
" style="fill:none;stroke:#424243;stroke-linecap:square;stroke-width:2;"/>
   </g>
   <g id="patch_3">
    <path d="M 29.37625 183.496 
L 258.62375 183.496 
" style="fill:none;stroke:#000000;stroke-linecap:square;stroke-linejoin:miter;stroke-width:0.8;"/>
   </g>
  </g>
 </g>
 <defs>
  <clipPath id="pcdcfe1062e">
   <rect height="160.216" width="229.2475" x="29.37625" y="23.28"/>
  </clipPath>
 </defs>
</svg>
